<?xml version="1.0" encoding="utf-8"?>
<!-- Generator: Adobe Illustrator 24.0.3, SVG Export Plug-In . SVG Version: 6.00 Build 0)  -->
<svg version="1.1" id="Layer_1" xmlns="http://www.w3.org/2000/svg" xmlns:xlink="http://www.w3.org/1999/xlink" x="0px" y="0px"
	 viewBox="0 0 65.6 73.6" style="enable-background:new 0 0 65.6 73.6;" xml:space="preserve">
<style type="text/css">
	.st0{fill:#FFFFFF;}
</style>
<g>
	<path class="st0" d="M63.4,36.2c-0.5,0-0.8,0.4-0.8,0.8c0,0.5,0.4,0.8,0.8,0.8c0.4,0,0.8-0.4,0.8-0.8
		C64.2,36.5,63.8,36.2,63.4,36.2z"/>
	<path class="st0" d="M57.3,36.2c-0.5,0-0.8,0.3-0.8,0.8s0.4,0.8,0.8,0.8s0.7-0.4,0.8-0.8C58.1,36.5,57.8,36.2,57.3,36.2z"/>
	<path class="st0" d="M51.1,30c-0.5,0-0.8,0.3-0.8,0.8s0.4,0.8,0.8,0.8c0.5,0,0.8-0.3,0.8-0.8S51.5,30,51.1,30z"/>
	<path class="st0" d="M51.1,36.2c-0.5,0-0.8,0.4-0.8,0.8c0,0.5,0.4,0.8,0.8,0.8c0.5,0,0.8-0.4,0.8-0.8
		C51.9,36.5,51.5,36.2,51.1,36.2z"/>
	<circle class="st0" cx="51.1" cy="43.1" r="0.8"/>
	<path class="st0" d="M45,30c-0.5,0-0.8,0.3-0.8,0.8s0.4,0.8,0.8,0.8c0.4,0,0.8-0.3,0.8-0.8S45.5,30,45,30z"/>
	<path class="st0" d="M45,36.2c-0.5,0-0.8,0.3-0.8,0.8s0.4,0.8,0.8,0.8c0.4,0,0.8-0.4,0.8-0.8C45.8,36.5,45.5,36.2,45,36.2z"/>
	<circle class="st0" cx="45" cy="43.1" r="0.8"/>
	<path class="st0" d="M38.9,23.9c-0.5,0-0.8,0.4-0.8,0.8c0,0.5,0.4,0.8,0.8,0.8c0.4,0,0.7-0.3,0.8-0.8
		C39.7,24.2,39.3,23.9,38.9,23.9z"/>
	<path class="st0" d="M38.9,30c-0.5,0-0.8,0.3-0.8,0.8s0.4,0.8,0.8,0.8c0.4,0,0.7-0.3,0.8-0.8C39.7,30.3,39.3,30,38.9,30z"/>
	<path class="st0" d="M38.9,36.2c-0.5,0-0.8,0.4-0.8,0.8c0,0.5,0.4,0.8,0.8,0.8c0.4,0,0.7-0.4,0.8-0.8
		C39.7,36.5,39.3,36.2,38.9,36.2z"/>
	<path class="st0" d="M38.9,42.3c-0.5,0-0.8,0.3-0.8,0.8s0.4,0.8,0.8,0.8c0.4,0,0.7-0.3,0.8-0.8C39.7,42.6,39.3,42.3,38.9,42.3z"/>
	<path class="st0" d="M38.9,48.4c-0.5,0-0.8,0.4-0.8,0.8c0,0.5,0.4,0.8,0.8,0.8c0.4,0,0.7-0.3,0.8-0.8
		C39.7,48.7,39.3,48.4,38.9,48.4z"/>
	<path class="st0" d="M32.7,24c-0.4,0-0.8,0.2-0.8,0.7s0.4,0.8,0.8,0.8c0.5,0,0.8-0.3,0.8-0.7C33.5,24.3,33.1,24,32.7,24z"/>
	<path class="st0" d="M32.7,30c-0.5,0-0.8,0.3-0.8,0.8s0.4,0.8,0.8,0.8c0.5,0,0.8-0.3,0.8-0.8S33.2,30,32.7,30z"/>
	<path class="st0" d="M32.7,36.2c-0.5,0-0.8,0.3-0.8,0.8s0.4,0.8,0.8,0.8c0.5,0,0.8-0.4,0.8-0.8C33.5,36.5,33.2,36.2,32.7,36.2z"/>
	<path class="st0" d="M32.7,42.3c-0.5,0-0.8,0.3-0.8,0.8s0.4,0.8,0.8,0.8c0.5,0,0.8-0.3,0.8-0.8S33.2,42.3,32.7,42.3z"/>
	<path class="st0" d="M32.7,48.4c-0.5,0-0.8,0.3-0.8,0.8s0.4,0.8,0.8,0.8c0.5,0,0.8-0.3,0.8-0.8S33.2,48.4,32.7,48.4z"/>
	<circle class="st0" cx="26.6" cy="18.6" r="0.8"/>
	<path class="st0" d="M26.6,24c-0.4,0-0.8,0.2-0.8,0.7s0.4,0.8,0.8,0.8c0.4,0,0.8-0.3,0.8-0.7C27.4,24.3,27,24,26.6,24z"/>
	<path class="st0" d="M26.6,30c-0.5,0-0.8,0.3-0.8,0.8s0.4,0.8,0.8,0.8c0.4,0,0.8-0.3,0.8-0.8S27.1,30,26.6,30z"/>
	<path class="st0" d="M26.6,36.2c-0.5,0-0.8,0.3-0.8,0.8s0.4,0.8,0.8,0.8c0.4,0,0.8-0.4,0.8-0.8C27.4,36.5,27.1,36.2,26.6,36.2z"/>
	<circle class="st0" cx="26.6" cy="43.1" r="0.8"/>
	<path class="st0" d="M26.6,48.4c-0.5,0-0.8,0.3-0.8,0.8s0.4,0.8,0.8,0.8c0.4,0,0.8-0.3,0.8-0.8S27.1,48.4,26.6,48.4z"/>
	<circle class="st0" cx="26.6" cy="55.4" r="0.8"/>
	<path class="st0" d="M20.5,11.6c-0.5,0-0.8,0.4-0.8,0.8c0,0.5,0.4,0.8,0.8,0.8c0.4,0,0.7-0.3,0.8-0.8
		C21.3,11.9,20.9,11.6,20.5,11.6z"/>
	<path class="st0" d="M20.5,17.8c-0.5,0-0.8,0.4-0.8,0.8c0,0.5,0.4,0.8,0.8,0.8c0.4,0,0.7-0.4,0.8-0.8
		C21.3,18.1,20.9,17.8,20.5,17.8z"/>
	<path class="st0" d="M20.5,23.9c-0.5,0-0.8,0.4-0.8,0.8c0,0.5,0.4,0.8,0.8,0.8c0.4,0,0.7-0.3,0.8-0.8
		C21.3,24.2,20.9,23.9,20.5,23.9z"/>
	<path class="st0" d="M20.5,30c-0.5,0-0.8,0.4-0.8,0.8c0,0.5,0.4,0.8,0.8,0.8c0.4,0,0.7-0.3,0.8-0.8C21.3,30.3,20.9,30,20.5,30z"/>
	<path class="st0" d="M20.5,36.2c-0.5,0-0.8,0.4-0.8,0.8c0,0.5,0.4,0.8,0.8,0.8c0.4,0,0.7-0.4,0.8-0.8
		C21.3,36.5,20.9,36.2,20.5,36.2z"/>
	<path class="st0" d="M20.5,42.3c-0.5,0-0.8,0.4-0.8,0.8c0,0.5,0.4,0.8,0.8,0.8c0.4,0,0.7-0.3,0.8-0.8
		C21.3,42.6,20.9,42.3,20.5,42.3z"/>
	<path class="st0" d="M20.5,48.4c-0.5,0-0.8,0.4-0.8,0.8c0,0.5,0.4,0.8,0.8,0.8c0.4,0,0.7-0.3,0.8-0.8
		C21.3,48.7,20.9,48.4,20.5,48.4z"/>
	<path class="st0" d="M20.5,54.6c-0.5,0-0.8,0.4-0.8,0.8c0,0.5,0.4,0.8,0.8,0.8c0.4,0,0.7-0.4,0.8-0.8
		C21.3,54.9,20.9,54.6,20.5,54.6z"/>
	<circle class="st0" cx="14.3" cy="12.4" r="0.8"/>
	<circle class="st0" cx="14.3" cy="18.6" r="0.8"/>
	<path class="st0" d="M14.3,23.9c-0.5,0-0.8,0.4-0.8,0.8c0,0.5,0.4,0.8,0.8,0.8c0.5,0,0.8-0.3,0.8-0.8S14.7,23.9,14.3,23.9z"/>
	<path class="st0" d="M14.3,30c-0.5,0-0.8,0.4-0.8,0.8c0,0.5,0.4,0.8,0.8,0.8c0.5,0,0.8-0.3,0.8-0.8S14.7,30,14.3,30z"/>
	<path class="st0" d="M14.3,36.2c-0.5,0-0.8,0.4-0.8,0.8c0,0.5,0.4,0.8,0.8,0.8c0.5,0,0.8-0.4,0.8-0.8
		C15.1,36.5,14.7,36.2,14.3,36.2z"/>
	<circle class="st0" cx="14.3" cy="43.1" r="0.8"/>
	<path class="st0" d="M14.3,48.4c-0.5,0-0.8,0.4-0.8,0.8c0,0.5,0.4,0.8,0.8,0.8c0.5,0,0.8-0.3,0.8-0.8S14.7,48.4,14.3,48.4z"/>
	<circle class="st0" cx="14.3" cy="55.4" r="0.8"/>
	<path class="st0" d="M14.3,60.7c-0.5,0-0.8,0.3-0.8,0.8s0.4,0.8,0.8,0.8c0.5,0,0.8-0.3,0.8-0.8S14.7,60.7,14.3,60.7z"/>
	<path class="st0" d="M8.2,5.5c-0.5,0-0.8,0.3-0.8,0.8s0.4,0.8,0.8,0.8C8.6,7.1,9,6.8,9,6.3S8.6,5.5,8.2,5.5z"/>
	<path class="st0" d="M8.2,11.6c-0.5,0-0.8,0.4-0.8,0.8c0,0.5,0.4,0.8,0.8,0.8c0.4,0,0.8-0.3,0.8-0.8S8.6,11.6,8.2,11.6z"/>
	<path class="st0" d="M8.2,17.8c-0.5,0-0.8,0.4-0.8,0.8c0,0.5,0.4,0.8,0.8,0.8C8.6,19.4,9,19,9,18.6C9,18.1,8.6,17.8,8.2,17.8z"/>
	<path class="st0" d="M8.2,23.9c-0.5,0-0.8,0.4-0.8,0.8c0,0.5,0.4,0.8,0.8,0.8c0.4,0,0.8-0.3,0.8-0.8S8.6,23.9,8.2,23.9z"/>
	<path class="st0" d="M8.2,30c-0.5,0-0.8,0.4-0.8,0.8c0,0.5,0.4,0.8,0.8,0.8c0.4,0,0.8-0.3,0.8-0.8S8.6,30,8.2,30z"/>
	<path class="st0" d="M8.2,36.2c-0.5,0-0.8,0.4-0.8,0.8c0,0.5,0.4,0.8,0.8,0.8C8.6,37.8,9,37.4,9,37C9,36.5,8.6,36.2,8.2,36.2z"/>
	<path class="st0" d="M8.2,42.3c-0.5,0-0.8,0.4-0.8,0.8c0,0.5,0.4,0.8,0.8,0.8c0.4,0,0.8-0.3,0.8-0.8S8.6,42.3,8.2,42.3z"/>
	<path class="st0" d="M8.2,48.4c-0.5,0-0.8,0.4-0.8,0.8c0,0.5,0.4,0.8,0.8,0.8C8.6,50,9,49.7,9,49.2S8.6,48.4,8.2,48.4z"/>
	<path class="st0" d="M8.2,54.6c-0.5,0-0.8,0.4-0.8,0.8c0,0.5,0.4,0.8,0.8,0.8c0.4,0,0.8-0.4,0.8-0.8C9,54.9,8.6,54.6,8.2,54.6z"/>
	<path class="st0" d="M8.2,60.7c-0.5,0-0.8,0.3-0.8,0.8s0.4,0.8,0.8,0.8C8.6,62.3,9,62,9,61.5S8.6,60.7,8.2,60.7z"/>
	<path class="st0" d="M8.2,66.8c-0.5,0-0.8,0.4-0.8,0.8c0,0.5,0.4,0.8,0.8,0.8c0.4,0,0.8-0.3,0.8-0.8S8.6,66.8,8.2,66.8z"/>
	<path class="st0" d="M2.1,5.5c-0.5,0-0.8,0.3-0.8,0.8s0.4,0.8,0.8,0.8c0.4,0,0.8-0.3,0.8-0.8S2.6,5.5,2.1,5.5z"/>
	<circle class="st0" cx="2.1" cy="12.4" r="0.8"/>
	<circle class="st0" cx="2.1" cy="18.6" r="0.8"/>
	<path class="st0" d="M2.1,23.9c-0.5,0-0.8,0.4-0.8,0.8c0,0.5,0.4,0.8,0.8,0.8c0.4,0,0.8-0.3,0.8-0.8S2.5,23.9,2.1,23.9z"/>
	<path class="st0" d="M2.1,30c-0.5,0-0.8,0.4-0.8,0.8c0,0.5,0.4,0.8,0.8,0.8c0.4,0,0.8-0.3,0.8-0.8S2.5,30,2.1,30z"/>
	<path class="st0" d="M2.1,36.2c-0.5,0-0.8,0.4-0.8,0.8c0,0.5,0.4,0.8,0.8,0.8c0.4,0,0.8-0.4,0.8-0.8C2.9,36.5,2.5,36.2,2.1,36.2z"
		/>
	<circle class="st0" cx="2.1" cy="43.1" r="0.8"/>
	<path class="st0" d="M2.1,48.4c-0.5,0-0.8,0.4-0.8,0.8c0,0.5,0.4,0.8,0.8,0.8c0.4,0,0.8-0.3,0.8-0.8S2.5,48.4,2.1,48.4z"/>
	<circle class="st0" cx="2.1" cy="55.4" r="0.8"/>
	<path class="st0" d="M2.1,60.7c-0.5,0-0.8,0.3-0.8,0.8s0.4,0.8,0.8,0.8c0.4,0,0.8-0.3,0.8-0.8S2.5,60.7,2.1,60.7z"/>
	<circle class="st0" cx="2.1" cy="67.6" r="0.8"/>
	<path class="st0" d="M2.1,1.6c0.2,0,0.3-0.1,0.5-0.2L1.3,0.8c0,0,0,0,0,0C1.3,1.3,1.7,1.6,2.1,1.6z"/>
	<path class="st0" d="M14.3,8.4c0.2,0,0.3,0,0.4-0.1l-1.2-0.7c0,0,0,0,0,0C13.5,8.1,13.9,8.4,14.3,8.4z"/>
	<path class="st0" d="M32.7,19.4c0.4,0,0.7-0.3,0.8-0.6L32.2,18c-0.1,0.1-0.2,0.3-0.2,0.6C31.9,19.1,32.3,19.4,32.7,19.4z"/>
	<path class="st0" d="M45,25.5c0.1,0,0.2,0,0.3-0.1l-1.1-0.6C44.3,25.3,44.7,25.5,45,25.5z"/>
	<path class="st0" d="M57.3,32.4c0.1,0,0.2,0,0.3-0.1l-1.1-0.6C56.6,32.2,57,32.4,57.3,32.4z"/>
	<path class="st0" d="M56.6,41.9l0.9-0.5c-0.1,0-0.1,0-0.2,0C56.9,41.3,56.7,41.5,56.6,41.9z"/>
	<path class="st0" d="M44.2,48.8l1.1-0.6c-0.1,0-0.2-0.1-0.4-0.1C44.6,48.1,44.3,48.3,44.2,48.8z"/>
	<path class="st0" d="M31.9,55.4c0,0.1,0,0.2,0,0.2l1.4-0.8c-0.1-0.2-0.3-0.3-0.6-0.3C32.2,54.6,31.9,54.9,31.9,55.4z"/>
	<path class="st0" d="M20.5,60.7c-0.5,0-0.8,0.3-0.8,0.8c0,0.4,0.2,0.6,0.5,0.7l1.1-0.6c0,0,0-0.1,0-0.1
		C21.3,61,20.9,60.7,20.5,60.7z"/>
	<path class="st0" d="M13.5,66l1.2-0.7c-0.1-0.1-0.2-0.1-0.4-0.1C13.8,65.2,13.5,65.5,13.5,66z"/>
	<path class="st0" d="M1.3,72.8C1.3,72.8,1.3,72.8,1.3,72.8l1.3-0.6C2.4,72.1,2.3,72,2.1,72C1.6,72,1.3,72.4,1.3,72.8z"/>
</g>
</svg>
