<svg xmlns="http://www.w3.org/2000/svg" xmlns:xlink="http://www.w3.org/1999/xlink" width="265" height="265" viewBox="0 0 265 265"><defs><style>.a{fill:#84bd00;}.b{clip-path:url(#a);}.c{fill:#fff;}</style><clipPath id="a"><circle class="a" cx="125" cy="125" r="125" transform="translate(0)"/></clipPath></defs><g transform="translate(-798 -3393)"><g class="b" transform="translate(813 3408)"><g transform="translate(7.692 7.775)"><path class="a" d="M247.237,250.912a1,1,0,1,1,1,1.007A1,1,0,0,1,247.237,250.912Zm-7.975,0a1,1,0,1,1,1,1.007A1,1,0,0,1,239.262,250.912Zm-7.976,0a1,1,0,1,1,1,1.007A1,1,0,0,1,231.286,250.912Zm-7.975,0a1,1,0,1,1,1,1.007A1,1,0,0,1,223.311,250.912Zm-7.976,0a1,1,0,1,1,1,1.007A1,1,0,0,1,215.335,250.912Zm-7.976,0a1,1,0,1,1,1,1.007A1,1,0,0,1,207.36,250.912Zm-7.975,0a1,1,0,1,1,1,1.007A1,1,0,0,1,199.385,250.912Zm-7.976,0a1,1,0,1,1,1,1.007A1,1,0,0,1,191.409,250.912Zm-7.975,0a1,1,0,1,1,1,1.007A1,1,0,0,1,183.434,250.912Zm-7.976,0a1,1,0,1,1,1,1.007A1,1,0,0,1,175.458,250.912Zm-7.975,0a1,1,0,1,1,1,1.007A1,1,0,0,1,167.483,250.912Zm-7.976,0a1,1,0,1,1,1,1.007A1,1,0,0,1,159.508,250.912Zm-7.975,0a1,1,0,1,1,1,1.007A1,1,0,0,1,151.533,250.912Zm-7.976,0a1,1,0,1,1,1,1.007A1,1,0,0,1,143.557,250.912Zm-7.976,0a1,1,0,1,1,1,1.007A1,1,0,0,1,135.581,250.912Zm-7.975,0a1,1,0,1,1,1,1.007A1,1,0,0,1,127.606,250.912Zm-7.976,0a1,1,0,1,1,1,1.007A1,1,0,0,1,119.631,250.912Zm-7.975,0a1,1,0,1,1,1,1.007A1,1,0,0,1,111.656,250.912Zm-7.976,0a1,1,0,1,1,1,1.007A1,1,0,0,1,103.68,250.912Zm-7.975,0a1,1,0,1,1,1,1.007A1,1,0,0,1,95.7,250.912Zm-7.976,0a1,1,0,1,1,1,1.007A1,1,0,0,1,87.729,250.912Zm-7.975,0a1,1,0,1,1,1,1.007A1,1,0,0,1,79.754,250.912Zm-7.976,0a1,1,0,1,1,1,1.007A1,1,0,0,1,71.778,250.912Zm-7.976,0a1,1,0,1,1,1,1.007A1,1,0,0,1,63.8,250.912Zm-7.975,0a1,1,0,1,1,1,1.007A1,1,0,0,1,55.828,250.912Zm-7.976,0a1,1,0,1,1,1,1.007A1,1,0,0,1,47.852,250.912Zm-7.975,0a1,1,0,1,1,1,1.007A1,1,0,0,1,39.877,250.912Zm-7.976,0a1,1,0,1,1,1,1.007A1,1,0,0,1,31.9,250.912Zm-7.975,0a1,1,0,1,1,1,1.007A1,1,0,0,1,23.926,250.912Zm-7.976,0a1,1,0,1,1,1,1.007A1,1,0,0,1,15.951,250.912Zm-7.975,0a1,1,0,1,1,1,1.007A1,1,0,0,1,7.976,250.912Zm-7.976,0A1,1,0,0,1,1,249.9a1.008,1.008,0,0,1,0,2.015A1,1,0,0,1,0,250.912Zm247.237-8.062a1,1,0,1,1,1,1.008A1,1,0,0,1,247.237,242.85Zm-7.975,0a1,1,0,1,1,1,1.008A1,1,0,0,1,239.262,242.85Zm-7.976,0a1,1,0,1,1,1,1.008A1,1,0,0,1,231.286,242.85Zm-7.975,0a1,1,0,1,1,1,1.008A1,1,0,0,1,223.311,242.85Zm-7.976,0a1,1,0,1,1,1,1.008A1,1,0,0,1,215.335,242.85Zm-7.976,0a1,1,0,1,1,1,1.008A1,1,0,0,1,207.36,242.85Zm-7.975,0a1,1,0,1,1,1,1.008A1,1,0,0,1,199.385,242.85Zm-7.976,0a1,1,0,1,1,1,1.008A1,1,0,0,1,191.409,242.85Zm-7.975,0a1,1,0,1,1,1,1.008A1,1,0,0,1,183.434,242.85Zm-7.976,0a1,1,0,1,1,1,1.008A1,1,0,0,1,175.458,242.85Zm-7.975,0a1,1,0,1,1,1,1.008A1,1,0,0,1,167.483,242.85Zm-7.976,0a1,1,0,1,1,1,1.008A1,1,0,0,1,159.508,242.85Zm-7.975,0a1,1,0,1,1,1,1.008A1,1,0,0,1,151.533,242.85Zm-7.976,0a1,1,0,1,1,1,1.008A1,1,0,0,1,143.557,242.85Zm-7.976,0a1,1,0,1,1,1,1.008A1,1,0,0,1,135.581,242.85Zm-7.975,0a1,1,0,1,1,1,1.008A1,1,0,0,1,127.606,242.85Zm-7.976,0a1,1,0,1,1,1,1.008A1,1,0,0,1,119.631,242.85Zm-7.975,0a1,1,0,1,1,1,1.008A1,1,0,0,1,111.656,242.85Zm-7.976,0a1,1,0,1,1,1,1.008A1,1,0,0,1,103.68,242.85Zm-7.975,0a1,1,0,1,1,1,1.008A1,1,0,0,1,95.7,242.85Zm-7.976,0a1,1,0,1,1,1,1.008A1,1,0,0,1,87.729,242.85Zm-7.975,0a1,1,0,1,1,1,1.008A1,1,0,0,1,79.754,242.85Zm-7.976,0a1,1,0,1,1,1,1.008A1,1,0,0,1,71.778,242.85Zm-7.976,0a1,1,0,1,1,1,1.008A1,1,0,0,1,63.8,242.85Zm-7.975,0a1,1,0,1,1,1,1.008A1,1,0,0,1,55.828,242.85Zm-7.976,0a1,1,0,1,1,1,1.008A1,1,0,0,1,47.852,242.85Zm-7.975,0a1,1,0,1,1,1,1.008A1,1,0,0,1,39.877,242.85Zm-7.976,0a1,1,0,1,1,1,1.008A1,1,0,0,1,31.9,242.85Zm-7.975,0a1,1,0,1,1,1,1.008A1,1,0,0,1,23.926,242.85Zm-7.976,0a1,1,0,1,1,1,1.008A1,1,0,0,1,15.951,242.85Zm-7.975,0a1,1,0,1,1,1,1.008A1,1,0,0,1,7.976,242.85ZM0,242.85a1,1,0,0,1,1-1.007,1.008,1.008,0,0,1,0,2.015A1,1,0,0,1,0,242.85Zm247.237-8.061a1,1,0,1,1,1,1.007A1,1,0,0,1,247.237,234.789Zm-7.975,0a1,1,0,1,1,1,1.007A1,1,0,0,1,239.262,234.789Zm-7.976,0a1,1,0,1,1,1,1.007A1,1,0,0,1,231.286,234.789Zm-7.975,0a1,1,0,1,1,1,1.007A1,1,0,0,1,223.311,234.789Zm-7.976,0a1,1,0,1,1,1,1.007A1,1,0,0,1,215.335,234.789Zm-7.976,0a1,1,0,1,1,1,1.007A1,1,0,0,1,207.36,234.789Zm-7.975,0a1,1,0,1,1,1,1.007A1,1,0,0,1,199.385,234.789Zm-7.976,0a1,1,0,1,1,1,1.007A1,1,0,0,1,191.409,234.789Zm-7.975,0a1,1,0,1,1,1,1.007A1,1,0,0,1,183.434,234.789Zm-7.976,0a1,1,0,1,1,1,1.007A1,1,0,0,1,175.458,234.789Zm-7.975,0a1,1,0,1,1,1,1.007A1,1,0,0,1,167.483,234.789Zm-7.976,0a1,1,0,1,1,1,1.007A1,1,0,0,1,159.508,234.789Zm-7.975,0a1,1,0,1,1,1,1.007A1,1,0,0,1,151.533,234.789Zm-7.976,0a1,1,0,1,1,1,1.007A1,1,0,0,1,143.557,234.789Zm-7.976,0a1,1,0,1,1,1,1.007A1,1,0,0,1,135.581,234.789Zm-7.975,0a1,1,0,1,1,1,1.007A1,1,0,0,1,127.606,234.789Zm-7.976,0a1,1,0,1,1,1,1.007A1,1,0,0,1,119.631,234.789Zm-7.975,0a1,1,0,1,1,1,1.007A1,1,0,0,1,111.656,234.789Zm-7.976,0a1,1,0,1,1,1,1.007A1,1,0,0,1,103.68,234.789Zm-7.975,0a1,1,0,1,1,1,1.007A1,1,0,0,1,95.7,234.789Zm-7.976,0a1,1,0,1,1,1,1.007A1,1,0,0,1,87.729,234.789Zm-7.975,0a1,1,0,1,1,1,1.007A1,1,0,0,1,79.754,234.789Zm-7.976,0a1,1,0,1,1,1,1.007A1,1,0,0,1,71.778,234.789Zm-7.976,0a1,1,0,1,1,1,1.007A1,1,0,0,1,63.8,234.789Zm-7.975,0a1,1,0,1,1,1,1.007A1,1,0,0,1,55.828,234.789Zm-7.976,0a1,1,0,1,1,1,1.007A1,1,0,0,1,47.852,234.789Zm-7.975,0a1,1,0,1,1,1,1.007A1,1,0,0,1,39.877,234.789Zm-7.976,0a1,1,0,1,1,1,1.007A1,1,0,0,1,31.9,234.789Zm-7.975,0a1,1,0,1,1,1,1.007A1,1,0,0,1,23.926,234.789Zm-7.976,0a1,1,0,1,1,1,1.007A1,1,0,0,1,15.951,234.789Zm-7.975,0a1,1,0,1,1,1,1.007A1,1,0,0,1,7.976,234.789Zm-7.976,0a1,1,0,0,1,1-1.008A1.008,1.008,0,0,1,1,235.8,1,1,0,0,1,0,234.789Zm247.237-8.062a1,1,0,1,1,1,1.007A1,1,0,0,1,247.237,226.728Zm-7.975,0a1,1,0,1,1,1,1.007A1,1,0,0,1,239.262,226.728Zm-7.976,0a1,1,0,1,1,1,1.007A1,1,0,0,1,231.286,226.728Zm-7.975,0a1,1,0,1,1,1,1.007A1,1,0,0,1,223.311,226.728Zm-7.976,0a1,1,0,1,1,1,1.007A1,1,0,0,1,215.335,226.728Zm-7.976,0a1,1,0,1,1,1,1.007A1,1,0,0,1,207.36,226.728Zm-7.975,0a1,1,0,1,1,1,1.007A1,1,0,0,1,199.385,226.728Zm-7.976,0a1,1,0,1,1,1,1.007A1,1,0,0,1,191.409,226.728Zm-7.975,0a1,1,0,1,1,1,1.007A1,1,0,0,1,183.434,226.728Zm-7.976,0a1,1,0,1,1,1,1.007A1,1,0,0,1,175.458,226.728Zm-7.975,0a1,1,0,1,1,1,1.007A1,1,0,0,1,167.483,226.728Zm-7.976,0a1,1,0,1,1,1,1.007A1,1,0,0,1,159.508,226.728Zm-7.975,0a1,1,0,1,1,1,1.007A1,1,0,0,1,151.533,226.728Zm-7.976,0a1,1,0,1,1,1,1.007A1,1,0,0,1,143.557,226.728Zm-7.976,0a1,1,0,1,1,1,1.007A1,1,0,0,1,135.581,226.728Zm-7.975,0a1,1,0,1,1,1,1.007A1,1,0,0,1,127.606,226.728Zm-7.976,0a1,1,0,1,1,1,1.007A1,1,0,0,1,119.631,226.728Zm-7.975,0a1,1,0,1,1,1,1.007A1,1,0,0,1,111.656,226.728Zm-7.976,0a1,1,0,1,1,1,1.007A1,1,0,0,1,103.68,226.728Zm-7.975,0a1,1,0,1,1,1,1.007A1,1,0,0,1,95.7,226.728Zm-7.976,0a1,1,0,1,1,1,1.007A1,1,0,0,1,87.729,226.728Zm-7.975,0a1,1,0,1,1,1,1.007A1,1,0,0,1,79.754,226.728Zm-7.976,0a1,1,0,1,1,1,1.007A1,1,0,0,1,71.778,226.728Zm-7.976,0a1,1,0,1,1,1,1.007A1,1,0,0,1,63.8,226.728Zm-7.975,0a1,1,0,1,1,1,1.007A1,1,0,0,1,55.828,226.728Zm-7.976,0a1,1,0,1,1,1,1.007A1,1,0,0,1,47.852,226.728Zm-7.975,0a1,1,0,1,1,1,1.007A1,1,0,0,1,39.877,226.728Zm-7.976,0a1,1,0,1,1,1,1.007A1,1,0,0,1,31.9,226.728Zm-7.975,0a1,1,0,1,1,1,1.007A1,1,0,0,1,23.926,226.728Zm-7.976,0a1,1,0,1,1,1,1.007A1,1,0,0,1,15.951,226.728Zm-7.975,0a1,1,0,1,1,1,1.007A1,1,0,0,1,7.976,226.728Zm-7.976,0a1,1,0,0,1,1-1.007,1.007,1.007,0,0,1,0,2.015A1,1,0,0,1,0,226.728Zm247.237-8.062a1,1,0,1,1,1,1.008A1,1,0,0,1,247.237,218.666Zm-7.975,0a1,1,0,1,1,1,1.008A1,1,0,0,1,239.262,218.666Zm-7.976,0a1,1,0,1,1,1,1.008A1,1,0,0,1,231.286,218.666Zm-7.975,0a1,1,0,1,1,1,1.008A1,1,0,0,1,223.311,218.666Zm-7.976,0a1,1,0,1,1,1,1.008A1,1,0,0,1,215.335,218.666Zm-7.976,0a1,1,0,1,1,1,1.008A1,1,0,0,1,207.36,218.666Zm-7.975,0a1,1,0,1,1,1,1.008A1,1,0,0,1,199.385,218.666Zm-7.976,0a1,1,0,1,1,1,1.008A1,1,0,0,1,191.409,218.666Zm-7.975,0a1,1,0,1,1,1,1.008A1,1,0,0,1,183.434,218.666Zm-7.976,0a1,1,0,1,1,1,1.008A1,1,0,0,1,175.458,218.666Zm-7.975,0a1,1,0,1,1,1,1.008A1,1,0,0,1,167.483,218.666Zm-7.976,0a1,1,0,1,1,1,1.008A1,1,0,0,1,159.508,218.666Zm-7.975,0a1,1,0,1,1,1,1.008A1,1,0,0,1,151.533,218.666Zm-7.976,0a1,1,0,1,1,1,1.008A1,1,0,0,1,143.557,218.666Zm-7.976,0a1,1,0,1,1,1,1.008A1,1,0,0,1,135.581,218.666Zm-7.975,0a1,1,0,1,1,1,1.008A1,1,0,0,1,127.606,218.666Zm-7.976,0a1,1,0,1,1,1,1.008A1,1,0,0,1,119.631,218.666Zm-7.975,0a1,1,0,1,1,1,1.008A1,1,0,0,1,111.656,218.666Zm-7.976,0a1,1,0,1,1,1,1.008A1,1,0,0,1,103.68,218.666Zm-7.975,0a1,1,0,1,1,1,1.008A1,1,0,0,1,95.7,218.666Zm-7.976,0a1,1,0,1,1,1,1.008A1,1,0,0,1,87.729,218.666Zm-7.975,0a1,1,0,1,1,1,1.008A1,1,0,0,1,79.754,218.666Zm-7.976,0a1,1,0,1,1,1,1.008A1,1,0,0,1,71.778,218.666Zm-7.976,0a1,1,0,1,1,1,1.008A1,1,0,0,1,63.8,218.666Zm-7.975,0a1,1,0,1,1,1,1.008A1,1,0,0,1,55.828,218.666Zm-7.976,0a1,1,0,1,1,1,1.008A1,1,0,0,1,47.852,218.666Zm-7.975,0a1,1,0,1,1,1,1.008A1,1,0,0,1,39.877,218.666Zm-7.976,0a1,1,0,1,1,1,1.008A1,1,0,0,1,31.9,218.666Zm-7.975,0a1,1,0,1,1,1,1.008A1,1,0,0,1,23.926,218.666Zm-7.976,0a1,1,0,1,1,1,1.008A1,1,0,0,1,15.951,218.666Zm-7.975,0a1,1,0,1,1,1,1.008A1,1,0,0,1,7.976,218.666Zm-7.976,0a1,1,0,0,1,1-1.007,1.008,1.008,0,0,1,0,2.015A1,1,0,0,1,0,218.666ZM247.237,210.6a1,1,0,1,1,1,1.007A1,1,0,0,1,247.237,210.6Zm-7.975,0a1,1,0,1,1,1,1.007A1,1,0,0,1,239.262,210.6Zm-7.976,0a1,1,0,1,1,1,1.007A1,1,0,0,1,231.286,210.6Zm-7.975,0a1,1,0,1,1,1,1.007A1,1,0,0,1,223.311,210.6Zm-7.976,0a1,1,0,1,1,1,1.007A1,1,0,0,1,215.335,210.6Zm-7.976,0a1,1,0,1,1,1,1.007A1,1,0,0,1,207.36,210.6Zm-7.975,0a1,1,0,1,1,1,1.007A1,1,0,0,1,199.385,210.6Zm-7.976,0a1,1,0,1,1,1,1.007A1,1,0,0,1,191.409,210.6Zm-7.975,0a1,1,0,1,1,1,1.007A1,1,0,0,1,183.434,210.6Zm-7.976,0a1,1,0,1,1,1,1.007A1,1,0,0,1,175.458,210.6Zm-7.975,0a1,1,0,1,1,1,1.007A1,1,0,0,1,167.483,210.6Zm-7.976,0a1,1,0,1,1,1,1.007A1,1,0,0,1,159.508,210.6Zm-7.975,0a1,1,0,1,1,1,1.007A1,1,0,0,1,151.533,210.6Zm-7.976,0a1,1,0,1,1,1,1.007A1,1,0,0,1,143.557,210.6Zm-7.976,0a1,1,0,1,1,1,1.007A1,1,0,0,1,135.581,210.6Zm-7.975,0a1,1,0,1,1,1,1.007A1,1,0,0,1,127.606,210.6Zm-7.976,0a1,1,0,1,1,1,1.007A1,1,0,0,1,119.631,210.6Zm-7.975,0a1,1,0,1,1,1,1.007A1,1,0,0,1,111.656,210.6Zm-7.976,0a1,1,0,1,1,1,1.007A1,1,0,0,1,103.68,210.6Zm-7.975,0a1,1,0,1,1,1,1.007A1,1,0,0,1,95.7,210.6Zm-7.976,0a1,1,0,1,1,1,1.007A1,1,0,0,1,87.729,210.6Zm-7.975,0a1,1,0,1,1,1,1.007A1,1,0,0,1,79.754,210.6Zm-7.976,0a1,1,0,1,1,1,1.007A1,1,0,0,1,71.778,210.6Zm-7.976,0a1,1,0,1,1,1,1.007A1,1,0,0,1,63.8,210.6Zm-7.975,0a1,1,0,1,1,1,1.007A1,1,0,0,1,55.828,210.6Zm-7.976,0a1,1,0,1,1,1,1.007A1,1,0,0,1,47.852,210.6Zm-7.975,0a1,1,0,1,1,1,1.007A1,1,0,0,1,39.877,210.6Zm-7.976,0a1,1,0,1,1,1,1.007A1,1,0,0,1,31.9,210.6Zm-7.975,0a1,1,0,1,1,1,1.007A1,1,0,0,1,23.926,210.6Zm-7.976,0a1,1,0,1,1,1,1.007A1,1,0,0,1,15.951,210.6Zm-7.975,0a1,1,0,1,1,1,1.007A1,1,0,0,1,7.976,210.6ZM0,210.6A1,1,0,0,1,1,209.6a1.008,1.008,0,0,1,0,2.015A1,1,0,0,1,0,210.6Zm247.237-8.062a1,1,0,1,1,1,1.008A1,1,0,0,1,247.237,202.543Zm-7.975,0a1,1,0,1,1,1,1.008A1,1,0,0,1,239.262,202.543Zm-7.976,0a1,1,0,1,1,1,1.008A1,1,0,0,1,231.286,202.543Zm-7.975,0a1,1,0,1,1,1,1.008A1,1,0,0,1,223.311,202.543Zm-7.976,0a1,1,0,1,1,1,1.008A1,1,0,0,1,215.335,202.543Zm-7.976,0a1,1,0,1,1,1,1.008A1,1,0,0,1,207.36,202.543Zm-7.975,0a1,1,0,1,1,1,1.008A1,1,0,0,1,199.385,202.543Zm-7.976,0a1,1,0,1,1,1,1.008A1,1,0,0,1,191.409,202.543Zm-7.975,0a1,1,0,1,1,1,1.008A1,1,0,0,1,183.434,202.543Zm-7.976,0a1,1,0,1,1,1,1.008A1,1,0,0,1,175.458,202.543Zm-7.975,0a1,1,0,1,1,1,1.008A1,1,0,0,1,167.483,202.543Zm-7.976,0a1,1,0,1,1,1,1.008A1,1,0,0,1,159.508,202.543Zm-7.975,0a1,1,0,1,1,1,1.008A1,1,0,0,1,151.533,202.543Zm-7.976,0a1,1,0,1,1,1,1.008A1,1,0,0,1,143.557,202.543Zm-7.976,0a1,1,0,1,1,1,1.008A1,1,0,0,1,135.581,202.543Zm-7.975,0a1,1,0,1,1,1,1.008A1,1,0,0,1,127.606,202.543Zm-7.976,0a1,1,0,1,1,1,1.008A1,1,0,0,1,119.631,202.543Zm-7.975,0a1,1,0,1,1,1,1.008A1,1,0,0,1,111.656,202.543Zm-7.976,0a1,1,0,1,1,1,1.008A1,1,0,0,1,103.68,202.543Zm-7.975,0a1,1,0,1,1,1,1.008A1,1,0,0,1,95.7,202.543Zm-7.976,0a1,1,0,1,1,1,1.008A1,1,0,0,1,87.729,202.543Zm-7.975,0a1,1,0,1,1,1,1.008A1,1,0,0,1,79.754,202.543Zm-7.976,0a1,1,0,1,1,1,1.008A1,1,0,0,1,71.778,202.543Zm-7.976,0a1,1,0,1,1,1,1.008A1,1,0,0,1,63.8,202.543Zm-7.975,0a1,1,0,1,1,1,1.008A1,1,0,0,1,55.828,202.543Zm-7.976,0a1,1,0,1,1,1,1.008A1,1,0,0,1,47.852,202.543Zm-7.975,0a1,1,0,1,1,1,1.008A1,1,0,0,1,39.877,202.543Zm-7.976,0a1,1,0,1,1,1,1.008A1,1,0,0,1,31.9,202.543Zm-7.975,0a1,1,0,1,1,1,1.008A1,1,0,0,1,23.926,202.543Zm-7.976,0a1,1,0,1,1,1,1.008A1,1,0,0,1,15.951,202.543Zm-7.975,0a1,1,0,1,1,1,1.008A1,1,0,0,1,7.976,202.543Zm-7.976,0a1,1,0,0,1,1-1.007,1.008,1.008,0,0,1,0,2.015A1,1,0,0,1,0,202.543Zm247.237-8.061a1,1,0,1,1,1,1.007A1,1,0,0,1,247.237,194.482Zm-7.975,0a1,1,0,1,1,1,1.007A1,1,0,0,1,239.262,194.482Zm-7.976,0a1,1,0,1,1,1,1.007A1,1,0,0,1,231.286,194.482Zm-7.975,0a1,1,0,1,1,1,1.007A1,1,0,0,1,223.311,194.482Zm-7.976,0a1,1,0,1,1,1,1.007A1,1,0,0,1,215.335,194.482Zm-7.976,0a1,1,0,1,1,1,1.007A1,1,0,0,1,207.36,194.482Zm-7.975,0a1,1,0,1,1,1,1.007A1,1,0,0,1,199.385,194.482Zm-7.976,0a1,1,0,1,1,1,1.007A1,1,0,0,1,191.409,194.482Zm-7.975,0a1,1,0,1,1,1,1.007A1,1,0,0,1,183.434,194.482Zm-7.976,0a1,1,0,1,1,1,1.007A1,1,0,0,1,175.458,194.482Zm-7.975,0a1,1,0,1,1,1,1.007A1,1,0,0,1,167.483,194.482Zm-7.976,0a1,1,0,1,1,1,1.007A1,1,0,0,1,159.508,194.482Zm-7.975,0a1,1,0,1,1,1,1.007A1,1,0,0,1,151.533,194.482Zm-7.976,0a1,1,0,1,1,1,1.007A1,1,0,0,1,143.557,194.482Zm-7.976,0a1,1,0,1,1,1,1.007A1,1,0,0,1,135.581,194.482Zm-7.975,0a1,1,0,1,1,1,1.007A1,1,0,0,1,127.606,194.482Zm-7.976,0a1,1,0,1,1,1,1.007A1,1,0,0,1,119.631,194.482Zm-7.975,0a1,1,0,1,1,1,1.007A1,1,0,0,1,111.656,194.482Zm-7.976,0a1,1,0,1,1,1,1.007A1,1,0,0,1,103.68,194.482Zm-7.975,0a1,1,0,1,1,1,1.007A1,1,0,0,1,95.7,194.482Zm-7.976,0a1,1,0,1,1,1,1.007A1,1,0,0,1,87.729,194.482Zm-7.975,0a1,1,0,1,1,1,1.007A1,1,0,0,1,79.754,194.482Zm-7.976,0a1,1,0,1,1,1,1.007A1,1,0,0,1,71.778,194.482Zm-7.976,0a1,1,0,1,1,1,1.007A1,1,0,0,1,63.8,194.482Zm-7.975,0a1,1,0,1,1,1,1.007A1,1,0,0,1,55.828,194.482Zm-7.976,0a1,1,0,1,1,1,1.007A1,1,0,0,1,47.852,194.482Zm-7.975,0a1,1,0,1,1,1,1.007A1,1,0,0,1,39.877,194.482Zm-7.976,0a1,1,0,1,1,1,1.007A1,1,0,0,1,31.9,194.482Zm-7.975,0a1,1,0,1,1,1,1.007A1,1,0,0,1,23.926,194.482Zm-7.976,0a1,1,0,1,1,1,1.007A1,1,0,0,1,15.951,194.482Zm-7.975,0a1,1,0,1,1,1,1.007A1,1,0,0,1,7.976,194.482Zm-7.976,0a1,1,0,0,1,1-1.008,1.008,1.008,0,0,1,0,2.015A1,1,0,0,1,0,194.482Zm247.237-8.062a1,1,0,1,1,1,1.008A1,1,0,0,1,247.237,186.42Zm-7.975,0a1,1,0,1,1,1,1.008A1,1,0,0,1,239.262,186.42Zm-7.976,0a1,1,0,1,1,1,1.008A1,1,0,0,1,231.286,186.42Zm-7.975,0a1,1,0,1,1,1,1.008A1,1,0,0,1,223.311,186.42Zm-7.976,0a1,1,0,1,1,1,1.008A1,1,0,0,1,215.335,186.42Zm-7.976,0a1,1,0,1,1,1,1.008A1,1,0,0,1,207.36,186.42Zm-7.975,0a1,1,0,1,1,1,1.008A1,1,0,0,1,199.385,186.42Zm-7.976,0a1,1,0,1,1,1,1.008A1,1,0,0,1,191.409,186.42Zm-7.975,0a1,1,0,1,1,1,1.008A1,1,0,0,1,183.434,186.42Zm-7.976,0a1,1,0,1,1,1,1.008A1,1,0,0,1,175.458,186.42Zm-7.975,0a1,1,0,1,1,1,1.008A1,1,0,0,1,167.483,186.42Zm-7.976,0a1,1,0,1,1,1,1.008A1,1,0,0,1,159.508,186.42Zm-7.975,0a1,1,0,1,1,1,1.008A1,1,0,0,1,151.533,186.42Zm-7.976,0a1,1,0,1,1,1,1.008A1,1,0,0,1,143.557,186.42Zm-7.976,0a1,1,0,1,1,1,1.008A1,1,0,0,1,135.581,186.42Zm-7.975,0a1,1,0,1,1,1,1.008A1,1,0,0,1,127.606,186.42Zm-7.976,0a1,1,0,1,1,1,1.008A1,1,0,0,1,119.631,186.42Zm-7.975,0a1,1,0,1,1,1,1.008A1,1,0,0,1,111.656,186.42Zm-7.976,0a1,1,0,1,1,1,1.008A1,1,0,0,1,103.68,186.42Zm-7.975,0a1,1,0,1,1,1,1.008A1,1,0,0,1,95.7,186.42Zm-7.976,0a1,1,0,1,1,1,1.008A1,1,0,0,1,87.729,186.42Zm-7.975,0a1,1,0,1,1,1,1.008A1,1,0,0,1,79.754,186.42Zm-7.976,0a1,1,0,1,1,1,1.008A1,1,0,0,1,71.778,186.42Zm-7.976,0a1,1,0,1,1,1,1.008A1,1,0,0,1,63.8,186.42Zm-7.975,0a1,1,0,1,1,1,1.008A1,1,0,0,1,55.828,186.42Zm-7.976,0a1,1,0,1,1,1,1.008A1,1,0,0,1,47.852,186.42Zm-7.975,0a1,1,0,1,1,1,1.008A1,1,0,0,1,39.877,186.42Zm-7.976,0a1,1,0,1,1,1,1.008A1,1,0,0,1,31.9,186.42Zm-7.975,0a1,1,0,1,1,1,1.008A1,1,0,0,1,23.926,186.42Zm-7.976,0a1,1,0,1,1,1,1.008A1,1,0,0,1,15.951,186.42Zm-7.975,0a1,1,0,1,1,1,1.008A1,1,0,0,1,7.976,186.42ZM0,186.42a1,1,0,0,1,1-1.007,1.008,1.008,0,0,1,0,2.015A1,1,0,0,1,0,186.42Zm247.237-8.061a1,1,0,1,1,1,1.007A1,1,0,0,1,247.237,178.359Zm-7.975,0a1,1,0,1,1,1,1.007A1,1,0,0,1,239.262,178.359Zm-7.976,0a1,1,0,1,1,1,1.007A1,1,0,0,1,231.286,178.359Zm-7.975,0a1,1,0,1,1,1,1.007A1,1,0,0,1,223.311,178.359Zm-7.976,0a1,1,0,1,1,1,1.007A1,1,0,0,1,215.335,178.359Zm-7.976,0a1,1,0,1,1,1,1.007A1,1,0,0,1,207.36,178.359Zm-7.975,0a1,1,0,1,1,1,1.007A1,1,0,0,1,199.385,178.359Zm-7.976,0a1,1,0,1,1,1,1.007A1,1,0,0,1,191.409,178.359Zm-7.975,0a1,1,0,1,1,1,1.007A1,1,0,0,1,183.434,178.359Zm-7.976,0a1,1,0,1,1,1,1.007A1,1,0,0,1,175.458,178.359Zm-7.975,0a1,1,0,1,1,1,1.007A1,1,0,0,1,167.483,178.359Zm-7.976,0a1,1,0,1,1,1,1.007A1,1,0,0,1,159.508,178.359Zm-7.975,0a1,1,0,1,1,1,1.007A1,1,0,0,1,151.533,178.359Zm-7.976,0a1,1,0,1,1,1,1.007A1,1,0,0,1,143.557,178.359Zm-7.976,0a1,1,0,1,1,1,1.007A1,1,0,0,1,135.581,178.359Zm-7.975,0a1,1,0,1,1,1,1.007A1,1,0,0,1,127.606,178.359Zm-7.976,0a1,1,0,1,1,1,1.007A1,1,0,0,1,119.631,178.359Zm-7.975,0a1,1,0,1,1,1,1.007A1,1,0,0,1,111.656,178.359Zm-7.976,0a1,1,0,1,1,1,1.007A1,1,0,0,1,103.68,178.359Zm-7.975,0a1,1,0,1,1,1,1.007A1,1,0,0,1,95.7,178.359Zm-7.976,0a1,1,0,1,1,1,1.007A1,1,0,0,1,87.729,178.359Zm-7.975,0a1,1,0,1,1,1,1.007A1,1,0,0,1,79.754,178.359Zm-7.976,0a1,1,0,1,1,1,1.007A1,1,0,0,1,71.778,178.359Zm-7.976,0a1,1,0,1,1,1,1.007A1,1,0,0,1,63.8,178.359Zm-7.975,0a1,1,0,1,1,1,1.007A1,1,0,0,1,55.828,178.359Zm-7.976,0a1,1,0,1,1,1,1.007A1,1,0,0,1,47.852,178.359Zm-7.975,0a1,1,0,1,1,1,1.007A1,1,0,0,1,39.877,178.359Zm-7.976,0a1,1,0,1,1,1,1.007A1,1,0,0,1,31.9,178.359Zm-7.975,0a1,1,0,1,1,1,1.007A1,1,0,0,1,23.926,178.359Zm-7.976,0a1,1,0,1,1,1,1.007A1,1,0,0,1,15.951,178.359Zm-7.975,0a1,1,0,1,1,1,1.007A1,1,0,0,1,7.976,178.359Zm-7.976,0a1,1,0,0,1,1-1.008,1.008,1.008,0,0,1,0,2.015A1,1,0,0,1,0,178.359ZM247.237,170.3a1,1,0,1,1,1,1.007A1,1,0,0,1,247.237,170.3Zm-7.975,0a1,1,0,1,1,1,1.007A1,1,0,0,1,239.262,170.3Zm-7.976,0a1,1,0,1,1,1,1.007A1,1,0,0,1,231.286,170.3Zm-7.975,0a1,1,0,1,1,1,1.007A1,1,0,0,1,223.311,170.3Zm-7.976,0a1,1,0,1,1,1,1.007A1,1,0,0,1,215.335,170.3Zm-7.976,0a1,1,0,1,1,1,1.007A1,1,0,0,1,207.36,170.3Zm-7.975,0a1,1,0,1,1,1,1.007A1,1,0,0,1,199.385,170.3Zm-7.976,0a1,1,0,1,1,1,1.007A1,1,0,0,1,191.409,170.3Zm-7.975,0a1,1,0,1,1,1,1.007A1,1,0,0,1,183.434,170.3Zm-7.976,0a1,1,0,1,1,1,1.007A1,1,0,0,1,175.458,170.3Zm-7.975,0a1,1,0,1,1,1,1.007A1,1,0,0,1,167.483,170.3Zm-7.976,0a1,1,0,1,1,1,1.007A1,1,0,0,1,159.508,170.3Zm-7.975,0a1,1,0,1,1,1,1.007A1,1,0,0,1,151.533,170.3Zm-7.976,0a1,1,0,1,1,1,1.007A1,1,0,0,1,143.557,170.3Zm-7.976,0a1,1,0,1,1,1,1.007A1,1,0,0,1,135.581,170.3Zm-7.975,0a1,1,0,1,1,1,1.007A1,1,0,0,1,127.606,170.3Zm-7.976,0a1,1,0,1,1,1,1.007A1,1,0,0,1,119.631,170.3Zm-7.975,0a1,1,0,1,1,1,1.007A1,1,0,0,1,111.656,170.3Zm-7.976,0a1,1,0,1,1,1,1.007A1,1,0,0,1,103.68,170.3Zm-7.975,0a1,1,0,1,1,1,1.007A1,1,0,0,1,95.7,170.3Zm-7.976,0a1,1,0,1,1,1,1.007A1,1,0,0,1,87.729,170.3Zm-7.975,0a1,1,0,1,1,1,1.007A1,1,0,0,1,79.754,170.3Zm-7.976,0a1,1,0,1,1,1,1.007A1,1,0,0,1,71.778,170.3Zm-7.976,0a1,1,0,1,1,1,1.007A1,1,0,0,1,63.8,170.3Zm-7.975,0a1,1,0,1,1,1,1.007A1,1,0,0,1,55.828,170.3Zm-7.976,0a1,1,0,1,1,1,1.007A1,1,0,0,1,47.852,170.3Zm-7.975,0a1,1,0,1,1,1,1.007A1,1,0,0,1,39.877,170.3Zm-7.976,0a1,1,0,1,1,1,1.007A1,1,0,0,1,31.9,170.3Zm-7.975,0a1,1,0,1,1,1,1.007A1,1,0,0,1,23.926,170.3Zm-7.976,0a1,1,0,1,1,1,1.007A1,1,0,0,1,15.951,170.3Zm-7.975,0a1,1,0,1,1,1,1.007A1,1,0,0,1,7.976,170.3ZM0,170.3a1,1,0,0,1,1-1.007A1.007,1.007,0,0,1,1,171.3,1,1,0,0,1,0,170.3Zm247.237-8.061a1,1,0,1,1,1,1.007A1,1,0,0,1,247.237,162.236Zm-7.975,0a1,1,0,1,1,1,1.007A1,1,0,0,1,239.262,162.236Zm-7.976,0a1,1,0,1,1,1,1.007A1,1,0,0,1,231.286,162.236Zm-7.975,0a1,1,0,1,1,1,1.007A1,1,0,0,1,223.311,162.236Zm-7.976,0a1,1,0,1,1,1,1.007A1,1,0,0,1,215.335,162.236Zm-7.976,0a1,1,0,1,1,1,1.007A1,1,0,0,1,207.36,162.236Zm-7.975,0a1,1,0,1,1,1,1.007A1,1,0,0,1,199.385,162.236Zm-7.976,0a1,1,0,1,1,1,1.007A1,1,0,0,1,191.409,162.236Zm-7.975,0a1,1,0,1,1,1,1.007A1,1,0,0,1,183.434,162.236Zm-7.976,0a1,1,0,1,1,1,1.007A1,1,0,0,1,175.458,162.236Zm-7.975,0a1,1,0,1,1,1,1.007A1,1,0,0,1,167.483,162.236Zm-7.976,0a1,1,0,1,1,1,1.007A1,1,0,0,1,159.508,162.236Zm-7.975,0a1,1,0,1,1,1,1.007A1,1,0,0,1,151.533,162.236Zm-7.976,0a1,1,0,1,1,1,1.007A1,1,0,0,1,143.557,162.236Zm-7.976,0a1,1,0,1,1,1,1.007A1,1,0,0,1,135.581,162.236Zm-7.975,0a1,1,0,1,1,1,1.007A1,1,0,0,1,127.606,162.236Zm-7.976,0a1,1,0,1,1,1,1.007A1,1,0,0,1,119.631,162.236Zm-7.975,0a1,1,0,1,1,1,1.007A1,1,0,0,1,111.656,162.236Zm-7.976,0a1,1,0,1,1,1,1.007A1,1,0,0,1,103.68,162.236Zm-7.975,0a1,1,0,1,1,1,1.007A1,1,0,0,1,95.7,162.236Zm-7.976,0a1,1,0,1,1,1,1.007A1,1,0,0,1,87.729,162.236Zm-7.975,0a1,1,0,1,1,1,1.007A1,1,0,0,1,79.754,162.236Zm-7.976,0a1,1,0,1,1,1,1.007A1,1,0,0,1,71.778,162.236Zm-7.976,0a1,1,0,1,1,1,1.007A1,1,0,0,1,63.8,162.236Zm-7.975,0a1,1,0,1,1,1,1.007A1,1,0,0,1,55.828,162.236Zm-7.976,0a1,1,0,1,1,1,1.007A1,1,0,0,1,47.852,162.236Zm-7.975,0a1,1,0,1,1,1,1.007A1,1,0,0,1,39.877,162.236Zm-7.976,0a1,1,0,1,1,1,1.007A1,1,0,0,1,31.9,162.236Zm-7.975,0a1,1,0,1,1,1,1.007A1,1,0,0,1,23.926,162.236Zm-7.976,0a1,1,0,1,1,1,1.007A1,1,0,0,1,15.951,162.236Zm-7.975,0a1,1,0,1,1,1,1.007A1,1,0,0,1,7.976,162.236Zm-7.976,0a1,1,0,0,1,1-1.008,1.008,1.008,0,0,1,0,2.015A1,1,0,0,1,0,162.236Zm247.237-8.062a1,1,0,1,1,1,1.007A1,1,0,0,1,247.237,154.175Zm-7.975,0a1,1,0,1,1,1,1.007A1,1,0,0,1,239.262,154.175Zm-7.976,0a1,1,0,1,1,1,1.007A1,1,0,0,1,231.286,154.175Zm-7.975,0a1,1,0,1,1,1,1.007A1,1,0,0,1,223.311,154.175Zm-7.976,0a1,1,0,1,1,1,1.007A1,1,0,0,1,215.335,154.175Zm-7.976,0a1,1,0,1,1,1,1.007A1,1,0,0,1,207.36,154.175Zm-7.975,0a1,1,0,1,1,1,1.007A1,1,0,0,1,199.385,154.175Zm-7.976,0a1,1,0,1,1,1,1.007A1,1,0,0,1,191.409,154.175Zm-7.975,0a1,1,0,1,1,1,1.007A1,1,0,0,1,183.434,154.175Zm-7.976,0a1,1,0,1,1,1,1.007A1,1,0,0,1,175.458,154.175Zm-7.975,0a1,1,0,1,1,1,1.007A1,1,0,0,1,167.483,154.175Zm-7.976,0a1,1,0,1,1,1,1.007A1,1,0,0,1,159.508,154.175Zm-7.975,0a1,1,0,1,1,1,1.007A1,1,0,0,1,151.533,154.175Zm-7.976,0a1,1,0,1,1,1,1.007A1,1,0,0,1,143.557,154.175Zm-7.976,0a1,1,0,1,1,1,1.007A1,1,0,0,1,135.581,154.175Zm-7.975,0a1,1,0,1,1,1,1.007A1,1,0,0,1,127.606,154.175Zm-7.976,0a1,1,0,1,1,1,1.007A1,1,0,0,1,119.631,154.175Zm-7.975,0a1,1,0,1,1,1,1.007A1,1,0,0,1,111.656,154.175Zm-7.976,0a1,1,0,1,1,1,1.007A1,1,0,0,1,103.68,154.175Zm-7.975,0a1,1,0,1,1,1,1.007A1,1,0,0,1,95.7,154.175Zm-7.976,0a1,1,0,1,1,1,1.007A1,1,0,0,1,87.729,154.175Zm-7.975,0a1,1,0,1,1,1,1.007A1,1,0,0,1,79.754,154.175Zm-7.976,0a1,1,0,1,1,1,1.007A1,1,0,0,1,71.778,154.175Zm-7.976,0a1,1,0,1,1,1,1.007A1,1,0,0,1,63.8,154.175Zm-7.975,0a1,1,0,1,1,1,1.007A1,1,0,0,1,55.828,154.175Zm-7.976,0a1,1,0,1,1,1,1.007A1,1,0,0,1,47.852,154.175Zm-7.975,0a1,1,0,1,1,1,1.007A1,1,0,0,1,39.877,154.175Zm-7.976,0a1,1,0,1,1,1,1.007A1,1,0,0,1,31.9,154.175Zm-7.975,0a1,1,0,1,1,1,1.007A1,1,0,0,1,23.926,154.175Zm-7.976,0a1,1,0,1,1,1,1.007A1,1,0,0,1,15.951,154.175Zm-7.975,0a1,1,0,1,1,1,1.007A1,1,0,0,1,7.976,154.175Zm-7.976,0a1,1,0,0,1,1-1.007,1.007,1.007,0,0,1,0,2.015A1,1,0,0,1,0,154.175Zm247.237-8.062a1,1,0,1,1,1,1.008A1,1,0,0,1,247.237,146.113Zm-7.975,0a1,1,0,1,1,1,1.008A1,1,0,0,1,239.262,146.113Zm-7.976,0a1,1,0,1,1,1,1.008A1,1,0,0,1,231.286,146.113Zm-7.975,0a1,1,0,1,1,1,1.008A1,1,0,0,1,223.311,146.113Zm-7.976,0a1,1,0,1,1,1,1.008A1,1,0,0,1,215.335,146.113Zm-7.976,0a1,1,0,1,1,1,1.008A1,1,0,0,1,207.36,146.113Zm-7.975,0a1,1,0,1,1,1,1.008A1,1,0,0,1,199.385,146.113Zm-7.976,0a1,1,0,1,1,1,1.008A1,1,0,0,1,191.409,146.113Zm-7.975,0a1,1,0,1,1,1,1.008A1,1,0,0,1,183.434,146.113Zm-7.976,0a1,1,0,1,1,1,1.008A1,1,0,0,1,175.458,146.113Zm-7.975,0a1,1,0,1,1,1,1.008A1,1,0,0,1,167.483,146.113Zm-7.976,0a1,1,0,1,1,1,1.008A1,1,0,0,1,159.508,146.113Zm-7.975,0a1,1,0,1,1,1,1.008A1,1,0,0,1,151.533,146.113Zm-7.976,0a1,1,0,1,1,1,1.008A1,1,0,0,1,143.557,146.113Zm-7.976,0a1,1,0,1,1,1,1.008A1,1,0,0,1,135.581,146.113Zm-7.975,0a1,1,0,1,1,1,1.008A1,1,0,0,1,127.606,146.113Zm-7.976,0a1,1,0,1,1,1,1.008A1,1,0,0,1,119.631,146.113Zm-7.975,0a1,1,0,1,1,1,1.008A1,1,0,0,1,111.656,146.113Zm-7.976,0a1,1,0,1,1,1,1.008A1,1,0,0,1,103.68,146.113Zm-7.975,0a1,1,0,1,1,1,1.008A1,1,0,0,1,95.7,146.113Zm-7.976,0a1,1,0,1,1,1,1.008A1,1,0,0,1,87.729,146.113Zm-7.975,0a1,1,0,1,1,1,1.008A1,1,0,0,1,79.754,146.113Zm-7.976,0a1,1,0,1,1,1,1.008A1,1,0,0,1,71.778,146.113Zm-7.976,0a1,1,0,1,1,1,1.008A1,1,0,0,1,63.8,146.113Zm-7.975,0a1,1,0,1,1,1,1.008A1,1,0,0,1,55.828,146.113Zm-7.976,0a1,1,0,1,1,1,1.008A1,1,0,0,1,47.852,146.113Zm-7.975,0a1,1,0,1,1,1,1.008A1,1,0,0,1,39.877,146.113Zm-7.976,0a1,1,0,1,1,1,1.008A1,1,0,0,1,31.9,146.113Zm-7.975,0a1,1,0,1,1,1,1.008A1,1,0,0,1,23.926,146.113Zm-7.976,0a1,1,0,1,1,1,1.008A1,1,0,0,1,15.951,146.113Zm-7.975,0a1,1,0,1,1,1,1.008A1,1,0,0,1,7.976,146.113Zm-7.976,0a1,1,0,0,1,1-1.007,1.008,1.008,0,0,1,0,2.015A1,1,0,0,1,0,146.113Zm247.237-8.061a1,1,0,1,1,1,1.007A1,1,0,0,1,247.237,138.052Zm-7.975,0a1,1,0,1,1,1,1.007A1,1,0,0,1,239.262,138.052Zm-7.976,0a1,1,0,1,1,1,1.007A1,1,0,0,1,231.286,138.052Zm-7.975,0a1,1,0,1,1,1,1.007A1,1,0,0,1,223.311,138.052Zm-7.976,0a1,1,0,1,1,1,1.007A1,1,0,0,1,215.335,138.052Zm-7.976,0a1,1,0,1,1,1,1.007A1,1,0,0,1,207.36,138.052Zm-7.975,0a1,1,0,1,1,1,1.007A1,1,0,0,1,199.385,138.052Zm-7.976,0a1,1,0,1,1,1,1.007A1,1,0,0,1,191.409,138.052Zm-7.975,0a1,1,0,1,1,1,1.007A1,1,0,0,1,183.434,138.052Zm-7.976,0a1,1,0,1,1,1,1.007A1,1,0,0,1,175.458,138.052Zm-7.975,0a1,1,0,1,1,1,1.007A1,1,0,0,1,167.483,138.052Zm-7.976,0a1,1,0,1,1,1,1.007A1,1,0,0,1,159.508,138.052Zm-7.975,0a1,1,0,1,1,1,1.007A1,1,0,0,1,151.533,138.052Zm-7.976,0a1,1,0,1,1,1,1.007A1,1,0,0,1,143.557,138.052Zm-7.976,0a1,1,0,1,1,1,1.007A1,1,0,0,1,135.581,138.052Zm-7.975,0a1,1,0,1,1,1,1.007A1,1,0,0,1,127.606,138.052Zm-7.976,0a1,1,0,1,1,1,1.007A1,1,0,0,1,119.631,138.052Zm-7.975,0a1,1,0,1,1,1,1.007A1,1,0,0,1,111.656,138.052Zm-7.976,0a1,1,0,1,1,1,1.007A1,1,0,0,1,103.68,138.052Zm-7.975,0a1,1,0,1,1,1,1.007A1,1,0,0,1,95.7,138.052Zm-7.976,0a1,1,0,1,1,1,1.007A1,1,0,0,1,87.729,138.052Zm-7.975,0a1,1,0,1,1,1,1.007A1,1,0,0,1,79.754,138.052Zm-7.976,0a1,1,0,1,1,1,1.007A1,1,0,0,1,71.778,138.052Zm-7.976,0a1,1,0,1,1,1,1.007A1,1,0,0,1,63.8,138.052Zm-7.975,0a1,1,0,1,1,1,1.007A1,1,0,0,1,55.828,138.052Zm-7.976,0a1,1,0,1,1,1,1.007A1,1,0,0,1,47.852,138.052Zm-7.975,0a1,1,0,1,1,1,1.007A1,1,0,0,1,39.877,138.052Zm-7.976,0a1,1,0,1,1,1,1.007A1,1,0,0,1,31.9,138.052Zm-7.975,0a1,1,0,1,1,1,1.007A1,1,0,0,1,23.926,138.052Zm-7.976,0a1,1,0,1,1,1,1.007A1,1,0,0,1,15.951,138.052Zm-7.975,0a1,1,0,1,1,1,1.007A1,1,0,0,1,7.976,138.052Zm-7.976,0a1,1,0,0,1,1-1.008,1.008,1.008,0,0,1,0,2.015A1,1,0,0,1,0,138.052Zm247.237-8.062a1,1,0,1,1,1,1.008A1,1,0,0,1,247.237,129.99Zm-7.975,0a1,1,0,1,1,1,1.008A1,1,0,0,1,239.262,129.99Zm-7.976,0a1,1,0,1,1,1,1.008A1,1,0,0,1,231.286,129.99Zm-7.975,0a1,1,0,1,1,1,1.008A1,1,0,0,1,223.311,129.99Zm-7.976,0a1,1,0,1,1,1,1.008A1,1,0,0,1,215.335,129.99Zm-7.976,0a1,1,0,1,1,1,1.008A1,1,0,0,1,207.36,129.99Zm-7.975,0a1,1,0,1,1,1,1.008A1,1,0,0,1,199.385,129.99Zm-7.976,0a1,1,0,1,1,1,1.008A1,1,0,0,1,191.409,129.99Zm-7.975,0a1,1,0,1,1,1,1.008A1,1,0,0,1,183.434,129.99Zm-7.976,0a1,1,0,1,1,1,1.008A1,1,0,0,1,175.458,129.99Zm-7.975,0a1,1,0,1,1,1,1.008A1,1,0,0,1,167.483,129.99Zm-7.976,0a1,1,0,1,1,1,1.008A1,1,0,0,1,159.508,129.99Zm-7.975,0a1,1,0,1,1,1,1.008A1,1,0,0,1,151.533,129.99Zm-7.976,0a1,1,0,1,1,1,1.008A1,1,0,0,1,143.557,129.99Zm-7.976,0a1,1,0,1,1,1,1.008A1,1,0,0,1,135.581,129.99Zm-7.975,0a1,1,0,1,1,1,1.008A1,1,0,0,1,127.606,129.99Zm-7.976,0a1,1,0,1,1,1,1.008A1,1,0,0,1,119.631,129.99Zm-7.975,0a1,1,0,1,1,1,1.008A1,1,0,0,1,111.656,129.99Zm-7.976,0a1,1,0,1,1,1,1.008A1,1,0,0,1,103.68,129.99Zm-7.975,0a1,1,0,1,1,1,1.008A1,1,0,0,1,95.7,129.99Zm-7.976,0a1,1,0,1,1,1,1.008A1,1,0,0,1,87.729,129.99Zm-7.975,0a1,1,0,1,1,1,1.008A1,1,0,0,1,79.754,129.99Zm-7.976,0a1,1,0,1,1,1,1.008A1,1,0,0,1,71.778,129.99Zm-7.976,0a1,1,0,1,1,1,1.008A1,1,0,0,1,63.8,129.99Zm-7.975,0a1,1,0,1,1,1,1.008A1,1,0,0,1,55.828,129.99Zm-7.976,0a1,1,0,1,1,1,1.008A1,1,0,0,1,47.852,129.99Zm-7.975,0a1,1,0,1,1,1,1.008A1,1,0,0,1,39.877,129.99Zm-7.976,0a1,1,0,1,1,1,1.008A1,1,0,0,1,31.9,129.99Zm-7.975,0a1,1,0,1,1,1,1.008A1,1,0,0,1,23.926,129.99Zm-7.976,0a1,1,0,1,1,1,1.008A1,1,0,0,1,15.951,129.99Zm-7.975,0a1,1,0,1,1,1,1.008A1,1,0,0,1,7.976,129.99ZM0,129.99a1,1,0,0,1,1-1.007A1.008,1.008,0,0,1,1,131,1,1,0,0,1,0,129.99Zm247.237-8.061a1,1,0,1,1,1,1.007A1,1,0,0,1,247.237,121.929Zm-7.975,0a1,1,0,1,1,1,1.007A1,1,0,0,1,239.262,121.929Zm-7.976,0a1,1,0,1,1,1,1.007A1,1,0,0,1,231.286,121.929Zm-7.975,0a1,1,0,1,1,1,1.007A1,1,0,0,1,223.311,121.929Zm-7.976,0a1,1,0,1,1,1,1.007A1,1,0,0,1,215.335,121.929Zm-7.976,0a1,1,0,1,1,1,1.007A1,1,0,0,1,207.36,121.929Zm-7.975,0a1,1,0,1,1,1,1.007A1,1,0,0,1,199.385,121.929Zm-7.976,0a1,1,0,1,1,1,1.007A1,1,0,0,1,191.409,121.929Zm-7.975,0a1,1,0,1,1,1,1.007A1,1,0,0,1,183.434,121.929Zm-7.976,0a1,1,0,1,1,1,1.007A1,1,0,0,1,175.458,121.929Zm-7.975,0a1,1,0,1,1,1,1.007A1,1,0,0,1,167.483,121.929Zm-7.976,0a1,1,0,1,1,1,1.007A1,1,0,0,1,159.508,121.929Zm-7.975,0a1,1,0,1,1,1,1.007A1,1,0,0,1,151.533,121.929Zm-7.976,0a1,1,0,1,1,1,1.007A1,1,0,0,1,143.557,121.929Zm-7.976,0a1,1,0,1,1,1,1.007A1,1,0,0,1,135.581,121.929Zm-7.975,0a1,1,0,1,1,1,1.007A1,1,0,0,1,127.606,121.929Zm-7.976,0a1,1,0,1,1,1,1.007A1,1,0,0,1,119.631,121.929Zm-7.975,0a1,1,0,1,1,1,1.007A1,1,0,0,1,111.656,121.929Zm-7.976,0a1,1,0,1,1,1,1.007A1,1,0,0,1,103.68,121.929Zm-7.975,0a1,1,0,1,1,1,1.007A1,1,0,0,1,95.7,121.929Zm-7.976,0a1,1,0,1,1,1,1.007A1,1,0,0,1,87.729,121.929Zm-7.975,0a1,1,0,1,1,1,1.007A1,1,0,0,1,79.754,121.929Zm-7.976,0a1,1,0,1,1,1,1.007A1,1,0,0,1,71.778,121.929Zm-7.976,0a1,1,0,1,1,1,1.007A1,1,0,0,1,63.8,121.929Zm-7.975,0a1,1,0,1,1,1,1.007A1,1,0,0,1,55.828,121.929Zm-7.976,0a1,1,0,1,1,1,1.007A1,1,0,0,1,47.852,121.929Zm-7.975,0a1,1,0,1,1,1,1.007A1,1,0,0,1,39.877,121.929Zm-7.976,0a1,1,0,1,1,1,1.007A1,1,0,0,1,31.9,121.929Zm-7.975,0a1,1,0,1,1,1,1.007A1,1,0,0,1,23.926,121.929Zm-7.976,0a1,1,0,1,1,1,1.007A1,1,0,0,1,15.951,121.929Zm-7.975,0a1,1,0,1,1,1,1.007A1,1,0,0,1,7.976,121.929Zm-7.976,0a1,1,0,0,1,1-1.008,1.008,1.008,0,0,1,0,2.015A1,1,0,0,1,0,121.929Zm247.237-8.062a1,1,0,1,1,1,1.008A1,1,0,0,1,247.237,113.868Zm-7.975,0a1,1,0,1,1,1,1.008A1,1,0,0,1,239.262,113.868Zm-7.976,0a1,1,0,1,1,1,1.008A1,1,0,0,1,231.286,113.868Zm-7.975,0a1,1,0,1,1,1,1.008A1,1,0,0,1,223.311,113.868Zm-7.976,0a1,1,0,1,1,1,1.008A1,1,0,0,1,215.335,113.868Zm-7.976,0a1,1,0,1,1,1,1.008A1,1,0,0,1,207.36,113.868Zm-7.975,0a1,1,0,1,1,1,1.008A1,1,0,0,1,199.385,113.868Zm-7.976,0a1,1,0,1,1,1,1.008A1,1,0,0,1,191.409,113.868Zm-7.975,0a1,1,0,1,1,1,1.008A1,1,0,0,1,183.434,113.868Zm-7.976,0a1,1,0,1,1,1,1.008A1,1,0,0,1,175.458,113.868Zm-7.975,0a1,1,0,1,1,1,1.008A1,1,0,0,1,167.483,113.868Zm-7.976,0a1,1,0,1,1,1,1.008A1,1,0,0,1,159.508,113.868Zm-7.975,0a1,1,0,1,1,1,1.008A1,1,0,0,1,151.533,113.868Zm-7.976,0a1,1,0,1,1,1,1.008A1,1,0,0,1,143.557,113.868Zm-7.976,0a1,1,0,1,1,1,1.008A1,1,0,0,1,135.581,113.868Zm-7.975,0a1,1,0,1,1,1,1.008A1,1,0,0,1,127.606,113.868Zm-7.976,0a1,1,0,1,1,1,1.008A1,1,0,0,1,119.631,113.868Zm-7.975,0a1,1,0,1,1,1,1.008A1,1,0,0,1,111.656,113.868Zm-7.976,0a1,1,0,1,1,1,1.008A1,1,0,0,1,103.68,113.868Zm-7.975,0a1,1,0,1,1,1,1.008A1,1,0,0,1,95.7,113.868Zm-7.976,0a1,1,0,1,1,1,1.008A1,1,0,0,1,87.729,113.868Zm-7.975,0a1,1,0,1,1,1,1.008A1,1,0,0,1,79.754,113.868Zm-7.976,0a1,1,0,1,1,1,1.008A1,1,0,0,1,71.778,113.868Zm-7.976,0a1,1,0,1,1,1,1.008A1,1,0,0,1,63.8,113.868Zm-7.975,0a1,1,0,1,1,1,1.008A1,1,0,0,1,55.828,113.868Zm-7.976,0a1,1,0,1,1,1,1.008A1,1,0,0,1,47.852,113.868Zm-7.975,0a1,1,0,1,1,1,1.008A1,1,0,0,1,39.877,113.868Zm-7.976,0a1,1,0,1,1,1,1.008A1,1,0,0,1,31.9,113.868Zm-7.975,0a1,1,0,1,1,1,1.008A1,1,0,0,1,23.926,113.868Zm-7.976,0a1,1,0,1,1,1,1.008A1,1,0,0,1,15.951,113.868Zm-7.975,0a1,1,0,1,1,1,1.008A1,1,0,0,1,7.976,113.868Zm-7.976,0a1,1,0,0,1,1-1.007,1.008,1.008,0,0,1,0,2.015A1,1,0,0,1,0,113.868Zm247.237-8.061a1,1,0,1,1,1,1.007A1,1,0,0,1,247.237,105.806Zm-7.975,0a1,1,0,1,1,1,1.007A1,1,0,0,1,239.262,105.806Zm-7.976,0a1,1,0,1,1,1,1.007A1,1,0,0,1,231.286,105.806Zm-7.975,0a1,1,0,1,1,1,1.007A1,1,0,0,1,223.311,105.806Zm-7.976,0a1,1,0,1,1,1,1.007A1,1,0,0,1,215.335,105.806Zm-7.976,0a1,1,0,1,1,1,1.007A1,1,0,0,1,207.36,105.806Zm-7.975,0a1,1,0,1,1,1,1.007A1,1,0,0,1,199.385,105.806Zm-7.976,0a1,1,0,1,1,1,1.007A1,1,0,0,1,191.409,105.806Zm-7.975,0a1,1,0,1,1,1,1.007A1,1,0,0,1,183.434,105.806Zm-7.976,0a1,1,0,1,1,1,1.007A1,1,0,0,1,175.458,105.806Zm-7.975,0a1,1,0,1,1,1,1.007A1,1,0,0,1,167.483,105.806Zm-7.976,0a1,1,0,1,1,1,1.007A1,1,0,0,1,159.508,105.806Zm-7.975,0a1,1,0,1,1,1,1.007A1,1,0,0,1,151.533,105.806Zm-7.976,0a1,1,0,1,1,1,1.007A1,1,0,0,1,143.557,105.806Zm-7.976,0a1,1,0,1,1,1,1.007A1,1,0,0,1,135.581,105.806Zm-7.975,0a1,1,0,1,1,1,1.007A1,1,0,0,1,127.606,105.806Zm-7.976,0a1,1,0,1,1,1,1.007A1,1,0,0,1,119.631,105.806Zm-7.975,0a1,1,0,1,1,1,1.007A1,1,0,0,1,111.656,105.806Zm-7.976,0a1,1,0,1,1,1,1.007A1,1,0,0,1,103.68,105.806Zm-7.975,0a1,1,0,1,1,1,1.007A1,1,0,0,1,95.7,105.806Zm-7.976,0a1,1,0,1,1,1,1.007A1,1,0,0,1,87.729,105.806Zm-7.975,0a1,1,0,1,1,1,1.007A1,1,0,0,1,79.754,105.806Zm-7.976,0a1,1,0,1,1,1,1.007A1,1,0,0,1,71.778,105.806Zm-7.976,0a1,1,0,1,1,1,1.007A1,1,0,0,1,63.8,105.806Zm-7.975,0a1,1,0,1,1,1,1.007A1,1,0,0,1,55.828,105.806Zm-7.976,0a1,1,0,1,1,1,1.007A1,1,0,0,1,47.852,105.806Zm-7.975,0a1,1,0,1,1,1,1.007A1,1,0,0,1,39.877,105.806Zm-7.976,0a1,1,0,1,1,1,1.007A1,1,0,0,1,31.9,105.806Zm-7.975,0a1,1,0,1,1,1,1.007A1,1,0,0,1,23.926,105.806Zm-7.976,0a1,1,0,1,1,1,1.007A1,1,0,0,1,15.951,105.806Zm-7.975,0a1,1,0,1,1,1,1.007A1,1,0,0,1,7.976,105.806Zm-7.976,0A1,1,0,0,1,1,104.8a1.008,1.008,0,0,1,0,2.015A1,1,0,0,1,0,105.806Zm247.237-8.062a1,1,0,1,1,1,1.008A1,1,0,0,1,247.237,97.745Zm-7.975,0a1,1,0,1,1,1,1.008A1,1,0,0,1,239.262,97.745Zm-7.976,0a1,1,0,1,1,1,1.008A1,1,0,0,1,231.286,97.745Zm-7.975,0a1,1,0,1,1,1,1.008A1,1,0,0,1,223.311,97.745Zm-7.976,0a1,1,0,1,1,1,1.008A1,1,0,0,1,215.335,97.745Zm-7.976,0a1,1,0,1,1,1,1.008A1,1,0,0,1,207.36,97.745Zm-7.975,0a1,1,0,1,1,1,1.008A1,1,0,0,1,199.385,97.745Zm-7.976,0a1,1,0,1,1,1,1.008A1,1,0,0,1,191.409,97.745Zm-7.975,0a1,1,0,1,1,1,1.008A1,1,0,0,1,183.434,97.745Zm-7.976,0a1,1,0,1,1,1,1.008A1,1,0,0,1,175.458,97.745Zm-7.975,0a1,1,0,1,1,1,1.008A1,1,0,0,1,167.483,97.745Zm-7.976,0a1,1,0,1,1,1,1.008A1,1,0,0,1,159.508,97.745Zm-7.975,0a1,1,0,1,1,1,1.008A1,1,0,0,1,151.533,97.745Zm-7.976,0a1,1,0,1,1,1,1.008A1,1,0,0,1,143.557,97.745Zm-7.976,0a1,1,0,1,1,1,1.008A1,1,0,0,1,135.581,97.745Zm-7.975,0a1,1,0,1,1,1,1.008A1,1,0,0,1,127.606,97.745Zm-7.976,0a1,1,0,1,1,1,1.008A1,1,0,0,1,119.631,97.745Zm-7.975,0a1,1,0,1,1,1,1.008A1,1,0,0,1,111.656,97.745Zm-7.976,0a1,1,0,1,1,1,1.008A1,1,0,0,1,103.68,97.745Zm-7.975,0a1,1,0,1,1,1,1.008A1,1,0,0,1,95.7,97.745Zm-7.976,0a1,1,0,1,1,1,1.008A1,1,0,0,1,87.729,97.745Zm-7.975,0a1,1,0,1,1,1,1.008A1,1,0,0,1,79.754,97.745Zm-7.976,0a1,1,0,1,1,1,1.008A1,1,0,0,1,71.778,97.745Zm-7.976,0a1,1,0,1,1,1,1.008A1,1,0,0,1,63.8,97.745Zm-7.975,0a1,1,0,1,1,1,1.008A1,1,0,0,1,55.828,97.745Zm-7.976,0a1,1,0,1,1,1,1.008A1,1,0,0,1,47.852,97.745Zm-7.975,0a1,1,0,1,1,1,1.008A1,1,0,0,1,39.877,97.745Zm-7.976,0a1,1,0,1,1,1,1.008A1,1,0,0,1,31.9,97.745Zm-7.975,0a1,1,0,1,1,1,1.008A1,1,0,0,1,23.926,97.745Zm-7.976,0a1,1,0,1,1,1,1.008A1,1,0,0,1,15.951,97.745Zm-7.975,0a1,1,0,1,1,1,1.008A1,1,0,0,1,7.976,97.745ZM0,97.745a1,1,0,0,1,1-1.007,1.008,1.008,0,0,1,0,2.015A1,1,0,0,1,0,97.745Zm247.237-8.061a1,1,0,1,1,1,1.007A1,1,0,0,1,247.237,89.684Zm-7.975,0a1,1,0,1,1,1,1.007A1,1,0,0,1,239.262,89.684Zm-7.976,0a1,1,0,1,1,1,1.007A1,1,0,0,1,231.286,89.684Zm-7.975,0a1,1,0,1,1,1,1.007A1,1,0,0,1,223.311,89.684Zm-7.976,0a1,1,0,1,1,1,1.007A1,1,0,0,1,215.335,89.684Zm-7.976,0a1,1,0,1,1,1,1.007A1,1,0,0,1,207.36,89.684Zm-7.975,0a1,1,0,1,1,1,1.007A1,1,0,0,1,199.385,89.684Zm-7.976,0a1,1,0,1,1,1,1.007A1,1,0,0,1,191.409,89.684Zm-7.975,0a1,1,0,1,1,1,1.007A1,1,0,0,1,183.434,89.684Zm-7.976,0a1,1,0,1,1,1,1.007A1,1,0,0,1,175.458,89.684Zm-7.975,0a1,1,0,1,1,1,1.007A1,1,0,0,1,167.483,89.684Zm-7.976,0a1,1,0,1,1,1,1.007A1,1,0,0,1,159.508,89.684Zm-7.975,0a1,1,0,1,1,1,1.007A1,1,0,0,1,151.533,89.684Zm-7.976,0a1,1,0,1,1,1,1.007A1,1,0,0,1,143.557,89.684Zm-7.976,0a1,1,0,1,1,1,1.007A1,1,0,0,1,135.581,89.684Zm-7.975,0a1,1,0,1,1,1,1.007A1,1,0,0,1,127.606,89.684Zm-7.976,0a1,1,0,1,1,1,1.007A1,1,0,0,1,119.631,89.684Zm-7.975,0a1,1,0,1,1,1,1.007A1,1,0,0,1,111.656,89.684Zm-7.976,0a1,1,0,1,1,1,1.007A1,1,0,0,1,103.68,89.684Zm-7.975,0a1,1,0,1,1,1,1.007A1,1,0,0,1,95.7,89.684Zm-7.976,0a1,1,0,1,1,1,1.007A1,1,0,0,1,87.729,89.684Zm-7.975,0a1,1,0,1,1,1,1.007A1,1,0,0,1,79.754,89.684Zm-7.976,0a1,1,0,1,1,1,1.007A1,1,0,0,1,71.778,89.684Zm-7.976,0a1,1,0,1,1,1,1.007A1,1,0,0,1,63.8,89.684Zm-7.975,0a1,1,0,1,1,1,1.007A1,1,0,0,1,55.828,89.684Zm-7.976,0a1,1,0,1,1,1,1.007A1,1,0,0,1,47.852,89.684Zm-7.975,0a1,1,0,1,1,1,1.007A1,1,0,0,1,39.877,89.684Zm-7.976,0a1,1,0,1,1,1,1.007A1,1,0,0,1,31.9,89.684Zm-7.975,0a1,1,0,1,1,1,1.007A1,1,0,0,1,23.926,89.684Zm-7.976,0a1,1,0,1,1,1,1.007A1,1,0,0,1,15.951,89.684Zm-7.975,0a1,1,0,1,1,1,1.007A1,1,0,0,1,7.976,89.684ZM0,89.684a1,1,0,0,1,1-1.008,1.008,1.008,0,0,1,0,2.015A1,1,0,0,1,0,89.684Zm247.237-8.062a1,1,0,1,1,1,1.007A1,1,0,0,1,247.237,81.622Zm-7.975,0a1,1,0,1,1,1,1.007A1,1,0,0,1,239.262,81.622Zm-7.976,0a1,1,0,1,1,1,1.007A1,1,0,0,1,231.286,81.622Zm-7.975,0a1,1,0,1,1,1,1.007A1,1,0,0,1,223.311,81.622Zm-7.976,0a1,1,0,1,1,1,1.007A1,1,0,0,1,215.335,81.622Zm-7.976,0a1,1,0,1,1,1,1.007A1,1,0,0,1,207.36,81.622Zm-7.975,0a1,1,0,1,1,1,1.007A1,1,0,0,1,199.385,81.622Zm-7.976,0a1,1,0,1,1,1,1.007A1,1,0,0,1,191.409,81.622Zm-7.975,0a1,1,0,1,1,1,1.007A1,1,0,0,1,183.434,81.622Zm-7.976,0a1,1,0,1,1,1,1.007A1,1,0,0,1,175.458,81.622Zm-7.975,0a1,1,0,1,1,1,1.007A1,1,0,0,1,167.483,81.622Zm-7.976,0a1,1,0,1,1,1,1.007A1,1,0,0,1,159.508,81.622Zm-7.975,0a1,1,0,1,1,1,1.007A1,1,0,0,1,151.533,81.622Zm-7.976,0a1,1,0,1,1,1,1.007A1,1,0,0,1,143.557,81.622Zm-7.976,0a1,1,0,1,1,1,1.007A1,1,0,0,1,135.581,81.622Zm-7.975,0a1,1,0,1,1,1,1.007A1,1,0,0,1,127.606,81.622Zm-7.976,0a1,1,0,1,1,1,1.007A1,1,0,0,1,119.631,81.622Zm-7.975,0a1,1,0,1,1,1,1.007A1,1,0,0,1,111.656,81.622Zm-7.976,0a1,1,0,1,1,1,1.007A1,1,0,0,1,103.68,81.622Zm-7.975,0a1,1,0,1,1,1,1.007A1,1,0,0,1,95.7,81.622Zm-7.976,0a1,1,0,1,1,1,1.007A1,1,0,0,1,87.729,81.622Zm-7.975,0a1,1,0,1,1,1,1.007A1,1,0,0,1,79.754,81.622Zm-7.976,0a1,1,0,1,1,1,1.007A1,1,0,0,1,71.778,81.622Zm-7.976,0a1,1,0,1,1,1,1.007A1,1,0,0,1,63.8,81.622Zm-7.975,0a1,1,0,1,1,1,1.007A1,1,0,0,1,55.828,81.622Zm-7.976,0a1,1,0,1,1,1,1.007A1,1,0,0,1,47.852,81.622Zm-7.975,0a1,1,0,1,1,1,1.007A1,1,0,0,1,39.877,81.622Zm-7.976,0a1,1,0,1,1,1,1.007A1,1,0,0,1,31.9,81.622Zm-7.975,0a1,1,0,1,1,1,1.007A1,1,0,0,1,23.926,81.622Zm-7.976,0a1,1,0,1,1,1,1.007A1,1,0,0,1,15.951,81.622Zm-7.975,0a1,1,0,1,1,1,1.007A1,1,0,0,1,7.976,81.622ZM0,81.622a1,1,0,0,1,1-1.007,1.007,1.007,0,0,1,0,2.015A1,1,0,0,1,0,81.622ZM247.237,73.56a1,1,0,1,1,1,1.008A1,1,0,0,1,247.237,73.56Zm-7.975,0a1,1,0,1,1,1,1.008A1,1,0,0,1,239.262,73.56Zm-7.976,0a1,1,0,1,1,1,1.008A1,1,0,0,1,231.286,73.56Zm-7.975,0a1,1,0,1,1,1,1.008A1,1,0,0,1,223.311,73.56Zm-7.976,0a1,1,0,1,1,1,1.008A1,1,0,0,1,215.335,73.56Zm-7.976,0a1,1,0,1,1,1,1.008A1,1,0,0,1,207.36,73.56Zm-7.975,0a1,1,0,1,1,1,1.008A1,1,0,0,1,199.385,73.56Zm-7.976,0a1,1,0,1,1,1,1.008A1,1,0,0,1,191.409,73.56Zm-7.975,0a1,1,0,1,1,1,1.008A1,1,0,0,1,183.434,73.56Zm-7.976,0a1,1,0,1,1,1,1.008A1,1,0,0,1,175.458,73.56Zm-7.975,0a1,1,0,1,1,1,1.008A1,1,0,0,1,167.483,73.56Zm-7.976,0a1,1,0,1,1,1,1.008A1,1,0,0,1,159.508,73.56Zm-7.975,0a1,1,0,1,1,1,1.008A1,1,0,0,1,151.533,73.56Zm-7.976,0a1,1,0,1,1,1,1.008A1,1,0,0,1,143.557,73.56Zm-7.976,0a1,1,0,1,1,1,1.008A1,1,0,0,1,135.581,73.56Zm-7.975,0a1,1,0,1,1,1,1.008A1,1,0,0,1,127.606,73.56Zm-7.976,0a1,1,0,1,1,1,1.008A1,1,0,0,1,119.631,73.56Zm-7.975,0a1,1,0,1,1,1,1.008A1,1,0,0,1,111.656,73.56Zm-7.976,0a1,1,0,1,1,1,1.008A1,1,0,0,1,103.68,73.56Zm-7.975,0a1,1,0,1,1,1,1.008A1,1,0,0,1,95.7,73.56Zm-7.976,0a1,1,0,1,1,1,1.008A1,1,0,0,1,87.729,73.56Zm-7.975,0a1,1,0,1,1,1,1.008A1,1,0,0,1,79.754,73.56Zm-7.976,0a1,1,0,1,1,1,1.008A1,1,0,0,1,71.778,73.56Zm-7.976,0a1,1,0,1,1,1,1.008A1,1,0,0,1,63.8,73.56Zm-7.975,0a1,1,0,1,1,1,1.008A1,1,0,0,1,55.828,73.56Zm-7.976,0a1,1,0,1,1,1,1.008A1,1,0,0,1,47.852,73.56Zm-7.975,0a1,1,0,1,1,1,1.008A1,1,0,0,1,39.877,73.56Zm-7.976,0a1,1,0,1,1,1,1.008A1,1,0,0,1,31.9,73.56Zm-7.975,0a1,1,0,1,1,1,1.008A1,1,0,0,1,23.926,73.56Zm-7.976,0a1,1,0,1,1,1,1.008A1,1,0,0,1,15.951,73.56Zm-7.975,0a1,1,0,1,1,1,1.008A1,1,0,0,1,7.976,73.56ZM0,73.56a1,1,0,0,1,1-1.007,1.008,1.008,0,0,1,0,2.015A1,1,0,0,1,0,73.56ZM247.237,65.5a1,1,0,1,1,1,1.007A1,1,0,0,1,247.237,65.5Zm-7.975,0a1,1,0,1,1,1,1.007A1,1,0,0,1,239.262,65.5Zm-7.976,0a1,1,0,1,1,1,1.007A1,1,0,0,1,231.286,65.5Zm-7.975,0a1,1,0,1,1,1,1.007A1,1,0,0,1,223.311,65.5Zm-7.976,0a1,1,0,1,1,1,1.007A1,1,0,0,1,215.335,65.5Zm-7.976,0a1,1,0,1,1,1,1.007A1,1,0,0,1,207.36,65.5Zm-7.975,0a1,1,0,1,1,1,1.007A1,1,0,0,1,199.385,65.5Zm-7.976,0a1,1,0,1,1,1,1.007A1,1,0,0,1,191.409,65.5Zm-7.975,0a1,1,0,1,1,1,1.007A1,1,0,0,1,183.434,65.5Zm-7.976,0a1,1,0,1,1,1,1.007A1,1,0,0,1,175.458,65.5Zm-7.975,0a1,1,0,1,1,1,1.007A1,1,0,0,1,167.483,65.5Zm-7.976,0a1,1,0,1,1,1,1.007A1,1,0,0,1,159.508,65.5Zm-7.975,0a1,1,0,1,1,1,1.007A1,1,0,0,1,151.533,65.5Zm-7.976,0a1,1,0,1,1,1,1.007A1,1,0,0,1,143.557,65.5Zm-7.976,0a1,1,0,1,1,1,1.007A1,1,0,0,1,135.581,65.5Zm-7.975,0a1,1,0,1,1,1,1.007A1,1,0,0,1,127.606,65.5Zm-7.976,0a1,1,0,1,1,1,1.007A1,1,0,0,1,119.631,65.5Zm-7.975,0a1,1,0,1,1,1,1.007A1,1,0,0,1,111.656,65.5Zm-7.976,0a1,1,0,1,1,1,1.007A1,1,0,0,1,103.68,65.5Zm-7.975,0a1,1,0,1,1,1,1.007A1,1,0,0,1,95.7,65.5Zm-7.976,0a1,1,0,1,1,1,1.007A1,1,0,0,1,87.729,65.5Zm-7.975,0a1,1,0,1,1,1,1.007A1,1,0,0,1,79.754,65.5Zm-7.976,0a1,1,0,1,1,1,1.007A1,1,0,0,1,71.778,65.5Zm-7.976,0a1,1,0,1,1,1,1.007A1,1,0,0,1,63.8,65.5Zm-7.975,0a1,1,0,1,1,1,1.007A1,1,0,0,1,55.828,65.5Zm-7.976,0a1,1,0,1,1,1,1.007A1,1,0,0,1,47.852,65.5Zm-7.975,0a1,1,0,1,1,1,1.007A1,1,0,0,1,39.877,65.5Zm-7.976,0a1,1,0,1,1,1,1.007A1,1,0,0,1,31.9,65.5Zm-7.975,0a1,1,0,1,1,1,1.007A1,1,0,0,1,23.926,65.5Zm-7.976,0a1,1,0,1,1,1,1.007A1,1,0,0,1,15.951,65.5Zm-7.975,0a1,1,0,1,1,1,1.007A1,1,0,0,1,7.976,65.5ZM0,65.5a1,1,0,0,1,1-1.008,1.008,1.008,0,0,1,0,2.015A1,1,0,0,1,0,65.5Zm247.237-8.062a1,1,0,1,1,1,1.008A1,1,0,0,1,247.237,57.437Zm-7.975,0a1,1,0,1,1,1,1.008A1,1,0,0,1,239.262,57.437Zm-7.976,0a1,1,0,1,1,1,1.008A1,1,0,0,1,231.286,57.437Zm-7.975,0a1,1,0,1,1,1,1.008A1,1,0,0,1,223.311,57.437Zm-7.976,0a1,1,0,1,1,1,1.008A1,1,0,0,1,215.335,57.437Zm-7.976,0a1,1,0,1,1,1,1.008A1,1,0,0,1,207.36,57.437Zm-7.975,0a1,1,0,1,1,1,1.008A1,1,0,0,1,199.385,57.437Zm-7.976,0a1,1,0,1,1,1,1.008A1,1,0,0,1,191.409,57.437Zm-7.975,0a1,1,0,1,1,1,1.008A1,1,0,0,1,183.434,57.437Zm-7.976,0a1,1,0,1,1,1,1.008A1,1,0,0,1,175.458,57.437Zm-7.975,0a1,1,0,1,1,1,1.008A1,1,0,0,1,167.483,57.437Zm-7.976,0a1,1,0,1,1,1,1.008A1,1,0,0,1,159.508,57.437Zm-7.975,0a1,1,0,1,1,1,1.008A1,1,0,0,1,151.533,57.437Zm-7.976,0a1,1,0,1,1,1,1.008A1,1,0,0,1,143.557,57.437Zm-7.976,0a1,1,0,1,1,1,1.008A1,1,0,0,1,135.581,57.437Zm-7.975,0a1,1,0,1,1,1,1.008A1,1,0,0,1,127.606,57.437Zm-7.976,0a1,1,0,1,1,1,1.008A1,1,0,0,1,119.631,57.437Zm-7.975,0a1,1,0,1,1,1,1.008A1,1,0,0,1,111.656,57.437Zm-7.976,0a1,1,0,1,1,1,1.008A1,1,0,0,1,103.68,57.437Zm-7.975,0a1,1,0,1,1,1,1.008A1,1,0,0,1,95.7,57.437Zm-7.976,0a1,1,0,1,1,1,1.008A1,1,0,0,1,87.729,57.437Zm-7.975,0a1,1,0,1,1,1,1.008A1,1,0,0,1,79.754,57.437Zm-7.976,0a1,1,0,1,1,1,1.008A1,1,0,0,1,71.778,57.437Zm-7.976,0a1,1,0,1,1,1,1.008A1,1,0,0,1,63.8,57.437Zm-7.975,0a1,1,0,1,1,1,1.008A1,1,0,0,1,55.828,57.437Zm-7.976,0a1,1,0,1,1,1,1.008A1,1,0,0,1,47.852,57.437Zm-7.975,0a1,1,0,1,1,1,1.008A1,1,0,0,1,39.877,57.437Zm-7.976,0a1,1,0,1,1,1,1.008A1,1,0,0,1,31.9,57.437Zm-7.975,0a1,1,0,1,1,1,1.008A1,1,0,0,1,23.926,57.437Zm-7.976,0a1,1,0,1,1,1,1.008A1,1,0,0,1,15.951,57.437Zm-7.975,0a1,1,0,1,1,1,1.008A1,1,0,0,1,7.976,57.437ZM0,57.437A1,1,0,0,1,1,56.43a1.008,1.008,0,0,1,0,2.015A1,1,0,0,1,0,57.437Zm247.237-8.061a1,1,0,1,1,1,1.007A1,1,0,0,1,247.237,49.376Zm-7.975,0a1,1,0,1,1,1,1.007A1,1,0,0,1,239.262,49.376Zm-7.976,0a1,1,0,1,1,1,1.007A1,1,0,0,1,231.286,49.376Zm-7.975,0a1,1,0,1,1,1,1.007A1,1,0,0,1,223.311,49.376Zm-7.976,0a1,1,0,1,1,1,1.007A1,1,0,0,1,215.335,49.376Zm-7.976,0a1,1,0,1,1,1,1.007A1,1,0,0,1,207.36,49.376Zm-7.975,0a1,1,0,1,1,1,1.007A1,1,0,0,1,199.385,49.376Zm-7.976,0a1,1,0,1,1,1,1.007A1,1,0,0,1,191.409,49.376Zm-7.975,0a1,1,0,1,1,1,1.007A1,1,0,0,1,183.434,49.376Zm-7.976,0a1,1,0,1,1,1,1.007A1,1,0,0,1,175.458,49.376Zm-7.975,0a1,1,0,1,1,1,1.007A1,1,0,0,1,167.483,49.376Zm-7.976,0a1,1,0,1,1,1,1.007A1,1,0,0,1,159.508,49.376Zm-7.975,0a1,1,0,1,1,1,1.007A1,1,0,0,1,151.533,49.376Zm-7.976,0a1,1,0,1,1,1,1.007A1,1,0,0,1,143.557,49.376Zm-7.976,0a1,1,0,1,1,1,1.007A1,1,0,0,1,135.581,49.376Zm-7.975,0a1,1,0,1,1,1,1.007A1,1,0,0,1,127.606,49.376Zm-7.976,0a1,1,0,1,1,1,1.007A1,1,0,0,1,119.631,49.376Zm-7.975,0a1,1,0,1,1,1,1.007A1,1,0,0,1,111.656,49.376Zm-7.976,0a1,1,0,1,1,1,1.007A1,1,0,0,1,103.68,49.376Zm-7.975,0a1,1,0,1,1,1,1.007A1,1,0,0,1,95.7,49.376Zm-7.976,0a1,1,0,1,1,1,1.007A1,1,0,0,1,87.729,49.376Zm-7.975,0a1,1,0,1,1,1,1.007A1,1,0,0,1,79.754,49.376Zm-7.976,0a1,1,0,1,1,1,1.007A1,1,0,0,1,71.778,49.376Zm-7.976,0a1,1,0,1,1,1,1.007A1,1,0,0,1,63.8,49.376Zm-7.975,0a1,1,0,1,1,1,1.007A1,1,0,0,1,55.828,49.376Zm-7.976,0a1,1,0,1,1,1,1.007A1,1,0,0,1,47.852,49.376Zm-7.975,0a1,1,0,1,1,1,1.007A1,1,0,0,1,39.877,49.376Zm-7.976,0a1,1,0,1,1,1,1.007A1,1,0,0,1,31.9,49.376Zm-7.975,0a1,1,0,1,1,1,1.007A1,1,0,0,1,23.926,49.376Zm-7.976,0a1,1,0,1,1,1,1.007A1,1,0,0,1,15.951,49.376Zm-7.975,0a1,1,0,1,1,1,1.007A1,1,0,0,1,7.976,49.376ZM0,49.376a1,1,0,0,1,1-1.008,1.008,1.008,0,0,1,0,2.015A1,1,0,0,1,0,49.376Zm247.237-8.062a1,1,0,1,1,1,1.008A1,1,0,0,1,247.237,41.315Zm-7.975,0a1,1,0,1,1,1,1.008A1,1,0,0,1,239.262,41.315Zm-7.976,0a1,1,0,1,1,1,1.008A1,1,0,0,1,231.286,41.315Zm-7.975,0a1,1,0,1,1,1,1.008A1,1,0,0,1,223.311,41.315Zm-7.976,0a1,1,0,1,1,1,1.008A1,1,0,0,1,215.335,41.315Zm-7.976,0a1,1,0,1,1,1,1.008A1,1,0,0,1,207.36,41.315Zm-7.975,0a1,1,0,1,1,1,1.008A1,1,0,0,1,199.385,41.315Zm-7.976,0a1,1,0,1,1,1,1.008A1,1,0,0,1,191.409,41.315Zm-7.975,0a1,1,0,1,1,1,1.008A1,1,0,0,1,183.434,41.315Zm-7.976,0a1,1,0,1,1,1,1.008A1,1,0,0,1,175.458,41.315Zm-7.975,0a1,1,0,1,1,1,1.008A1,1,0,0,1,167.483,41.315Zm-7.976,0a1,1,0,1,1,1,1.008A1,1,0,0,1,159.508,41.315Zm-7.975,0a1,1,0,1,1,1,1.008A1,1,0,0,1,151.533,41.315Zm-7.976,0a1,1,0,1,1,1,1.008A1,1,0,0,1,143.557,41.315Zm-7.976,0a1,1,0,1,1,1,1.008A1,1,0,0,1,135.581,41.315Zm-7.975,0a1,1,0,1,1,1,1.008A1,1,0,0,1,127.606,41.315Zm-7.976,0a1,1,0,1,1,1,1.008A1,1,0,0,1,119.631,41.315Zm-7.975,0a1,1,0,1,1,1,1.008A1,1,0,0,1,111.656,41.315Zm-7.976,0a1,1,0,1,1,1,1.008A1,1,0,0,1,103.68,41.315Zm-7.975,0a1,1,0,1,1,1,1.008A1,1,0,0,1,95.7,41.315Zm-7.976,0a1,1,0,1,1,1,1.008A1,1,0,0,1,87.729,41.315Zm-7.975,0a1,1,0,1,1,1,1.008A1,1,0,0,1,79.754,41.315Zm-7.976,0a1,1,0,1,1,1,1.008A1,1,0,0,1,71.778,41.315Zm-7.976,0a1,1,0,1,1,1,1.008A1,1,0,0,1,63.8,41.315Zm-7.975,0a1,1,0,1,1,1,1.008A1,1,0,0,1,55.828,41.315Zm-7.976,0a1,1,0,1,1,1,1.008A1,1,0,0,1,47.852,41.315Zm-7.975,0a1,1,0,1,1,1,1.008A1,1,0,0,1,39.877,41.315Zm-7.976,0a1,1,0,1,1,1,1.008A1,1,0,0,1,31.9,41.315Zm-7.975,0a1,1,0,1,1,1,1.008A1,1,0,0,1,23.926,41.315Zm-7.976,0a1,1,0,1,1,1,1.008A1,1,0,0,1,15.951,41.315Zm-7.975,0a1,1,0,1,1,1,1.008A1,1,0,0,1,7.976,41.315ZM0,41.315a1,1,0,0,1,1-1.007,1.008,1.008,0,0,1,0,2.015A1,1,0,0,1,0,41.315Zm247.237-8.061a1,1,0,1,1,1,1.007A1,1,0,0,1,247.237,33.254Zm-7.975,0a1,1,0,1,1,1,1.007A1,1,0,0,1,239.262,33.254Zm-7.976,0a1,1,0,1,1,1,1.007A1,1,0,0,1,231.286,33.254Zm-7.975,0a1,1,0,1,1,1,1.007A1,1,0,0,1,223.311,33.254Zm-7.976,0a1,1,0,1,1,1,1.007A1,1,0,0,1,215.335,33.254Zm-7.976,0a1,1,0,1,1,1,1.007A1,1,0,0,1,207.36,33.254Zm-7.975,0a1,1,0,1,1,1,1.007A1,1,0,0,1,199.385,33.254Zm-7.976,0a1,1,0,1,1,1,1.007A1,1,0,0,1,191.409,33.254Zm-7.975,0a1,1,0,1,1,1,1.007A1,1,0,0,1,183.434,33.254Zm-7.976,0a1,1,0,1,1,1,1.007A1,1,0,0,1,175.458,33.254Zm-7.975,0a1,1,0,1,1,1,1.007A1,1,0,0,1,167.483,33.254Zm-7.976,0a1,1,0,1,1,1,1.007A1,1,0,0,1,159.508,33.254Zm-7.975,0a1,1,0,1,1,1,1.007A1,1,0,0,1,151.533,33.254Zm-7.976,0a1,1,0,1,1,1,1.007A1,1,0,0,1,143.557,33.254Zm-7.976,0a1,1,0,1,1,1,1.007A1,1,0,0,1,135.581,33.254Zm-7.975,0a1,1,0,1,1,1,1.007A1,1,0,0,1,127.606,33.254Zm-7.976,0a1,1,0,1,1,1,1.007A1,1,0,0,1,119.631,33.254Zm-7.975,0a1,1,0,1,1,1,1.007A1,1,0,0,1,111.656,33.254Zm-7.976,0a1,1,0,1,1,1,1.007A1,1,0,0,1,103.68,33.254Zm-7.975,0a1,1,0,1,1,1,1.007A1,1,0,0,1,95.7,33.254Zm-7.976,0a1,1,0,1,1,1,1.007A1,1,0,0,1,87.729,33.254Zm-7.975,0a1,1,0,1,1,1,1.007A1,1,0,0,1,79.754,33.254Zm-7.976,0a1,1,0,1,1,1,1.007A1,1,0,0,1,71.778,33.254Zm-7.976,0a1,1,0,1,1,1,1.007A1,1,0,0,1,63.8,33.254Zm-7.975,0a1,1,0,1,1,1,1.007A1,1,0,0,1,55.828,33.254Zm-7.976,0a1,1,0,1,1,1,1.007A1,1,0,0,1,47.852,33.254Zm-7.975,0a1,1,0,1,1,1,1.007A1,1,0,0,1,39.877,33.254Zm-7.976,0a1,1,0,1,1,1,1.007A1,1,0,0,1,31.9,33.254Zm-7.975,0a1,1,0,1,1,1,1.007A1,1,0,0,1,23.926,33.254Zm-7.976,0a1,1,0,1,1,1,1.007A1,1,0,0,1,15.951,33.254Zm-7.975,0a1,1,0,1,1,1,1.007A1,1,0,0,1,7.976,33.254ZM0,33.254a1,1,0,0,1,1-1.008,1.008,1.008,0,0,1,0,2.015A1,1,0,0,1,0,33.254Zm247.237-8.062a1,1,0,1,1,1,1.008A1,1,0,0,1,247.237,25.192Zm-7.975,0a1,1,0,1,1,1,1.008A1,1,0,0,1,239.262,25.192Zm-7.976,0a1,1,0,1,1,1,1.008A1,1,0,0,1,231.286,25.192Zm-7.975,0a1,1,0,1,1,1,1.008A1,1,0,0,1,223.311,25.192Zm-7.976,0a1,1,0,1,1,1,1.008A1,1,0,0,1,215.335,25.192Zm-7.976,0a1,1,0,1,1,1,1.008A1,1,0,0,1,207.36,25.192Zm-7.975,0a1,1,0,1,1,1,1.008A1,1,0,0,1,199.385,25.192Zm-7.976,0a1,1,0,1,1,1,1.008A1,1,0,0,1,191.409,25.192Zm-7.975,0a1,1,0,1,1,1,1.008A1,1,0,0,1,183.434,25.192Zm-7.976,0a1,1,0,1,1,1,1.008A1,1,0,0,1,175.458,25.192Zm-7.975,0a1,1,0,1,1,1,1.008A1,1,0,0,1,167.483,25.192Zm-7.976,0a1,1,0,1,1,1,1.008A1,1,0,0,1,159.508,25.192Zm-7.975,0a1,1,0,1,1,1,1.008A1,1,0,0,1,151.533,25.192Zm-7.976,0a1,1,0,1,1,1,1.008A1,1,0,0,1,143.557,25.192Zm-7.976,0a1,1,0,1,1,1,1.008A1,1,0,0,1,135.581,25.192Zm-7.975,0a1,1,0,1,1,1,1.008A1,1,0,0,1,127.606,25.192Zm-7.976,0a1,1,0,1,1,1,1.008A1,1,0,0,1,119.631,25.192Zm-7.975,0a1,1,0,1,1,1,1.008A1,1,0,0,1,111.656,25.192Zm-7.976,0a1,1,0,1,1,1,1.008A1,1,0,0,1,103.68,25.192Zm-7.975,0a1,1,0,1,1,1,1.008A1,1,0,0,1,95.7,25.192Zm-7.976,0a1,1,0,1,1,1,1.008A1,1,0,0,1,87.729,25.192Zm-7.975,0a1,1,0,1,1,1,1.008A1,1,0,0,1,79.754,25.192Zm-7.976,0a1,1,0,1,1,1,1.008A1,1,0,0,1,71.778,25.192Zm-7.976,0a1,1,0,1,1,1,1.008A1,1,0,0,1,63.8,25.192Zm-7.975,0a1,1,0,1,1,1,1.008A1,1,0,0,1,55.828,25.192Zm-7.976,0a1,1,0,1,1,1,1.008A1,1,0,0,1,47.852,25.192Zm-7.975,0a1,1,0,1,1,1,1.008A1,1,0,0,1,39.877,25.192Zm-7.976,0a1,1,0,1,1,1,1.008A1,1,0,0,1,31.9,25.192Zm-7.975,0a1,1,0,1,1,1,1.008A1,1,0,0,1,23.926,25.192Zm-7.976,0a1,1,0,1,1,1,1.008A1,1,0,0,1,15.951,25.192Zm-7.975,0a1,1,0,1,1,1,1.008A1,1,0,0,1,7.976,25.192ZM0,25.192a1,1,0,0,1,1-1.007A1.008,1.008,0,0,1,1,26.2,1,1,0,0,1,0,25.192Zm247.237-8.061a1,1,0,1,1,1,1.007A1,1,0,0,1,247.237,17.131Zm-7.975,0a1,1,0,1,1,1,1.007A1,1,0,0,1,239.262,17.131Zm-7.976,0a1,1,0,1,1,1,1.007A1,1,0,0,1,231.286,17.131Zm-7.975,0a1,1,0,1,1,1,1.007A1,1,0,0,1,223.311,17.131Zm-7.976,0a1,1,0,1,1,1,1.007A1,1,0,0,1,215.335,17.131Zm-7.976,0a1,1,0,1,1,1,1.007A1,1,0,0,1,207.36,17.131Zm-7.975,0a1,1,0,1,1,1,1.007A1,1,0,0,1,199.385,17.131Zm-7.976,0a1,1,0,1,1,1,1.007A1,1,0,0,1,191.409,17.131Zm-7.975,0a1,1,0,1,1,1,1.007A1,1,0,0,1,183.434,17.131Zm-7.976,0a1,1,0,1,1,1,1.007A1,1,0,0,1,175.458,17.131Zm-7.975,0a1,1,0,1,1,1,1.007A1,1,0,0,1,167.483,17.131Zm-7.976,0a1,1,0,1,1,1,1.007A1,1,0,0,1,159.508,17.131Zm-7.975,0a1,1,0,1,1,1,1.007A1,1,0,0,1,151.533,17.131Zm-7.976,0a1,1,0,1,1,1,1.007A1,1,0,0,1,143.557,17.131Zm-7.976,0a1,1,0,1,1,1,1.007A1,1,0,0,1,135.581,17.131Zm-7.975,0a1,1,0,1,1,1,1.007A1,1,0,0,1,127.606,17.131Zm-7.976,0a1,1,0,1,1,1,1.007A1,1,0,0,1,119.631,17.131Zm-7.975,0a1,1,0,1,1,1,1.007A1,1,0,0,1,111.656,17.131Zm-7.976,0a1,1,0,1,1,1,1.007A1,1,0,0,1,103.68,17.131Zm-7.975,0a1,1,0,1,1,1,1.007A1,1,0,0,1,95.7,17.131Zm-7.976,0a1,1,0,1,1,1,1.007A1,1,0,0,1,87.729,17.131Zm-7.975,0a1,1,0,1,1,1,1.007A1,1,0,0,1,79.754,17.131Zm-7.976,0a1,1,0,1,1,1,1.007A1,1,0,0,1,71.778,17.131Zm-7.976,0a1,1,0,1,1,1,1.007A1,1,0,0,1,63.8,17.131Zm-7.975,0a1,1,0,1,1,1,1.007A1,1,0,0,1,55.828,17.131Zm-7.976,0a1,1,0,1,1,1,1.007A1,1,0,0,1,47.852,17.131Zm-7.975,0a1,1,0,1,1,1,1.007A1,1,0,0,1,39.877,17.131Zm-7.976,0a1,1,0,1,1,1,1.007A1,1,0,0,1,31.9,17.131Zm-7.975,0a1,1,0,1,1,1,1.007A1,1,0,0,1,23.926,17.131Zm-7.976,0a1,1,0,1,1,1,1.007A1,1,0,0,1,15.951,17.131Zm-7.975,0a1,1,0,1,1,1,1.007A1,1,0,0,1,7.976,17.131ZM0,17.131a1,1,0,0,1,1-1.008,1.008,1.008,0,0,1,0,2.015A1,1,0,0,1,0,17.131ZM247.237,9.069a1,1,0,1,1,1,1.007A1,1,0,0,1,247.237,9.069Zm-7.975,0a1,1,0,1,1,1,1.007A1,1,0,0,1,239.262,9.069Zm-7.976,0a1,1,0,1,1,1,1.007A1,1,0,0,1,231.286,9.069Zm-7.975,0a1,1,0,1,1,1,1.007A1,1,0,0,1,223.311,9.069Zm-7.976,0a1,1,0,1,1,1,1.007A1,1,0,0,1,215.335,9.069Zm-7.976,0a1,1,0,1,1,1,1.007A1,1,0,0,1,207.36,9.069Zm-7.975,0a1,1,0,1,1,1,1.007A1,1,0,0,1,199.385,9.069Zm-7.976,0a1,1,0,1,1,1,1.007A1,1,0,0,1,191.409,9.069Zm-7.975,0a1,1,0,1,1,1,1.007A1,1,0,0,1,183.434,9.069Zm-7.976,0a1,1,0,1,1,1,1.007A1,1,0,0,1,175.458,9.069Zm-7.975,0a1,1,0,1,1,1,1.007A1,1,0,0,1,167.483,9.069Zm-7.976,0a1,1,0,1,1,1,1.007A1,1,0,0,1,159.508,9.069Zm-7.975,0a1,1,0,1,1,1,1.007A1,1,0,0,1,151.533,9.069Zm-7.976,0a1,1,0,1,1,1,1.007A1,1,0,0,1,143.557,9.069Zm-7.976,0a1,1,0,1,1,1,1.007A1,1,0,0,1,135.581,9.069Zm-7.975,0a1,1,0,1,1,1,1.007A1,1,0,0,1,127.606,9.069Zm-7.976,0a1,1,0,1,1,1,1.007A1,1,0,0,1,119.631,9.069Zm-7.975,0a1,1,0,1,1,1,1.007A1,1,0,0,1,111.656,9.069Zm-7.976,0a1,1,0,1,1,1,1.007A1,1,0,0,1,103.68,9.069Zm-7.975,0a1,1,0,1,1,1,1.007A1,1,0,0,1,95.7,9.069Zm-7.976,0a1,1,0,1,1,1,1.007A1,1,0,0,1,87.729,9.069Zm-7.975,0a1,1,0,1,1,1,1.007A1,1,0,0,1,79.754,9.069Zm-7.976,0a1,1,0,1,1,1,1.007A1,1,0,0,1,71.778,9.069Zm-7.976,0a1,1,0,1,1,1,1.007A1,1,0,0,1,63.8,9.069Zm-7.975,0a1,1,0,1,1,1,1.007A1,1,0,0,1,55.828,9.069Zm-7.976,0a1,1,0,1,1,1,1.007A1,1,0,0,1,47.852,9.069Zm-7.975,0a1,1,0,1,1,1,1.007A1,1,0,0,1,39.877,9.069Zm-7.976,0a1,1,0,1,1,1,1.007A1,1,0,0,1,31.9,9.069Zm-7.975,0a1,1,0,1,1,1,1.007A1,1,0,0,1,23.926,9.069Zm-7.976,0a1,1,0,1,1,1,1.007A1,1,0,0,1,15.951,9.069Zm-7.975,0a1,1,0,1,1,1,1.007A1,1,0,0,1,7.976,9.069ZM0,9.069A1,1,0,0,1,1,8.062a1.007,1.007,0,0,1,0,2.015A1,1,0,0,1,0,9.069ZM247.237,1.007a1,1,0,1,1,1.994,0,1,1,0,1,1-1.994,0Zm-7.975,0a1,1,0,1,1,1.994,0,1,1,0,1,1-1.994,0Zm-7.976,0a1,1,0,1,1,1.994,0,1,1,0,1,1-1.994,0Zm-7.975,0a1,1,0,1,1,1.993,0,1,1,0,1,1-1.993,0Zm-7.976,0a1,1,0,1,1,1.994,0,1,1,0,1,1-1.994,0Zm-7.976,0a1,1,0,1,1,1.994,0,1,1,0,1,1-1.994,0Zm-7.975,0a1,1,0,1,1,1.994,0,1,1,0,1,1-1.994,0Zm-7.976,0a1,1,0,1,1,1.994,0,1,1,0,1,1-1.994,0Zm-7.975,0a1,1,0,1,1,1.994,0,1,1,0,1,1-1.994,0Zm-7.976,0a1,1,0,1,1,1.994,0,1,1,0,1,1-1.994,0Zm-7.975,0a1,1,0,1,1,1.993,0,1,1,0,1,1-1.993,0Zm-7.976,0a1,1,0,1,1,1.994,0,1,1,0,1,1-1.994,0Zm-7.975,0a1,1,0,1,1,1.993,0,1,1,0,1,1-1.993,0Zm-7.976,0a1,1,0,1,1,1.994,0,1,1,0,1,1-1.994,0Zm-7.976,0a1,1,0,1,1,1.994,0,1,1,0,1,1-1.994,0Zm-7.975,0a1,1,0,1,1,1.994,0,1,1,0,1,1-1.994,0Zm-7.976,0a1,1,0,1,1,1.994,0,1,1,0,1,1-1.994,0Zm-7.975,0a1,1,0,1,1,1.994,0,1,1,0,1,1-1.994,0Zm-7.976,0a1,1,0,1,1,1.994,0,1,1,0,1,1-1.994,0Zm-7.975,0a1,1,0,1,1,1.994,0,1,1,0,1,1-1.994,0Zm-7.976,0a1,1,0,1,1,1.994,0,1,1,0,1,1-1.994,0Zm-7.975,0a1,1,0,1,1,1.993,0,1,1,0,1,1-1.993,0Zm-7.976,0a1,1,0,1,1,1.994,0,1,1,0,1,1-1.994,0Zm-7.976,0a1,1,0,1,1,1.994,0,1,1,0,1,1-1.994,0Zm-7.975,0a1,1,0,1,1,1.994,0,1,1,0,1,1-1.994,0Zm-7.976,0a1,1,0,1,1,1.994,0,1,1,0,1,1-1.994,0Zm-7.975,0a1,1,0,1,1,1.994,0,1,1,0,1,1-1.994,0Zm-7.976,0a1,1,0,1,1,1.994,0,1,1,0,1,1-1.994,0Zm-7.975,0a1,1,0,1,1,1.994,0,1,1,0,1,1-1.994,0Zm-7.976,0a1,1,0,1,1,1.994,0,1,1,0,1,1-1.994,0Zm-7.975,0a1,1,0,1,1,1.993,0,1,1,0,1,1-1.993,0ZM0,1.007A1,1,0,0,1,1,0a1,1,0,0,1,1,1.007A1,1,0,0,1,1,2.015,1,1,0,0,1,0,1.007Z" transform="translate(249.231 251.92) rotate(180)"/></g></g><circle class="a" cx="125" cy="125" r="125" transform="translate(798 3393)"/><g transform="translate(875.078 3451.925)"><path class="c" d="M23.149,6A2.6,2.6,0,0,0,20.8,8.6V22.339a2.6,2.6,0,0,0,2.595,2.595H48.284a2.6,2.6,0,0,0,2.595-2.595V8.6A2.6,2.6,0,0,0,48.284,6H23.392C23.311,6,23.229,6,23.149,6Zm2.837,5.189h19.7v8.554h-19.7ZM23.878,30.731A11.838,11.838,0,0,0,12,42.487V107.15a11.838,11.838,0,0,0,11.878,11.756H38.19a2.595,2.595,0,1,0,.073-5.189H23.878a6.548,6.548,0,0,1-6.689-6.567V42.487a6.548,6.548,0,0,1,6.689-6.567H47.8a6.548,6.548,0,0,1,6.689,6.567V63.893c-8.235,3.191-13.906,11.8-13.906,21.852,0,7.854,3.459,16.232,8.636,22.825S61.4,120.164,69.081,120.164a10.6,10.6,0,0,0,6.487-2.311,10.5,10.5,0,0,0,6.487,2.311c7.68,0,14.728-5,19.906-11.594S110.6,93.6,110.6,85.745c0-12.73-9.123-23.189-21-23.189a26.235,26.235,0,0,0-11.231,2.8c.153-1.146.381-2.331.649-3.486,6.036-.083,10.494-1.6,13.257-4.744,2.842-3.23,3.608-7.576,3.608-12.365a2.594,2.594,0,0,0-2.595-2.595c-6.89,0-12.214,3.927-15.486,9a29.069,29.069,0,0,0-2.919,5.959,20.344,20.344,0,0,0-6.811-7.3,2.584,2.584,0,1,0-2.676,4.42,16.336,16.336,0,0,1,5.393,6.121,19.737,19.737,0,0,1,1.784,4.906,25.843,25.843,0,0,0-10.987-2.717c-.647,0-1.277.061-1.906.122V42.487A11.838,11.838,0,0,0,47.8,30.731ZM90.365,47.758c-.3,2.536-.847,4.664-1.986,5.959-1.264,1.437-3.722,2.307-7.3,2.676a22.642,22.642,0,0,1,1.055-2.432A13.37,13.37,0,0,1,90.365,47.758ZM61.582,67.745c4.576,0,8.291,1.683,12.811,4.054a2.6,2.6,0,0,0,2.392,0c4.519-2.371,8.234-4.054,12.811-4.054,8.839,0,15.81,7.684,15.81,18,0,6.272-3.007,13.85-7.54,19.622s-10.48,9.608-15.812,9.608a4.81,4.81,0,0,1-4.338-2.31,2.594,2.594,0,0,0-4.3,0,4.81,4.81,0,0,1-4.338,2.31c-5.332,0-11.237-3.837-15.77-9.608S45.77,92.017,45.77,85.745C45.77,75.429,52.743,67.745,61.582,67.745Z" transform="translate(-8.648 0.884)"/></g></g></svg>