<?xml version="1.0" encoding="utf-8"?>
<!-- Generator: Adobe Illustrator 24.0.3, SVG Export Plug-In . SVG Version: 6.00 Build 0)  -->
<svg version="1.1" id="Layer_1" xmlns="http://www.w3.org/2000/svg" xmlns:xlink="http://www.w3.org/1999/xlink" x="0px" y="0px"
	 viewBox="0 0 169 169" style="enable-background:new 0 0 169 169;" xml:space="preserve">
<style type="text/css">
	.st0{fill:#9B26B6;}
</style>
<g>
	<path class="st0" d="M5.6,3C4.7,3,4,3.7,4,4.6c0,0.9,0.7,1.6,1.6,1.6c0.9,0,1.6-0.7,1.6-1.6h0c0,0,0,0,0,0C7.2,3.7,6.5,3,5.6,3z"/>
	<path class="st0" d="M18.6,3C17.7,3,17,3.7,17,4.6c0,0.9,0.7,1.6,1.6,1.6c0.9,0,1.6-0.7,1.6-1.6h0c0,0,0,0,0,0
		C20.2,3.7,19.5,3,18.6,3z"/>
	<path class="st0" d="M31.6,3C30.7,3,30,3.7,30,4.6c0,0.9,0.7,1.6,1.6,1.6c0.9,0,1.6-0.7,1.6-1.6h0c0,0,0,0,0,0
		C33.2,3.7,32.5,3,31.6,3z"/>
	<path class="st0" d="M44.6,3C43.7,3,43,3.7,43,4.6c0,0.9,0.7,1.6,1.6,1.6c0.9,0,1.6-0.7,1.6-1.6h0c0,0,0,0,0,0
		C46.2,3.7,45.5,3,44.6,3z"/>
	<path class="st0" d="M57.6,3C56.7,3,56,3.7,56,4.6c0,0.9,0.7,1.6,1.6,1.6c0.9,0,1.6-0.7,1.6-1.6h0c0,0,0,0,0,0
		C59.2,3.7,58.5,3,57.6,3z"/>
	<path class="st0" d="M70.6,3C69.7,3,69,3.7,69,4.6c0,0.9,0.7,1.6,1.6,1.6c0.9,0,1.6-0.7,1.6-1.6h0c0,0,0,0,0,0
		C72.2,3.7,71.5,3,70.6,3z"/>
	<path class="st0" d="M83.6,3c-0.9,0-1.6,0.7-1.6,1.6c0,0.9,0.7,1.6,1.6,1.6c0.9,0,1.6-0.7,1.6-1.6h0c0,0,0,0,0,0
		C85.2,3.7,84.5,3,83.6,3z"/>
	<path class="st0" d="M96.6,3c-0.9,0-1.6,0.7-1.6,1.6c0,0.9,0.7,1.6,1.6,1.6c0.9,0,1.6-0.7,1.6-1.6h0c0,0,0,0,0,0
		C98.2,3.7,97.5,3,96.6,3z"/>
	<path class="st0" d="M109.6,3c-0.9,0-1.6,0.7-1.6,1.6c0,0.9,0.7,1.6,1.6,1.6c0.9,0,1.6-0.7,1.6-1.6h0c0,0,0,0,0,0
		C111.2,3.7,110.4,3,109.6,3z"/>
	<path class="st0" d="M122.5,3c-0.9,0-1.6,0.7-1.6,1.6c0,0.9,0.7,1.6,1.6,1.6c0.9,0,1.6-0.7,1.6-1.6h0c0,0,0,0,0,0
		C124.2,3.7,123.4,3,122.5,3z"/>
	<path class="st0" d="M135.5,3c-0.9,0-1.6,0.7-1.6,1.6c0,0.9,0.7,1.6,1.6,1.6c0.9,0,1.6-0.7,1.6-1.6h0c0,0,0,0,0,0
		C137.2,3.7,136.4,3,135.5,3z"/>
	<path class="st0" d="M148.5,3c-0.9,0-1.6,0.7-1.6,1.6c0,0.9,0.7,1.6,1.6,1.6c0.9,0,1.6-0.7,1.6-1.6h0c0,0,0,0,0,0
		C150.2,3.7,149.4,3,148.5,3z"/>
	<path class="st0" d="M161.5,3c-0.9,0-1.6,0.7-1.6,1.6c0,0.9,0.7,1.6,1.6,1.6c0.9,0,1.6-0.7,1.6-1.6h0c0,0,0,0,0,0
		C163.1,3.7,162.4,3,161.5,3z"/>
	<path class="st0" d="M5.6,16C4.7,16,4,16.7,4,17.6c0,0.9,0.7,1.6,1.6,1.6s1.6-0.7,1.6-1.6h0c0,0,0,0,0,0C7.2,16.7,6.5,16,5.6,16z"
		/>
	<path class="st0" d="M18.6,16c-0.9,0-1.6,0.7-1.6,1.6c0,0.9,0.7,1.6,1.6,1.6s1.6-0.7,1.6-1.6h0c0,0,0,0,0,0
		C20.2,16.7,19.5,16,18.6,16z"/>
	<path class="st0" d="M31.6,16c-0.9,0-1.6,0.7-1.6,1.6c0,0.9,0.7,1.6,1.6,1.6s1.6-0.7,1.6-1.6h0c0,0,0,0,0,0
		C33.2,16.7,32.5,16,31.6,16z"/>
	<path class="st0" d="M44.6,16c-0.9,0-1.6,0.7-1.6,1.6c0,0.9,0.7,1.6,1.6,1.6s1.6-0.7,1.6-1.6h0c0,0,0,0,0,0
		C46.2,16.7,45.5,16,44.6,16z"/>
	<path class="st0" d="M57.6,16c-0.9,0-1.6,0.7-1.6,1.6c0,0.9,0.7,1.6,1.6,1.6s1.6-0.7,1.6-1.6h0c0,0,0,0,0,0
		C59.2,16.7,58.5,16,57.6,16z"/>
	<path class="st0" d="M70.6,16c-0.9,0-1.6,0.7-1.6,1.6c0,0.9,0.7,1.6,1.6,1.6s1.6-0.7,1.6-1.6h0c0,0,0,0,0,0
		C72.2,16.7,71.5,16,70.6,16z"/>
	<path class="st0" d="M83.6,16c-0.9,0-1.6,0.7-1.6,1.6c0,0.9,0.7,1.6,1.6,1.6s1.6-0.7,1.6-1.6h0c0,0,0,0,0,0
		C85.2,16.7,84.5,16,83.6,16z"/>
	<path class="st0" d="M96.6,16c-0.9,0-1.6,0.7-1.6,1.6c0,0.9,0.7,1.6,1.6,1.6s1.6-0.7,1.6-1.6h0c0,0,0,0,0,0
		C98.2,16.7,97.5,16,96.6,16z"/>
	<path class="st0" d="M109.6,16c-0.9,0-1.6,0.7-1.6,1.6c0,0.9,0.7,1.6,1.6,1.6s1.6-0.7,1.6-1.6h0c0,0,0,0,0,0
		C111.2,16.7,110.4,16,109.6,16z"/>
	<path class="st0" d="M122.5,16c-0.9,0-1.6,0.7-1.6,1.6c0,0.9,0.7,1.6,1.6,1.6s1.6-0.7,1.6-1.6h0c0,0,0,0,0,0
		C124.2,16.7,123.4,16,122.5,16z"/>
	<path class="st0" d="M135.5,16c-0.9,0-1.6,0.7-1.6,1.6c0,0.9,0.7,1.6,1.6,1.6s1.6-0.7,1.6-1.6h0c0,0,0,0,0,0
		C137.2,16.7,136.4,16,135.5,16z"/>
	<path class="st0" d="M148.5,16L148.5,16c-0.9,0-1.6,0.7-1.6,1.6c0,0.9,0.7,1.6,1.6,1.6s1.6-0.7,1.6-1.6h0c0,0,0,0,0,0
		C150.2,16.7,149.4,16,148.5,16z"/>
	<path class="st0" d="M161.5,16L161.5,16c-0.9,0-1.6,0.7-1.6,1.6c0,0.9,0.7,1.6,1.6,1.6s1.6-0.7,1.6-1.6h0c0,0,0,0,0,0
		C163.1,16.7,162.4,16,161.5,16z"/>
	<path class="st0" d="M5.6,29C4.7,29,4,29.7,4,30.6c0,0.9,0.7,1.6,1.6,1.6s1.6-0.7,1.6-1.6h0c0,0,0,0,0,0C7.2,29.7,6.5,29,5.6,29z"
		/>
	<path class="st0" d="M18.6,29c-0.9,0-1.6,0.7-1.6,1.6c0,0.9,0.7,1.6,1.6,1.6s1.6-0.7,1.6-1.6h0c0,0,0,0,0,0
		C20.2,29.7,19.5,29,18.6,29z"/>
	<path class="st0" d="M31.6,29c-0.9,0-1.6,0.7-1.6,1.6c0,0.9,0.7,1.6,1.6,1.6s1.6-0.7,1.6-1.6h0c0,0,0,0,0,0
		C33.2,29.7,32.5,29,31.6,29z"/>
	<path class="st0" d="M44.6,29c-0.9,0-1.6,0.7-1.6,1.6c0,0.9,0.7,1.6,1.6,1.6s1.6-0.7,1.6-1.6h0c0,0,0,0,0,0
		C46.2,29.7,45.5,29,44.6,29z"/>
	<path class="st0" d="M57.6,29c-0.9,0-1.6,0.7-1.6,1.6c0,0.9,0.7,1.6,1.6,1.6s1.6-0.7,1.6-1.6h0c0,0,0,0,0,0
		C59.2,29.7,58.5,29,57.6,29z"/>
	<path class="st0" d="M70.6,29c-0.9,0-1.6,0.7-1.6,1.6c0,0.9,0.7,1.6,1.6,1.6s1.6-0.7,1.6-1.6h0c0,0,0,0,0,0
		C72.2,29.7,71.5,29,70.6,29z"/>
	<path class="st0" d="M83.6,29c-0.9,0-1.6,0.7-1.6,1.6c0,0.9,0.7,1.6,1.6,1.6s1.6-0.7,1.6-1.6h0c0,0,0,0,0,0
		C85.2,29.7,84.5,29,83.6,29z"/>
	<path class="st0" d="M96.6,29c-0.9,0-1.6,0.7-1.6,1.6c0,0.9,0.7,1.6,1.6,1.6s1.6-0.7,1.6-1.6h0c0,0,0,0,0,0
		C98.2,29.7,97.5,29,96.6,29z"/>
	<path class="st0" d="M109.6,29c-0.9,0-1.6,0.7-1.6,1.6c0,0.9,0.7,1.6,1.6,1.6s1.6-0.7,1.6-1.6h0c0,0,0,0,0,0
		C111.2,29.7,110.4,29,109.6,29z"/>
	<path class="st0" d="M122.5,29c-0.9,0-1.6,0.7-1.6,1.6c0,0.9,0.7,1.6,1.6,1.6s1.6-0.7,1.6-1.6h0c0,0,0,0,0,0
		C124.2,29.7,123.4,29,122.5,29z"/>
	<path class="st0" d="M135.5,29c-0.9,0-1.6,0.7-1.6,1.6c0,0.9,0.7,1.6,1.6,1.6s1.6-0.7,1.6-1.6h0c0,0,0,0,0,0
		C137.2,29.7,136.4,29,135.5,29z"/>
	<path class="st0" d="M148.5,29L148.5,29c-0.9,0-1.6,0.7-1.6,1.6c0,0.9,0.7,1.6,1.6,1.6s1.6-0.7,1.6-1.6h0c0,0,0,0,0,0
		C150.2,29.7,149.4,29,148.5,29z"/>
	<path class="st0" d="M161.5,29L161.5,29c-0.9,0-1.6,0.7-1.6,1.6c0,0.9,0.7,1.6,1.6,1.6s1.6-0.7,1.6-1.6h0c0,0,0,0,0,0
		C163.1,29.7,162.4,29,161.5,29z"/>
	<path class="st0" d="M5.6,42C4.7,42,4,42.7,4,43.6c0,0.9,0.7,1.6,1.6,1.6s1.6-0.7,1.6-1.6h0c0,0,0,0,0,0C7.2,42.7,6.5,42,5.6,42z"
		/>
	<path class="st0" d="M18.6,42c-0.9,0-1.6,0.7-1.6,1.6c0,0.9,0.7,1.6,1.6,1.6s1.6-0.7,1.6-1.6h0c0,0,0,0,0,0
		C20.2,42.7,19.5,42,18.6,42z"/>
	<path class="st0" d="M31.6,42c-0.9,0-1.6,0.7-1.6,1.6c0,0.9,0.7,1.6,1.6,1.6s1.6-0.7,1.6-1.6h0c0,0,0,0,0,0
		C33.2,42.7,32.5,42,31.6,42z"/>
	<path class="st0" d="M44.6,42c-0.9,0-1.6,0.7-1.6,1.6c0,0.9,0.7,1.6,1.6,1.6s1.6-0.7,1.6-1.6h0c0,0,0,0,0,0
		C46.2,42.7,45.5,42,44.6,42z"/>
	<path class="st0" d="M57.6,42c-0.9,0-1.6,0.7-1.6,1.6c0,0.9,0.7,1.6,1.6,1.6s1.6-0.7,1.6-1.6h0c0,0,0,0,0,0
		C59.2,42.7,58.5,42,57.6,42z"/>
	<path class="st0" d="M70.6,42c-0.9,0-1.6,0.7-1.6,1.6c0,0.9,0.7,1.6,1.6,1.6s1.6-0.7,1.6-1.6h0c0,0,0,0,0,0
		C72.2,42.7,71.5,42,70.6,42z"/>
	<path class="st0" d="M83.6,42c-0.9,0-1.6,0.7-1.6,1.6c0,0.9,0.7,1.6,1.6,1.6s1.6-0.7,1.6-1.6h0c0,0,0,0,0,0
		C85.2,42.7,84.5,42,83.6,42z"/>
	<path class="st0" d="M96.6,42c-0.9,0-1.6,0.7-1.6,1.6c0,0.9,0.7,1.6,1.6,1.6s1.6-0.7,1.6-1.6h0c0,0,0,0,0,0
		C98.2,42.7,97.5,42,96.6,42z"/>
	<path class="st0" d="M109.6,42c-0.9,0-1.6,0.7-1.6,1.6c0,0.9,0.7,1.6,1.6,1.6s1.6-0.7,1.6-1.6h0c0,0,0,0,0,0
		C111.2,42.7,110.4,42,109.6,42z"/>
	<path class="st0" d="M122.5,42c-0.9,0-1.6,0.7-1.6,1.6c0,0.9,0.7,1.6,1.6,1.6s1.6-0.7,1.6-1.6h0c0,0,0,0,0,0
		C124.2,42.7,123.4,42,122.5,42z"/>
	<path class="st0" d="M135.5,42c-0.9,0-1.6,0.7-1.6,1.6c0,0.9,0.7,1.6,1.6,1.6s1.6-0.7,1.6-1.6h0c0,0,0,0,0,0
		C137.2,42.7,136.4,42,135.5,42z"/>
	<path class="st0" d="M148.5,42L148.5,42c-0.9,0-1.6,0.7-1.6,1.6c0,0.9,0.7,1.6,1.6,1.6s1.6-0.7,1.6-1.6h0c0,0,0,0,0,0
		C150.2,42.7,149.4,42,148.5,42z"/>
	<path class="st0" d="M161.5,42L161.5,42c-0.9,0-1.6,0.7-1.6,1.6c0,0.9,0.7,1.6,1.6,1.6s1.6-0.7,1.6-1.6h0c0,0,0,0,0,0
		C163.1,42.7,162.4,42,161.5,42z"/>
	<path class="st0" d="M5.6,55C4.7,55,4,55.7,4,56.6c0,0.9,0.7,1.6,1.6,1.6s1.6-0.7,1.6-1.6h0c0,0,0,0,0,0C7.2,55.7,6.5,55,5.6,55z"
		/>
	<path class="st0" d="M18.6,55c-0.9,0-1.6,0.7-1.6,1.6c0,0.9,0.7,1.6,1.6,1.6s1.6-0.7,1.6-1.6h0c0,0,0,0,0,0
		C20.2,55.7,19.5,55,18.6,55z"/>
	<path class="st0" d="M31.6,55c-0.9,0-1.6,0.7-1.6,1.6c0,0.9,0.7,1.6,1.6,1.6s1.6-0.7,1.6-1.6h0c0,0,0,0,0,0
		C33.2,55.7,32.5,55,31.6,55z"/>
	<path class="st0" d="M44.6,55c-0.9,0-1.6,0.7-1.6,1.6c0,0.9,0.7,1.6,1.6,1.6s1.6-0.7,1.6-1.6h0c0,0,0,0,0,0
		C46.2,55.7,45.5,55,44.6,55z"/>
	<path class="st0" d="M57.6,55c-0.9,0-1.6,0.7-1.6,1.6c0,0.9,0.7,1.6,1.6,1.6s1.6-0.7,1.6-1.6h0c0,0,0,0,0,0
		C59.2,55.7,58.5,55,57.6,55z"/>
	<path class="st0" d="M70.6,55c-0.9,0-1.6,0.7-1.6,1.6c0,0.9,0.7,1.6,1.6,1.6s1.6-0.7,1.6-1.6h0c0,0,0,0,0,0
		C72.2,55.7,71.5,55,70.6,55z"/>
	<path class="st0" d="M83.6,55c-0.9,0-1.6,0.7-1.6,1.6c0,0.9,0.7,1.6,1.6,1.6s1.6-0.7,1.6-1.6h0c0,0,0,0,0,0
		C85.2,55.7,84.5,55,83.6,55z"/>
	<path class="st0" d="M96.6,55c-0.9,0-1.6,0.7-1.6,1.6c0,0.9,0.7,1.6,1.6,1.6s1.6-0.7,1.6-1.6h0c0,0,0,0,0,0
		C98.2,55.7,97.5,55,96.6,55z"/>
	<path class="st0" d="M109.6,55c-0.9,0-1.6,0.7-1.6,1.6c0,0.9,0.7,1.6,1.6,1.6s1.6-0.7,1.6-1.6h0c0,0,0,0,0,0
		C111.2,55.7,110.4,55,109.6,55z"/>
	<path class="st0" d="M122.5,55c-0.9,0-1.6,0.7-1.6,1.6c0,0.9,0.7,1.6,1.6,1.6s1.6-0.7,1.6-1.6h0c0,0,0,0,0,0
		C124.2,55.7,123.4,55,122.5,55z"/>
	<path class="st0" d="M135.5,55c-0.9,0-1.6,0.7-1.6,1.6c0,0.9,0.7,1.6,1.6,1.6s1.6-0.7,1.6-1.6h0c0,0,0,0,0,0
		C137.2,55.7,136.4,55,135.5,55z"/>
	<path class="st0" d="M148.5,55L148.5,55c-0.9,0-1.6,0.7-1.6,1.6c0,0.9,0.7,1.6,1.6,1.6s1.6-0.7,1.6-1.6h0c0,0,0,0,0,0
		C150.2,55.7,149.4,55,148.5,55z"/>
	<path class="st0" d="M161.5,55L161.5,55c-0.9,0-1.6,0.7-1.6,1.6c0,0.9,0.7,1.6,1.6,1.6s1.6-0.7,1.6-1.6h0c0,0,0,0,0,0
		C163.1,55.7,162.4,55,161.5,55z"/>
	<path class="st0" d="M5.6,68C4.7,68,4,68.7,4,69.6c0,0.9,0.7,1.6,1.6,1.6c0.9,0,1.6-0.7,1.6-1.6h0c0,0,0,0,0,0
		C7.2,68.7,6.5,68,5.6,68z"/>
	<path class="st0" d="M18.6,68c-0.9,0-1.6,0.7-1.6,1.6c0,0.9,0.7,1.6,1.6,1.6c0.9,0,1.6-0.7,1.6-1.6h0c0,0,0,0,0,0
		C20.2,68.7,19.5,68,18.6,68z"/>
	<path class="st0" d="M31.6,68c-0.9,0-1.6,0.7-1.6,1.6c0,0.9,0.7,1.6,1.6,1.6c0.9,0,1.6-0.7,1.6-1.6h0c0,0,0,0,0,0
		C33.2,68.7,32.5,67.9,31.6,68z"/>
	<path class="st0" d="M44.6,68c-0.9,0-1.6,0.7-1.6,1.6c0,0.9,0.7,1.6,1.6,1.6c0.9,0,1.6-0.7,1.6-1.6h0c0,0,0,0,0,0
		C46.2,68.7,45.5,68,44.6,68z"/>
	<path class="st0" d="M57.6,68c-0.9,0-1.6,0.7-1.6,1.6c0,0.9,0.7,1.6,1.6,1.6c0.9,0,1.6-0.7,1.6-1.6h0c0,0,0,0,0,0
		C59.2,68.7,58.5,67.9,57.6,68z"/>
	<path class="st0" d="M70.6,68c-0.9,0-1.6,0.7-1.6,1.6c0,0.9,0.7,1.6,1.6,1.6c0.9,0,1.6-0.7,1.6-1.6h0c0,0,0,0,0,0
		C72.2,68.7,71.5,67.9,70.6,68z"/>
	<path class="st0" d="M83.6,68c-0.9,0-1.6,0.7-1.6,1.6c0,0.9,0.7,1.6,1.6,1.6c0.9,0,1.6-0.7,1.6-1.6h0c0,0,0,0,0,0
		C85.2,68.7,84.5,67.9,83.6,68z"/>
	<path class="st0" d="M96.6,68c-0.9,0-1.6,0.7-1.6,1.6c0,0.9,0.7,1.6,1.6,1.6c0.9,0,1.6-0.7,1.6-1.6h0c0,0,0,0,0,0
		C98.2,68.7,97.5,67.9,96.6,68z"/>
	<path class="st0" d="M109.6,68c-0.9,0-1.6,0.7-1.6,1.6c0,0.9,0.7,1.6,1.6,1.6c0.9,0,1.6-0.7,1.6-1.6h0c0,0,0,0,0,0
		C111.2,68.7,110.4,67.9,109.6,68z"/>
	<path class="st0" d="M122.5,68c-0.9,0-1.6,0.7-1.6,1.6c0,0.9,0.7,1.6,1.6,1.6c0.9,0,1.6-0.7,1.6-1.6h0c0,0,0,0,0,0
		C124.2,68.7,123.4,67.9,122.5,68z"/>
	<path class="st0" d="M135.5,68c-0.9,0-1.6,0.7-1.6,1.6c0,0.9,0.7,1.6,1.6,1.6c0.9,0,1.6-0.7,1.6-1.6h0c0,0,0,0,0,0
		C137.2,68.7,136.4,67.9,135.5,68z"/>
	<path class="st0" d="M148.5,68c-0.9,0-1.6,0.7-1.6,1.6c0,0.9,0.7,1.6,1.6,1.6c0.9,0,1.6-0.7,1.6-1.6h0c0,0,0,0,0,0
		C150.2,68.7,149.4,67.9,148.5,68z"/>
	<path class="st0" d="M161.5,68c-0.9,0-1.6,0.7-1.6,1.6c0,0.9,0.7,1.6,1.6,1.6c0.9,0,1.6-0.7,1.6-1.6h0c0,0,0,0,0,0
		C163.1,68.7,162.4,67.9,161.5,68z"/>
	<path class="st0" d="M5.6,80.9c-0.9,0-1.6,0.7-1.6,1.6c0,0.9,0.7,1.6,1.6,1.6s1.6-0.7,1.6-1.6l0,0c0,0,0,0,0,0
		C7.2,81.7,6.5,80.9,5.6,80.9z"/>
	<path class="st0" d="M18.6,80.9c-0.9,0-1.6,0.7-1.6,1.6c0,0.9,0.7,1.6,1.6,1.6s1.6-0.7,1.6-1.6l0,0c0,0,0,0,0,0
		C20.2,81.7,19.5,80.9,18.6,80.9z"/>
	<path class="st0" d="M31.6,80.9c-0.9,0-1.6,0.7-1.6,1.6c0,0.9,0.7,1.6,1.6,1.6s1.6-0.7,1.6-1.6l0,0c0,0,0,0,0,0
		C33.2,81.7,32.5,80.9,31.6,80.9z"/>
	<path class="st0" d="M44.6,80.9c-0.9,0-1.6,0.7-1.6,1.6c0,0.9,0.7,1.6,1.6,1.6s1.6-0.7,1.6-1.6l0,0c0,0,0,0,0,0
		C46.2,81.7,45.5,80.9,44.6,80.9z"/>
	<path class="st0" d="M57.6,80.9c-0.9,0-1.6,0.7-1.6,1.6c0,0.9,0.7,1.6,1.6,1.6s1.6-0.7,1.6-1.6l0,0c0,0,0,0,0,0
		C59.2,81.7,58.5,80.9,57.6,80.9z"/>
	<path class="st0" d="M70.6,80.9c-0.9,0-1.6,0.7-1.6,1.6c0,0.9,0.7,1.6,1.6,1.6s1.6-0.7,1.6-1.6l0,0c0,0,0,0,0,0
		C72.2,81.7,71.5,80.9,70.6,80.9z"/>
	<path class="st0" d="M83.6,80.9c-0.9,0-1.6,0.7-1.6,1.6c0,0.9,0.7,1.6,1.6,1.6s1.6-0.7,1.6-1.6l0,0c0,0,0,0,0,0
		C85.2,81.7,84.5,80.9,83.6,80.9z"/>
	<path class="st0" d="M96.6,80.9c-0.9,0-1.6,0.7-1.6,1.6c0,0.9,0.7,1.6,1.6,1.6s1.6-0.7,1.6-1.6l0,0c0,0,0,0,0,0
		C98.2,81.7,97.5,80.9,96.6,80.9z"/>
	<path class="st0" d="M109.6,80.9c-0.9,0-1.6,0.7-1.6,1.6c0,0.9,0.7,1.6,1.6,1.6s1.6-0.7,1.6-1.6l0,0c0,0,0,0,0,0
		C111.2,81.7,110.4,80.9,109.6,80.9z"/>
	<path class="st0" d="M122.5,80.9c-0.9,0-1.6,0.7-1.6,1.6c0,0.9,0.7,1.6,1.6,1.6s1.6-0.7,1.6-1.6l0,0c0,0,0,0,0,0
		C124.2,81.7,123.4,80.9,122.5,80.9z"/>
	<path class="st0" d="M135.5,80.9c-0.9,0-1.6,0.7-1.6,1.6c0,0.9,0.7,1.6,1.6,1.6s1.6-0.7,1.6-1.6l0,0c0,0,0,0,0,0
		C137.2,81.7,136.4,80.9,135.5,80.9z"/>
	<path class="st0" d="M148.5,80.9L148.5,80.9c-0.9,0-1.6,0.7-1.6,1.6c0,0.9,0.7,1.6,1.6,1.6s1.6-0.7,1.6-1.6l0,0c0,0,0,0,0,0
		C150.2,81.7,149.4,80.9,148.5,80.9z"/>
	<path class="st0" d="M161.5,80.9L161.5,80.9c-0.9,0-1.6,0.7-1.6,1.6c0,0.9,0.7,1.6,1.6,1.6s1.6-0.7,1.6-1.6l0,0c0,0,0,0,0,0
		C163.1,81.7,162.4,80.9,161.5,80.9z"/>
	<path class="st0" d="M5.6,93.9c-0.9,0-1.6,0.7-1.6,1.6c0,0.9,0.7,1.6,1.6,1.6c0.9,0,1.6-0.7,1.6-1.6h0c0,0,0,0,0,0
		C7.2,94.7,6.5,93.9,5.6,93.9z"/>
	<path class="st0" d="M18.6,93.9c-0.9,0-1.6,0.7-1.6,1.6c0,0.9,0.7,1.6,1.6,1.6c0.9,0,1.6-0.7,1.6-1.6h0c0,0,0,0,0,0
		C20.2,94.7,19.5,93.9,18.6,93.9z"/>
	<path class="st0" d="M31.6,93.9c-0.9,0-1.6,0.7-1.6,1.6c0,0.9,0.7,1.6,1.6,1.6c0.9,0,1.6-0.7,1.6-1.6h0c0,0,0,0,0,0
		C33.2,94.7,32.5,93.9,31.6,93.9z"/>
	<path class="st0" d="M44.6,93.9c-0.9,0-1.6,0.7-1.6,1.6c0,0.9,0.7,1.6,1.6,1.6c0.9,0,1.6-0.7,1.6-1.6h0c0,0,0,0,0,0
		C46.2,94.7,45.5,93.9,44.6,93.9z"/>
	<path class="st0" d="M57.6,93.9c-0.9,0-1.6,0.7-1.6,1.6c0,0.9,0.7,1.6,1.6,1.6c0.9,0,1.6-0.7,1.6-1.6h0c0,0,0,0,0,0
		C59.2,94.7,58.5,93.9,57.6,93.9z"/>
	<path class="st0" d="M70.6,93.9c-0.9,0-1.6,0.7-1.6,1.6s0.7,1.6,1.6,1.6c0.9,0,1.6-0.7,1.6-1.6h0c0,0,0,0,0,0
		C72.2,94.7,71.5,93.9,70.6,93.9z"/>
	<path class="st0" d="M83.6,93.9c-0.9,0-1.6,0.7-1.6,1.6c0,0.9,0.7,1.6,1.6,1.6c0.9,0,1.6-0.7,1.6-1.6h0c0,0,0,0,0,0
		C85.2,94.7,84.5,93.9,83.6,93.9z"/>
	<path class="st0" d="M96.6,93.9c-0.9,0-1.6,0.7-1.6,1.6s0.7,1.6,1.6,1.6c0.9,0,1.6-0.7,1.6-1.6h0c0,0,0,0,0,0
		C98.2,94.7,97.5,93.9,96.6,93.9z"/>
	<path class="st0" d="M109.6,93.9c-0.9,0-1.6,0.7-1.6,1.6s0.7,1.6,1.6,1.6c0.9,0,1.6-0.7,1.6-1.6h0c0,0,0,0,0,0
		C111.2,94.7,110.4,93.9,109.6,93.9z"/>
	<path class="st0" d="M122.5,93.9c-0.9,0-1.6,0.7-1.6,1.6s0.7,1.6,1.6,1.6c0.9,0,1.6-0.7,1.6-1.6h0c0,0,0,0,0,0
		C124.2,94.7,123.4,93.9,122.5,93.9z"/>
	<path class="st0" d="M135.5,93.9c-0.9,0-1.6,0.7-1.6,1.6c0,0.9,0.7,1.6,1.6,1.6c0.9,0,1.6-0.7,1.6-1.6h0c0,0,0,0,0,0
		C137.2,94.7,136.4,93.9,135.5,93.9z"/>
	<path class="st0" d="M148.5,93.9L148.5,93.9c-0.9,0-1.6,0.7-1.6,1.6s0.7,1.6,1.6,1.6c0.9,0,1.6-0.7,1.6-1.6h0c0,0,0,0,0,0
		C150.2,94.7,149.4,93.9,148.5,93.9z"/>
	<path class="st0" d="M161.5,93.9L161.5,93.9c-0.9,0-1.6,0.7-1.6,1.6s0.7,1.6,1.6,1.6c0.9,0,1.6-0.7,1.6-1.6h0c0,0,0,0,0,0
		C163.1,94.7,162.4,93.9,161.5,93.9z"/>
	<path class="st0" d="M5.6,106.9c-0.9,0-1.6,0.7-1.6,1.6c0,0.9,0.7,1.6,1.6,1.6c0.9,0,1.6-0.7,1.6-1.6h0c0,0,0,0,0,0
		C7.2,107.7,6.5,106.9,5.6,106.9z"/>
	<path class="st0" d="M18.6,106.9c-0.9,0-1.6,0.7-1.6,1.6c0,0.9,0.7,1.6,1.6,1.6c0.9,0,1.6-0.7,1.6-1.6h0c0,0,0,0,0,0
		C20.2,107.7,19.5,106.9,18.6,106.9z"/>
	<path class="st0" d="M31.6,106.9c-0.9,0-1.6,0.7-1.6,1.6c0,0.9,0.7,1.6,1.6,1.6c0.9,0,1.6-0.7,1.6-1.6h0c0,0,0,0,0,0
		C33.2,107.7,32.5,106.9,31.6,106.9z"/>
	<path class="st0" d="M44.6,106.9c-0.9,0-1.6,0.7-1.6,1.6c0,0.9,0.7,1.6,1.6,1.6c0.9,0,1.6-0.7,1.6-1.6h0c0,0,0,0,0,0
		C46.2,107.7,45.5,106.9,44.6,106.9z"/>
	<path class="st0" d="M57.6,106.9c-0.9,0-1.6,0.7-1.6,1.6c0,0.9,0.7,1.6,1.6,1.6c0.9,0,1.6-0.7,1.6-1.6h0c0,0,0,0,0,0
		C59.2,107.7,58.5,106.9,57.6,106.9z"/>
	<path class="st0" d="M70.6,106.9c-0.9,0-1.6,0.7-1.6,1.6s0.7,1.6,1.6,1.6c0.9,0,1.6-0.7,1.6-1.6h0c0,0,0,0,0,0
		C72.2,107.7,71.5,106.9,70.6,106.9z"/>
	<path class="st0" d="M83.6,106.9c-0.9,0-1.6,0.7-1.6,1.6c0,0.9,0.7,1.6,1.6,1.6c0.9,0,1.6-0.7,1.6-1.6h0c0,0,0,0,0,0
		C85.2,107.7,84.5,106.9,83.6,106.9z"/>
	<path class="st0" d="M96.6,106.9c-0.9,0-1.6,0.7-1.6,1.6s0.7,1.6,1.6,1.6c0.9,0,1.6-0.7,1.6-1.6h0c0,0,0,0,0,0
		C98.2,107.7,97.5,106.9,96.6,106.9z"/>
	<path class="st0" d="M109.6,106.9c-0.9,0-1.6,0.7-1.6,1.6s0.7,1.6,1.6,1.6c0.9,0,1.6-0.7,1.6-1.6h0c0,0,0,0,0,0
		C111.2,107.7,110.4,106.9,109.6,106.9z"/>
	<path class="st0" d="M122.5,106.9c-0.9,0-1.6,0.7-1.6,1.6s0.7,1.6,1.6,1.6c0.9,0,1.6-0.7,1.6-1.6h0c0,0,0,0,0,0
		C124.2,107.7,123.4,106.9,122.5,106.9z"/>
	<path class="st0" d="M135.5,106.9c-0.9,0-1.6,0.7-1.6,1.6c0,0.9,0.7,1.6,1.6,1.6c0.9,0,1.6-0.7,1.6-1.6h0c0,0,0,0,0,0
		C137.2,107.7,136.4,106.9,135.5,106.9z"/>
	<path class="st0" d="M148.5,106.9L148.5,106.9c-0.9,0-1.6,0.7-1.6,1.6s0.7,1.6,1.6,1.6c0.9,0,1.6-0.7,1.6-1.6h0c0,0,0,0,0,0
		C150.2,107.7,149.4,106.9,148.5,106.9z"/>
	<path class="st0" d="M161.5,106.9L161.5,106.9c-0.9,0-1.6,0.7-1.6,1.6s0.7,1.6,1.6,1.6c0.9,0,1.6-0.7,1.6-1.6h0c0,0,0,0,0,0
		C163.1,107.7,162.4,106.9,161.5,106.9z"/>
	<path class="st0" d="M5.6,119.9c-0.9,0-1.6,0.7-1.6,1.6c0,0.9,0.7,1.6,1.6,1.6c0.9,0,1.6-0.7,1.6-1.6h0c0,0,0,0,0,0
		C7.2,120.6,6.5,119.9,5.6,119.9z"/>
	<path class="st0" d="M18.6,119.9c-0.9,0-1.6,0.7-1.6,1.6c0,0.9,0.7,1.6,1.6,1.6c0.9,0,1.6-0.7,1.6-1.6h0c0,0,0,0,0,0
		C20.2,120.6,19.5,119.9,18.6,119.9z"/>
	<path class="st0" d="M31.6,119.9c-0.9,0-1.6,0.7-1.6,1.6c0,0.9,0.7,1.6,1.6,1.6c0.9,0,1.6-0.7,1.6-1.6h0c0,0,0,0,0,0
		C33.2,120.6,32.5,119.9,31.6,119.9z"/>
	<path class="st0" d="M44.6,119.9c-0.9,0-1.6,0.7-1.6,1.6c0,0.9,0.7,1.6,1.6,1.6c0.9,0,1.6-0.7,1.6-1.6h0c0,0,0,0,0,0
		C46.2,120.6,45.5,119.9,44.6,119.9z"/>
	<path class="st0" d="M57.6,119.9c-0.9,0-1.6,0.7-1.6,1.6c0,0.9,0.7,1.6,1.6,1.6c0.9,0,1.6-0.7,1.6-1.6h0c0,0,0,0,0,0
		C59.2,120.6,58.5,119.9,57.6,119.9z"/>
	<path class="st0" d="M70.6,119.9c-0.9,0-1.6,0.7-1.6,1.6s0.7,1.6,1.6,1.6c0.9,0,1.6-0.7,1.6-1.6h0c0,0,0,0,0,0
		C72.2,120.6,71.5,119.9,70.6,119.9z"/>
	<path class="st0" d="M83.6,119.9c-0.9,0-1.6,0.7-1.6,1.6c0,0.9,0.7,1.6,1.6,1.6c0.9,0,1.6-0.7,1.6-1.6h0c0,0,0,0,0,0
		C85.2,120.6,84.5,119.9,83.6,119.9z"/>
	<path class="st0" d="M96.6,119.9c-0.9,0-1.6,0.7-1.6,1.6s0.7,1.6,1.6,1.6c0.9,0,1.6-0.7,1.6-1.6h0c0,0,0,0,0,0
		C98.2,120.6,97.5,119.9,96.6,119.9z"/>
	<path class="st0" d="M109.6,119.9c-0.9,0-1.6,0.7-1.6,1.6s0.7,1.6,1.6,1.6c0.9,0,1.6-0.7,1.6-1.6h0c0,0,0,0,0,0
		C111.2,120.6,110.4,119.9,109.6,119.9z"/>
	<path class="st0" d="M122.5,119.9c-0.9,0-1.6,0.7-1.6,1.6s0.7,1.6,1.6,1.6c0.9,0,1.6-0.7,1.6-1.6h0c0,0,0,0,0,0
		C124.2,120.6,123.4,119.9,122.5,119.9z"/>
	<path class="st0" d="M135.5,119.9c-0.9,0-1.6,0.7-1.6,1.6c0,0.9,0.7,1.6,1.6,1.6c0.9,0,1.6-0.7,1.6-1.6h0c0,0,0,0,0,0
		C137.2,120.6,136.4,119.9,135.5,119.9z"/>
	<path class="st0" d="M148.5,119.9L148.5,119.9c-0.9,0-1.6,0.7-1.6,1.6s0.7,1.6,1.6,1.6c0.9,0,1.6-0.7,1.6-1.6h0c0,0,0,0,0,0
		C150.2,120.6,149.4,119.9,148.5,119.9z"/>
	<path class="st0" d="M161.5,119.9L161.5,119.9c-0.9,0-1.6,0.7-1.6,1.6s0.7,1.6,1.6,1.6c0.9,0,1.6-0.7,1.6-1.6h0c0,0,0,0,0,0
		C163.1,120.6,162.4,119.9,161.5,119.9z"/>
	<path class="st0" d="M5.6,132.9c-0.9,0-1.6,0.7-1.6,1.6c0,0.9,0.7,1.6,1.6,1.6s1.6-0.7,1.6-1.6l0,0c0,0,0,0,0,0
		C7.2,133.6,6.5,132.9,5.6,132.9z"/>
	<path class="st0" d="M18.6,132.9c-0.9,0-1.6,0.7-1.6,1.6c0,0.9,0.7,1.6,1.6,1.6s1.6-0.7,1.6-1.6l0,0c0,0,0,0,0,0
		C20.2,133.6,19.5,132.9,18.6,132.9z"/>
	<path class="st0" d="M31.6,132.9c-0.9,0-1.6,0.7-1.6,1.6c0,0.9,0.7,1.6,1.6,1.6s1.6-0.7,1.6-1.6l0,0c0,0,0,0,0,0
		C33.2,133.6,32.5,132.9,31.6,132.9z"/>
	<path class="st0" d="M44.6,132.9c-0.9,0-1.6,0.7-1.6,1.6c0,0.9,0.7,1.6,1.6,1.6s1.6-0.7,1.6-1.6l0,0c0,0,0,0,0,0
		C46.2,133.6,45.5,132.9,44.6,132.9z"/>
	<path class="st0" d="M57.6,132.9c-0.9,0-1.6,0.7-1.6,1.6c0,0.9,0.7,1.6,1.6,1.6s1.6-0.7,1.6-1.6l0,0c0,0,0,0,0,0
		C59.2,133.6,58.5,132.9,57.6,132.9z"/>
	<path class="st0" d="M70.6,132.9c-0.9,0-1.6,0.7-1.6,1.6c0,0.9,0.7,1.6,1.6,1.6s1.6-0.7,1.6-1.6l0,0c0,0,0,0,0,0
		C72.2,133.6,71.5,132.9,70.6,132.9z"/>
	<path class="st0" d="M83.6,132.9c-0.9,0-1.6,0.7-1.6,1.6c0,0.9,0.7,1.6,1.6,1.6s1.6-0.7,1.6-1.6l0,0c0,0,0,0,0,0
		C85.2,133.6,84.5,132.9,83.6,132.9z"/>
	<path class="st0" d="M96.6,132.9c-0.9,0-1.6,0.7-1.6,1.6c0,0.9,0.7,1.6,1.6,1.6s1.6-0.7,1.6-1.6l0,0c0,0,0,0,0,0
		C98.2,133.6,97.5,132.9,96.6,132.9z"/>
	<path class="st0" d="M109.6,132.9c-0.9,0-1.6,0.7-1.6,1.6c0,0.9,0.7,1.6,1.6,1.6s1.6-0.7,1.6-1.6l0,0c0,0,0,0,0,0
		C111.2,133.6,110.4,132.9,109.6,132.9z"/>
	<path class="st0" d="M122.5,132.9c-0.9,0-1.6,0.7-1.6,1.6c0,0.9,0.7,1.6,1.6,1.6s1.6-0.7,1.6-1.6l0,0c0,0,0,0,0,0
		C124.2,133.6,123.4,132.9,122.5,132.9z"/>
	<path class="st0" d="M135.5,132.9c-0.9,0-1.6,0.7-1.6,1.6c0,0.9,0.7,1.6,1.6,1.6s1.6-0.7,1.6-1.6l0,0c0,0,0,0,0,0
		C137.2,133.6,136.4,132.9,135.5,132.9z"/>
	<path class="st0" d="M148.5,132.9L148.5,132.9c-0.9,0-1.6,0.7-1.6,1.6c0,0.9,0.7,1.6,1.6,1.6s1.6-0.7,1.6-1.6l0,0c0,0,0,0,0,0
		C150.2,133.6,149.4,132.9,148.5,132.9z"/>
	<path class="st0" d="M161.5,132.9L161.5,132.9c-0.9,0-1.6,0.7-1.6,1.6c0,0.9,0.7,1.6,1.6,1.6s1.6-0.7,1.6-1.6l0,0c0,0,0,0,0,0
		C163.1,133.6,162.4,132.9,161.5,132.9z"/>
	<path class="st0" d="M5.6,145.9c-0.9,0-1.6,0.7-1.6,1.6c0,0.9,0.7,1.6,1.6,1.6s1.6-0.7,1.6-1.6h0c0,0,0,0,0,0
		C7.2,146.6,6.5,145.9,5.6,145.9z"/>
	<path class="st0" d="M18.6,145.9c-0.9,0-1.6,0.7-1.6,1.6c0,0.9,0.7,1.6,1.6,1.6s1.6-0.7,1.6-1.6h0c0,0,0,0,0,0
		C20.2,146.6,19.5,145.9,18.6,145.9z"/>
	<path class="st0" d="M31.6,145.9c-0.9,0-1.6,0.7-1.6,1.6c0,0.9,0.7,1.6,1.6,1.6c0.9,0,1.6-0.7,1.6-1.6h0c0,0,0,0,0,0
		C33.2,146.6,32.5,145.9,31.6,145.9z"/>
	<path class="st0" d="M44.6,145.9c-0.9,0-1.6,0.7-1.6,1.6c0,0.9,0.7,1.6,1.6,1.6s1.6-0.7,1.6-1.6h0c0,0,0,0,0,0
		C46.2,146.6,45.5,145.9,44.6,145.9z"/>
	<path class="st0" d="M57.6,145.9c-0.9,0-1.6,0.7-1.6,1.6c0,0.9,0.7,1.6,1.6,1.6s1.6-0.7,1.6-1.6h0c0,0,0,0,0,0
		C59.2,146.6,58.5,145.9,57.6,145.9z"/>
	<path class="st0" d="M70.6,145.9c-0.9,0-1.6,0.7-1.6,1.6s0.7,1.6,1.6,1.6s1.6-0.7,1.6-1.6h0c0,0,0,0,0,0
		C72.2,146.6,71.5,145.9,70.6,145.9z"/>
	<path class="st0" d="M83.6,145.9c-0.9,0-1.6,0.7-1.6,1.6c0,0.9,0.7,1.6,1.6,1.6s1.6-0.7,1.6-1.6h0c0,0,0,0,0,0
		C85.2,146.6,84.5,145.9,83.6,145.9z"/>
	<path class="st0" d="M96.6,145.9c-0.9,0-1.6,0.7-1.6,1.6s0.7,1.6,1.6,1.6s1.6-0.7,1.6-1.6h0c0,0,0,0,0,0
		C98.2,146.6,97.5,145.9,96.6,145.9z"/>
	<path class="st0" d="M109.6,145.9c-0.9,0-1.6,0.7-1.6,1.6s0.7,1.6,1.6,1.6s1.6-0.7,1.6-1.6h0c0,0,0,0,0,0
		C111.2,146.6,110.4,145.9,109.6,145.9z"/>
	<path class="st0" d="M122.5,145.9c-0.9,0-1.6,0.7-1.6,1.6s0.7,1.6,1.6,1.6s1.6-0.7,1.6-1.6h0c0,0,0,0,0,0
		C124.2,146.6,123.4,145.9,122.5,145.9z"/>
	<path class="st0" d="M135.5,145.9c-0.9,0-1.6,0.7-1.6,1.6c0,0.9,0.7,1.6,1.6,1.6s1.6-0.7,1.6-1.6h0c0,0,0,0,0,0
		C137.2,146.6,136.4,145.9,135.5,145.9z"/>
	<path class="st0" d="M148.5,145.9L148.5,145.9c-0.9,0-1.6,0.7-1.6,1.6s0.7,1.6,1.6,1.6s1.6-0.7,1.6-1.6h0c0,0,0,0,0,0
		C150.2,146.6,149.4,145.9,148.5,145.9z"/>
	<path class="st0" d="M161.5,145.9L161.5,145.9c-0.9,0-1.6,0.7-1.6,1.6s0.7,1.6,1.6,1.6s1.6-0.7,1.6-1.6h0c0,0,0,0,0,0
		C163.1,146.6,162.4,145.9,161.5,145.9z"/>
	<path class="st0" d="M5.6,158.9c-0.9,0-1.6,0.7-1.6,1.6c0,0.9,0.7,1.6,1.6,1.6s1.6-0.7,1.6-1.6h0c0,0,0,0,0,0
		C7.2,159.6,6.5,158.9,5.6,158.9z"/>
	<path class="st0" d="M18.6,158.9c-0.9,0-1.6,0.7-1.6,1.6c0,0.9,0.7,1.6,1.6,1.6s1.6-0.7,1.6-1.6h0c0,0,0,0,0,0
		C20.2,159.6,19.5,158.9,18.6,158.9z"/>
	<path class="st0" d="M31.6,158.9C31.6,158.9,31.6,158.9,31.6,158.9c-0.9,0-1.6,0.7-1.6,1.6s0.7,1.6,1.6,1.6c0.9,0,1.6-0.7,1.6-1.6
		h0C33.2,159.6,32.5,158.9,31.6,158.9z"/>
	<path class="st0" d="M44.6,158.9c-0.9,0-1.6,0.7-1.6,1.6c0,0.9,0.7,1.6,1.6,1.6s1.6-0.7,1.6-1.6h0c0,0,0,0,0,0
		C46.2,159.6,45.5,158.9,44.6,158.9z"/>
	<path class="st0" d="M57.6,158.9c-0.9,0-1.6,0.7-1.6,1.6c0,0.9,0.7,1.6,1.6,1.6s1.6-0.7,1.6-1.6h0c0,0,0,0,0,0
		C59.2,159.6,58.5,158.9,57.6,158.9z"/>
	<path class="st0" d="M70.6,158.9c-0.9,0-1.6,0.7-1.6,1.6c0,0.9,0.7,1.6,1.6,1.6s1.6-0.7,1.6-1.6h0c0,0,0,0,0,0
		C72.2,159.6,71.5,158.9,70.6,158.9z"/>
	<path class="st0" d="M83.6,158.9c-0.9,0-1.6,0.7-1.6,1.6c0,0.9,0.7,1.6,1.6,1.6s1.6-0.7,1.6-1.6h0c0,0,0,0,0,0
		C85.2,159.6,84.5,158.9,83.6,158.9z"/>
	<path class="st0" d="M96.6,158.9c-0.9,0-1.6,0.7-1.6,1.6c0,0.9,0.7,1.6,1.6,1.6s1.6-0.7,1.6-1.6h0c0,0,0,0,0,0
		C98.2,159.6,97.5,158.9,96.6,158.9z"/>
	<path class="st0" d="M109.6,158.9c-0.9,0-1.6,0.7-1.6,1.6c0,0.9,0.7,1.6,1.6,1.6s1.6-0.7,1.6-1.6h0c0,0,0,0,0,0
		C111.2,159.6,110.4,158.9,109.6,158.9z"/>
	<path class="st0" d="M122.5,158.9c-0.9,0-1.6,0.7-1.6,1.6c0,0.9,0.7,1.6,1.6,1.6s1.6-0.7,1.6-1.6h0c0,0,0,0,0,0
		C124.2,159.6,123.4,158.9,122.5,158.9z"/>
	<path class="st0" d="M135.5,158.9c-0.9,0-1.6,0.7-1.6,1.6c0,0.9,0.7,1.6,1.6,1.6s1.6-0.7,1.6-1.6h0c0,0,0,0,0,0
		C137.2,159.6,136.4,158.9,135.5,158.9z"/>
	<path class="st0" d="M148.5,158.9c-0.9,0-1.6,0.7-1.6,1.6c0,0.9,0.7,1.6,1.6,1.6s1.6-0.7,1.6-1.6h0c0,0,0,0,0,0
		C150.2,159.6,149.4,158.9,148.5,158.9z"/>
	<path class="st0" d="M161.5,158.9c-0.9,0-1.6,0.7-1.6,1.6c0,0.9,0.7,1.6,1.6,1.6s1.6-0.7,1.6-1.6h0c0,0,0,0,0,0
		C163.1,159.6,162.4,158.9,161.5,158.9z"/>
</g>
</svg>
