<?xml version="1.0" encoding="utf-8"?>
<!-- Generator: Adobe Illustrator 24.0.3, SVG Export Plug-In . SVG Version: 6.00 Build 0)  -->
<svg version="1.1" id="Layer_1" xmlns="http://www.w3.org/2000/svg" xmlns:xlink="http://www.w3.org/1999/xlink" x="0px" y="0px"
	 viewBox="0 0 116 130" style="enable-background:new 0 0 116 130;" xml:space="preserve">
<style type="text/css">
	.st0{fill:#FFFFFF;}
</style>
<g>
	<path class="st0" d="M112.2,64c-0.8,0-1.4,0.6-1.4,1.4c0,0.8,0.7,1.4,1.4,1.4s1.3-0.6,1.4-1.4C113.6,64.6,112.9,64,112.2,64z"/>
	<path class="st0" d="M101.3,64c-0.8,0-1.4,0.7-1.4,1.4c0,0.8,0.7,1.4,1.4,1.4c0.8,0,1.4-0.6,1.4-1.4C102.7,64.6,102,64,101.3,64z"
		/>
	<circle class="st0" cx="90.5" cy="54.5" r="1.4"/>
	<path class="st0" d="M90.5,64c-0.8,0-1.4,0.6-1.4,1.4c0,0.8,0.7,1.4,1.4,1.4s1.3-0.6,1.4-1.4C91.9,64.6,91.2,64,90.5,64z"/>
	<path class="st0" d="M90.5,74.8c-0.8,0-1.4,0.6-1.4,1.4c0,0.8,0.7,1.4,1.4,1.4s1.3-0.6,1.4-1.4C91.8,75.4,91.2,74.8,90.5,74.8z"/>
	<path class="st0" d="M79.6,53.1c-0.8,0-1.4,0.7-1.4,1.4c0,0.8,0.7,1.4,1.4,1.4c0.8,0,1.4-0.6,1.4-1.4S80.3,53.1,79.6,53.1z"/>
	<path class="st0" d="M79.6,64c-0.8,0-1.4,0.7-1.4,1.4c0,0.8,0.7,1.4,1.4,1.4c0.8,0,1.4-0.6,1.4-1.4C81,64.6,80.3,64,79.6,64z"/>
	<path class="st0" d="M79.6,74.8c-0.8,0-1.4,0.7-1.4,1.4c0,0.8,0.7,1.4,1.4,1.4c0.8,0,1.4-0.6,1.4-1.4C81,75.4,80.3,74.8,79.6,74.8z
		"/>
	<path class="st0" d="M68.9,42.4c-0.8-0.1-1.4,0.6-1.4,1.3c-0.1,0.8,0.6,1.4,1.3,1.4c0.8,0,1.4-0.6,1.4-1.3
		C70.2,43,69.6,42.4,68.9,42.4z"/>
	<path class="st0" d="M68.9,53.2c-0.8-0.1-1.3,0.5-1.4,1.3s0.6,1.4,1.3,1.4c0.8,0,1.4-0.6,1.4-1.3C70.2,53.8,69.6,53.2,68.9,53.2z"
		/>
	<path class="st0" d="M68.9,64.1c-0.8-0.1-1.4,0.6-1.4,1.3c-0.1,0.8,0.6,1.4,1.3,1.4c0.8,0,1.4-0.6,1.4-1.3
		C70.2,64.7,69.6,64.1,68.9,64.1z"/>
	<path class="st0" d="M68.9,74.9c-0.8-0.1-1.3,0.5-1.4,1.3c-0.1,0.8,0.6,1.4,1.3,1.4c0.8,0,1.4-0.6,1.4-1.3
		C70.2,75.5,69.6,74.9,68.9,74.9z"/>
	<path class="st0" d="M68.9,85.7c-0.8-0.1-1.4,0.6-1.4,1.3c-0.1,0.8,0.6,1.4,1.3,1.4c0.8,0,1.4-0.6,1.4-1.3
		C70.2,86.3,69.6,85.7,68.9,85.7z"/>
	<path class="st0" d="M58,42.3c-0.8,0-1.4,0.7-1.4,1.4c0,0.8,0.7,1.4,1.4,1.4s1.3-0.6,1.4-1.4C59.4,42.9,58.7,42.3,58,42.3z"/>
	<path class="st0" d="M58,53.1c-0.8,0-1.4,0.7-1.4,1.4c0,0.8,0.7,1.4,1.4,1.4s1.3-0.6,1.4-1.4C59.4,53.7,58.7,53.1,58,53.1z"/>
	<path class="st0" d="M58,64c-0.8,0-1.4,0.7-1.4,1.4c0,0.8,0.7,1.4,1.4,1.4s1.3-0.6,1.4-1.4C59.4,64.6,58.7,64,58,64z"/>
	<path class="st0" d="M58,74.8c-0.8,0-1.4,0.7-1.4,1.4c0,0.8,0.7,1.4,1.4,1.4s1.3-0.6,1.4-1.4C59.4,75.4,58.7,74.8,58,74.8z"/>
	<path class="st0" d="M58,85.6c-0.8,0-1.4,0.7-1.4,1.4c0,0.8,0.7,1.4,1.4,1.4s1.3-0.6,1.4-1.4C59.4,86.2,58.7,85.6,58,85.6z"/>
	<path class="st0" d="M47.1,31.5c-0.8,0-1.4,0.7-1.4,1.4c0,0.8,0.7,1.4,1.4,1.4c0.8,0,1.4-0.6,1.4-1.4
		C48.5,32.1,47.8,31.5,47.1,31.5z"/>
	<path class="st0" d="M47.1,42.3c-0.8,0-1.4,0.7-1.4,1.4c0,0.8,0.7,1.4,1.4,1.4c0.8,0,1.4-0.6,1.4-1.4
		C48.5,42.9,47.8,42.3,47.1,42.3z"/>
	<path class="st0" d="M47.1,53.1c-0.8,0-1.4,0.7-1.4,1.4c0,0.8,0.7,1.4,1.4,1.4c0.8,0,1.4-0.6,1.4-1.4S47.8,53.1,47.1,53.1z"/>
	<path class="st0" d="M47.1,64c-0.8,0-1.4,0.7-1.4,1.4c0,0.8,0.7,1.4,1.4,1.4c0.8,0,1.4-0.6,1.4-1.4C48.5,64.6,47.8,64,47.1,64z"/>
	<path class="st0" d="M47.2,74.9c-0.8-0.1-1.4,0.6-1.4,1.3c-0.1,0.8,0.6,1.4,1.3,1.4c0.8,0,1.4-0.6,1.4-1.3
		C48.5,75.5,47.9,74.9,47.2,74.9z"/>
	<path class="st0" d="M47.1,85.6c-0.8,0-1.4,0.7-1.4,1.4c0,0.8,0.7,1.4,1.4,1.4c0.8,0,1.4-0.6,1.4-1.4S47.8,85.6,47.1,85.6z"/>
	<path class="st0" d="M47.1,96.4c-0.8,0-1.4,0.7-1.4,1.4c0,0.8,0.7,1.4,1.4,1.4c0.8,0,1.4-0.6,1.4-1.4S47.8,96.4,47.1,96.4z"/>
	<path class="st0" d="M36.3,20.7c-0.8,0-1.4,0.7-1.4,1.4c0,0.8,0.7,1.4,1.4,1.4s1.3-0.7,1.4-1.4C37.7,21.3,37,20.7,36.3,20.7z"/>
	<path class="st0" d="M36.3,31.5c-0.8,0-1.4,0.7-1.4,1.4c0,0.8,0.7,1.4,1.4,1.4s1.3-0.6,1.4-1.4C37.7,32.1,37,31.5,36.3,31.5z"/>
	<path class="st0" d="M36.3,42.3c-0.8,0-1.4,0.7-1.4,1.4c0,0.8,0.7,1.4,1.4,1.4s1.3-0.6,1.4-1.4C37.7,42.9,37,42.3,36.3,42.3z"/>
	<path class="st0" d="M36.3,53.1c-0.8,0-1.4,0.7-1.4,1.4c0,0.8,0.7,1.4,1.4,1.4s1.3-0.6,1.4-1.4C37.7,53.7,37,53.1,36.3,53.1z"/>
	<path class="st0" d="M36.3,64c-0.8,0-1.4,0.7-1.4,1.4c0,0.8,0.7,1.4,1.4,1.4s1.3-0.6,1.4-1.4C37.7,64.6,37,64,36.3,64z"/>
	<path class="st0" d="M36.3,74.8c-0.8,0-1.4,0.7-1.4,1.4c0,0.8,0.7,1.4,1.4,1.4s1.3-0.6,1.4-1.4C37.7,75.4,37,74.8,36.3,74.8z"/>
	<path class="st0" d="M36.3,85.6c-0.8,0-1.4,0.7-1.4,1.4c0,0.8,0.7,1.4,1.4,1.4s1.3-0.6,1.4-1.4C37.7,86.2,37,85.6,36.3,85.6z"/>
	<path class="st0" d="M36.3,96.4c-0.8,0-1.4,0.7-1.4,1.4c0,0.8,0.7,1.4,1.4,1.4s1.3-0.6,1.4-1.4C37.7,97,37,96.4,36.3,96.4z"/>
	<path class="st0" d="M25.4,20.7c-0.8,0-1.4,0.7-1.4,1.4c0,0.8,0.7,1.4,1.4,1.4c0.8,0,1.4-0.7,1.4-1.4
		C26.8,21.3,26.1,20.7,25.4,20.7z"/>
	<path class="st0" d="M25.4,31.5c-0.8,0-1.4,0.7-1.4,1.4c0,0.8,0.7,1.4,1.4,1.4c0.8,0,1.4-0.6,1.4-1.4
		C26.8,32.1,26.1,31.5,25.4,31.5z"/>
	<path class="st0" d="M25.4,42.3c-0.8,0-1.4,0.7-1.4,1.4c0,0.8,0.7,1.4,1.4,1.4c0.8,0,1.4-0.6,1.4-1.4
		C26.8,42.9,26.1,42.3,25.4,42.3z"/>
	<path class="st0" d="M25.4,53.1c-0.8,0-1.4,0.7-1.4,1.4c0,0.8,0.7,1.4,1.4,1.4c0.8,0,1.4-0.6,1.4-1.4S26.1,53.1,25.4,53.1z"/>
	<path class="st0" d="M25.4,64c-0.8,0-1.4,0.7-1.4,1.4c0,0.8,0.7,1.4,1.4,1.4c0.8,0,1.4-0.6,1.4-1.4C26.8,64.6,26.1,64,25.4,64z"/>
	<path class="st0" d="M25.4,74.8c-0.8,0-1.4,0.7-1.4,1.4c0,0.8,0.7,1.4,1.4,1.4c0.8,0,1.4-0.6,1.4-1.4
		C26.8,75.4,26.1,74.8,25.4,74.8z"/>
	<path class="st0" d="M25.4,85.6c-0.8,0-1.4,0.7-1.4,1.4c0,0.8,0.7,1.4,1.4,1.4c0.8,0,1.4-0.6,1.4-1.4S26.1,85.6,25.4,85.6z"/>
	<path class="st0" d="M25.4,96.4c-0.8,0-1.4,0.7-1.4,1.4c0,0.8,0.7,1.4,1.4,1.4c0.8,0,1.4-0.6,1.4-1.4S26.1,96.4,25.4,96.4z"/>
	<path class="st0" d="M25.4,107.3c-0.8,0-1.4,0.7-1.4,1.4c0,0.8,0.7,1.4,1.4,1.4c0.8,0,1.4-0.6,1.4-1.4
		C26.8,107.9,26.1,107.3,25.4,107.3z"/>
	<path class="st0" d="M14.7,9.9c-0.8-0.1-1.4,0.6-1.4,1.3c-0.1,0.8,0.6,1.4,1.3,1.4c0.7,0,1.4-0.6,1.4-1.3
		C16,10.5,15.4,9.9,14.7,9.9z"/>
	<path class="st0" d="M14.7,20.8c-0.8-0.1-1.4,0.6-1.4,1.3c-0.1,0.8,0.6,1.4,1.3,1.4c0.7,0,1.4-0.7,1.4-1.3
		C16,21.4,15.4,20.8,14.7,20.8z"/>
	<path class="st0" d="M14.7,31.6c-0.8-0.1-1.3,0.5-1.4,1.3c-0.1,0.8,0.6,1.4,1.3,1.4c0.7,0,1.4-0.6,1.4-1.3
		C16,32.2,15.4,31.6,14.7,31.6z"/>
	<path class="st0" d="M14.7,42.4c-0.8-0.1-1.4,0.6-1.4,1.3c-0.1,0.8,0.6,1.4,1.3,1.4c0.7,0,1.4-0.6,1.4-1.3
		C16,43,15.4,42.4,14.7,42.4z"/>
	<path class="st0" d="M14.7,53.2c-0.8-0.1-1.3,0.5-1.4,1.3c-0.1,0.8,0.6,1.4,1.3,1.4c0.7,0,1.4-0.6,1.4-1.3
		C16,53.8,15.4,53.2,14.7,53.2z"/>
	<path class="st0" d="M14.7,64.1c-0.8-0.1-1.4,0.6-1.4,1.3c-0.1,0.8,0.6,1.4,1.3,1.4c0.7,0,1.4-0.6,1.4-1.3
		C16,64.7,15.4,64.1,14.7,64.1z"/>
	<path class="st0" d="M14.7,74.9c-0.8-0.1-1.3,0.5-1.4,1.3c-0.1,0.8,0.6,1.4,1.3,1.4c0.7,0,1.4-0.6,1.4-1.3
		C16,75.5,15.4,74.9,14.7,74.9z"/>
	<path class="st0" d="M14.7,85.7c-0.8-0.1-1.4,0.6-1.4,1.3c-0.1,0.8,0.6,1.4,1.3,1.4c0.7,0,1.4-0.6,1.4-1.3
		C16,86.3,15.4,85.7,14.7,85.7z"/>
	<path class="st0" d="M14.7,96.5c-0.8-0.1-1.3,0.5-1.4,1.3c-0.1,0.8,0.6,1.4,1.3,1.4c0.7,0,1.4-0.6,1.4-1.3
		C16,97.1,15.4,96.5,14.7,96.5z"/>
	<path class="st0" d="M14.7,107.4c-0.8-0.1-1.4,0.6-1.4,1.3c-0.1,0.8,0.6,1.4,1.3,1.4c0.7,0,1.4-0.6,1.4-1.3
		C16,108,15.4,107.4,14.7,107.4z"/>
	<path class="st0" d="M14.7,118.2c-0.8-0.1-1.4,0.6-1.4,1.3c-0.1,0.8,0.6,1.4,1.3,1.4c0.7,0,1.4-0.6,1.4-1.3
		C16,118.8,15.4,118.2,14.7,118.2z"/>
	<path class="st0" d="M3.8,9.8c-0.8,0-1.4,0.7-1.4,1.4c0,0.8,0.7,1.4,1.4,1.4s1.3-0.6,1.4-1.4C5.2,10.4,4.5,9.8,3.8,9.8z"/>
	<path class="st0" d="M3.8,20.7c-0.8,0-1.4,0.7-1.4,1.4c0,0.8,0.7,1.4,1.4,1.4s1.3-0.7,1.4-1.4C5.2,21.3,4.5,20.7,3.8,20.7z"/>
	<path class="st0" d="M3.8,31.5c-0.8,0-1.4,0.7-1.4,1.4c0,0.8,0.7,1.4,1.4,1.4s1.3-0.6,1.4-1.4C5.2,32.1,4.5,31.5,3.8,31.5z"/>
	<path class="st0" d="M3.8,42.3c-0.8,0-1.4,0.7-1.4,1.4c0,0.8,0.7,1.4,1.4,1.4s1.3-0.6,1.4-1.4C5.2,42.9,4.5,42.3,3.8,42.3z"/>
	<path class="st0" d="M3.8,53.1c-0.8,0-1.4,0.7-1.4,1.4c0,0.8,0.7,1.4,1.4,1.4s1.3-0.6,1.4-1.4C5.2,53.7,4.5,53.1,3.8,53.1z"/>
	<path class="st0" d="M3.8,64c-0.8,0-1.4,0.7-1.4,1.4c0,0.8,0.7,1.4,1.4,1.4s1.3-0.6,1.4-1.4C5.2,64.6,4.5,64,3.8,64z"/>
	<path class="st0" d="M3.8,74.8c-0.8,0-1.4,0.7-1.4,1.4c0,0.8,0.7,1.4,1.4,1.4s1.3-0.6,1.4-1.4C5.2,75.4,4.5,74.8,3.8,74.8z"/>
	<path class="st0" d="M3.8,85.6c-0.8,0-1.4,0.7-1.4,1.4c0,0.8,0.7,1.4,1.4,1.4s1.3-0.6,1.4-1.4C5.2,86.2,4.5,85.6,3.8,85.6z"/>
	<path class="st0" d="M3.8,96.4c-0.8,0-1.4,0.7-1.4,1.4c0,0.8,0.7,1.4,1.4,1.4s1.3-0.6,1.4-1.4C5.2,97,4.5,96.4,3.8,96.4z"/>
	<path class="st0" d="M3.8,107.3c-0.8,0-1.4,0.7-1.4,1.4c0,0.8,0.7,1.4,1.4,1.4s1.3-0.6,1.4-1.4C5.2,107.9,4.5,107.3,3.8,107.3z"/>
	<path class="st0" d="M3.8,118.1c-0.8,0-1.4,0.7-1.4,1.4c0,0.8,0.7,1.4,1.4,1.4s1.3-0.6,1.4-1.4C5.2,118.7,4.5,118.1,3.8,118.1z"/>
	<path class="st0" d="M3.8,2.8c0.3,0,0.5-0.1,0.7-0.3L2.4,1.3c0,0,0,0,0,0.1C2.4,2.2,3.1,2.8,3.8,2.8z"/>
	<path class="st0" d="M58,34.3c0.6,0,1.1-0.4,1.3-1.1L57,31.9c-0.3,0.3-0.4,0.6-0.4,1C56.6,33.7,57.3,34.3,58,34.3z"/>
	<path class="st0" d="M79.6,45.1c0.2,0,0.4-0.1,0.6-0.2l-2-1.1C78.3,44.5,78.9,45.1,79.6,45.1z"/>
	<path class="st0" d="M56.6,97.8c0,0.2,0,0.3,0.1,0.4l2.4-1.3c-0.3-0.3-0.7-0.5-1.1-0.5C57.2,96.4,56.6,97.1,56.6,97.8z"/>
	<path class="st0" d="M36.3,107.3c-0.8,0-1.4,0.7-1.4,1.4c0,0.6,0.4,1.1,0.8,1.3l1.9-1.1c0-0.1,0.1-0.1,0.1-0.2
		C37.7,107.9,37,107.3,36.3,107.3z"/>
	<path class="st0" d="M2.4,128.6c0,0,0,0,0,0.1l2.2-1.2c-0.3-0.2-0.5-0.3-0.8-0.3C3,127.2,2.4,127.9,2.4,128.6z"/>
</g>
</svg>
