<svg xmlns="http://www.w3.org/2000/svg" width="183.676" height="105" viewBox="0 0 183.676 105"><defs><style>.a{fill:#fff;}</style></defs><path class="a" d="M-237.012,146.807a4.529,4.529,0,0,1-1.154-3.286,5.548,5.548,0,0,1,.4-2.246,4.094,4.094,0,0,1,.816-1.2,3.4,3.4,0,0,1,1.132-.79,4.834,4.834,0,0,1,1.888-.346,4.114,4.114,0,0,1,3.1,1.2,4.611,4.611,0,0,1,1.162,3.342,4.591,4.591,0,0,1-1.153,3.321A4.083,4.083,0,0,1-233.9,148,4.126,4.126,0,0,1-237.012,146.807Zm1.338-5.608a3.317,3.317,0,0,0-.669,2.264,3.29,3.29,0,0,0,.688,2.257,2.245,2.245,0,0,0,1.746.767,2.225,2.225,0,0,0,1.737-.762,3.349,3.349,0,0,0,.678-2.285,3.29,3.29,0,0,0-.661-2.249,2.235,2.235,0,0,0-1.753-.741A2.259,2.259,0,0,0-235.674,141.2Zm40.41,6.651-3.533-5.715v5.715h-1.645v-8.764h1.722l3.587,5.853v-5.853h1.643v8.764Zm-13.4,0v-8.764h6.5v1.482h-4.729v1.944h4.4v1.476h-4.4v2.385h4.9v1.477Zm-19.571,0v-8.764h6.008v1.482h-4.239v2.075h3.659v1.482h-3.659v3.725Zm36.65,0v-8.763h3.234a6.322,6.322,0,0,1,1.669.167,2.93,2.93,0,0,1,1.321.807,3.817,3.817,0,0,1,.836,1.418,6.449,6.449,0,0,1,.287,2.074,5.727,5.727,0,0,1-.268,1.863,3.863,3.863,0,0,1-.939,1.55,3.115,3.115,0,0,1-1.244.7,5.4,5.4,0,0,1-1.566.184Zm1.769-1.476h1.321a4.833,4.833,0,0,0,1.071-.084,1.643,1.643,0,0,0,.714-.364,1.861,1.861,0,0,0,.464-.846,5.713,5.713,0,0,0,.18-1.6,5.247,5.247,0,0,0-.18-1.562,2,2,0,0,0-.5-.849,1.7,1.7,0,0,0-.819-.412,8.026,8.026,0,0,0-1.454-.084h-.795Zm-27.723,1.476v-8.763h3.5a10.278,10.278,0,0,1,1.551.086,2.273,2.273,0,0,1,.915.363,2.254,2.254,0,0,1,.672.732,1.979,1.979,0,0,1,.268,1.025,2.03,2.03,0,0,1-.332,1.13,2.037,2.037,0,0,1-.9.771,2.3,2.3,0,0,1,1.232.8,2.1,2.1,0,0,1,.43,1.32,2.6,2.6,0,0,1-.277,1.163,2.357,2.357,0,0,1-.759.9,2.529,2.529,0,0,1-1.187.415q-.444.046-2.135.059Zm1.77-1.476h1.638a8.091,8.091,0,0,0,1.213-.054,1.1,1.1,0,0,0,.643-.348,1.079,1.079,0,0,0,.248-.745,1.145,1.145,0,0,0-.191-.67,1.1,1.1,0,0,0-.554-.4,6.011,6.011,0,0,0-1.569-.125h-1.429Zm0-3.8h1.159c.689,0,1.119-.009,1.286-.031a1.161,1.161,0,0,0,.714-.313.925.925,0,0,0,.26-.685.953.953,0,0,0-.224-.66,1,1,0,0,0-.666-.309c-.176-.02-.68-.029-1.512-.029h-1.017ZM-242.58,135.1c-4.942-.141-6.115-1.913-6.115-4.459a4.411,4.411,0,0,1,2.091-3.536,3.434,3.434,0,0,1-.714-.743l-.107-.09a.211.211,0,0,1,.011-.056,2.724,2.724,0,0,1-.4-1.429c0-1.838,1.966-2.974,4.892-2.929,2.623.047,4.461.866,4.51,2.929.022,1.053-1.069,2.469-2.738,3.1l3.032,2.519a3.489,3.489,0,0,0,.329-1.682c-.023-.337,0-1.009,0-1.009s-.013-.273.049-.331a.394.394,0,0,1,.189-.1h2.049a.85.85,0,0,1,.242.069c.167.146.059.988.059,1.464a9.205,9.205,0,0,1-.286,2.3c-.128.285-.29.677-.5,1.057l1.5,1.066a1.218,1.218,0,0,0,.48.193c.29.046.433,0,.528.144a1.75,1.75,0,0,1,.039.561l0,.159c0,.211-.112.277-.324.277l-2.82.01a1.114,1.114,0,0,1-.778-.384l-.5-.221a8.968,8.968,0,0,1-4.445,1.123C-242.389,135.1-242.484,135.1-242.58,135.1Zm-2.875-4.687c0,1.528.427,2.483,3.163,2.529a5.329,5.329,0,0,0,2.565-.472l-4.835-3.891A2.51,2.51,0,0,0-245.455,130.413Zm.634-5.625c0,.407.5.8.986,1.038a2.085,2.085,0,0,1,.529.213,1.014,1.014,0,0,0,.247.044c.384,0,1.918-.626,1.918-1.3,0-.575-.625-1.1-1.774-1.153l-.121,0C-244.12,123.632-244.822,124.233-244.822,124.788Zm83.454,10.048c-.148,0-.292-.008-.436-.014a4.187,4.187,0,0,1-1.066-.091,6.257,6.257,0,0,1-3.823-1.594c-.838-.79-1.535-1.946-1.535-5.086a5.887,5.887,0,0,1,2.425-5.206,9.33,9.33,0,0,1,4.462-.96,14.093,14.093,0,0,1,3.837.41.445.445,0,0,1,.208.43l-.032,2.975a.386.386,0,0,1-.383.384h-.992a.387.387,0,0,1-.386-.384v-.131a1.249,1.249,0,0,0-.429-.8,2.564,2.564,0,0,0-2.326-.911,2.7,2.7,0,0,0-2.567,1.318,7.036,7.036,0,0,0-.361,3.071,7.31,7.31,0,0,0,.361,2.855,3.235,3.235,0,0,0,1.281,1.449,4.031,4.031,0,0,0,1.762.284h.043a4.01,4.01,0,0,0,1.758-.284,1.974,1.974,0,0,0,1.056-1.34v-.131a.385.385,0,0,1,.383-.386h.994a.385.385,0,0,1,.382.386l.031,2.973a.384.384,0,0,1-.383.384,10.667,10.667,0,0,1-3.109.361,7.6,7.6,0,0,1-.874.047Q-161.224,134.839-161.367,134.835Zm-60.718,0c-.148,0-.293-.008-.434-.014a4.234,4.234,0,0,1-1.067-.09,6.248,6.248,0,0,1-3.821-1.595c-.84-.789-1.534-1.946-1.534-5.085a5.887,5.887,0,0,1,2.421-5.206,9.331,9.331,0,0,1,4.46-.96,14.1,14.1,0,0,1,3.839.41.446.446,0,0,1,.206.43l-.031,2.975a.385.385,0,0,1-.383.384h-.992a.386.386,0,0,1-.384-.384v-.131a1.248,1.248,0,0,0-.431-.8,2.552,2.552,0,0,0-2.327-.911,2.708,2.708,0,0,0-2.569,1.319,7.107,7.107,0,0,0-.357,3.069,7.481,7.481,0,0,0,.357,2.857,3.257,3.257,0,0,0,1.286,1.447,4.035,4.035,0,0,0,1.757.286h.046a4.047,4.047,0,0,0,1.76-.286,1.432,1.432,0,0,0,.239-.141v-2.723h-1.727a.385.385,0,0,1-.384-.384V128a.385.385,0,0,1,.384-.384h4.478a.385.385,0,0,1,.382.384l.032,2.976-.035.06,0,.036.032,2.973a.384.384,0,0,1-.384.384,21.954,21.954,0,0,1-3.669.361,7.564,7.564,0,0,1-.872.047Q-221.941,134.839-222.086,134.835Zm-61.6-.015a4.263,4.263,0,0,1-1.067-.09,6.264,6.264,0,0,1-3.823-1.6c-.84-.788-1.534-1.946-1.534-5.085a5.886,5.886,0,0,1,2.419-5.2,9.029,9.029,0,0,1,4.224-.954v-.006h.336v.006a9,9,0,0,1,4.22.954,5.878,5.878,0,0,1,2.425,5.2c0,3.139-.7,4.3-1.535,5.085a6.252,6.252,0,0,1-3.82,1.6,10.928,10.928,0,0,1-1.289.1S-283.609,134.825-283.684,134.82Zm-2.611-9.649a7.034,7.034,0,0,0-.359,3.071,7.35,7.35,0,0,0,.359,2.855,3.242,3.242,0,0,0,1.283,1.449,3.952,3.952,0,0,0,1.713.282,3.971,3.971,0,0,0,1.717-.282A3.257,3.257,0,0,0-280.3,131.1a7.408,7.408,0,0,0,.359-2.855,7.064,7.064,0,0,0-.359-3.071,2.44,2.44,0,0,0-2.567-1.319h-.863A2.7,2.7,0,0,0-286.294,125.171Zm146.55,9.56c-3.2,0-4.268-.624-4.971-1.732a6.126,6.126,0,0,1-.266-2.021V129.89l.011-.005v-5.259c0-.291-.681-.591-1.2-.677a.148.148,0,0,1-.117-.048.176.176,0,0,1-.024-.121l.011-1.506a.117.117,0,0,1,.114-.117h5.63a.117.117,0,0,1,.116.117l.011,1.506a.206.206,0,0,1-.022.121.161.161,0,0,1-.122.048c-.518.085-1.2.386-1.2.677v5.54a6.028,6.028,0,0,0,.109,1.678,1.494,1.494,0,0,0,1.036.635c.217.037.925.056,1.271.06s1.048-.023,1.267-.06a1.5,1.5,0,0,0,1.035-.635,5.894,5.894,0,0,0,.108-1.678v-5.54c0-.291-.679-.591-1.2-.677,0,0-.088,0-.12-.048a.182.182,0,0,1-.026-.121l.013-1.506a.115.115,0,0,1,.113-.117h5.631a.117.117,0,0,1,.116.117l.011,1.506a.206.206,0,0,1-.022.121.159.159,0,0,1-.121.048c-.52.085-1.2.386-1.2.677v5.259l.005.005v1.088A6.18,6.18,0,0,1-134,133c-.706,1.108-1.927,1.732-5.126,1.732Zm-39.02-.108h-3.659c-1.378,0-1.872-.077-1.872-.4V133.16l0-2.4c0-.209.069-.2.277-.2h1.1c.212,0,.344.105.344.2l.252.61a4.535,4.535,0,0,0,1.1,1.14,7.961,7.961,0,0,0,2.158.159c.628-.012,1.829-.222,2.021-1.261s-.337-1.633-1.537-1.823a34.5,34.5,0,0,1-3.931-1.005,2.673,2.673,0,0,1-1.969-2.88,4.026,4.026,0,0,1,1.2-2.83,3.713,3.713,0,0,1,2.24-.815H-177c.623,0,1.868-.007,1.868.212l.006,3.194c0,.344-.081.423-.384.386h-.993a.383.383,0,0,1-.382-.386,5.508,5.508,0,0,0-.455-.913,1.655,1.655,0,0,0-.855-.621,3.852,3.852,0,0,0-1.441-.161c-.629.014-2.019.206-2.019,1.263s1.005,1.246,2.205,1.439a13.058,13.058,0,0,1,3.935,1.005c1.008.626,1.123,1.58,1.2,3.361A4.022,4.022,0,0,1-176.044,134a5.665,5.665,0,0,1-2.634.627Zm-79.709,0h-3.66c-1.376,0-1.87-.077-1.87-.4V133.16l-.006-2.4c0-.209.068-.2.283-.2h1.094c.212,0,.344.105.344.2l.253.61a4.611,4.611,0,0,0,1.1,1.14,7.963,7.963,0,0,0,2.158.159c.631-.012,1.831-.222,2.021-1.261s-.335-1.633-1.533-1.823a34.368,34.368,0,0,1-3.935-1.005,2.671,2.671,0,0,1-1.967-2.88,4.011,4.011,0,0,1,1.2-2.83,3.7,3.7,0,0,1,2.238-.815h4.046c.624,0,1.873-.007,1.873.212l0,3.194c0,.344-.079.423-.386.386h-.988a.384.384,0,0,1-.384-.386,5.389,5.389,0,0,0-.454-.913,1.655,1.655,0,0,0-.859-.621,3.84,3.84,0,0,0-1.438-.161c-.628.014-2.02.206-2.02,1.263s1.008,1.246,2.206,1.439a13.032,13.032,0,0,1,3.933,1.005c1.007.626,1.123,1.58,1.2,3.361A4.022,4.022,0,0,1-255.754,134a5.657,5.657,0,0,1-2.633.627Zm-15.018-.023a.113.113,0,0,1-.115-.1h0v-1.668a.115.115,0,0,1,.115-.095l.312-.066c.279-.048.672-.155.661-.32v-3.278l-3.4-4.854a1.676,1.676,0,0,0-.878-.438c-.26-.013-.2-.082-.214-.442v-.979c0-.211.167-.232.382-.232h4.827c.214,0,.261.172.261.3v.75c0,.284-.09.3-.251.3a.646.646,0,0,0-.451.213.975.975,0,0,0,.024.831l1.434,2.077a.438.438,0,0,0,.364.268h.036a.466.466,0,0,0,.434-.285c.339-.525,1.13-1.837,1.31-2.161a1.218,1.218,0,0,0,.153-.562.891.891,0,0,0-.062-.142.414.414,0,0,0-.311-.194s-.339.078-.35-.112v-.9c.011-.366.051-.388.386-.382h3.811c.29-.006.391.036.386.382v.991c0,.214,0,.341-.314.32l-.422.065a1.1,1.1,0,0,0-.517.354c-.154.173-.642.83-.642.83l-2.781,4.306v2.84c.025.207.576.458,1,.524h.136a.114.114,0,0,1,.112.095l0,0V134.5h0a.11.11,0,0,1-.112.1Zm143.107,0-.105,0h-1.215a.116.116,0,0,1-.116-.118s-.008-1.452,0-1.452a.2.2,0,0,1,.032-.164.367.367,0,0,1,.133-.085c.524-.084,1.153-.384,1.166-.709v-7.444c0-.3-.7-.653-1.14-.7a.458.458,0,0,1-.143-.033.155.155,0,0,1-.048-.133c-.008,0,0-1.5,0-1.5a.116.116,0,0,1,.116-.119l9.526.012a2.37,2.37,0,0,1,2.372,2.372v.864a2.365,2.365,0,0,1-2.1,2.352h-.355a.147.147,0,0,0-.146.148.143.143,0,0,0,.146.142h.017v.02h.067c2.113,0,2.857,1.063,2.857,2.373v1.232a3.044,3.044,0,0,1-2.857,2.947Zm3.155-10.376c-.049.036-.049.166-.049.166v8.03a.19.19,0,0,0,.06.121l.11.023h2.772c1.031,0,1.786-.359,1.773-1.608v-.539c-.011-.324-.338-1.072-1.648-1.148h-1.4a.385.385,0,0,1-.384-.384v-1.343a.386.386,0,0,1,.384-.386l1.248-.009c.695.043,1.22-.845,1.207-1.181v-.711a1.173,1.173,0,0,0-1.184-1.067h-2.736A.326.326,0,0,0-127.23,124.222ZM-301.557,134.6l-.112,0h-1.211a.116.116,0,0,1-.116-.118v-1.452a.2.2,0,0,1,.038-.164.339.339,0,0,1,.131-.085c.519-.084,1.149-.384,1.16-.709v-7.444c0-.3-.692-.653-1.137-.7a.475.475,0,0,1-.146-.033.156.156,0,0,1-.047-.133v-1.5a.116.116,0,0,1,.116-.119l9.527.012a2.372,2.372,0,0,1,2.373,2.372v.864a2.364,2.364,0,0,1-2.107,2.352h-.351a.146.146,0,0,0-.144.148.142.142,0,0,0,.144.142h.015v.02h.069c2.113,0,2.857,1.063,2.857,2.373v1.232a3.044,3.044,0,0,1-2.857,2.947Zm3.156-10.376c-.05.036-.05.166-.05.166v8.03a.192.192,0,0,0,.059.121l.108.023h2.775c1.028,0,1.783-.359,1.772-1.608v-.539c-.012-.324-.34-1.072-1.648-1.148h-1.394a.384.384,0,0,1-.384-.384v-1.343a.384.384,0,0,1,.384-.386l1.246-.009c.7.043,1.221-.845,1.207-1.181v-.711a1.174,1.174,0,0,0-1.184-1.067h-2.739A.317.317,0,0,0-298.4,124.222Zm146.847,10.307h-4.119a.116.116,0,0,1-.116-.113l-.011-1.508a.2.2,0,0,1,.024-.118.149.149,0,0,1,.118-.047c.521-.085,1.2-.385,1.2-.679v-7.438c0-.291-.679-.591-1.2-.677a.158.158,0,0,1-.118-.048.21.21,0,0,1-.024-.121l.011-1.506a.117.117,0,0,1,.116-.117h5.138a.118.118,0,0,1,.115.117l.011,1.506a.173.173,0,0,1-.023.121.161.161,0,0,1-.119.048c-.521.085-1.2.386-1.2.677v7.438c0,.112.1.222.247.322h1.316a3.816,3.816,0,0,0,1.437-.161,2.659,2.659,0,0,0,1.149-1.055,1.751,1.751,0,0,0,.16-.656v-.492a.385.385,0,0,1,.385-.386h.992a.385.385,0,0,1,.385.386V132.6a.422.422,0,0,1,.038.167v1.376a.382.382,0,0,1-.383.381Zm-39.439,0h-4.119a.115.115,0,0,1-.115-.113l-.015-1.508c.006,0-.009-.068.024-.118a.158.158,0,0,1,.122-.047c.518-.085,1.2-.385,1.2-.679v-7.412c0-.292-.68-.592-1.2-.677a.169.169,0,0,1-.122-.049c-.033-.051-.018-.12-.024-.12l.015-1.508a.113.113,0,0,1,.115-.112h5.136a.113.113,0,0,1,.115.112l.012,1.508a.2.2,0,0,1-.022.12.166.166,0,0,1-.121.049c-.521.085-1.2.384-1.2.677v7.412c0,.112.1.222.251.322h1.312a3.822,3.822,0,0,0,1.439-.161,2.652,2.652,0,0,0,1.151-1.055,1.82,1.82,0,0,0,.158-.656v-.492a.385.385,0,0,1,.385-.386h.992a.386.386,0,0,1,.384.386V132.6a.394.394,0,0,1,.039.167v1.376a.381.381,0,0,1-.382.381Zm-8.86,0s-.464-.033-.544-.287a1.84,1.84,0,0,1-.05-.4l.03-3.475c-.011-.325.045-1.069-1.264-1.148h-1.97a.384.384,0,0,1-.384-.386v-1.343a.384.384,0,0,1,.384-.382h1.777l.047-.012c.694.041,1.219-.94,1.208-1.275v-.539a1.173,1.173,0,0,0-1.185-1.067h-2.96c-.265.125-.462.285-.462.443v7.4c0,.3.679.591,1.2.679a.153.153,0,0,1,.119.048.194.194,0,0,1,.023.119l-.011,1.509a.114.114,0,0,1-.114.113h-5.14a.114.114,0,0,1-.113-.113l-.011-1.509a.186.186,0,0,1,.02-.119.156.156,0,0,1,.12-.048c.524-.087,1.2-.383,1.2-.679v-7.4c0-.294-.679-.593-1.2-.677a.161.161,0,0,1-.12-.047.207.207,0,0,1-.023-.121l.014-1.506a.117.117,0,0,1,.113-.118h4.356v-.011l5.144,0a2.37,2.37,0,0,1,2.373,2.369v.694a2.47,2.47,0,0,1-2.1,2.452h-.353a.144.144,0,0,0-.143.143.144.144,0,0,0,.143.145h.015V128h.068c2.112,0,2.474,1.059,2.474,2.37l0,1.689c0,.3.677.591,1.2.679a.155.155,0,0,1,.121.048.228.228,0,0,1,.023.119l-.013,1.509a.114.114,0,0,1-.114.113Zm-15.58,0a.116.116,0,0,1-.115-.113l-.013-1.509c.006,0-.011-.067.025-.119a.159.159,0,0,1,.121-.049c.522-.086,1.2-.382,1.2-.678v-7.4c0-.294-.678-.593-1.2-.677a.162.162,0,0,1-.121-.047c-.036-.052-.019-.121-.025-.121l.013-1.506a.118.118,0,0,1,.115-.118h5.14a.117.117,0,0,1,.114.118l.013,1.506a.225.225,0,0,1-.025.121.151.151,0,0,1-.117.047c-.523.084-1.2.382-1.2.677v7.4c0,.3.678.591,1.2.678a.149.149,0,0,1,.117.049.219.219,0,0,1,.025.119l-.013,1.509a.114.114,0,0,1-.114.113Zm-3.15-22.983a10.032,10.032,0,0,1-5.3-1.478,13.274,13.274,0,0,1-6.9,1.478c-3.027-.112-5.21-1.021-6.536-2.57l-18.861-19.7,22.793-22.655c1.326-1.54,4.605-3.644,7.508-3.644a9.185,9.185,0,0,1,7.252,3.644l18.085,18.2-.031.031c.511.438,1.939,2.255,4.263,2.16,1.985.046,3.709-1.722,4.227-2.16l-.027-.031,1.41-1.413-34.589-34.718.031-.028a6.341,6.341,0,0,0-1.712-1.048,8.194,8.194,0,0,0-2.533-.454,8.21,8.21,0,0,0-2.535.454,6.282,6.282,0,0,0-1.711,1.048l.03.028L-264.942,80.23l-3.137-3.138,31.2-31.518c1.324-1.546,3.506-2.459,6.536-2.564.272-.007.553-.015.844-.005.287-.01.572,0,.842.005a9.734,9.734,0,0,1,5.547,1.652,12.835,12.835,0,0,1,7.172-1.652,9.979,9.979,0,0,1,5.3,1.477,13.239,13.239,0,0,1,6.9-1.477,9.986,9.986,0,0,1,5.3,1.477,13.25,13.25,0,0,1,6.9-1.477c3.023.105,5.208,1.018,6.531,2.564l18.861,19.707-22.79,22.65c-1.327,1.547-4.6,3.647-7.507,3.647a8.718,8.718,0,0,1-6.413-2.738l-.1.1-20.649-20.753.019-.019a4.382,4.382,0,0,0-2.424-.632c-1.988-.049-3.713,1.721-4.231,2.158l.032.031-1.415,1.413,34.591,34.72-.031.028a6.62,6.62,0,0,0,1.713,1.048,8.306,8.306,0,0,0,2.533.45,8.3,8.3,0,0,0,2.533-.45,6.5,6.5,0,0,0,1.71-1.048l-.03-.028,31.231-31.541,3.137,3.136-31.2,31.515c-1.326,1.549-3.5,2.458-6.531,2.57-.272.01-.557.013-.845,0-.291.009-.57.006-.844,0a9.755,9.755,0,0,1-5.547-1.652,12.922,12.922,0,0,1-7.173,1.652,10.018,10.018,0,0,1-5.3-1.478,12.886,12.886,0,0,1-6.35,1.487C-218.223,111.552-218.4,111.549-218.582,111.542Zm-25.537-27.868,18.04,18.055.517.517,3.608,3.617-.025.028a6.164,6.164,0,0,0,3.593,1.482,7.957,7.957,0,0,0,3.366-.507L-241.159,80.7Zm-6.088,6.113,11.929,11.942.516.517,3.614,3.617-.03.028a6.177,6.177,0,0,0,3.6,1.482,7.955,7.955,0,0,0,3.365-.507l-20.03-20.048Zm12.178-12.225,24.145,24.167.514.517,3.609,3.617-.026.028a6.164,6.164,0,0,0,3.591,1.482,8.09,8.09,0,0,0,3.743-.657l-32.313-32.433Zm18.162-29.733,32.308,32.437,3.263-3.28L-208.44,52.823l-.519-.52-3.608-3.614.027-.028a6.19,6.19,0,0,0-3.587-1.488q-.256-.018-.515-.018A8.2,8.2,0,0,0-219.867,47.83Zm12.567-.15,26.134,26.164,2.959-2.968-18.036-18.052-.513-.52-3.613-3.614.026-.028a6.205,6.205,0,0,0-3.592-1.488q-.259-.018-.52-.018A8.13,8.13,0,0,0-207.3,47.679Zm12.2,0,20.027,20.053,2.957-2.973-11.927-11.937-.515-.52-3.615-3.614.03-.028a6.188,6.188,0,0,0-3.589-1.488q-.258-.018-.52-.018A8.143,8.143,0,0,0-195.1,47.679Z" transform="translate(303 -43)"/></svg>