<?xml version="1.0" encoding="utf-8"?>
<!-- Generator: Adobe Illustrator 24.0.3, SVG Export Plug-In . SVG Version: 6.00 Build 0)  -->
<svg version="1.1" id="Layer_1" xmlns="http://www.w3.org/2000/svg" xmlns:xlink="http://www.w3.org/1999/xlink" x="0px" y="0px"
	 viewBox="0 0 260 260" style="enable-background:new 0 0 260 260;" xml:space="preserve">
<style type="text/css">
	.st0{fill:#DDDDDD;}
</style>
<g>
	<circle class="st0" cx="188.4" cy="18.5" r="1.6"/>
	<circle class="st0" cx="201.4" cy="18.5" r="1.6"/>
	<circle class="st0" cx="214.4" cy="18.5" r="1.6"/>
	<circle class="st0" cx="227.4" cy="18.5" r="1.6"/>
	<circle class="st0" cx="240.4" cy="18.5" r="1.6"/>
	<circle class="st0" cx="253.4" cy="18.5" r="1.6"/>
	<path class="st0" d="M149.5,33.1c0.9,0,1.6-0.7,1.6-1.6s-0.8-1.6-1.6-1.6c-0.9,0-1.6,0.7-1.6,1.6C147.9,32.4,148.6,33.1,149.5,33.1
		z"/>
	<path class="st0" d="M162.5,33.1c0.9,0,1.6-0.7,1.6-1.6s-0.8-1.6-1.6-1.6c-0.9,0-1.6,0.7-1.6,1.6C160.9,32.4,161.6,33.1,162.5,33.1
		z"/>
	<path class="st0" d="M175.4,33.1c0.9,0,1.6-0.7,1.6-1.6s-0.7-1.6-1.6-1.6c-0.9,0-1.6,0.7-1.6,1.6C173.8,32.4,174.5,33.1,175.4,33.1
		z"/>
	<circle class="st0" cx="188.4" cy="31.5" r="1.6"/>
	<circle class="st0" cx="201.4" cy="31.5" r="1.6"/>
	<circle class="st0" cx="214.4" cy="31.5" r="1.6"/>
	<circle class="st0" cx="227.4" cy="31.5" r="1.6"/>
	<circle class="st0" cx="240.4" cy="31.5" r="1.6"/>
	<circle class="st0" cx="253.4" cy="31.5" r="1.6"/>
	<path class="st0" d="M136.5,46.1c0.9,0,1.6-0.7,1.6-1.6s-0.8-1.6-1.6-1.6c-0.9,0-1.6,0.7-1.6,1.6C134.9,45.4,135.6,46.1,136.5,46.1
		z"/>
	<path class="st0" d="M149.5,46.1c0.9,0,1.6-0.7,1.6-1.6s-0.8-1.6-1.6-1.6c-0.9,0-1.6,0.7-1.6,1.6C147.9,45.4,148.6,46.1,149.5,46.1
		z"/>
	<path class="st0" d="M162.5,46.1c0.9,0,1.6-0.7,1.6-1.6s-0.8-1.6-1.6-1.6c-0.9,0-1.6,0.7-1.6,1.6S161.6,46.1,162.5,46.1z"/>
	<path class="st0" d="M175.4,46.1c0.9,0,1.6-0.7,1.6-1.6s-0.7-1.6-1.6-1.6c-0.9,0-1.6,0.7-1.6,1.6C173.8,45.4,174.5,46.1,175.4,46.1
		z"/>
	<circle class="st0" cx="188.4" cy="44.5" r="1.6"/>
	<circle class="st0" cx="201.4" cy="44.5" r="1.6"/>
	<circle class="st0" cx="214.4" cy="44.5" r="1.6"/>
	<circle class="st0" cx="227.4" cy="44.5" r="1.6"/>
	<circle class="st0" cx="240.4" cy="44.5" r="1.6"/>
	<circle class="st0" cx="253.4" cy="44.5" r="1.6"/>
	<path class="st0" d="M110.5,59.1c0.9,0,1.6-0.7,1.6-1.6s-0.7-1.6-1.6-1.6c-0.9,0-1.6,0.7-1.6,1.6S109.6,59.1,110.5,59.1z"/>
	<path class="st0" d="M123.5,59.1c0.9,0,1.6-0.7,1.6-1.6s-0.7-1.6-1.6-1.6c-0.9,0-1.6,0.7-1.6,1.6S122.6,59.1,123.5,59.1z"/>
	<path class="st0" d="M136.5,59.1c0.9,0,1.6-0.7,1.6-1.6s-0.8-1.6-1.6-1.6c-0.9,0-1.6,0.7-1.6,1.6C134.9,58.4,135.6,59.1,136.5,59.1
		z"/>
	<path class="st0" d="M149.5,59.1c0.9,0,1.6-0.7,1.6-1.6s-0.8-1.6-1.6-1.6c-0.9,0-1.6,0.7-1.6,1.6C147.9,58.4,148.6,59.1,149.5,59.1
		z"/>
	<path class="st0" d="M162.5,59.1c0.9,0,1.6-0.7,1.6-1.6s-0.8-1.6-1.6-1.6c-0.9,0-1.6,0.7-1.6,1.6S161.6,59.1,162.5,59.1z"/>
	<path class="st0" d="M175.4,59.1c0.9,0,1.6-0.7,1.6-1.6s-0.7-1.6-1.6-1.6c-0.9,0-1.6,0.7-1.6,1.6C173.8,58.4,174.5,59.1,175.4,59.1
		z"/>
	<circle class="st0" cx="188.4" cy="57.5" r="1.6"/>
	<circle class="st0" cx="201.4" cy="57.5" r="1.6"/>
	<circle class="st0" cx="214.4" cy="57.5" r="1.6"/>
	<circle class="st0" cx="227.4" cy="57.5" r="1.6"/>
	<circle class="st0" cx="240.4" cy="57.5" r="1.6"/>
	<circle class="st0" cx="253.4" cy="57.5" r="1.6"/>
	<path class="st0" d="M97.5,72.1c0.9,0,1.6-0.7,1.6-1.6s-0.7-1.6-1.6-1.6c-0.9,0-1.6,0.7-1.6,1.6C95.9,71.4,96.6,72.1,97.5,72.1z"/>
	<path class="st0" d="M110.5,72.1c0.9,0,1.6-0.7,1.6-1.6s-0.7-1.6-1.6-1.6c-0.9,0-1.6,0.7-1.6,1.6C108.9,71.4,109.6,72.1,110.5,72.1
		z"/>
	<path class="st0" d="M123.5,72.1c0.9,0,1.6-0.7,1.6-1.6s-0.7-1.6-1.6-1.6c-0.9,0-1.6,0.7-1.6,1.6C121.9,71.4,122.6,72.1,123.5,72.1
		z"/>
	<path class="st0" d="M136.5,72.1c0.9,0,1.6-0.7,1.6-1.6s-0.8-1.6-1.6-1.6c-0.9,0-1.6,0.7-1.6,1.6C134.9,71.4,135.6,72.1,136.5,72.1
		z"/>
	<path class="st0" d="M149.5,72.1c0.9,0,1.6-0.7,1.6-1.6s-0.8-1.6-1.6-1.6c-0.9,0-1.6,0.7-1.6,1.6C147.9,71.4,148.6,72.1,149.5,72.1
		z"/>
	<path class="st0" d="M162.5,72.1c0.9,0,1.6-0.7,1.6-1.6s-0.8-1.6-1.6-1.6c-0.9,0-1.6,0.7-1.6,1.6C160.9,71.4,161.6,72.1,162.5,72.1
		z"/>
	<path class="st0" d="M175.4,72.1c0.9,0,1.6-0.7,1.6-1.6s-0.7-1.6-1.6-1.6c-0.9,0-1.6,0.7-1.6,1.6C173.8,71.4,174.5,72.1,175.4,72.1
		z"/>
	<circle class="st0" cx="188.4" cy="70.5" r="1.6"/>
	<circle class="st0" cx="201.4" cy="70.5" r="1.6"/>
	<circle class="st0" cx="214.4" cy="70.5" r="1.6"/>
	<circle class="st0" cx="227.4" cy="70.5" r="1.6"/>
	<circle class="st0" cx="240.4" cy="70.5" r="1.6"/>
	<circle class="st0" cx="253.4" cy="70.5" r="1.6"/>
	<path class="st0" d="M84.5,85.1c0.9,0,1.6-0.7,1.6-1.6s-0.7-1.6-1.6-1.6c-0.9,0-1.6,0.7-1.6,1.6C82.9,84.4,83.6,85.1,84.5,85.1z"/>
	<path class="st0" d="M97.5,85.1c0.9,0,1.6-0.7,1.6-1.6s-0.7-1.6-1.6-1.6c-0.9,0-1.6,0.7-1.6,1.6S96.6,85.1,97.5,85.1z"/>
	<path class="st0" d="M110.5,85.1c0.9,0,1.6-0.7,1.6-1.6s-0.7-1.6-1.6-1.6c-0.9,0-1.6,0.7-1.6,1.6S109.6,85.1,110.5,85.1z"/>
	<path class="st0" d="M123.5,85.1c0.9,0,1.6-0.7,1.6-1.6s-0.7-1.6-1.6-1.6c-0.9,0-1.6,0.7-1.6,1.6S122.6,85.1,123.5,85.1z"/>
	<path class="st0" d="M136.5,85.1c0.9,0,1.6-0.7,1.6-1.6s-0.8-1.6-1.6-1.6c-0.9,0-1.6,0.7-1.6,1.6C134.9,84.4,135.6,85.1,136.5,85.1
		z"/>
	<path class="st0" d="M149.5,85.1c0.9,0,1.6-0.7,1.6-1.6s-0.8-1.6-1.6-1.6c-0.9,0-1.6,0.7-1.6,1.6C147.9,84.4,148.6,85.1,149.5,85.1
		z"/>
	<path class="st0" d="M162.5,85.1c0.9,0,1.6-0.7,1.6-1.6s-0.8-1.6-1.6-1.6c-0.9,0-1.6,0.7-1.6,1.6S161.6,85.1,162.5,85.1z"/>
	<path class="st0" d="M175.4,85.1c0.9,0,1.6-0.7,1.6-1.6s-0.7-1.6-1.6-1.6c-0.9,0-1.6,0.7-1.6,1.6C173.8,84.4,174.5,85.1,175.4,85.1
		z"/>
	<circle class="st0" cx="188.4" cy="83.5" r="1.6"/>
	<circle class="st0" cx="201.4" cy="83.5" r="1.6"/>
	<circle class="st0" cx="214.4" cy="83.5" r="1.6"/>
	<circle class="st0" cx="227.4" cy="83.5" r="1.6"/>
	<circle class="st0" cx="240.4" cy="83.5" r="1.6"/>
	<circle class="st0" cx="253.4" cy="83.5" r="1.6"/>
	<path class="st0" d="M71.5,98.1c0.9,0,1.6-0.7,1.6-1.6s-0.7-1.7-1.6-1.6c-0.9,0-1.6,0.7-1.6,1.6C69.9,97.4,70.6,98.1,71.5,98.1z"/>
	<path class="st0" d="M84.5,98.1c0.9,0,1.6-0.7,1.6-1.6s-0.7-1.7-1.6-1.6c-0.9,0-1.6,0.7-1.6,1.6C82.9,97.4,83.6,98.1,84.5,98.1z"/>
	<path class="st0" d="M97.5,98.1c0.9,0,1.6-0.7,1.6-1.6s-0.7-1.7-1.6-1.6c-0.9,0-1.6,0.7-1.6,1.6C95.9,97.4,96.6,98.1,97.5,98.1z"/>
	<path class="st0" d="M110.5,98.1c0.9,0,1.6-0.7,1.6-1.6s-0.7-1.7-1.6-1.6c-0.9,0-1.6,0.7-1.6,1.6C108.9,97.4,109.6,98.1,110.5,98.1
		z"/>
	<path class="st0" d="M123.5,98.1c0.9,0,1.6-0.7,1.6-1.6s-0.7-1.7-1.6-1.6c-0.9,0-1.6,0.7-1.6,1.6C121.9,97.4,122.6,98.1,123.5,98.1
		z"/>
	<path class="st0" d="M136.5,98.1c0.9,0,1.6-0.7,1.6-1.6s-0.8-1.7-1.6-1.6c-0.9,0-1.6,0.7-1.6,1.6C134.9,97.4,135.6,98.1,136.5,98.1
		z"/>
	<path class="st0" d="M149.5,98.1c0.9,0,1.6-0.7,1.6-1.6s-0.8-1.7-1.6-1.6c-0.9,0-1.6,0.7-1.6,1.6C147.9,97.4,148.6,98.1,149.5,98.1
		z"/>
	<path class="st0" d="M162.5,98.1c0.9,0,1.6-0.7,1.6-1.6s-0.8-1.7-1.6-1.6c-0.9,0-1.6,0.7-1.6,1.6C160.9,97.4,161.6,98.1,162.5,98.1
		z"/>
	<path class="st0" d="M175.4,98.1c0.9,0,1.6-0.7,1.6-1.6s-0.7-1.7-1.6-1.6c-0.9,0-1.6,0.7-1.6,1.6C173.8,97.4,174.5,98.1,175.4,98.1
		z"/>
	<path class="st0" d="M188.4,98.1c0.9,0,1.6-0.7,1.6-1.6s-0.7-1.7-1.6-1.6c-0.9,0-1.6,0.7-1.6,1.6C186.8,97.4,187.5,98.1,188.4,98.1
		z"/>
	<path class="st0" d="M201.4,98.1c0.9,0,1.6-0.7,1.6-1.6s-0.7-1.7-1.6-1.6c-0.9,0-1.6,0.7-1.6,1.6C199.8,97.4,200.5,98.1,201.4,98.1
		z"/>
	<path class="st0" d="M214.4,98.1c0.9,0,1.6-0.7,1.6-1.6s-0.7-1.7-1.6-1.6c-0.9,0-1.6,0.7-1.6,1.6C212.8,97.4,213.5,98.1,214.4,98.1
		z"/>
	<path class="st0" d="M227.4,98.1c0.9,0,1.6-0.7,1.6-1.6s-0.7-1.7-1.6-1.6c-0.9,0-1.6,0.7-1.6,1.6C225.8,97.4,226.5,98.1,227.4,98.1
		z"/>
	<path class="st0" d="M240.4,98.1c0.9,0,1.6-0.7,1.6-1.6s-0.7-1.7-1.6-1.6c-0.9,0-1.6,0.7-1.6,1.6C238.8,97.4,239.5,98.1,240.4,98.1
		z"/>
	<path class="st0" d="M253.4,98.1c0.9,0,1.6-0.7,1.6-1.6s-0.7-1.7-1.6-1.6c-0.9,0-1.6,0.7-1.6,1.6C251.8,97.4,252.5,98.1,253.4,98.1
		z"/>
	<path class="st0" d="M58.5,111.1c0.9,0,1.6-0.7,1.6-1.6s-0.7-1.7-1.6-1.6c-0.9,0-1.6,0.7-1.6,1.6S57.6,111.1,58.5,111.1z"/>
	<path class="st0" d="M71.5,111.1c0.9,0,1.6-0.7,1.6-1.6s-0.7-1.7-1.6-1.6c-0.9,0-1.6,0.7-1.6,1.6C69.9,110.4,70.6,111.1,71.5,111.1
		z"/>
	<path class="st0" d="M84.5,111.1c0.9,0,1.6-0.7,1.6-1.6s-0.7-1.7-1.6-1.6c-0.9,0-1.6,0.7-1.6,1.6S83.6,111.1,84.5,111.1z"/>
	<path class="st0" d="M97.5,111.1c0.9,0,1.6-0.7,1.6-1.6s-0.7-1.7-1.6-1.6c-0.9,0-1.6,0.7-1.6,1.6C95.9,110.4,96.6,111.1,97.5,111.1
		z"/>
	<path class="st0" d="M110.5,111.1c0.9,0,1.6-0.7,1.6-1.6s-0.7-1.7-1.6-1.6c-0.9,0-1.6,0.7-1.6,1.6
		C108.9,110.4,109.6,111.1,110.5,111.1z"/>
	<path class="st0" d="M123.5,111.1c0.9,0,1.6-0.7,1.6-1.6s-0.7-1.7-1.6-1.6c-0.9,0-1.6,0.7-1.6,1.6
		C121.9,110.4,122.6,111.1,123.5,111.1z"/>
	<path class="st0" d="M136.5,111.1c0.9,0,1.6-0.7,1.6-1.6s-0.8-1.7-1.6-1.6c-0.9,0-1.6,0.7-1.6,1.6
		C134.9,110.4,135.6,111.1,136.5,111.1z"/>
	<path class="st0" d="M149.5,111.1c0.9,0,1.6-0.7,1.6-1.6s-0.8-1.7-1.6-1.6c-0.9,0-1.6,0.7-1.6,1.6S148.6,111.1,149.5,111.1z"/>
	<path class="st0" d="M162.5,111.1c0.9,0,1.6-0.7,1.6-1.6s-0.8-1.7-1.6-1.6c-0.9,0-1.6,0.7-1.6,1.6
		C160.9,110.4,161.6,111.1,162.5,111.1z"/>
	<path class="st0" d="M175.4,111.1c0.9,0,1.6-0.7,1.6-1.6s-0.7-1.7-1.6-1.6c-0.9,0-1.6,0.7-1.6,1.6
		C173.8,110.4,174.5,111.1,175.4,111.1z"/>
	<path class="st0" d="M188.4,111.1c0.9,0,1.6-0.7,1.6-1.6s-0.7-1.7-1.6-1.6c-0.9,0-1.6,0.7-1.6,1.6
		C186.8,110.4,187.5,111.1,188.4,111.1z"/>
	<path class="st0" d="M201.4,111.1c0.9,0,1.6-0.7,1.6-1.6s-0.7-1.7-1.6-1.6c-0.9,0-1.6,0.7-1.6,1.6S200.5,111.1,201.4,111.1z"/>
	<path class="st0" d="M214.4,111.1c0.9,0,1.6-0.7,1.6-1.6s-0.7-1.7-1.6-1.6c-0.9,0-1.6,0.7-1.6,1.6
		C212.8,110.4,213.5,111.1,214.4,111.1z"/>
	<path class="st0" d="M227.4,111.1c0.9,0,1.6-0.7,1.6-1.6s-0.7-1.7-1.6-1.6c-0.9,0-1.6,0.7-1.6,1.6S226.5,111.1,227.4,111.1z"/>
	<path class="st0" d="M240.4,111.1c0.9,0,1.6-0.7,1.6-1.6s-0.7-1.7-1.6-1.6c-0.9,0-1.6,0.7-1.6,1.6
		C238.8,110.4,239.5,111.1,240.4,111.1z"/>
	<path class="st0" d="M253.4,111.1c0.9,0,1.6-0.7,1.6-1.6s-0.7-1.7-1.6-1.6c-0.9,0-1.6,0.7-1.6,1.6
		C251.8,110.4,252.5,111.1,253.4,111.1z"/>
	<path class="st0" d="M45.5,124.1c0.9,0,1.6-0.7,1.6-1.6s-0.7-1.7-1.6-1.6c-0.9,0-1.6,0.7-1.6,1.6S44.6,124.1,45.5,124.1z"/>
	<path class="st0" d="M58.5,124.1c0.9,0,1.6-0.7,1.6-1.6s-0.7-1.7-1.6-1.6c-0.9,0-1.6,0.7-1.6,1.6C56.9,123.4,57.6,124.1,58.5,124.1
		z"/>
	<path class="st0" d="M71.5,124.1c0.9,0,1.6-0.7,1.6-1.6s-0.7-1.7-1.6-1.6c-0.9,0-1.6,0.7-1.6,1.6S70.6,124.1,71.5,124.1z"/>
	<path class="st0" d="M84.5,124.1c0.9,0,1.6-0.7,1.6-1.6s-0.7-1.7-1.6-1.6c-0.9,0-1.6,0.7-1.6,1.6C82.9,123.4,83.6,124.1,84.5,124.1
		z"/>
	<path class="st0" d="M97.5,124.1c0.9,0,1.6-0.7,1.6-1.6s-0.7-1.7-1.6-1.6c-0.9,0-1.6,0.7-1.6,1.6S96.6,124.1,97.5,124.1z"/>
	<path class="st0" d="M110.5,124.1c0.9,0,1.6-0.7,1.6-1.6s-0.7-1.7-1.6-1.6c-0.9,0-1.6,0.7-1.6,1.6S109.6,124.1,110.5,124.1z"/>
	<path class="st0" d="M123.5,124.1c0.9,0,1.6-0.7,1.6-1.6s-0.7-1.7-1.6-1.6c-0.9,0-1.6,0.7-1.6,1.6S122.6,124.1,123.5,124.1z"/>
	<path class="st0" d="M136.5,124.1c0.9,0,1.6-0.7,1.6-1.6s-0.8-1.7-1.6-1.6c-0.9,0-1.6,0.7-1.6,1.6
		C134.9,123.4,135.6,124.1,136.5,124.1z"/>
	<path class="st0" d="M149.5,124.1c0.9,0,1.6-0.7,1.6-1.6s-0.8-1.7-1.6-1.6c-0.9,0-1.6,0.7-1.6,1.6
		C147.9,123.4,148.6,124.1,149.5,124.1z"/>
	<path class="st0" d="M162.5,124.1c0.9,0,1.6-0.7,1.6-1.6s-0.8-1.7-1.6-1.6c-0.9,0-1.6,0.7-1.6,1.6S161.6,124.1,162.5,124.1z"/>
	<path class="st0" d="M175.4,124.1c0.9,0,1.6-0.7,1.6-1.6s-0.7-1.7-1.6-1.6c-0.9,0-1.6,0.7-1.6,1.6
		C173.8,123.4,174.5,124.1,175.4,124.1z"/>
	<path class="st0" d="M188.4,124.1c0.9,0,1.6-0.7,1.6-1.6s-0.7-1.7-1.6-1.6c-0.9,0-1.6,0.7-1.6,1.6S187.5,124.1,188.4,124.1z"/>
	<path class="st0" d="M201.4,124.1c0.9,0,1.6-0.7,1.6-1.6s-0.7-1.7-1.6-1.6c-0.9,0-1.6,0.7-1.6,1.6
		C199.8,123.4,200.5,124.1,201.4,124.1z"/>
	<path class="st0" d="M214.4,124.1c0.9,0,1.6-0.7,1.6-1.6s-0.7-1.7-1.6-1.6c-0.9,0-1.6,0.7-1.6,1.6S213.5,124.1,214.4,124.1z"/>
	<path class="st0" d="M227.4,124.1c0.9,0,1.6-0.7,1.6-1.6s-0.7-1.7-1.6-1.6c-0.9,0-1.6,0.7-1.6,1.6
		C225.8,123.4,226.5,124.1,227.4,124.1z"/>
	<path class="st0" d="M240.4,124.1c0.9,0,1.6-0.7,1.6-1.6s-0.7-1.7-1.6-1.6c-0.9,0-1.6,0.7-1.6,1.6S239.5,124.1,240.4,124.1z"/>
	<path class="st0" d="M253.4,124.1c0.9,0,1.6-0.7,1.6-1.6s-0.7-1.7-1.6-1.6c-0.9,0-1.6,0.7-1.6,1.6S252.5,124.1,253.4,124.1z"/>
	<path class="st0" d="M45.5,137c0.9,0,1.6-0.7,1.6-1.6c0-0.9-0.7-1.6-1.6-1.6c-0.9,0-1.6,0.7-1.6,1.6C43.9,136.3,44.6,137,45.5,137z
		"/>
	<path class="st0" d="M58.5,137c0.9,0,1.6-0.7,1.6-1.6c0-0.9-0.7-1.6-1.6-1.6c-0.9,0-1.6,0.7-1.6,1.6C56.9,136.3,57.6,137,58.5,137z
		"/>
	<path class="st0" d="M71.5,137c0.9,0,1.6-0.7,1.6-1.6c0-0.9-0.7-1.6-1.6-1.6c-0.9,0-1.6,0.7-1.6,1.6C69.9,136.3,70.6,137,71.5,137z
		"/>
	<path class="st0" d="M84.5,137c0.9,0,1.6-0.7,1.6-1.6c0-0.8-0.7-1.6-1.6-1.6c-0.9,0-1.6,0.7-1.6,1.6C82.9,136.3,83.6,137,84.5,137z
		"/>
	<path class="st0" d="M97.5,137c0.9,0,1.6-0.7,1.6-1.6c0-0.9-0.7-1.6-1.6-1.6c-0.9,0-1.6,0.7-1.6,1.6C95.9,136.3,96.6,137,97.5,137z
		"/>
	<path class="st0" d="M110.5,137c0.9,0,1.6-0.7,1.6-1.6c0-0.9-0.7-1.6-1.6-1.6c-0.9,0-1.6,0.7-1.6,1.6
		C108.9,136.3,109.6,137,110.5,137z"/>
	<path class="st0" d="M123.5,137c0.9,0,1.6-0.7,1.6-1.6c0-0.9-0.7-1.6-1.6-1.6c-0.9,0-1.6,0.7-1.6,1.6
		C121.9,136.3,122.6,137,123.5,137z"/>
	<path class="st0" d="M136.5,137c0.9,0,1.6-0.7,1.6-1.6c0-0.9-0.8-1.6-1.6-1.6c-0.9,0-1.6,0.7-1.6,1.6
		C134.9,136.3,135.6,137,136.5,137z"/>
	<path class="st0" d="M149.5,137c0.9,0,1.6-0.7,1.6-1.6c0-0.9-0.8-1.6-1.6-1.6c-0.9,0-1.6,0.7-1.6,1.6
		C147.9,136.3,148.6,137,149.5,137z"/>
	<path class="st0" d="M162.5,137c0.9,0,1.6-0.7,1.6-1.6c0-0.9-0.8-1.6-1.6-1.6c-0.9,0-1.6,0.7-1.6,1.6
		C160.9,136.3,161.6,137,162.5,137z"/>
	<path class="st0" d="M175.4,137c0.9,0,1.6-0.7,1.6-1.6c0-0.9-0.7-1.6-1.6-1.6c-0.9,0-1.6,0.7-1.6,1.6
		C173.8,136.3,174.5,137,175.4,137z"/>
	<path class="st0" d="M188.4,137c0.9,0,1.6-0.7,1.6-1.6c0-0.9-0.7-1.6-1.6-1.6c-0.9,0-1.6,0.7-1.6,1.6
		C186.8,136.3,187.5,137,188.4,137z"/>
	<path class="st0" d="M201.4,137c0.9,0,1.6-0.7,1.6-1.6c0-0.9-0.7-1.6-1.6-1.6c-0.9,0-1.6,0.7-1.6,1.6
		C199.8,136.3,200.5,137,201.4,137z"/>
	<path class="st0" d="M214.4,137c0.9,0,1.6-0.7,1.6-1.6c0-0.9-0.7-1.6-1.6-1.6c-0.9,0-1.6,0.7-1.6,1.6
		C212.8,136.3,213.5,137,214.4,137z"/>
	<path class="st0" d="M227.4,137c0.9,0,1.6-0.7,1.6-1.6c0-0.9-0.7-1.6-1.6-1.6c-0.9,0-1.6,0.7-1.6,1.6
		C225.8,136.3,226.5,137,227.4,137z"/>
	<path class="st0" d="M240.4,137c0.9,0,1.6-0.7,1.6-1.6c0-0.9-0.7-1.6-1.6-1.6c-0.9,0-1.6,0.7-1.6,1.6
		C238.8,136.3,239.5,137,240.4,137z"/>
	<circle class="st0" cx="253.4" cy="135.4" r="1.6"/>
	<path class="st0" d="M32.5,150c0.9,0,1.6-0.7,1.6-1.6c0-0.9-0.7-1.6-1.6-1.6c-0.9,0-1.6,0.7-1.6,1.6C30.9,149.3,31.6,150,32.5,150z
		"/>
	<path class="st0" d="M45.5,150c0.9,0,1.6-0.7,1.6-1.6c0-0.9-0.7-1.6-1.6-1.6c-0.9,0-1.6,0.7-1.6,1.6C43.9,149.3,44.6,150,45.5,150z
		"/>
	<path class="st0" d="M58.5,150c0.9,0,1.6-0.7,1.6-1.6c0-0.9-0.7-1.6-1.6-1.6c-0.9,0-1.6,0.7-1.6,1.6C56.9,149.3,57.6,150,58.5,150z
		"/>
	<path class="st0" d="M71.5,150c0.9,0,1.6-0.7,1.6-1.6c0-0.9-0.7-1.6-1.6-1.6c-0.9,0-1.6,0.7-1.6,1.6C69.9,149.3,70.6,150,71.5,150z
		"/>
	<path class="st0" d="M84.5,150c0.9,0,1.6-0.7,1.6-1.6c0-0.9-0.7-1.6-1.6-1.6c-0.9,0-1.6,0.7-1.6,1.6C82.9,149.3,83.6,150,84.5,150z
		"/>
	<path class="st0" d="M97.5,150c0.9,0,1.6-0.7,1.6-1.6c0-0.9-0.7-1.6-1.6-1.6c-0.9,0-1.6,0.7-1.6,1.6C95.9,149.3,96.6,150,97.5,150z
		"/>
	<path class="st0" d="M110.5,150c0.9,0,1.6-0.7,1.6-1.6c0-0.9-0.7-1.6-1.6-1.6c-0.9,0-1.6,0.7-1.6,1.6
		C108.9,149.3,109.6,150,110.5,150z"/>
	<path class="st0" d="M123.5,150c0.9,0,1.6-0.7,1.6-1.6c0-0.9-0.7-1.6-1.6-1.6c-0.9,0-1.6,0.7-1.6,1.6
		C121.9,149.3,122.6,150,123.5,150z"/>
	<path class="st0" d="M136.5,150c0.9,0,1.6-0.7,1.6-1.6c0-0.9-0.8-1.6-1.6-1.6c-0.9,0-1.6,0.7-1.6,1.6
		C134.9,149.3,135.6,150,136.5,150z"/>
	<path class="st0" d="M149.5,150c0.9,0,1.6-0.7,1.6-1.6c0-0.9-0.8-1.6-1.6-1.6c-0.9,0-1.6,0.7-1.6,1.6
		C147.9,149.3,148.6,150,149.5,150z"/>
	<path class="st0" d="M162.5,150c0.9,0,1.6-0.7,1.6-1.6c0-0.9-0.8-1.6-1.6-1.6c-0.9,0-1.6,0.7-1.6,1.6
		C160.9,149.3,161.6,150,162.5,150z"/>
	<path class="st0" d="M175.4,150c0.9,0,1.6-0.7,1.6-1.6c0-0.9-0.7-1.6-1.6-1.6c-0.9,0-1.6,0.7-1.6,1.6
		C173.8,149.3,174.5,150,175.4,150z"/>
	<path class="st0" d="M188.4,150c0.9,0,1.6-0.7,1.6-1.6c0-0.9-0.7-1.6-1.6-1.6c-0.9,0-1.6,0.7-1.6,1.6
		C186.8,149.3,187.5,150,188.4,150z"/>
	<path class="st0" d="M201.4,150c0.9,0,1.6-0.7,1.6-1.6c0-0.9-0.7-1.6-1.6-1.6c-0.9,0-1.6,0.7-1.6,1.6
		C199.8,149.3,200.5,150,201.4,150z"/>
	<path class="st0" d="M214.4,150c0.9,0,1.6-0.7,1.6-1.6c0-0.9-0.7-1.6-1.6-1.6c-0.9,0-1.6,0.7-1.6,1.6
		C212.8,149.3,213.5,150,214.4,150z"/>
	<path class="st0" d="M227.4,150c0.9,0,1.6-0.7,1.6-1.6c0-0.9-0.7-1.6-1.6-1.6c-0.9,0-1.6,0.7-1.6,1.6
		C225.8,149.3,226.5,150,227.4,150z"/>
	<path class="st0" d="M240.4,150c0.9,0,1.6-0.7,1.6-1.6c0-0.9-0.7-1.6-1.6-1.6c-0.9,0-1.6,0.7-1.6,1.6
		C238.8,149.3,239.5,150,240.4,150z"/>
	<circle class="st0" cx="253.4" cy="148.4" r="1.6"/>
	<path class="st0" d="M32.5,163c0.9,0,1.6-0.7,1.6-1.6c0-0.9-0.7-1.6-1.6-1.6c-0.9,0-1.6,0.7-1.6,1.6C30.9,162.3,31.6,163,32.5,163z
		"/>
	<path class="st0" d="M45.5,163c0.9,0,1.6-0.7,1.6-1.6c0-0.9-0.7-1.6-1.6-1.6c-0.9,0-1.6,0.7-1.6,1.6C43.9,162.3,44.6,163,45.5,163z
		"/>
	<path class="st0" d="M58.5,163c0.9,0,1.6-0.7,1.6-1.6c0-0.9-0.7-1.6-1.6-1.6c-0.9,0-1.6,0.7-1.6,1.6C56.9,162.3,57.6,163,58.5,163z
		"/>
	<path class="st0" d="M71.5,163c0.9,0,1.6-0.7,1.6-1.6c0-0.9-0.7-1.6-1.6-1.6c-0.9,0-1.6,0.7-1.6,1.6C69.9,162.3,70.6,163,71.5,163z
		"/>
	<path class="st0" d="M84.5,163c0.9,0,1.6-0.7,1.6-1.6c0-0.9-0.7-1.6-1.6-1.6c-0.9,0-1.6,0.7-1.6,1.6C82.9,162.3,83.6,163,84.5,163z
		"/>
	<path class="st0" d="M97.5,163c0.9,0,1.6-0.7,1.6-1.6c0-0.9-0.7-1.6-1.6-1.6c-0.9,0-1.6,0.7-1.6,1.6C95.9,162.3,96.6,163,97.5,163z
		"/>
	<path class="st0" d="M110.5,163c0.9,0,1.6-0.7,1.6-1.6c0-0.9-0.7-1.6-1.6-1.6c-0.9,0-1.6,0.7-1.6,1.6
		C108.9,162.3,109.6,163,110.5,163z"/>
	<path class="st0" d="M123.5,163c0.9,0,1.6-0.7,1.6-1.6c0-0.9-0.7-1.6-1.6-1.6c-0.9,0-1.6,0.7-1.6,1.6
		C121.9,162.3,122.6,163,123.5,163z"/>
	<path class="st0" d="M136.5,163c0.9,0,1.6-0.7,1.6-1.6c0-0.9-0.8-1.6-1.6-1.6c-0.9,0-1.6,0.7-1.6,1.6
		C134.9,162.3,135.6,163,136.5,163z"/>
	<path class="st0" d="M149.5,163c0.9,0,1.6-0.7,1.6-1.6c0-0.9-0.8-1.6-1.6-1.6c-0.9,0-1.6,0.7-1.6,1.6
		C147.9,162.3,148.6,163,149.5,163z"/>
	<path class="st0" d="M162.5,163c0.9,0,1.6-0.7,1.6-1.6c0-0.9-0.8-1.6-1.6-1.6c-0.9,0-1.6,0.7-1.6,1.6
		C160.9,162.3,161.6,163,162.5,163z"/>
	<path class="st0" d="M175.4,163c0.9,0,1.6-0.7,1.6-1.6c0-0.9-0.7-1.6-1.6-1.6c-0.9,0-1.6,0.7-1.6,1.6
		C173.8,162.3,174.5,163,175.4,163z"/>
	<path class="st0" d="M188.4,163c0.9,0,1.6-0.7,1.6-1.6c0-0.9-0.7-1.6-1.6-1.6c-0.9,0-1.6,0.7-1.6,1.6
		C186.8,162.3,187.5,163,188.4,163z"/>
	<path class="st0" d="M201.4,163c0.9,0,1.6-0.7,1.6-1.6c0-0.9-0.7-1.6-1.6-1.6c-0.9,0-1.6,0.7-1.6,1.6
		C199.8,162.3,200.5,163,201.4,163z"/>
	<path class="st0" d="M214.4,163c0.9,0,1.6-0.7,1.6-1.6c0-0.9-0.7-1.6-1.6-1.6c-0.9,0-1.6,0.7-1.6,1.6
		C212.8,162.3,213.5,163,214.4,163z"/>
	<path class="st0" d="M227.4,163c0.9,0,1.6-0.7,1.6-1.6c0-0.9-0.7-1.6-1.6-1.6c-0.9,0-1.6,0.7-1.6,1.6
		C225.8,162.3,226.5,163,227.4,163z"/>
	<path class="st0" d="M240.4,163c0.9,0,1.6-0.7,1.6-1.6c0-0.9-0.7-1.6-1.6-1.6c-0.9,0-1.6,0.7-1.6,1.6
		C238.8,162.3,239.5,163,240.4,163z"/>
	<circle class="st0" cx="253.4" cy="161.4" r="1.6"/>
	<path class="st0" d="M32.5,176c0.9,0,1.6-0.7,1.6-1.6c0-0.9-0.7-1.6-1.6-1.6c-0.9,0-1.6,0.7-1.6,1.6C30.9,175.3,31.6,176,32.5,176z
		"/>
	<path class="st0" d="M45.5,176c0.9,0,1.6-0.7,1.6-1.6c0-0.9-0.7-1.6-1.6-1.6c-0.9,0-1.6,0.7-1.6,1.6C43.9,175.3,44.6,176,45.5,176z
		"/>
	<path class="st0" d="M58.5,176c0.9,0,1.6-0.7,1.6-1.6c0-0.9-0.7-1.6-1.6-1.6c-0.9,0-1.6,0.7-1.6,1.6C56.9,175.3,57.6,176,58.5,176z
		"/>
	<path class="st0" d="M71.5,176c0.9,0,1.6-0.7,1.6-1.6c0-0.9-0.7-1.6-1.6-1.6c-0.9,0-1.6,0.7-1.6,1.6C69.9,175.3,70.6,176,71.5,176z
		"/>
	<path class="st0" d="M84.5,176c0.9,0,1.6-0.7,1.6-1.6c0-0.9-0.7-1.6-1.6-1.6c-0.9,0-1.6,0.7-1.6,1.6C82.9,175.3,83.6,176,84.5,176z
		"/>
	<path class="st0" d="M97.5,176c0.9,0,1.6-0.7,1.6-1.6c0-0.9-0.7-1.6-1.6-1.6c-0.9,0-1.6,0.7-1.6,1.6C95.9,175.3,96.6,176,97.5,176z
		"/>
	<path class="st0" d="M110.5,176c0.9,0,1.6-0.7,1.6-1.6c0-0.9-0.7-1.6-1.6-1.6c-0.9,0-1.6,0.7-1.6,1.6
		C108.9,175.3,109.6,176,110.5,176z"/>
	<path class="st0" d="M123.5,176c0.9,0,1.6-0.7,1.6-1.6c0-0.9-0.7-1.6-1.6-1.6c-0.9,0-1.6,0.7-1.6,1.6
		C121.9,175.3,122.6,176,123.5,176z"/>
	<path class="st0" d="M136.5,176c0.9,0,1.6-0.7,1.6-1.6c0-0.9-0.8-1.6-1.6-1.6c-0.9,0-1.6,0.7-1.6,1.6
		C134.9,175.3,135.6,176,136.5,176z"/>
	<path class="st0" d="M149.5,176c0.9,0,1.6-0.7,1.6-1.6c0-0.9-0.8-1.6-1.6-1.6c-0.9,0-1.6,0.7-1.6,1.6
		C147.9,175.3,148.6,176,149.5,176z"/>
	<path class="st0" d="M162.5,176c0.9,0,1.6-0.7,1.6-1.6c0-0.9-0.8-1.6-1.6-1.6c-0.9,0-1.6,0.7-1.6,1.6
		C160.9,175.3,161.6,176,162.5,176z"/>
	<path class="st0" d="M175.4,176c0.9,0,1.6-0.7,1.6-1.6c0-0.9-0.7-1.6-1.6-1.6c-0.9,0-1.6,0.7-1.6,1.6
		C173.8,175.3,174.5,176,175.4,176z"/>
	<path class="st0" d="M188.4,176c0.9,0,1.6-0.7,1.6-1.6c0-0.9-0.7-1.6-1.6-1.6c-0.9,0-1.6,0.7-1.6,1.6
		C186.8,175.3,187.5,176,188.4,176z"/>
	<path class="st0" d="M201.4,176c0.9,0,1.6-0.7,1.6-1.6c0-0.9-0.7-1.6-1.6-1.6c-0.9,0-1.6,0.7-1.6,1.6
		C199.8,175.3,200.5,176,201.4,176z"/>
	<path class="st0" d="M214.4,176c0.9,0,1.6-0.7,1.6-1.6c0-0.9-0.7-1.6-1.6-1.6c-0.9,0-1.6,0.7-1.6,1.6
		C212.8,175.3,213.5,176,214.4,176z"/>
	<path class="st0" d="M227.4,176c0.9,0,1.6-0.7,1.6-1.6c0-0.9-0.7-1.6-1.6-1.6c-0.9,0-1.6,0.7-1.6,1.6
		C225.8,175.3,226.5,176,227.4,176z"/>
	<path class="st0" d="M240.4,176c0.9,0,1.6-0.7,1.6-1.6c0-0.9-0.7-1.6-1.6-1.6c-0.9,0-1.6,0.7-1.6,1.6
		C238.8,175.3,239.5,176,240.4,176z"/>
	<circle class="st0" cx="253.4" cy="174.4" r="1.6"/>
	<path class="st0" d="M19.5,189c0.9,0,1.6-0.7,1.6-1.6c0-0.9-0.7-1.6-1.6-1.6c-0.9,0-1.6,0.7-1.6,1.6C17.9,188.3,18.6,189,19.5,189z
		"/>
	<path class="st0" d="M32.5,189c0.9,0,1.6-0.7,1.6-1.6c0-0.9-0.7-1.6-1.6-1.6c-0.9,0-1.6,0.7-1.6,1.6C30.9,188.3,31.6,189,32.5,189z
		"/>
	<path class="st0" d="M45.5,189c0.9,0,1.6-0.7,1.6-1.6c0-0.9-0.7-1.6-1.6-1.6c-0.9,0-1.6,0.7-1.6,1.6C43.9,188.3,44.6,189,45.5,189z
		"/>
	<path class="st0" d="M58.5,189c0.9,0,1.6-0.7,1.6-1.6c0-0.9-0.7-1.6-1.6-1.6c-0.9,0-1.6,0.7-1.6,1.6C56.9,188.3,57.6,189,58.5,189z
		"/>
	<path class="st0" d="M71.5,189c0.9,0,1.6-0.7,1.6-1.6c0-0.9-0.7-1.6-1.6-1.6c-0.9,0-1.6,0.7-1.6,1.6C69.9,188.3,70.6,189,71.5,189z
		"/>
	<path class="st0" d="M84.5,189c0.9,0,1.6-0.7,1.6-1.6c0-0.9-0.7-1.6-1.6-1.6c-0.9,0-1.6,0.7-1.6,1.6C82.9,188.3,83.6,189,84.5,189z
		"/>
	<path class="st0" d="M97.5,189c0.9,0,1.6-0.7,1.6-1.6c0-0.9-0.7-1.6-1.6-1.6c-0.9,0-1.6,0.7-1.6,1.6C95.9,188.3,96.6,189,97.5,189z
		"/>
	<path class="st0" d="M110.5,189c0.9,0,1.6-0.7,1.6-1.6c0-0.9-0.7-1.6-1.6-1.6c-0.9,0-1.6,0.7-1.6,1.6
		C108.9,188.3,109.6,189,110.5,189z"/>
	<path class="st0" d="M123.5,189c0.9,0,1.6-0.7,1.6-1.6c0-0.9-0.7-1.6-1.6-1.6c-0.9,0-1.6,0.7-1.6,1.6
		C121.9,188.3,122.6,189,123.5,189z"/>
	<path class="st0" d="M136.5,189c0.9,0,1.6-0.7,1.6-1.6c0-0.9-0.8-1.6-1.6-1.6c-0.9,0-1.6,0.7-1.6,1.6
		C134.9,188.3,135.6,189,136.5,189z"/>
	<path class="st0" d="M149.5,189c0.9,0,1.6-0.7,1.6-1.6c0-0.9-0.8-1.6-1.6-1.6c-0.9,0-1.6,0.7-1.6,1.6
		C147.9,188.3,148.6,189,149.5,189z"/>
	<path class="st0" d="M162.5,189c0.9,0,1.6-0.7,1.6-1.6c0-0.9-0.8-1.6-1.6-1.6c-0.9,0-1.6,0.7-1.6,1.6
		C160.9,188.3,161.6,189,162.5,189z"/>
	<path class="st0" d="M175.4,189c0.9,0,1.6-0.7,1.6-1.6c0-0.9-0.7-1.6-1.6-1.6c-0.9,0-1.6,0.7-1.6,1.6
		C173.8,188.3,174.5,189,175.4,189z"/>
	<path class="st0" d="M188.4,189c0.9,0,1.6-0.7,1.6-1.6c0-0.9-0.7-1.6-1.6-1.6c-0.9,0-1.6,0.7-1.6,1.6
		C186.8,188.3,187.5,189,188.4,189z"/>
	<path class="st0" d="M201.4,189c0.9,0,1.6-0.7,1.6-1.6c0-0.9-0.7-1.6-1.6-1.6c-0.9,0-1.6,0.7-1.6,1.6
		C199.8,188.3,200.5,189,201.4,189z"/>
	<path class="st0" d="M214.4,189c0.9,0,1.6-0.7,1.6-1.6c0-0.9-0.7-1.6-1.6-1.6c-0.9,0-1.6,0.7-1.6,1.6
		C212.8,188.3,213.5,189,214.4,189z"/>
	<path class="st0" d="M227.4,189c0.9,0,1.6-0.7,1.6-1.6c0-0.9-0.7-1.6-1.6-1.6c-0.9,0-1.6,0.7-1.6,1.6
		C225.8,188.3,226.5,189,227.4,189z"/>
	<path class="st0" d="M240.4,189c0.9,0,1.6-0.7,1.6-1.6c0-0.9-0.7-1.6-1.6-1.6c-0.9,0-1.6,0.7-1.6,1.6
		C238.8,188.3,239.5,189,240.4,189z"/>
	<path class="st0" d="M253.4,189c0.9,0,1.6-0.7,1.6-1.6c0-0.9-0.7-1.6-1.6-1.6c-0.9,0-1.6,0.7-1.6,1.6
		C251.8,188.3,252.5,189,253.4,189z"/>
	<path class="st0" d="M19.5,202c0.9,0,1.6-0.7,1.6-1.6c0-0.9-0.7-1.6-1.6-1.6c-0.9,0-1.6,0.7-1.6,1.6C17.9,201.3,18.6,202,19.5,202z
		"/>
	<path class="st0" d="M32.5,202c0.9,0,1.6-0.7,1.6-1.6c0-0.9-0.7-1.6-1.6-1.6c-0.9,0-1.6,0.7-1.6,1.6C30.9,201.3,31.6,202,32.5,202z
		"/>
	<path class="st0" d="M45.5,202c0.9,0,1.6-0.7,1.6-1.6c0-0.9-0.7-1.6-1.6-1.6c-0.9,0-1.6,0.7-1.6,1.6C43.9,201.3,44.6,202,45.5,202z
		"/>
	<path class="st0" d="M58.5,202c0.9,0,1.6-0.7,1.6-1.6c0-0.9-0.7-1.6-1.6-1.6c-0.9,0-1.6,0.7-1.6,1.6C56.9,201.3,57.6,202,58.5,202z
		"/>
	<path class="st0" d="M71.5,202c0.9,0,1.6-0.7,1.6-1.6c0-0.9-0.7-1.6-1.6-1.6c-0.9,0-1.6,0.7-1.6,1.6C69.9,201.3,70.6,202,71.5,202z
		"/>
	<path class="st0" d="M84.5,202c0.9,0,1.6-0.7,1.6-1.6c0-0.9-0.7-1.6-1.6-1.6c-0.9,0-1.6,0.7-1.6,1.6C82.9,201.3,83.6,202,84.5,202z
		"/>
	<path class="st0" d="M97.5,202c0.9,0,1.6-0.7,1.6-1.6c0-0.9-0.7-1.6-1.6-1.6c-0.9,0-1.6,0.7-1.6,1.6C95.9,201.3,96.6,202,97.5,202z
		"/>
	<path class="st0" d="M110.5,202c0.9,0,1.6-0.7,1.6-1.6c0-0.9-0.7-1.6-1.6-1.6c-0.9,0-1.6,0.7-1.6,1.6
		C108.9,201.3,109.6,202,110.5,202z"/>
	<path class="st0" d="M123.5,202c0.9,0,1.6-0.7,1.6-1.6c0-0.9-0.7-1.6-1.6-1.6c-0.9,0-1.6,0.7-1.6,1.6
		C121.9,201.3,122.6,202,123.5,202z"/>
	<path class="st0" d="M136.5,202c0.9,0,1.6-0.7,1.6-1.6c0-0.9-0.8-1.6-1.6-1.6c-0.9,0-1.6,0.7-1.6,1.6
		C134.9,201.3,135.6,202,136.5,202z"/>
	<path class="st0" d="M149.5,202c0.9,0,1.6-0.7,1.6-1.6c0-0.9-0.8-1.6-1.6-1.6c-0.9,0-1.6,0.7-1.6,1.6
		C147.9,201.3,148.6,202,149.5,202z"/>
	<path class="st0" d="M162.5,202c0.9,0,1.6-0.7,1.6-1.6c0-0.9-0.8-1.6-1.6-1.6c-0.9,0-1.6,0.7-1.6,1.6
		C160.9,201.3,161.6,202,162.5,202z"/>
	<path class="st0" d="M175.4,202c0.9,0,1.6-0.7,1.6-1.6c0-0.9-0.7-1.6-1.6-1.6c-0.9,0-1.6,0.7-1.6,1.6
		C173.8,201.3,174.5,202,175.4,202z"/>
	<path class="st0" d="M188.4,202c0.9,0,1.6-0.7,1.6-1.6c0-0.9-0.7-1.6-1.6-1.6c-0.9,0-1.6,0.7-1.6,1.6
		C186.8,201.3,187.5,202,188.4,202z"/>
	<path class="st0" d="M201.4,202c0.9,0,1.6-0.7,1.6-1.6c0-0.9-0.7-1.6-1.6-1.6c-0.9,0-1.6,0.7-1.6,1.6
		C199.8,201.3,200.5,202,201.4,202z"/>
	<path class="st0" d="M214.4,202c0.9,0,1.6-0.7,1.6-1.6c0-0.9-0.7-1.6-1.6-1.6c-0.9,0-1.6,0.7-1.6,1.6
		C212.8,201.3,213.5,202,214.4,202z"/>
	<path class="st0" d="M227.4,202c0.9,0,1.6-0.7,1.6-1.6c0-0.9-0.7-1.6-1.6-1.6c-0.9,0-1.6,0.7-1.6,1.6
		C225.8,201.3,226.5,202,227.4,202z"/>
	<path class="st0" d="M240.4,202c0.9,0,1.6-0.7,1.6-1.6c0-0.9-0.7-1.6-1.6-1.6c-0.9,0-1.6,0.7-1.6,1.6
		C238.8,201.3,239.5,202,240.4,202z"/>
	<circle class="st0" cx="253.4" cy="200.4" r="1.6"/>
	<path class="st0" d="M19.5,215c0.9,0,1.6-0.7,1.6-1.6c0-0.9-0.7-1.6-1.6-1.6c-0.9,0-1.6,0.7-1.6,1.6C17.9,214.3,18.6,215,19.5,215z
		"/>
	<path class="st0" d="M32.5,215c0.9,0,1.6-0.7,1.6-1.6c0-0.9-0.7-1.6-1.6-1.6c-0.9,0-1.6,0.7-1.6,1.6C30.9,214.3,31.6,215,32.5,215z
		"/>
	<path class="st0" d="M45.5,215c0.9,0,1.6-0.7,1.6-1.6c0-0.9-0.7-1.6-1.6-1.6c-0.9,0-1.6,0.7-1.6,1.6C43.9,214.3,44.6,215,45.5,215z
		"/>
	<path class="st0" d="M58.5,215c0.9,0,1.6-0.7,1.6-1.6c0-0.9-0.7-1.6-1.6-1.6c-0.9,0-1.6,0.7-1.6,1.6C56.9,214.3,57.6,215,58.5,215z
		"/>
	<path class="st0" d="M71.5,215c0.9,0,1.6-0.7,1.6-1.6c0-0.9-0.7-1.6-1.6-1.6c-0.9,0-1.6,0.7-1.6,1.6C69.9,214.3,70.6,215,71.5,215z
		"/>
	<path class="st0" d="M84.5,215c0.9,0,1.6-0.7,1.6-1.6c0-0.9-0.7-1.6-1.6-1.6c-0.9,0-1.6,0.7-1.6,1.6C82.9,214.3,83.6,215,84.5,215z
		"/>
	<path class="st0" d="M97.5,215c0.9,0,1.6-0.7,1.6-1.6c0-0.9-0.7-1.6-1.6-1.6c-0.9,0-1.6,0.7-1.6,1.6C95.9,214.3,96.6,215,97.5,215z
		"/>
	<path class="st0" d="M110.5,215c0.9,0,1.6-0.7,1.6-1.6c0-0.9-0.7-1.6-1.6-1.6c-0.9,0-1.6,0.7-1.6,1.6
		C108.9,214.3,109.6,215,110.5,215z"/>
	<path class="st0" d="M123.5,215c0.9,0,1.6-0.7,1.6-1.6c0-0.9-0.7-1.6-1.6-1.6c-0.9,0-1.6,0.7-1.6,1.6
		C121.9,214.3,122.6,215,123.5,215z"/>
	<path class="st0" d="M136.5,215c0.9,0,1.6-0.7,1.6-1.6c0-0.9-0.8-1.6-1.6-1.6c-0.9,0-1.6,0.7-1.6,1.6
		C134.9,214.3,135.6,215,136.5,215z"/>
	<path class="st0" d="M149.5,215c0.9,0,1.6-0.7,1.6-1.6c0-0.9-0.8-1.6-1.6-1.6c-0.9,0-1.6,0.7-1.6,1.6
		C147.9,214.3,148.6,215,149.5,215z"/>
	<path class="st0" d="M162.5,215c0.9,0,1.6-0.7,1.6-1.6c0-0.9-0.8-1.6-1.6-1.6c-0.9,0-1.6,0.7-1.6,1.6
		C160.9,214.3,161.6,215,162.5,215z"/>
	<path class="st0" d="M175.4,215c0.9,0,1.6-0.7,1.6-1.6c0-0.9-0.7-1.6-1.6-1.6c-0.9,0-1.6,0.7-1.6,1.6
		C173.8,214.3,174.5,215,175.4,215z"/>
	<path class="st0" d="M188.4,215c0.9,0,1.6-0.7,1.6-1.6c0-0.9-0.7-1.6-1.6-1.6c-0.9,0-1.6,0.7-1.6,1.6
		C186.8,214.3,187.5,215,188.4,215z"/>
	<path class="st0" d="M201.4,215c0.9,0,1.6-0.7,1.6-1.6c0-0.9-0.7-1.6-1.6-1.6c-0.9,0-1.6,0.7-1.6,1.6
		C199.8,214.3,200.5,215,201.4,215z"/>
	<path class="st0" d="M214.4,215c0.9,0,1.6-0.7,1.6-1.6c0-0.9-0.7-1.6-1.6-1.6c-0.9,0-1.6,0.7-1.6,1.6
		C212.8,214.3,213.5,215,214.4,215z"/>
	<path class="st0" d="M227.4,215c0.9,0,1.6-0.7,1.6-1.6c0-0.9-0.7-1.6-1.6-1.6c-0.9,0-1.6,0.7-1.6,1.6
		C225.8,214.3,226.5,215,227.4,215z"/>
	<path class="st0" d="M240.4,215c0.9,0,1.6-0.7,1.6-1.6c0-0.9-0.7-1.6-1.6-1.6c-0.9,0-1.6,0.7-1.6,1.6
		C238.8,214.3,239.5,215,240.4,215z"/>
	<path class="st0" d="M253.4,215c0.9,0,1.6-0.7,1.6-1.6c0-0.9-0.7-1.6-1.6-1.6c-0.9,0-1.6,0.7-1.6,1.6
		C251.8,214.3,252.5,215,253.4,215z"/>
	<path class="st0" d="M19.5,228c0.9,0,1.6-0.7,1.6-1.6c0-0.9-0.7-1.6-1.6-1.6c-0.9,0-1.6,0.7-1.6,1.6C17.9,227.3,18.6,228,19.5,228z
		"/>
	<path class="st0" d="M32.5,228c0.9,0,1.6-0.7,1.6-1.6c0-0.9-0.7-1.6-1.6-1.6c-0.9,0-1.6,0.7-1.6,1.6C30.9,227.3,31.6,228,32.5,228z
		"/>
	<path class="st0" d="M45.5,228c0.9,0,1.6-0.7,1.6-1.6c0-0.9-0.7-1.6-1.6-1.6c-0.9,0-1.6,0.7-1.6,1.6C43.9,227.3,44.6,228,45.5,228z
		"/>
	<path class="st0" d="M58.5,228c0.9,0,1.6-0.7,1.6-1.6c0-0.9-0.7-1.6-1.6-1.6c-0.9,0-1.6,0.7-1.6,1.6C56.9,227.3,57.6,228,58.5,228z
		"/>
	<path class="st0" d="M71.5,228c0.9,0,1.6-0.7,1.6-1.6c0-0.9-0.7-1.6-1.6-1.6c-0.9,0-1.6,0.7-1.6,1.6C69.9,227.3,70.6,228,71.5,228z
		"/>
	<path class="st0" d="M84.5,228c0.9,0,1.6-0.7,1.6-1.6c0-0.9-0.7-1.6-1.6-1.6c-0.9,0-1.6,0.7-1.6,1.6C82.9,227.3,83.6,228,84.5,228z
		"/>
	<path class="st0" d="M97.5,228c0.9,0,1.6-0.7,1.6-1.6c0-0.9-0.7-1.6-1.6-1.6c-0.9,0-1.6,0.7-1.6,1.6C95.9,227.3,96.6,228,97.5,228z
		"/>
	<path class="st0" d="M110.5,228c0.9,0,1.6-0.7,1.6-1.6c0-0.9-0.7-1.6-1.6-1.6c-0.9,0-1.6,0.7-1.6,1.6
		C108.9,227.3,109.6,228,110.5,228z"/>
	<path class="st0" d="M123.5,228c0.9,0,1.6-0.7,1.6-1.6c0-0.9-0.7-1.6-1.6-1.6c-0.9,0-1.6,0.7-1.6,1.6
		C121.9,227.3,122.6,228,123.5,228z"/>
	<path class="st0" d="M136.5,228c0.9,0,1.6-0.7,1.6-1.6c0-0.9-0.8-1.6-1.6-1.6c-0.9,0-1.6,0.7-1.6,1.6
		C134.9,227.3,135.6,228,136.5,228z"/>
	<path class="st0" d="M149.5,228c0.9,0,1.6-0.7,1.6-1.6c0-0.9-0.8-1.6-1.6-1.6c-0.9,0-1.6,0.7-1.6,1.6
		C147.9,227.3,148.6,228,149.5,228z"/>
	<path class="st0" d="M162.5,228c0.9,0,1.6-0.7,1.6-1.6c0-0.9-0.8-1.6-1.6-1.6c-0.9,0-1.6,0.7-1.6,1.6
		C160.9,227.3,161.6,228,162.5,228z"/>
	<path class="st0" d="M175.4,228c0.9,0,1.6-0.7,1.6-1.6c0-0.9-0.7-1.6-1.6-1.6c-0.9,0-1.6,0.7-1.6,1.6
		C173.8,227.3,174.5,228,175.4,228z"/>
	<path class="st0" d="M188.4,228c0.9,0,1.6-0.7,1.6-1.6c0-0.9-0.7-1.6-1.6-1.6c-0.9,0-1.6,0.7-1.6,1.6
		C186.8,227.3,187.5,228,188.4,228z"/>
	<path class="st0" d="M201.4,228c0.9,0,1.6-0.7,1.6-1.6c0-0.9-0.7-1.6-1.6-1.6c-0.9,0-1.6,0.7-1.6,1.6
		C199.8,227.3,200.5,228,201.4,228z"/>
	<path class="st0" d="M214.4,228c0.9,0,1.6-0.7,1.6-1.6c0-0.9-0.7-1.6-1.6-1.6c-0.9,0-1.6,0.7-1.6,1.6
		C212.8,227.3,213.5,228,214.4,228z"/>
	<path class="st0" d="M227.4,228c0.9,0,1.6-0.7,1.6-1.6c0-0.9-0.7-1.6-1.6-1.6c-0.9,0-1.6,0.7-1.6,1.6
		C225.8,227.3,226.5,228,227.4,228z"/>
	<path class="st0" d="M240.4,228c0.9,0,1.6-0.7,1.6-1.6c0-0.9-0.7-1.6-1.6-1.6c-0.9,0-1.6,0.7-1.6,1.6
		C238.8,227.3,239.5,228,240.4,228z"/>
	<circle class="st0" cx="253.4" cy="226.4" r="1.6"/>
	<path class="st0" d="M19.5,241c0.9,0,1.6-0.7,1.6-1.6c0-0.9-0.7-1.6-1.6-1.6c-0.9,0-1.6,0.7-1.6,1.6C17.9,240.3,18.6,241,19.5,241z
		"/>
	<path class="st0" d="M32.5,241c0.9,0,1.6-0.7,1.6-1.6c0-0.9-0.7-1.6-1.6-1.6c-0.9,0-1.6,0.7-1.6,1.6C30.9,240.3,31.6,241,32.5,241z
		"/>
	<path class="st0" d="M45.5,241c0.9,0,1.6-0.7,1.6-1.6c0-0.9-0.7-1.6-1.6-1.6c-0.9,0-1.6,0.7-1.6,1.6C43.9,240.3,44.6,241,45.5,241z
		"/>
	<path class="st0" d="M58.5,241c0.9,0,1.6-0.7,1.6-1.6c0-0.9-0.7-1.6-1.6-1.6c-0.9,0-1.6,0.7-1.6,1.6C56.9,240.3,57.6,241,58.5,241z
		"/>
	<path class="st0" d="M71.5,241c0.9,0,1.6-0.7,1.6-1.6c0-0.9-0.7-1.6-1.6-1.6c-0.9,0-1.6,0.7-1.6,1.6C69.9,240.3,70.6,241,71.5,241z
		"/>
	<path class="st0" d="M84.5,241c0.9,0,1.6-0.7,1.6-1.6c0-0.9-0.7-1.6-1.6-1.6c-0.9,0-1.6,0.7-1.6,1.6C82.9,240.3,83.6,241,84.5,241z
		"/>
	<path class="st0" d="M97.5,241c0.9,0,1.6-0.7,1.6-1.6c0-0.9-0.7-1.6-1.6-1.6c-0.9,0-1.6,0.7-1.6,1.6C95.9,240.3,96.6,241,97.5,241z
		"/>
	<path class="st0" d="M110.5,241c0.9,0,1.6-0.7,1.6-1.6c0-0.9-0.7-1.6-1.6-1.6c-0.9,0-1.6,0.7-1.6,1.6
		C108.9,240.3,109.6,241,110.5,241z"/>
	<path class="st0" d="M123.5,241c0.9,0,1.6-0.7,1.6-1.6c0-0.9-0.7-1.6-1.6-1.6c-0.9,0-1.6,0.7-1.6,1.6
		C121.9,240.3,122.6,241,123.5,241z"/>
	<path class="st0" d="M136.5,241c0.9,0,1.6-0.7,1.6-1.6c0-0.9-0.8-1.6-1.6-1.6c-0.9,0-1.6,0.7-1.6,1.6
		C134.9,240.3,135.6,241,136.5,241z"/>
	<path class="st0" d="M149.5,241c0.9,0,1.6-0.7,1.6-1.6c0-0.9-0.8-1.6-1.6-1.6c-0.9,0-1.6,0.7-1.6,1.6
		C147.9,240.3,148.6,241,149.5,241z"/>
	<path class="st0" d="M162.5,241c0.9,0,1.6-0.7,1.6-1.6c0-0.9-0.8-1.6-1.6-1.6c-0.9,0-1.6,0.7-1.6,1.6
		C160.9,240.3,161.6,241,162.5,241z"/>
	<path class="st0" d="M175.4,241c0.9,0,1.6-0.7,1.6-1.6c0-0.9-0.7-1.6-1.6-1.6c-0.9,0-1.6,0.7-1.6,1.6
		C173.8,240.3,174.5,241,175.4,241z"/>
	<path class="st0" d="M188.4,241c0.9,0,1.6-0.7,1.6-1.6c0-0.9-0.7-1.6-1.6-1.6c-0.9,0-1.6,0.7-1.6,1.6
		C186.8,240.3,187.5,241,188.4,241z"/>
	<path class="st0" d="M201.4,241c0.9,0,1.6-0.7,1.6-1.6c0-0.9-0.7-1.6-1.6-1.6c-0.9,0-1.6,0.7-1.6,1.6
		C199.8,240.3,200.5,241,201.4,241z"/>
	<path class="st0" d="M214.4,241c0.9,0,1.6-0.7,1.6-1.6c0-0.9-0.7-1.6-1.6-1.6c-0.9,0-1.6,0.7-1.6,1.6
		C212.8,240.3,213.5,241,214.4,241z"/>
	<path class="st0" d="M227.4,241c0.9,0,1.6-0.7,1.6-1.6c0-0.9-0.7-1.6-1.6-1.6c-0.9,0-1.6,0.7-1.6,1.6
		C225.8,240.3,226.5,241,227.4,241z"/>
	<path class="st0" d="M240.4,241c0.9,0,1.6-0.7,1.6-1.6c0-0.9-0.7-1.6-1.6-1.6c-0.9,0-1.6,0.7-1.6,1.6
		C238.8,240.3,239.5,241,240.4,241z"/>
	<path class="st0" d="M253.4,241c0.9,0,1.6-0.7,1.6-1.6c0-0.9-0.7-1.6-1.6-1.6c-0.9,0-1.6,0.7-1.6,1.6
		C251.8,240.3,252.5,241,253.4,241z"/>
	<path class="st0" d="M6.6,254c0.9,0,1.6-0.7,1.6-1.6c0-0.9-0.8-1.7-1.6-1.6c-0.9,0-1.6,0.7-1.6,1.6C5,253.3,5.7,254,6.6,254z"/>
	<path class="st0" d="M19.5,254c0.9,0,1.6-0.7,1.6-1.6c0-0.9-0.7-1.6-1.6-1.6c-0.9,0-1.6,0.7-1.6,1.6C17.9,253.3,18.6,254,19.5,254z
		"/>
	<path class="st0" d="M32.5,254c0.9,0,1.6-0.7,1.6-1.6c0-0.9-0.7-1.6-1.6-1.6c-0.9,0-1.6,0.7-1.6,1.6C30.9,253.3,31.6,254,32.5,254z
		"/>
	<path class="st0" d="M45.5,254c0.9,0,1.6-0.7,1.6-1.6c0-0.9-0.7-1.7-1.6-1.6c-0.9,0-1.6,0.7-1.6,1.6C43.9,253.3,44.6,254,45.5,254z
		"/>
	<path class="st0" d="M58.5,254c0.9,0,1.6-0.7,1.6-1.6c0-0.9-0.7-1.6-1.6-1.6c-0.9,0-1.6,0.7-1.6,1.6C56.9,253.3,57.6,254,58.5,254z
		"/>
	<path class="st0" d="M71.5,254c0.9,0,1.6-0.7,1.6-1.6c0-0.9-0.7-1.6-1.6-1.6c-0.9,0-1.6,0.7-1.6,1.6C69.9,253.3,70.6,254,71.5,254z
		"/>
	<path class="st0" d="M84.5,254c0.9,0,1.6-0.7,1.6-1.6c0-0.9-0.7-1.6-1.6-1.6c-0.9,0-1.6,0.7-1.6,1.6C82.9,253.3,83.6,254,84.5,254z
		"/>
	<path class="st0" d="M97.5,254c0.9,0,1.6-0.7,1.6-1.6c0-0.9-0.7-1.7-1.6-1.6c-0.9,0-1.6,0.7-1.6,1.6C95.9,253.3,96.6,254,97.5,254z
		"/>
	<path class="st0" d="M110.5,254c0.9,0,1.6-0.7,1.6-1.6c0-0.9-0.7-1.6-1.6-1.6c-0.9,0-1.6,0.7-1.6,1.6
		C108.9,253.3,109.6,254,110.5,254z"/>
	<path class="st0" d="M123.5,254c0.9,0,1.6-0.7,1.6-1.6c0-0.9-0.7-1.7-1.6-1.6c-0.9,0-1.6,0.7-1.6,1.6
		C121.9,253.3,122.6,254,123.5,254z"/>
	<path class="st0" d="M136.5,254c0.9,0,1.6-0.7,1.6-1.6c0-0.9-0.8-1.6-1.6-1.6c-0.9,0-1.6,0.7-1.6,1.6
		C134.9,253.3,135.6,254,136.5,254z"/>
	<path class="st0" d="M149.5,254c0.9,0,1.6-0.7,1.6-1.6c0-0.9-0.8-1.7-1.6-1.6c-0.9,0-1.6,0.7-1.6,1.6
		C147.9,253.3,148.6,254,149.5,254z"/>
	<path class="st0" d="M162.5,254c0.9,0,1.6-0.7,1.6-1.6c0-0.9-0.8-1.6-1.6-1.6c-0.9,0-1.6,0.7-1.6,1.6
		C160.9,253.3,161.6,254,162.5,254z"/>
	<path class="st0" d="M175.4,254c0.9,0,1.6-0.7,1.6-1.6c0-0.9-0.7-1.7-1.6-1.6c-0.9,0-1.6,0.7-1.6,1.6
		C173.8,253.3,174.5,254,175.4,254z"/>
	<path class="st0" d="M188.4,254c0.9,0,1.6-0.7,1.6-1.6c0-0.9-0.7-1.7-1.6-1.6c-0.9,0-1.6,0.7-1.6,1.6
		C186.8,253.3,187.5,254,188.4,254z"/>
	<path class="st0" d="M201.4,254c0.9,0,1.6-0.7,1.6-1.6c0-0.9-0.7-1.7-1.6-1.6c-0.9,0-1.6,0.7-1.6,1.6
		C199.8,253.3,200.5,254,201.4,254z"/>
	<path class="st0" d="M214.4,254c0.9,0,1.6-0.7,1.6-1.6c0-0.9-0.7-1.6-1.6-1.6c-0.9,0-1.6,0.7-1.6,1.6
		C212.8,253.3,213.5,254,214.4,254z"/>
	<path class="st0" d="M227.4,254c0.9,0,1.6-0.7,1.6-1.6c0-0.9-0.7-1.7-1.6-1.6c-0.9,0-1.6,0.7-1.6,1.6
		C225.8,253.3,226.5,254,227.4,254z"/>
	<path class="st0" d="M240.4,254c0.9,0,1.6-0.7,1.6-1.6c0-0.9-0.7-1.7-1.6-1.6c-0.9,0-1.6,0.7-1.6,1.6
		C238.8,253.3,239.5,254,240.4,254z"/>
	<circle class="st0" cx="253.4" cy="252.4" r="1.6"/>
	<path class="st0" d="M8.2,239.4c0-0.9-0.8-1.6-1.6-1.6c-0.4,0-0.7,0.1-1,0.3c-0.1,0.8-0.1,1.6-0.2,2.4c0.3,0.3,0.7,0.4,1.1,0.4
		C7.5,241,8.2,240.3,8.2,239.4z"/>
	<path class="st0" d="M8.2,226.4c0-0.8-0.6-1.4-1.3-1.6c-0.1,1-0.2,2.1-0.4,3.2l0,0C7.5,228,8.2,227.3,8.2,226.4z"/>
	<path class="st0" d="M21.1,174.4c0-0.9-0.7-1.6-1.6-1.6c-0.1,0-0.2,0-0.3,0c-0.3,0.9-0.6,1.7-0.9,2.6c0.3,0.3,0.7,0.6,1.2,0.6
		C20.4,176,21.1,175.3,21.1,174.4z"/>
	<path class="st0" d="M123.5,46.1c0.9,0,1.6-0.7,1.6-1.6c0-0.7-0.4-1.3-1-1.5c-0.7,0.4-1.4,0.9-2.2,1.3c0,0.1,0,0.1,0,0.2
		C121.9,45.4,122.6,46.1,123.5,46.1z"/>
	<path class="st0" d="M175.4,20.1c0.9,0,1.6-0.7,1.6-1.6c0,0,0,0,0-0.1c-1,0.3-2,0.6-2.9,1C174.4,19.8,174.8,20.1,175.4,20.1z"/>
	<path class="st0" d="M241.8,6.3c-0.9,0-1.7,0.1-2.6,0.2c0.3,0.4,0.7,0.6,1.2,0.6C241,7.1,241.5,6.8,241.8,6.3z"/>
	<path class="st0" d="M253.4,7.1c0.7,0,1.3-0.5,1.5-1.1c-1,0-2,0-3,0C252.1,6.7,252.7,7.1,253.4,7.1z"/>
	<path class="st0" d="M9.8,213.4c0-0.7-0.4-1.2-0.9-1.5c-0.2,1-0.3,2-0.5,3C9.2,214.9,9.8,214.2,9.8,213.4z"/>
	<path class="st0" d="M12.3,200.4c0-0.6-0.3-1.1-0.8-1.4c-0.2,1-0.4,2-0.7,2.9C11.7,201.9,12.3,201.2,12.3,200.4z"/>
	<path class="st0" d="M24.3,161.4c0-0.4-0.1-0.7-0.4-1c-0.4,0.9-0.7,1.7-1.1,2.6C23.7,162.9,24.3,162.2,24.3,161.4z"/>
	<path class="st0" d="M36.7,137c0.9,0,1.6-0.7,1.6-1.6c0-0.8-0.6-1.5-1.4-1.6c-0.5,0.9-1,1.7-1.4,2.6C35.7,136.8,36.2,137,36.7,137z
		"/>
	<path class="st0" d="M227.4,9.2c0.9,0,1.6-0.7,1.6-1.6c0-0.1,0-0.2,0-0.3c-1.1,0.1-2.1,0.2-3.2,0.4C225.9,8.6,226.5,9.2,227.4,9.2z
		"/>
	<path class="st0" d="M215.8,9.1c-0.8,0.1-1.6,0.3-2.4,0.4c0.3,0.2,0.6,0.4,1.1,0.4S215.5,9.6,215.8,9.1z"/>
	<path class="st0" d="M202.9,11.5c-0.8,0.2-1.7,0.4-2.5,0.5c0.3,0.2,0.6,0.4,1.1,0.4C202.1,12.4,202.6,12,202.9,11.5z"/>
</g>
</svg>
