<?xml version="1.0" encoding="utf-8"?>
<!-- Generator: Adobe Illustrator 24.0.3, SVG Export Plug-In . SVG Version: 6.00 Build 0)  -->
<svg version="1.1" id="Layer_1" xmlns="http://www.w3.org/2000/svg" xmlns:xlink="http://www.w3.org/1999/xlink" x="0px" y="0px"
	 viewBox="0 0 116 116" style="enable-background:new 0 0 116 116;" xml:space="preserve">
<style type="text/css">
	.st0{fill:#DDDDDD;}
</style>
<g>
	<circle class="st0" cx="31.1" cy="108.8" r="0.7"/>
	<circle class="st0" cx="25.2" cy="108.8" r="0.7"/>
	<circle class="st0" cx="19.2" cy="108.8" r="0.7"/>
	<circle class="st0" cx="13.2" cy="108.8" r="0.7"/>
	<circle class="st0" cx="7.2" cy="108.8" r="0.7"/>
	<circle class="st0" cx="1.2" cy="108.8" r="0.7"/>
	<path class="st0" d="M49,102.1c-0.4,0-0.7,0.3-0.7,0.7c0,0.4,0.4,0.7,0.7,0.7c0.4,0,0.7-0.3,0.7-0.7
		C49.8,102.4,49.4,102.1,49,102.1z"/>
	<path class="st0" d="M43,102.1c-0.4,0-0.7,0.3-0.7,0.7c0,0.4,0.4,0.7,0.7,0.7c0.4,0,0.7-0.3,0.7-0.7
		C43.8,102.4,43.5,102.1,43,102.1z"/>
	<path class="st0" d="M37.1,102.1c-0.4,0-0.7,0.3-0.7,0.7c0,0.4,0.3,0.7,0.7,0.7c0.4,0,0.7-0.3,0.7-0.7
		C37.9,102.4,37.5,102.1,37.1,102.1z"/>
	<circle class="st0" cx="31.1" cy="102.8" r="0.7"/>
	<circle class="st0" cx="25.2" cy="102.8" r="0.7"/>
	<circle class="st0" cx="19.2" cy="102.8" r="0.7"/>
	<circle class="st0" cx="13.2" cy="102.8" r="0.7"/>
	<circle class="st0" cx="7.2" cy="102.8" r="0.7"/>
	<circle class="st0" cx="1.2" cy="102.8" r="0.7"/>
	<path class="st0" d="M55,96.1c-0.4,0-0.7,0.3-0.7,0.7c0,0.4,0.4,0.7,0.7,0.7c0.4,0,0.7-0.3,0.7-0.7S55.4,96.1,55,96.1z"/>
	<path class="st0" d="M49,96.1c-0.4,0-0.7,0.3-0.7,0.7c0,0.4,0.4,0.7,0.7,0.7c0.4,0,0.7-0.3,0.7-0.7S49.4,96.1,49,96.1z"/>
	<path class="st0" d="M43,96.1c-0.4,0-0.7,0.3-0.7,0.7c0,0.4,0.4,0.7,0.7,0.7c0.4,0,0.7-0.3,0.7-0.7C43.8,96.5,43.5,96.1,43,96.1z"
		/>
	<path class="st0" d="M37.1,96.1c-0.4,0-0.7,0.3-0.7,0.7c0,0.4,0.3,0.7,0.7,0.7c0.4,0,0.7-0.3,0.7-0.7S37.5,96.1,37.1,96.1z"/>
	<circle class="st0" cx="31.1" cy="96.9" r="0.7"/>
	<circle class="st0" cx="25.2" cy="96.9" r="0.7"/>
	<circle class="st0" cx="19.2" cy="96.9" r="0.7"/>
	<circle class="st0" cx="13.2" cy="96.9" r="0.7"/>
	<circle class="st0" cx="7.2" cy="96.9" r="0.7"/>
	<circle class="st0" cx="1.2" cy="96.9" r="0.7"/>
	<path class="st0" d="M67,90.2c-0.4,0-0.7,0.3-0.7,0.7s0.3,0.7,0.7,0.7c0.4,0,0.7-0.3,0.7-0.7S67.4,90.2,67,90.2z"/>
	<path class="st0" d="M61,90.2c-0.4,0-0.7,0.3-0.7,0.7s0.3,0.7,0.7,0.7c0.4,0,0.7-0.3,0.7-0.7S61.4,90.2,61,90.2z"/>
	<path class="st0" d="M55,90.2c-0.4,0-0.7,0.3-0.7,0.7s0.4,0.7,0.7,0.7c0.4,0,0.7-0.3,0.7-0.7C55.7,90.5,55.4,90.2,55,90.2z"/>
	<path class="st0" d="M49,90.2c-0.4,0-0.7,0.3-0.7,0.7s0.4,0.7,0.7,0.7c0.4,0,0.7-0.3,0.7-0.7C49.8,90.5,49.4,90.2,49,90.2z"/>
	<path class="st0" d="M43,90.2c-0.4,0-0.7,0.3-0.7,0.7s0.4,0.7,0.7,0.7c0.4,0,0.7-0.3,0.7-0.7S43.5,90.2,43,90.2z"/>
	<path class="st0" d="M37.1,90.2c-0.4,0-0.7,0.3-0.7,0.7s0.3,0.7,0.7,0.7c0.4,0,0.7-0.3,0.7-0.7C37.9,90.5,37.5,90.2,37.1,90.2z"/>
	<circle class="st0" cx="31.1" cy="90.9" r="0.7"/>
	<circle class="st0" cx="25.2" cy="90.9" r="0.7"/>
	<circle class="st0" cx="19.2" cy="90.9" r="0.7"/>
	<circle class="st0" cx="13.2" cy="90.9" r="0.7"/>
	<circle class="st0" cx="7.2" cy="90.9" r="0.7"/>
	<circle class="st0" cx="1.2" cy="90.9" r="0.7"/>
	<path class="st0" d="M72.9,84.2c-0.4,0-0.7,0.3-0.7,0.7c0,0.4,0.3,0.7,0.7,0.7s0.7-0.3,0.7-0.7S73.4,84.2,72.9,84.2z"/>
	<path class="st0" d="M67,84.2c-0.4,0-0.7,0.3-0.7,0.7c0,0.4,0.3,0.7,0.7,0.7c0.4,0,0.7-0.3,0.7-0.7S67.4,84.2,67,84.2z"/>
	<path class="st0" d="M61,84.2c-0.4,0-0.7,0.3-0.7,0.7c0,0.4,0.3,0.7,0.7,0.7c0.4,0,0.7-0.3,0.7-0.7S61.4,84.2,61,84.2z"/>
	<path class="st0" d="M55,84.2c-0.4,0-0.7,0.3-0.7,0.7c0,0.4,0.4,0.7,0.7,0.7c0.4,0,0.7-0.3,0.7-0.7S55.4,84.2,55,84.2z"/>
	<path class="st0" d="M49,84.2c-0.4,0-0.7,0.3-0.7,0.7c0,0.4,0.4,0.7,0.7,0.7c0.4,0,0.7-0.3,0.7-0.7S49.4,84.2,49,84.2z"/>
	<path class="st0" d="M43,84.2c-0.4,0-0.7,0.3-0.7,0.7c0,0.4,0.4,0.7,0.7,0.7c0.4,0,0.7-0.3,0.7-0.7S43.5,84.2,43,84.2z"/>
	<path class="st0" d="M37.1,84.2c-0.4,0-0.7,0.3-0.7,0.7c0,0.4,0.3,0.7,0.7,0.7c0.4,0,0.7-0.3,0.7-0.7S37.5,84.2,37.1,84.2z"/>
	<circle class="st0" cx="31.1" cy="84.9" r="0.7"/>
	<circle class="st0" cx="25.2" cy="84.9" r="0.7"/>
	<circle class="st0" cx="19.2" cy="84.9" r="0.7"/>
	<circle class="st0" cx="13.2" cy="84.9" r="0.7"/>
	<circle class="st0" cx="7.2" cy="84.9" r="0.7"/>
	<circle class="st0" cx="1.2" cy="84.9" r="0.7"/>
	<path class="st0" d="M78.9,78.2c-0.4,0-0.7,0.3-0.7,0.7s0.3,0.7,0.7,0.7c0.4,0,0.7-0.3,0.7-0.7C79.7,78.5,79.3,78.2,78.9,78.2z"/>
	<path class="st0" d="M72.9,78.2c-0.4,0-0.7,0.3-0.7,0.7s0.3,0.7,0.7,0.7s0.7-0.3,0.7-0.7S73.4,78.2,72.9,78.2z"/>
	<path class="st0" d="M67,78.2c-0.4,0-0.7,0.3-0.7,0.7s0.3,0.7,0.7,0.7c0.4,0,0.7-0.3,0.7-0.7S67.4,78.2,67,78.2z"/>
	<path class="st0" d="M61,78.2c-0.4,0-0.7,0.3-0.7,0.7s0.3,0.7,0.7,0.7c0.4,0,0.7-0.3,0.7-0.7S61.4,78.2,61,78.2z"/>
	<path class="st0" d="M55,78.2c-0.4,0-0.7,0.3-0.7,0.7s0.4,0.7,0.7,0.7c0.4,0,0.7-0.3,0.7-0.7C55.7,78.5,55.4,78.2,55,78.2z"/>
	<path class="st0" d="M49,78.2c-0.4,0-0.7,0.3-0.7,0.7s0.4,0.7,0.7,0.7c0.4,0,0.7-0.3,0.7-0.7C49.8,78.5,49.4,78.2,49,78.2z"/>
	<path class="st0" d="M43,78.2c-0.4,0-0.7,0.3-0.7,0.7s0.4,0.7,0.7,0.7c0.4,0,0.7-0.3,0.7-0.7S43.5,78.2,43,78.2z"/>
	<path class="st0" d="M37.1,78.2c-0.4,0-0.7,0.3-0.7,0.7s0.3,0.7,0.7,0.7c0.4,0,0.7-0.3,0.7-0.7C37.9,78.5,37.5,78.2,37.1,78.2z"/>
	<circle class="st0" cx="31.1" cy="78.9" r="0.7"/>
	<circle class="st0" cx="25.2" cy="78.9" r="0.7"/>
	<circle class="st0" cx="19.2" cy="78.9" r="0.7"/>
	<circle class="st0" cx="13.2" cy="78.9" r="0.7"/>
	<circle class="st0" cx="7.2" cy="78.9" r="0.7"/>
	<circle class="st0" cx="1.2" cy="78.9" r="0.7"/>
	<path class="st0" d="M84.9,72.2c-0.4,0-0.7,0.3-0.7,0.7c0,0.4,0.3,0.8,0.7,0.7c0.4,0,0.7-0.3,0.7-0.7
		C85.6,72.5,85.3,72.2,84.9,72.2z"/>
	<path class="st0" d="M78.9,72.2c-0.4,0-0.7,0.3-0.7,0.7c0,0.4,0.3,0.8,0.7,0.7c0.4,0,0.7-0.3,0.7-0.7
		C79.7,72.5,79.3,72.2,78.9,72.2z"/>
	<path class="st0" d="M72.9,72.2c-0.4,0-0.7,0.3-0.7,0.7c0,0.4,0.3,0.8,0.7,0.7c0.4,0,0.7-0.3,0.7-0.7
		C73.7,72.5,73.4,72.2,72.9,72.2z"/>
	<path class="st0" d="M67,72.2c-0.4,0-0.7,0.3-0.7,0.7c0,0.4,0.3,0.8,0.7,0.7c0.4,0,0.7-0.3,0.7-0.7C67.7,72.5,67.4,72.2,67,72.2z"
		/>
	<path class="st0" d="M61,72.2c-0.4,0-0.7,0.3-0.7,0.7c0,0.4,0.3,0.8,0.7,0.7c0.4,0,0.7-0.3,0.7-0.7C61.7,72.5,61.4,72.2,61,72.2z"
		/>
	<path class="st0" d="M55,72.2c-0.4,0-0.7,0.3-0.7,0.7c0,0.4,0.4,0.8,0.7,0.7c0.4,0,0.7-0.3,0.7-0.7C55.7,72.5,55.4,72.2,55,72.2z"
		/>
	<path class="st0" d="M49,72.2c-0.4,0-0.7,0.3-0.7,0.7c0,0.4,0.4,0.8,0.7,0.7c0.4,0,0.7-0.3,0.7-0.7C49.8,72.5,49.4,72.2,49,72.2z"
		/>
	<path class="st0" d="M43,72.2c-0.4,0-0.7,0.3-0.7,0.7c0,0.4,0.4,0.8,0.7,0.7c0.4,0,0.7-0.3,0.7-0.7C43.8,72.5,43.5,72.2,43,72.2z"
		/>
	<path class="st0" d="M37.1,72.2c-0.4,0-0.7,0.3-0.7,0.7c0,0.4,0.3,0.8,0.7,0.7c0.4,0,0.7-0.3,0.7-0.7
		C37.9,72.5,37.5,72.2,37.1,72.2z"/>
	<path class="st0" d="M31.1,72.2c-0.4,0-0.7,0.3-0.7,0.7c0,0.4,0.3,0.8,0.7,0.7c0.4,0,0.7-0.3,0.7-0.7
		C31.9,72.5,31.5,72.2,31.1,72.2z"/>
	<path class="st0" d="M25.2,72.2c-0.4,0-0.7,0.3-0.7,0.7c0,0.4,0.3,0.8,0.7,0.7c0.4,0,0.7-0.3,0.7-0.7
		C25.9,72.5,25.6,72.2,25.2,72.2z"/>
	<path class="st0" d="M19.2,72.2c-0.4,0-0.7,0.3-0.7,0.7c0,0.4,0.3,0.8,0.7,0.7c0.4,0,0.7-0.3,0.7-0.7
		C19.9,72.5,19.6,72.2,19.2,72.2z"/>
	<path class="st0" d="M13.2,72.2c-0.4,0-0.7,0.3-0.7,0.7c0,0.4,0.3,0.8,0.7,0.7c0.4,0,0.7-0.3,0.7-0.7
		C13.9,72.5,13.6,72.2,13.2,72.2z"/>
	<path class="st0" d="M7.2,72.2c-0.4,0-0.7,0.3-0.7,0.7c0,0.4,0.3,0.8,0.7,0.7c0.4,0,0.7-0.3,0.7-0.7C8,72.5,7.6,72.2,7.2,72.2z"/>
	<path class="st0" d="M1.2,72.2c-0.4,0-0.7,0.3-0.7,0.7c0,0.4,0.3,0.8,0.7,0.7c0.4,0,0.7-0.3,0.7-0.7C2,72.5,1.6,72.2,1.2,72.2z"/>
	<path class="st0" d="M90.9,66.2c-0.4,0-0.7,0.3-0.7,0.7c0,0.4,0.3,0.8,0.7,0.7c0.4,0,0.7-0.3,0.7-0.7
		C91.6,66.6,91.3,66.2,90.9,66.2z"/>
	<path class="st0" d="M84.9,66.2c-0.4,0-0.7,0.3-0.7,0.7c0,0.4,0.3,0.8,0.7,0.7c0.4,0,0.7-0.3,0.7-0.7S85.3,66.2,84.9,66.2z"/>
	<path class="st0" d="M78.9,66.2c-0.4,0-0.7,0.3-0.7,0.7c0,0.4,0.3,0.8,0.7,0.7c0.4,0,0.7-0.3,0.7-0.7
		C79.7,66.6,79.3,66.2,78.9,66.2z"/>
	<path class="st0" d="M72.9,66.2c-0.4,0-0.7,0.3-0.7,0.7c0,0.4,0.3,0.8,0.7,0.7c0.4,0,0.7-0.3,0.7-0.7S73.4,66.2,72.9,66.2z"/>
	<path class="st0" d="M67,66.2c-0.4,0-0.7,0.3-0.7,0.7c0,0.4,0.3,0.8,0.7,0.7c0.4,0,0.7-0.3,0.7-0.7S67.4,66.2,67,66.2z"/>
	<path class="st0" d="M61,66.2c-0.4,0-0.7,0.3-0.7,0.7c0,0.4,0.3,0.8,0.7,0.7c0.4,0,0.7-0.3,0.7-0.7S61.4,66.2,61,66.2z"/>
	<path class="st0" d="M55,66.2c-0.4,0-0.7,0.3-0.7,0.7c0,0.4,0.4,0.8,0.7,0.7c0.4,0,0.7-0.3,0.7-0.7S55.4,66.2,55,66.2z"/>
	<path class="st0" d="M49,66.2c-0.4,0-0.7,0.3-0.7,0.7c0,0.4,0.4,0.8,0.7,0.7c0.4,0,0.7-0.3,0.7-0.7C49.8,66.6,49.4,66.2,49,66.2z"
		/>
	<path class="st0" d="M43,66.2c-0.4,0-0.7,0.3-0.7,0.7c0,0.4,0.4,0.8,0.7,0.7c0.4,0,0.7-0.3,0.7-0.7S43.5,66.2,43,66.2z"/>
	<path class="st0" d="M37.1,66.2c-0.4,0-0.7,0.3-0.7,0.7c0,0.4,0.3,0.8,0.7,0.7c0.4,0,0.7-0.3,0.7-0.7S37.5,66.2,37.1,66.2z"/>
	<path class="st0" d="M31.1,66.2c-0.4,0-0.7,0.3-0.7,0.7c0,0.4,0.3,0.8,0.7,0.7c0.4,0,0.7-0.3,0.7-0.7S31.5,66.2,31.1,66.2z"/>
	<path class="st0" d="M25.2,66.2c-0.4,0-0.7,0.3-0.7,0.7c0,0.4,0.3,0.8,0.7,0.7c0.4,0,0.7-0.3,0.7-0.7
		C25.9,66.6,25.6,66.2,25.2,66.2z"/>
	<path class="st0" d="M19.2,66.2c-0.4,0-0.7,0.3-0.7,0.7c0,0.4,0.3,0.8,0.7,0.7c0.4,0,0.7-0.3,0.7-0.7
		C19.9,66.6,19.6,66.2,19.2,66.2z"/>
	<path class="st0" d="M13.2,66.2c-0.4,0-0.7,0.3-0.7,0.7c0,0.4,0.3,0.8,0.7,0.7c0.4,0,0.7-0.3,0.7-0.7
		C13.9,66.6,13.6,66.2,13.2,66.2z"/>
	<path class="st0" d="M7.2,66.2c-0.4,0-0.7,0.3-0.7,0.7c0,0.4,0.3,0.8,0.7,0.7C7.6,67.7,8,67.4,8,67S7.6,66.2,7.2,66.2z"/>
	<path class="st0" d="M1.2,66.2c-0.4,0-0.7,0.3-0.7,0.7c0,0.4,0.3,0.8,0.7,0.7C1.6,67.7,2,67.4,2,67S1.6,66.2,1.2,66.2z"/>
	<path class="st0" d="M96.9,60.3c-0.4,0-0.7,0.3-0.7,0.7c0,0.4,0.3,0.8,0.7,0.7c0.4,0,0.7-0.3,0.7-0.7
		C97.6,60.6,97.3,60.3,96.9,60.3z"/>
	<path class="st0" d="M90.9,60.3c-0.4,0-0.7,0.3-0.7,0.7c0,0.4,0.3,0.8,0.7,0.7c0.4,0,0.7-0.3,0.7-0.7
		C91.6,60.6,91.3,60.3,90.9,60.3z"/>
	<path class="st0" d="M84.9,60.3c-0.4,0-0.7,0.3-0.7,0.7c0,0.4,0.3,0.8,0.7,0.7c0.4,0,0.7-0.3,0.7-0.7
		C85.6,60.6,85.3,60.3,84.9,60.3z"/>
	<path class="st0" d="M78.9,60.3c-0.4,0-0.7,0.3-0.7,0.7c0,0.4,0.3,0.8,0.7,0.7c0.4,0,0.7-0.3,0.7-0.7
		C79.7,60.6,79.3,60.3,78.9,60.3z"/>
	<path class="st0" d="M72.9,60.3c-0.4,0-0.7,0.3-0.7,0.7c0,0.4,0.3,0.8,0.7,0.7c0.4,0,0.7-0.3,0.7-0.7
		C73.7,60.6,73.4,60.3,72.9,60.3z"/>
	<path class="st0" d="M67,60.3c-0.4,0-0.7,0.3-0.7,0.7c0,0.4,0.3,0.8,0.7,0.7c0.4,0,0.7-0.3,0.7-0.7C67.7,60.6,67.4,60.3,67,60.3z"
		/>
	<path class="st0" d="M61,60.3c-0.4,0-0.7,0.3-0.7,0.7c0,0.4,0.3,0.8,0.7,0.7c0.4,0,0.7-0.3,0.7-0.7C61.7,60.6,61.4,60.3,61,60.3z"
		/>
	<path class="st0" d="M55,60.3c-0.4,0-0.7,0.3-0.7,0.7c0,0.4,0.4,0.8,0.7,0.7c0.4,0,0.7-0.3,0.7-0.7C55.7,60.6,55.4,60.3,55,60.3z"
		/>
	<path class="st0" d="M49,60.3c-0.4,0-0.7,0.3-0.7,0.7c0,0.4,0.4,0.8,0.7,0.7c0.4,0,0.7-0.3,0.7-0.7C49.8,60.6,49.4,60.3,49,60.3z"
		/>
	<path class="st0" d="M43,60.3c-0.4,0-0.7,0.3-0.7,0.7c0,0.4,0.4,0.8,0.7,0.7c0.4,0,0.7-0.3,0.7-0.7C43.8,60.6,43.5,60.3,43,60.3z"
		/>
	<path class="st0" d="M37.1,60.3c-0.4,0-0.7,0.3-0.7,0.7c0,0.4,0.3,0.8,0.7,0.7c0.4,0,0.7-0.3,0.7-0.7
		C37.9,60.6,37.5,60.3,37.1,60.3z"/>
	<path class="st0" d="M31.1,60.3c-0.4,0-0.7,0.3-0.7,0.7c0,0.4,0.3,0.8,0.7,0.7c0.4,0,0.7-0.3,0.7-0.7
		C31.9,60.6,31.5,60.3,31.1,60.3z"/>
	<path class="st0" d="M25.2,60.3c-0.4,0-0.7,0.3-0.7,0.7c0,0.4,0.3,0.8,0.7,0.7c0.4,0,0.7-0.3,0.7-0.7
		C25.9,60.6,25.6,60.3,25.2,60.3z"/>
	<path class="st0" d="M19.2,60.3c-0.4,0-0.7,0.3-0.7,0.7c0,0.4,0.3,0.8,0.7,0.7c0.4,0,0.7-0.3,0.7-0.7
		C19.9,60.6,19.6,60.3,19.2,60.3z"/>
	<path class="st0" d="M13.2,60.3c-0.4,0-0.7,0.3-0.7,0.7c0,0.4,0.3,0.8,0.7,0.7c0.4,0,0.7-0.3,0.7-0.7
		C13.9,60.6,13.6,60.3,13.2,60.3z"/>
	<path class="st0" d="M7.2,60.3c-0.4,0-0.7,0.3-0.7,0.7c0,0.4,0.3,0.8,0.7,0.7C7.6,61.7,8,61.4,8,61C8,60.6,7.6,60.3,7.2,60.3z"/>
	<path class="st0" d="M1.2,60.3c-0.4,0-0.7,0.3-0.7,0.7c0,0.4,0.3,0.8,0.7,0.7C1.6,61.7,2,61.4,2,61C2,60.6,1.6,60.3,1.2,60.3z"/>
	<path class="st0" d="M96.9,54.3c-0.4,0-0.7,0.3-0.7,0.7s0.3,0.7,0.7,0.7c0.4,0,0.7-0.3,0.7-0.7S97.3,54.3,96.9,54.3z"/>
	<path class="st0" d="M90.9,54.3c-0.4,0-0.7,0.3-0.7,0.7s0.3,0.7,0.7,0.7s0.7-0.3,0.7-0.7S91.3,54.3,90.9,54.3z"/>
	<path class="st0" d="M84.9,54.3c-0.4,0-0.7,0.3-0.7,0.7s0.3,0.7,0.7,0.7c0.4,0,0.7-0.3,0.7-0.7S85.3,54.3,84.9,54.3z"/>
	<path class="st0" d="M78.9,54.3c-0.4,0-0.7,0.3-0.7,0.7c0,0.4,0.3,0.7,0.7,0.7c0.4,0,0.7-0.3,0.7-0.7S79.3,54.3,78.9,54.3z"/>
	<path class="st0" d="M72.9,54.3c-0.4,0-0.7,0.3-0.7,0.7s0.3,0.7,0.7,0.7s0.7-0.3,0.7-0.7S73.4,54.3,72.9,54.3z"/>
	<path class="st0" d="M67,54.3c-0.4,0-0.7,0.3-0.7,0.7s0.3,0.7,0.7,0.7c0.4,0,0.7-0.3,0.7-0.7S67.4,54.3,67,54.3z"/>
	<path class="st0" d="M61,54.3c-0.4,0-0.7,0.3-0.7,0.7s0.3,0.7,0.7,0.7c0.4,0,0.7-0.3,0.7-0.7S61.4,54.3,61,54.3z"/>
	<path class="st0" d="M55,54.3c-0.4,0-0.7,0.3-0.7,0.7s0.4,0.7,0.7,0.7c0.4,0,0.7-0.3,0.7-0.7S55.4,54.3,55,54.3z"/>
	<path class="st0" d="M49,54.3c-0.4,0-0.7,0.3-0.7,0.7s0.4,0.7,0.7,0.7c0.4,0,0.7-0.3,0.7-0.7S49.4,54.3,49,54.3z"/>
	<path class="st0" d="M43,54.3c-0.4,0-0.7,0.3-0.7,0.7s0.4,0.7,0.7,0.7c0.4,0,0.7-0.3,0.7-0.7S43.5,54.3,43,54.3z"/>
	<path class="st0" d="M37.1,54.3c-0.4,0-0.7,0.3-0.7,0.7s0.3,0.7,0.7,0.7c0.4,0,0.7-0.3,0.7-0.7S37.5,54.3,37.1,54.3z"/>
	<path class="st0" d="M31.1,54.3c-0.4,0-0.7,0.3-0.7,0.7s0.3,0.7,0.7,0.7c0.4,0,0.7-0.3,0.7-0.7S31.5,54.3,31.1,54.3z"/>
	<path class="st0" d="M25.2,54.3c-0.4,0-0.7,0.3-0.7,0.7s0.3,0.7,0.7,0.7s0.7-0.3,0.7-0.7C25.9,54.6,25.6,54.3,25.2,54.3z"/>
	<path class="st0" d="M19.2,54.3c-0.4,0-0.7,0.3-0.7,0.7s0.3,0.7,0.7,0.7c0.4,0,0.7-0.3,0.7-0.7S19.6,54.3,19.2,54.3z"/>
	<path class="st0" d="M13.2,54.3c-0.4,0-0.7,0.3-0.7,0.7s0.3,0.7,0.7,0.7s0.7-0.3,0.7-0.7S13.6,54.3,13.2,54.3z"/>
	<path class="st0" d="M7.2,54.3c-0.4,0-0.7,0.3-0.7,0.7s0.3,0.7,0.7,0.7S8,55.5,8,55.1S7.6,54.3,7.2,54.3z"/>
	<circle class="st0" cx="1.2" cy="55.1" r="0.7"/>
	<path class="st0" d="M102.8,48.3c-0.4,0-0.7,0.3-0.7,0.7s0.3,0.7,0.7,0.7s0.7-0.3,0.7-0.7S103.3,48.3,102.8,48.3z"/>
	<path class="st0" d="M96.9,48.3c-0.4,0-0.7,0.3-0.7,0.7s0.3,0.7,0.7,0.7c0.4,0,0.7-0.3,0.7-0.7S97.3,48.3,96.9,48.3z"/>
	<path class="st0" d="M90.9,48.3c-0.4,0-0.7,0.3-0.7,0.7s0.3,0.7,0.7,0.7s0.7-0.3,0.7-0.7S91.3,48.3,90.9,48.3z"/>
	<path class="st0" d="M84.9,48.3c-0.4,0-0.7,0.3-0.7,0.7s0.3,0.7,0.7,0.7c0.4,0,0.7-0.3,0.7-0.7S85.3,48.3,84.9,48.3z"/>
	<path class="st0" d="M78.9,48.3c-0.4,0-0.7,0.3-0.7,0.7s0.3,0.7,0.7,0.7c0.4,0,0.7-0.3,0.7-0.7S79.3,48.3,78.9,48.3z"/>
	<path class="st0" d="M72.9,48.3c-0.4,0-0.7,0.3-0.7,0.7s0.3,0.7,0.7,0.7s0.7-0.3,0.7-0.7S73.4,48.3,72.9,48.3z"/>
	<path class="st0" d="M67,48.3c-0.4,0-0.7,0.3-0.7,0.7s0.3,0.7,0.7,0.7c0.4,0,0.7-0.3,0.7-0.7S67.4,48.3,67,48.3z"/>
	<path class="st0" d="M61,48.3c-0.4,0-0.7,0.3-0.7,0.7s0.3,0.7,0.7,0.7c0.4,0,0.7-0.3,0.7-0.7S61.4,48.3,61,48.3z"/>
	<path class="st0" d="M55,48.3c-0.4,0-0.7,0.3-0.7,0.7s0.4,0.7,0.7,0.7c0.4,0,0.7-0.3,0.7-0.7S55.4,48.3,55,48.3z"/>
	<path class="st0" d="M49,48.3c-0.4,0-0.7,0.3-0.7,0.7s0.4,0.7,0.7,0.7c0.4,0,0.7-0.3,0.7-0.7S49.4,48.3,49,48.3z"/>
	<path class="st0" d="M43,48.3c-0.4,0-0.7,0.3-0.7,0.7s0.4,0.7,0.7,0.7c0.4,0,0.7-0.3,0.7-0.7S43.5,48.3,43,48.3z"/>
	<path class="st0" d="M37.1,48.3c-0.4,0-0.7,0.3-0.7,0.7s0.3,0.7,0.7,0.7c0.4,0,0.7-0.3,0.7-0.7S37.5,48.3,37.1,48.3z"/>
	<path class="st0" d="M31.1,48.3c-0.4,0-0.7,0.3-0.7,0.7s0.3,0.7,0.7,0.7c0.4,0,0.7-0.3,0.7-0.7S31.5,48.3,31.1,48.3z"/>
	<path class="st0" d="M25.2,48.3c-0.4,0-0.7,0.3-0.7,0.7s0.3,0.7,0.7,0.7s0.7-0.3,0.7-0.7C25.9,48.7,25.6,48.3,25.2,48.3z"/>
	<path class="st0" d="M19.2,48.3c-0.4,0-0.7,0.3-0.7,0.7s0.3,0.7,0.7,0.7c0.4,0,0.7-0.3,0.7-0.7S19.6,48.3,19.2,48.3z"/>
	<path class="st0" d="M13.2,48.3c-0.4,0-0.7,0.3-0.7,0.7s0.3,0.7,0.7,0.7s0.7-0.3,0.7-0.7S13.6,48.3,13.2,48.3z"/>
	<path class="st0" d="M7.2,48.3c-0.4,0-0.7,0.3-0.7,0.7s0.3,0.7,0.7,0.7S8,49.5,8,49.1S7.6,48.3,7.2,48.3z"/>
	<circle class="st0" cx="1.2" cy="49.1" r="0.7"/>
	<path class="st0" d="M102.8,42.4c-0.4,0-0.7,0.3-0.7,0.7c0,0.4,0.3,0.7,0.7,0.7s0.7-0.3,0.7-0.7C103.6,42.7,103.3,42.4,102.8,42.4z
		"/>
	<path class="st0" d="M96.9,42.4c-0.4,0-0.7,0.3-0.7,0.7c0,0.4,0.3,0.7,0.7,0.7c0.4,0,0.7-0.3,0.7-0.7
		C97.6,42.7,97.3,42.4,96.9,42.4z"/>
	<path class="st0" d="M90.9,42.4c-0.4,0-0.7,0.3-0.7,0.7c0,0.4,0.3,0.7,0.7,0.7s0.7-0.3,0.7-0.7C91.6,42.7,91.3,42.4,90.9,42.4z"/>
	<path class="st0" d="M84.9,42.4c-0.4,0-0.7,0.3-0.7,0.7c0,0.4,0.3,0.7,0.7,0.7c0.4,0,0.7-0.3,0.7-0.7
		C85.6,42.7,85.3,42.4,84.9,42.4z"/>
	<path class="st0" d="M78.9,42.4c-0.4,0-0.7,0.3-0.7,0.7c0,0.4,0.3,0.7,0.7,0.7c0.4,0,0.7-0.3,0.7-0.7
		C79.7,42.7,79.3,42.4,78.9,42.4z"/>
	<path class="st0" d="M72.9,42.4c-0.4,0-0.7,0.3-0.7,0.7c0,0.4,0.3,0.7,0.7,0.7s0.7-0.3,0.7-0.7C73.7,42.7,73.4,42.4,72.9,42.4z"/>
	<path class="st0" d="M67,42.4c-0.4,0-0.7,0.3-0.7,0.7c0,0.4,0.3,0.7,0.7,0.7c0.4,0,0.7-0.3,0.7-0.7C67.7,42.7,67.4,42.4,67,42.4z"
		/>
	<path class="st0" d="M61,42.4c-0.4,0-0.7,0.3-0.7,0.7c0,0.4,0.3,0.7,0.7,0.7c0.4,0,0.7-0.3,0.7-0.7C61.7,42.7,61.4,42.4,61,42.4z"
		/>
	<path class="st0" d="M55,42.4c-0.4,0-0.7,0.3-0.7,0.7c0,0.4,0.4,0.7,0.7,0.7c0.4,0,0.7-0.3,0.7-0.7C55.7,42.7,55.4,42.4,55,42.4z"
		/>
	<path class="st0" d="M49,42.4c-0.4,0-0.7,0.3-0.7,0.7c0,0.4,0.4,0.7,0.7,0.7c0.4,0,0.7-0.3,0.7-0.7C49.8,42.7,49.4,42.4,49,42.4z"
		/>
	<path class="st0" d="M43,42.4c-0.4,0-0.7,0.3-0.7,0.7c0,0.4,0.4,0.7,0.7,0.7c0.4,0,0.7-0.3,0.7-0.7C43.8,42.7,43.5,42.4,43,42.4z"
		/>
	<path class="st0" d="M37.1,42.4c-0.4,0-0.7,0.3-0.7,0.7c0,0.4,0.3,0.7,0.7,0.7c0.4,0,0.7-0.3,0.7-0.7
		C37.9,42.7,37.5,42.4,37.1,42.4z"/>
	<path class="st0" d="M31.1,42.4c-0.4,0-0.7,0.3-0.7,0.7c0,0.4,0.3,0.7,0.7,0.7c0.4,0,0.7-0.3,0.7-0.7
		C31.9,42.7,31.5,42.4,31.1,42.4z"/>
	<path class="st0" d="M25.2,42.4c-0.4,0-0.7,0.3-0.7,0.7c0,0.4,0.3,0.7,0.7,0.7s0.7-0.3,0.7-0.7C25.9,42.7,25.6,42.4,25.2,42.4z"/>
	<path class="st0" d="M19.2,42.4c-0.4,0-0.7,0.3-0.7,0.7c0,0.4,0.3,0.7,0.7,0.7c0.4,0,0.7-0.3,0.7-0.7
		C19.9,42.7,19.6,42.4,19.2,42.4z"/>
	<path class="st0" d="M13.2,42.4c-0.4,0-0.7,0.3-0.7,0.7c0,0.4,0.3,0.7,0.7,0.7s0.7-0.3,0.7-0.7C13.9,42.7,13.6,42.4,13.2,42.4z"/>
	<path class="st0" d="M7.2,42.4c-0.4,0-0.7,0.3-0.7,0.7c0,0.4,0.3,0.7,0.7,0.7S8,43.5,8,43.1C8,42.7,7.6,42.4,7.2,42.4z"/>
	<circle class="st0" cx="1.2" cy="43.1" r="0.7"/>
	<path class="st0" d="M102.8,36.4c-0.4,0-0.7,0.3-0.7,0.7c0,0.4,0.3,0.7,0.7,0.7s0.7-0.3,0.7-0.7C103.6,36.7,103.3,36.4,102.8,36.4z
		"/>
	<path class="st0" d="M96.9,36.4c-0.4,0-0.7,0.3-0.7,0.7c0,0.4,0.3,0.7,0.7,0.7c0.4,0,0.7-0.3,0.7-0.7
		C97.6,36.7,97.3,36.4,96.9,36.4z"/>
	<path class="st0" d="M90.9,36.4c-0.4,0-0.7,0.3-0.7,0.7c0,0.4,0.3,0.7,0.7,0.7s0.7-0.3,0.7-0.7C91.6,36.7,91.3,36.4,90.9,36.4z"/>
	<path class="st0" d="M84.9,36.4c-0.4,0-0.7,0.3-0.7,0.7c0,0.4,0.3,0.7,0.7,0.7c0.4,0,0.7-0.3,0.7-0.7
		C85.6,36.7,85.3,36.4,84.9,36.4z"/>
	<path class="st0" d="M78.9,36.4c-0.4,0-0.7,0.3-0.7,0.7c0,0.4,0.3,0.7,0.7,0.7c0.4,0,0.7-0.3,0.7-0.7
		C79.7,36.7,79.3,36.4,78.9,36.4z"/>
	<path class="st0" d="M72.9,36.4c-0.4,0-0.7,0.3-0.7,0.7c0,0.4,0.3,0.7,0.7,0.7s0.7-0.3,0.7-0.7C73.7,36.7,73.4,36.4,72.9,36.4z"/>
	<path class="st0" d="M67,36.4c-0.4,0-0.7,0.3-0.7,0.7c0,0.4,0.3,0.7,0.7,0.7c0.4,0,0.7-0.3,0.7-0.7C67.7,36.7,67.4,36.4,67,36.4z"
		/>
	<path class="st0" d="M61,36.4c-0.4,0-0.7,0.3-0.7,0.7c0,0.4,0.3,0.7,0.7,0.7c0.4,0,0.7-0.3,0.7-0.7C61.7,36.7,61.4,36.4,61,36.4z"
		/>
	<path class="st0" d="M55,36.4c-0.4,0-0.7,0.3-0.7,0.7c0,0.4,0.4,0.7,0.7,0.7c0.4,0,0.7-0.3,0.7-0.7C55.7,36.7,55.4,36.4,55,36.4z"
		/>
	<path class="st0" d="M49,36.4c-0.4,0-0.7,0.3-0.7,0.7c0,0.4,0.4,0.7,0.7,0.7c0.4,0,0.7-0.3,0.7-0.7C49.8,36.7,49.4,36.4,49,36.4z"
		/>
	<path class="st0" d="M43,36.4c-0.4,0-0.7,0.3-0.7,0.7c0,0.4,0.4,0.7,0.7,0.7c0.4,0,0.7-0.3,0.7-0.7C43.8,36.7,43.5,36.4,43,36.4z"
		/>
	<path class="st0" d="M37.1,36.4c-0.4,0-0.7,0.3-0.7,0.7c0,0.4,0.3,0.7,0.7,0.7c0.4,0,0.7-0.3,0.7-0.7
		C37.9,36.7,37.5,36.4,37.1,36.4z"/>
	<path class="st0" d="M31.1,36.4c-0.4,0-0.7,0.3-0.7,0.7c0,0.4,0.3,0.7,0.7,0.7c0.4,0,0.7-0.3,0.7-0.7
		C31.9,36.7,31.5,36.4,31.1,36.4z"/>
	<path class="st0" d="M25.2,36.4c-0.4,0-0.7,0.3-0.7,0.7c0,0.4,0.3,0.7,0.7,0.7s0.7-0.3,0.7-0.7C25.9,36.7,25.6,36.4,25.2,36.4z"/>
	<path class="st0" d="M19.2,36.4c-0.4,0-0.7,0.3-0.7,0.7c0,0.4,0.3,0.7,0.7,0.7c0.4,0,0.7-0.3,0.7-0.7
		C19.9,36.7,19.6,36.4,19.2,36.4z"/>
	<path class="st0" d="M13.2,36.4c-0.4,0-0.7,0.3-0.7,0.7c0,0.4,0.3,0.7,0.7,0.7s0.7-0.3,0.7-0.7C13.9,36.7,13.6,36.4,13.2,36.4z"/>
	<path class="st0" d="M7.2,36.4c-0.4,0-0.7,0.3-0.7,0.7c0,0.4,0.3,0.7,0.7,0.7S8,37.5,8,37.1C8,36.7,7.6,36.4,7.2,36.4z"/>
	<circle class="st0" cx="1.2" cy="37.1" r="0.7"/>
	<path class="st0" d="M108.8,30.4c-0.4,0-0.7,0.3-0.7,0.7c0,0.4,0.3,0.7,0.7,0.7c0.4,0,0.7-0.3,0.7-0.7
		C109.6,30.7,109.2,30.4,108.8,30.4z"/>
	<path class="st0" d="M102.8,30.4c-0.4,0-0.7,0.3-0.7,0.7c0,0.4,0.3,0.7,0.7,0.7s0.7-0.3,0.7-0.7C103.6,30.7,103.3,30.4,102.8,30.4z
		"/>
	<path class="st0" d="M96.9,30.4c-0.4,0-0.7,0.3-0.7,0.7c0,0.4,0.3,0.7,0.7,0.7c0.4,0,0.7-0.3,0.7-0.7
		C97.6,30.7,97.3,30.4,96.9,30.4z"/>
	<path class="st0" d="M90.9,30.4c-0.4,0-0.7,0.3-0.7,0.7c0,0.4,0.3,0.7,0.7,0.7s0.7-0.3,0.7-0.7C91.6,30.7,91.3,30.4,90.9,30.4z"/>
	<path class="st0" d="M84.9,30.4c-0.4,0-0.7,0.3-0.7,0.7c0,0.4,0.3,0.7,0.7,0.7c0.4,0,0.7-0.3,0.7-0.7
		C85.6,30.7,85.3,30.4,84.9,30.4z"/>
	<path class="st0" d="M78.9,30.4c-0.4,0-0.7,0.3-0.7,0.7c0,0.4,0.3,0.7,0.7,0.7c0.4,0,0.7-0.3,0.7-0.7
		C79.7,30.7,79.3,30.4,78.9,30.4z"/>
	<path class="st0" d="M72.9,30.4c-0.4,0-0.7,0.3-0.7,0.7c0,0.4,0.3,0.7,0.7,0.7s0.7-0.3,0.7-0.7C73.7,30.7,73.4,30.4,72.9,30.4z"/>
	<path class="st0" d="M67,30.4c-0.4,0-0.7,0.3-0.7,0.7c0,0.4,0.3,0.7,0.7,0.7c0.4,0,0.7-0.3,0.7-0.7C67.7,30.7,67.4,30.4,67,30.4z"
		/>
	<path class="st0" d="M61,30.4c-0.4,0-0.7,0.3-0.7,0.7c0,0.4,0.3,0.7,0.7,0.7c0.4,0,0.7-0.3,0.7-0.7C61.7,30.7,61.4,30.4,61,30.4z"
		/>
	<path class="st0" d="M55,30.4c-0.4,0-0.7,0.3-0.7,0.7c0,0.4,0.4,0.7,0.7,0.7c0.4,0,0.7-0.3,0.7-0.7C55.7,30.7,55.4,30.4,55,30.4z"
		/>
	<path class="st0" d="M49,30.4c-0.4,0-0.7,0.3-0.7,0.7c0,0.4,0.4,0.7,0.7,0.7c0.4,0,0.7-0.3,0.7-0.7C49.8,30.7,49.4,30.4,49,30.4z"
		/>
	<path class="st0" d="M43,30.4c-0.4,0-0.7,0.3-0.7,0.7c0,0.4,0.4,0.7,0.7,0.7c0.4,0,0.7-0.3,0.7-0.7C43.8,30.7,43.5,30.4,43,30.4z"
		/>
	<path class="st0" d="M37.1,30.4c-0.4,0-0.7,0.3-0.7,0.7c0,0.4,0.3,0.7,0.7,0.7c0.4,0,0.7-0.3,0.7-0.7
		C37.9,30.7,37.5,30.4,37.1,30.4z"/>
	<path class="st0" d="M31.1,30.4c-0.4,0-0.7,0.3-0.7,0.7c0,0.4,0.3,0.7,0.7,0.7c0.4,0,0.7-0.3,0.7-0.7
		C31.9,30.7,31.5,30.4,31.1,30.4z"/>
	<path class="st0" d="M25.2,30.4c-0.4,0-0.7,0.3-0.7,0.7c0,0.4,0.3,0.7,0.7,0.7s0.7-0.3,0.7-0.7C25.9,30.7,25.6,30.4,25.2,30.4z"/>
	<path class="st0" d="M19.2,30.4c-0.4,0-0.7,0.3-0.7,0.7c0,0.4,0.3,0.7,0.7,0.7c0.4,0,0.7-0.3,0.7-0.7
		C19.9,30.7,19.6,30.4,19.2,30.4z"/>
	<path class="st0" d="M13.2,30.4c-0.4,0-0.7,0.3-0.7,0.7c0,0.4,0.3,0.7,0.7,0.7s0.7-0.3,0.7-0.7C13.9,30.7,13.6,30.4,13.2,30.4z"/>
	<path class="st0" d="M7.2,30.4c-0.4,0-0.7,0.3-0.7,0.7c0,0.4,0.3,0.7,0.7,0.7S8,31.5,8,31.1C8,30.7,7.6,30.4,7.2,30.4z"/>
	<path class="st0" d="M1.2,30.4c-0.4,0-0.7,0.3-0.7,0.7c0,0.4,0.3,0.7,0.7,0.7S2,31.5,2,31.1C2,30.7,1.6,30.4,1.2,30.4z"/>
	<path class="st0" d="M108.8,24.4c-0.4,0-0.7,0.3-0.7,0.7c0,0.4,0.3,0.7,0.7,0.7c0.4,0,0.7-0.3,0.7-0.7
		C109.6,24.7,109.2,24.4,108.8,24.4z"/>
	<path class="st0" d="M102.8,24.4c-0.4,0-0.7,0.3-0.7,0.7c0,0.4,0.3,0.7,0.7,0.7s0.7-0.3,0.7-0.7C103.6,24.7,103.3,24.4,102.8,24.4z
		"/>
	<path class="st0" d="M96.9,24.4c-0.4,0-0.7,0.3-0.7,0.7c0,0.4,0.3,0.7,0.7,0.7c0.4,0,0.7-0.3,0.7-0.7
		C97.6,24.7,97.3,24.4,96.9,24.4z"/>
	<path class="st0" d="M90.9,24.4c-0.4,0-0.7,0.3-0.7,0.7c0,0.4,0.3,0.7,0.7,0.7s0.7-0.3,0.7-0.7C91.6,24.7,91.3,24.4,90.9,24.4z"/>
	<path class="st0" d="M84.9,24.4c-0.4,0-0.7,0.3-0.7,0.7c0,0.4,0.3,0.7,0.7,0.7c0.4,0,0.7-0.3,0.7-0.7
		C85.6,24.7,85.3,24.4,84.9,24.4z"/>
	<path class="st0" d="M78.9,24.4c-0.4,0-0.7,0.3-0.7,0.7c0,0.4,0.3,0.7,0.7,0.7c0.4,0,0.7-0.3,0.7-0.7
		C79.7,24.7,79.3,24.4,78.9,24.4z"/>
	<path class="st0" d="M72.9,24.4c-0.4,0-0.7,0.3-0.7,0.7c0,0.4,0.3,0.7,0.7,0.7s0.7-0.3,0.7-0.7C73.7,24.7,73.4,24.4,72.9,24.4z"/>
	<path class="st0" d="M67,24.4c-0.4,0-0.7,0.3-0.7,0.7c0,0.4,0.3,0.7,0.7,0.7c0.4,0,0.7-0.3,0.7-0.7C67.7,24.7,67.4,24.4,67,24.4z"
		/>
	<path class="st0" d="M61,24.4c-0.4,0-0.7,0.3-0.7,0.7c0,0.4,0.3,0.7,0.7,0.7c0.4,0,0.7-0.3,0.7-0.7C61.7,24.7,61.4,24.4,61,24.4z"
		/>
	<path class="st0" d="M55,24.4c-0.4,0-0.7,0.3-0.7,0.7c0,0.4,0.4,0.7,0.7,0.7c0.4,0,0.7-0.3,0.7-0.7C55.7,24.7,55.4,24.4,55,24.4z"
		/>
	<path class="st0" d="M49,24.4c-0.4,0-0.7,0.3-0.7,0.7c0,0.4,0.4,0.7,0.7,0.7c0.4,0,0.7-0.3,0.7-0.7C49.8,24.7,49.4,24.4,49,24.4z"
		/>
	<path class="st0" d="M43,24.4c-0.4,0-0.7,0.3-0.7,0.7c0,0.4,0.4,0.7,0.7,0.7c0.4,0,0.7-0.3,0.7-0.7C43.8,24.7,43.5,24.4,43,24.4z"
		/>
	<path class="st0" d="M37.1,24.4c-0.4,0-0.7,0.3-0.7,0.7c0,0.4,0.3,0.7,0.7,0.7c0.4,0,0.7-0.3,0.7-0.7
		C37.9,24.7,37.5,24.4,37.1,24.4z"/>
	<path class="st0" d="M31.1,24.4c-0.4,0-0.7,0.3-0.7,0.7c0,0.4,0.3,0.7,0.7,0.7c0.4,0,0.7-0.3,0.7-0.7
		C31.9,24.7,31.5,24.4,31.1,24.4z"/>
	<path class="st0" d="M25.2,24.4c-0.4,0-0.7,0.3-0.7,0.7c0,0.4,0.3,0.7,0.7,0.7s0.7-0.3,0.7-0.7C25.9,24.7,25.6,24.4,25.2,24.4z"/>
	<path class="st0" d="M19.2,24.4c-0.4,0-0.7,0.3-0.7,0.7c0,0.4,0.3,0.7,0.7,0.7c0.4,0,0.7-0.3,0.7-0.7
		C19.9,24.7,19.6,24.4,19.2,24.4z"/>
	<path class="st0" d="M13.2,24.4c-0.4,0-0.7,0.3-0.7,0.7c0,0.4,0.3,0.7,0.7,0.7s0.7-0.3,0.7-0.7C13.9,24.7,13.6,24.4,13.2,24.4z"/>
	<path class="st0" d="M7.2,24.4c-0.4,0-0.7,0.3-0.7,0.7c0,0.4,0.3,0.7,0.7,0.7S8,25.6,8,25.2C8,24.7,7.6,24.4,7.2,24.4z"/>
	<circle class="st0" cx="1.2" cy="25.2" r="0.7"/>
	<path class="st0" d="M108.8,18.4c-0.4,0-0.7,0.3-0.7,0.7c0,0.4,0.3,0.7,0.7,0.7c0.4,0,0.7-0.3,0.7-0.7
		C109.6,18.8,109.2,18.4,108.8,18.4z"/>
	<path class="st0" d="M102.8,18.4c-0.4,0-0.7,0.3-0.7,0.7c0,0.4,0.3,0.7,0.7,0.7s0.7-0.3,0.7-0.7C103.6,18.8,103.3,18.4,102.8,18.4z
		"/>
	<path class="st0" d="M96.9,18.4c-0.4,0-0.7,0.3-0.7,0.7c0,0.4,0.3,0.7,0.7,0.7c0.4,0,0.7-0.3,0.7-0.7
		C97.6,18.8,97.3,18.4,96.9,18.4z"/>
	<path class="st0" d="M90.9,18.4c-0.4,0-0.7,0.3-0.7,0.7c0,0.4,0.3,0.7,0.7,0.7s0.7-0.3,0.7-0.7C91.6,18.8,91.3,18.4,90.9,18.4z"/>
	<path class="st0" d="M84.9,18.4c-0.4,0-0.7,0.3-0.7,0.7c0,0.4,0.3,0.7,0.7,0.7c0.4,0,0.7-0.3,0.7-0.7
		C85.6,18.8,85.3,18.4,84.9,18.4z"/>
	<path class="st0" d="M78.9,18.4c-0.4,0-0.7,0.3-0.7,0.7c0,0.4,0.3,0.7,0.7,0.7c0.4,0,0.7-0.3,0.7-0.7
		C79.7,18.8,79.3,18.4,78.9,18.4z"/>
	<path class="st0" d="M72.9,18.4c-0.4,0-0.7,0.3-0.7,0.7c0,0.4,0.3,0.7,0.7,0.7s0.7-0.3,0.7-0.7C73.7,18.8,73.4,18.4,72.9,18.4z"/>
	<path class="st0" d="M67,18.4c-0.4,0-0.7,0.3-0.7,0.7c0,0.4,0.3,0.7,0.7,0.7c0.4,0,0.7-0.3,0.7-0.7C67.7,18.8,67.4,18.4,67,18.4z"
		/>
	<path class="st0" d="M61,18.4c-0.4,0-0.7,0.3-0.7,0.7c0,0.4,0.3,0.7,0.7,0.7c0.4,0,0.7-0.3,0.7-0.7C61.7,18.8,61.4,18.4,61,18.4z"
		/>
	<path class="st0" d="M55,18.4c-0.4,0-0.7,0.3-0.7,0.7c0,0.4,0.4,0.7,0.7,0.7c0.4,0,0.7-0.3,0.7-0.7C55.7,18.8,55.4,18.4,55,18.4z"
		/>
	<path class="st0" d="M49,18.4c-0.4,0-0.7,0.3-0.7,0.7c0,0.4,0.4,0.7,0.7,0.7c0.4,0,0.7-0.3,0.7-0.7C49.8,18.8,49.4,18.4,49,18.4z"
		/>
	<path class="st0" d="M43,18.4c-0.4,0-0.7,0.3-0.7,0.7c0,0.4,0.4,0.7,0.7,0.7c0.4,0,0.7-0.3,0.7-0.7C43.8,18.8,43.5,18.4,43,18.4z"
		/>
	<path class="st0" d="M37.1,18.4c-0.4,0-0.7,0.3-0.7,0.7c0,0.4,0.3,0.7,0.7,0.7c0.4,0,0.7-0.3,0.7-0.7
		C37.9,18.8,37.5,18.4,37.1,18.4z"/>
	<path class="st0" d="M31.1,18.4c-0.4,0-0.7,0.3-0.7,0.7c0,0.4,0.3,0.7,0.7,0.7c0.4,0,0.7-0.3,0.7-0.7
		C31.9,18.8,31.5,18.4,31.1,18.4z"/>
	<path class="st0" d="M25.2,18.4c-0.4,0-0.7,0.3-0.7,0.7c0,0.4,0.3,0.7,0.7,0.7s0.7-0.3,0.7-0.7C25.9,18.8,25.6,18.4,25.2,18.4z"/>
	<path class="st0" d="M19.2,18.4c-0.4,0-0.7,0.3-0.7,0.7c0,0.4,0.3,0.7,0.7,0.7c0.4,0,0.7-0.3,0.7-0.7
		C19.9,18.8,19.6,18.4,19.2,18.4z"/>
	<path class="st0" d="M13.2,18.4c-0.4,0-0.7,0.3-0.7,0.7c0,0.4,0.3,0.7,0.7,0.7s0.7-0.3,0.7-0.7C13.9,18.8,13.6,18.4,13.2,18.4z"/>
	<path class="st0" d="M7.2,18.4c-0.4,0-0.7,0.3-0.7,0.7c0,0.4,0.3,0.7,0.7,0.7S8,19.6,8,19.2C8,18.8,7.6,18.4,7.2,18.4z"/>
	<path class="st0" d="M1.2,18.4c-0.4,0-0.7,0.3-0.7,0.7c0,0.4,0.3,0.7,0.7,0.7S2,19.6,2,19.2C2,18.8,1.6,18.4,1.2,18.4z"/>
	<path class="st0" d="M108.8,12.5c-0.4,0-0.7,0.3-0.7,0.7s0.3,0.7,0.7,0.7c0.4,0,0.7-0.3,0.7-0.7S109.2,12.5,108.8,12.5z"/>
	<path class="st0" d="M102.8,12.5c-0.4,0-0.7,0.3-0.7,0.7s0.3,0.7,0.7,0.7s0.7-0.3,0.7-0.7S103.3,12.5,102.8,12.5z"/>
	<path class="st0" d="M96.9,12.5c-0.4,0-0.7,0.3-0.7,0.7s0.3,0.7,0.7,0.7c0.4,0,0.7-0.3,0.7-0.7S97.3,12.5,96.9,12.5z"/>
	<path class="st0" d="M90.9,12.5c-0.4,0-0.7,0.3-0.7,0.7s0.3,0.7,0.7,0.7s0.7-0.3,0.7-0.7S91.3,12.5,90.9,12.5z"/>
	<path class="st0" d="M84.9,12.5c-0.4,0-0.7,0.3-0.7,0.7s0.3,0.7,0.7,0.7c0.4,0,0.7-0.3,0.7-0.7S85.3,12.5,84.9,12.5z"/>
	<path class="st0" d="M78.9,12.5c-0.4,0-0.7,0.3-0.7,0.7s0.3,0.7,0.7,0.7c0.4,0,0.7-0.3,0.7-0.7S79.3,12.5,78.9,12.5z"/>
	<path class="st0" d="M72.9,12.5c-0.4,0-0.7,0.3-0.7,0.7s0.3,0.7,0.7,0.7s0.7-0.3,0.7-0.7S73.4,12.5,72.9,12.5z"/>
	<path class="st0" d="M67,12.5c-0.4,0-0.7,0.3-0.7,0.7s0.3,0.7,0.7,0.7c0.4,0,0.7-0.3,0.7-0.7S67.4,12.5,67,12.5z"/>
	<path class="st0" d="M61,12.5c-0.4,0-0.7,0.3-0.7,0.7s0.3,0.7,0.7,0.7c0.4,0,0.7-0.3,0.7-0.7S61.4,12.5,61,12.5z"/>
	<path class="st0" d="M55,12.5c-0.4,0-0.7,0.3-0.7,0.7s0.4,0.7,0.7,0.7c0.4,0,0.7-0.3,0.7-0.7S55.4,12.5,55,12.5z"/>
	<path class="st0" d="M49,12.5c-0.4,0-0.7,0.3-0.7,0.7s0.4,0.7,0.7,0.7c0.4,0,0.7-0.3,0.7-0.7S49.4,12.5,49,12.5z"/>
	<path class="st0" d="M43,12.5c-0.4,0-0.7,0.3-0.7,0.7s0.4,0.7,0.7,0.7c0.4,0,0.7-0.3,0.7-0.7S43.5,12.5,43,12.5z"/>
	<path class="st0" d="M37.1,12.5c-0.4,0-0.7,0.3-0.7,0.7s0.3,0.7,0.7,0.7c0.4,0,0.7-0.3,0.7-0.7S37.5,12.5,37.1,12.5z"/>
	<path class="st0" d="M31.1,12.5c-0.4,0-0.7,0.3-0.7,0.7s0.3,0.7,0.7,0.7c0.4,0,0.7-0.3,0.7-0.7S31.5,12.5,31.1,12.5z"/>
	<path class="st0" d="M25.2,12.5c-0.4,0-0.7,0.3-0.7,0.7s0.3,0.7,0.7,0.7s0.7-0.3,0.7-0.7S25.6,12.5,25.2,12.5z"/>
	<path class="st0" d="M19.2,12.5c-0.4,0-0.7,0.3-0.7,0.7s0.3,0.7,0.7,0.7c0.4,0,0.7-0.3,0.7-0.7C19.9,12.8,19.6,12.5,19.2,12.5z"/>
	<path class="st0" d="M13.2,12.5c-0.4,0-0.7,0.3-0.7,0.7s0.3,0.7,0.7,0.7s0.7-0.3,0.7-0.7S13.6,12.5,13.2,12.5z"/>
	<path class="st0" d="M7.2,12.5c-0.4,0-0.7,0.3-0.7,0.7s0.3,0.7,0.7,0.7S8,13.6,8,13.2S7.6,12.5,7.2,12.5z"/>
	<circle class="st0" cx="1.2" cy="13.2" r="0.7"/>
	<path class="st0" d="M108.8,6.5c-0.4,0-0.7,0.3-0.7,0.7c0,0.4,0.3,0.7,0.7,0.7c0.4,0,0.7-0.3,0.7-0.7
		C109.6,6.8,109.2,6.5,108.8,6.5z"/>
	<path class="st0" d="M102.8,6.5c-0.4,0-0.7,0.3-0.7,0.7c0,0.4,0.3,0.7,0.7,0.7s0.7-0.3,0.7-0.7C103.6,6.8,103.3,6.5,102.8,6.5z"/>
	<path class="st0" d="M96.9,6.5c-0.4,0-0.7,0.3-0.7,0.7c0,0.4,0.3,0.7,0.7,0.7c0.4,0,0.7-0.3,0.7-0.7C97.6,6.8,97.3,6.5,96.9,6.5z"
		/>
	<path class="st0" d="M90.9,6.5c-0.4,0-0.7,0.3-0.7,0.7c0,0.4,0.3,0.7,0.7,0.7s0.7-0.3,0.7-0.7C91.6,6.8,91.3,6.5,90.9,6.5z"/>
	<path class="st0" d="M84.9,6.5c-0.4,0-0.7,0.3-0.7,0.7c0,0.4,0.3,0.7,0.7,0.7c0.4,0,0.7-0.3,0.7-0.7C85.6,6.8,85.3,6.5,84.9,6.5z"
		/>
	<path class="st0" d="M78.9,6.5c-0.4,0-0.7,0.3-0.7,0.7c0,0.4,0.3,0.7,0.7,0.7c0.4,0,0.7-0.3,0.7-0.7C79.7,6.8,79.3,6.5,78.9,6.5z"
		/>
	<path class="st0" d="M72.9,6.5c-0.4,0-0.7,0.3-0.7,0.7c0,0.4,0.3,0.7,0.7,0.7s0.7-0.3,0.7-0.7C73.7,6.8,73.4,6.5,72.9,6.5z"/>
	<path class="st0" d="M67,6.5c-0.4,0-0.7,0.3-0.7,0.7C66.2,7.6,66.6,8,67,8c0.4,0,0.7-0.3,0.7-0.7C67.7,6.8,67.4,6.5,67,6.5z"/>
	<path class="st0" d="M61,6.5c-0.4,0-0.7,0.3-0.7,0.7C60.3,7.6,60.6,8,61,8c0.4,0,0.7-0.3,0.7-0.7C61.7,6.8,61.4,6.5,61,6.5z"/>
	<path class="st0" d="M55,6.5c-0.4,0-0.7,0.3-0.7,0.7C54.3,7.6,54.6,8,55,8c0.4,0,0.7-0.3,0.7-0.7C55.7,6.8,55.4,6.5,55,6.5z"/>
	<path class="st0" d="M49,6.5c-0.4,0-0.7,0.3-0.7,0.7C48.3,7.6,48.7,8,49,8c0.4,0,0.7-0.3,0.7-0.7C49.8,6.8,49.4,6.5,49,6.5z"/>
	<path class="st0" d="M43,6.5c-0.4,0-0.7,0.3-0.7,0.7C42.3,7.6,42.7,8,43,8c0.4,0,0.7-0.3,0.7-0.7C43.8,6.8,43.5,6.5,43,6.5z"/>
	<path class="st0" d="M37.1,6.5c-0.4,0-0.7,0.3-0.7,0.7c0,0.4,0.3,0.7,0.7,0.7c0.4,0,0.7-0.3,0.7-0.7C37.9,6.8,37.5,6.5,37.1,6.5z"
		/>
	<path class="st0" d="M31.1,6.5c-0.4,0-0.7,0.3-0.7,0.7c0,0.4,0.3,0.7,0.7,0.7c0.4,0,0.7-0.3,0.7-0.7C31.9,6.8,31.5,6.5,31.1,6.5z"
		/>
	<path class="st0" d="M25.2,6.5c-0.4,0-0.7,0.3-0.7,0.7c0,0.4,0.3,0.7,0.7,0.7s0.7-0.3,0.7-0.7C25.9,6.8,25.6,6.5,25.2,6.5z"/>
	<path class="st0" d="M19.2,6.5c-0.4,0-0.7,0.3-0.7,0.7c0,0.4,0.3,0.7,0.7,0.7c0.4,0,0.7-0.3,0.7-0.7C19.9,6.8,19.6,6.5,19.2,6.5z"
		/>
	<path class="st0" d="M13.2,6.5c-0.4,0-0.7,0.3-0.7,0.7c0,0.4,0.3,0.7,0.7,0.7s0.7-0.3,0.7-0.7C13.9,6.8,13.6,6.5,13.2,6.5z"/>
	<path class="st0" d="M7.2,6.5c-0.4,0-0.7,0.3-0.7,0.7C6.5,7.6,6.8,8,7.2,8S8,7.6,8,7.2C8,6.8,7.6,6.5,7.2,6.5z"/>
	<path class="st0" d="M1.2,6.5c-0.4,0-0.7,0.3-0.7,0.7C0.5,7.6,0.8,8,1.2,8S2,7.6,2,7.2C2,6.8,1.6,6.5,1.2,6.5z"/>
	<path class="st0" d="M114.8,0.5c-0.4,0-0.7,0.3-0.7,0.7s0.4,0.8,0.7,0.7c0.4,0,0.7-0.3,0.7-0.7S115.2,0.5,114.8,0.5z"/>
	<path class="st0" d="M108.8,0.5c-0.4,0-0.7,0.3-0.7,0.7s0.3,0.7,0.7,0.7c0.4,0,0.7-0.3,0.7-0.7S109.2,0.5,108.8,0.5z"/>
	<path class="st0" d="M102.8,0.5c-0.4,0-0.7,0.3-0.7,0.7s0.3,0.7,0.7,0.7s0.7-0.3,0.7-0.7S103.3,0.5,102.8,0.5z"/>
	<path class="st0" d="M96.9,0.5c-0.4,0-0.7,0.3-0.7,0.7S96.5,2,96.9,2c0.4,0,0.7-0.3,0.7-0.7S97.3,0.5,96.9,0.5z"/>
	<path class="st0" d="M90.9,0.5c-0.4,0-0.7,0.3-0.7,0.7S90.5,2,90.9,2s0.7-0.3,0.7-0.7S91.3,0.5,90.9,0.5z"/>
	<path class="st0" d="M84.9,0.5c-0.4,0-0.7,0.3-0.7,0.7S84.5,2,84.9,2c0.4,0,0.7-0.3,0.7-0.7S85.3,0.5,84.9,0.5z"/>
	<path class="st0" d="M78.9,0.5c-0.4,0-0.7,0.3-0.7,0.7S78.5,2,78.9,2c0.4,0,0.7-0.3,0.7-0.7S79.3,0.5,78.9,0.5z"/>
	<path class="st0" d="M72.9,0.5c-0.4,0-0.7,0.3-0.7,0.7S72.5,2,72.9,2c0.4,0,0.7-0.3,0.7-0.7S73.4,0.5,72.9,0.5z"/>
	<path class="st0" d="M67,0.5c-0.4,0-0.7,0.3-0.7,0.7S66.6,2,67,2c0.4,0,0.7-0.3,0.7-0.7S67.4,0.5,67,0.5z"/>
	<path class="st0" d="M61,0.5c-0.4,0-0.7,0.3-0.7,0.7S60.6,2,61,2c0.4,0,0.7-0.3,0.7-0.7S61.4,0.5,61,0.5z"/>
	<path class="st0" d="M55,0.5c-0.4,0-0.7,0.3-0.7,0.7S54.6,2,55,2c0.4,0,0.7-0.3,0.7-0.7S55.4,0.5,55,0.5z"/>
	<path class="st0" d="M49,0.5c-0.4,0-0.7,0.3-0.7,0.7S48.7,2,49,2c0.4,0,0.7-0.3,0.7-0.7S49.4,0.5,49,0.5z"/>
	<path class="st0" d="M43,0.5c-0.4,0-0.7,0.3-0.7,0.7S42.7,2,43,2c0.4,0,0.7-0.3,0.7-0.7S43.5,0.5,43,0.5z"/>
	<path class="st0" d="M37.1,0.5c-0.4,0-0.7,0.3-0.7,0.7S36.7,2,37.1,2c0.4,0,0.7-0.3,0.7-0.7S37.5,0.5,37.1,0.5z"/>
	<path class="st0" d="M31.1,0.5c-0.4,0-0.7,0.3-0.7,0.7S30.7,2,31.1,2c0.4,0,0.7-0.3,0.7-0.7S31.5,0.5,31.1,0.5z"/>
	<path class="st0" d="M25.2,0.5c-0.4,0-0.7,0.3-0.7,0.7S24.7,2,25.2,2c0.4,0,0.7-0.3,0.7-0.7C25.9,0.8,25.6,0.5,25.2,0.5z"/>
	<path class="st0" d="M19.2,0.5c-0.4,0-0.7,0.3-0.7,0.7S18.8,2,19.2,2c0.4,0,0.7-0.3,0.7-0.7S19.6,0.5,19.2,0.5z"/>
	<path class="st0" d="M13.2,0.5c-0.4,0-0.7,0.3-0.7,0.7S12.8,2,13.2,2c0.4,0,0.7-0.3,0.7-0.7S13.6,0.5,13.2,0.5z"/>
	<path class="st0" d="M7.2,0.5c-0.4,0-0.7,0.3-0.7,0.7S6.8,2,7.2,2C7.6,2,8,1.6,8,1.2S7.6,0.5,7.2,0.5z"/>
	<circle class="st0" cx="1.2" cy="1.2" r="0.7"/>
	<path class="st0" d="M114,7.2c0,0.4,0.4,0.7,0.7,0.7c0.2,0,0.3,0,0.5-0.1c0-0.4,0-0.7,0.1-1.1c-0.1-0.1-0.3-0.2-0.5-0.2
		C114.3,6.5,114,6.8,114,7.2z"/>
	<path class="st0" d="M114,13.2c0,0.4,0.3,0.6,0.6,0.7c0-0.5,0.1-1,0.2-1.5l0,0C114.3,12.5,114,12.8,114,13.2z"/>
	<path class="st0" d="M108.1,37.1c0,0.4,0.3,0.7,0.7,0.7c0,0,0.1,0,0.1,0c0.1-0.4,0.3-0.8,0.4-1.2c-0.1-0.1-0.3-0.3-0.6-0.3
		C108.4,36.4,108.1,36.7,108.1,37.1z"/>
	<path class="st0" d="M61,96.1c-0.4,0-0.7,0.3-0.7,0.7c0,0.3,0.2,0.6,0.5,0.7c0.3-0.2,0.6-0.4,1-0.6c0,0,0,0,0-0.1
		C61.7,96.5,61.4,96.1,61,96.1z"/>
	<path class="st0" d="M37.1,108.1c-0.4,0-0.7,0.3-0.7,0.7c0,0,0,0,0,0c0.5-0.1,0.9-0.3,1.3-0.5C37.6,108.2,37.4,108.1,37.1,108.1z"
		/>
	<path class="st0" d="M6.6,114.4c0.4,0,0.8,0,1.2-0.1c-0.1-0.2-0.3-0.3-0.6-0.3C6.9,114.1,6.7,114.2,6.6,114.4z"/>
	<path class="st0" d="M1.2,114.1c-0.3,0-0.6,0.2-0.7,0.5c0.5,0,0.9,0,1.4,0C1.8,114.3,1.6,114.1,1.2,114.1z"/>
	<path class="st0" d="M113.3,19.2c0,0.3,0.2,0.6,0.4,0.7c0.1-0.5,0.1-0.9,0.2-1.4C113.6,18.5,113.3,18.8,113.3,19.2z"/>
	<path class="st0" d="M112.1,25.2c0,0.3,0.1,0.5,0.4,0.6c0.1-0.5,0.2-0.9,0.3-1.3C112.4,24.5,112.1,24.8,112.1,25.2z"/>
	<path class="st0" d="M106.6,43.1c0,0.2,0,0.3,0.2,0.5c0.2-0.4,0.3-0.8,0.5-1.2C106.9,42.4,106.6,42.7,106.6,43.1z"/>
	<path class="st0" d="M100.9,54.3c-0.4,0-0.7,0.3-0.7,0.7c0,0.4,0.3,0.7,0.6,0.7c0.2-0.4,0.5-0.8,0.6-1.2
		C101.4,54.4,101.1,54.3,100.9,54.3z"/>
	<path class="st0" d="M13.2,113.1c-0.4,0-0.7,0.3-0.7,0.7c0,0,0,0.1,0,0.1c0.5,0,1-0.1,1.5-0.2C13.9,113.4,13.6,113.1,13.2,113.1z"
		/>
	<path class="st0" d="M18.5,113.2c0.4,0,0.7-0.1,1.1-0.2c-0.1-0.1-0.3-0.2-0.5-0.2S18.7,112.9,18.5,113.2z"/>
	<path class="st0" d="M24.5,112.1c0.4-0.1,0.8-0.2,1.1-0.2c-0.1-0.1-0.3-0.2-0.5-0.2C24.8,111.6,24.6,111.8,24.5,112.1z"/>
</g>
</svg>
