<svg xmlns="http://www.w3.org/2000/svg" xmlns:xlink="http://www.w3.org/1999/xlink" width="66" height="67" viewBox="0 0 66 67"><defs><style>.a{fill:#fff;fill-rule:evenodd;}.b{filter:url(#a);}</style><filter id="a" x="0" y="0" width="66" height="67" filterUnits="userSpaceOnUse"><feOffset dy="1" input="SourceAlpha"/><feGaussianBlur result="b"/><feFlood flood-opacity="0.302"/><feComposite operator="in" in2="b"/><feComposite in="SourceGraphic"/></filter></defs><g class="b" transform="matrix(1, 0, 0, 1, 0, 0)"><path class="a" d="M135,53a33,33,0,1,0-33-33A33,33,0,0,0,135,53Zm0-3.96A29.04,29.04,0,1,0,105.96,20,29.04,29.04,0,0,0,135,49.04Zm2.4-14.52V20h4.3l.569-5H137.4l.007-2.505c0-1.305.133-2,2.142-2h2.686v-5h-4.3c-5.16,0-6.976,2.428-6.976,6.51v3.005H127.74v5h3.217V34.52Z" transform="translate(-102 13)"/></g></svg>