<svg xmlns="http://www.w3.org/2000/svg" xmlns:xlink="http://www.w3.org/1999/xlink" width="66" height="67" viewBox="0 0 66 67"><defs><style>.a{fill:#fff;fill-rule:evenodd;}.b{filter:url(#a);}</style><filter id="a" x="0" y="0" width="66" height="67" filterUnits="userSpaceOnUse"><feOffset dy="1" input="SourceAlpha"/><feGaussianBlur result="b"/><feFlood flood-opacity="0.302"/><feComposite operator="in" in2="b"/><feComposite in="SourceGraphic"/></filter></defs><g class="b" transform="matrix(1, 0, 0, 1, 0, 0)"><path class="a" d="M203.578,66a33,33,0,1,0-33-33A33,33,0,0,0,203.578,66Zm0-3.96A29.04,29.04,0,1,0,174.538,33,29.04,29.04,0,0,0,203.578,62.04Zm-.419-34.908.062,1.084-1.049-.132a16.8,16.8,0,0,1-9.988-5.136L190.8,21.509l-.357,1.062a6.6,6.6,0,0,0,1.3,6.553c.839.93.65,1.063-.8.509-.5-.177-.944-.31-.986-.243a8.213,8.213,0,0,0,.756,2.966,6.909,6.909,0,0,0,2.874,2.834l1.028.509-1.217.022c-1.175,0-1.217.023-1.091.487a6.455,6.455,0,0,0,3.924,3.631l1.3.465-1.133.708a11.433,11.433,0,0,1-5.623,1.639,5.931,5.931,0,0,0-1.721.177,15.681,15.681,0,0,0,4.05,1.948,17.05,17.05,0,0,0,13.764-1.638,19.051,19.051,0,0,0,6.988-8.59,23.728,23.728,0,0,0,1.427-6.641c0-1.019.063-1.152,1.238-2.369a14.265,14.265,0,0,0,1.468-1.7c.21-.421.189-.421-.881-.044-1.783.664-2.035.575-1.154-.421A6.481,6.481,0,0,0,217.385,21c0-.066-.315.045-.671.244a11.513,11.513,0,0,1-1.847.753l-1.133.376-1.028-.731a8.448,8.448,0,0,0-1.784-.974,6.872,6.872,0,0,0-3.672.089,6.342,6.342,0,0,0-4.091,6.376Z" transform="translate(-170.58)"/></g></svg>