<svg xmlns="http://www.w3.org/2000/svg" width="119.677" height="67.001" viewBox="0 0 119.677 67.001"><defs><style>.a{fill:#0081c6;}</style></defs><g transform="translate(-172 -55)"><path d="M42.995,66.239a2.857,2.857,0,0,1-.751-2.1,3.476,3.476,0,0,1,.261-1.433,2.623,2.623,0,0,1,.532-.768,2.235,2.235,0,0,1,.738-.5A3.22,3.22,0,0,1,45,61.217a2.711,2.711,0,0,1,2.02.766,3.371,3.371,0,0,1,.006,4.252,2.689,2.689,0,0,1-2.01.766A2.722,2.722,0,0,1,42.995,66.239Zm.872-3.578a2.575,2.575,0,0,0,.013,2.885,1.564,1.564,0,0,0,2.269,0,2.107,2.107,0,0,0,.442-1.458,2.071,2.071,0,0,0-.431-1.436,1.619,1.619,0,0,0-2.292.006ZM72.595,66.9V61.313H74.7a4.212,4.212,0,0,1,1.087.106,1.927,1.927,0,0,1,.861.515,2.444,2.444,0,0,1,.545.906,4.038,4.038,0,0,1,.187,1.322,3.592,3.592,0,0,1-.175,1.189,2.462,2.462,0,0,1-.612.989,2.032,2.032,0,0,1-.811.446,3.57,3.57,0,0,1-1.02.118Zm1.153-.942h.861a3.247,3.247,0,0,0,.7-.053,1.086,1.086,0,0,0,.465-.232,1.179,1.179,0,0,0,.3-.54,3.6,3.6,0,0,0,.117-1.024,3.3,3.3,0,0,0-.117-1,1.274,1.274,0,0,0-.327-.542,1.114,1.114,0,0,0-.534-.263,5.4,5.4,0,0,0-.947-.053h-.518ZM70.2,66.9l-2.3-3.647V66.9H66.823V61.313h1.121l2.337,3.734V61.313h1.071V66.9Zm-8.729,0V61.313H65.7v.946H62.62V63.5h2.867v.941H62.62v1.522h3.19V66.9Zm-5.782,0V61.313h2.283a6.75,6.75,0,0,1,1.011.055,1.5,1.5,0,0,1,.6.231,1.448,1.448,0,0,1,.438.467,1.245,1.245,0,0,1,.175.654,1.272,1.272,0,0,1-.216.72,1.317,1.317,0,0,1-.586.492,1.494,1.494,0,0,1,.8.509,1.319,1.319,0,0,1,.281.842,1.631,1.631,0,0,1-.181.743,1.511,1.511,0,0,1-.494.576,1.673,1.673,0,0,1-.773.265c-.194.02-.656.033-1.391.038Zm1.154-.942h1.067a5.393,5.393,0,0,0,.791-.034.721.721,0,0,0,.418-.222.68.68,0,0,0,.161-.476.676.676,0,0,0-.484-.683,4.012,4.012,0,0,0-1.022-.08h-.931Zm0-2.425h.755c.449,0,.729-.006.838-.02a.765.765,0,0,0,.465-.2.584.584,0,0,0,.169-.437.6.6,0,0,0-.146-.421.661.661,0,0,0-.435-.2c-.113-.013-.443-.019-.985-.019h-.662ZM48.715,66.9V61.313H52.63v.946H49.868v1.323h2.384v.947H49.868V66.9Zm-9.348-8.135c-3.219-.09-3.983-1.221-3.983-2.845a2.8,2.8,0,0,1,1.363-2.257,2.205,2.205,0,0,1-.465-.473l-.069-.058a.12.12,0,0,1,.006-.035,1.714,1.714,0,0,1-.257-.913c0-1.173,1.282-1.9,3.188-1.868,1.709.03,2.907.553,2.938,1.868A2.5,2.5,0,0,1,40.3,54.164l1.975,1.607a2.19,2.19,0,0,0,.214-1.073c-.015-.215,0-.644,0-.644s-.008-.175.032-.212a.262.262,0,0,1,.122-.063h1.336a.545.545,0,0,1,.158.045c.109.093.039.63.039.934a5.754,5.754,0,0,1-.187,1.471c-.083.182-.188.432-.323.674l.979.68a.807.807,0,0,0,.313.122c.189.03.282,0,.344.092a1.078,1.078,0,0,1,.025.358l0,.1c0,.134-.073.176-.211.176l-1.837.006a.731.731,0,0,1-.507-.245l-.324-.14a5.954,5.954,0,0,1-2.9.716Zm-1.873-2.992c0,.976.279,1.585,2.061,1.615a3.545,3.545,0,0,0,1.671-.3l-3.15-2.484A1.592,1.592,0,0,0,37.494,55.778Zm.413-3.589c0,.26.327.508.642.662a1.341,1.341,0,0,1,.345.136.662.662,0,0,0,.161.028c.25,0,1.249-.4,1.249-.826,0-.367-.407-.7-1.156-.735l-.079,0C38.364,51.451,37.907,51.834,37.907,52.188ZM92.282,58.6c-.1,0-.191-.005-.284-.009a2.785,2.785,0,0,1-.695-.058,4.115,4.115,0,0,1-2.491-1.017c-.546-.5-1-1.242-1-3.245a3.736,3.736,0,0,1,1.579-3.322,6.19,6.19,0,0,1,2.907-.613,9.367,9.367,0,0,1,2.5.263c.173.137.135.275.135.275l-.02,1.9a.249.249,0,0,1-.25.245h-.646a.249.249,0,0,1-.251-.245v-.085a.8.8,0,0,0-.28-.513,1.686,1.686,0,0,0-1.517-.581,1.767,1.767,0,0,0-1.672.841,4.412,4.412,0,0,0-.235,1.959,4.591,4.591,0,0,0,.235,1.822,2.083,2.083,0,0,0,.834.924,2.66,2.66,0,0,0,1.148.182h.028a2.648,2.648,0,0,0,1.146-.182,1.266,1.266,0,0,0,.688-.855V56.2a.248.248,0,0,1,.25-.247h.647a.249.249,0,0,1,.249.247l.02,1.9a.247.247,0,0,1-.249.245,7.08,7.08,0,0,1-2.026.23,5.227,5.227,0,0,1-.58.03Zm-39.562,0c-.1,0-.191-.005-.283-.009a2.855,2.855,0,0,1-.7-.058,4.111,4.111,0,0,1-2.489-1.018c-.547-.5-1-1.242-1-3.244a3.736,3.736,0,0,1,1.578-3.323,6.194,6.194,0,0,1,2.906-.613,9.37,9.37,0,0,1,2.5.263c.172.137.135.275.135.275l-.021,1.9a.248.248,0,0,1-.25.245h-.646a.249.249,0,0,1-.25-.245v-.085a.8.8,0,0,0-.281-.513,1.677,1.677,0,0,0-1.516-.581,1.773,1.773,0,0,0-1.674.842,4.446,4.446,0,0,0-.233,1.958,4.674,4.674,0,0,0,.233,1.822,2.091,2.091,0,0,0,.838.923,2.671,2.671,0,0,0,1.145.184h.03a2.681,2.681,0,0,0,1.148-.184.956.956,0,0,0,.155-.09V55.311H52.924a.248.248,0,0,1-.25-.246v-.826a.248.248,0,0,1,.25-.246h2.918a.248.248,0,0,1,.249.246l.022,1.9-.023.039,0,.022.022,1.9a.248.248,0,0,1-.25.245,14.6,14.6,0,0,1-2.391.23,5.224,5.224,0,0,1-.579.03Zm-40.135-.01a2.834,2.834,0,0,1-.7-.058A4.122,4.122,0,0,1,9.4,57.514c-.547-.5-1-1.242-1-3.244a3.734,3.734,0,0,1,1.577-3.322,5.986,5.986,0,0,1,2.751-.608v0h.22v0a5.969,5.969,0,0,1,2.75.608,3.73,3.73,0,0,1,1.579,3.322c0,2-.454,2.741-1,3.244a4.113,4.113,0,0,1-2.488,1.018,7.217,7.217,0,0,1-.84.063S12.634,58.594,12.586,58.59Zm-1.7-6.157a4.4,4.4,0,0,0-.234,1.959,4.6,4.6,0,0,0,.234,1.822,2.081,2.081,0,0,0,.836.924,2.622,2.622,0,0,0,1.116.18,2.632,2.632,0,0,0,1.119-.18,2.091,2.091,0,0,0,.836-.924,4.64,4.64,0,0,0,.234-1.822,4.418,4.418,0,0,0-.234-1.959,1.6,1.6,0,0,0-1.673-.841h-.562A1.769,1.769,0,0,0,10.885,52.433Zm95.486,6.1c-2.085,0-2.781-.4-3.239-1.105a3.837,3.837,0,0,1-.173-1.29v-.694l.007,0V52.086c0-.186-.445-.378-.783-.432a.1.1,0,0,1-.076-.031.108.108,0,0,1-.015-.077l.007-.961a.075.075,0,0,1,.074-.074h3.668a.075.075,0,0,1,.076.074l.007.961a.123.123,0,0,1-.014.077.106.106,0,0,1-.079.031c-.338.054-.781.246-.781.432V55.62a3.742,3.742,0,0,0,.07,1.071.978.978,0,0,0,.676.4c.14.024.6.036.827.039s.682-.014.826-.039a.98.98,0,0,0,.674-.4,3.679,3.679,0,0,0,.07-1.071V52.086c0-.186-.442-.378-.78-.432,0,0-.058,0-.077-.031a.114.114,0,0,1-.017-.077l.008-.961a.074.074,0,0,1,.074-.074h3.668a.076.076,0,0,1,.076.074l.007.961a.149.149,0,0,1-.014.077.108.108,0,0,1-.079.031c-.339.054-.78.246-.78.432V55.44l0,0v.694a3.86,3.86,0,0,1-.169,1.29c-.46.707-1.256,1.105-3.34,1.105Zm-25.424-.069H78.563c-.9,0-1.22-.049-1.22-.257v-.676l0-1.532c0-.133.046-.13.181-.13h.715c.139,0,.224.068.224.13l.165.39a2.922,2.922,0,0,0,.715.727,5.3,5.3,0,0,0,1.407.1c.41-.008,1.192-.142,1.317-.8s-.22-1.042-1-1.164a23.005,23.005,0,0,1-2.562-.641,1.706,1.706,0,0,1-1.283-1.838A2.545,2.545,0,0,1,78,50.964a2.456,2.456,0,0,1,1.46-.52H82.1c.406,0,1.218,0,1.218.136l0,2.038c0,.219-.052.269-.25.246h-.647a.247.247,0,0,1-.248-.246,3.456,3.456,0,0,0-.3-.582,1.08,1.08,0,0,0-.557-.4,2.556,2.556,0,0,0-.939-.1c-.41.009-1.315.131-1.315.806s.655.795,1.436.919a8.648,8.648,0,0,1,2.564.641c.657.4.732,1.009.78,2.145a2.558,2.558,0,0,1-1.124,2.019,3.751,3.751,0,0,1-1.715.4Zm-51.935,0H26.627c-.9,0-1.219-.049-1.219-.257v-.676L25.4,56c0-.133.045-.13.184-.13H26.3c.139,0,.224.068.224.13l.165.39a2.969,2.969,0,0,0,.715.727,5.3,5.3,0,0,0,1.407.1c.41-.008,1.193-.142,1.316-.8s-.218-1.042-1-1.164a22.941,22.941,0,0,1-2.564-.641,1.706,1.706,0,0,1-1.282-1.838,2.534,2.534,0,0,1,.781-1.806,2.449,2.449,0,0,1,1.458-.52h2.636c.407,0,1.22,0,1.22.136l0,2.038c0,.219-.051.269-.251.246h-.644a.248.248,0,0,1-.25-.246,3.411,3.411,0,0,0-.3-.582,1.085,1.085,0,0,0-.561-.4,2.547,2.547,0,0,0-.937-.1c-.41.009-1.316.131-1.316.806s.657.795,1.437.919a8.635,8.635,0,0,1,2.563.641c.655.4.732,1.009.782,2.145a2.557,2.557,0,0,1-1.126,2.019,3.746,3.746,0,0,1-1.714.4Zm-9.786-.014a.072.072,0,0,1-.075-.061h0V57.324a.073.073,0,0,1,.075-.06l.2-.041c.182-.031.438-.1.431-.205V54.925l-2.215-3.1a1.1,1.1,0,0,0-.572-.28c-.17-.008-.131-.052-.139-.282v-.625c0-.134.109-.148.248-.148h3.145a.166.166,0,0,1,.17.19v.479c0,.182-.059.192-.164.192a.424.424,0,0,0-.293.136.608.608,0,0,0,.016.53l.933,1.326a.285.285,0,0,0,.238.171h.023a.3.3,0,0,0,.283-.182c.221-.335.737-1.173.854-1.379a.757.757,0,0,0,.1-.359.591.591,0,0,0-.04-.091.272.272,0,0,0-.2-.123s-.221.05-.228-.071v-.575c.006-.233.033-.247.251-.243H24.75c.189,0,.255.023.251.243v.633c0,.137,0,.218-.205.2l-.274.041a.716.716,0,0,0-.337.225c-.1.111-.418.53-.418.53l-1.813,2.747V56.93c.016.132.375.292.649.334h.089a.074.074,0,0,1,.073.06l0,0v1.063h0a.072.072,0,0,1-.073.061Zm93.243,0-.068,0h-.791a.075.075,0,0,1-.076-.075s0-.926,0-.926a.125.125,0,0,1,.022-.105.248.248,0,0,1,.086-.054c.342-.053.752-.245.76-.453v-4.75c0-.188-.454-.417-.743-.448a.312.312,0,0,1-.093-.021.1.1,0,0,1-.032-.085s0-.957,0-.957a.076.076,0,0,1,.076-.076l6.206.008a1.528,1.528,0,0,1,1.545,1.514v.552a1.522,1.522,0,0,1-1.37,1.5h-.231a.094.094,0,0,0-.095.094.092.092,0,0,0,.095.091h.011v.014h.045c1.377,0,1.861.678,1.861,1.514v.787a1.961,1.961,0,0,1-1.861,1.881Zm2.056-6.621c-.032.023-.032.105-.032.105v5.124a.12.12,0,0,0,.04.077l.071.014h1.806c.671,0,1.164-.229,1.156-1.026v-.344c-.007-.207-.22-.684-1.075-.733h-.909a.248.248,0,0,1-.25-.245v-.857a.248.248,0,0,1,.25-.247l.814-.006c.452.028.795-.538.787-.753v-.454a.759.759,0,0,0-.772-.68h-1.783A.215.215,0,0,0,114.525,51.827ZM.941,58.449l-.073,0H.078A.075.075,0,0,1,0,58.371v-.926a.123.123,0,0,1,.024-.105.232.232,0,0,1,.086-.054c.338-.053.75-.245.757-.453v-4.75c0-.188-.452-.417-.742-.448a.321.321,0,0,1-.095-.021A.1.1,0,0,1,0,51.529v-.957A.076.076,0,0,1,.078,50.5l6.208.008a1.53,1.53,0,0,1,1.546,1.514v.552a1.52,1.52,0,0,1-1.372,1.5h-.23a.094.094,0,0,0-.094.094.092.092,0,0,0,.094.091h.01v.014h.046c1.377,0,1.861.678,1.861,1.514v.787a1.961,1.961,0,0,1-1.861,1.881ZM3,51.827c-.032.023-.032.105-.032.105v5.124A.123.123,0,0,0,3,57.134l.071.014H4.882c.669,0,1.161-.229,1.155-1.026v-.344c-.008-.207-.222-.684-1.075-.733H4.054A.247.247,0,0,1,3.8,54.8v-.857a.248.248,0,0,1,.25-.247l.813-.006c.453.028.8-.538.786-.753v-.454a.758.758,0,0,0-.77-.68H3.1A.211.211,0,0,0,3,51.827ZM98.676,58.4H95.992a.075.075,0,0,1-.076-.072l-.007-.963s-.008-.043.016-.075a.1.1,0,0,1,.077-.03c.338-.055.782-.247.782-.433V52.086c0-.186-.444-.378-.782-.432a.106.106,0,0,1-.077-.031.139.139,0,0,1-.016-.077l.007-.961a.075.075,0,0,1,.076-.074H99.34a.075.075,0,0,1,.075.074l.007.961a.108.108,0,0,1-.015.077.106.106,0,0,1-.077.031c-.339.054-.78.246-.78.432v4.746c0,.071.064.141.162.205h.857a2.528,2.528,0,0,0,.937-.1,1.725,1.725,0,0,0,.749-.673,1.1,1.1,0,0,0,.1-.419v-.314a.249.249,0,0,1,.252-.246h.645a.249.249,0,0,1,.252.246v1.649a.283.283,0,0,1,.024.107v.877a.247.247,0,0,1-.25.243Zm-25.7,0H70.3a.074.074,0,0,1-.075-.072l-.01-.963a.149.149,0,0,1,.016-.075.1.1,0,0,1,.078-.03c.338-.055.781-.247.781-.433V52.1c0-.186-.443-.377-.781-.432a.108.108,0,0,1-.078-.032.156.156,0,0,1-.016-.076l.01-.962a.073.073,0,0,1,.075-.071h3.347a.073.073,0,0,1,.075.071l.008.962a.124.124,0,0,1-.015.076.107.107,0,0,1-.078.032c-.339.055-.781.246-.781.432v4.73c0,.071.064.141.163.205h.855a2.53,2.53,0,0,0,.938-.1,1.717,1.717,0,0,0,.75-.673,1.119,1.119,0,0,0,.1-.419v-.314a.248.248,0,0,1,.251-.246h.646a.248.248,0,0,1,.25.246v1.649a.24.24,0,0,1,.025.107v.877a.245.245,0,0,1-.248.243Zm-5.772,0s-.3-.021-.355-.183a1.134,1.134,0,0,1-.032-.256l.019-2.217c-.006-.208.03-.682-.824-.733H64.732a.248.248,0,0,1-.25-.246v-.858a.247.247,0,0,1,.25-.243H65.89l.031-.008c.452.027.794-.6.787-.814V52.5a.758.758,0,0,0-.771-.681h-1.93c-.172.08-.3.182-.3.283v4.723c0,.189.442.378.782.433a.1.1,0,0,1,.078.032.125.125,0,0,1,.014.076l-.006.963a.073.073,0,0,1-.075.072H61.15a.074.074,0,0,1-.074-.072l-.006-.963a.118.118,0,0,1,.013-.076.1.1,0,0,1,.078-.032c.341-.055.783-.244.783-.433V52.1c0-.187-.442-.378-.783-.432a.1.1,0,0,1-.078-.029.136.136,0,0,1-.015-.077l.009-.961a.076.076,0,0,1,.074-.075h2.839v-.007H67.34a1.528,1.528,0,0,1,1.546,1.511v.443a1.586,1.586,0,0,1-1.371,1.565h-.23a.092.092,0,1,0,0,.184h.01v.014h.045c1.376,0,1.612.676,1.612,1.512l0,1.077c0,.189.441.378.781.433a.1.1,0,0,1,.079.032.142.142,0,0,1,.014.076l-.008.963a.073.073,0,0,1-.075.072Zm-10.152,0a.074.074,0,0,1-.075-.072l-.008-.963s-.007-.043.016-.076a.1.1,0,0,1,.078-.032c.34-.055.782-.244.782-.433V52.1c0-.187-.442-.378-.782-.432a.1.1,0,0,1-.078-.029c-.023-.034-.012-.077-.016-.077l.008-.961a.076.076,0,0,1,.075-.075H60.4a.075.075,0,0,1,.075.075l.008.961a.14.14,0,0,1-.016.077c-.022.031-.076.029-.076.029-.34.054-.782.245-.782.432v4.723c0,.189.442.378.782.433a.1.1,0,0,1,.076.032.133.133,0,0,1,.016.076l-.008.963a.073.073,0,0,1-.075.072Z" transform="translate(172 55)"/><path class="a" d="M-753.9,250.268l-.019-.018a4.094,4.094,0,0,1,1.115-.668,5.457,5.457,0,0,1,1.652-.29,5.446,5.446,0,0,1,1.651.29,4.13,4.13,0,0,1,1.116.668l-.02.018,22.537,22.154-.919.9.017.02a4.491,4.491,0,0,1-2.754,1.378,3.844,3.844,0,0,1-2.778-1.378l.02-.02-11.784-11.616a6.021,6.021,0,0,0-4.725-2.325,7.576,7.576,0,0,0-4.892,2.325l-14.851,14.456,12.289,12.572a5.7,5.7,0,0,0,4.258,1.64,8.808,8.808,0,0,0,4.494-.943,6.638,6.638,0,0,0,3.451.943,8.8,8.8,0,0,0,4.492-.943,6.631,6.631,0,0,0,3.453.943,8.562,8.562,0,0,0,4.673-1.055,6.453,6.453,0,0,0,3.614,1.055c.179.006.361.008.55,0s.374,0,.551,0a5.693,5.693,0,0,0,4.255-1.64l20.331-20.109-2.044-2-20.349,20.126.019.018a4.255,4.255,0,0,1-1.114.668,5.51,5.51,0,0,1-1.651.288,5.516,5.516,0,0,1-1.651-.288,4.333,4.333,0,0,1-1.116-.668l.02-.018L-752.543,264.6l.922-.9-.02-.02a4.488,4.488,0,0,1,2.756-1.377,2.9,2.9,0,0,1,1.579.4l-.012.012,13.454,13.242.066-.066a5.735,5.735,0,0,0,4.178,1.747,7.553,7.553,0,0,0,4.892-2.327l14.849-14.453-12.29-12.575a5.685,5.685,0,0,0-4.255-1.636,8.789,8.789,0,0,0-4.5.942,6.609,6.609,0,0,0-3.452-.942,8.78,8.78,0,0,0-4.494.942,6.608,6.608,0,0,0-3.45-.942,8.505,8.505,0,0,0-4.673,1.054,6.434,6.434,0,0,0-3.614-1.054c-.176,0-.362-.01-.549,0s-.373,0-.55,0a5.688,5.688,0,0,0-4.258,1.636l-20.33,20.111,2.044,2Zm2.04,37.447a4.069,4.069,0,0,1-2.343-.946l.019-.018-2.355-2.308-.336-.329-7.772-7.621,1.928-1.894,13.051,12.792A5.286,5.286,0,0,1-751.86,287.715Zm7.946,0a4.063,4.063,0,0,1-2.341-.946l.016-.018-2.351-2.308-.337-.329-11.754-11.521,1.929-1.9,17.03,16.694A5.289,5.289,0,0,1-743.914,287.715Zm10.382-.419a5.373,5.373,0,0,1-2.439.419,4.063,4.063,0,0,1-2.34-.946l.017-.018-2.352-2.308-.334-.329-15.732-15.421,2.126-2.093Zm6.982-37.995a4.073,4.073,0,0,1,2.339.949l-.019.018,2.356,2.306.335.332,7.771,7.617-1.927,1.9-13.049-12.8A5.337,5.337,0,0,1-726.549,249.3Zm-7.948,0a4.087,4.087,0,0,1,2.341.949l-.017.018,2.354,2.306.334.332,11.751,11.519-1.928,1.894-17.028-16.7A5.33,5.33,0,0,1-734.5,249.3Zm-7.944,0a4.075,4.075,0,0,1,2.337.949l-.017.018,2.351,2.306.338.332,15.731,15.419-2.126,2.093-21.051-20.7A5.39,5.39,0,0,1-742.441,249.3Z" transform="translate(971.044 -191.638)"/></g></svg>