<?xml version="1.0" encoding="utf-8"?>
<!-- Generator: Adobe Illustrator 24.0.3, SVG Export Plug-In . SVG Version: 6.00 Build 0)  -->
<svg version="1.1" id="Layer_1" xmlns="http://www.w3.org/2000/svg" xmlns:xlink="http://www.w3.org/1999/xlink" x="0px" y="0px"
	 viewBox="0 0 77 77" style="enable-background:new 0 0 77 77;" xml:space="preserve">
<style type="text/css">
	.st0{fill:#9B26B6;}
</style>
<g>
	<circle class="st0" cx="2.6" cy="2.6" r="0.7"/>
	<path class="st0" d="M8.4,3.3c0.4,0,0.7-0.3,0.7-0.7h0c0-0.4-0.3-0.7-0.7-0.7C8,1.9,7.7,2.2,7.7,2.6S8,3.3,8.4,3.3z"/>
	<path class="st0" d="M14.3,3.3C14.7,3.3,15,3,15,2.6h0c0-0.4-0.3-0.7-0.7-0.7c-0.4,0-0.7,0.3-0.7,0.7S13.9,3.3,14.3,3.3z"/>
	<path class="st0" d="M20.2,3.3c0.4,0,0.7-0.3,0.7-0.7h0c0-0.4-0.3-0.7-0.7-0.7c0,0,0,0,0,0c-0.4,0-0.7,0.3-0.7,0.7
		S19.8,3.3,20.2,3.3z"/>
	<path class="st0" d="M26,3.3c0.4,0,0.7-0.3,0.7-0.7h0c0-0.4-0.3-0.7-0.7-0.7c-0.4,0-0.7,0.3-0.7,0.7S25.6,3.3,26,3.3z"/>
	<path class="st0" d="M31.9,3.3c0.4,0,0.7-0.3,0.7-0.7h0c0-0.4-0.3-0.7-0.7-0.7c-0.4,0-0.7,0.3-0.7,0.7S31.5,3.3,31.9,3.3z"/>
	<path class="st0" d="M37.7,3.3c0.4,0,0.7-0.3,0.7-0.7h0c0-0.4-0.3-0.7-0.7-0.7c-0.4,0-0.7,0.3-0.7,0.7S37.3,3.3,37.7,3.3z"/>
	<path class="st0" d="M43.6,3.3c0.4,0,0.7-0.3,0.7-0.7h0c0-0.4-0.3-0.7-0.7-0.7c0,0,0,0,0,0c-0.4,0-0.7,0.3-0.7,0.7
		S43.2,3.3,43.6,3.3z"/>
	<path class="st0" d="M49.4,3.3c0.4,0,0.7-0.3,0.7-0.7h0c0-0.4-0.3-0.7-0.7-0.7c-0.4,0-0.7,0.3-0.7,0.7S49,3.3,49.4,3.3z"/>
	<path class="st0" d="M55.3,3.3C55.7,3.3,56,3,56,2.6h0c0-0.4-0.3-0.7-0.7-0.7c-0.4,0-0.7,0.3-0.7,0.7S54.9,3.3,55.3,3.3z"/>
	<path class="st0" d="M61.1,3.3c0.4,0,0.7-0.3,0.7-0.7h0c0-0.4-0.3-0.7-0.7-0.7c-0.4,0-0.7,0.3-0.7,0.7S60.7,3.3,61.1,3.3z"/>
	<path class="st0" d="M67,3.3c0.4,0,0.7-0.3,0.7-0.7h0c0-0.4-0.3-0.7-0.7-0.7c-0.4,0-0.7,0.3-0.7,0.7S66.6,3.3,67,3.3z"/>
	<path class="st0" d="M72.9,3.3c0.4,0,0.7-0.3,0.7-0.7h0c0-0.4-0.3-0.7-0.7-0.7c-0.4,0-0.7,0.3-0.7,0.7S72.5,3.3,72.9,3.3z"/>
	<path class="st0" d="M2.6,7.7C2.2,7.7,1.9,8,1.9,8.4c0,0.4,0.3,0.7,0.7,0.7c0.4,0,0.7-0.3,0.7-0.7h0C3.3,8,3,7.7,2.6,7.7z"/>
	<path class="st0" d="M9.2,8.4c0-0.4-0.3-0.7-0.7-0.7C8,7.7,7.7,8,7.7,8.4c0,0.4,0.3,0.7,0.7,0.7C8.8,9.2,9.2,8.8,9.2,8.4L9.2,8.4z"
		/>
	<path class="st0" d="M14.3,9.2c0.4,0,0.7-0.3,0.7-0.7h0c0-0.4-0.3-0.7-0.7-0.7c0,0,0,0,0,0c-0.4,0-0.7,0.3-0.7,0.7
		C13.6,8.8,13.9,9.2,14.3,9.2z"/>
	<path class="st0" d="M20.2,7.7c-0.4,0-0.7,0.3-0.7,0.7c0,0.4,0.3,0.7,0.7,0.7c0.4,0,0.7-0.3,0.7-0.7h0C20.9,8,20.6,7.7,20.2,7.7z"
		/>
	<path class="st0" d="M26,7.7c-0.4,0-0.7,0.3-0.7,0.7c0,0.4,0.3,0.7,0.7,0.7c0.4,0,0.7-0.3,0.7-0.7h0C26.7,8,26.4,7.7,26,7.7z"/>
	<path class="st0" d="M32.6,8.4c0-0.4-0.3-0.7-0.7-0.7c-0.4,0-0.7,0.3-0.7,0.7c0,0.4,0.3,0.7,0.7,0.7C32.3,9.2,32.6,8.8,32.6,8.4
		L32.6,8.4z"/>
	<path class="st0" d="M37.7,9.2c0.4,0,0.7-0.3,0.7-0.7h0c0-0.4-0.3-0.7-0.7-0.7c0,0,0,0,0,0C37.3,7.7,37,8,37,8.4
		C37,8.8,37.3,9.2,37.7,9.2z"/>
	<path class="st0" d="M43.6,7.7c-0.4,0-0.7,0.3-0.7,0.7c0,0.4,0.3,0.7,0.7,0.7c0.4,0,0.7-0.3,0.7-0.7h0C44.3,8,44,7.7,43.6,7.7z"/>
	<path class="st0" d="M49.4,7.7c-0.4,0-0.7,0.3-0.7,0.7c0,0.4,0.3,0.7,0.7,0.7c0.4,0,0.7-0.3,0.7-0.7h0C50.2,8,49.8,7.7,49.4,7.7z"
		/>
	<path class="st0" d="M56,8.4c0-0.4-0.3-0.7-0.7-0.7c-0.4,0-0.7,0.3-0.7,0.7c0,0.4,0.3,0.7,0.7,0.7C55.7,9.2,56,8.8,56,8.4L56,8.4z"
		/>
	<path class="st0" d="M61.1,9.2c0.4,0,0.7-0.3,0.7-0.7h0c0-0.4-0.3-0.7-0.7-0.7c-0.4,0-0.7,0.3-0.7,0.7C60.4,8.8,60.7,9.2,61.1,9.2z
		"/>
	<path class="st0" d="M67,7.7c-0.4,0-0.7,0.3-0.7,0.7c0,0.4,0.3,0.7,0.7,0.7c0.4,0,0.7-0.3,0.7-0.7h0C67.7,8,67.4,7.7,67,7.7z"/>
	<path class="st0" d="M72.9,7.7c-0.4,0-0.7,0.3-0.7,0.7c0,0.4,0.3,0.7,0.7,0.7s0.7-0.3,0.7-0.7h0C73.6,8,73.3,7.7,72.9,7.7z"/>
	<path class="st0" d="M2.6,15c0.4,0,0.7-0.3,0.7-0.7c0-0.4-0.3-0.7-0.7-0.7c0,0,0,0,0,0c-0.4,0-0.7,0.3-0.7,0.7
		C1.9,14.7,2.2,15,2.6,15z"/>
	<path class="st0" d="M8.4,15c0.4,0,0.7-0.3,0.7-0.7c0-0.4-0.3-0.7-0.7-0.7c-0.4,0-0.7,0.3-0.7,0.7C7.7,14.7,8,15,8.4,15z"/>
	<path class="st0" d="M14.3,15c0.4,0,0.7-0.3,0.7-0.7c0,0,0,0,0,0c0-0.4-0.3-0.7-0.7-0.7c-0.4,0-0.7,0.3-0.7,0.7
		C13.6,14.7,13.9,15,14.3,15z"/>
	<path class="st0" d="M20.2,15c0.4,0,0.7-0.3,0.7-0.7c0-0.4-0.3-0.7-0.7-0.7c-0.4,0-0.7,0.3-0.7,0.7C19.4,14.7,19.8,15,20.2,15z"/>
	<path class="st0" d="M26,15c0.4,0,0.7-0.3,0.7-0.7h0c0-0.4-0.3-0.7-0.7-0.7c0,0,0,0,0,0c-0.4,0-0.7,0.3-0.7,0.7
		C25.3,14.7,25.6,15,26,15z"/>
	<path class="st0" d="M31.9,15c0.4,0,0.7-0.3,0.7-0.7c0-0.4-0.3-0.7-0.7-0.7c-0.4,0-0.7,0.3-0.7,0.7C31.1,14.7,31.5,15,31.9,15z"/>
	<path class="st0" d="M37.7,15c0.4,0,0.7-0.3,0.7-0.7c0-0.4-0.3-0.7-0.7-0.7c-0.4,0-0.7,0.3-0.7,0.7C37,14.7,37.3,15,37.7,15z"/>
	<path class="st0" d="M43.6,15c0.4,0,0.7-0.3,0.7-0.7h0c0-0.4-0.3-0.7-0.7-0.7c-0.4,0-0.7,0.3-0.7,0.7C42.8,14.7,43.2,15,43.6,15z"
		/>
	<path class="st0" d="M49.4,15c0.4,0,0.7-0.3,0.7-0.7h0c0-0.4-0.3-0.7-0.7-0.7c0,0,0,0,0,0c-0.4,0-0.7,0.3-0.7,0.7
		C48.7,14.7,49,15,49.4,15z"/>
	<path class="st0" d="M55.3,15c0.4,0,0.7-0.3,0.7-0.7c0,0,0,0,0,0c0-0.4-0.3-0.7-0.7-0.7c-0.4,0-0.7,0.3-0.7,0.7
		C54.6,14.7,54.9,15,55.3,15z"/>
	<path class="st0" d="M61.1,15c0.4,0,0.7-0.3,0.7-0.7h0c0-0.4-0.3-0.7-0.7-0.7c-0.4,0-0.7,0.3-0.7,0.7C60.4,14.7,60.7,15,61.1,15z"
		/>
	<path class="st0" d="M67,15c0.4,0,0.7-0.3,0.7-0.7h0c0,0,0,0,0,0c0-0.4-0.3-0.7-0.7-0.7c-0.4,0-0.7,0.3-0.7,0.7
		C66.3,14.7,66.6,15,67,15z"/>
	<path class="st0" d="M72.9,15c0.4,0,0.7-0.3,0.7-0.7h0c0-0.4-0.3-0.7-0.7-0.7c-0.4,0-0.7,0.3-0.7,0.7C72.1,14.7,72.5,15,72.9,15z"
		/>
	<path class="st0" d="M2.6,20.9c0.4,0,0.7-0.3,0.7-0.7c0-0.4-0.3-0.7-0.7-0.7c0,0,0,0,0,0c-0.4,0-0.7,0.3-0.7,0.7
		C1.9,20.6,2.2,20.9,2.6,20.9z"/>
	<circle class="st0" cx="8.4" cy="20.2" r="0.7"/>
	<circle class="st0" cx="14.3" cy="20.2" r="0.7"/>
	<circle class="st0" cx="20.2" cy="20.2" r="0.7"/>
	<path class="st0" d="M26,20.9c0.4,0,0.7-0.3,0.7-0.7h0c0-0.4-0.3-0.7-0.7-0.7c0,0,0,0,0,0c-0.4,0-0.7,0.3-0.7,0.7
		C25.3,20.6,25.6,20.9,26,20.9z"/>
	<circle class="st0" cx="31.9" cy="20.2" r="0.7"/>
	<circle class="st0" cx="37.7" cy="20.2" r="0.7"/>
	<path class="st0" d="M43.6,20.9c0.4,0,0.7-0.3,0.7-0.7h0c0-0.4-0.3-0.7-0.7-0.7c-0.4,0-0.7,0.3-0.7,0.7
		C42.8,20.6,43.2,20.9,43.6,20.9z"/>
	<path class="st0" d="M49.4,20.9c0.4,0,0.7-0.3,0.7-0.7h0c0-0.4-0.3-0.7-0.7-0.7c0,0,0,0,0,0c-0.4,0-0.7,0.3-0.7,0.7
		C48.7,20.6,49,20.9,49.4,20.9z"/>
	<circle class="st0" cx="55.3" cy="20.2" r="0.7"/>
	<path class="st0" d="M61.1,20.9c0.4,0,0.7-0.3,0.7-0.7h0c0-0.4-0.3-0.7-0.7-0.7c-0.4,0-0.7,0.3-0.7,0.7
		C60.4,20.6,60.7,20.9,61.1,20.9z"/>
	<path class="st0" d="M67,20.9c0.4,0,0.7-0.3,0.7-0.7h0c0-0.4-0.3-0.7-0.7-0.7c-0.4,0-0.7,0.3-0.7,0.7C66.3,20.6,66.6,20.9,67,20.9z
		"/>
	<path class="st0" d="M72.9,20.9c0.4,0,0.7-0.3,0.7-0.7h0c0-0.4-0.3-0.7-0.7-0.7c-0.4,0-0.7,0.3-0.7,0.7
		C72.1,20.6,72.5,20.9,72.9,20.9z"/>
	<path class="st0" d="M3.3,26c0-0.4-0.3-0.7-0.7-0.7c-0.4,0-0.7,0.3-0.7,0.7s0.3,0.7,0.7,0.7C3,26.7,3.3,26.4,3.3,26z"/>
	<path class="st0" d="M9.2,26L9.2,26c0-0.4-0.3-0.7-0.7-0.7c-0.4,0-0.7,0.3-0.7,0.7s0.3,0.7,0.7,0.7C8.8,26.7,9.2,26.4,9.2,26z"/>
	<path class="st0" d="M14.3,26.7c0.4,0,0.7-0.3,0.7-0.7h0c0-0.4-0.3-0.7-0.7-0.7c-0.4,0-0.7,0.3-0.7,0.7S13.9,26.7,14.3,26.7z"/>
	<path class="st0" d="M20.2,26.7c0.4,0,0.7-0.3,0.7-0.7h0c0-0.4-0.3-0.7-0.7-0.7c0,0,0,0,0,0c-0.4,0-0.7,0.3-0.7,0.7
		S19.8,26.7,20.2,26.7z"/>
	<path class="st0" d="M26.7,26L26.7,26c0-0.4-0.3-0.7-0.7-0.7s-0.7,0.3-0.7,0.7s0.3,0.7,0.7,0.7C26.4,26.7,26.7,26.4,26.7,26z"/>
	<path class="st0" d="M32.6,26L32.6,26c0-0.4-0.3-0.7-0.7-0.7c-0.4,0-0.7,0.3-0.7,0.7s0.3,0.7,0.7,0.7C32.3,26.7,32.6,26.4,32.6,26z
		"/>
	<path class="st0" d="M37.7,26.7c0.4,0,0.7-0.3,0.7-0.7h0c0-0.4-0.3-0.7-0.7-0.7c-0.4,0-0.7,0.3-0.7,0.7S37.3,26.7,37.7,26.7z"/>
	<path class="st0" d="M43.6,26.7c0.4,0,0.7-0.3,0.7-0.7h0c0-0.4-0.3-0.7-0.7-0.7c0,0,0,0,0,0c-0.4,0-0.7,0.3-0.7,0.7
		S43.2,26.7,43.6,26.7z"/>
	<path class="st0" d="M50.2,26L50.2,26c0-0.4-0.3-0.7-0.7-0.7c-0.4,0-0.7,0.3-0.7,0.7s0.3,0.7,0.7,0.7C49.8,26.7,50.2,26.4,50.2,26z
		"/>
	<path class="st0" d="M56,26L56,26c0-0.4-0.3-0.7-0.7-0.7c-0.4,0-0.7,0.3-0.7,0.7s0.3,0.7,0.7,0.7S56,26.4,56,26z"/>
	<path class="st0" d="M61.1,26.7c0.4,0,0.7-0.3,0.7-0.7h0c0-0.4-0.3-0.7-0.7-0.7c-0.4,0-0.7,0.3-0.7,0.7S60.7,26.7,61.1,26.7z"/>
	<path class="st0" d="M67,26.7c0.4,0,0.7-0.3,0.7-0.7h0c0-0.4-0.3-0.7-0.7-0.7c-0.4,0-0.7,0.3-0.7,0.7S66.6,26.7,67,26.7z"/>
	<path class="st0" d="M73.6,26L73.6,26c0-0.4-0.3-0.7-0.7-0.7c-0.4,0-0.7,0.3-0.7,0.7s0.3,0.7,0.7,0.7C73.3,26.7,73.6,26.4,73.6,26z
		"/>
	<path class="st0" d="M2.6,32.6c0.4,0,0.7-0.3,0.7-0.7l0,0c0-0.4-0.3-0.7-0.7-0.7c-0.4,0-0.7,0.3-0.7,0.7
		C1.9,32.3,2.2,32.6,2.6,32.6z"/>
	<path class="st0" d="M8.4,32.6c0.4,0,0.7-0.3,0.7-0.7l0,0c0-0.4-0.3-0.7-0.7-0.7c-0.4,0-0.7,0.3-0.7,0.7C7.7,32.3,8,32.6,8.4,32.6z
		"/>
	<path class="st0" d="M15,31.9c0-0.4-0.3-0.7-0.7-0.7c0,0,0,0,0,0c-0.4,0-0.7,0.3-0.7,0.7c0,0.4,0.3,0.7,0.7,0.7
		C14.7,32.6,15,32.3,15,31.9L15,31.9z"/>
	<path class="st0" d="M20.9,31.9L20.9,31.9c0-0.4-0.3-0.7-0.7-0.7c-0.4,0-0.7,0.3-0.7,0.7c0,0.4,0.3,0.7,0.7,0.7
		C20.6,32.6,20.9,32.3,20.9,31.9z"/>
	<path class="st0" d="M26,32.6c0.4,0,0.7-0.3,0.7-0.7l0,0c0-0.4-0.3-0.7-0.7-0.7c-0.4,0-0.7,0.3-0.7,0.7
		C25.3,32.3,25.6,32.6,26,32.6z"/>
	<path class="st0" d="M31.9,32.6c0.4,0,0.7-0.3,0.7-0.7l0,0c0-0.4-0.3-0.7-0.7-0.7c-0.4,0-0.7,0.3-0.7,0.7
		C31.1,32.3,31.5,32.6,31.9,32.6z"/>
	<path class="st0" d="M38.5,31.9c0-0.4-0.3-0.7-0.7-0.7c0,0,0,0,0,0c-0.4,0-0.7,0.3-0.7,0.7c0,0.4,0.3,0.7,0.7,0.7
		C38.1,32.6,38.5,32.3,38.5,31.9L38.5,31.9z"/>
	<path class="st0" d="M44.3,31.9L44.3,31.9c0-0.4-0.3-0.7-0.7-0.7c-0.4,0-0.7,0.3-0.7,0.7c0,0.4,0.3,0.7,0.7,0.7
		C44,32.6,44.3,32.3,44.3,31.9z"/>
	<path class="st0" d="M49.4,32.6c0.4,0,0.7-0.3,0.7-0.7l0,0c0-0.4-0.3-0.7-0.7-0.7c-0.4,0-0.7,0.3-0.7,0.7
		C48.7,32.3,49,32.6,49.4,32.6z"/>
	<path class="st0" d="M55.3,32.6c0.4,0,0.7-0.3,0.7-0.7l0,0c0-0.4-0.3-0.7-0.7-0.7c-0.4,0-0.7,0.3-0.7,0.7
		C54.6,32.3,54.9,32.6,55.3,32.6z"/>
	<path class="st0" d="M61.9,31.9c0-0.4-0.3-0.7-0.7-0.7c-0.4,0-0.7,0.3-0.7,0.7c0,0.4,0.3,0.7,0.7,0.7
		C61.6,32.6,61.9,32.3,61.9,31.9L61.9,31.9z"/>
	<path class="st0" d="M67.7,31.9L67.7,31.9c0-0.4-0.3-0.7-0.7-0.7c-0.4,0-0.7,0.3-0.7,0.7c0,0.4,0.3,0.7,0.7,0.7
		C67.4,32.6,67.7,32.3,67.7,31.9z"/>
	<path class="st0" d="M72.9,32.6c0.4,0,0.7-0.3,0.7-0.7l0,0c0-0.4-0.3-0.7-0.7-0.7c-0.4,0-0.7,0.3-0.7,0.7
		C72.1,32.3,72.5,32.6,72.9,32.6z"/>
	<path class="st0" d="M2.6,38.5c0.4,0,0.7-0.3,0.7-0.7h0C3.3,37.3,3,37,2.6,37c-0.4,0-0.7,0.3-0.7,0.7C1.9,38.1,2.2,38.5,2.6,38.5z"
		/>
	<path class="st0" d="M8.4,37C8.4,37,8.4,37,8.4,37c-0.4,0-0.7,0.3-0.7,0.7c0,0.4,0.3,0.7,0.7,0.7c0.4,0,0.7-0.3,0.7-0.7h0
		C9.2,37.3,8.8,37,8.4,37z"/>
	<path class="st0" d="M14.3,37c-0.4,0-0.7,0.3-0.7,0.7c0,0.4,0.3,0.7,0.7,0.7c0.4,0,0.7-0.3,0.7-0.7h0C15,37.3,14.7,37,14.3,37z"/>
	<path class="st0" d="M20.2,38.5c0.4,0,0.7-0.3,0.7-0.7h0c0-0.4-0.3-0.7-0.7-0.7c-0.4,0-0.7,0.3-0.7,0.7
		C19.4,38.1,19.8,38.5,20.2,38.5z"/>
	<path class="st0" d="M26,38.5c0.4,0,0.7-0.3,0.7-0.7h0c0-0.4-0.3-0.7-0.7-0.7c-0.4,0-0.7,0.3-0.7,0.7C25.3,38.1,25.6,38.5,26,38.5z
		"/>
	<path class="st0" d="M31.9,37C31.9,37,31.9,37,31.9,37c-0.4,0-0.7,0.3-0.7,0.7c0,0.4,0.3,0.7,0.7,0.7c0.4,0,0.7-0.3,0.7-0.7h0
		C32.6,37.3,32.3,37,31.9,37z"/>
	<path class="st0" d="M37.7,37c-0.4,0-0.7,0.3-0.7,0.7c0,0.4,0.3,0.7,0.7,0.7c0.4,0,0.7-0.3,0.7-0.7h0C38.5,37.3,38.1,37,37.7,37z"
		/>
	<path class="st0" d="M43.6,38.5c0.4,0,0.7-0.3,0.7-0.7h0c0-0.4-0.3-0.7-0.7-0.7c-0.4,0-0.7,0.3-0.7,0.7
		C42.8,38.1,43.2,38.5,43.6,38.5z"/>
	<path class="st0" d="M49.4,38.5c0.4,0,0.7-0.3,0.7-0.7h0c0-0.4-0.3-0.7-0.7-0.7c-0.4,0-0.7,0.3-0.7,0.7
		C48.7,38.1,49,38.5,49.4,38.5z"/>
	<path class="st0" d="M55.3,37c-0.4,0-0.7,0.3-0.7,0.7c0,0.4,0.3,0.7,0.7,0.7c0.4,0,0.7-0.3,0.7-0.7h0C56,37.3,55.7,37,55.3,37z"/>
	<path class="st0" d="M61.1,37c-0.4,0-0.7,0.3-0.7,0.7c0,0.4,0.3,0.7,0.7,0.7c0.4,0,0.7-0.3,0.7-0.7h0C61.9,37.3,61.6,37,61.1,37z"
		/>
	<path class="st0" d="M67,38.5c0.4,0,0.7-0.3,0.7-0.7h0c0-0.4-0.3-0.7-0.7-0.7c-0.4,0-0.7,0.3-0.7,0.7C66.3,38.1,66.6,38.5,67,38.5z
		"/>
	<path class="st0" d="M72.9,37c-0.4,0-0.7,0.3-0.7,0.7c0,0.4,0.3,0.7,0.7,0.7c0.4,0,0.7-0.3,0.7-0.7h0C73.6,37.3,73.3,37,72.9,37z"
		/>
	<path class="st0" d="M2.6,42.8C2.6,42.8,2.6,42.8,2.6,42.8c-0.4,0-0.7,0.3-0.7,0.7c0,0.4,0.3,0.7,0.7,0.7c0.4,0,0.7-0.3,0.7-0.7h0
		C3.3,43.2,3,42.8,2.6,42.8z"/>
	<path class="st0" d="M8.4,42.8c-0.4,0-0.7,0.3-0.7,0.7c0,0.4,0.3,0.7,0.7,0.7c0.4,0,0.7-0.3,0.7-0.7h0C9.2,43.2,8.8,42.8,8.4,42.8z
		"/>
	<path class="st0" d="M14.3,42.8c-0.4,0-0.7,0.3-0.7,0.7c0,0.4,0.3,0.7,0.7,0.7c0.4,0,0.7-0.3,0.7-0.7h0
		C15,43.2,14.7,42.8,14.3,42.8z"/>
	<path class="st0" d="M20.2,42.8c-0.4,0-0.7,0.3-0.7,0.7c0,0.4,0.3,0.7,0.7,0.7c0.4,0,0.7-0.3,0.7-0.7h0
		C20.9,43.2,20.6,42.8,20.2,42.8z"/>
	<path class="st0" d="M26,42.8C26,42.8,26,42.8,26,42.8c-0.4,0-0.7,0.3-0.7,0.7c0,0.4,0.3,0.7,0.7,0.7c0.4,0,0.7-0.3,0.7-0.7h0
		C26.7,43.2,26.4,42.8,26,42.8z"/>
	<path class="st0" d="M31.9,42.8c-0.4,0-0.7,0.3-0.7,0.7c0,0.4,0.3,0.7,0.7,0.7c0.4,0,0.7-0.3,0.7-0.7h0
		C32.6,43.2,32.3,42.8,31.9,42.8z"/>
	<path class="st0" d="M37.7,42.8c-0.4,0-0.7,0.3-0.7,0.7c0,0.4,0.3,0.7,0.7,0.7c0.4,0,0.7-0.3,0.7-0.7h0
		C38.5,43.2,38.1,42.8,37.7,42.8z"/>
	<path class="st0" d="M43.6,42.8c-0.4,0-0.7,0.3-0.7,0.7c0,0.4,0.3,0.7,0.7,0.7c0.4,0,0.7-0.3,0.7-0.7h0
		C44.3,43.2,44,42.8,43.6,42.8z"/>
	<path class="st0" d="M49.4,42.8C49.4,42.8,49.4,42.8,49.4,42.8c-0.4,0-0.7,0.3-0.7,0.7c0,0.4,0.3,0.7,0.7,0.7
		c0.4,0,0.7-0.3,0.7-0.7h0C50.2,43.2,49.8,42.8,49.4,42.8z"/>
	<path class="st0" d="M55.3,42.8c-0.4,0-0.7,0.3-0.7,0.7c0,0.4,0.3,0.7,0.7,0.7c0.4,0,0.7-0.3,0.7-0.7h0
		C56,43.2,55.7,42.8,55.3,42.8z"/>
	<path class="st0" d="M61.1,42.8c-0.4,0-0.7,0.3-0.7,0.7c0,0.4,0.3,0.7,0.7,0.7s0.7-0.3,0.7-0.7h0C61.9,43.2,61.6,42.8,61.1,42.8z"
		/>
	<path class="st0" d="M67,42.8c-0.4,0-0.7,0.3-0.7,0.7c0,0.4,0.3,0.7,0.7,0.7c0.4,0,0.7-0.3,0.7-0.7h0C67.7,43.2,67.4,42.8,67,42.8z
		"/>
	<path class="st0" d="M72.9,42.8c-0.4,0-0.7,0.3-0.7,0.7c0,0.4,0.3,0.7,0.7,0.7c0.4,0,0.7-0.3,0.7-0.7h0
		C73.6,43.2,73.3,42.8,72.9,42.8z"/>
	<path class="st0" d="M2.6,50.2c0.4,0,0.7-0.3,0.7-0.7c0-0.4-0.3-0.7-0.7-0.7c0,0,0,0,0,0c-0.4,0-0.7,0.3-0.7,0.7
		C1.9,49.8,2.2,50.2,2.6,50.2z"/>
	<circle class="st0" cx="8.4" cy="49.4" r="0.7"/>
	<circle class="st0" cx="14.3" cy="49.4" r="0.7"/>
	<circle class="st0" cx="20.2" cy="49.4" r="0.7"/>
	<path class="st0" d="M26,50.2c0.4,0,0.7-0.3,0.7-0.7h0c0-0.4-0.3-0.7-0.7-0.7c0,0,0,0,0,0c-0.4,0-0.7,0.3-0.7,0.7
		C25.3,49.8,25.6,50.2,26,50.2z"/>
	<circle class="st0" cx="31.9" cy="49.4" r="0.7"/>
	<circle class="st0" cx="37.7" cy="49.4" r="0.7"/>
	<path class="st0" d="M43.6,50.2c0.4,0,0.7-0.3,0.7-0.7h0c0-0.4-0.3-0.7-0.7-0.7c-0.4,0-0.7,0.3-0.7,0.7
		C42.8,49.8,43.2,50.2,43.6,50.2z"/>
	<path class="st0" d="M49.4,50.2c0.4,0,0.7-0.3,0.7-0.7h0c0-0.4-0.3-0.7-0.7-0.7c0,0,0,0,0,0c-0.4,0-0.7,0.3-0.7,0.7
		C48.7,49.8,49,50.2,49.4,50.2z"/>
	<circle class="st0" cx="55.3" cy="49.4" r="0.7"/>
	<path class="st0" d="M61.1,50.2c0.4,0,0.7-0.3,0.7-0.7h0c0-0.4-0.3-0.7-0.7-0.7c-0.4,0-0.7,0.3-0.7,0.7
		C60.4,49.8,60.7,50.2,61.1,50.2z"/>
	<path class="st0" d="M67,50.2c0.4,0,0.7-0.3,0.7-0.7h0c0-0.4-0.3-0.7-0.7-0.7c-0.4,0-0.7,0.3-0.7,0.7C66.3,49.8,66.6,50.2,67,50.2z
		"/>
	<path class="st0" d="M72.9,50.2c0.4,0,0.7-0.3,0.7-0.7h0c0-0.4-0.3-0.7-0.7-0.7c-0.4,0-0.7,0.3-0.7,0.7
		C72.1,49.8,72.5,50.2,72.9,50.2z"/>
	<path class="st0" d="M1.9,55.3c0,0.4,0.3,0.7,0.7,0.7c0.4,0,0.7-0.3,0.7-0.7c0-0.4-0.3-0.7-0.7-0.7C2.2,54.6,1.9,54.9,1.9,55.3z"/>
	<path class="st0" d="M8.4,54.6c-0.4,0-0.7,0.3-0.7,0.7C7.7,55.7,8,56,8.4,56c0.4,0,0.7-0.3,0.7-0.7h0C9.2,54.9,8.8,54.6,8.4,54.6z"
		/>
	<path class="st0" d="M14.3,54.6c-0.4,0-0.7,0.3-0.7,0.7c0,0.4,0.3,0.7,0.7,0.7c0.4,0,0.7-0.3,0.7-0.7h0c0,0,0,0,0,0
		C15,54.9,14.7,54.6,14.3,54.6z"/>
	<path class="st0" d="M20.2,54.6c-0.4,0-0.7,0.3-0.7,0.7c0,0.4,0.3,0.7,0.7,0.7c0.4,0,0.7-0.3,0.7-0.7h0
		C20.9,54.9,20.6,54.6,20.2,54.6z"/>
	<path class="st0" d="M26,54.6c-0.4,0-0.7,0.3-0.7,0.7c0,0.4,0.3,0.7,0.7,0.7c0.4,0,0.7-0.3,0.7-0.7h0C26.7,54.9,26.4,54.6,26,54.6z
		"/>
	<path class="st0" d="M31.9,54.6c-0.4,0-0.7,0.3-0.7,0.7c0,0.4,0.3,0.7,0.7,0.7c0.4,0,0.7-0.3,0.7-0.7h0
		C32.6,54.9,32.3,54.6,31.9,54.6z"/>
	<path class="st0" d="M37.7,54.6c-0.4,0-0.7,0.3-0.7,0.7c0,0.4,0.3,0.7,0.7,0.7c0.4,0,0.7-0.3,0.7-0.7h0
		C38.5,54.9,38.1,54.6,37.7,54.6z"/>
	<path class="st0" d="M43.6,54.6c-0.4,0-0.7,0.3-0.7,0.7c0,0.4,0.3,0.7,0.7,0.7c0.4,0,0.7-0.3,0.7-0.7h0
		C44.3,54.9,44,54.6,43.6,54.6z"/>
	<path class="st0" d="M49.4,54.6c-0.4,0-0.7,0.3-0.7,0.7c0,0.4,0.3,0.7,0.7,0.7c0.4,0,0.7-0.3,0.7-0.7h0
		C50.2,54.9,49.8,54.6,49.4,54.6z"/>
	<path class="st0" d="M55.3,54.6c-0.4,0-0.7,0.3-0.7,0.7c0,0.4,0.3,0.7,0.7,0.7c0.4,0,0.7-0.3,0.7-0.7h0c0,0,0,0,0,0
		C56,54.9,55.7,54.6,55.3,54.6z"/>
	<path class="st0" d="M61.1,54.6c-0.4,0-0.7,0.3-0.7,0.7c0,0.4,0.3,0.7,0.7,0.7c0.4,0,0.7-0.3,0.7-0.7h0
		C61.9,54.9,61.6,54.6,61.1,54.6z"/>
	<path class="st0" d="M67.7,55.3c0-0.4-0.3-0.7-0.7-0.7c-0.4,0-0.7,0.3-0.7,0.7c0,0.4,0.3,0.7,0.7,0.7C67.4,56,67.7,55.7,67.7,55.3
		L67.7,55.3C67.7,55.3,67.7,55.3,67.7,55.3z"/>
	<path class="st0" d="M72.9,54.6c-0.4,0-0.7,0.3-0.7,0.7c0,0.4,0.3,0.7,0.7,0.7c0.4,0,0.7-0.3,0.7-0.7h0
		C73.6,54.9,73.3,54.6,72.9,54.6z"/>
	<path class="st0" d="M2.6,60.4c-0.4,0-0.7,0.3-0.7,0.7c0,0.4,0.3,0.7,0.7,0.7s0.7-0.3,0.7-0.7h0C3.3,60.7,3,60.4,2.6,60.4z"/>
	<path class="st0" d="M8.4,60.4c-0.4,0-0.7,0.3-0.7,0.7c0,0.4,0.3,0.7,0.7,0.7c0.4,0,0.7-0.3,0.7-0.7h0C9.2,60.7,8.8,60.4,8.4,60.4z
		"/>
	<path class="st0" d="M14.3,60.4c-0.4,0-0.7,0.3-0.7,0.7c0,0.4,0.3,0.7,0.7,0.7c0.4,0,0.7-0.3,0.7-0.7h0
		C15,60.7,14.7,60.4,14.3,60.4z"/>
	<path class="st0" d="M20.2,60.4c-0.4,0-0.7,0.3-0.7,0.7c0,0.4,0.3,0.7,0.7,0.7c0.4,0,0.7-0.3,0.7-0.7h0
		C20.9,60.7,20.6,60.4,20.2,60.4z"/>
	<path class="st0" d="M26,60.4c-0.4,0-0.7,0.3-0.7,0.7c0,0.4,0.3,0.7,0.7,0.7s0.7-0.3,0.7-0.7h0C26.7,60.7,26.4,60.4,26,60.4z"/>
	<path class="st0" d="M31.9,60.4c-0.4,0-0.7,0.3-0.7,0.7c0,0.4,0.3,0.7,0.7,0.7c0.4,0,0.7-0.3,0.7-0.7h0
		C32.6,60.7,32.3,60.4,31.9,60.4z"/>
	<path class="st0" d="M37.7,60.4c-0.4,0-0.7,0.3-0.7,0.7c0,0.4,0.3,0.7,0.7,0.7c0.4,0,0.7-0.3,0.7-0.7h0
		C38.5,60.7,38.1,60.4,37.7,60.4z"/>
	<path class="st0" d="M43.6,60.4c-0.4,0-0.7,0.3-0.7,0.7c0,0.4,0.3,0.7,0.7,0.7c0.4,0,0.7-0.3,0.7-0.7h0
		C44.3,60.7,44,60.4,43.6,60.4z"/>
	<path class="st0" d="M49.4,60.4c-0.4,0-0.7,0.3-0.7,0.7c0,0.4,0.3,0.7,0.7,0.7s0.7-0.3,0.7-0.7h0C50.2,60.7,49.8,60.4,49.4,60.4z"
		/>
	<path class="st0" d="M55.3,60.4c-0.4,0-0.7,0.3-0.7,0.7c0,0.4,0.3,0.7,0.7,0.7c0.4,0,0.7-0.3,0.7-0.7h0
		C56,60.7,55.7,60.4,55.3,60.4z"/>
	<path class="st0" d="M61.1,60.4c-0.4,0-0.7,0.3-0.7,0.7c0,0.4,0.3,0.7,0.7,0.7c0.4,0,0.7-0.3,0.7-0.7h0
		C61.9,60.7,61.6,60.4,61.1,60.4z"/>
	<path class="st0" d="M67,60.4c-0.4,0-0.7,0.3-0.7,0.7c0,0.4,0.3,0.7,0.7,0.7c0.4,0,0.7-0.3,0.7-0.7h0C67.7,60.7,67.4,60.4,67,60.4z
		"/>
	<path class="st0" d="M72.9,60.4c-0.4,0-0.7,0.3-0.7,0.7c0,0.4,0.3,0.7,0.7,0.7s0.7-0.3,0.7-0.7h0C73.6,60.7,73.3,60.4,72.9,60.4z"
		/>
	<path class="st0" d="M2.6,66.3c-0.4,0-0.7,0.3-0.7,0.7c0,0.4,0.3,0.7,0.7,0.7c0.4,0,0.7-0.3,0.7-0.7C3.3,66.6,3,66.3,2.6,66.3z"/>
	<circle class="st0" cx="8.4" cy="67" r="0.7"/>
	<path class="st0" d="M14.3,66.3c-0.4,0-0.7,0.3-0.7,0.7c0,0.4,0.3,0.7,0.7,0.7S15,67.4,15,67c0,0,0,0,0,0
		C15,66.6,14.7,66.3,14.3,66.3z"/>
	<circle class="st0" cx="20.2" cy="67" r="0.7"/>
	<path class="st0" d="M26,66.3c-0.4,0-0.7,0.3-0.7,0.7c0,0.4,0.3,0.7,0.7,0.7c0.4,0,0.7-0.3,0.7-0.7h0C26.7,66.6,26.4,66.3,26,66.3z
		"/>
	<circle class="st0" cx="31.9" cy="67" r="0.7"/>
	<circle class="st0" cx="37.7" cy="67" r="0.7"/>
	<path class="st0" d="M43.6,66.3c-0.4,0-0.7,0.3-0.7,0.7c0,0.4,0.3,0.7,0.7,0.7c0.4,0,0.7-0.3,0.7-0.7h0
		C44.3,66.6,44,66.3,43.6,66.3z"/>
	<path class="st0" d="M49.4,66.3c-0.4,0-0.7,0.3-0.7,0.7c0,0.4,0.3,0.7,0.7,0.7c0.4,0,0.7-0.3,0.7-0.7h0
		C50.2,66.6,49.8,66.3,49.4,66.3z"/>
	<path class="st0" d="M55.3,66.3c-0.4,0-0.7,0.3-0.7,0.7c0,0.4,0.3,0.7,0.7,0.7c0.4,0,0.7-0.3,0.7-0.7c0,0,0,0,0,0
		C56,66.6,55.7,66.3,55.3,66.3z"/>
	<path class="st0" d="M61.1,66.3c-0.4,0-0.7,0.3-0.7,0.7c0,0.4,0.3,0.7,0.7,0.7s0.7-0.3,0.7-0.7h0C61.9,66.6,61.6,66.3,61.1,66.3z"
		/>
	<path class="st0" d="M67.7,67c0-0.4-0.3-0.7-0.7-0.7c-0.4,0-0.7,0.3-0.7,0.7c0,0.4,0.3,0.7,0.7,0.7C67.4,67.7,67.7,67.4,67.7,67
		L67.7,67C67.7,67,67.7,67,67.7,67z"/>
	<path class="st0" d="M72.9,66.3c-0.4,0-0.7,0.3-0.7,0.7c0,0.4,0.3,0.7,0.7,0.7c0.4,0,0.7-0.3,0.7-0.7h0
		C73.6,66.6,73.3,66.3,72.9,66.3z"/>
	<path class="st0" d="M2.6,72.1c-0.4,0-0.7,0.3-0.7,0.7c0,0.4,0.3,0.7,0.7,0.7c0.4,0,0.7-0.3,0.7-0.7S3,72.1,2.6,72.1z"/>
	<circle class="st0" cx="8.4" cy="72.9" r="0.7"/>
	<circle class="st0" cx="14.3" cy="72.9" r="0.7"/>
	<circle class="st0" cx="20.2" cy="72.9" r="0.7"/>
	<path class="st0" d="M26,72.1c-0.4,0-0.7,0.3-0.7,0.7c0,0.4,0.3,0.7,0.7,0.7c0.4,0,0.7-0.3,0.7-0.7S26.4,72.1,26,72.1z"/>
	<circle class="st0" cx="31.9" cy="72.9" r="0.7"/>
	<circle class="st0" cx="37.7" cy="72.9" r="0.7"/>
	<circle class="st0" cx="43.6" cy="72.9" r="0.7"/>
	<polygon class="st0" points="50.2,72.9 50.2,72.9 50.2,72.9 	"/>
	<path class="st0" d="M49.4,72.1c-0.4,0-0.7,0.3-0.7,0.7c0,0.4,0.3,0.7,0.7,0.7c0.4,0,0.7-0.3,0.7-0.7c0,0,0,0,0,0
		C50.2,72.5,49.8,72.1,49.4,72.1z"/>
	<circle class="st0" cx="55.3" cy="72.9" r="0.7"/>
	<circle class="st0" cx="61.1" cy="72.9" r="0.7"/>
	<path class="st0" d="M67,72.1c-0.4,0-0.7,0.3-0.7,0.7c0,0.4,0.3,0.7,0.7,0.7c0.4,0,0.7-0.3,0.7-0.7c0,0,0,0,0,0
		C67.7,72.5,67.4,72.1,67,72.1z"/>
	<polygon class="st0" points="67.7,72.9 67.7,72.9 67.7,72.9 	"/>
	<path class="st0" d="M72.9,72.1c-0.4,0-0.7,0.3-0.7,0.7c0,0.4,0.3,0.7,0.7,0.7c0.4,0,0.7-0.3,0.7-0.7c0,0,0,0,0,0
		C73.6,72.5,73.3,72.1,72.9,72.1z"/>
	<polygon class="st0" points="73.6,72.9 73.6,72.9 73.6,72.9 	"/>
</g>
</svg>
