<?xml version="1.0" encoding="utf-8"?>
<!-- Generator: Adobe Illustrator 24.0.3, SVG Export Plug-In . SVG Version: 6.00 Build 0)  -->
<svg version="1.1" id="Layer_1" xmlns="http://www.w3.org/2000/svg" xmlns:xlink="http://www.w3.org/1999/xlink" x="0px" y="0px"
	 viewBox="0 0 46 46" style="enable-background:new 0 0 46 46;" xml:space="preserve">
<style type="text/css">
	.st0{fill:#FFFFFF;}
</style>
<g transform="translate(-1839 -966)">
	<g>
		<path class="st0" d="M1859,980.5c-0.4,0.5-0.6,1.1-0.6,1.8c0,0.6,0.2,1.1,0.5,1.6c0.4,0.5,0.9,0.9,1.6,1.2v-5.7
			C1859.9,979.7,1859.4,980.1,1859,980.5z"/>
		<path class="st0" d="M1862.9,990.6v6.5h0.1c0.8-0.2,1.5-0.5,2-1.2c0.5-0.6,0.8-1.3,0.8-2.2c0-0.7-0.2-1.4-0.7-1.9
			C1864.7,991.3,1863.9,990.9,1862.9,990.6z"/>
		<path class="st0" d="M1862,966c-12.7,0-23,10.3-23,23s10.3,23,23,23s23-10.3,23-23S1874.7,966,1862,966z M1868,998.2
			c-1.2,1.4-2.9,2.2-5.1,2.5v3.1h-2.4v-3c-1.9-0.2-3.5-0.9-4.7-2.1s-2-2.9-2.3-5.1l4.3-0.5c0.2,0.9,0.5,1.6,1,2.3
			c0.7,0.7,1.2,1.2,1.8,1.5v-7c-2.2-0.6-3.8-1.6-4.8-2.8c-1-1.3-1.5-2.8-1.5-4.6s0.6-3.3,1.7-4.6c1.1-1.2,2.7-1.9,4.6-2.1v-1.6h2.4
			v1.6c1.8,0.2,3.2,0.8,4.2,1.8s1.7,2.3,2,4l-4.2,0.5c-0.3-1.3-0.9-2.2-2-2.7v6.5c2.7,0.7,4.5,1.7,5.4,2.8c1,1.1,1.4,2.6,1.4,4.4
			C1869.8,995.1,1869.2,996.8,1868,998.2z"/>
	</g>
</g>
</svg>
