<svg xmlns="http://www.w3.org/2000/svg" width="178.61" height="162.074" viewBox="0 0 178.61 162.074"><defs><style>.a{fill:#0081c6;}</style></defs><g transform="translate(346.67 -1402.165)"><path class="a" d="M-292.7,1416.958c-.612-.763-2.909-3.375-8.3-3.318-5.536.056-19.047,10.842-19.047,10.842l6.89,8.686,6.89,8.693s13.6-10.68,14.9-16.054C-290.076,1420.574-292.092,1417.744-292.7,1416.958Z" transform="translate(122.882 52.953)"/><path class="a" d="M-326.073,1477.7c18.367-3.936,67.769-44.258,67.769-44.258l-6.884-8.692-6.89-8.687s-50.536,38.9-58.565,55.865c-.814,1.729-.713,3.813.2,4.8A4.524,4.524,0,0,0-326.073,1477.7Z" transform="translate(71.412 64.149)"/><path class="a" d="M-290.409,1418.227l-30.771,24.4c-.808.629-.533,2.32.612,3.757s2.723,2.094,3.521,1.46l30.782-24.392c.8-.635.528-2.325-.612-3.762C-288.028,1418.216-289.606,1417.57-290.409,1418.227Z" transform="translate(115.499 72.943)"/><path class="a" d="M-336.025,1422.643a5.61,5.61,0,0,0-5.615,5.615,5.61,5.61,0,0,0,5.615,5.616h31.45a5.615,5.615,0,0,0,5.621-5.616,5.615,5.615,0,0,0-5.621-5.615Z" transform="translate(23.214 94.508)"/><path class="a" d="M-267.5,1424.512a5.615,5.615,0,0,0-5.621-5.615h-62.9a5.61,5.61,0,0,0-5.615,5.615,5.615,5.615,0,0,0,5.615,5.621h62.9A5.627,5.627,0,0,0-267.5,1424.512Z" transform="translate(23.214 77.219)"/><path class="a" d="M-229.848,1545.316h.005a4.91,4.91,0,0,1-4.9,4.891h-93a4.9,4.9,0,0,1-4.9-4.891V1448.63a4.917,4.917,0,0,1,4.9-4.9h20.389a4.91,4.91,0,0,0,4.9-4.891v-17.744a4.907,4.907,0,0,1,4.9-4.891h62.816a4.914,4.914,0,0,1,4.9,4.891v75.742c5.048-4.369,9.883-8.395,14.032-11.77l.005-63.973a18.956,18.956,0,0,0-18.934-18.928h-62.816a18.873,18.873,0,0,0-13.128,5.3c-3.577,3.448-26.15,23.977-29.474,26.874a18.9,18.9,0,0,0-6.514,14.285v96.692a18.945,18.945,0,0,0,18.934,18.923h93a18.783,18.783,0,0,0,13.4-5.565,18.742,18.742,0,0,0,5.531-13.358v-18.783c-4.649,3.257-9.411,6.463-14.038,9.355Z" transform="translate(0 0)"/><path class="a" d="M-336.025,1426.392h62.9a5.623,5.623,0,0,0,5.621-5.621,5.623,5.623,0,0,0-5.621-5.62h-62.9a5.615,5.615,0,0,0-5.615,5.62A5.615,5.615,0,0,0-336.025,1426.392Z" transform="translate(23.214 59.931)"/><path class="a" d="M-336.025,1422.641h62.9a5.618,5.618,0,0,0,5.621-5.615,5.623,5.623,0,0,0-5.621-5.62h-62.9a5.615,5.615,0,0,0-5.615,5.62A5.61,5.61,0,0,0-336.025,1422.641Z" transform="translate(23.214 42.648)"/></g></svg>