<?xml version="1.0" encoding="utf-8"?>
<!-- Generator: Adobe Illustrator 24.0.3, SVG Export Plug-In . SVG Version: 6.00 Build 0)  -->
<svg version="1.1" id="Layer_1" xmlns="http://www.w3.org/2000/svg" xmlns:xlink="http://www.w3.org/1999/xlink" x="0px" y="0px"
	 viewBox="0 0 260 260" style="enable-background:new 0 0 260 260;" xml:space="preserve">
<style type="text/css">
	.st0{fill:#DDDDDD;}
</style>
<g>
	<circle class="st0" cx="66.6" cy="235.5" r="1.6"/>
	<circle class="st0" cx="53.6" cy="235.5" r="1.6"/>
	<circle class="st0" cx="40.6" cy="235.5" r="1.6"/>
	<circle class="st0" cx="27.6" cy="235.5" r="1.6"/>
	<circle class="st0" cx="14.6" cy="235.5" r="1.6"/>
	<circle class="st0" cx="1.6" cy="235.5" r="1.6"/>
	<path class="st0" d="M105.5,220.9c-0.9,0-1.6,0.7-1.6,1.6s0.8,1.6,1.6,1.6c0.9,0,1.6-0.7,1.6-1.6
		C107.1,221.6,106.4,220.9,105.5,220.9z"/>
	<path class="st0" d="M92.5,220.9c-0.9,0-1.6,0.7-1.6,1.6s0.8,1.6,1.6,1.6c0.9,0,1.6-0.7,1.6-1.6C94.1,221.6,93.4,220.9,92.5,220.9z
		"/>
	<path class="st0" d="M79.6,220.9c-0.9,0-1.6,0.7-1.6,1.6s0.7,1.6,1.6,1.6c0.9,0,1.6-0.7,1.6-1.6C81.2,221.6,80.5,220.9,79.6,220.9z
		"/>
	<circle class="st0" cx="66.6" cy="222.5" r="1.6"/>
	<circle class="st0" cx="53.6" cy="222.5" r="1.6"/>
	<circle class="st0" cx="40.6" cy="222.5" r="1.6"/>
	<circle class="st0" cx="27.6" cy="222.5" r="1.6"/>
	<circle class="st0" cx="14.6" cy="222.5" r="1.6"/>
	<circle class="st0" cx="1.6" cy="222.5" r="1.6"/>
	<path class="st0" d="M118.5,207.9c-0.9,0-1.6,0.7-1.6,1.6s0.8,1.6,1.6,1.6c0.9,0,1.6-0.7,1.6-1.6
		C120.1,208.6,119.4,207.9,118.5,207.9z"/>
	<path class="st0" d="M105.5,207.9c-0.9,0-1.6,0.7-1.6,1.6s0.8,1.6,1.6,1.6c0.9,0,1.6-0.7,1.6-1.6
		C107.1,208.6,106.4,207.9,105.5,207.9z"/>
	<path class="st0" d="M92.5,207.9c-0.9,0-1.6,0.7-1.6,1.6s0.8,1.6,1.6,1.6c0.9,0,1.6-0.7,1.6-1.6S93.4,207.9,92.5,207.9z"/>
	<path class="st0" d="M79.6,207.9c-0.9,0-1.6,0.7-1.6,1.6s0.7,1.6,1.6,1.6c0.9,0,1.6-0.7,1.6-1.6C81.2,208.6,80.5,207.9,79.6,207.9z
		"/>
	<circle class="st0" cx="66.6" cy="209.5" r="1.6"/>
	<circle class="st0" cx="53.6" cy="209.5" r="1.6"/>
	<circle class="st0" cx="40.6" cy="209.5" r="1.6"/>
	<circle class="st0" cx="27.6" cy="209.5" r="1.6"/>
	<circle class="st0" cx="14.6" cy="209.5" r="1.6"/>
	<circle class="st0" cx="1.6" cy="209.5" r="1.6"/>
	<path class="st0" d="M144.5,194.9c-0.9,0-1.6,0.7-1.6,1.6s0.7,1.6,1.6,1.6c0.9,0,1.6-0.7,1.6-1.6S145.4,194.9,144.5,194.9z"/>
	<path class="st0" d="M131.5,194.9c-0.9,0-1.6,0.7-1.6,1.6s0.7,1.6,1.6,1.6c0.9,0,1.6-0.7,1.6-1.6S132.4,194.9,131.5,194.9z"/>
	<path class="st0" d="M118.5,194.9c-0.9,0-1.6,0.7-1.6,1.6s0.8,1.6,1.6,1.6c0.9,0,1.6-0.7,1.6-1.6
		C120.1,195.6,119.4,194.9,118.5,194.9z"/>
	<path class="st0" d="M105.5,194.9c-0.9,0-1.6,0.7-1.6,1.6s0.8,1.6,1.6,1.6c0.9,0,1.6-0.7,1.6-1.6
		C107.1,195.6,106.4,194.9,105.5,194.9z"/>
	<path class="st0" d="M92.5,194.9c-0.9,0-1.6,0.7-1.6,1.6s0.8,1.6,1.6,1.6c0.9,0,1.6-0.7,1.6-1.6S93.4,194.9,92.5,194.9z"/>
	<path class="st0" d="M79.6,194.9c-0.9,0-1.6,0.7-1.6,1.6s0.7,1.6,1.6,1.6c0.9,0,1.6-0.7,1.6-1.6C81.2,195.6,80.5,194.9,79.6,194.9z
		"/>
	<circle class="st0" cx="66.6" cy="196.5" r="1.6"/>
	<circle class="st0" cx="53.6" cy="196.5" r="1.6"/>
	<circle class="st0" cx="40.6" cy="196.5" r="1.6"/>
	<circle class="st0" cx="27.6" cy="196.5" r="1.6"/>
	<circle class="st0" cx="14.6" cy="196.5" r="1.6"/>
	<circle class="st0" cx="1.6" cy="196.5" r="1.6"/>
	<path class="st0" d="M157.5,181.9c-0.9,0-1.6,0.7-1.6,1.6s0.7,1.6,1.6,1.6c0.9,0,1.6-0.7,1.6-1.6
		C159.1,182.6,158.4,181.9,157.5,181.9z"/>
	<path class="st0" d="M144.5,181.9c-0.9,0-1.6,0.7-1.6,1.6s0.7,1.6,1.6,1.6c0.9,0,1.6-0.7,1.6-1.6
		C146.1,182.6,145.4,181.9,144.5,181.9z"/>
	<path class="st0" d="M131.5,181.9c-0.9,0-1.6,0.7-1.6,1.6s0.7,1.6,1.6,1.6c0.9,0,1.6-0.7,1.6-1.6
		C133.1,182.6,132.4,181.9,131.5,181.9z"/>
	<path class="st0" d="M118.5,181.9c-0.9,0-1.6,0.7-1.6,1.6s0.8,1.6,1.6,1.6c0.9,0,1.6-0.7,1.6-1.6
		C120.1,182.6,119.4,181.9,118.5,181.9z"/>
	<path class="st0" d="M105.5,181.9c-0.9,0-1.6,0.7-1.6,1.6s0.8,1.6,1.6,1.6c0.9,0,1.6-0.7,1.6-1.6
		C107.1,182.6,106.4,181.9,105.5,181.9z"/>
	<path class="st0" d="M92.5,181.9c-0.9,0-1.6,0.7-1.6,1.6s0.8,1.6,1.6,1.6c0.9,0,1.6-0.7,1.6-1.6C94.1,182.6,93.4,181.9,92.5,181.9z
		"/>
	<path class="st0" d="M79.6,181.9c-0.9,0-1.6,0.7-1.6,1.6s0.7,1.6,1.6,1.6c0.9,0,1.6-0.7,1.6-1.6C81.2,182.6,80.5,181.9,79.6,181.9z
		"/>
	<circle class="st0" cx="66.6" cy="183.5" r="1.6"/>
	<circle class="st0" cx="53.6" cy="183.5" r="1.6"/>
	<circle class="st0" cx="40.6" cy="183.5" r="1.6"/>
	<circle class="st0" cx="27.6" cy="183.5" r="1.6"/>
	<circle class="st0" cx="14.6" cy="183.5" r="1.6"/>
	<circle class="st0" cx="1.6" cy="183.5" r="1.6"/>
	<path class="st0" d="M170.5,168.9c-0.9,0-1.6,0.7-1.6,1.6s0.7,1.6,1.6,1.6c0.9,0,1.6-0.7,1.6-1.6
		C172.1,169.6,171.4,168.9,170.5,168.9z"/>
	<path class="st0" d="M157.5,168.9c-0.9,0-1.6,0.7-1.6,1.6s0.7,1.6,1.6,1.6c0.9,0,1.6-0.7,1.6-1.6S158.4,168.9,157.5,168.9z"/>
	<path class="st0" d="M144.5,168.9c-0.9,0-1.6,0.7-1.6,1.6s0.7,1.6,1.6,1.6c0.9,0,1.6-0.7,1.6-1.6S145.4,168.9,144.5,168.9z"/>
	<path class="st0" d="M131.5,168.9c-0.9,0-1.6,0.7-1.6,1.6s0.7,1.6,1.6,1.6c0.9,0,1.6-0.7,1.6-1.6S132.4,168.9,131.5,168.9z"/>
	<path class="st0" d="M118.5,168.9c-0.9,0-1.6,0.7-1.6,1.6s0.8,1.6,1.6,1.6c0.9,0,1.6-0.7,1.6-1.6
		C120.1,169.6,119.4,168.9,118.5,168.9z"/>
	<path class="st0" d="M105.5,168.9c-0.9,0-1.6,0.7-1.6,1.6s0.8,1.6,1.6,1.6c0.9,0,1.6-0.7,1.6-1.6
		C107.1,169.6,106.4,168.9,105.5,168.9z"/>
	<path class="st0" d="M92.5,168.9c-0.9,0-1.6,0.7-1.6,1.6s0.8,1.6,1.6,1.6c0.9,0,1.6-0.7,1.6-1.6S93.4,168.9,92.5,168.9z"/>
	<path class="st0" d="M79.6,168.9c-0.9,0-1.6,0.7-1.6,1.6s0.7,1.6,1.6,1.6c0.9,0,1.6-0.7,1.6-1.6C81.2,169.6,80.5,168.9,79.6,168.9z
		"/>
	<circle class="st0" cx="66.6" cy="170.5" r="1.6"/>
	<circle class="st0" cx="53.6" cy="170.5" r="1.6"/>
	<circle class="st0" cx="40.6" cy="170.5" r="1.6"/>
	<circle class="st0" cx="27.6" cy="170.5" r="1.6"/>
	<circle class="st0" cx="14.6" cy="170.5" r="1.6"/>
	<circle class="st0" cx="1.6" cy="170.5" r="1.6"/>
	<path class="st0" d="M183.5,155.9c-0.9,0-1.6,0.7-1.6,1.6s0.7,1.7,1.6,1.6c0.9,0,1.6-0.7,1.6-1.6
		C185.1,156.6,184.4,155.9,183.5,155.9z"/>
	<path class="st0" d="M170.5,155.9c-0.9,0-1.6,0.7-1.6,1.6s0.7,1.7,1.6,1.6c0.9,0,1.6-0.7,1.6-1.6
		C172.1,156.6,171.4,155.9,170.5,155.9z"/>
	<path class="st0" d="M157.5,155.9c-0.9,0-1.6,0.7-1.6,1.6s0.7,1.7,1.6,1.6c0.9,0,1.6-0.7,1.6-1.6
		C159.1,156.6,158.4,155.9,157.5,155.9z"/>
	<path class="st0" d="M144.5,155.9c-0.9,0-1.6,0.7-1.6,1.6s0.7,1.7,1.6,1.6c0.9,0,1.6-0.7,1.6-1.6
		C146.1,156.6,145.4,155.9,144.5,155.9z"/>
	<path class="st0" d="M131.5,155.9c-0.9,0-1.6,0.7-1.6,1.6s0.7,1.7,1.6,1.6c0.9,0,1.6-0.7,1.6-1.6
		C133.1,156.6,132.4,155.9,131.5,155.9z"/>
	<path class="st0" d="M118.5,155.9c-0.9,0-1.6,0.7-1.6,1.6s0.8,1.7,1.6,1.6c0.9,0,1.6-0.7,1.6-1.6
		C120.1,156.6,119.4,155.9,118.5,155.9z"/>
	<path class="st0" d="M105.5,155.9c-0.9,0-1.6,0.7-1.6,1.6s0.8,1.7,1.6,1.6c0.9,0,1.6-0.7,1.6-1.6
		C107.1,156.6,106.4,155.9,105.5,155.9z"/>
	<path class="st0" d="M92.5,155.9c-0.9,0-1.6,0.7-1.6,1.6s0.8,1.7,1.6,1.6c0.9,0,1.6-0.7,1.6-1.6C94.1,156.6,93.4,155.9,92.5,155.9z
		"/>
	<path class="st0" d="M79.6,155.9c-0.9,0-1.6,0.7-1.6,1.6s0.7,1.7,1.6,1.6c0.9,0,1.6-0.7,1.6-1.6C81.2,156.6,80.5,155.9,79.6,155.9z
		"/>
	<path class="st0" d="M66.6,155.9c-0.9,0-1.6,0.7-1.6,1.6s0.7,1.7,1.6,1.6c0.9,0,1.6-0.7,1.6-1.6C68.2,156.6,67.5,155.9,66.6,155.9z
		"/>
	<path class="st0" d="M53.6,155.9c-0.9,0-1.6,0.7-1.6,1.6s0.7,1.7,1.6,1.6c0.9,0,1.6-0.7,1.6-1.6C55.2,156.6,54.5,155.9,53.6,155.9z
		"/>
	<path class="st0" d="M40.6,155.9c-0.9,0-1.6,0.7-1.6,1.6s0.7,1.7,1.6,1.6c0.9,0,1.6-0.7,1.6-1.6C42.2,156.6,41.5,155.9,40.6,155.9z
		"/>
	<path class="st0" d="M27.6,155.9c-0.9,0-1.6,0.7-1.6,1.6s0.7,1.7,1.6,1.6c0.9,0,1.6-0.7,1.6-1.6C29.2,156.6,28.5,155.9,27.6,155.9z
		"/>
	<path class="st0" d="M14.6,155.9c-0.9,0-1.6,0.7-1.6,1.6s0.7,1.7,1.6,1.6c0.9,0,1.6-0.7,1.6-1.6C16.2,156.6,15.5,155.9,14.6,155.9z
		"/>
	<path class="st0" d="M1.6,155.9c-0.9,0-1.6,0.7-1.6,1.6s0.7,1.7,1.6,1.6c0.9,0,1.6-0.7,1.6-1.6C3.2,156.6,2.5,155.9,1.6,155.9z"/>
	<path class="st0" d="M196.5,142.9c-0.9,0-1.6,0.7-1.6,1.6s0.7,1.7,1.6,1.6c0.9,0,1.6-0.7,1.6-1.6S197.4,142.9,196.5,142.9z"/>
	<path class="st0" d="M183.5,142.9c-0.9,0-1.6,0.7-1.6,1.6s0.7,1.7,1.6,1.6c0.9,0,1.6-0.7,1.6-1.6
		C185.1,143.6,184.4,142.9,183.5,142.9z"/>
	<path class="st0" d="M170.5,142.9c-0.9,0-1.6,0.7-1.6,1.6s0.7,1.7,1.6,1.6c0.9,0,1.6-0.7,1.6-1.6S171.4,142.9,170.5,142.9z"/>
	<path class="st0" d="M157.5,142.9c-0.9,0-1.6,0.7-1.6,1.6s0.7,1.7,1.6,1.6c0.9,0,1.6-0.7,1.6-1.6
		C159.1,143.6,158.4,142.9,157.5,142.9z"/>
	<path class="st0" d="M144.5,142.9c-0.9,0-1.6,0.7-1.6,1.6s0.7,1.7,1.6,1.6c0.9,0,1.6-0.7,1.6-1.6
		C146.1,143.6,145.4,142.9,144.5,142.9z"/>
	<path class="st0" d="M131.5,142.9c-0.9,0-1.6,0.7-1.6,1.6s0.7,1.7,1.6,1.6c0.9,0,1.6-0.7,1.6-1.6
		C133.1,143.6,132.4,142.9,131.5,142.9z"/>
	<path class="st0" d="M118.5,142.9c-0.9,0-1.6,0.7-1.6,1.6s0.8,1.7,1.6,1.6c0.9,0,1.6-0.7,1.6-1.6
		C120.1,143.6,119.4,142.9,118.5,142.9z"/>
	<path class="st0" d="M105.5,142.9c-0.9,0-1.6,0.7-1.6,1.6s0.8,1.7,1.6,1.6c0.9,0,1.6-0.7,1.6-1.6S106.4,142.9,105.5,142.9z"/>
	<path class="st0" d="M92.5,142.9c-0.9,0-1.6,0.7-1.6,1.6s0.8,1.7,1.6,1.6c0.9,0,1.6-0.7,1.6-1.6C94.1,143.6,93.4,142.9,92.5,142.9z
		"/>
	<path class="st0" d="M79.6,142.9c-0.9,0-1.6,0.7-1.6,1.6s0.7,1.7,1.6,1.6c0.9,0,1.6-0.7,1.6-1.6C81.2,143.6,80.5,142.9,79.6,142.9z
		"/>
	<path class="st0" d="M66.6,142.9c-0.9,0-1.6,0.7-1.6,1.6s0.7,1.7,1.6,1.6c0.9,0,1.6-0.7,1.6-1.6C68.2,143.6,67.5,142.9,66.6,142.9z
		"/>
	<path class="st0" d="M53.6,142.9c-0.9,0-1.6,0.7-1.6,1.6s0.7,1.7,1.6,1.6c0.9,0,1.6-0.7,1.6-1.6S54.5,142.9,53.6,142.9z"/>
	<path class="st0" d="M40.6,142.9c-0.9,0-1.6,0.7-1.6,1.6s0.7,1.7,1.6,1.6c0.9,0,1.6-0.7,1.6-1.6C42.2,143.6,41.5,142.9,40.6,142.9z
		"/>
	<path class="st0" d="M27.6,142.9c-0.9,0-1.6,0.7-1.6,1.6s0.7,1.7,1.6,1.6c0.9,0,1.6-0.7,1.6-1.6S28.5,142.9,27.6,142.9z"/>
	<path class="st0" d="M14.6,142.9c-0.9,0-1.6,0.7-1.6,1.6s0.7,1.7,1.6,1.6c0.9,0,1.6-0.7,1.6-1.6C16.2,143.6,15.5,142.9,14.6,142.9z
		"/>
	<path class="st0" d="M1.6,142.9c-0.9,0-1.6,0.7-1.6,1.6s0.7,1.7,1.6,1.6c0.9,0,1.6-0.7,1.6-1.6C3.2,143.6,2.5,142.9,1.6,142.9z"/>
	<path class="st0" d="M209.5,129.9c-0.9,0-1.6,0.7-1.6,1.6s0.7,1.7,1.6,1.6c0.9,0,1.6-0.7,1.6-1.6S210.4,129.9,209.5,129.9z"/>
	<path class="st0" d="M196.5,129.9c-0.9,0-1.6,0.7-1.6,1.6s0.7,1.7,1.6,1.6c0.9,0,1.6-0.7,1.6-1.6
		C198.1,130.6,197.4,129.9,196.5,129.9z"/>
	<path class="st0" d="M183.5,129.9c-0.9,0-1.6,0.7-1.6,1.6s0.7,1.7,1.6,1.6c0.9,0,1.6-0.7,1.6-1.6S184.4,129.9,183.5,129.9z"/>
	<path class="st0" d="M170.5,129.9c-0.9,0-1.6,0.7-1.6,1.6s0.7,1.7,1.6,1.6c0.9,0,1.6-0.7,1.6-1.6
		C172.1,130.6,171.4,129.9,170.5,129.9z"/>
	<path class="st0" d="M157.5,129.9c-0.9,0-1.6,0.7-1.6,1.6s0.7,1.7,1.6,1.6c0.9,0,1.6-0.7,1.6-1.6S158.4,129.9,157.5,129.9z"/>
	<path class="st0" d="M144.5,129.9c-0.9,0-1.6,0.7-1.6,1.6s0.7,1.7,1.6,1.6c0.9,0,1.6-0.7,1.6-1.6S145.4,129.9,144.5,129.9z"/>
	<path class="st0" d="M131.5,129.9c-0.9,0-1.6,0.7-1.6,1.6s0.7,1.7,1.6,1.6c0.9,0,1.6-0.7,1.6-1.6S132.4,129.9,131.5,129.9z"/>
	<path class="st0" d="M118.5,129.9c-0.9,0-1.6,0.7-1.6,1.6s0.8,1.7,1.6,1.6c0.9,0,1.6-0.7,1.6-1.6
		C120.1,130.6,119.4,129.9,118.5,129.9z"/>
	<path class="st0" d="M105.5,129.9c-0.9,0-1.6,0.7-1.6,1.6s0.8,1.7,1.6,1.6c0.9,0,1.6-0.7,1.6-1.6
		C107.1,130.6,106.4,129.9,105.5,129.9z"/>
	<path class="st0" d="M92.5,129.9c-0.9,0-1.6,0.7-1.6,1.6s0.8,1.7,1.6,1.6c0.9,0,1.6-0.7,1.6-1.6S93.4,129.9,92.5,129.9z"/>
	<path class="st0" d="M79.6,129.9c-0.9,0-1.6,0.7-1.6,1.6s0.7,1.7,1.6,1.6c0.9,0,1.6-0.7,1.6-1.6C81.2,130.6,80.5,129.9,79.6,129.9z
		"/>
	<path class="st0" d="M66.6,129.9c-0.9,0-1.6,0.7-1.6,1.6s0.7,1.7,1.6,1.6c0.9,0,1.6-0.7,1.6-1.6S67.5,129.9,66.6,129.9z"/>
	<path class="st0" d="M53.6,129.9c-0.9,0-1.6,0.7-1.6,1.6s0.7,1.7,1.6,1.6c0.9,0,1.6-0.7,1.6-1.6C55.2,130.6,54.5,129.9,53.6,129.9z
		"/>
	<path class="st0" d="M40.6,129.9c-0.9,0-1.6,0.7-1.6,1.6s0.7,1.7,1.6,1.6c0.9,0,1.6-0.7,1.6-1.6S41.5,129.9,40.6,129.9z"/>
	<path class="st0" d="M27.6,129.9c-0.9,0-1.6,0.7-1.6,1.6s0.7,1.7,1.6,1.6c0.9,0,1.6-0.7,1.6-1.6C29.2,130.6,28.5,129.9,27.6,129.9z
		"/>
	<path class="st0" d="M14.6,129.9c-0.9,0-1.6,0.7-1.6,1.6s0.7,1.7,1.6,1.6c0.9,0,1.6-0.7,1.6-1.6S15.5,129.9,14.6,129.9z"/>
	<path class="st0" d="M1.6,129.9c-0.9,0-1.6,0.7-1.6,1.6s0.7,1.7,1.6,1.6c0.9,0,1.6-0.7,1.6-1.6S2.5,129.9,1.6,129.9z"/>
	<path class="st0" d="M209.5,117c-0.9,0-1.6,0.7-1.6,1.6s0.7,1.6,1.6,1.6c0.9,0,1.6-0.7,1.6-1.6S210.4,117,209.5,117z"/>
	<path class="st0" d="M196.5,117c-0.9,0-1.6,0.7-1.6,1.6s0.7,1.6,1.6,1.6c0.9,0,1.6-0.7,1.6-1.6C198.1,117.7,197.4,117,196.5,117z"
		/>
	<path class="st0" d="M183.5,117c-0.9,0-1.6,0.7-1.6,1.6s0.7,1.6,1.6,1.6c0.9,0,1.6-0.7,1.6-1.6S184.4,117,183.5,117z"/>
	<path class="st0" d="M170.5,117c-0.9,0-1.6,0.7-1.6,1.6c0,0.8,0.7,1.6,1.6,1.6c0.9,0,1.6-0.7,1.6-1.6
		C172.1,117.7,171.4,117,170.5,117z"/>
	<path class="st0" d="M157.5,117c-0.9,0-1.6,0.7-1.6,1.6s0.7,1.6,1.6,1.6c0.9,0,1.6-0.7,1.6-1.6S158.4,117,157.5,117z"/>
	<path class="st0" d="M144.5,117c-0.9,0-1.6,0.7-1.6,1.6s0.7,1.6,1.6,1.6c0.9,0,1.6-0.7,1.6-1.6S145.4,117,144.5,117z"/>
	<path class="st0" d="M131.5,117c-0.9,0-1.6,0.7-1.6,1.6s0.7,1.6,1.6,1.6c0.9,0,1.6-0.7,1.6-1.6S132.4,117,131.5,117z"/>
	<path class="st0" d="M118.5,117c-0.9,0-1.6,0.7-1.6,1.6s0.8,1.6,1.6,1.6c0.9,0,1.6-0.7,1.6-1.6S119.4,117,118.5,117z"/>
	<path class="st0" d="M105.5,117c-0.9,0-1.6,0.7-1.6,1.6s0.8,1.6,1.6,1.6c0.9,0,1.6-0.7,1.6-1.6C107.1,117.7,106.4,117,105.5,117z"
		/>
	<path class="st0" d="M92.5,117c-0.9,0-1.6,0.7-1.6,1.6s0.8,1.6,1.6,1.6c0.9,0,1.6-0.7,1.6-1.6S93.4,117,92.5,117z"/>
	<path class="st0" d="M79.6,117c-0.9,0-1.6,0.7-1.6,1.6s0.7,1.6,1.6,1.6c0.9,0,1.6-0.7,1.6-1.6C81.2,117.7,80.5,117,79.6,117z"/>
	<path class="st0" d="M66.6,117c-0.9,0-1.6,0.7-1.6,1.6s0.7,1.6,1.6,1.6c0.9,0,1.6-0.7,1.6-1.6S67.5,117,66.6,117z"/>
	<path class="st0" d="M53.6,117c-0.9,0-1.6,0.7-1.6,1.6s0.7,1.6,1.6,1.6c0.9,0,1.6-0.7,1.6-1.6C55.2,117.7,54.5,117,53.6,117z"/>
	<path class="st0" d="M40.6,117c-0.9,0-1.6,0.7-1.6,1.6s0.7,1.6,1.6,1.6c0.9,0,1.6-0.7,1.6-1.6S41.5,117,40.6,117z"/>
	<path class="st0" d="M27.6,117c-0.9,0-1.6,0.7-1.6,1.6s0.7,1.6,1.6,1.6c0.9,0,1.6-0.7,1.6-1.6C29.2,117.7,28.5,117,27.6,117z"/>
	<path class="st0" d="M14.6,117c-0.9,0-1.6,0.7-1.6,1.6s0.7,1.6,1.6,1.6c0.9,0,1.6-0.7,1.6-1.6S15.5,117,14.6,117z"/>
	<circle class="st0" cx="1.6" cy="118.6" r="1.6"/>
	<path class="st0" d="M222.5,104c-0.9,0-1.6,0.7-1.6,1.6s0.7,1.6,1.6,1.6c0.9,0,1.6-0.7,1.6-1.6S223.4,104,222.5,104z"/>
	<path class="st0" d="M209.5,104c-0.9,0-1.6,0.7-1.6,1.6s0.7,1.6,1.6,1.6c0.9,0,1.6-0.7,1.6-1.6S210.4,104,209.5,104z"/>
	<path class="st0" d="M196.5,104c-0.9,0-1.6,0.7-1.6,1.6s0.7,1.6,1.6,1.6c0.9,0,1.6-0.7,1.6-1.6C198.1,104.7,197.4,104,196.5,104z"
		/>
	<path class="st0" d="M183.5,104c-0.9,0-1.6,0.7-1.6,1.6s0.7,1.6,1.6,1.6c0.9,0,1.6-0.7,1.6-1.6S184.4,104,183.5,104z"/>
	<path class="st0" d="M170.5,104c-0.9,0-1.6,0.7-1.6,1.6s0.7,1.6,1.6,1.6c0.9,0,1.6-0.7,1.6-1.6C172.1,104.7,171.4,104,170.5,104z"
		/>
	<path class="st0" d="M157.5,104c-0.9,0-1.6,0.7-1.6,1.6s0.7,1.6,1.6,1.6c0.9,0,1.6-0.7,1.6-1.6S158.4,104,157.5,104z"/>
	<path class="st0" d="M144.5,104c-0.9,0-1.6,0.7-1.6,1.6s0.7,1.6,1.6,1.6c0.9,0,1.6-0.7,1.6-1.6S145.4,104,144.5,104z"/>
	<path class="st0" d="M131.5,104c-0.9,0-1.6,0.7-1.6,1.6s0.7,1.6,1.6,1.6c0.9,0,1.6-0.7,1.6-1.6S132.4,104,131.5,104z"/>
	<path class="st0" d="M118.5,104c-0.9,0-1.6,0.7-1.6,1.6s0.8,1.6,1.6,1.6c0.9,0,1.6-0.7,1.6-1.6S119.4,104,118.5,104z"/>
	<path class="st0" d="M105.5,104c-0.9,0-1.6,0.7-1.6,1.6s0.8,1.6,1.6,1.6c0.9,0,1.6-0.7,1.6-1.6C107.1,104.7,106.4,104,105.5,104z"
		/>
	<path class="st0" d="M92.5,104c-0.9,0-1.6,0.7-1.6,1.6s0.8,1.6,1.6,1.6c0.9,0,1.6-0.7,1.6-1.6S93.4,104,92.5,104z"/>
	<path class="st0" d="M79.6,104c-0.9,0-1.6,0.7-1.6,1.6s0.7,1.6,1.6,1.6c0.9,0,1.6-0.7,1.6-1.6C81.2,104.7,80.5,104,79.6,104z"/>
	<path class="st0" d="M66.6,104c-0.9,0-1.6,0.7-1.6,1.6s0.7,1.6,1.6,1.6c0.9,0,1.6-0.7,1.6-1.6S67.5,104,66.6,104z"/>
	<path class="st0" d="M53.6,104c-0.9,0-1.6,0.7-1.6,1.6s0.7,1.6,1.6,1.6c0.9,0,1.6-0.7,1.6-1.6C55.2,104.7,54.5,104,53.6,104z"/>
	<path class="st0" d="M40.6,104c-0.9,0-1.6,0.7-1.6,1.6s0.7,1.6,1.6,1.6c0.9,0,1.6-0.7,1.6-1.6S41.5,104,40.6,104z"/>
	<path class="st0" d="M27.6,104c-0.9,0-1.6,0.7-1.6,1.6s0.7,1.6,1.6,1.6c0.9,0,1.6-0.7,1.6-1.6C29.2,104.7,28.5,104,27.6,104z"/>
	<path class="st0" d="M14.6,104c-0.9,0-1.6,0.7-1.6,1.6s0.7,1.6,1.6,1.6c0.9,0,1.6-0.7,1.6-1.6S15.5,104,14.6,104z"/>
	<circle class="st0" cx="1.6" cy="105.6" r="1.6"/>
	<path class="st0" d="M222.5,91c-0.9,0-1.6,0.7-1.6,1.6s0.7,1.6,1.6,1.6c0.9,0,1.6-0.7,1.6-1.6C224.1,91.7,223.4,91,222.5,91z"/>
	<path class="st0" d="M209.5,91c-0.9,0-1.6,0.7-1.6,1.6s0.7,1.6,1.6,1.6c0.9,0,1.6-0.7,1.6-1.6C211.1,91.7,210.4,91,209.5,91z"/>
	<path class="st0" d="M196.5,91c-0.9,0-1.6,0.7-1.6,1.6s0.7,1.6,1.6,1.6c0.9,0,1.6-0.7,1.6-1.6C198.1,91.7,197.4,91,196.5,91z"/>
	<path class="st0" d="M183.5,91c-0.9,0-1.6,0.7-1.6,1.6s0.7,1.6,1.6,1.6c0.9,0,1.6-0.7,1.6-1.6C185.1,91.7,184.4,91,183.5,91z"/>
	<path class="st0" d="M170.5,91c-0.9,0-1.6,0.7-1.6,1.6s0.7,1.6,1.6,1.6c0.9,0,1.6-0.7,1.6-1.6C172.1,91.7,171.4,91,170.5,91z"/>
	<path class="st0" d="M157.5,91c-0.9,0-1.6,0.7-1.6,1.6s0.7,1.6,1.6,1.6c0.9,0,1.6-0.7,1.6-1.6C159.1,91.7,158.4,91,157.5,91z"/>
	<path class="st0" d="M144.5,91c-0.9,0-1.6,0.7-1.6,1.6s0.7,1.6,1.6,1.6c0.9,0,1.6-0.7,1.6-1.6C146.1,91.7,145.4,91,144.5,91z"/>
	<path class="st0" d="M131.5,91c-0.9,0-1.6,0.7-1.6,1.6s0.7,1.6,1.6,1.6c0.9,0,1.6-0.7,1.6-1.6C133.1,91.7,132.4,91,131.5,91z"/>
	<path class="st0" d="M118.5,91c-0.9,0-1.6,0.7-1.6,1.6s0.8,1.6,1.6,1.6c0.9,0,1.6-0.7,1.6-1.6C120.1,91.7,119.4,91,118.5,91z"/>
	<path class="st0" d="M105.5,91c-0.9,0-1.6,0.7-1.6,1.6s0.8,1.6,1.6,1.6c0.9,0,1.6-0.7,1.6-1.6C107.1,91.7,106.4,91,105.5,91z"/>
	<path class="st0" d="M92.5,91c-0.9,0-1.6,0.7-1.6,1.6s0.8,1.6,1.6,1.6c0.9,0,1.6-0.7,1.6-1.6C94.1,91.7,93.4,91,92.5,91z"/>
	<path class="st0" d="M79.6,91c-0.9,0-1.6,0.7-1.6,1.6s0.7,1.6,1.6,1.6c0.9,0,1.6-0.7,1.6-1.6C81.2,91.7,80.5,91,79.6,91z"/>
	<path class="st0" d="M66.6,91c-0.9,0-1.6,0.7-1.6,1.6s0.7,1.6,1.6,1.6c0.9,0,1.6-0.7,1.6-1.6C68.2,91.7,67.5,91,66.6,91z"/>
	<path class="st0" d="M53.6,91c-0.9,0-1.6,0.7-1.6,1.6s0.7,1.6,1.6,1.6c0.9,0,1.6-0.7,1.6-1.6C55.2,91.7,54.5,91,53.6,91z"/>
	<path class="st0" d="M40.6,91c-0.9,0-1.6,0.7-1.6,1.6s0.7,1.6,1.6,1.6c0.9,0,1.6-0.7,1.6-1.6C42.2,91.7,41.5,91,40.6,91z"/>
	<path class="st0" d="M27.6,91c-0.9,0-1.6,0.7-1.6,1.6s0.7,1.6,1.6,1.6c0.9,0,1.6-0.7,1.6-1.6C29.2,91.7,28.5,91,27.6,91z"/>
	<path class="st0" d="M14.6,91c-0.9,0-1.6,0.7-1.6,1.6s0.7,1.6,1.6,1.6c0.9,0,1.6-0.7,1.6-1.6C16.2,91.7,15.5,91,14.6,91z"/>
	<circle class="st0" cx="1.6" cy="92.6" r="1.6"/>
	<path class="st0" d="M222.5,78c-0.9,0-1.6,0.7-1.6,1.6s0.7,1.6,1.6,1.6c0.9,0,1.6-0.7,1.6-1.6C224.1,78.7,223.4,78,222.5,78z"/>
	<path class="st0" d="M209.5,78c-0.9,0-1.6,0.7-1.6,1.6s0.7,1.6,1.6,1.6c0.9,0,1.6-0.7,1.6-1.6C211.1,78.7,210.4,78,209.5,78z"/>
	<path class="st0" d="M196.5,78c-0.9,0-1.6,0.7-1.6,1.6s0.7,1.6,1.6,1.6c0.9,0,1.6-0.7,1.6-1.6C198.1,78.7,197.4,78,196.5,78z"/>
	<path class="st0" d="M183.5,78c-0.9,0-1.6,0.7-1.6,1.6s0.7,1.6,1.6,1.6c0.9,0,1.6-0.7,1.6-1.6C185.1,78.7,184.4,78,183.5,78z"/>
	<path class="st0" d="M170.5,78c-0.9,0-1.6,0.7-1.6,1.6s0.7,1.6,1.6,1.6c0.9,0,1.6-0.7,1.6-1.6C172.1,78.7,171.4,78,170.5,78z"/>
	<path class="st0" d="M157.5,78c-0.9,0-1.6,0.7-1.6,1.6s0.7,1.6,1.6,1.6c0.9,0,1.6-0.7,1.6-1.6C159.1,78.7,158.4,78,157.5,78z"/>
	<path class="st0" d="M144.5,78c-0.9,0-1.6,0.7-1.6,1.6s0.7,1.6,1.6,1.6c0.9,0,1.6-0.7,1.6-1.6C146.1,78.7,145.4,78,144.5,78z"/>
	<path class="st0" d="M131.5,78c-0.9,0-1.6,0.7-1.6,1.6s0.7,1.6,1.6,1.6c0.9,0,1.6-0.7,1.6-1.6C133.1,78.7,132.4,78,131.5,78z"/>
	<path class="st0" d="M118.5,78c-0.9,0-1.6,0.7-1.6,1.6s0.8,1.6,1.6,1.6c0.9,0,1.6-0.7,1.6-1.6C120.1,78.7,119.4,78,118.5,78z"/>
	<path class="st0" d="M105.5,78c-0.9,0-1.6,0.7-1.6,1.6s0.8,1.6,1.6,1.6c0.9,0,1.6-0.7,1.6-1.6C107.1,78.7,106.4,78,105.5,78z"/>
	<path class="st0" d="M92.5,78c-0.9,0-1.6,0.7-1.6,1.6s0.8,1.6,1.6,1.6c0.9,0,1.6-0.7,1.6-1.6C94.1,78.7,93.4,78,92.5,78z"/>
	<path class="st0" d="M79.6,78c-0.9,0-1.6,0.7-1.6,1.6s0.7,1.6,1.6,1.6c0.9,0,1.6-0.7,1.6-1.6C81.2,78.7,80.5,78,79.6,78z"/>
	<path class="st0" d="M66.6,78c-0.9,0-1.6,0.7-1.6,1.6s0.7,1.6,1.6,1.6c0.9,0,1.6-0.7,1.6-1.6C68.2,78.7,67.5,78,66.6,78z"/>
	<path class="st0" d="M53.6,78c-0.9,0-1.6,0.7-1.6,1.6s0.7,1.6,1.6,1.6c0.9,0,1.6-0.7,1.6-1.6C55.2,78.7,54.5,78,53.6,78z"/>
	<path class="st0" d="M40.6,78c-0.9,0-1.6,0.7-1.6,1.6s0.7,1.6,1.6,1.6c0.9,0,1.6-0.7,1.6-1.6C42.2,78.7,41.5,78,40.6,78z"/>
	<path class="st0" d="M27.6,78c-0.9,0-1.6,0.7-1.6,1.6s0.7,1.6,1.6,1.6c0.9,0,1.6-0.7,1.6-1.6C29.2,78.7,28.5,78,27.6,78z"/>
	<path class="st0" d="M14.6,78c-0.9,0-1.6,0.7-1.6,1.6s0.7,1.6,1.6,1.6c0.9,0,1.6-0.7,1.6-1.6C16.2,78.7,15.5,78,14.6,78z"/>
	<circle class="st0" cx="1.6" cy="79.6" r="1.6"/>
	<path class="st0" d="M235.5,65c-0.9,0-1.6,0.7-1.6,1.6s0.7,1.6,1.6,1.6c0.9,0,1.6-0.7,1.6-1.6C237.1,65.7,236.4,65,235.5,65z"/>
	<path class="st0" d="M222.5,65c-0.9,0-1.6,0.7-1.6,1.6s0.7,1.6,1.6,1.6c0.9,0,1.6-0.7,1.6-1.6C224.1,65.7,223.4,65,222.5,65z"/>
	<path class="st0" d="M209.5,65c-0.9,0-1.6,0.7-1.6,1.6s0.7,1.6,1.6,1.6c0.9,0,1.6-0.7,1.6-1.6C211.1,65.7,210.4,65,209.5,65z"/>
	<path class="st0" d="M196.5,65c-0.9,0-1.6,0.7-1.6,1.6s0.7,1.6,1.6,1.6c0.9,0,1.6-0.7,1.6-1.6C198.1,65.7,197.4,65,196.5,65z"/>
	<path class="st0" d="M183.5,65c-0.9,0-1.6,0.7-1.6,1.6s0.7,1.6,1.6,1.6c0.9,0,1.6-0.7,1.6-1.6C185.1,65.7,184.4,65,183.5,65z"/>
	<path class="st0" d="M170.5,65c-0.9,0-1.6,0.7-1.6,1.6s0.7,1.6,1.6,1.6c0.9,0,1.6-0.7,1.6-1.6C172.1,65.7,171.4,65,170.5,65z"/>
	<path class="st0" d="M157.5,65c-0.9,0-1.6,0.7-1.6,1.6s0.7,1.6,1.6,1.6c0.9,0,1.6-0.7,1.6-1.6C159.1,65.7,158.4,65,157.5,65z"/>
	<path class="st0" d="M144.5,65c-0.9,0-1.6,0.7-1.6,1.6s0.7,1.6,1.6,1.6c0.9,0,1.6-0.7,1.6-1.6C146.1,65.7,145.4,65,144.5,65z"/>
	<path class="st0" d="M131.5,65c-0.9,0-1.6,0.7-1.6,1.6s0.7,1.6,1.6,1.6c0.9,0,1.6-0.7,1.6-1.6C133.1,65.7,132.4,65,131.5,65z"/>
	<path class="st0" d="M118.5,65c-0.9,0-1.6,0.7-1.6,1.6s0.8,1.6,1.6,1.6c0.9,0,1.6-0.7,1.6-1.6C120.1,65.7,119.4,65,118.5,65z"/>
	<path class="st0" d="M105.5,65c-0.9,0-1.6,0.7-1.6,1.6s0.8,1.6,1.6,1.6c0.9,0,1.6-0.7,1.6-1.6C107.1,65.7,106.4,65,105.5,65z"/>
	<path class="st0" d="M92.5,65c-0.9,0-1.6,0.7-1.6,1.6s0.8,1.6,1.6,1.6c0.9,0,1.6-0.7,1.6-1.6C94.1,65.7,93.4,65,92.5,65z"/>
	<path class="st0" d="M79.6,65c-0.9,0-1.6,0.7-1.6,1.6s0.7,1.6,1.6,1.6c0.9,0,1.6-0.7,1.6-1.6C81.2,65.7,80.5,65,79.6,65z"/>
	<path class="st0" d="M66.6,65c-0.9,0-1.6,0.7-1.6,1.6s0.7,1.6,1.6,1.6c0.9,0,1.6-0.7,1.6-1.6C68.2,65.7,67.5,65,66.6,65z"/>
	<path class="st0" d="M53.6,65c-0.9,0-1.6,0.7-1.6,1.6s0.7,1.6,1.6,1.6c0.9,0,1.6-0.7,1.6-1.6C55.2,65.7,54.5,65,53.6,65z"/>
	<path class="st0" d="M40.6,65c-0.9,0-1.6,0.7-1.6,1.6s0.7,1.6,1.6,1.6c0.9,0,1.6-0.7,1.6-1.6S41.5,65,40.6,65z"/>
	<path class="st0" d="M27.6,65c-0.9,0-1.6,0.7-1.6,1.6s0.7,1.6,1.6,1.6c0.9,0,1.6-0.7,1.6-1.6C29.2,65.7,28.5,65,27.6,65z"/>
	<path class="st0" d="M14.6,65c-0.9,0-1.6,0.7-1.6,1.6s0.7,1.6,1.6,1.6c0.9,0,1.6-0.7,1.6-1.6C16.2,65.7,15.5,65,14.6,65z"/>
	<path class="st0" d="M1.6,65C0.7,65,0,65.7,0,66.6s0.7,1.6,1.6,1.6c0.9,0,1.6-0.7,1.6-1.6C3.2,65.7,2.5,65,1.6,65z"/>
	<path class="st0" d="M235.5,52c-0.9,0-1.6,0.7-1.6,1.6s0.7,1.6,1.6,1.6c0.9,0,1.6-0.7,1.6-1.6S236.4,52,235.5,52z"/>
	<path class="st0" d="M222.5,52c-0.9,0-1.6,0.7-1.6,1.6s0.7,1.6,1.6,1.6c0.9,0,1.6-0.7,1.6-1.6S223.4,52,222.5,52z"/>
	<path class="st0" d="M209.5,52c-0.9,0-1.6,0.7-1.6,1.6s0.7,1.6,1.6,1.6c0.9,0,1.6-0.7,1.6-1.6S210.4,52,209.5,52z"/>
	<path class="st0" d="M196.5,52c-0.9,0-1.6,0.7-1.6,1.6s0.7,1.6,1.6,1.6c0.9,0,1.6-0.7,1.6-1.6C198.1,52.7,197.4,52,196.5,52z"/>
	<path class="st0" d="M183.5,52c-0.9,0-1.6,0.7-1.6,1.6s0.7,1.6,1.6,1.6c0.9,0,1.6-0.7,1.6-1.6S184.4,52,183.5,52z"/>
	<path class="st0" d="M170.5,52c-0.9,0-1.6,0.7-1.6,1.6s0.7,1.6,1.6,1.6c0.9,0,1.6-0.7,1.6-1.6C172.1,52.7,171.4,52,170.5,52z"/>
	<path class="st0" d="M157.5,52c-0.9,0-1.6,0.7-1.6,1.6s0.7,1.6,1.6,1.6c0.9,0,1.6-0.7,1.6-1.6S158.4,52,157.5,52z"/>
	<path class="st0" d="M144.5,52c-0.9,0-1.6,0.7-1.6,1.6s0.7,1.6,1.6,1.6c0.9,0,1.6-0.7,1.6-1.6S145.4,52,144.5,52z"/>
	<path class="st0" d="M131.5,52c-0.9,0-1.6,0.7-1.6,1.6s0.7,1.6,1.6,1.6c0.9,0,1.6-0.7,1.6-1.6S132.4,52,131.5,52z"/>
	<path class="st0" d="M118.5,52c-0.9,0-1.6,0.7-1.6,1.6s0.8,1.6,1.6,1.6c0.9,0,1.6-0.7,1.6-1.6S119.4,52,118.5,52z"/>
	<path class="st0" d="M105.5,52c-0.9,0-1.6,0.7-1.6,1.6s0.8,1.6,1.6,1.6c0.9,0,1.6-0.7,1.6-1.6C107.1,52.7,106.4,52,105.5,52z"/>
	<path class="st0" d="M92.5,52c-0.9,0-1.6,0.7-1.6,1.6s0.8,1.6,1.6,1.6c0.9,0,1.6-0.7,1.6-1.6S93.4,52,92.5,52z"/>
	<path class="st0" d="M79.6,52c-0.9,0-1.6,0.7-1.6,1.6s0.7,1.6,1.6,1.6c0.9,0,1.6-0.7,1.6-1.6C81.2,52.7,80.5,52,79.6,52z"/>
	<path class="st0" d="M66.6,52c-0.9,0-1.6,0.7-1.6,1.6s0.7,1.6,1.6,1.6c0.9,0,1.6-0.7,1.6-1.6S67.5,52,66.6,52z"/>
	<path class="st0" d="M53.6,52c-0.9,0-1.6,0.7-1.6,1.6s0.7,1.6,1.6,1.6c0.9,0,1.6-0.7,1.6-1.6C55.2,52.7,54.5,52,53.6,52z"/>
	<path class="st0" d="M40.6,52c-0.9,0-1.6,0.7-1.6,1.6s0.7,1.6,1.6,1.6c0.9,0,1.6-0.7,1.6-1.6S41.5,52,40.6,52z"/>
	<path class="st0" d="M27.6,52c-0.9,0-1.6,0.7-1.6,1.6s0.7,1.6,1.6,1.6c0.9,0,1.6-0.7,1.6-1.6C29.2,52.7,28.5,52,27.6,52z"/>
	<path class="st0" d="M14.6,52c-0.9,0-1.6,0.7-1.6,1.6s0.7,1.6,1.6,1.6c0.9,0,1.6-0.7,1.6-1.6S15.5,52,14.6,52z"/>
	<circle class="st0" cx="1.6" cy="53.6" r="1.6"/>
	<path class="st0" d="M235.5,39c-0.9,0-1.6,0.7-1.6,1.6s0.7,1.6,1.6,1.6c0.9,0,1.6-0.7,1.6-1.6C237.1,39.7,236.4,39,235.5,39z"/>
	<path class="st0" d="M222.5,39c-0.9,0-1.6,0.7-1.6,1.6s0.7,1.6,1.6,1.6c0.9,0,1.6-0.7,1.6-1.6C224.1,39.7,223.4,39,222.5,39z"/>
	<path class="st0" d="M209.5,39c-0.9,0-1.6,0.7-1.6,1.6s0.7,1.6,1.6,1.6c0.9,0,1.6-0.7,1.6-1.6C211.1,39.7,210.4,39,209.5,39z"/>
	<path class="st0" d="M196.5,39c-0.9,0-1.6,0.7-1.6,1.6s0.7,1.6,1.6,1.6c0.9,0,1.6-0.7,1.6-1.6C198.1,39.7,197.4,39,196.5,39z"/>
	<path class="st0" d="M183.5,39c-0.9,0-1.6,0.7-1.6,1.6s0.7,1.6,1.6,1.6c0.9,0,1.6-0.7,1.6-1.6C185.1,39.7,184.4,39,183.5,39z"/>
	<path class="st0" d="M170.5,39c-0.9,0-1.6,0.7-1.6,1.6s0.7,1.6,1.6,1.6c0.9,0,1.6-0.7,1.6-1.6C172.1,39.7,171.4,39,170.5,39z"/>
	<path class="st0" d="M157.5,39c-0.9,0-1.6,0.7-1.6,1.6s0.7,1.6,1.6,1.6c0.9,0,1.6-0.7,1.6-1.6C159.1,39.7,158.4,39,157.5,39z"/>
	<path class="st0" d="M144.5,39c-0.9,0-1.6,0.7-1.6,1.6s0.7,1.6,1.6,1.6c0.9,0,1.6-0.7,1.6-1.6C146.1,39.7,145.4,39,144.5,39z"/>
	<path class="st0" d="M131.5,39c-0.9,0-1.6,0.7-1.6,1.6s0.7,1.6,1.6,1.6c0.9,0,1.6-0.7,1.6-1.6C133.1,39.7,132.4,39,131.5,39z"/>
	<path class="st0" d="M118.5,39c-0.9,0-1.6,0.7-1.6,1.6s0.8,1.6,1.6,1.6c0.9,0,1.6-0.7,1.6-1.6C120.1,39.7,119.4,39,118.5,39z"/>
	<path class="st0" d="M105.5,39c-0.9,0-1.6,0.7-1.6,1.6s0.8,1.6,1.6,1.6c0.9,0,1.6-0.7,1.6-1.6C107.1,39.7,106.4,39,105.5,39z"/>
	<path class="st0" d="M92.5,39c-0.9,0-1.6,0.7-1.6,1.6s0.8,1.6,1.6,1.6c0.9,0,1.6-0.7,1.6-1.6C94.1,39.7,93.4,39,92.5,39z"/>
	<path class="st0" d="M79.6,39c-0.9,0-1.6,0.7-1.6,1.6s0.7,1.6,1.6,1.6c0.9,0,1.6-0.7,1.6-1.6C81.2,39.7,80.5,39,79.6,39z"/>
	<path class="st0" d="M66.6,39c-0.9,0-1.6,0.7-1.6,1.6s0.7,1.6,1.6,1.6c0.9,0,1.6-0.7,1.6-1.6C68.2,39.7,67.5,39,66.6,39z"/>
	<path class="st0" d="M53.6,39c-0.9,0-1.6,0.7-1.6,1.6s0.7,1.6,1.6,1.6c0.9,0,1.6-0.7,1.6-1.6C55.2,39.7,54.5,39,53.6,39z"/>
	<path class="st0" d="M40.6,39c-0.9,0-1.6,0.7-1.6,1.6s0.7,1.6,1.6,1.6c0.9,0,1.6-0.7,1.6-1.6C42.2,39.7,41.5,39,40.6,39z"/>
	<path class="st0" d="M27.6,39c-0.9,0-1.6,0.7-1.6,1.6s0.7,1.6,1.6,1.6c0.9,0,1.6-0.7,1.6-1.6C29.2,39.7,28.5,39,27.6,39z"/>
	<path class="st0" d="M14.6,39c-0.9,0-1.6,0.7-1.6,1.6s0.7,1.6,1.6,1.6c0.9,0,1.6-0.7,1.6-1.6C16.2,39.7,15.5,39,14.6,39z"/>
	<path class="st0" d="M1.6,39C0.7,39,0,39.7,0,40.6s0.7,1.6,1.6,1.6c0.9,0,1.6-0.7,1.6-1.6C3.2,39.7,2.5,39,1.6,39z"/>
	<path class="st0" d="M235.5,26c-0.9,0-1.6,0.7-1.6,1.6s0.7,1.6,1.6,1.6c0.9,0,1.6-0.7,1.6-1.6C237.1,26.7,236.4,26,235.5,26z"/>
	<path class="st0" d="M222.5,26c-0.9,0-1.6,0.7-1.6,1.6s0.7,1.6,1.6,1.6c0.9,0,1.6-0.7,1.6-1.6C224.1,26.7,223.4,26,222.5,26z"/>
	<path class="st0" d="M209.5,26c-0.9,0-1.6,0.7-1.6,1.6s0.7,1.6,1.6,1.6c0.9,0,1.6-0.7,1.6-1.6C211.1,26.7,210.4,26,209.5,26z"/>
	<path class="st0" d="M196.5,26c-0.9,0-1.6,0.7-1.6,1.6s0.7,1.6,1.6,1.6c0.9,0,1.6-0.7,1.6-1.6S197.4,26,196.5,26z"/>
	<path class="st0" d="M183.5,26c-0.9,0-1.6,0.7-1.6,1.6s0.7,1.6,1.6,1.6c0.9,0,1.6-0.7,1.6-1.6C185.1,26.7,184.4,26,183.5,26z"/>
	<path class="st0" d="M170.5,26c-0.9,0-1.6,0.7-1.6,1.6s0.7,1.6,1.6,1.6c0.9,0,1.6-0.7,1.6-1.6S171.4,26,170.5,26z"/>
	<path class="st0" d="M157.5,26c-0.9,0-1.6,0.7-1.6,1.6s0.7,1.6,1.6,1.6c0.9,0,1.6-0.7,1.6-1.6C159.1,26.7,158.4,26,157.5,26z"/>
	<path class="st0" d="M144.5,26c-0.9,0-1.6,0.7-1.6,1.6s0.7,1.6,1.6,1.6c0.9,0,1.6-0.7,1.6-1.6C146.1,26.7,145.4,26,144.5,26z"/>
	<path class="st0" d="M131.5,26c-0.9,0-1.6,0.7-1.6,1.6s0.7,1.6,1.6,1.6c0.9,0,1.6-0.7,1.6-1.6C133.1,26.7,132.4,26,131.5,26z"/>
	<path class="st0" d="M118.5,26c-0.9,0-1.6,0.7-1.6,1.6s0.8,1.6,1.6,1.6c0.9,0,1.6-0.7,1.6-1.6C120.1,26.7,119.4,26,118.5,26z"/>
	<path class="st0" d="M105.5,26c-0.9,0-1.6,0.7-1.6,1.6s0.8,1.6,1.6,1.6c0.9,0,1.6-0.7,1.6-1.6S106.4,26,105.5,26z"/>
	<path class="st0" d="M92.5,26c-0.9,0-1.6,0.7-1.6,1.6s0.8,1.6,1.6,1.6c0.9,0,1.6-0.7,1.6-1.6C94.1,26.7,93.4,26,92.5,26z"/>
	<path class="st0" d="M79.6,26c-0.9,0-1.6,0.7-1.6,1.6s0.7,1.6,1.6,1.6c0.9,0,1.6-0.7,1.6-1.6S80.5,26,79.6,26z"/>
	<path class="st0" d="M66.6,26c-0.9,0-1.6,0.7-1.6,1.6s0.7,1.6,1.6,1.6c0.9,0,1.6-0.7,1.6-1.6C68.2,26.7,67.5,26,66.6,26z"/>
	<path class="st0" d="M53.6,26c-0.9,0-1.6,0.7-1.6,1.6s0.7,1.6,1.6,1.6c0.9,0,1.6-0.7,1.6-1.6S54.5,26,53.6,26z"/>
	<path class="st0" d="M40.6,26c-0.9,0-1.6,0.7-1.6,1.6s0.7,1.6,1.6,1.6c0.9,0,1.6-0.7,1.6-1.6C42.2,26.7,41.5,26,40.6,26z"/>
	<path class="st0" d="M27.6,26c-0.9,0-1.6,0.7-1.6,1.6s0.7,1.6,1.6,1.6c0.9,0,1.6-0.7,1.6-1.6S28.5,26,27.6,26z"/>
	<path class="st0" d="M14.6,26c-0.9,0-1.6,0.7-1.6,1.6s0.7,1.6,1.6,1.6c0.9,0,1.6-0.7,1.6-1.6C16.2,26.7,15.5,26,14.6,26z"/>
	<circle class="st0" cx="1.6" cy="27.6" r="1.6"/>
	<path class="st0" d="M235.5,13c-0.9,0-1.6,0.7-1.6,1.6s0.7,1.6,1.6,1.6c0.9,0,1.6-0.7,1.6-1.6S236.4,13,235.5,13z"/>
	<path class="st0" d="M222.5,13c-0.9,0-1.6,0.7-1.6,1.6s0.7,1.6,1.6,1.6c0.9,0,1.6-0.7,1.6-1.6S223.4,13,222.5,13z"/>
	<path class="st0" d="M209.5,13c-0.9,0-1.6,0.7-1.6,1.6s0.7,1.6,1.6,1.6c0.9,0,1.6-0.7,1.6-1.6C211.1,13.7,210.4,13,209.5,13z"/>
	<path class="st0" d="M196.5,13c-0.9,0-1.6,0.7-1.6,1.6s0.7,1.6,1.6,1.6c0.9,0,1.6-0.7,1.6-1.6S197.4,13,196.5,13z"/>
	<path class="st0" d="M183.5,13c-0.9,0-1.6,0.7-1.6,1.6s0.7,1.6,1.6,1.6c0.9,0,1.6-0.7,1.6-1.6S184.4,13,183.5,13z"/>
	<path class="st0" d="M170.5,13c-0.9,0-1.6,0.7-1.6,1.6s0.7,1.6,1.6,1.6c0.9,0,1.6-0.7,1.6-1.6C172.1,13.7,171.4,13,170.5,13z"/>
	<path class="st0" d="M157.5,13c-0.9,0-1.6,0.7-1.6,1.6s0.7,1.6,1.6,1.6c0.9,0,1.6-0.7,1.6-1.6S158.4,13,157.5,13z"/>
	<path class="st0" d="M144.5,13c-0.9,0-1.6,0.7-1.6,1.6s0.7,1.6,1.6,1.6c0.9,0,1.6-0.7,1.6-1.6S145.4,13,144.5,13z"/>
	<path class="st0" d="M131.5,13c-0.9,0-1.6,0.7-1.6,1.6s0.7,1.6,1.6,1.6c0.9,0,1.6-0.7,1.6-1.6S132.4,13,131.5,13z"/>
	<path class="st0" d="M118.5,13c-0.9,0-1.6,0.7-1.6,1.6s0.8,1.6,1.6,1.6c0.9,0,1.6-0.7,1.6-1.6S119.4,13,118.5,13z"/>
	<path class="st0" d="M105.5,13c-0.9,0-1.6,0.7-1.6,1.6s0.8,1.6,1.6,1.6c0.9,0,1.6-0.7,1.6-1.6C107.1,13.7,106.4,13,105.5,13z"/>
	<path class="st0" d="M92.5,13c-0.9,0-1.6,0.7-1.6,1.6s0.8,1.6,1.6,1.6c0.9,0,1.6-0.7,1.6-1.6S93.4,13,92.5,13z"/>
	<path class="st0" d="M79.6,13c-0.9,0-1.6,0.7-1.6,1.6s0.7,1.6,1.6,1.6c0.9,0,1.6-0.7,1.6-1.6C81.2,13.7,80.5,13,79.6,13z"/>
	<path class="st0" d="M66.6,13c-0.9,0-1.6,0.7-1.6,1.6s0.7,1.6,1.6,1.6c0.9,0,1.6-0.7,1.6-1.6S67.5,13,66.6,13z"/>
	<path class="st0" d="M53.6,13c-0.9,0-1.6,0.7-1.6,1.6s0.7,1.6,1.6,1.6c0.9,0,1.6-0.7,1.6-1.6C55.2,13.7,54.5,13,53.6,13z"/>
	<path class="st0" d="M40.6,13c-0.9,0-1.6,0.7-1.6,1.6s0.7,1.6,1.6,1.6c0.9,0,1.6-0.7,1.6-1.6S41.5,13,40.6,13z"/>
	<path class="st0" d="M27.6,13c-0.9,0-1.6,0.7-1.6,1.6s0.7,1.6,1.6,1.6c0.9,0,1.6-0.7,1.6-1.6C29.2,13.7,28.5,13,27.6,13z"/>
	<path class="st0" d="M14.6,13c-0.9,0-1.6,0.7-1.6,1.6s0.7,1.6,1.6,1.6c0.9,0,1.6-0.7,1.6-1.6S15.5,13,14.6,13z"/>
	<path class="st0" d="M1.6,13C0.7,13,0,13.7,0,14.6s0.7,1.6,1.6,1.6c0.9,0,1.6-0.7,1.6-1.6S2.5,13,1.6,13z"/>
	<path class="st0" d="M248.4,0c-0.9,0-1.6,0.7-1.6,1.6s0.8,1.7,1.6,1.6c0.9,0,1.6-0.7,1.6-1.6C250,0.7,249.3,0,248.4,0z"/>
	<path class="st0" d="M235.5,0c-0.9,0-1.6,0.7-1.6,1.6s0.7,1.6,1.6,1.6c0.9,0,1.6-0.7,1.6-1.6C237.1,0.7,236.4,0,235.5,0z"/>
	<path class="st0" d="M222.5,0c-0.9,0-1.6,0.7-1.6,1.6s0.7,1.6,1.6,1.6c0.9,0,1.6-0.7,1.6-1.6C224.1,0.7,223.4,0,222.5,0z"/>
	<path class="st0" d="M209.5,0c-0.9,0-1.6,0.7-1.6,1.6s0.7,1.7,1.6,1.6c0.9,0,1.6-0.7,1.6-1.6C211.1,0.7,210.4,0,209.5,0z"/>
	<path class="st0" d="M196.5,0c-0.9,0-1.6,0.7-1.6,1.6s0.7,1.6,1.6,1.6c0.9,0,1.6-0.7,1.6-1.6S197.4,0,196.5,0z"/>
	<path class="st0" d="M183.5,0c-0.9,0-1.6,0.7-1.6,1.6s0.7,1.6,1.6,1.6c0.9,0,1.6-0.7,1.6-1.6C185.1,0.7,184.4,0,183.5,0z"/>
	<path class="st0" d="M170.5,0c-0.9,0-1.6,0.7-1.6,1.6s0.7,1.6,1.6,1.6c0.9,0,1.6-0.7,1.6-1.6C172.1,0.7,171.4,0,170.5,0z"/>
	<path class="st0" d="M157.5,0c-0.9,0-1.6,0.7-1.6,1.6s0.7,1.7,1.6,1.6c0.9,0,1.6-0.7,1.6-1.6C159.1,0.7,158.4,0,157.5,0z"/>
	<path class="st0" d="M144.5,0c-0.9,0-1.6,0.7-1.6,1.6s0.7,1.6,1.6,1.6c0.9,0,1.6-0.7,1.6-1.6C146.1,0.7,145.4,0,144.5,0z"/>
	<path class="st0" d="M131.5,0c-0.9,0-1.6,0.7-1.6,1.6s0.7,1.7,1.6,1.6c0.9,0,1.6-0.7,1.6-1.6C133.1,0.7,132.4,0,131.5,0z"/>
	<path class="st0" d="M118.5,0c-0.9,0-1.6,0.7-1.6,1.6s0.8,1.6,1.6,1.6c0.9,0,1.6-0.7,1.6-1.6C120.1,0.7,119.4,0,118.5,0z"/>
	<path class="st0" d="M105.5,0c-0.9,0-1.6,0.7-1.6,1.6s0.8,1.7,1.6,1.6c0.9,0,1.6-0.7,1.6-1.6C107.1,0.7,106.4,0,105.5,0z"/>
	<path class="st0" d="M92.5,0c-0.9,0-1.6,0.7-1.6,1.6s0.8,1.6,1.6,1.6c0.9,0,1.6-0.7,1.6-1.6C94.1,0.7,93.4,0,92.5,0z"/>
	<path class="st0" d="M79.6,0C78.7,0,78,0.7,78,1.6s0.7,1.7,1.6,1.6c0.9,0,1.6-0.7,1.6-1.6C81.2,0.7,80.5,0,79.6,0z"/>
	<path class="st0" d="M66.6,0C65.7,0,65,0.7,65,1.6s0.7,1.7,1.6,1.6c0.9,0,1.6-0.7,1.6-1.6C68.2,0.7,67.5,0,66.6,0z"/>
	<path class="st0" d="M53.6,0C52.7,0,52,0.7,52,1.6s0.7,1.7,1.6,1.6c0.9,0,1.6-0.7,1.6-1.6C55.2,0.7,54.5,0,53.6,0z"/>
	<path class="st0" d="M40.6,0C39.7,0,39,0.7,39,1.6s0.7,1.6,1.6,1.6c0.9,0,1.6-0.7,1.6-1.6S41.5,0,40.6,0z"/>
	<path class="st0" d="M27.6,0C26.7,0,26,0.7,26,1.6s0.7,1.7,1.6,1.6c0.9,0,1.6-0.7,1.6-1.6C29.2,0.7,28.5,0,27.6,0z"/>
	<path class="st0" d="M14.6,0C13.7,0,13,0.7,13,1.6s0.7,1.7,1.6,1.6c0.9,0,1.6-0.7,1.6-1.6C16.2,0.7,15.5,0,14.6,0z"/>
	<circle class="st0" cx="1.6" cy="1.6" r="1.6"/>
	<path class="st0" d="M246.8,14.6c0,0.9,0.8,1.6,1.6,1.6c0.4,0,0.7-0.1,1-0.3c0.1-0.8,0.1-1.6,0.2-2.4c-0.3-0.3-0.7-0.4-1.1-0.4
		C247.5,13,246.8,13.7,246.8,14.6z"/>
	<path class="st0" d="M246.8,27.6c0,0.8,0.6,1.4,1.3,1.6c0.1-1,0.2-2.1,0.4-3.2c0,0,0,0,0,0C247.5,26,246.8,26.7,246.8,27.6z"/>
	<path class="st0" d="M233.9,79.6c0,0.9,0.7,1.6,1.6,1.6c0.1,0,0.2,0,0.3,0c0.3-0.9,0.6-1.7,0.9-2.6c-0.3-0.3-0.7-0.6-1.2-0.6
		C234.6,78,233.9,78.7,233.9,79.6z"/>
	<path class="st0" d="M131.5,207.9c-0.9,0-1.6,0.7-1.6,1.6c0,0.7,0.4,1.3,1,1.5c0.7-0.4,1.4-0.9,2.2-1.3c0-0.1,0-0.1,0-0.2
		C133.1,208.6,132.4,207.9,131.5,207.9z"/>
	<path class="st0" d="M79.6,233.9c-0.9,0-1.6,0.7-1.6,1.6c0,0,0,0,0,0.1c1-0.3,2-0.6,2.9-1C80.6,234.2,80.2,233.9,79.6,233.9z"/>
	<path class="st0" d="M13.2,247.7c0.9,0,1.7-0.1,2.6-0.2c-0.3-0.4-0.7-0.6-1.2-0.6C14,246.9,13.5,247.2,13.2,247.7z"/>
	<path class="st0" d="M1.6,246.9c-0.7,0-1.3,0.5-1.5,1.1c1,0,2,0,3,0C2.9,247.3,2.3,246.9,1.6,246.9z"/>
	<path class="st0" d="M245.2,40.6c0,0.7,0.4,1.2,0.9,1.5c0.2-1,0.3-2,0.5-3C245.8,39.1,245.2,39.8,245.2,40.6z"/>
	<path class="st0" d="M242.7,53.6c0,0.6,0.3,1.1,0.8,1.4c0.2-1,0.4-2,0.7-2.9C243.3,52.1,242.7,52.8,242.7,53.6z"/>
	<path class="st0" d="M230.7,92.6c0,0.4,0.1,0.7,0.4,1c0.4-0.9,0.7-1.7,1.1-2.6C231.3,91.1,230.7,91.8,230.7,92.6z"/>
	<path class="st0" d="M218.3,117c-0.9,0-1.6,0.7-1.6,1.6c0,0.8,0.6,1.5,1.4,1.6c0.5-0.9,1-1.7,1.4-2.6
		C219.3,117.2,218.8,117,218.3,117z"/>
	<path class="st0" d="M27.6,244.8c-0.9,0-1.6,0.7-1.6,1.6c0,0.1,0,0.2,0,0.3c1.1-0.1,2.1-0.2,3.2-0.4
		C29.1,245.4,28.5,244.8,27.6,244.8z"/>
	<path class="st0" d="M39.2,244.9c0.8-0.1,1.6-0.3,2.4-0.4c-0.3-0.2-0.6-0.4-1.1-0.4C40,244.1,39.5,244.4,39.2,244.9z"/>
	<path class="st0" d="M52.1,242.5c0.8-0.2,1.7-0.4,2.5-0.5c-0.3-0.2-0.6-0.4-1.1-0.4C52.9,241.6,52.4,242,52.1,242.5z"/>
</g>
</svg>
