<svg xmlns="http://www.w3.org/2000/svg" xmlns:xlink="http://www.w3.org/1999/xlink" width="265" height="265" viewBox="0 0 265 265"><defs><style>.a{fill:#ff8200;}.b{clip-path:url(#a);}.c{fill:#fff;}</style><clipPath id="a"><circle class="a" cx="125" cy="125" r="125" transform="translate(0.476 0.477)"/></clipPath></defs><g transform="translate(-3067 -1840)"><g class="b" transform="translate(3081.523 1854.523)"><g transform="translate(7.505 7.505)"><path class="a" d="M248,249a1,1,0,1,1,1,1A1,1,0,0,1,248,249Zm-8,0a1,1,0,1,1,1,1A1,1,0,0,1,240,249Zm-8,0a1,1,0,1,1,1,1A1,1,0,0,1,232,249Zm-8,0a1,1,0,1,1,1,1A1,1,0,0,1,224,249Zm-8,0a1,1,0,1,1,1,1A1,1,0,0,1,216,249Zm-8,0a1,1,0,1,1,1,1A1,1,0,0,1,208,249Zm-8,0a1,1,0,1,1,1,1A1,1,0,0,1,200,249Zm-8,0a1,1,0,1,1,1,1A1,1,0,0,1,192,249Zm-8,0a1,1,0,1,1,1,1A1,1,0,0,1,184,249Zm-8,0a1,1,0,1,1,1,1A1,1,0,0,1,176,249Zm-8,0a1,1,0,1,1,1,1A1,1,0,0,1,168,249Zm-8,0a1,1,0,1,1,1,1A1,1,0,0,1,160,249Zm-8,0a1,1,0,1,1,1,1A1,1,0,0,1,152,249Zm-8,0a1,1,0,1,1,1,1A1,1,0,0,1,144,249Zm-8,0a1,1,0,1,1,1,1A1,1,0,0,1,136,249Zm-8,0a1,1,0,1,1,1,1A1,1,0,0,1,128,249Zm-8,0a1,1,0,1,1,1,1A1,1,0,0,1,120,249Zm-8,0a1,1,0,1,1,1,1A1,1,0,0,1,112,249Zm-8,0a1,1,0,1,1,1,1A1,1,0,0,1,104,249Zm-8,0a1,1,0,1,1,1,1A1,1,0,0,1,96,249Zm-8,0a1,1,0,1,1,1,1A1,1,0,0,1,88,249Zm-8,0a1,1,0,1,1,1,1A1,1,0,0,1,80,249Zm-8,0a1,1,0,1,1,1,1A1,1,0,0,1,72,249Zm-8,0a1,1,0,1,1,1,1A1,1,0,0,1,64,249Zm-8,0a1,1,0,1,1,1,1A1,1,0,0,1,56,249Zm-8,0a1,1,0,1,1,1,1A1,1,0,0,1,48,249Zm-8,0a1,1,0,1,1,1,1A1,1,0,0,1,40,249Zm-8,0a1,1,0,1,1,1,1A1,1,0,0,1,32,249Zm-8,0a1,1,0,1,1,1,1A1,1,0,0,1,24,249Zm-8,0a1,1,0,1,1,1,1A1,1,0,0,1,16,249Zm-8,0a1,1,0,1,1,1,1A1,1,0,0,1,8,249Zm-8,0a1,1,0,1,1,1,1A1,1,0,0,1,0,249Zm248-8a1,1,0,1,1,1,1A1,1,0,0,1,248,241Zm-8,0a1,1,0,1,1,1,1A1,1,0,0,1,240,241Zm-8,0a1,1,0,1,1,1,1A1,1,0,0,1,232,241Zm-8,0a1,1,0,1,1,1,1A1,1,0,0,1,224,241Zm-8,0a1,1,0,1,1,1,1A1,1,0,0,1,216,241Zm-8,0a1,1,0,1,1,1,1A1,1,0,0,1,208,241Zm-8,0a1,1,0,1,1,1,1A1,1,0,0,1,200,241Zm-8,0a1,1,0,1,1,1,1A1,1,0,0,1,192,241Zm-8,0a1,1,0,1,1,1,1A1,1,0,0,1,184,241Zm-8,0a1,1,0,1,1,1,1A1,1,0,0,1,176,241Zm-8,0a1,1,0,1,1,1,1A1,1,0,0,1,168,241Zm-8,0a1,1,0,1,1,1,1A1,1,0,0,1,160,241Zm-8,0a1,1,0,1,1,1,1A1,1,0,0,1,152,241Zm-8,0a1,1,0,1,1,1,1A1,1,0,0,1,144,241Zm-8,0a1,1,0,1,1,1,1A1,1,0,0,1,136,241Zm-8,0a1,1,0,1,1,1,1A1,1,0,0,1,128,241Zm-8,0a1,1,0,1,1,1,1A1,1,0,0,1,120,241Zm-8,0a1,1,0,1,1,1,1A1,1,0,0,1,112,241Zm-8,0a1,1,0,1,1,1,1A1,1,0,0,1,104,241Zm-8,0a1,1,0,1,1,1,1A1,1,0,0,1,96,241Zm-8,0a1,1,0,1,1,1,1A1,1,0,0,1,88,241Zm-8,0a1,1,0,1,1,1,1A1,1,0,0,1,80,241Zm-8,0a1,1,0,1,1,1,1A1,1,0,0,1,72,241Zm-8,0a1,1,0,1,1,1,1A1,1,0,0,1,64,241Zm-8,0a1,1,0,1,1,1,1A1,1,0,0,1,56,241Zm-8,0a1,1,0,1,1,1,1A1,1,0,0,1,48,241Zm-8,0a1,1,0,1,1,1,1A1,1,0,0,1,40,241Zm-8,0a1,1,0,1,1,1,1A1,1,0,0,1,32,241Zm-8,0a1,1,0,1,1,1,1A1,1,0,0,1,24,241Zm-8,0a1,1,0,1,1,1,1A1,1,0,0,1,16,241Zm-8,0a1,1,0,1,1,1,1A1,1,0,0,1,8,241Zm-8,0a1,1,0,1,1,1,1A1,1,0,0,1,0,241Zm248-8a1,1,0,1,1,1,1A1,1,0,0,1,248,233Zm-8,0a1,1,0,1,1,1,1A1,1,0,0,1,240,233Zm-8,0a1,1,0,1,1,1,1A1,1,0,0,1,232,233Zm-8,0a1,1,0,1,1,1,1A1,1,0,0,1,224,233Zm-8,0a1,1,0,1,1,1,1A1,1,0,0,1,216,233Zm-8,0a1,1,0,1,1,1,1A1,1,0,0,1,208,233Zm-8,0a1,1,0,1,1,1,1A1,1,0,0,1,200,233Zm-8,0a1,1,0,1,1,1,1A1,1,0,0,1,192,233Zm-8,0a1,1,0,1,1,1,1A1,1,0,0,1,184,233Zm-8,0a1,1,0,1,1,1,1A1,1,0,0,1,176,233Zm-8,0a1,1,0,1,1,1,1A1,1,0,0,1,168,233Zm-8,0a1,1,0,1,1,1,1A1,1,0,0,1,160,233Zm-8,0a1,1,0,1,1,1,1A1,1,0,0,1,152,233Zm-8,0a1,1,0,1,1,1,1A1,1,0,0,1,144,233Zm-8,0a1,1,0,1,1,1,1A1,1,0,0,1,136,233Zm-8,0a1,1,0,1,1,1,1A1,1,0,0,1,128,233Zm-8,0a1,1,0,1,1,1,1A1,1,0,0,1,120,233Zm-8,0a1,1,0,1,1,1,1A1,1,0,0,1,112,233Zm-8,0a1,1,0,1,1,1,1A1,1,0,0,1,104,233Zm-8,0a1,1,0,1,1,1,1A1,1,0,0,1,96,233Zm-8,0a1,1,0,1,1,1,1A1,1,0,0,1,88,233Zm-8,0a1,1,0,1,1,1,1A1,1,0,0,1,80,233Zm-8,0a1,1,0,1,1,1,1A1,1,0,0,1,72,233Zm-8,0a1,1,0,1,1,1,1A1,1,0,0,1,64,233Zm-8,0a1,1,0,1,1,1,1A1,1,0,0,1,56,233Zm-8,0a1,1,0,1,1,1,1A1,1,0,0,1,48,233Zm-8,0a1,1,0,1,1,1,1A1,1,0,0,1,40,233Zm-8,0a1,1,0,1,1,1,1A1,1,0,0,1,32,233Zm-8,0a1,1,0,1,1,1,1A1,1,0,0,1,24,233Zm-8,0a1,1,0,1,1,1,1A1,1,0,0,1,16,233Zm-8,0a1,1,0,1,1,1,1A1,1,0,0,1,8,233Zm-8,0a1,1,0,1,1,1,1A1,1,0,0,1,0,233Zm248-8a1,1,0,1,1,1,1A1,1,0,0,1,248,225Zm-8,0a1,1,0,1,1,1,1A1,1,0,0,1,240,225Zm-8,0a1,1,0,1,1,1,1A1,1,0,0,1,232,225Zm-8,0a1,1,0,1,1,1,1A1,1,0,0,1,224,225Zm-8,0a1,1,0,1,1,1,1A1,1,0,0,1,216,225Zm-8,0a1,1,0,1,1,1,1A1,1,0,0,1,208,225Zm-8,0a1,1,0,1,1,1,1A1,1,0,0,1,200,225Zm-8,0a1,1,0,1,1,1,1A1,1,0,0,1,192,225Zm-8,0a1,1,0,1,1,1,1A1,1,0,0,1,184,225Zm-8,0a1,1,0,1,1,1,1A1,1,0,0,1,176,225Zm-8,0a1,1,0,1,1,1,1A1,1,0,0,1,168,225Zm-8,0a1,1,0,1,1,1,1A1,1,0,0,1,160,225Zm-8,0a1,1,0,1,1,1,1A1,1,0,0,1,152,225Zm-8,0a1,1,0,1,1,1,1A1,1,0,0,1,144,225Zm-8,0a1,1,0,1,1,1,1A1,1,0,0,1,136,225Zm-8,0a1,1,0,1,1,1,1A1,1,0,0,1,128,225Zm-8,0a1,1,0,1,1,1,1A1,1,0,0,1,120,225Zm-8,0a1,1,0,1,1,1,1A1,1,0,0,1,112,225Zm-8,0a1,1,0,1,1,1,1A1,1,0,0,1,104,225Zm-8,0a1,1,0,1,1,1,1A1,1,0,0,1,96,225Zm-8,0a1,1,0,1,1,1,1A1,1,0,0,1,88,225Zm-8,0a1,1,0,1,1,1,1A1,1,0,0,1,80,225Zm-8,0a1,1,0,1,1,1,1A1,1,0,0,1,72,225Zm-8,0a1,1,0,1,1,1,1A1,1,0,0,1,64,225Zm-8,0a1,1,0,1,1,1,1A1,1,0,0,1,56,225Zm-8,0a1,1,0,1,1,1,1A1,1,0,0,1,48,225Zm-8,0a1,1,0,1,1,1,1A1,1,0,0,1,40,225Zm-8,0a1,1,0,1,1,1,1A1,1,0,0,1,32,225Zm-8,0a1,1,0,1,1,1,1A1,1,0,0,1,24,225Zm-8,0a1,1,0,1,1,1,1A1,1,0,0,1,16,225Zm-8,0a1,1,0,1,1,1,1A1,1,0,0,1,8,225Zm-8,0a1,1,0,1,1,1,1A1,1,0,0,1,0,225Zm248-8a1,1,0,1,1,1,1A1,1,0,0,1,248,217Zm-8,0a1,1,0,1,1,1,1A1,1,0,0,1,240,217Zm-8,0a1,1,0,1,1,1,1A1,1,0,0,1,232,217Zm-8,0a1,1,0,1,1,1,1A1,1,0,0,1,224,217Zm-8,0a1,1,0,1,1,1,1A1,1,0,0,1,216,217Zm-8,0a1,1,0,1,1,1,1A1,1,0,0,1,208,217Zm-8,0a1,1,0,1,1,1,1A1,1,0,0,1,200,217Zm-8,0a1,1,0,1,1,1,1A1,1,0,0,1,192,217Zm-8,0a1,1,0,1,1,1,1A1,1,0,0,1,184,217Zm-8,0a1,1,0,1,1,1,1A1,1,0,0,1,176,217Zm-8,0a1,1,0,1,1,1,1A1,1,0,0,1,168,217Zm-8,0a1,1,0,1,1,1,1A1,1,0,0,1,160,217Zm-8,0a1,1,0,1,1,1,1A1,1,0,0,1,152,217Zm-8,0a1,1,0,1,1,1,1A1,1,0,0,1,144,217Zm-8,0a1,1,0,1,1,1,1A1,1,0,0,1,136,217Zm-8,0a1,1,0,1,1,1,1A1,1,0,0,1,128,217Zm-8,0a1,1,0,1,1,1,1A1,1,0,0,1,120,217Zm-8,0a1,1,0,1,1,1,1A1,1,0,0,1,112,217Zm-8,0a1,1,0,1,1,1,1A1,1,0,0,1,104,217Zm-8,0a1,1,0,1,1,1,1A1,1,0,0,1,96,217Zm-8,0a1,1,0,1,1,1,1A1,1,0,0,1,88,217Zm-8,0a1,1,0,1,1,1,1A1,1,0,0,1,80,217Zm-8,0a1,1,0,1,1,1,1A1,1,0,0,1,72,217Zm-8,0a1,1,0,1,1,1,1A1,1,0,0,1,64,217Zm-8,0a1,1,0,1,1,1,1A1,1,0,0,1,56,217Zm-8,0a1,1,0,1,1,1,1A1,1,0,0,1,48,217Zm-8,0a1,1,0,1,1,1,1A1,1,0,0,1,40,217Zm-8,0a1,1,0,1,1,1,1A1,1,0,0,1,32,217Zm-8,0a1,1,0,1,1,1,1A1,1,0,0,1,24,217Zm-8,0a1,1,0,1,1,1,1A1,1,0,0,1,16,217Zm-8,0a1,1,0,1,1,1,1A1,1,0,0,1,8,217Zm-8,0a1,1,0,1,1,1,1A1,1,0,0,1,0,217Zm248-8a1,1,0,1,1,1,1A1,1,0,0,1,248,209Zm-8,0a1,1,0,1,1,1,1A1,1,0,0,1,240,209Zm-8,0a1,1,0,1,1,1,1A1,1,0,0,1,232,209Zm-8,0a1,1,0,1,1,1,1A1,1,0,0,1,224,209Zm-8,0a1,1,0,1,1,1,1A1,1,0,0,1,216,209Zm-8,0a1,1,0,1,1,1,1A1,1,0,0,1,208,209Zm-8,0a1,1,0,1,1,1,1A1,1,0,0,1,200,209Zm-8,0a1,1,0,1,1,1,1A1,1,0,0,1,192,209Zm-8,0a1,1,0,1,1,1,1A1,1,0,0,1,184,209Zm-8,0a1,1,0,1,1,1,1A1,1,0,0,1,176,209Zm-8,0a1,1,0,1,1,1,1A1,1,0,0,1,168,209Zm-8,0a1,1,0,1,1,1,1A1,1,0,0,1,160,209Zm-8,0a1,1,0,1,1,1,1A1,1,0,0,1,152,209Zm-8,0a1,1,0,1,1,1,1A1,1,0,0,1,144,209Zm-8,0a1,1,0,1,1,1,1A1,1,0,0,1,136,209Zm-8,0a1,1,0,1,1,1,1A1,1,0,0,1,128,209Zm-8,0a1,1,0,1,1,1,1A1,1,0,0,1,120,209Zm-8,0a1,1,0,1,1,1,1A1,1,0,0,1,112,209Zm-8,0a1,1,0,1,1,1,1A1,1,0,0,1,104,209Zm-8,0a1,1,0,1,1,1,1A1,1,0,0,1,96,209Zm-8,0a1,1,0,1,1,1,1A1,1,0,0,1,88,209Zm-8,0a1,1,0,1,1,1,1A1,1,0,0,1,80,209Zm-8,0a1,1,0,1,1,1,1A1,1,0,0,1,72,209Zm-8,0a1,1,0,1,1,1,1A1,1,0,0,1,64,209Zm-8,0a1,1,0,1,1,1,1A1,1,0,0,1,56,209Zm-8,0a1,1,0,1,1,1,1A1,1,0,0,1,48,209Zm-8,0a1,1,0,1,1,1,1A1,1,0,0,1,40,209Zm-8,0a1,1,0,1,1,1,1A1,1,0,0,1,32,209Zm-8,0a1,1,0,1,1,1,1A1,1,0,0,1,24,209Zm-8,0a1,1,0,1,1,1,1A1,1,0,0,1,16,209Zm-8,0a1,1,0,1,1,1,1A1,1,0,0,1,8,209Zm-8,0a1,1,0,1,1,1,1A1,1,0,0,1,0,209Zm248-8a1,1,0,1,1,1,1A1,1,0,0,1,248,201Zm-8,0a1,1,0,1,1,1,1A1,1,0,0,1,240,201Zm-8,0a1,1,0,1,1,1,1A1,1,0,0,1,232,201Zm-8,0a1,1,0,1,1,1,1A1,1,0,0,1,224,201Zm-8,0a1,1,0,1,1,1,1A1,1,0,0,1,216,201Zm-8,0a1,1,0,1,1,1,1A1,1,0,0,1,208,201Zm-8,0a1,1,0,1,1,1,1A1,1,0,0,1,200,201Zm-8,0a1,1,0,1,1,1,1A1,1,0,0,1,192,201Zm-8,0a1,1,0,1,1,1,1A1,1,0,0,1,184,201Zm-8,0a1,1,0,1,1,1,1A1,1,0,0,1,176,201Zm-8,0a1,1,0,1,1,1,1A1,1,0,0,1,168,201Zm-8,0a1,1,0,1,1,1,1A1,1,0,0,1,160,201Zm-8,0a1,1,0,1,1,1,1A1,1,0,0,1,152,201Zm-8,0a1,1,0,1,1,1,1A1,1,0,0,1,144,201Zm-8,0a1,1,0,1,1,1,1A1,1,0,0,1,136,201Zm-8,0a1,1,0,1,1,1,1A1,1,0,0,1,128,201Zm-8,0a1,1,0,1,1,1,1A1,1,0,0,1,120,201Zm-8,0a1,1,0,1,1,1,1A1,1,0,0,1,112,201Zm-8,0a1,1,0,1,1,1,1A1,1,0,0,1,104,201Zm-8,0a1,1,0,1,1,1,1A1,1,0,0,1,96,201Zm-8,0a1,1,0,1,1,1,1A1,1,0,0,1,88,201Zm-8,0a1,1,0,1,1,1,1A1,1,0,0,1,80,201Zm-8,0a1,1,0,1,1,1,1A1,1,0,0,1,72,201Zm-8,0a1,1,0,1,1,1,1A1,1,0,0,1,64,201Zm-8,0a1,1,0,1,1,1,1A1,1,0,0,1,56,201Zm-8,0a1,1,0,1,1,1,1A1,1,0,0,1,48,201Zm-8,0a1,1,0,1,1,1,1A1,1,0,0,1,40,201Zm-8,0a1,1,0,1,1,1,1A1,1,0,0,1,32,201Zm-8,0a1,1,0,1,1,1,1A1,1,0,0,1,24,201Zm-8,0a1,1,0,1,1,1,1A1,1,0,0,1,16,201Zm-8,0a1,1,0,1,1,1,1A1,1,0,0,1,8,201Zm-8,0a1,1,0,1,1,1,1A1,1,0,0,1,0,201Zm248-8a1,1,0,1,1,1,1A1,1,0,0,1,248,193Zm-8,0a1,1,0,1,1,1,1A1,1,0,0,1,240,193Zm-8,0a1,1,0,1,1,1,1A1,1,0,0,1,232,193Zm-8,0a1,1,0,1,1,1,1A1,1,0,0,1,224,193Zm-8,0a1,1,0,1,1,1,1A1,1,0,0,1,216,193Zm-8,0a1,1,0,1,1,1,1A1,1,0,0,1,208,193Zm-8,0a1,1,0,1,1,1,1A1,1,0,0,1,200,193Zm-8,0a1,1,0,1,1,1,1A1,1,0,0,1,192,193Zm-8,0a1,1,0,1,1,1,1A1,1,0,0,1,184,193Zm-8,0a1,1,0,1,1,1,1A1,1,0,0,1,176,193Zm-8,0a1,1,0,1,1,1,1A1,1,0,0,1,168,193Zm-8,0a1,1,0,1,1,1,1A1,1,0,0,1,160,193Zm-8,0a1,1,0,1,1,1,1A1,1,0,0,1,152,193Zm-8,0a1,1,0,1,1,1,1A1,1,0,0,1,144,193Zm-8,0a1,1,0,1,1,1,1A1,1,0,0,1,136,193Zm-8,0a1,1,0,1,1,1,1A1,1,0,0,1,128,193Zm-8,0a1,1,0,1,1,1,1A1,1,0,0,1,120,193Zm-8,0a1,1,0,1,1,1,1A1,1,0,0,1,112,193Zm-8,0a1,1,0,1,1,1,1A1,1,0,0,1,104,193Zm-8,0a1,1,0,1,1,1,1A1,1,0,0,1,96,193Zm-8,0a1,1,0,1,1,1,1A1,1,0,0,1,88,193Zm-8,0a1,1,0,1,1,1,1A1,1,0,0,1,80,193Zm-8,0a1,1,0,1,1,1,1A1,1,0,0,1,72,193Zm-8,0a1,1,0,1,1,1,1A1,1,0,0,1,64,193Zm-8,0a1,1,0,1,1,1,1A1,1,0,0,1,56,193Zm-8,0a1,1,0,1,1,1,1A1,1,0,0,1,48,193Zm-8,0a1,1,0,1,1,1,1A1,1,0,0,1,40,193Zm-8,0a1,1,0,1,1,1,1A1,1,0,0,1,32,193Zm-8,0a1,1,0,1,1,1,1A1,1,0,0,1,24,193Zm-8,0a1,1,0,1,1,1,1A1,1,0,0,1,16,193Zm-8,0a1,1,0,1,1,1,1A1,1,0,0,1,8,193Zm-8,0a1,1,0,1,1,1,1A1,1,0,0,1,0,193Zm248-8a1,1,0,1,1,1,1A1,1,0,0,1,248,185Zm-8,0a1,1,0,1,1,1,1A1,1,0,0,1,240,185Zm-8,0a1,1,0,1,1,1,1A1,1,0,0,1,232,185Zm-8,0a1,1,0,1,1,1,1A1,1,0,0,1,224,185Zm-8,0a1,1,0,1,1,1,1A1,1,0,0,1,216,185Zm-8,0a1,1,0,1,1,1,1A1,1,0,0,1,208,185Zm-8,0a1,1,0,1,1,1,1A1,1,0,0,1,200,185Zm-8,0a1,1,0,1,1,1,1A1,1,0,0,1,192,185Zm-8,0a1,1,0,1,1,1,1A1,1,0,0,1,184,185Zm-8,0a1,1,0,1,1,1,1A1,1,0,0,1,176,185Zm-8,0a1,1,0,1,1,1,1A1,1,0,0,1,168,185Zm-8,0a1,1,0,1,1,1,1A1,1,0,0,1,160,185Zm-8,0a1,1,0,1,1,1,1A1,1,0,0,1,152,185Zm-8,0a1,1,0,1,1,1,1A1,1,0,0,1,144,185Zm-8,0a1,1,0,1,1,1,1A1,1,0,0,1,136,185Zm-8,0a1,1,0,1,1,1,1A1,1,0,0,1,128,185Zm-8,0a1,1,0,1,1,1,1A1,1,0,0,1,120,185Zm-8,0a1,1,0,1,1,1,1A1,1,0,0,1,112,185Zm-8,0a1,1,0,1,1,1,1A1,1,0,0,1,104,185Zm-8,0a1,1,0,1,1,1,1A1,1,0,0,1,96,185Zm-8,0a1,1,0,1,1,1,1A1,1,0,0,1,88,185Zm-8,0a1,1,0,1,1,1,1A1,1,0,0,1,80,185Zm-8,0a1,1,0,1,1,1,1A1,1,0,0,1,72,185Zm-8,0a1,1,0,1,1,1,1A1,1,0,0,1,64,185Zm-8,0a1,1,0,1,1,1,1A1,1,0,0,1,56,185Zm-8,0a1,1,0,1,1,1,1A1,1,0,0,1,48,185Zm-8,0a1,1,0,1,1,1,1A1,1,0,0,1,40,185Zm-8,0a1,1,0,1,1,1,1A1,1,0,0,1,32,185Zm-8,0a1,1,0,1,1,1,1A1,1,0,0,1,24,185Zm-8,0a1,1,0,1,1,1,1A1,1,0,0,1,16,185Zm-8,0a1,1,0,1,1,1,1A1,1,0,0,1,8,185Zm-8,0a1,1,0,1,1,1,1A1,1,0,0,1,0,185Zm248-8a1,1,0,1,1,1,1A1,1,0,0,1,248,177Zm-8,0a1,1,0,1,1,1,1A1,1,0,0,1,240,177Zm-8,0a1,1,0,1,1,1,1A1,1,0,0,1,232,177Zm-8,0a1,1,0,1,1,1,1A1,1,0,0,1,224,177Zm-8,0a1,1,0,1,1,1,1A1,1,0,0,1,216,177Zm-8,0a1,1,0,1,1,1,1A1,1,0,0,1,208,177Zm-8,0a1,1,0,1,1,1,1A1,1,0,0,1,200,177Zm-8,0a1,1,0,1,1,1,1A1,1,0,0,1,192,177Zm-8,0a1,1,0,1,1,1,1A1,1,0,0,1,184,177Zm-8,0a1,1,0,1,1,1,1A1,1,0,0,1,176,177Zm-8,0a1,1,0,1,1,1,1A1,1,0,0,1,168,177Zm-8,0a1,1,0,1,1,1,1A1,1,0,0,1,160,177Zm-8,0a1,1,0,1,1,1,1A1,1,0,0,1,152,177Zm-8,0a1,1,0,1,1,1,1A1,1,0,0,1,144,177Zm-8,0a1,1,0,1,1,1,1A1,1,0,0,1,136,177Zm-8,0a1,1,0,1,1,1,1A1,1,0,0,1,128,177Zm-8,0a1,1,0,1,1,1,1A1,1,0,0,1,120,177Zm-8,0a1,1,0,1,1,1,1A1,1,0,0,1,112,177Zm-8,0a1,1,0,1,1,1,1A1,1,0,0,1,104,177Zm-8,0a1,1,0,1,1,1,1A1,1,0,0,1,96,177Zm-8,0a1,1,0,1,1,1,1A1,1,0,0,1,88,177Zm-8,0a1,1,0,1,1,1,1A1,1,0,0,1,80,177Zm-8,0a1,1,0,1,1,1,1A1,1,0,0,1,72,177Zm-8,0a1,1,0,1,1,1,1A1,1,0,0,1,64,177Zm-8,0a1,1,0,1,1,1,1A1,1,0,0,1,56,177Zm-8,0a1,1,0,1,1,1,1A1,1,0,0,1,48,177Zm-8,0a1,1,0,1,1,1,1A1,1,0,0,1,40,177Zm-8,0a1,1,0,1,1,1,1A1,1,0,0,1,32,177Zm-8,0a1,1,0,1,1,1,1A1,1,0,0,1,24,177Zm-8,0a1,1,0,1,1,1,1A1,1,0,0,1,16,177Zm-8,0a1,1,0,1,1,1,1A1,1,0,0,1,8,177Zm-8,0a1,1,0,1,1,1,1A1,1,0,0,1,0,177Zm248-8a1,1,0,1,1,1,1A1,1,0,0,1,248,169Zm-8,0a1,1,0,1,1,1,1A1,1,0,0,1,240,169Zm-8,0a1,1,0,1,1,1,1A1,1,0,0,1,232,169Zm-8,0a1,1,0,1,1,1,1A1,1,0,0,1,224,169Zm-8,0a1,1,0,1,1,1,1A1,1,0,0,1,216,169Zm-8,0a1,1,0,1,1,1,1A1,1,0,0,1,208,169Zm-8,0a1,1,0,1,1,1,1A1,1,0,0,1,200,169Zm-8,0a1,1,0,1,1,1,1A1,1,0,0,1,192,169Zm-8,0a1,1,0,1,1,1,1A1,1,0,0,1,184,169Zm-8,0a1,1,0,1,1,1,1A1,1,0,0,1,176,169Zm-8,0a1,1,0,1,1,1,1A1,1,0,0,1,168,169Zm-8,0a1,1,0,1,1,1,1A1,1,0,0,1,160,169Zm-8,0a1,1,0,1,1,1,1A1,1,0,0,1,152,169Zm-8,0a1,1,0,1,1,1,1A1,1,0,0,1,144,169Zm-8,0a1,1,0,1,1,1,1A1,1,0,0,1,136,169Zm-8,0a1,1,0,1,1,1,1A1,1,0,0,1,128,169Zm-8,0a1,1,0,1,1,1,1A1,1,0,0,1,120,169Zm-8,0a1,1,0,1,1,1,1A1,1,0,0,1,112,169Zm-8,0a1,1,0,1,1,1,1A1,1,0,0,1,104,169Zm-8,0a1,1,0,1,1,1,1A1,1,0,0,1,96,169Zm-8,0a1,1,0,1,1,1,1A1,1,0,0,1,88,169Zm-8,0a1,1,0,1,1,1,1A1,1,0,0,1,80,169Zm-8,0a1,1,0,1,1,1,1A1,1,0,0,1,72,169Zm-8,0a1,1,0,1,1,1,1A1,1,0,0,1,64,169Zm-8,0a1,1,0,1,1,1,1A1,1,0,0,1,56,169Zm-8,0a1,1,0,1,1,1,1A1,1,0,0,1,48,169Zm-8,0a1,1,0,1,1,1,1A1,1,0,0,1,40,169Zm-8,0a1,1,0,1,1,1,1A1,1,0,0,1,32,169Zm-8,0a1,1,0,1,1,1,1A1,1,0,0,1,24,169Zm-8,0a1,1,0,1,1,1,1A1,1,0,0,1,16,169Zm-8,0a1,1,0,1,1,1,1A1,1,0,0,1,8,169Zm-8,0a1,1,0,1,1,1,1A1,1,0,0,1,0,169Zm248-8a1,1,0,1,1,1,1A1,1,0,0,1,248,161Zm-8,0a1,1,0,1,1,1,1A1,1,0,0,1,240,161Zm-8,0a1,1,0,1,1,1,1A1,1,0,0,1,232,161Zm-8,0a1,1,0,1,1,1,1A1,1,0,0,1,224,161Zm-8,0a1,1,0,1,1,1,1A1,1,0,0,1,216,161Zm-8,0a1,1,0,1,1,1,1A1,1,0,0,1,208,161Zm-8,0a1,1,0,1,1,1,1A1,1,0,0,1,200,161Zm-8,0a1,1,0,1,1,1,1A1,1,0,0,1,192,161Zm-8,0a1,1,0,1,1,1,1A1,1,0,0,1,184,161Zm-8,0a1,1,0,1,1,1,1A1,1,0,0,1,176,161Zm-8,0a1,1,0,1,1,1,1A1,1,0,0,1,168,161Zm-8,0a1,1,0,1,1,1,1A1,1,0,0,1,160,161Zm-8,0a1,1,0,1,1,1,1A1,1,0,0,1,152,161Zm-8,0a1,1,0,1,1,1,1A1,1,0,0,1,144,161Zm-8,0a1,1,0,1,1,1,1A1,1,0,0,1,136,161Zm-8,0a1,1,0,1,1,1,1A1,1,0,0,1,128,161Zm-8,0a1,1,0,1,1,1,1A1,1,0,0,1,120,161Zm-8,0a1,1,0,1,1,1,1A1,1,0,0,1,112,161Zm-8,0a1,1,0,1,1,1,1A1,1,0,0,1,104,161Zm-8,0a1,1,0,1,1,1,1A1,1,0,0,1,96,161Zm-8,0a1,1,0,1,1,1,1A1,1,0,0,1,88,161Zm-8,0a1,1,0,1,1,1,1A1,1,0,0,1,80,161Zm-8,0a1,1,0,1,1,1,1A1,1,0,0,1,72,161Zm-8,0a1,1,0,1,1,1,1A1,1,0,0,1,64,161Zm-8,0a1,1,0,1,1,1,1A1,1,0,0,1,56,161Zm-8,0a1,1,0,1,1,1,1A1,1,0,0,1,48,161Zm-8,0a1,1,0,1,1,1,1A1,1,0,0,1,40,161Zm-8,0a1,1,0,1,1,1,1A1,1,0,0,1,32,161Zm-8,0a1,1,0,1,1,1,1A1,1,0,0,1,24,161Zm-8,0a1,1,0,1,1,1,1A1,1,0,0,1,16,161Zm-8,0a1,1,0,1,1,1,1A1,1,0,0,1,8,161Zm-8,0a1,1,0,1,1,1,1A1,1,0,0,1,0,161Zm248-8a1,1,0,1,1,1,1A1,1,0,0,1,248,153Zm-8,0a1,1,0,1,1,1,1A1,1,0,0,1,240,153Zm-8,0a1,1,0,1,1,1,1A1,1,0,0,1,232,153Zm-8,0a1,1,0,1,1,1,1A1,1,0,0,1,224,153Zm-8,0a1,1,0,1,1,1,1A1,1,0,0,1,216,153Zm-8,0a1,1,0,1,1,1,1A1,1,0,0,1,208,153Zm-8,0a1,1,0,1,1,1,1A1,1,0,0,1,200,153Zm-8,0a1,1,0,1,1,1,1A1,1,0,0,1,192,153Zm-8,0a1,1,0,1,1,1,1A1,1,0,0,1,184,153Zm-8,0a1,1,0,1,1,1,1A1,1,0,0,1,176,153Zm-8,0a1,1,0,1,1,1,1A1,1,0,0,1,168,153Zm-8,0a1,1,0,1,1,1,1A1,1,0,0,1,160,153Zm-8,0a1,1,0,1,1,1,1A1,1,0,0,1,152,153Zm-8,0a1,1,0,1,1,1,1A1,1,0,0,1,144,153Zm-8,0a1,1,0,1,1,1,1A1,1,0,0,1,136,153Zm-8,0a1,1,0,1,1,1,1A1,1,0,0,1,128,153Zm-8,0a1,1,0,1,1,1,1A1,1,0,0,1,120,153Zm-8,0a1,1,0,1,1,1,1A1,1,0,0,1,112,153Zm-8,0a1,1,0,1,1,1,1A1,1,0,0,1,104,153Zm-8,0a1,1,0,1,1,1,1A1,1,0,0,1,96,153Zm-8,0a1,1,0,1,1,1,1A1,1,0,0,1,88,153Zm-8,0a1,1,0,1,1,1,1A1,1,0,0,1,80,153Zm-8,0a1,1,0,1,1,1,1A1,1,0,0,1,72,153Zm-8,0a1,1,0,1,1,1,1A1,1,0,0,1,64,153Zm-8,0a1,1,0,1,1,1,1A1,1,0,0,1,56,153Zm-8,0a1,1,0,1,1,1,1A1,1,0,0,1,48,153Zm-8,0a1,1,0,1,1,1,1A1,1,0,0,1,40,153Zm-8,0a1,1,0,1,1,1,1A1,1,0,0,1,32,153Zm-8,0a1,1,0,1,1,1,1A1,1,0,0,1,24,153Zm-8,0a1,1,0,1,1,1,1A1,1,0,0,1,16,153Zm-8,0a1,1,0,1,1,1,1A1,1,0,0,1,8,153Zm-8,0a1,1,0,1,1,1,1A1,1,0,0,1,0,153Zm248-8a1,1,0,1,1,1,1A1,1,0,0,1,248,145Zm-8,0a1,1,0,1,1,1,1A1,1,0,0,1,240,145Zm-8,0a1,1,0,1,1,1,1A1,1,0,0,1,232,145Zm-8,0a1,1,0,1,1,1,1A1,1,0,0,1,224,145Zm-8,0a1,1,0,1,1,1,1A1,1,0,0,1,216,145Zm-8,0a1,1,0,1,1,1,1A1,1,0,0,1,208,145Zm-8,0a1,1,0,1,1,1,1A1,1,0,0,1,200,145Zm-8,0a1,1,0,1,1,1,1A1,1,0,0,1,192,145Zm-8,0a1,1,0,1,1,1,1A1,1,0,0,1,184,145Zm-8,0a1,1,0,1,1,1,1A1,1,0,0,1,176,145Zm-8,0a1,1,0,1,1,1,1A1,1,0,0,1,168,145Zm-8,0a1,1,0,1,1,1,1A1,1,0,0,1,160,145Zm-8,0a1,1,0,1,1,1,1A1,1,0,0,1,152,145Zm-8,0a1,1,0,1,1,1,1A1,1,0,0,1,144,145Zm-8,0a1,1,0,1,1,1,1A1,1,0,0,1,136,145Zm-8,0a1,1,0,1,1,1,1A1,1,0,0,1,128,145Zm-8,0a1,1,0,1,1,1,1A1,1,0,0,1,120,145Zm-8,0a1,1,0,1,1,1,1A1,1,0,0,1,112,145Zm-8,0a1,1,0,1,1,1,1A1,1,0,0,1,104,145Zm-8,0a1,1,0,1,1,1,1A1,1,0,0,1,96,145Zm-8,0a1,1,0,1,1,1,1A1,1,0,0,1,88,145Zm-8,0a1,1,0,1,1,1,1A1,1,0,0,1,80,145Zm-8,0a1,1,0,1,1,1,1A1,1,0,0,1,72,145Zm-8,0a1,1,0,1,1,1,1A1,1,0,0,1,64,145Zm-8,0a1,1,0,1,1,1,1A1,1,0,0,1,56,145Zm-8,0a1,1,0,1,1,1,1A1,1,0,0,1,48,145Zm-8,0a1,1,0,1,1,1,1A1,1,0,0,1,40,145Zm-8,0a1,1,0,1,1,1,1A1,1,0,0,1,32,145Zm-8,0a1,1,0,1,1,1,1A1,1,0,0,1,24,145Zm-8,0a1,1,0,1,1,1,1A1,1,0,0,1,16,145Zm-8,0a1,1,0,1,1,1,1A1,1,0,0,1,8,145Zm-8,0a1,1,0,1,1,1,1A1,1,0,0,1,0,145Zm248-8a1,1,0,1,1,1,1A1,1,0,0,1,248,137Zm-8,0a1,1,0,1,1,1,1A1,1,0,0,1,240,137Zm-8,0a1,1,0,1,1,1,1A1,1,0,0,1,232,137Zm-8,0a1,1,0,1,1,1,1A1,1,0,0,1,224,137Zm-8,0a1,1,0,1,1,1,1A1,1,0,0,1,216,137Zm-8,0a1,1,0,1,1,1,1A1,1,0,0,1,208,137Zm-8,0a1,1,0,1,1,1,1A1,1,0,0,1,200,137Zm-8,0a1,1,0,1,1,1,1A1,1,0,0,1,192,137Zm-8,0a1,1,0,1,1,1,1A1,1,0,0,1,184,137Zm-8,0a1,1,0,1,1,1,1A1,1,0,0,1,176,137Zm-8,0a1,1,0,1,1,1,1A1,1,0,0,1,168,137Zm-8,0a1,1,0,1,1,1,1A1,1,0,0,1,160,137Zm-8,0a1,1,0,1,1,1,1A1,1,0,0,1,152,137Zm-8,0a1,1,0,1,1,1,1A1,1,0,0,1,144,137Zm-8,0a1,1,0,1,1,1,1A1,1,0,0,1,136,137Zm-8,0a1,1,0,1,1,1,1A1,1,0,0,1,128,137Zm-8,0a1,1,0,1,1,1,1A1,1,0,0,1,120,137Zm-8,0a1,1,0,1,1,1,1A1,1,0,0,1,112,137Zm-8,0a1,1,0,1,1,1,1A1,1,0,0,1,104,137Zm-8,0a1,1,0,1,1,1,1A1,1,0,0,1,96,137Zm-8,0a1,1,0,1,1,1,1A1,1,0,0,1,88,137Zm-8,0a1,1,0,1,1,1,1A1,1,0,0,1,80,137Zm-8,0a1,1,0,1,1,1,1A1,1,0,0,1,72,137Zm-8,0a1,1,0,1,1,1,1A1,1,0,0,1,64,137Zm-8,0a1,1,0,1,1,1,1A1,1,0,0,1,56,137Zm-8,0a1,1,0,1,1,1,1A1,1,0,0,1,48,137Zm-8,0a1,1,0,1,1,1,1A1,1,0,0,1,40,137Zm-8,0a1,1,0,1,1,1,1A1,1,0,0,1,32,137Zm-8,0a1,1,0,1,1,1,1A1,1,0,0,1,24,137Zm-8,0a1,1,0,1,1,1,1A1,1,0,0,1,16,137Zm-8,0a1,1,0,1,1,1,1A1,1,0,0,1,8,137Zm-8,0a1,1,0,1,1,1,1A1,1,0,0,1,0,137Zm248-8a1,1,0,1,1,1,1A1,1,0,0,1,248,129Zm-8,0a1,1,0,1,1,1,1A1,1,0,0,1,240,129Zm-8,0a1,1,0,1,1,1,1A1,1,0,0,1,232,129Zm-8,0a1,1,0,1,1,1,1A1,1,0,0,1,224,129Zm-8,0a1,1,0,1,1,1,1A1,1,0,0,1,216,129Zm-8,0a1,1,0,1,1,1,1A1,1,0,0,1,208,129Zm-8,0a1,1,0,1,1,1,1A1,1,0,0,1,200,129Zm-8,0a1,1,0,1,1,1,1A1,1,0,0,1,192,129Zm-8,0a1,1,0,1,1,1,1A1,1,0,0,1,184,129Zm-8,0a1,1,0,1,1,1,1A1,1,0,0,1,176,129Zm-8,0a1,1,0,1,1,1,1A1,1,0,0,1,168,129Zm-8,0a1,1,0,1,1,1,1A1,1,0,0,1,160,129Zm-8,0a1,1,0,1,1,1,1A1,1,0,0,1,152,129Zm-8,0a1,1,0,1,1,1,1A1,1,0,0,1,144,129Zm-8,0a1,1,0,1,1,1,1A1,1,0,0,1,136,129Zm-8,0a1,1,0,1,1,1,1A1,1,0,0,1,128,129Zm-8,0a1,1,0,1,1,1,1A1,1,0,0,1,120,129Zm-8,0a1,1,0,1,1,1,1A1,1,0,0,1,112,129Zm-8,0a1,1,0,1,1,1,1A1,1,0,0,1,104,129Zm-8,0a1,1,0,1,1,1,1A1,1,0,0,1,96,129Zm-8,0a1,1,0,1,1,1,1A1,1,0,0,1,88,129Zm-8,0a1,1,0,1,1,1,1A1,1,0,0,1,80,129Zm-8,0a1,1,0,1,1,1,1A1,1,0,0,1,72,129Zm-8,0a1,1,0,1,1,1,1A1,1,0,0,1,64,129Zm-8,0a1,1,0,1,1,1,1A1,1,0,0,1,56,129Zm-8,0a1,1,0,1,1,1,1A1,1,0,0,1,48,129Zm-8,0a1,1,0,1,1,1,1A1,1,0,0,1,40,129Zm-8,0a1,1,0,1,1,1,1A1,1,0,0,1,32,129Zm-8,0a1,1,0,1,1,1,1A1,1,0,0,1,24,129Zm-8,0a1,1,0,1,1,1,1A1,1,0,0,1,16,129Zm-8,0a1,1,0,1,1,1,1A1,1,0,0,1,8,129Zm-8,0a1,1,0,1,1,1,1A1,1,0,0,1,0,129Zm248-8a1,1,0,1,1,1,1A1,1,0,0,1,248,121Zm-8,0a1,1,0,1,1,1,1A1,1,0,0,1,240,121Zm-8,0a1,1,0,1,1,1,1A1,1,0,0,1,232,121Zm-8,0a1,1,0,1,1,1,1A1,1,0,0,1,224,121Zm-8,0a1,1,0,1,1,1,1A1,1,0,0,1,216,121Zm-8,0a1,1,0,1,1,1,1A1,1,0,0,1,208,121Zm-8,0a1,1,0,1,1,1,1A1,1,0,0,1,200,121Zm-8,0a1,1,0,1,1,1,1A1,1,0,0,1,192,121Zm-8,0a1,1,0,1,1,1,1A1,1,0,0,1,184,121Zm-8,0a1,1,0,1,1,1,1A1,1,0,0,1,176,121Zm-8,0a1,1,0,1,1,1,1A1,1,0,0,1,168,121Zm-8,0a1,1,0,1,1,1,1A1,1,0,0,1,160,121Zm-8,0a1,1,0,1,1,1,1A1,1,0,0,1,152,121Zm-8,0a1,1,0,1,1,1,1A1,1,0,0,1,144,121Zm-8,0a1,1,0,1,1,1,1A1,1,0,0,1,136,121Zm-8,0a1,1,0,1,1,1,1A1,1,0,0,1,128,121Zm-8,0a1,1,0,1,1,1,1A1,1,0,0,1,120,121Zm-8,0a1,1,0,1,1,1,1A1,1,0,0,1,112,121Zm-8,0a1,1,0,1,1,1,1A1,1,0,0,1,104,121Zm-8,0a1,1,0,1,1,1,1A1,1,0,0,1,96,121Zm-8,0a1,1,0,1,1,1,1A1,1,0,0,1,88,121Zm-8,0a1,1,0,1,1,1,1A1,1,0,0,1,80,121Zm-8,0a1,1,0,1,1,1,1A1,1,0,0,1,72,121Zm-8,0a1,1,0,1,1,1,1A1,1,0,0,1,64,121Zm-8,0a1,1,0,1,1,1,1A1,1,0,0,1,56,121Zm-8,0a1,1,0,1,1,1,1A1,1,0,0,1,48,121Zm-8,0a1,1,0,1,1,1,1A1,1,0,0,1,40,121Zm-8,0a1,1,0,1,1,1,1A1,1,0,0,1,32,121Zm-8,0a1,1,0,1,1,1,1A1,1,0,0,1,24,121Zm-8,0a1,1,0,1,1,1,1A1,1,0,0,1,16,121Zm-8,0a1,1,0,1,1,1,1A1,1,0,0,1,8,121Zm-8,0a1,1,0,1,1,1,1A1,1,0,0,1,0,121Zm248-8a1,1,0,1,1,1,1A1,1,0,0,1,248,113Zm-8,0a1,1,0,1,1,1,1A1,1,0,0,1,240,113Zm-8,0a1,1,0,1,1,1,1A1,1,0,0,1,232,113Zm-8,0a1,1,0,1,1,1,1A1,1,0,0,1,224,113Zm-8,0a1,1,0,1,1,1,1A1,1,0,0,1,216,113Zm-8,0a1,1,0,1,1,1,1A1,1,0,0,1,208,113Zm-8,0a1,1,0,1,1,1,1A1,1,0,0,1,200,113Zm-8,0a1,1,0,1,1,1,1A1,1,0,0,1,192,113Zm-8,0a1,1,0,1,1,1,1A1,1,0,0,1,184,113Zm-8,0a1,1,0,1,1,1,1A1,1,0,0,1,176,113Zm-8,0a1,1,0,1,1,1,1A1,1,0,0,1,168,113Zm-8,0a1,1,0,1,1,1,1A1,1,0,0,1,160,113Zm-8,0a1,1,0,1,1,1,1A1,1,0,0,1,152,113Zm-8,0a1,1,0,1,1,1,1A1,1,0,0,1,144,113Zm-8,0a1,1,0,1,1,1,1A1,1,0,0,1,136,113Zm-8,0a1,1,0,1,1,1,1A1,1,0,0,1,128,113Zm-8,0a1,1,0,1,1,1,1A1,1,0,0,1,120,113Zm-8,0a1,1,0,1,1,1,1A1,1,0,0,1,112,113Zm-8,0a1,1,0,1,1,1,1A1,1,0,0,1,104,113Zm-8,0a1,1,0,1,1,1,1A1,1,0,0,1,96,113Zm-8,0a1,1,0,1,1,1,1A1,1,0,0,1,88,113Zm-8,0a1,1,0,1,1,1,1A1,1,0,0,1,80,113Zm-8,0a1,1,0,1,1,1,1A1,1,0,0,1,72,113Zm-8,0a1,1,0,1,1,1,1A1,1,0,0,1,64,113Zm-8,0a1,1,0,1,1,1,1A1,1,0,0,1,56,113Zm-8,0a1,1,0,1,1,1,1A1,1,0,0,1,48,113Zm-8,0a1,1,0,1,1,1,1A1,1,0,0,1,40,113Zm-8,0a1,1,0,1,1,1,1A1,1,0,0,1,32,113Zm-8,0a1,1,0,1,1,1,1A1,1,0,0,1,24,113Zm-8,0a1,1,0,1,1,1,1A1,1,0,0,1,16,113Zm-8,0a1,1,0,1,1,1,1A1,1,0,0,1,8,113Zm-8,0a1,1,0,1,1,1,1A1,1,0,0,1,0,113Zm248-8a1,1,0,1,1,1,1A1,1,0,0,1,248,105Zm-8,0a1,1,0,1,1,1,1A1,1,0,0,1,240,105Zm-8,0a1,1,0,1,1,1,1A1,1,0,0,1,232,105Zm-8,0a1,1,0,1,1,1,1A1,1,0,0,1,224,105Zm-8,0a1,1,0,1,1,1,1A1,1,0,0,1,216,105Zm-8,0a1,1,0,1,1,1,1A1,1,0,0,1,208,105Zm-8,0a1,1,0,1,1,1,1A1,1,0,0,1,200,105Zm-8,0a1,1,0,1,1,1,1A1,1,0,0,1,192,105Zm-8,0a1,1,0,1,1,1,1A1,1,0,0,1,184,105Zm-8,0a1,1,0,1,1,1,1A1,1,0,0,1,176,105Zm-8,0a1,1,0,1,1,1,1A1,1,0,0,1,168,105Zm-8,0a1,1,0,1,1,1,1A1,1,0,0,1,160,105Zm-8,0a1,1,0,1,1,1,1A1,1,0,0,1,152,105Zm-8,0a1,1,0,1,1,1,1A1,1,0,0,1,144,105Zm-8,0a1,1,0,1,1,1,1A1,1,0,0,1,136,105Zm-8,0a1,1,0,1,1,1,1A1,1,0,0,1,128,105Zm-8,0a1,1,0,1,1,1,1A1,1,0,0,1,120,105Zm-8,0a1,1,0,1,1,1,1A1,1,0,0,1,112,105Zm-8,0a1,1,0,1,1,1,1A1,1,0,0,1,104,105Zm-8,0a1,1,0,1,1,1,1A1,1,0,0,1,96,105Zm-8,0a1,1,0,1,1,1,1A1,1,0,0,1,88,105Zm-8,0a1,1,0,1,1,1,1A1,1,0,0,1,80,105Zm-8,0a1,1,0,1,1,1,1A1,1,0,0,1,72,105Zm-8,0a1,1,0,1,1,1,1A1,1,0,0,1,64,105Zm-8,0a1,1,0,1,1,1,1A1,1,0,0,1,56,105Zm-8,0a1,1,0,1,1,1,1A1,1,0,0,1,48,105Zm-8,0a1,1,0,1,1,1,1A1,1,0,0,1,40,105Zm-8,0a1,1,0,1,1,1,1A1,1,0,0,1,32,105Zm-8,0a1,1,0,1,1,1,1A1,1,0,0,1,24,105Zm-8,0a1,1,0,1,1,1,1A1,1,0,0,1,16,105Zm-8,0a1,1,0,1,1,1,1A1,1,0,0,1,8,105Zm-8,0a1,1,0,1,1,1,1A1,1,0,0,1,0,105Zm248-8a1,1,0,1,1,1,1A1,1,0,0,1,248,97Zm-8,0a1,1,0,1,1,1,1A1,1,0,0,1,240,97Zm-8,0a1,1,0,1,1,1,1A1,1,0,0,1,232,97Zm-8,0a1,1,0,1,1,1,1A1,1,0,0,1,224,97Zm-8,0a1,1,0,1,1,1,1A1,1,0,0,1,216,97Zm-8,0a1,1,0,1,1,1,1A1,1,0,0,1,208,97Zm-8,0a1,1,0,1,1,1,1A1,1,0,0,1,200,97Zm-8,0a1,1,0,1,1,1,1A1,1,0,0,1,192,97Zm-8,0a1,1,0,1,1,1,1A1,1,0,0,1,184,97Zm-8,0a1,1,0,1,1,1,1A1,1,0,0,1,176,97Zm-8,0a1,1,0,1,1,1,1A1,1,0,0,1,168,97Zm-8,0a1,1,0,1,1,1,1A1,1,0,0,1,160,97Zm-8,0a1,1,0,1,1,1,1A1,1,0,0,1,152,97Zm-8,0a1,1,0,1,1,1,1A1,1,0,0,1,144,97Zm-8,0a1,1,0,1,1,1,1A1,1,0,0,1,136,97Zm-8,0a1,1,0,1,1,1,1A1,1,0,0,1,128,97Zm-8,0a1,1,0,1,1,1,1A1,1,0,0,1,120,97Zm-8,0a1,1,0,1,1,1,1A1,1,0,0,1,112,97Zm-8,0a1,1,0,1,1,1,1A1,1,0,0,1,104,97Zm-8,0a1,1,0,1,1,1,1A1,1,0,0,1,96,97Zm-8,0a1,1,0,1,1,1,1A1,1,0,0,1,88,97Zm-8,0a1,1,0,1,1,1,1A1,1,0,0,1,80,97Zm-8,0a1,1,0,1,1,1,1A1,1,0,0,1,72,97Zm-8,0a1,1,0,1,1,1,1A1,1,0,0,1,64,97Zm-8,0a1,1,0,1,1,1,1A1,1,0,0,1,56,97Zm-8,0a1,1,0,1,1,1,1A1,1,0,0,1,48,97Zm-8,0a1,1,0,1,1,1,1A1,1,0,0,1,40,97Zm-8,0a1,1,0,1,1,1,1A1,1,0,0,1,32,97Zm-8,0a1,1,0,1,1,1,1A1,1,0,0,1,24,97Zm-8,0a1,1,0,1,1,1,1A1,1,0,0,1,16,97ZM8,97a1,1,0,1,1,1,1A1,1,0,0,1,8,97ZM0,97a1,1,0,1,1,1,1A1,1,0,0,1,0,97Zm248-8a1,1,0,1,1,1,1A1,1,0,0,1,248,89Zm-8,0a1,1,0,1,1,1,1A1,1,0,0,1,240,89Zm-8,0a1,1,0,1,1,1,1A1,1,0,0,1,232,89Zm-8,0a1,1,0,1,1,1,1A1,1,0,0,1,224,89Zm-8,0a1,1,0,1,1,1,1A1,1,0,0,1,216,89Zm-8,0a1,1,0,1,1,1,1A1,1,0,0,1,208,89Zm-8,0a1,1,0,1,1,1,1A1,1,0,0,1,200,89Zm-8,0a1,1,0,1,1,1,1A1,1,0,0,1,192,89Zm-8,0a1,1,0,1,1,1,1A1,1,0,0,1,184,89Zm-8,0a1,1,0,1,1,1,1A1,1,0,0,1,176,89Zm-8,0a1,1,0,1,1,1,1A1,1,0,0,1,168,89Zm-8,0a1,1,0,1,1,1,1A1,1,0,0,1,160,89Zm-8,0a1,1,0,1,1,1,1A1,1,0,0,1,152,89Zm-8,0a1,1,0,1,1,1,1A1,1,0,0,1,144,89Zm-8,0a1,1,0,1,1,1,1A1,1,0,0,1,136,89Zm-8,0a1,1,0,1,1,1,1A1,1,0,0,1,128,89Zm-8,0a1,1,0,1,1,1,1A1,1,0,0,1,120,89Zm-8,0a1,1,0,1,1,1,1A1,1,0,0,1,112,89Zm-8,0a1,1,0,1,1,1,1A1,1,0,0,1,104,89Zm-8,0a1,1,0,1,1,1,1A1,1,0,0,1,96,89Zm-8,0a1,1,0,1,1,1,1A1,1,0,0,1,88,89Zm-8,0a1,1,0,1,1,1,1A1,1,0,0,1,80,89Zm-8,0a1,1,0,1,1,1,1A1,1,0,0,1,72,89Zm-8,0a1,1,0,1,1,1,1A1,1,0,0,1,64,89Zm-8,0a1,1,0,1,1,1,1A1,1,0,0,1,56,89Zm-8,0a1,1,0,1,1,1,1A1,1,0,0,1,48,89Zm-8,0a1,1,0,1,1,1,1A1,1,0,0,1,40,89Zm-8,0a1,1,0,1,1,1,1A1,1,0,0,1,32,89Zm-8,0a1,1,0,1,1,1,1A1,1,0,0,1,24,89Zm-8,0a1,1,0,1,1,1,1A1,1,0,0,1,16,89ZM8,89a1,1,0,1,1,1,1A1,1,0,0,1,8,89ZM0,89a1,1,0,1,1,1,1A1,1,0,0,1,0,89Zm248-8a1,1,0,1,1,1,1A1,1,0,0,1,248,81Zm-8,0a1,1,0,1,1,1,1A1,1,0,0,1,240,81Zm-8,0a1,1,0,1,1,1,1A1,1,0,0,1,232,81Zm-8,0a1,1,0,1,1,1,1A1,1,0,0,1,224,81Zm-8,0a1,1,0,1,1,1,1A1,1,0,0,1,216,81Zm-8,0a1,1,0,1,1,1,1A1,1,0,0,1,208,81Zm-8,0a1,1,0,1,1,1,1A1,1,0,0,1,200,81Zm-8,0a1,1,0,1,1,1,1A1,1,0,0,1,192,81Zm-8,0a1,1,0,1,1,1,1A1,1,0,0,1,184,81Zm-8,0a1,1,0,1,1,1,1A1,1,0,0,1,176,81Zm-8,0a1,1,0,1,1,1,1A1,1,0,0,1,168,81Zm-8,0a1,1,0,1,1,1,1A1,1,0,0,1,160,81Zm-8,0a1,1,0,1,1,1,1A1,1,0,0,1,152,81Zm-8,0a1,1,0,1,1,1,1A1,1,0,0,1,144,81Zm-8,0a1,1,0,1,1,1,1A1,1,0,0,1,136,81Zm-8,0a1,1,0,1,1,1,1A1,1,0,0,1,128,81Zm-8,0a1,1,0,1,1,1,1A1,1,0,0,1,120,81Zm-8,0a1,1,0,1,1,1,1A1,1,0,0,1,112,81Zm-8,0a1,1,0,1,1,1,1A1,1,0,0,1,104,81Zm-8,0a1,1,0,1,1,1,1A1,1,0,0,1,96,81Zm-8,0a1,1,0,1,1,1,1A1,1,0,0,1,88,81Zm-8,0a1,1,0,1,1,1,1A1,1,0,0,1,80,81Zm-8,0a1,1,0,1,1,1,1A1,1,0,0,1,72,81Zm-8,0a1,1,0,1,1,1,1A1,1,0,0,1,64,81Zm-8,0a1,1,0,1,1,1,1A1,1,0,0,1,56,81Zm-8,0a1,1,0,1,1,1,1A1,1,0,0,1,48,81Zm-8,0a1,1,0,1,1,1,1A1,1,0,0,1,40,81Zm-8,0a1,1,0,1,1,1,1A1,1,0,0,1,32,81Zm-8,0a1,1,0,1,1,1,1A1,1,0,0,1,24,81Zm-8,0a1,1,0,1,1,1,1A1,1,0,0,1,16,81ZM8,81a1,1,0,1,1,1,1A1,1,0,0,1,8,81ZM0,81a1,1,0,1,1,1,1A1,1,0,0,1,0,81Zm248-8a1,1,0,1,1,1,1A1,1,0,0,1,248,73Zm-8,0a1,1,0,1,1,1,1A1,1,0,0,1,240,73Zm-8,0a1,1,0,1,1,1,1A1,1,0,0,1,232,73Zm-8,0a1,1,0,1,1,1,1A1,1,0,0,1,224,73Zm-8,0a1,1,0,1,1,1,1A1,1,0,0,1,216,73Zm-8,0a1,1,0,1,1,1,1A1,1,0,0,1,208,73Zm-8,0a1,1,0,1,1,1,1A1,1,0,0,1,200,73Zm-8,0a1,1,0,1,1,1,1A1,1,0,0,1,192,73Zm-8,0a1,1,0,1,1,1,1A1,1,0,0,1,184,73Zm-8,0a1,1,0,1,1,1,1A1,1,0,0,1,176,73Zm-8,0a1,1,0,1,1,1,1A1,1,0,0,1,168,73Zm-8,0a1,1,0,1,1,1,1A1,1,0,0,1,160,73Zm-8,0a1,1,0,1,1,1,1A1,1,0,0,1,152,73Zm-8,0a1,1,0,1,1,1,1A1,1,0,0,1,144,73Zm-8,0a1,1,0,1,1,1,1A1,1,0,0,1,136,73Zm-8,0a1,1,0,1,1,1,1A1,1,0,0,1,128,73Zm-8,0a1,1,0,1,1,1,1A1,1,0,0,1,120,73Zm-8,0a1,1,0,1,1,1,1A1,1,0,0,1,112,73Zm-8,0a1,1,0,1,1,1,1A1,1,0,0,1,104,73Zm-8,0a1,1,0,1,1,1,1A1,1,0,0,1,96,73Zm-8,0a1,1,0,1,1,1,1A1,1,0,0,1,88,73Zm-8,0a1,1,0,1,1,1,1A1,1,0,0,1,80,73Zm-8,0a1,1,0,1,1,1,1A1,1,0,0,1,72,73Zm-8,0a1,1,0,1,1,1,1A1,1,0,0,1,64,73Zm-8,0a1,1,0,1,1,1,1A1,1,0,0,1,56,73Zm-8,0a1,1,0,1,1,1,1A1,1,0,0,1,48,73Zm-8,0a1,1,0,1,1,1,1A1,1,0,0,1,40,73Zm-8,0a1,1,0,1,1,1,1A1,1,0,0,1,32,73Zm-8,0a1,1,0,1,1,1,1A1,1,0,0,1,24,73Zm-8,0a1,1,0,1,1,1,1A1,1,0,0,1,16,73ZM8,73a1,1,0,1,1,1,1A1,1,0,0,1,8,73ZM0,73a1,1,0,1,1,1,1A1,1,0,0,1,0,73Zm248-8a1,1,0,1,1,1,1A1,1,0,0,1,248,65Zm-8,0a1,1,0,1,1,1,1A1,1,0,0,1,240,65Zm-8,0a1,1,0,1,1,1,1A1,1,0,0,1,232,65Zm-8,0a1,1,0,1,1,1,1A1,1,0,0,1,224,65Zm-8,0a1,1,0,1,1,1,1A1,1,0,0,1,216,65Zm-8,0a1,1,0,1,1,1,1A1,1,0,0,1,208,65Zm-8,0a1,1,0,1,1,1,1A1,1,0,0,1,200,65Zm-8,0a1,1,0,1,1,1,1A1,1,0,0,1,192,65Zm-8,0a1,1,0,1,1,1,1A1,1,0,0,1,184,65Zm-8,0a1,1,0,1,1,1,1A1,1,0,0,1,176,65Zm-8,0a1,1,0,1,1,1,1A1,1,0,0,1,168,65Zm-8,0a1,1,0,1,1,1,1A1,1,0,0,1,160,65Zm-8,0a1,1,0,1,1,1,1A1,1,0,0,1,152,65Zm-8,0a1,1,0,1,1,1,1A1,1,0,0,1,144,65Zm-8,0a1,1,0,1,1,1,1A1,1,0,0,1,136,65Zm-8,0a1,1,0,1,1,1,1A1,1,0,0,1,128,65Zm-8,0a1,1,0,1,1,1,1A1,1,0,0,1,120,65Zm-8,0a1,1,0,1,1,1,1A1,1,0,0,1,112,65Zm-8,0a1,1,0,1,1,1,1A1,1,0,0,1,104,65Zm-8,0a1,1,0,1,1,1,1A1,1,0,0,1,96,65Zm-8,0a1,1,0,1,1,1,1A1,1,0,0,1,88,65Zm-8,0a1,1,0,1,1,1,1A1,1,0,0,1,80,65Zm-8,0a1,1,0,1,1,1,1A1,1,0,0,1,72,65Zm-8,0a1,1,0,1,1,1,1A1,1,0,0,1,64,65Zm-8,0a1,1,0,1,1,1,1A1,1,0,0,1,56,65Zm-8,0a1,1,0,1,1,1,1A1,1,0,0,1,48,65Zm-8,0a1,1,0,1,1,1,1A1,1,0,0,1,40,65Zm-8,0a1,1,0,1,1,1,1A1,1,0,0,1,32,65Zm-8,0a1,1,0,1,1,1,1A1,1,0,0,1,24,65Zm-8,0a1,1,0,1,1,1,1A1,1,0,0,1,16,65ZM8,65a1,1,0,1,1,1,1A1,1,0,0,1,8,65ZM0,65a1,1,0,1,1,1,1A1,1,0,0,1,0,65Zm248-8a1,1,0,1,1,1,1A1,1,0,0,1,248,57Zm-8,0a1,1,0,1,1,1,1A1,1,0,0,1,240,57Zm-8,0a1,1,0,1,1,1,1A1,1,0,0,1,232,57Zm-8,0a1,1,0,1,1,1,1A1,1,0,0,1,224,57Zm-8,0a1,1,0,1,1,1,1A1,1,0,0,1,216,57Zm-8,0a1,1,0,1,1,1,1A1,1,0,0,1,208,57Zm-8,0a1,1,0,1,1,1,1A1,1,0,0,1,200,57Zm-8,0a1,1,0,1,1,1,1A1,1,0,0,1,192,57Zm-8,0a1,1,0,1,1,1,1A1,1,0,0,1,184,57Zm-8,0a1,1,0,1,1,1,1A1,1,0,0,1,176,57Zm-8,0a1,1,0,1,1,1,1A1,1,0,0,1,168,57Zm-8,0a1,1,0,1,1,1,1A1,1,0,0,1,160,57Zm-8,0a1,1,0,1,1,1,1A1,1,0,0,1,152,57Zm-8,0a1,1,0,1,1,1,1A1,1,0,0,1,144,57Zm-8,0a1,1,0,1,1,1,1A1,1,0,0,1,136,57Zm-8,0a1,1,0,1,1,1,1A1,1,0,0,1,128,57Zm-8,0a1,1,0,1,1,1,1A1,1,0,0,1,120,57Zm-8,0a1,1,0,1,1,1,1A1,1,0,0,1,112,57Zm-8,0a1,1,0,1,1,1,1A1,1,0,0,1,104,57Zm-8,0a1,1,0,1,1,1,1A1,1,0,0,1,96,57Zm-8,0a1,1,0,1,1,1,1A1,1,0,0,1,88,57Zm-8,0a1,1,0,1,1,1,1A1,1,0,0,1,80,57Zm-8,0a1,1,0,1,1,1,1A1,1,0,0,1,72,57Zm-8,0a1,1,0,1,1,1,1A1,1,0,0,1,64,57Zm-8,0a1,1,0,1,1,1,1A1,1,0,0,1,56,57Zm-8,0a1,1,0,1,1,1,1A1,1,0,0,1,48,57Zm-8,0a1,1,0,1,1,1,1A1,1,0,0,1,40,57Zm-8,0a1,1,0,1,1,1,1A1,1,0,0,1,32,57Zm-8,0a1,1,0,1,1,1,1A1,1,0,0,1,24,57Zm-8,0a1,1,0,1,1,1,1A1,1,0,0,1,16,57ZM8,57a1,1,0,1,1,1,1A1,1,0,0,1,8,57ZM0,57a1,1,0,1,1,1,1A1,1,0,0,1,0,57Zm248-8a1,1,0,1,1,1,1A1,1,0,0,1,248,49Zm-8,0a1,1,0,1,1,1,1A1,1,0,0,1,240,49Zm-8,0a1,1,0,1,1,1,1A1,1,0,0,1,232,49Zm-8,0a1,1,0,1,1,1,1A1,1,0,0,1,224,49Zm-8,0a1,1,0,1,1,1,1A1,1,0,0,1,216,49Zm-8,0a1,1,0,1,1,1,1A1,1,0,0,1,208,49Zm-8,0a1,1,0,1,1,1,1A1,1,0,0,1,200,49Zm-8,0a1,1,0,1,1,1,1A1,1,0,0,1,192,49Zm-8,0a1,1,0,1,1,1,1A1,1,0,0,1,184,49Zm-8,0a1,1,0,1,1,1,1A1,1,0,0,1,176,49Zm-8,0a1,1,0,1,1,1,1A1,1,0,0,1,168,49Zm-8,0a1,1,0,1,1,1,1A1,1,0,0,1,160,49Zm-8,0a1,1,0,1,1,1,1A1,1,0,0,1,152,49Zm-8,0a1,1,0,1,1,1,1A1,1,0,0,1,144,49Zm-8,0a1,1,0,1,1,1,1A1,1,0,0,1,136,49Zm-8,0a1,1,0,1,1,1,1A1,1,0,0,1,128,49Zm-8,0a1,1,0,1,1,1,1A1,1,0,0,1,120,49Zm-8,0a1,1,0,1,1,1,1A1,1,0,0,1,112,49Zm-8,0a1,1,0,1,1,1,1A1,1,0,0,1,104,49Zm-8,0a1,1,0,1,1,1,1A1,1,0,0,1,96,49Zm-8,0a1,1,0,1,1,1,1A1,1,0,0,1,88,49Zm-8,0a1,1,0,1,1,1,1A1,1,0,0,1,80,49Zm-8,0a1,1,0,1,1,1,1A1,1,0,0,1,72,49Zm-8,0a1,1,0,1,1,1,1A1,1,0,0,1,64,49Zm-8,0a1,1,0,1,1,1,1A1,1,0,0,1,56,49Zm-8,0a1,1,0,1,1,1,1A1,1,0,0,1,48,49Zm-8,0a1,1,0,1,1,1,1A1,1,0,0,1,40,49Zm-8,0a1,1,0,1,1,1,1A1,1,0,0,1,32,49Zm-8,0a1,1,0,1,1,1,1A1,1,0,0,1,24,49Zm-8,0a1,1,0,1,1,1,1A1,1,0,0,1,16,49ZM8,49a1,1,0,1,1,1,1A1,1,0,0,1,8,49ZM0,49a1,1,0,1,1,1,1A1,1,0,0,1,0,49Zm248-8a1,1,0,1,1,1,1A1,1,0,0,1,248,41Zm-8,0a1,1,0,1,1,1,1A1,1,0,0,1,240,41Zm-8,0a1,1,0,1,1,1,1A1,1,0,0,1,232,41Zm-8,0a1,1,0,1,1,1,1A1,1,0,0,1,224,41Zm-8,0a1,1,0,1,1,1,1A1,1,0,0,1,216,41Zm-8,0a1,1,0,1,1,1,1A1,1,0,0,1,208,41Zm-8,0a1,1,0,1,1,1,1A1,1,0,0,1,200,41Zm-8,0a1,1,0,1,1,1,1A1,1,0,0,1,192,41Zm-8,0a1,1,0,1,1,1,1A1,1,0,0,1,184,41Zm-8,0a1,1,0,1,1,1,1A1,1,0,0,1,176,41Zm-8,0a1,1,0,1,1,1,1A1,1,0,0,1,168,41Zm-8,0a1,1,0,1,1,1,1A1,1,0,0,1,160,41Zm-8,0a1,1,0,1,1,1,1A1,1,0,0,1,152,41Zm-8,0a1,1,0,1,1,1,1A1,1,0,0,1,144,41Zm-8,0a1,1,0,1,1,1,1A1,1,0,0,1,136,41Zm-8,0a1,1,0,1,1,1,1A1,1,0,0,1,128,41Zm-8,0a1,1,0,1,1,1,1A1,1,0,0,1,120,41Zm-8,0a1,1,0,1,1,1,1A1,1,0,0,1,112,41Zm-8,0a1,1,0,1,1,1,1A1,1,0,0,1,104,41Zm-8,0a1,1,0,1,1,1,1A1,1,0,0,1,96,41Zm-8,0a1,1,0,1,1,1,1A1,1,0,0,1,88,41Zm-8,0a1,1,0,1,1,1,1A1,1,0,0,1,80,41Zm-8,0a1,1,0,1,1,1,1A1,1,0,0,1,72,41Zm-8,0a1,1,0,1,1,1,1A1,1,0,0,1,64,41Zm-8,0a1,1,0,1,1,1,1A1,1,0,0,1,56,41Zm-8,0a1,1,0,1,1,1,1A1,1,0,0,1,48,41Zm-8,0a1,1,0,1,1,1,1A1,1,0,0,1,40,41Zm-8,0a1,1,0,1,1,1,1A1,1,0,0,1,32,41Zm-8,0a1,1,0,1,1,1,1A1,1,0,0,1,24,41Zm-8,0a1,1,0,1,1,1,1A1,1,0,0,1,16,41ZM8,41a1,1,0,1,1,1,1A1,1,0,0,1,8,41ZM0,41a1,1,0,1,1,1,1A1,1,0,0,1,0,41Zm248-8a1,1,0,1,1,1,1A1,1,0,0,1,248,33Zm-8,0a1,1,0,1,1,1,1A1,1,0,0,1,240,33Zm-8,0a1,1,0,1,1,1,1A1,1,0,0,1,232,33Zm-8,0a1,1,0,1,1,1,1A1,1,0,0,1,224,33Zm-8,0a1,1,0,1,1,1,1A1,1,0,0,1,216,33Zm-8,0a1,1,0,1,1,1,1A1,1,0,0,1,208,33Zm-8,0a1,1,0,1,1,1,1A1,1,0,0,1,200,33Zm-8,0a1,1,0,1,1,1,1A1,1,0,0,1,192,33Zm-8,0a1,1,0,1,1,1,1A1,1,0,0,1,184,33Zm-8,0a1,1,0,1,1,1,1A1,1,0,0,1,176,33Zm-8,0a1,1,0,1,1,1,1A1,1,0,0,1,168,33Zm-8,0a1,1,0,1,1,1,1A1,1,0,0,1,160,33Zm-8,0a1,1,0,1,1,1,1A1,1,0,0,1,152,33Zm-8,0a1,1,0,1,1,1,1A1,1,0,0,1,144,33Zm-8,0a1,1,0,1,1,1,1A1,1,0,0,1,136,33Zm-8,0a1,1,0,1,1,1,1A1,1,0,0,1,128,33Zm-8,0a1,1,0,1,1,1,1A1,1,0,0,1,120,33Zm-8,0a1,1,0,1,1,1,1A1,1,0,0,1,112,33Zm-8,0a1,1,0,1,1,1,1A1,1,0,0,1,104,33Zm-8,0a1,1,0,1,1,1,1A1,1,0,0,1,96,33Zm-8,0a1,1,0,1,1,1,1A1,1,0,0,1,88,33Zm-8,0a1,1,0,1,1,1,1A1,1,0,0,1,80,33Zm-8,0a1,1,0,1,1,1,1A1,1,0,0,1,72,33Zm-8,0a1,1,0,1,1,1,1A1,1,0,0,1,64,33Zm-8,0a1,1,0,1,1,1,1A1,1,0,0,1,56,33Zm-8,0a1,1,0,1,1,1,1A1,1,0,0,1,48,33Zm-8,0a1,1,0,1,1,1,1A1,1,0,0,1,40,33Zm-8,0a1,1,0,1,1,1,1A1,1,0,0,1,32,33Zm-8,0a1,1,0,1,1,1,1A1,1,0,0,1,24,33Zm-8,0a1,1,0,1,1,1,1A1,1,0,0,1,16,33ZM8,33a1,1,0,1,1,1,1A1,1,0,0,1,8,33ZM0,33a1,1,0,1,1,1,1A1,1,0,0,1,0,33Zm248-8a1,1,0,1,1,1,1A1,1,0,0,1,248,25Zm-8,0a1,1,0,1,1,1,1A1,1,0,0,1,240,25Zm-8,0a1,1,0,1,1,1,1A1,1,0,0,1,232,25Zm-8,0a1,1,0,1,1,1,1A1,1,0,0,1,224,25Zm-8,0a1,1,0,1,1,1,1A1,1,0,0,1,216,25Zm-8,0a1,1,0,1,1,1,1A1,1,0,0,1,208,25Zm-8,0a1,1,0,1,1,1,1A1,1,0,0,1,200,25Zm-8,0a1,1,0,1,1,1,1A1,1,0,0,1,192,25Zm-8,0a1,1,0,1,1,1,1A1,1,0,0,1,184,25Zm-8,0a1,1,0,1,1,1,1A1,1,0,0,1,176,25Zm-8,0a1,1,0,1,1,1,1A1,1,0,0,1,168,25Zm-8,0a1,1,0,1,1,1,1A1,1,0,0,1,160,25Zm-8,0a1,1,0,1,1,1,1A1,1,0,0,1,152,25Zm-8,0a1,1,0,1,1,1,1A1,1,0,0,1,144,25Zm-8,0a1,1,0,1,1,1,1A1,1,0,0,1,136,25Zm-8,0a1,1,0,1,1,1,1A1,1,0,0,1,128,25Zm-8,0a1,1,0,1,1,1,1A1,1,0,0,1,120,25Zm-8,0a1,1,0,1,1,1,1A1,1,0,0,1,112,25Zm-8,0a1,1,0,1,1,1,1A1,1,0,0,1,104,25Zm-8,0a1,1,0,1,1,1,1A1,1,0,0,1,96,25Zm-8,0a1,1,0,1,1,1,1A1,1,0,0,1,88,25Zm-8,0a1,1,0,1,1,1,1A1,1,0,0,1,80,25Zm-8,0a1,1,0,1,1,1,1A1,1,0,0,1,72,25Zm-8,0a1,1,0,1,1,1,1A1,1,0,0,1,64,25Zm-8,0a1,1,0,1,1,1,1A1,1,0,0,1,56,25Zm-8,0a1,1,0,1,1,1,1A1,1,0,0,1,48,25Zm-8,0a1,1,0,1,1,1,1A1,1,0,0,1,40,25Zm-8,0a1,1,0,1,1,1,1A1,1,0,0,1,32,25Zm-8,0a1,1,0,1,1,1,1A1,1,0,0,1,24,25Zm-8,0a1,1,0,1,1,1,1A1,1,0,0,1,16,25ZM8,25a1,1,0,1,1,1,1A1,1,0,0,1,8,25ZM0,25a1,1,0,1,1,1,1A1,1,0,0,1,0,25Zm248-8a1,1,0,1,1,1,1A1,1,0,0,1,248,17Zm-8,0a1,1,0,1,1,1,1A1,1,0,0,1,240,17Zm-8,0a1,1,0,1,1,1,1A1,1,0,0,1,232,17Zm-8,0a1,1,0,1,1,1,1A1,1,0,0,1,224,17Zm-8,0a1,1,0,1,1,1,1A1,1,0,0,1,216,17Zm-8,0a1,1,0,1,1,1,1A1,1,0,0,1,208,17Zm-8,0a1,1,0,1,1,1,1A1,1,0,0,1,200,17Zm-8,0a1,1,0,1,1,1,1A1,1,0,0,1,192,17Zm-8,0a1,1,0,1,1,1,1A1,1,0,0,1,184,17Zm-8,0a1,1,0,1,1,1,1A1,1,0,0,1,176,17Zm-8,0a1,1,0,1,1,1,1A1,1,0,0,1,168,17Zm-8,0a1,1,0,1,1,1,1A1,1,0,0,1,160,17Zm-8,0a1,1,0,1,1,1,1A1,1,0,0,1,152,17Zm-8,0a1,1,0,1,1,1,1A1,1,0,0,1,144,17Zm-8,0a1,1,0,1,1,1,1A1,1,0,0,1,136,17Zm-8,0a1,1,0,1,1,1,1A1,1,0,0,1,128,17Zm-8,0a1,1,0,1,1,1,1A1,1,0,0,1,120,17Zm-8,0a1,1,0,1,1,1,1A1,1,0,0,1,112,17Zm-8,0a1,1,0,1,1,1,1A1,1,0,0,1,104,17Zm-8,0a1,1,0,1,1,1,1A1,1,0,0,1,96,17Zm-8,0a1,1,0,1,1,1,1A1,1,0,0,1,88,17Zm-8,0a1,1,0,1,1,1,1A1,1,0,0,1,80,17Zm-8,0a1,1,0,1,1,1,1A1,1,0,0,1,72,17Zm-8,0a1,1,0,1,1,1,1A1,1,0,0,1,64,17Zm-8,0a1,1,0,1,1,1,1A1,1,0,0,1,56,17Zm-8,0a1,1,0,1,1,1,1A1,1,0,0,1,48,17Zm-8,0a1,1,0,1,1,1,1A1,1,0,0,1,40,17Zm-8,0a1,1,0,1,1,1,1A1,1,0,0,1,32,17Zm-8,0a1,1,0,1,1,1,1A1,1,0,0,1,24,17Zm-8,0a1,1,0,1,1,1,1A1,1,0,0,1,16,17ZM8,17a1,1,0,1,1,1,1A1,1,0,0,1,8,17ZM0,17a1,1,0,1,1,1,1A1,1,0,0,1,0,17ZM248,9a1,1,0,1,1,1,1A1,1,0,0,1,248,9Zm-8,0a1,1,0,1,1,1,1A1,1,0,0,1,240,9Zm-8,0a1,1,0,1,1,1,1A1,1,0,0,1,232,9Zm-8,0a1,1,0,1,1,1,1A1,1,0,0,1,224,9Zm-8,0a1,1,0,1,1,1,1A1,1,0,0,1,216,9Zm-8,0a1,1,0,1,1,1,1A1,1,0,0,1,208,9Zm-8,0a1,1,0,1,1,1,1A1,1,0,0,1,200,9Zm-8,0a1,1,0,1,1,1,1A1,1,0,0,1,192,9Zm-8,0a1,1,0,1,1,1,1A1,1,0,0,1,184,9Zm-8,0a1,1,0,1,1,1,1A1,1,0,0,1,176,9Zm-8,0a1,1,0,1,1,1,1A1,1,0,0,1,168,9Zm-8,0a1,1,0,1,1,1,1A1,1,0,0,1,160,9Zm-8,0a1,1,0,1,1,1,1A1,1,0,0,1,152,9Zm-8,0a1,1,0,1,1,1,1A1,1,0,0,1,144,9Zm-8,0a1,1,0,1,1,1,1A1,1,0,0,1,136,9Zm-8,0a1,1,0,1,1,1,1A1,1,0,0,1,128,9Zm-8,0a1,1,0,1,1,1,1A1,1,0,0,1,120,9Zm-8,0a1,1,0,1,1,1,1A1,1,0,0,1,112,9Zm-8,0a1,1,0,1,1,1,1A1,1,0,0,1,104,9ZM96,9a1,1,0,1,1,1,1A1,1,0,0,1,96,9ZM88,9a1,1,0,1,1,1,1A1,1,0,0,1,88,9ZM80,9a1,1,0,1,1,1,1A1,1,0,0,1,80,9ZM72,9a1,1,0,1,1,1,1A1,1,0,0,1,72,9ZM64,9a1,1,0,1,1,1,1A1,1,0,0,1,64,9ZM56,9a1,1,0,1,1,1,1A1,1,0,0,1,56,9ZM48,9a1,1,0,1,1,1,1A1,1,0,0,1,48,9ZM40,9a1,1,0,1,1,1,1A1,1,0,0,1,40,9ZM32,9a1,1,0,1,1,1,1A1,1,0,0,1,32,9ZM24,9a1,1,0,1,1,1,1A1,1,0,0,1,24,9ZM16,9a1,1,0,1,1,1,1A1,1,0,0,1,16,9ZM8,9a1,1,0,1,1,1,1A1,1,0,0,1,8,9ZM0,9a1,1,0,1,1,1,1A1,1,0,0,1,0,9ZM248,1a1,1,0,1,1,1,1A1,1,0,0,1,248,1Zm-8,0a1,1,0,1,1,1,1A1,1,0,0,1,240,1Zm-8,0a1,1,0,1,1,1,1A1,1,0,0,1,232,1Zm-8,0a1,1,0,1,1,1,1A1,1,0,0,1,224,1Zm-8,0a1,1,0,1,1,1,1A1,1,0,0,1,216,1Zm-8,0a1,1,0,1,1,1,1A1,1,0,0,1,208,1Zm-8,0a1,1,0,1,1,1,1A1,1,0,0,1,200,1Zm-8,0a1,1,0,1,1,1,1A1,1,0,0,1,192,1Zm-8,0a1,1,0,1,1,1,1A1,1,0,0,1,184,1Zm-8,0a1,1,0,1,1,1,1A1,1,0,0,1,176,1Zm-8,0a1,1,0,1,1,1,1A1,1,0,0,1,168,1Zm-8,0a1,1,0,1,1,1,1A1,1,0,0,1,160,1Zm-8,0a1,1,0,1,1,1,1A1,1,0,0,1,152,1Zm-8,0a1,1,0,1,1,1,1A1,1,0,0,1,144,1Zm-8,0a1,1,0,1,1,1,1A1,1,0,0,1,136,1Zm-8,0a1,1,0,1,1,1,1A1,1,0,0,1,128,1Zm-8,0a1,1,0,1,1,1,1A1,1,0,0,1,120,1Zm-8,0a1,1,0,1,1,1,1A1,1,0,0,1,112,1Zm-8,0a1,1,0,1,1,1,1A1,1,0,0,1,104,1ZM96,1a1,1,0,1,1,1,1A1,1,0,0,1,96,1ZM88,1a1,1,0,1,1,1,1A1,1,0,0,1,88,1ZM80,1a1,1,0,1,1,1,1A1,1,0,0,1,80,1ZM72,1a1,1,0,1,1,1,1A1,1,0,0,1,72,1ZM64,1a1,1,0,1,1,1,1A1,1,0,0,1,64,1ZM56,1a1,1,0,1,1,1,1A1,1,0,0,1,56,1ZM48,1a1,1,0,1,1,1,1A1,1,0,0,1,48,1ZM40,1a1,1,0,1,1,1,1A1,1,0,0,1,40,1ZM32,1a1,1,0,1,1,1,1A1,1,0,0,1,32,1ZM24,1a1,1,0,1,1,1,1A1,1,0,0,1,24,1ZM16,1a1,1,0,1,1,1,1A1,1,0,0,1,16,1ZM8,1A1,1,0,1,1,9,2,1,1,0,0,1,8,1ZM0,1A1,1,0,1,1,1,2,1,1,0,0,1,0,1Z" transform="translate(250 250) rotate(180)"/></g></g><path class="a" d="M125,0A125,125,0,1,1,0,125,125,125,0,0,1,125,0Z" transform="translate(3067 1840)"/><path class="c" d="M97.678,85.351c.013-.133,1.36-13.4,10.5-21.066,4.08-3.419,4.168-6.256,3.52-8.034a6.26,6.26,0,0,0-5.477-3.833c-6.378,0-11.96,3.548-16.137,10.26a35.93,35.93,0,0,0-1.75,3.161l.186-45.013a5.928,5.928,0,0,0-11.856-.034c-.081,2.271-.187,5.05-.3,7.993L76,14.365a5.927,5.927,0,0,0-11.853-.01c-.072,2.061-.165,4.755-.271,7.742l-.037-1.3a5.928,5.928,0,0,0-11.855-.006c-.073,2.1-.123,4.8-.157,7.758A5.919,5.919,0,0,0,41.611,32.6c-.326,9.344-.054,25.382-.006,27.953-.965,2.392-5.81,15.991.081,34.973,2.385,7.688,7.356,11.638,14.521,11.638a24.383,24.383,0,0,0,5.5-.678,1.655,1.655,0,0,0-.747-3.225c-8.416,1.95-13.685-.9-16.111-8.714-5.975-19.252-.127-32.868-.069-33l.151-.337-.007-.37c0-.179-.353-18.113,0-28.148V32.63a2.618,2.618,0,0,1,5.236,0l.867,22.6a19.146,19.146,0,0,0-2.067,1.552,1.655,1.655,0,0,0,2.211,2.464c.1-.092,10.4-9.044,27.538-5.514a1.655,1.655,0,1,0,.666-3.243c-.2-.041-.4-.081-.606-.119.182-4.117.9-20.65,1.212-29.483v-.057a2.617,2.617,0,0,1,5.234-.007l-.2,50.175C77.378,70.1,72.041,72.11,68.8,74.079A18.245,18.245,0,0,0,62.959,79.5a1.655,1.655,0,1,0,2.826,1.723c.059-.1,6.017-9.536,21.254-6.569a1.657,1.657,0,0,0,1.922-1.224c.044-.177,4.574-17.707,17.265-17.707a3.039,3.039,0,0,1,2.367,1.653c.4,1.092-.527,2.684-2.534,4.366C96.9,69.422,94.821,81.6,94.452,84.452L77.486,102.118a1.654,1.654,0,0,0-.461,1.145v25.1a1.655,1.655,0,1,0,3.31,0V103.929L97.224,86.344A1.662,1.662,0,0,0,97.678,85.351ZM55.292,20.883v-.057a2.618,2.618,0,1,1,5.236,0l.862,29.884a35.159,35.159,0,0,0-6.272,2.227C55.081,46.756,55,29.129,55.292,20.883ZM66.226,49.829c.136-3.936.9-26.111,1.23-35.383v-.059a2.617,2.617,0,1,1,5.234,0l.884,35.292A39.533,39.533,0,0,0,66.226,49.829ZM49.032,110.358v18.007a1.655,1.655,0,1,1-3.31,0V110.358a1.655,1.655,0,0,1,3.31,0Zm-4.385-4.426a1.655,1.655,0,0,1,.047,2.34l-3.082,3.209v16.963a1.654,1.654,0,1,1-3.309,0V110.815a1.654,1.654,0,0,1,.461-1.145l3.545-3.691A1.654,1.654,0,0,1,44.647,105.932ZM37.61,89.563a1.657,1.657,0,0,1-.977,2.127,11.169,11.169,0,0,0-5.319,3.918,1.66,1.66,0,0,1-1.408.776,1.62,1.62,0,0,1-.87-.25,1.65,1.65,0,0,1-.536-2.269,14.13,14.13,0,0,1,6.984-5.28A1.654,1.654,0,0,1,37.61,89.563ZM27.4,110.335c-5.688,1.318-9.1-.52-10.733-5.788-4.135-13.323-.108-22.741-.069-22.83l.151-.337-.007-.372c0-.124-.247-12.71,0-19.741v-.059a1.346,1.346,0,0,1,2.691,0l.6,15.619a12.917,12.917,0,0,0-1.278.974,1.656,1.656,0,0,0,2.214,2.463A12.125,12.125,0,0,1,22.55,79.14l.042-.028a22.639,22.639,0,0,1,12.066-3.179h.018a1.655,1.655,0,0,0,.018-3.31,27.729,27.729,0,0,0-2.971.126c.135-3.865.63-18.136.846-24.3v-.059a1.346,1.346,0,0,1,2.691,0l.366,14.637a1.655,1.655,0,1,0,3.309-.082l-.366-14.577a4.656,4.656,0,0,0-9.312-.009c-.021.57-.042,1.206-.066,1.9a4.653,4.653,0,0,0-8.476,2.624c-.042,1.23-.075,2.748-.1,4.422a4.65,4.65,0,0,0-7.189,3.87c-.225,6.465-.044,17.468-.006,19.552-.777,1.975-4.028,11.565.081,24.8,1.731,5.578,5.482,8.509,10.742,8.509a17.317,17.317,0,0,0,3.9-.477,1.656,1.656,0,1,0-.75-3.225ZM24.023,52.975v-.059a1.346,1.346,0,1,1,2.691,0l.594,20.622A25.525,25.525,0,0,0,23.9,74.723C23.87,69.854,23.832,58.455,24.023,52.975Zm-4.4,62.822v12.647a1.654,1.654,0,1,1-3.309,0V115.8a1.654,1.654,0,1,1,3.309,0ZM121.86,92.208c-5.041,4.224-5.767,11.531-5.774,11.6a1.655,1.655,0,0,1-.455,1l-9.49,9.88v13.732a1.654,1.654,0,1,1-3.309,0v-14.4a1.648,1.648,0,0,1,.461-1.146l9.569-9.968c.3-2.059,1.654-8.867,6.873-13.24,1.158-.971,1.293-1.564,1.247-1.712a1.075,1.075,0,0,0-.716-.495c-6.717,0-9.176,9.527-9.2,9.624a1.657,1.657,0,0,1-1.922,1.223c-8.159-1.589-11.329,3.249-11.461,3.454a1.655,1.655,0,1,1-2.818-1.735c.161-.265,3.77-5.991,12.542-5.3l.057-25.527a1.655,1.655,0,0,1,1.654-1.652h0a1.656,1.656,0,0,1,1.652,1.659l-.045,20.673c1.936-2.918,4.984-5.732,9.555-5.732a4.288,4.288,0,0,1,3.807,2.662C124.456,87.825,124.655,89.866,121.86,92.208ZM96.148,114.572a1.653,1.653,0,0,1-1.239,1.985,14.488,14.488,0,0,1-3.277.4c-4.425,0-7.583-2.469-9.039-7.165-.186-.6-.359-1.206-.514-1.808a1.655,1.655,0,0,1,3.2-.827c.142.551.3,1.105.47,1.654,1.277,4.119,3.949,5.555,8.407,4.523A1.653,1.653,0,0,1,96.148,114.572Zm7.861-40.821a1.657,1.657,0,0,1,1.584,1.723c-.209,5.089-.376,8.785-.376,8.785a1.657,1.657,0,0,1-1.653,1.58h-.076a1.656,1.656,0,0,1-1.578-1.728s.167-3.691.376-8.773A1.653,1.653,0,0,1,104.008,73.751ZM88.187,118.092v10.328a1.655,1.655,0,1,1-3.31,0V118.092a1.655,1.655,0,0,1,3.31,0Z" transform="translate(3123.982 1895.389)"/></g></svg>