<?xml version="1.0" encoding="utf-8"?>
<!-- Generator: Adobe Illustrator 24.0.3, SVG Export Plug-In . SVG Version: 6.00 Build 0)  -->
<svg version="1.1" id="Layer_1" xmlns="http://www.w3.org/2000/svg" xmlns:xlink="http://www.w3.org/1999/xlink" x="0px" y="0px"
	 viewBox="0 0 116 116" style="enable-background:new 0 0 116 116;" xml:space="preserve">
<style type="text/css">
	.st0{fill:#DDDDDD;}
</style>
<g>
	<circle class="st0" cx="84.9" cy="7.2" r="0.7"/>
	<circle class="st0" cx="90.8" cy="7.2" r="0.7"/>
	<circle class="st0" cx="96.8" cy="7.2" r="0.7"/>
	<circle class="st0" cx="102.8" cy="7.2" r="0.7"/>
	<circle class="st0" cx="108.8" cy="7.2" r="0.7"/>
	<circle class="st0" cx="114.8" cy="7.2" r="0.7"/>
	<path class="st0" d="M67,14c0.4,0,0.7-0.3,0.7-0.7c0-0.4-0.4-0.7-0.7-0.7c-0.4,0-0.7,0.3-0.7,0.7C66.2,13.6,66.6,14,67,14z"/>
	<path class="st0" d="M72.9,14c0.4,0,0.7-0.3,0.7-0.7c0-0.4-0.4-0.7-0.7-0.7c-0.4,0-0.7,0.3-0.7,0.7C72.2,13.6,72.5,14,72.9,14z"/>
	<path class="st0" d="M78.9,14c0.4,0,0.7-0.3,0.7-0.7c0-0.4-0.3-0.7-0.7-0.7c-0.4,0-0.7,0.3-0.7,0.7C78.1,13.6,78.5,14,78.9,14z"/>
	<circle class="st0" cx="84.9" cy="13.2" r="0.7"/>
	<circle class="st0" cx="90.8" cy="13.2" r="0.7"/>
	<circle class="st0" cx="96.8" cy="13.2" r="0.7"/>
	<circle class="st0" cx="102.8" cy="13.2" r="0.7"/>
	<circle class="st0" cx="108.8" cy="13.2" r="0.7"/>
	<circle class="st0" cx="114.8" cy="13.2" r="0.7"/>
	<path class="st0" d="M61,19.9c0.4,0,0.7-0.3,0.7-0.7c0-0.4-0.4-0.7-0.7-0.7c-0.4,0-0.7,0.3-0.7,0.7C60.3,19.6,60.6,19.9,61,19.9z"
		/>
	<path class="st0" d="M67,19.9c0.4,0,0.7-0.3,0.7-0.7c0-0.4-0.4-0.7-0.7-0.7c-0.4,0-0.7,0.3-0.7,0.7C66.2,19.6,66.6,19.9,67,19.9z"
		/>
	<path class="st0" d="M72.9,19.9c0.4,0,0.7-0.3,0.7-0.7c0-0.4-0.4-0.7-0.7-0.7c-0.4,0-0.7,0.3-0.7,0.7
		C72.2,19.6,72.5,19.9,72.9,19.9z"/>
	<path class="st0" d="M78.9,19.9c0.4,0,0.7-0.3,0.7-0.7c0-0.4-0.3-0.7-0.7-0.7c-0.4,0-0.7,0.3-0.7,0.7
		C78.1,19.6,78.5,19.9,78.9,19.9z"/>
	<circle class="st0" cx="84.9" cy="19.2" r="0.7"/>
	<circle class="st0" cx="90.8" cy="19.2" r="0.7"/>
	<circle class="st0" cx="96.8" cy="19.2" r="0.7"/>
	<circle class="st0" cx="102.8" cy="19.2" r="0.7"/>
	<circle class="st0" cx="108.8" cy="19.2" r="0.7"/>
	<circle class="st0" cx="114.8" cy="19.2" r="0.7"/>
	<path class="st0" d="M49,25.9c0.4,0,0.7-0.3,0.7-0.7c0-0.4-0.3-0.7-0.7-0.7c-0.4,0-0.7,0.3-0.7,0.7C48.3,25.6,48.6,25.9,49,25.9z"
		/>
	<path class="st0" d="M55,25.9c0.4,0,0.7-0.3,0.7-0.7c0-0.4-0.3-0.7-0.7-0.7c-0.4,0-0.7,0.3-0.7,0.7C54.3,25.6,54.6,25.9,55,25.9z"
		/>
	<path class="st0" d="M61,25.9c0.4,0,0.7-0.3,0.7-0.7c0-0.4-0.4-0.7-0.7-0.7c-0.4,0-0.7,0.3-0.7,0.7S60.6,25.9,61,25.9z"/>
	<path class="st0" d="M67,25.9c0.4,0,0.7-0.3,0.7-0.7c0-0.4-0.4-0.7-0.7-0.7c-0.4,0-0.7,0.3-0.7,0.7S66.6,25.9,67,25.9z"/>
	<path class="st0" d="M72.9,25.9c0.4,0,0.7-0.3,0.7-0.7c0-0.4-0.4-0.7-0.7-0.7c-0.4,0-0.7,0.3-0.7,0.7
		C72.2,25.6,72.5,25.9,72.9,25.9z"/>
	<path class="st0" d="M78.9,25.9c0.4,0,0.7-0.3,0.7-0.7c0-0.4-0.3-0.7-0.7-0.7c-0.4,0-0.7,0.3-0.7,0.7
		C78.1,25.6,78.5,25.9,78.9,25.9z"/>
	<circle class="st0" cx="84.9" cy="25.2" r="0.7"/>
	<circle class="st0" cx="90.8" cy="25.2" r="0.7"/>
	<circle class="st0" cx="96.8" cy="25.2" r="0.7"/>
	<circle class="st0" cx="102.8" cy="25.2" r="0.7"/>
	<circle class="st0" cx="108.8" cy="25.2" r="0.7"/>
	<circle class="st0" cx="114.8" cy="25.2" r="0.7"/>
	<path class="st0" d="M43,31.9c0.4,0,0.7-0.3,0.7-0.7s-0.3-0.7-0.7-0.7s-0.7,0.3-0.7,0.7S42.6,31.9,43,31.9z"/>
	<path class="st0" d="M49,31.9c0.4,0,0.7-0.3,0.7-0.7s-0.3-0.7-0.7-0.7c-0.4,0-0.7,0.3-0.7,0.7S48.6,31.9,49,31.9z"/>
	<path class="st0" d="M55,31.9c0.4,0,0.7-0.3,0.7-0.7s-0.3-0.7-0.7-0.7c-0.4,0-0.7,0.3-0.7,0.7S54.6,31.9,55,31.9z"/>
	<path class="st0" d="M61,31.9c0.4,0,0.7-0.3,0.7-0.7s-0.4-0.7-0.7-0.7c-0.4,0-0.7,0.3-0.7,0.7S60.6,31.9,61,31.9z"/>
	<path class="st0" d="M67,31.9c0.4,0,0.7-0.3,0.7-0.7s-0.4-0.7-0.7-0.7c-0.4,0-0.7,0.3-0.7,0.7S66.6,31.9,67,31.9z"/>
	<path class="st0" d="M72.9,31.9c0.4,0,0.7-0.3,0.7-0.7s-0.4-0.7-0.7-0.7c-0.4,0-0.7,0.3-0.7,0.7S72.5,31.9,72.9,31.9z"/>
	<path class="st0" d="M78.9,31.9c0.4,0,0.7-0.3,0.7-0.7s-0.3-0.7-0.7-0.7c-0.4,0-0.7,0.3-0.7,0.7C78.1,31.6,78.5,31.9,78.9,31.9z"/>
	<circle class="st0" cx="84.9" cy="31.2" r="0.7"/>
	<circle class="st0" cx="90.8" cy="31.2" r="0.7"/>
	<circle class="st0" cx="96.8" cy="31.2" r="0.7"/>
	<circle class="st0" cx="102.8" cy="31.2" r="0.7"/>
	<circle class="st0" cx="108.8" cy="31.2" r="0.7"/>
	<circle class="st0" cx="114.8" cy="31.2" r="0.7"/>
	<path class="st0" d="M37.1,37.9c0.4,0,0.7-0.3,0.7-0.7c0-0.4-0.3-0.7-0.7-0.7s-0.7,0.3-0.7,0.7C36.3,37.6,36.7,37.9,37.1,37.9z"/>
	<path class="st0" d="M43,37.9c0.4,0,0.7-0.3,0.7-0.7c0-0.4-0.3-0.7-0.7-0.7s-0.7,0.3-0.7,0.7C42.3,37.6,42.6,37.9,43,37.9z"/>
	<path class="st0" d="M49,37.9c0.4,0,0.7-0.3,0.7-0.7c0-0.4-0.3-0.7-0.7-0.7c-0.4,0-0.7,0.3-0.7,0.7C48.3,37.6,48.6,37.9,49,37.9z"
		/>
	<path class="st0" d="M55,37.9c0.4,0,0.7-0.3,0.7-0.7c0-0.4-0.3-0.7-0.7-0.7c-0.4,0-0.7,0.3-0.7,0.7C54.3,37.6,54.6,37.9,55,37.9z"
		/>
	<path class="st0" d="M61,37.9c0.4,0,0.7-0.3,0.7-0.7c0-0.4-0.4-0.7-0.7-0.7c-0.4,0-0.7,0.3-0.7,0.7C60.3,37.6,60.6,37.9,61,37.9z"
		/>
	<path class="st0" d="M67,37.9c0.4,0,0.7-0.3,0.7-0.7c0-0.4-0.4-0.7-0.7-0.7c-0.4,0-0.7,0.3-0.7,0.7C66.2,37.6,66.6,37.9,67,37.9z"
		/>
	<path class="st0" d="M72.9,37.9c0.4,0,0.7-0.3,0.7-0.7c0-0.4-0.4-0.7-0.7-0.7c-0.4,0-0.7,0.3-0.7,0.7
		C72.2,37.6,72.5,37.9,72.9,37.9z"/>
	<path class="st0" d="M78.9,37.9c0.4,0,0.7-0.3,0.7-0.7c0-0.4-0.3-0.7-0.7-0.7c-0.4,0-0.7,0.3-0.7,0.7
		C78.1,37.6,78.5,37.9,78.9,37.9z"/>
	<circle class="st0" cx="84.9" cy="37.2" r="0.7"/>
	<circle class="st0" cx="90.8" cy="37.2" r="0.7"/>
	<circle class="st0" cx="96.8" cy="37.2" r="0.7"/>
	<circle class="st0" cx="102.8" cy="37.2" r="0.7"/>
	<circle class="st0" cx="108.8" cy="37.2" r="0.7"/>
	<circle class="st0" cx="114.8" cy="37.2" r="0.7"/>
	<path class="st0" d="M31.1,43.9c0.4,0,0.7-0.3,0.7-0.7s-0.3-0.8-0.7-0.7c-0.4,0-0.7,0.3-0.7,0.7S30.7,43.9,31.1,43.9z"/>
	<path class="st0" d="M37.1,43.9c0.4,0,0.7-0.3,0.7-0.7s-0.3-0.8-0.7-0.7c-0.4,0-0.7,0.3-0.7,0.7S36.7,43.9,37.1,43.9z"/>
	<path class="st0" d="M43,43.9c0.4,0,0.7-0.3,0.7-0.7s-0.3-0.8-0.7-0.7c-0.4,0-0.7,0.3-0.7,0.7S42.6,43.9,43,43.9z"/>
	<path class="st0" d="M49,43.9c0.4,0,0.7-0.3,0.7-0.7s-0.3-0.8-0.7-0.7c-0.4,0-0.7,0.3-0.7,0.7S48.6,43.9,49,43.9z"/>
	<path class="st0" d="M55,43.9c0.4,0,0.7-0.3,0.7-0.7s-0.3-0.8-0.7-0.7c-0.4,0-0.7,0.3-0.7,0.7S54.6,43.9,55,43.9z"/>
	<path class="st0" d="M61,43.9c0.4,0,0.7-0.3,0.7-0.7s-0.4-0.8-0.7-0.7c-0.4,0-0.7,0.3-0.7,0.7S60.6,43.9,61,43.9z"/>
	<path class="st0" d="M67,43.9c0.4,0,0.7-0.3,0.7-0.7s-0.4-0.8-0.7-0.7c-0.4,0-0.7,0.3-0.7,0.7S66.6,43.9,67,43.9z"/>
	<path class="st0" d="M72.9,43.9c0.4,0,0.7-0.3,0.7-0.7s-0.4-0.8-0.7-0.7c-0.4,0-0.7,0.3-0.7,0.7S72.5,43.9,72.9,43.9z"/>
	<path class="st0" d="M78.9,43.9c0.4,0,0.7-0.3,0.7-0.7s-0.3-0.8-0.7-0.7c-0.4,0-0.7,0.3-0.7,0.7C78.1,43.5,78.5,43.9,78.9,43.9z"/>
	<path class="st0" d="M84.9,43.9c0.4,0,0.7-0.3,0.7-0.7s-0.3-0.8-0.7-0.7c-0.4,0-0.7,0.3-0.7,0.7C84.1,43.5,84.4,43.9,84.9,43.9z"/>
	<path class="st0" d="M90.8,43.9c0.4,0,0.7-0.3,0.7-0.7s-0.3-0.8-0.7-0.7c-0.4,0-0.7,0.3-0.7,0.7C90.1,43.5,90.4,43.9,90.8,43.9z"/>
	<path class="st0" d="M96.8,43.9c0.4,0,0.7-0.3,0.7-0.7s-0.3-0.8-0.7-0.7c-0.4,0-0.7,0.3-0.7,0.7C96.1,43.5,96.4,43.9,96.8,43.9z"/>
	<path class="st0" d="M102.8,43.9c0.4,0,0.7-0.3,0.7-0.7s-0.3-0.8-0.7-0.7c-0.4,0-0.7,0.3-0.7,0.7C102.1,43.5,102.4,43.9,102.8,43.9
		z"/>
	<path class="st0" d="M108.8,43.9c0.4,0,0.7-0.3,0.7-0.7s-0.3-0.8-0.7-0.7c-0.4,0-0.7,0.3-0.7,0.7C108,43.5,108.4,43.9,108.8,43.9z"
		/>
	<path class="st0" d="M114.8,43.9c0.4,0,0.7-0.3,0.7-0.7s-0.3-0.8-0.7-0.7c-0.4,0-0.7,0.3-0.7,0.7C114,43.5,114.3,43.9,114.8,43.9z"
		/>
	<path class="st0" d="M25.1,49.8c0.4,0,0.7-0.3,0.7-0.7s-0.3-0.8-0.7-0.7c-0.4,0-0.7,0.3-0.7,0.7S24.7,49.8,25.1,49.8z"/>
	<path class="st0" d="M31.1,49.8c0.4,0,0.7-0.3,0.7-0.7s-0.3-0.8-0.7-0.7c-0.4,0-0.7,0.3-0.7,0.7S30.7,49.8,31.1,49.8z"/>
	<path class="st0" d="M37.1,49.8c0.4,0,0.7-0.3,0.7-0.7s-0.3-0.8-0.7-0.7c-0.4,0-0.7,0.3-0.7,0.7S36.7,49.8,37.1,49.8z"/>
	<path class="st0" d="M43,49.8c0.4,0,0.7-0.3,0.7-0.7s-0.3-0.8-0.7-0.7c-0.4,0-0.7,0.3-0.7,0.7S42.6,49.8,43,49.8z"/>
	<path class="st0" d="M49,49.8c0.4,0,0.7-0.3,0.7-0.7s-0.3-0.8-0.7-0.7c-0.4,0-0.7,0.3-0.7,0.7S48.6,49.8,49,49.8z"/>
	<path class="st0" d="M55,49.8c0.4,0,0.7-0.3,0.7-0.7s-0.3-0.8-0.7-0.7c-0.4,0-0.7,0.3-0.7,0.7S54.6,49.8,55,49.8z"/>
	<path class="st0" d="M61,49.8c0.4,0,0.7-0.3,0.7-0.7s-0.4-0.8-0.7-0.7c-0.4,0-0.7,0.3-0.7,0.7S60.6,49.8,61,49.8z"/>
	<path class="st0" d="M67,49.8c0.4,0,0.7-0.3,0.7-0.7s-0.4-0.8-0.7-0.7c-0.4,0-0.7,0.3-0.7,0.7S66.6,49.8,67,49.8z"/>
	<path class="st0" d="M72.9,49.8c0.4,0,0.7-0.3,0.7-0.7s-0.4-0.8-0.7-0.7c-0.4,0-0.7,0.3-0.7,0.7S72.5,49.8,72.9,49.8z"/>
	<path class="st0" d="M78.9,49.8c0.4,0,0.7-0.3,0.7-0.7s-0.3-0.8-0.7-0.7c-0.4,0-0.7,0.3-0.7,0.7C78.1,49.5,78.5,49.8,78.9,49.8z"/>
	<path class="st0" d="M84.9,49.8c0.4,0,0.7-0.3,0.7-0.7s-0.3-0.8-0.7-0.7c-0.4,0-0.7,0.3-0.7,0.7C84.1,49.5,84.4,49.8,84.9,49.8z"/>
	<path class="st0" d="M90.8,49.8c0.4,0,0.7-0.3,0.7-0.7s-0.3-0.8-0.7-0.7c-0.4,0-0.7,0.3-0.7,0.7S90.4,49.8,90.8,49.8z"/>
	<path class="st0" d="M96.8,49.8c0.4,0,0.7-0.3,0.7-0.7s-0.3-0.8-0.7-0.7c-0.4,0-0.7,0.3-0.7,0.7C96.1,49.5,96.4,49.8,96.8,49.8z"/>
	<path class="st0" d="M102.8,49.8c0.4,0,0.7-0.3,0.7-0.7s-0.3-0.8-0.7-0.7c-0.4,0-0.7,0.3-0.7,0.7S102.4,49.8,102.8,49.8z"/>
	<path class="st0" d="M108.8,49.8c0.4,0,0.7-0.3,0.7-0.7s-0.3-0.8-0.7-0.7c-0.4,0-0.7,0.3-0.7,0.7C108,49.5,108.4,49.8,108.8,49.8z"
		/>
	<path class="st0" d="M114.8,49.8c0.4,0,0.7-0.3,0.7-0.7s-0.3-0.8-0.7-0.7c-0.4,0-0.7,0.3-0.7,0.7C114,49.5,114.3,49.8,114.8,49.8z"
		/>
	<path class="st0" d="M19.1,55.8c0.4,0,0.7-0.3,0.7-0.7s-0.3-0.8-0.7-0.7c-0.4,0-0.7,0.3-0.7,0.7S18.7,55.8,19.1,55.8z"/>
	<path class="st0" d="M25.1,55.8c0.4,0,0.7-0.3,0.7-0.7s-0.3-0.8-0.7-0.7c-0.4,0-0.7,0.3-0.7,0.7S24.7,55.8,25.1,55.8z"/>
	<path class="st0" d="M31.1,55.8c0.4,0,0.7-0.3,0.7-0.7s-0.3-0.8-0.7-0.7c-0.4,0-0.7,0.3-0.7,0.7S30.7,55.8,31.1,55.8z"/>
	<path class="st0" d="M37.1,55.8c0.4,0,0.7-0.3,0.7-0.7s-0.3-0.8-0.7-0.7c-0.4,0-0.7,0.3-0.7,0.7S36.7,55.8,37.1,55.8z"/>
	<path class="st0" d="M43,55.8c0.4,0,0.7-0.3,0.7-0.7s-0.3-0.8-0.7-0.7c-0.4,0-0.7,0.3-0.7,0.7S42.6,55.8,43,55.8z"/>
	<path class="st0" d="M49,55.8c0.4,0,0.7-0.3,0.7-0.7s-0.3-0.8-0.7-0.7c-0.4,0-0.7,0.3-0.7,0.7S48.6,55.8,49,55.8z"/>
	<path class="st0" d="M55,55.8c0.4,0,0.7-0.3,0.7-0.7s-0.3-0.8-0.7-0.7c-0.4,0-0.7,0.3-0.7,0.7S54.6,55.8,55,55.8z"/>
	<path class="st0" d="M61,55.8c0.4,0,0.7-0.3,0.7-0.7s-0.4-0.8-0.7-0.7c-0.4,0-0.7,0.3-0.7,0.7S60.6,55.8,61,55.8z"/>
	<path class="st0" d="M67,55.8c0.4,0,0.7-0.3,0.7-0.7s-0.4-0.8-0.7-0.7c-0.4,0-0.7,0.3-0.7,0.7S66.6,55.8,67,55.8z"/>
	<path class="st0" d="M72.9,55.8c0.4,0,0.7-0.3,0.7-0.7s-0.4-0.8-0.7-0.7c-0.4,0-0.7,0.3-0.7,0.7S72.5,55.8,72.9,55.8z"/>
	<path class="st0" d="M78.9,55.8c0.4,0,0.7-0.3,0.7-0.7s-0.3-0.8-0.7-0.7c-0.4,0-0.7,0.3-0.7,0.7C78.1,55.5,78.5,55.8,78.9,55.8z"/>
	<path class="st0" d="M84.9,55.8c0.4,0,0.7-0.3,0.7-0.7s-0.3-0.8-0.7-0.7c-0.4,0-0.7,0.3-0.7,0.7S84.4,55.8,84.9,55.8z"/>
	<path class="st0" d="M90.8,55.8c0.4,0,0.7-0.3,0.7-0.7s-0.3-0.8-0.7-0.7c-0.4,0-0.7,0.3-0.7,0.7C90.1,55.5,90.4,55.8,90.8,55.8z"/>
	<path class="st0" d="M96.8,55.8c0.4,0,0.7-0.3,0.7-0.7s-0.3-0.8-0.7-0.7c-0.4,0-0.7,0.3-0.7,0.7S96.4,55.8,96.8,55.8z"/>
	<path class="st0" d="M102.8,55.8c0.4,0,0.7-0.3,0.7-0.7s-0.3-0.8-0.7-0.7c-0.4,0-0.7,0.3-0.7,0.7C102.1,55.5,102.4,55.8,102.8,55.8
		z"/>
	<path class="st0" d="M108.8,55.8c0.4,0,0.7-0.3,0.7-0.7s-0.3-0.8-0.7-0.7c-0.4,0-0.7,0.3-0.7,0.7S108.4,55.8,108.8,55.8z"/>
	<path class="st0" d="M114.8,55.8c0.4,0,0.7-0.3,0.7-0.7s-0.3-0.8-0.7-0.7c-0.4,0-0.7,0.3-0.7,0.7S114.3,55.8,114.8,55.8z"/>
	<path class="st0" d="M19.1,61.8c0.4,0,0.7-0.3,0.7-0.7c0-0.4-0.3-0.7-0.7-0.7s-0.7,0.3-0.7,0.7C18.4,61.4,18.7,61.8,19.1,61.8z"/>
	<path class="st0" d="M25.1,61.8c0.4,0,0.7-0.3,0.7-0.7c0-0.4-0.3-0.7-0.7-0.7c-0.4,0-0.7,0.3-0.7,0.7
		C24.4,61.4,24.7,61.8,25.1,61.8z"/>
	<path class="st0" d="M31.1,61.8c0.4,0,0.7-0.3,0.7-0.7c0-0.4-0.3-0.7-0.7-0.7s-0.7,0.3-0.7,0.7C30.4,61.4,30.7,61.8,31.1,61.8z"/>
	<path class="st0" d="M37.1,61.8c0.4,0,0.7-0.3,0.7-0.7c0-0.4-0.3-0.7-0.7-0.7s-0.7,0.3-0.7,0.7C36.3,61.4,36.7,61.8,37.1,61.8z"/>
	<path class="st0" d="M43,61.8c0.4,0,0.7-0.3,0.7-0.7c0-0.4-0.3-0.7-0.7-0.7s-0.7,0.3-0.7,0.7C42.3,61.4,42.6,61.8,43,61.8z"/>
	<path class="st0" d="M49,61.8c0.4,0,0.7-0.3,0.7-0.7c0-0.4-0.3-0.7-0.7-0.7c-0.4,0-0.7,0.3-0.7,0.7C48.3,61.4,48.6,61.8,49,61.8z"
		/>
	<path class="st0" d="M55,61.8c0.4,0,0.7-0.3,0.7-0.7c0-0.4-0.3-0.7-0.7-0.7c-0.4,0-0.7,0.3-0.7,0.7C54.3,61.4,54.6,61.8,55,61.8z"
		/>
	<path class="st0" d="M61,61.8c0.4,0,0.7-0.3,0.7-0.7c0-0.4-0.4-0.7-0.7-0.7c-0.4,0-0.7,0.3-0.7,0.7C60.3,61.4,60.6,61.8,61,61.8z"
		/>
	<path class="st0" d="M67,61.8c0.4,0,0.7-0.3,0.7-0.7c0-0.4-0.4-0.7-0.7-0.7c-0.4,0-0.7,0.3-0.7,0.7C66.2,61.4,66.6,61.8,67,61.8z"
		/>
	<path class="st0" d="M72.9,61.8c0.4,0,0.7-0.3,0.7-0.7c0-0.4-0.4-0.7-0.7-0.7c-0.4,0-0.7,0.3-0.7,0.7
		C72.2,61.4,72.5,61.8,72.9,61.8z"/>
	<path class="st0" d="M78.9,61.8c0.4,0,0.7-0.3,0.7-0.7c0-0.4-0.3-0.7-0.7-0.7c-0.4,0-0.7,0.3-0.7,0.7
		C78.1,61.4,78.5,61.8,78.9,61.8z"/>
	<path class="st0" d="M84.9,61.8c0.4,0,0.7-0.3,0.7-0.7c0-0.4-0.3-0.7-0.7-0.7s-0.7,0.3-0.7,0.7C84.1,61.4,84.4,61.8,84.9,61.8z"/>
	<path class="st0" d="M90.8,61.8c0.4,0,0.7-0.3,0.7-0.7c0-0.4-0.3-0.7-0.7-0.7c-0.4,0-0.7,0.3-0.7,0.7
		C90.1,61.4,90.4,61.8,90.8,61.8z"/>
	<path class="st0" d="M96.8,61.8c0.4,0,0.7-0.3,0.7-0.7c0-0.4-0.3-0.7-0.7-0.7c-0.4,0-0.7,0.3-0.7,0.7
		C96.1,61.4,96.4,61.8,96.8,61.8z"/>
	<path class="st0" d="M102.8,61.8c0.4,0,0.7-0.3,0.7-0.7c0-0.4-0.3-0.7-0.7-0.7s-0.7,0.3-0.7,0.7C102.1,61.4,102.4,61.8,102.8,61.8z
		"/>
	<path class="st0" d="M108.8,61.8c0.4,0,0.7-0.3,0.7-0.7c0-0.4-0.3-0.7-0.7-0.7c-0.4,0-0.7,0.3-0.7,0.7
		C108,61.4,108.4,61.8,108.8,61.8z"/>
	<circle class="st0" cx="114.8" cy="61" r="0.7"/>
	<path class="st0" d="M13.1,67.7c0.4,0,0.7-0.3,0.7-0.7s-0.3-0.7-0.7-0.7s-0.7,0.3-0.7,0.7S12.7,67.7,13.1,67.7z"/>
	<path class="st0" d="M19.1,67.7c0.4,0,0.7-0.3,0.7-0.7s-0.3-0.7-0.7-0.7s-0.7,0.3-0.7,0.7S18.7,67.7,19.1,67.7z"/>
	<path class="st0" d="M25.1,67.7c0.4,0,0.7-0.3,0.7-0.7s-0.3-0.7-0.7-0.7c-0.4,0-0.7,0.3-0.7,0.7S24.7,67.7,25.1,67.7z"/>
	<path class="st0" d="M31.1,67.7c0.4,0,0.7-0.3,0.7-0.7s-0.3-0.7-0.7-0.7s-0.7,0.3-0.7,0.7S30.7,67.7,31.1,67.7z"/>
	<path class="st0" d="M37.1,67.7c0.4,0,0.7-0.3,0.7-0.7s-0.3-0.7-0.7-0.7s-0.7,0.3-0.7,0.7S36.7,67.7,37.1,67.7z"/>
	<path class="st0" d="M43,67.7c0.4,0,0.7-0.3,0.7-0.7s-0.3-0.7-0.7-0.7s-0.7,0.3-0.7,0.7S42.6,67.7,43,67.7z"/>
	<path class="st0" d="M49,67.7c0.4,0,0.7-0.3,0.7-0.7s-0.3-0.7-0.7-0.7c-0.4,0-0.7,0.3-0.7,0.7S48.6,67.7,49,67.7z"/>
	<path class="st0" d="M55,67.7c0.4,0,0.7-0.3,0.7-0.7s-0.3-0.7-0.7-0.7c-0.4,0-0.7,0.3-0.7,0.7S54.6,67.7,55,67.7z"/>
	<path class="st0" d="M61,67.7c0.4,0,0.7-0.3,0.7-0.7s-0.4-0.7-0.7-0.7c-0.4,0-0.7,0.3-0.7,0.7S60.6,67.7,61,67.7z"/>
	<path class="st0" d="M67,67.7c0.4,0,0.7-0.3,0.7-0.7s-0.4-0.7-0.7-0.7c-0.4,0-0.7,0.3-0.7,0.7S66.6,67.7,67,67.7z"/>
	<path class="st0" d="M72.9,67.7c0.4,0,0.7-0.3,0.7-0.7s-0.4-0.7-0.7-0.7c-0.4,0-0.7,0.3-0.7,0.7S72.5,67.7,72.9,67.7z"/>
	<path class="st0" d="M78.9,67.7c0.4,0,0.7-0.3,0.7-0.7s-0.3-0.7-0.7-0.7c-0.4,0-0.7,0.3-0.7,0.7C78.1,67.4,78.5,67.7,78.9,67.7z"/>
	<path class="st0" d="M84.9,67.7c0.4,0,0.7-0.3,0.7-0.7s-0.3-0.7-0.7-0.7s-0.7,0.3-0.7,0.7C84.1,67.4,84.4,67.7,84.9,67.7z"/>
	<path class="st0" d="M90.8,67.7c0.4,0,0.7-0.3,0.7-0.7s-0.3-0.7-0.7-0.7c-0.4,0-0.7,0.3-0.7,0.7C90.1,67.4,90.4,67.7,90.8,67.7z"/>
	<path class="st0" d="M96.8,67.7c0.4,0,0.7-0.3,0.7-0.7s-0.3-0.7-0.7-0.7c-0.4,0-0.7,0.3-0.7,0.7C96.1,67.4,96.4,67.7,96.8,67.7z"/>
	<path class="st0" d="M102.8,67.7c0.4,0,0.7-0.3,0.7-0.7s-0.3-0.7-0.7-0.7s-0.7,0.3-0.7,0.7C102.1,67.4,102.4,67.7,102.8,67.7z"/>
	<path class="st0" d="M108.8,67.7c0.4,0,0.7-0.3,0.7-0.7s-0.3-0.7-0.7-0.7c-0.4,0-0.7,0.3-0.7,0.7C108,67.4,108.4,67.7,108.8,67.7z"
		/>
	<circle class="st0" cx="114.8" cy="67" r="0.7"/>
	<path class="st0" d="M13.1,73.7c0.4,0,0.7-0.3,0.7-0.7c0-0.4-0.3-0.7-0.7-0.7s-0.7,0.3-0.7,0.7C12.4,73.4,12.7,73.7,13.1,73.7z"/>
	<path class="st0" d="M19.1,73.7c0.4,0,0.7-0.3,0.7-0.7c0-0.4-0.3-0.7-0.7-0.7s-0.7,0.3-0.7,0.7C18.4,73.4,18.7,73.7,19.1,73.7z"/>
	<path class="st0" d="M25.1,73.7c0.4,0,0.7-0.3,0.7-0.7c0-0.4-0.3-0.7-0.7-0.7c-0.4,0-0.7,0.3-0.7,0.7
		C24.4,73.4,24.7,73.7,25.1,73.7z"/>
	<path class="st0" d="M31.1,73.7c0.4,0,0.7-0.3,0.7-0.7c0-0.4-0.3-0.7-0.7-0.7s-0.7,0.3-0.7,0.7C30.4,73.4,30.7,73.7,31.1,73.7z"/>
	<path class="st0" d="M37.1,73.7c0.4,0,0.7-0.3,0.7-0.7c0-0.4-0.3-0.7-0.7-0.7s-0.7,0.3-0.7,0.7C36.3,73.4,36.7,73.7,37.1,73.7z"/>
	<path class="st0" d="M43,73.7c0.4,0,0.7-0.3,0.7-0.7c0-0.4-0.3-0.7-0.7-0.7s-0.7,0.3-0.7,0.7C42.3,73.4,42.6,73.7,43,73.7z"/>
	<path class="st0" d="M49,73.7c0.4,0,0.7-0.3,0.7-0.7c0-0.4-0.3-0.7-0.7-0.7c-0.4,0-0.7,0.3-0.7,0.7C48.3,73.4,48.6,73.7,49,73.7z"
		/>
	<path class="st0" d="M55,73.7c0.4,0,0.7-0.3,0.7-0.7c0-0.4-0.3-0.7-0.7-0.7c-0.4,0-0.7,0.3-0.7,0.7C54.3,73.4,54.6,73.7,55,73.7z"
		/>
	<path class="st0" d="M61,73.7c0.4,0,0.7-0.3,0.7-0.7c0-0.4-0.4-0.7-0.7-0.7c-0.4,0-0.7,0.3-0.7,0.7C60.3,73.4,60.6,73.7,61,73.7z"
		/>
	<path class="st0" d="M67,73.7c0.4,0,0.7-0.3,0.7-0.7c0-0.4-0.4-0.7-0.7-0.7c-0.4,0-0.7,0.3-0.7,0.7C66.2,73.4,66.6,73.7,67,73.7z"
		/>
	<path class="st0" d="M72.9,73.7c0.4,0,0.7-0.3,0.7-0.7c0-0.4-0.4-0.7-0.7-0.7c-0.4,0-0.7,0.3-0.7,0.7
		C72.2,73.4,72.5,73.7,72.9,73.7z"/>
	<path class="st0" d="M78.9,73.7c0.4,0,0.7-0.3,0.7-0.7c0-0.4-0.3-0.7-0.7-0.7c-0.4,0-0.7,0.3-0.7,0.7
		C78.1,73.4,78.5,73.7,78.9,73.7z"/>
	<path class="st0" d="M84.9,73.7c0.4,0,0.7-0.3,0.7-0.7c0-0.4-0.3-0.7-0.7-0.7s-0.7,0.3-0.7,0.7C84.1,73.4,84.4,73.7,84.9,73.7z"/>
	<path class="st0" d="M90.8,73.7c0.4,0,0.7-0.3,0.7-0.7c0-0.4-0.3-0.7-0.7-0.7c-0.4,0-0.7,0.3-0.7,0.7
		C90.1,73.4,90.4,73.7,90.8,73.7z"/>
	<path class="st0" d="M96.8,73.7c0.4,0,0.7-0.3,0.7-0.7c0-0.4-0.3-0.7-0.7-0.7c-0.4,0-0.7,0.3-0.7,0.7
		C96.1,73.4,96.4,73.7,96.8,73.7z"/>
	<path class="st0" d="M102.8,73.7c0.4,0,0.7-0.3,0.7-0.7c0-0.4-0.3-0.7-0.7-0.7s-0.7,0.3-0.7,0.7C102.1,73.4,102.4,73.7,102.8,73.7z
		"/>
	<path class="st0" d="M108.8,73.7c0.4,0,0.7-0.3,0.7-0.7c0-0.4-0.3-0.7-0.7-0.7c-0.4,0-0.7,0.3-0.7,0.7
		C108,73.4,108.4,73.7,108.8,73.7z"/>
	<circle class="st0" cx="114.8" cy="73" r="0.7"/>
	<path class="st0" d="M13.1,79.7c0.4,0,0.7-0.3,0.7-0.7c0-0.4-0.3-0.7-0.7-0.7s-0.7,0.3-0.7,0.7S12.7,79.7,13.1,79.7z"/>
	<path class="st0" d="M19.1,79.7c0.4,0,0.7-0.3,0.7-0.7c0-0.4-0.3-0.7-0.7-0.7s-0.7,0.3-0.7,0.7S18.7,79.7,19.1,79.7z"/>
	<path class="st0" d="M25.1,79.7c0.4,0,0.7-0.3,0.7-0.7c0-0.4-0.3-0.7-0.7-0.7c-0.4,0-0.7,0.3-0.7,0.7S24.7,79.7,25.1,79.7z"/>
	<path class="st0" d="M31.1,79.7c0.4,0,0.7-0.3,0.7-0.7c0-0.4-0.3-0.7-0.7-0.7s-0.7,0.3-0.7,0.7S30.7,79.7,31.1,79.7z"/>
	<path class="st0" d="M37.1,79.7c0.4,0,0.7-0.3,0.7-0.7c0-0.4-0.3-0.7-0.7-0.7s-0.7,0.3-0.7,0.7S36.7,79.7,37.1,79.7z"/>
	<path class="st0" d="M43,79.7c0.4,0,0.7-0.3,0.7-0.7c0-0.4-0.3-0.7-0.7-0.7s-0.7,0.3-0.7,0.7S42.6,79.7,43,79.7z"/>
	<path class="st0" d="M49,79.7c0.4,0,0.7-0.3,0.7-0.7c0-0.4-0.3-0.7-0.7-0.7c-0.4,0-0.7,0.3-0.7,0.7S48.6,79.7,49,79.7z"/>
	<path class="st0" d="M55,79.7c0.4,0,0.7-0.3,0.7-0.7c0-0.4-0.3-0.7-0.7-0.7c-0.4,0-0.7,0.3-0.7,0.7S54.6,79.7,55,79.7z"/>
	<path class="st0" d="M61,79.7c0.4,0,0.7-0.3,0.7-0.7c0-0.4-0.4-0.7-0.7-0.7c-0.4,0-0.7,0.3-0.7,0.7S60.6,79.7,61,79.7z"/>
	<path class="st0" d="M67,79.7c0.4,0,0.7-0.3,0.7-0.7c0-0.4-0.4-0.7-0.7-0.7c-0.4,0-0.7,0.3-0.7,0.7S66.6,79.7,67,79.7z"/>
	<path class="st0" d="M72.9,79.7c0.4,0,0.7-0.3,0.7-0.7c0-0.4-0.4-0.7-0.7-0.7c-0.4,0-0.7,0.3-0.7,0.7S72.5,79.7,72.9,79.7z"/>
	<path class="st0" d="M78.9,79.7c0.4,0,0.7-0.3,0.7-0.7c0-0.4-0.3-0.7-0.7-0.7c-0.4,0-0.7,0.3-0.7,0.7
		C78.1,79.4,78.5,79.7,78.9,79.7z"/>
	<path class="st0" d="M84.9,79.7c0.4,0,0.7-0.3,0.7-0.7c0-0.4-0.3-0.7-0.7-0.7s-0.7,0.3-0.7,0.7C84.1,79.4,84.4,79.7,84.9,79.7z"/>
	<path class="st0" d="M90.8,79.7c0.4,0,0.7-0.3,0.7-0.7c0-0.4-0.3-0.7-0.7-0.7c-0.4,0-0.7,0.3-0.7,0.7
		C90.1,79.4,90.4,79.7,90.8,79.7z"/>
	<path class="st0" d="M96.8,79.7c0.4,0,0.7-0.3,0.7-0.7c0-0.4-0.3-0.7-0.7-0.7c-0.4,0-0.7,0.3-0.7,0.7
		C96.1,79.4,96.4,79.7,96.8,79.7z"/>
	<path class="st0" d="M102.8,79.7c0.4,0,0.7-0.3,0.7-0.7c0-0.4-0.3-0.7-0.7-0.7s-0.7,0.3-0.7,0.7C102.1,79.4,102.4,79.7,102.8,79.7z
		"/>
	<path class="st0" d="M108.8,79.7c0.4,0,0.7-0.3,0.7-0.7c0-0.4-0.3-0.7-0.7-0.7c-0.4,0-0.7,0.3-0.7,0.7
		C108,79.4,108.4,79.7,108.8,79.7z"/>
	<circle class="st0" cx="114.8" cy="79" r="0.7"/>
	<path class="st0" d="M7.2,85.7c0.4,0,0.7-0.3,0.7-0.7s-0.3-0.7-0.7-0.7c-0.4,0-0.7,0.3-0.7,0.7C6.4,85.4,6.8,85.7,7.2,85.7z"/>
	<path class="st0" d="M13.1,85.7c0.4,0,0.7-0.3,0.7-0.7s-0.3-0.7-0.7-0.7s-0.7,0.3-0.7,0.7C12.4,85.4,12.7,85.7,13.1,85.7z"/>
	<path class="st0" d="M19.1,85.7c0.4,0,0.7-0.3,0.7-0.7s-0.3-0.7-0.7-0.7s-0.7,0.3-0.7,0.7C18.4,85.4,18.7,85.7,19.1,85.7z"/>
	<path class="st0" d="M25.1,85.7c0.4,0,0.7-0.3,0.7-0.7s-0.3-0.7-0.7-0.7c-0.4,0-0.7,0.3-0.7,0.7C24.4,85.4,24.7,85.7,25.1,85.7z"/>
	<path class="st0" d="M31.1,85.7c0.4,0,0.7-0.3,0.7-0.7s-0.3-0.7-0.7-0.7s-0.7,0.3-0.7,0.7C30.4,85.4,30.7,85.7,31.1,85.7z"/>
	<path class="st0" d="M37.1,85.7c0.4,0,0.7-0.3,0.7-0.7s-0.3-0.7-0.7-0.7s-0.7,0.3-0.7,0.7C36.3,85.4,36.7,85.7,37.1,85.7z"/>
	<path class="st0" d="M43,85.7c0.4,0,0.7-0.3,0.7-0.7s-0.3-0.7-0.7-0.7s-0.7,0.3-0.7,0.7C42.3,85.4,42.6,85.7,43,85.7z"/>
	<path class="st0" d="M49,85.7c0.4,0,0.7-0.3,0.7-0.7s-0.3-0.7-0.7-0.7c-0.4,0-0.7,0.3-0.7,0.7C48.3,85.4,48.6,85.7,49,85.7z"/>
	<path class="st0" d="M55,85.7c0.4,0,0.7-0.3,0.7-0.7s-0.3-0.7-0.7-0.7c-0.4,0-0.7,0.3-0.7,0.7C54.3,85.4,54.6,85.7,55,85.7z"/>
	<path class="st0" d="M61,85.7c0.4,0,0.7-0.3,0.7-0.7s-0.4-0.7-0.7-0.7c-0.4,0-0.7,0.3-0.7,0.7C60.3,85.4,60.6,85.7,61,85.7z"/>
	<path class="st0" d="M67,85.7c0.4,0,0.7-0.3,0.7-0.7s-0.4-0.7-0.7-0.7c-0.4,0-0.7,0.3-0.7,0.7C66.2,85.4,66.6,85.7,67,85.7z"/>
	<path class="st0" d="M72.9,85.7c0.4,0,0.7-0.3,0.7-0.7s-0.4-0.7-0.7-0.7c-0.4,0-0.7,0.3-0.7,0.7C72.2,85.4,72.5,85.7,72.9,85.7z"/>
	<path class="st0" d="M78.9,85.7c0.4,0,0.7-0.3,0.7-0.7s-0.3-0.7-0.7-0.7c-0.4,0-0.7,0.3-0.7,0.7C78.1,85.4,78.5,85.7,78.9,85.7z"/>
	<path class="st0" d="M84.9,85.7c0.4,0,0.7-0.3,0.7-0.7s-0.3-0.7-0.7-0.7s-0.7,0.3-0.7,0.7C84.1,85.4,84.4,85.7,84.9,85.7z"/>
	<path class="st0" d="M90.8,85.7c0.4,0,0.7-0.3,0.7-0.7s-0.3-0.7-0.7-0.7c-0.4,0-0.7,0.3-0.7,0.7C90.1,85.4,90.4,85.7,90.8,85.7z"/>
	<path class="st0" d="M96.8,85.7c0.4,0,0.7-0.3,0.7-0.7s-0.3-0.7-0.7-0.7c-0.4,0-0.7,0.3-0.7,0.7C96.1,85.4,96.4,85.7,96.8,85.7z"/>
	<path class="st0" d="M102.8,85.7c0.4,0,0.7-0.3,0.7-0.7s-0.3-0.7-0.7-0.7s-0.7,0.3-0.7,0.7C102.1,85.4,102.4,85.7,102.8,85.7z"/>
	<path class="st0" d="M108.8,85.7c0.4,0,0.7-0.3,0.7-0.7s-0.3-0.7-0.7-0.7c-0.4,0-0.7,0.3-0.7,0.7C108,85.4,108.4,85.7,108.8,85.7z"
		/>
	<path class="st0" d="M114.8,85.7c0.4,0,0.7-0.3,0.7-0.7s-0.3-0.7-0.7-0.7s-0.7,0.3-0.7,0.7C114,85.4,114.3,85.7,114.8,85.7z"/>
	<path class="st0" d="M7.2,91.7c0.4,0,0.7-0.3,0.7-0.7c0-0.4-0.3-0.7-0.7-0.7c-0.4,0-0.7,0.3-0.7,0.7C6.4,91.3,6.8,91.7,7.2,91.7z"
		/>
	<path class="st0" d="M13.1,91.7c0.4,0,0.7-0.3,0.7-0.7c0-0.4-0.3-0.7-0.7-0.7s-0.7,0.3-0.7,0.7C12.4,91.3,12.7,91.7,13.1,91.7z"/>
	<path class="st0" d="M19.1,91.7c0.4,0,0.7-0.3,0.7-0.7c0-0.4-0.3-0.7-0.7-0.7s-0.7,0.3-0.7,0.7C18.4,91.3,18.7,91.7,19.1,91.7z"/>
	<path class="st0" d="M25.1,91.7c0.4,0,0.7-0.3,0.7-0.7c0-0.4-0.3-0.7-0.7-0.7c-0.4,0-0.7,0.3-0.7,0.7
		C24.4,91.3,24.7,91.7,25.1,91.7z"/>
	<path class="st0" d="M31.1,91.7c0.4,0,0.7-0.3,0.7-0.7c0-0.4-0.3-0.7-0.7-0.7s-0.7,0.3-0.7,0.7C30.4,91.3,30.7,91.7,31.1,91.7z"/>
	<path class="st0" d="M37.1,91.7c0.4,0,0.7-0.3,0.7-0.7c0-0.4-0.3-0.7-0.7-0.7s-0.7,0.3-0.7,0.7C36.3,91.3,36.7,91.7,37.1,91.7z"/>
	<path class="st0" d="M43,91.7c0.4,0,0.7-0.3,0.7-0.7c0-0.4-0.3-0.7-0.7-0.7s-0.7,0.3-0.7,0.7C42.3,91.3,42.6,91.7,43,91.7z"/>
	<path class="st0" d="M49,91.7c0.4,0,0.7-0.3,0.7-0.7c0-0.4-0.3-0.7-0.7-0.7c-0.4,0-0.7,0.3-0.7,0.7C48.3,91.3,48.6,91.7,49,91.7z"
		/>
	<path class="st0" d="M55,91.7c0.4,0,0.7-0.3,0.7-0.7c0-0.4-0.3-0.7-0.7-0.7c-0.4,0-0.7,0.3-0.7,0.7C54.3,91.3,54.6,91.7,55,91.7z"
		/>
	<path class="st0" d="M61,91.7c0.4,0,0.7-0.3,0.7-0.7c0-0.4-0.4-0.7-0.7-0.7c-0.4,0-0.7,0.3-0.7,0.7C60.3,91.3,60.6,91.7,61,91.7z"
		/>
	<path class="st0" d="M67,91.7c0.4,0,0.7-0.3,0.7-0.7c0-0.4-0.4-0.7-0.7-0.7c-0.4,0-0.7,0.3-0.7,0.7C66.2,91.3,66.6,91.7,67,91.7z"
		/>
	<path class="st0" d="M72.9,91.7c0.4,0,0.7-0.3,0.7-0.7c0-0.4-0.4-0.7-0.7-0.7c-0.4,0-0.7,0.3-0.7,0.7
		C72.2,91.3,72.5,91.7,72.9,91.7z"/>
	<path class="st0" d="M78.9,91.7c0.4,0,0.7-0.3,0.7-0.7c0-0.4-0.3-0.7-0.7-0.7c-0.4,0-0.7,0.3-0.7,0.7
		C78.1,91.3,78.5,91.7,78.9,91.7z"/>
	<path class="st0" d="M84.9,91.7c0.4,0,0.7-0.3,0.7-0.7c0-0.4-0.3-0.7-0.7-0.7s-0.7,0.3-0.7,0.7C84.1,91.3,84.4,91.7,84.9,91.7z"/>
	<path class="st0" d="M90.8,91.7c0.4,0,0.7-0.3,0.7-0.7c0-0.4-0.3-0.7-0.7-0.7c-0.4,0-0.7,0.3-0.7,0.7
		C90.1,91.3,90.4,91.7,90.8,91.7z"/>
	<path class="st0" d="M96.8,91.7c0.4,0,0.7-0.3,0.7-0.7c0-0.4-0.3-0.7-0.7-0.7c-0.4,0-0.7,0.3-0.7,0.7
		C96.1,91.3,96.4,91.7,96.8,91.7z"/>
	<path class="st0" d="M102.8,91.7c0.4,0,0.7-0.3,0.7-0.7c0-0.4-0.3-0.7-0.7-0.7s-0.7,0.3-0.7,0.7C102.1,91.3,102.4,91.7,102.8,91.7z
		"/>
	<path class="st0" d="M108.8,91.7c0.4,0,0.7-0.3,0.7-0.7c0-0.4-0.3-0.7-0.7-0.7c-0.4,0-0.7,0.3-0.7,0.7
		C108,91.3,108.4,91.7,108.8,91.7z"/>
	<circle class="st0" cx="114.8" cy="90.9" r="0.7"/>
	<path class="st0" d="M7.2,97.6c0.4,0,0.7-0.3,0.7-0.7s-0.3-0.7-0.7-0.7c-0.4,0-0.7,0.3-0.7,0.7C6.4,97.3,6.8,97.6,7.2,97.6z"/>
	<path class="st0" d="M13.1,97.6c0.4,0,0.7-0.3,0.7-0.7s-0.3-0.7-0.7-0.7s-0.7,0.3-0.7,0.7C12.4,97.3,12.7,97.6,13.1,97.6z"/>
	<path class="st0" d="M19.1,97.6c0.4,0,0.7-0.3,0.7-0.7s-0.3-0.7-0.7-0.7s-0.7,0.3-0.7,0.7C18.4,97.3,18.7,97.6,19.1,97.6z"/>
	<path class="st0" d="M25.1,97.6c0.4,0,0.7-0.3,0.7-0.7s-0.3-0.7-0.7-0.7c-0.4,0-0.7,0.3-0.7,0.7C24.4,97.3,24.7,97.6,25.1,97.6z"/>
	<path class="st0" d="M31.1,97.6c0.4,0,0.7-0.3,0.7-0.7s-0.3-0.7-0.7-0.7s-0.7,0.3-0.7,0.7C30.4,97.3,30.7,97.6,31.1,97.6z"/>
	<path class="st0" d="M37.1,97.6c0.4,0,0.7-0.3,0.7-0.7s-0.3-0.7-0.7-0.7s-0.7,0.3-0.7,0.7C36.3,97.3,36.7,97.6,37.1,97.6z"/>
	<path class="st0" d="M43,97.6c0.4,0,0.7-0.3,0.7-0.7s-0.3-0.7-0.7-0.7s-0.7,0.3-0.7,0.7C42.3,97.3,42.6,97.6,43,97.6z"/>
	<path class="st0" d="M49,97.6c0.4,0,0.7-0.3,0.7-0.7s-0.3-0.7-0.7-0.7c-0.4,0-0.7,0.3-0.7,0.7C48.3,97.3,48.6,97.6,49,97.6z"/>
	<path class="st0" d="M55,97.6c0.4,0,0.7-0.3,0.7-0.7s-0.3-0.7-0.7-0.7c-0.4,0-0.7,0.3-0.7,0.7C54.3,97.3,54.6,97.6,55,97.6z"/>
	<path class="st0" d="M61,97.6c0.4,0,0.7-0.3,0.7-0.7s-0.4-0.7-0.7-0.7c-0.4,0-0.7,0.3-0.7,0.7C60.3,97.3,60.6,97.6,61,97.6z"/>
	<path class="st0" d="M67,97.6c0.4,0,0.7-0.3,0.7-0.7s-0.4-0.7-0.7-0.7c-0.4,0-0.7,0.3-0.7,0.7C66.2,97.3,66.6,97.6,67,97.6z"/>
	<path class="st0" d="M72.9,97.6c0.4,0,0.7-0.3,0.7-0.7s-0.4-0.7-0.7-0.7c-0.4,0-0.7,0.3-0.7,0.7C72.2,97.3,72.5,97.6,72.9,97.6z"/>
	<path class="st0" d="M78.9,97.6c0.4,0,0.7-0.3,0.7-0.7s-0.3-0.7-0.7-0.7c-0.4,0-0.7,0.3-0.7,0.7C78.1,97.3,78.5,97.6,78.9,97.6z"/>
	<path class="st0" d="M84.9,97.6c0.4,0,0.7-0.3,0.7-0.7s-0.3-0.7-0.7-0.7s-0.7,0.3-0.7,0.7C84.1,97.3,84.4,97.6,84.9,97.6z"/>
	<path class="st0" d="M90.8,97.6c0.4,0,0.7-0.3,0.7-0.7s-0.3-0.7-0.7-0.7c-0.4,0-0.7,0.3-0.7,0.7C90.1,97.3,90.4,97.6,90.8,97.6z"/>
	<path class="st0" d="M96.8,97.6c0.4,0,0.7-0.3,0.7-0.7s-0.3-0.7-0.7-0.7c-0.4,0-0.7,0.3-0.7,0.7C96.1,97.3,96.4,97.6,96.8,97.6z"/>
	<path class="st0" d="M102.8,97.6c0.4,0,0.7-0.3,0.7-0.7s-0.3-0.7-0.7-0.7s-0.7,0.3-0.7,0.7C102.1,97.3,102.4,97.6,102.8,97.6z"/>
	<path class="st0" d="M108.8,97.6c0.4,0,0.7-0.3,0.7-0.7s-0.3-0.7-0.7-0.7c-0.4,0-0.7,0.3-0.7,0.7C108,97.3,108.4,97.6,108.8,97.6z"
		/>
	<path class="st0" d="M114.8,97.6c0.4,0,0.7-0.3,0.7-0.7s-0.3-0.7-0.7-0.7s-0.7,0.3-0.7,0.7C114,97.3,114.3,97.6,114.8,97.6z"/>
	<path class="st0" d="M7.2,103.6c0.4,0,0.7-0.3,0.7-0.7c0-0.4-0.3-0.7-0.7-0.7c-0.4,0-0.7,0.3-0.7,0.7
		C6.4,103.3,6.8,103.6,7.2,103.6z"/>
	<path class="st0" d="M13.1,103.6c0.4,0,0.7-0.3,0.7-0.7c0-0.4-0.3-0.7-0.7-0.7s-0.7,0.3-0.7,0.7C12.4,103.3,12.7,103.6,13.1,103.6z
		"/>
	<path class="st0" d="M19.1,103.6c0.4,0,0.7-0.3,0.7-0.7c0-0.4-0.3-0.7-0.7-0.7s-0.7,0.3-0.7,0.7C18.4,103.3,18.7,103.6,19.1,103.6z
		"/>
	<path class="st0" d="M25.1,103.6c0.4,0,0.7-0.3,0.7-0.7c0-0.4-0.3-0.7-0.7-0.7c-0.4,0-0.7,0.3-0.7,0.7
		C24.4,103.3,24.7,103.6,25.1,103.6z"/>
	<path class="st0" d="M31.1,103.6c0.4,0,0.7-0.3,0.7-0.7c0-0.4-0.3-0.7-0.7-0.7s-0.7,0.3-0.7,0.7C30.4,103.3,30.7,103.6,31.1,103.6z
		"/>
	<path class="st0" d="M37.1,103.6c0.4,0,0.7-0.3,0.7-0.7c0-0.4-0.3-0.7-0.7-0.7s-0.7,0.3-0.7,0.7C36.3,103.3,36.7,103.6,37.1,103.6z
		"/>
	<path class="st0" d="M43,103.6c0.4,0,0.7-0.3,0.7-0.7c0-0.4-0.3-0.7-0.7-0.7s-0.7,0.3-0.7,0.7C42.3,103.3,42.6,103.6,43,103.6z"/>
	<path class="st0" d="M49,103.6c0.4,0,0.7-0.3,0.7-0.7c0-0.4-0.3-0.7-0.7-0.7c-0.4,0-0.7,0.3-0.7,0.7
		C48.3,103.3,48.6,103.6,49,103.6z"/>
	<path class="st0" d="M55,103.6c0.4,0,0.7-0.3,0.7-0.7c0-0.4-0.3-0.7-0.7-0.7c-0.4,0-0.7,0.3-0.7,0.7
		C54.3,103.3,54.6,103.6,55,103.6z"/>
	<path class="st0" d="M61,103.6c0.4,0,0.7-0.3,0.7-0.7c0-0.4-0.4-0.7-0.7-0.7c-0.4,0-0.7,0.3-0.7,0.7
		C60.3,103.3,60.6,103.6,61,103.6z"/>
	<path class="st0" d="M67,103.6c0.4,0,0.7-0.3,0.7-0.7c0-0.4-0.4-0.7-0.7-0.7c-0.4,0-0.7,0.3-0.7,0.7
		C66.2,103.3,66.6,103.6,67,103.6z"/>
	<path class="st0" d="M72.9,103.6c0.4,0,0.7-0.3,0.7-0.7c0-0.4-0.4-0.7-0.7-0.7c-0.4,0-0.7,0.3-0.7,0.7
		C72.2,103.3,72.5,103.6,72.9,103.6z"/>
	<path class="st0" d="M78.9,103.6c0.4,0,0.7-0.3,0.7-0.7c0-0.4-0.3-0.7-0.7-0.7c-0.4,0-0.7,0.3-0.7,0.7
		C78.1,103.3,78.5,103.6,78.9,103.6z"/>
	<path class="st0" d="M84.9,103.6c0.4,0,0.7-0.3,0.7-0.7c0-0.4-0.3-0.7-0.7-0.7s-0.7,0.3-0.7,0.7C84.1,103.3,84.4,103.6,84.9,103.6z
		"/>
	<path class="st0" d="M90.8,103.6c0.4,0,0.7-0.3,0.7-0.7c0-0.4-0.3-0.7-0.7-0.7c-0.4,0-0.7,0.3-0.7,0.7
		C90.1,103.3,90.4,103.6,90.8,103.6z"/>
	<path class="st0" d="M96.8,103.6c0.4,0,0.7-0.3,0.7-0.7c0-0.4-0.3-0.7-0.7-0.7c-0.4,0-0.7,0.3-0.7,0.7
		C96.1,103.3,96.4,103.6,96.8,103.6z"/>
	<path class="st0" d="M102.8,103.6c0.4,0,0.7-0.3,0.7-0.7c0-0.4-0.3-0.7-0.7-0.7s-0.7,0.3-0.7,0.7
		C102.1,103.3,102.4,103.6,102.8,103.6z"/>
	<path class="st0" d="M108.8,103.6c0.4,0,0.7-0.3,0.7-0.7c0-0.4-0.3-0.7-0.7-0.7c-0.4,0-0.7,0.3-0.7,0.7
		C108,103.3,108.4,103.6,108.8,103.6z"/>
	<circle class="st0" cx="114.8" cy="102.9" r="0.7"/>
	<path class="st0" d="M7.2,109.6c0.4,0,0.7-0.3,0.7-0.7s-0.3-0.7-0.7-0.7c-0.4,0-0.7,0.3-0.7,0.7C6.4,109.3,6.8,109.6,7.2,109.6z"/>
	<path class="st0" d="M13.1,109.6c0.4,0,0.7-0.3,0.7-0.7s-0.3-0.7-0.7-0.7s-0.7,0.3-0.7,0.7C12.4,109.3,12.7,109.6,13.1,109.6z"/>
	<path class="st0" d="M19.1,109.6c0.4,0,0.7-0.3,0.7-0.7s-0.3-0.7-0.7-0.7s-0.7,0.3-0.7,0.7C18.4,109.3,18.7,109.6,19.1,109.6z"/>
	<path class="st0" d="M25.1,109.6c0.4,0,0.7-0.3,0.7-0.7s-0.3-0.7-0.7-0.7c-0.4,0-0.7,0.3-0.7,0.7C24.4,109.3,24.7,109.6,25.1,109.6
		z"/>
	<path class="st0" d="M31.1,109.6c0.4,0,0.7-0.3,0.7-0.7s-0.3-0.7-0.7-0.7s-0.7,0.3-0.7,0.7C30.4,109.3,30.7,109.6,31.1,109.6z"/>
	<path class="st0" d="M37.1,109.6c0.4,0,0.7-0.3,0.7-0.7s-0.3-0.7-0.7-0.7s-0.7,0.3-0.7,0.7C36.3,109.3,36.7,109.6,37.1,109.6z"/>
	<path class="st0" d="M43,109.6c0.4,0,0.7-0.3,0.7-0.7s-0.3-0.7-0.7-0.7s-0.7,0.3-0.7,0.7C42.3,109.3,42.6,109.6,43,109.6z"/>
	<path class="st0" d="M49,109.6c0.4,0,0.7-0.3,0.7-0.7s-0.3-0.7-0.7-0.7c-0.4,0-0.7,0.3-0.7,0.7C48.3,109.3,48.6,109.6,49,109.6z"/>
	<path class="st0" d="M55,109.6c0.4,0,0.7-0.3,0.7-0.7s-0.3-0.7-0.7-0.7c-0.4,0-0.7,0.3-0.7,0.7C54.3,109.3,54.6,109.6,55,109.6z"/>
	<path class="st0" d="M61,109.6c0.4,0,0.7-0.3,0.7-0.7s-0.4-0.7-0.7-0.7c-0.4,0-0.7,0.3-0.7,0.7C60.3,109.3,60.6,109.6,61,109.6z"/>
	<path class="st0" d="M67,109.6c0.4,0,0.7-0.3,0.7-0.7s-0.4-0.7-0.7-0.7c-0.4,0-0.7,0.3-0.7,0.7C66.2,109.3,66.6,109.6,67,109.6z"/>
	<path class="st0" d="M72.9,109.6c0.4,0,0.7-0.3,0.7-0.7s-0.4-0.7-0.7-0.7c-0.4,0-0.7,0.3-0.7,0.7C72.2,109.3,72.5,109.6,72.9,109.6
		z"/>
	<path class="st0" d="M78.9,109.6c0.4,0,0.7-0.3,0.7-0.7s-0.3-0.7-0.7-0.7c-0.4,0-0.7,0.3-0.7,0.7C78.1,109.3,78.5,109.6,78.9,109.6
		z"/>
	<path class="st0" d="M84.9,109.6c0.4,0,0.7-0.3,0.7-0.7s-0.3-0.7-0.7-0.7s-0.7,0.3-0.7,0.7C84.1,109.3,84.4,109.6,84.9,109.6z"/>
	<path class="st0" d="M90.8,109.6c0.4,0,0.7-0.3,0.7-0.7s-0.3-0.7-0.7-0.7c-0.4,0-0.7,0.3-0.7,0.7C90.1,109.3,90.4,109.6,90.8,109.6
		z"/>
	<path class="st0" d="M96.8,109.6c0.4,0,0.7-0.3,0.7-0.7s-0.3-0.7-0.7-0.7c-0.4,0-0.7,0.3-0.7,0.7C96.1,109.3,96.4,109.6,96.8,109.6
		z"/>
	<path class="st0" d="M102.8,109.6c0.4,0,0.7-0.3,0.7-0.7s-0.3-0.7-0.7-0.7s-0.7,0.3-0.7,0.7C102.1,109.3,102.4,109.6,102.8,109.6z"
		/>
	<path class="st0" d="M108.8,109.6c0.4,0,0.7-0.3,0.7-0.7s-0.3-0.7-0.7-0.7c-0.4,0-0.7,0.3-0.7,0.7
		C108,109.3,108.4,109.6,108.8,109.6z"/>
	<path class="st0" d="M114.8,109.6c0.4,0,0.7-0.3,0.7-0.7s-0.3-0.7-0.7-0.7s-0.7,0.3-0.7,0.7C114,109.3,114.3,109.6,114.8,109.6z"/>
	<path class="st0" d="M1.2,115.6c0.4,0,0.7-0.3,0.7-0.7c0-0.4-0.4-0.8-0.7-0.7c-0.4,0-0.7,0.3-0.7,0.7
		C0.5,115.3,0.8,115.6,1.2,115.6z"/>
	<path class="st0" d="M7.2,115.6c0.4,0,0.7-0.3,0.7-0.7c0-0.4-0.3-0.7-0.7-0.7c-0.4,0-0.7,0.3-0.7,0.7
		C6.4,115.3,6.8,115.6,7.2,115.6z"/>
	<path class="st0" d="M13.1,115.6c0.4,0,0.7-0.3,0.7-0.7c0-0.4-0.3-0.7-0.7-0.7s-0.7,0.3-0.7,0.7C12.4,115.3,12.7,115.6,13.1,115.6z
		"/>
	<path class="st0" d="M19.1,115.6c0.4,0,0.7-0.3,0.7-0.7c0-0.4-0.3-0.8-0.7-0.7c-0.4,0-0.7,0.3-0.7,0.7
		C18.4,115.3,18.7,115.6,19.1,115.6z"/>
	<path class="st0" d="M25.1,115.6c0.4,0,0.7-0.3,0.7-0.7c0-0.4-0.3-0.7-0.7-0.7c-0.4,0-0.7,0.3-0.7,0.7
		C24.4,115.3,24.7,115.6,25.1,115.6z"/>
	<path class="st0" d="M31.1,115.6c0.4,0,0.7-0.3,0.7-0.7c0-0.4-0.3-0.7-0.7-0.7s-0.7,0.3-0.7,0.7C30.4,115.3,30.7,115.6,31.1,115.6z
		"/>
	<path class="st0" d="M37.1,115.6c0.4,0,0.7-0.3,0.7-0.7c0-0.4-0.3-0.7-0.7-0.7s-0.7,0.3-0.7,0.7C36.3,115.3,36.7,115.6,37.1,115.6z
		"/>
	<path class="st0" d="M43,115.6c0.4,0,0.7-0.3,0.7-0.7c0-0.4-0.3-0.8-0.7-0.7c-0.4,0-0.7,0.3-0.7,0.7
		C42.3,115.3,42.6,115.6,43,115.6z"/>
	<path class="st0" d="M49,115.6c0.4,0,0.7-0.3,0.7-0.7c0-0.4-0.3-0.7-0.7-0.7c-0.4,0-0.7,0.3-0.7,0.7
		C48.3,115.3,48.6,115.6,49,115.6z"/>
	<path class="st0" d="M55,115.6c0.4,0,0.7-0.3,0.7-0.7c0-0.4-0.3-0.8-0.7-0.7c-0.4,0-0.7,0.3-0.7,0.7
		C54.3,115.3,54.6,115.6,55,115.6z"/>
	<path class="st0" d="M61,115.6c0.4,0,0.7-0.3,0.7-0.7c0-0.4-0.4-0.7-0.7-0.7c-0.4,0-0.7,0.3-0.7,0.7
		C60.3,115.3,60.6,115.6,61,115.6z"/>
	<path class="st0" d="M67,115.6c0.4,0,0.7-0.3,0.7-0.7c0-0.4-0.4-0.8-0.7-0.7c-0.4,0-0.7,0.3-0.7,0.7
		C66.2,115.3,66.6,115.6,67,115.6z"/>
	<path class="st0" d="M72.9,115.6c0.4,0,0.7-0.3,0.7-0.7c0-0.4-0.4-0.7-0.7-0.7c-0.4,0-0.7,0.3-0.7,0.7
		C72.2,115.3,72.5,115.6,72.9,115.6z"/>
	<path class="st0" d="M78.9,115.6c0.4,0,0.7-0.3,0.7-0.7c0-0.4-0.3-0.8-0.7-0.7c-0.4,0-0.7,0.3-0.7,0.7
		C78.1,115.3,78.5,115.6,78.9,115.6z"/>
	<path class="st0" d="M84.9,115.6c0.4,0,0.7-0.3,0.7-0.7c0-0.4-0.3-0.8-0.7-0.7c-0.4,0-0.7,0.3-0.7,0.7
		C84.1,115.3,84.4,115.6,84.9,115.6z"/>
	<path class="st0" d="M90.8,115.6c0.4,0,0.7-0.3,0.7-0.7c0-0.4-0.3-0.8-0.7-0.7c-0.4,0-0.7,0.3-0.7,0.7
		C90.1,115.3,90.4,115.6,90.8,115.6z"/>
	<path class="st0" d="M96.8,115.6c0.4,0,0.7-0.3,0.7-0.7c0-0.4-0.3-0.7-0.7-0.7c-0.4,0-0.7,0.3-0.7,0.7
		C96.1,115.3,96.4,115.6,96.8,115.6z"/>
	<path class="st0" d="M102.8,115.6c0.4,0,0.7-0.3,0.7-0.7c0-0.4-0.3-0.8-0.7-0.7c-0.4,0-0.7,0.3-0.7,0.7
		C102.1,115.3,102.4,115.6,102.8,115.6z"/>
	<path class="st0" d="M108.8,115.6c0.4,0,0.7-0.3,0.7-0.7c0-0.4-0.3-0.8-0.7-0.7c-0.4,0-0.7,0.3-0.7,0.7
		C108,115.3,108.4,115.6,108.8,115.6z"/>
	<circle class="st0" cx="114.8" cy="114.8" r="0.7"/>
	<path class="st0" d="M2,108.9c0-0.4-0.4-0.7-0.7-0.7c-0.2,0-0.3,0-0.5,0.1c0,0.4,0,0.7-0.1,1.1c0.1,0.1,0.3,0.2,0.5,0.2
		C1.6,109.6,2,109.3,2,108.9z"/>
	<path class="st0" d="M2,102.9c0-0.4-0.3-0.6-0.6-0.7c0,0.5-0.1,1-0.2,1.5l0,0C1.6,103.6,2,103.3,2,102.9z"/>
	<path class="st0" d="M7.9,79c0-0.4-0.3-0.7-0.7-0.7c0,0-0.1,0-0.1,0c-0.1,0.4-0.3,0.8-0.4,1.2c0.1,0.1,0.3,0.3,0.6,0.3
		C7.6,79.7,7.9,79.4,7.9,79z"/>
	<path class="st0" d="M55,19.9c0.4,0,0.7-0.3,0.7-0.7c0-0.3-0.2-0.6-0.5-0.7c-0.3,0.2-0.6,0.4-1,0.6c0,0,0,0,0,0.1
		C54.3,19.6,54.6,19.9,55,19.9z"/>
	<path class="st0" d="M78.9,8c0.4,0,0.7-0.3,0.7-0.7c0,0,0,0,0,0c-0.5,0.1-0.9,0.3-1.3,0.5C78.4,7.8,78.6,8,78.9,8z"/>
	<path class="st0" d="M109.4,1.6c-0.4,0-0.8,0-1.2,0.1c0.1,0.2,0.3,0.3,0.6,0.3C109.1,2,109.3,1.9,109.4,1.6z"/>
	<path class="st0" d="M114.8,2c0.3,0,0.6-0.2,0.7-0.5c-0.5,0-0.9,0-1.4,0C114.2,1.8,114.4,2,114.8,2z"/>
	<path class="st0" d="M2.7,96.9c0-0.3-0.2-0.6-0.4-0.7c-0.1,0.5-0.1,0.9-0.2,1.4C2.4,97.6,2.7,97.3,2.7,96.9z"/>
	<path class="st0" d="M3.9,90.9c0-0.3-0.1-0.5-0.4-0.6c-0.1,0.5-0.2,0.9-0.3,1.3C3.6,91.6,3.9,91.3,3.9,90.9z"/>
	<path class="st0" d="M9.4,73c0-0.2,0-0.3-0.2-0.5c-0.2,0.4-0.3,0.8-0.5,1.2C9.1,73.7,9.4,73.4,9.4,73z"/>
	<path class="st0" d="M15.1,61.8c0.4,0,0.7-0.3,0.7-0.7c0-0.4-0.3-0.7-0.6-0.7c-0.2,0.4-0.5,0.8-0.6,1.2
		C14.6,61.7,14.9,61.8,15.1,61.8z"/>
	<path class="st0" d="M102.8,3c0.4,0,0.7-0.3,0.7-0.7c0,0,0-0.1,0-0.1c-0.5,0-1,0.1-1.5,0.2C102.1,2.7,102.4,3,102.8,3z"/>
	<path class="st0" d="M97.5,2.9c-0.4,0-0.7,0.1-1.1,0.2c0.1,0.1,0.3,0.2,0.5,0.2C97.1,3.3,97.3,3.2,97.5,2.9z"/>
	<path class="st0" d="M91.5,4c-0.4,0.1-0.8,0.2-1.2,0.2c0.1,0.1,0.3,0.2,0.5,0.2C91.2,4.4,91.4,4.3,91.5,4z"/>
</g>
</svg>
