<svg xmlns="http://www.w3.org/2000/svg" width="159.946" height="34.276" viewBox="0 0 159.946 34.276"><defs><style>.a{fill:#0081c6;}</style></defs><g transform="translate(-187.829 -55)"><path d="M.69,12.475A2.239,2.239,0,0,1,.1,10.832,2.726,2.726,0,0,1,.306,9.708a2.037,2.037,0,0,1,.417-.6,1.748,1.748,0,0,1,.578-.4,2.52,2.52,0,0,1,.964-.173,2.124,2.124,0,0,1,1.583.6,2.279,2.279,0,0,1,.593,1.671,2.268,2.268,0,0,1-.589,1.66,2.108,2.108,0,0,1-1.575.6A2.131,2.131,0,0,1,.69,12.475Zm.683-2.8A1.634,1.634,0,0,0,1.031,10.8a1.617,1.617,0,0,0,.352,1.129,1.155,1.155,0,0,0,.891.383,1.146,1.146,0,0,0,.886-.381,1.649,1.649,0,0,0,.347-1.143A1.623,1.623,0,0,0,3.17,9.666a1.155,1.155,0,0,0-.9-.371A1.165,1.165,0,0,0,1.373,9.67ZM23.884,13V8.614h1.651a3.287,3.287,0,0,1,.851.084,1.5,1.5,0,0,1,.675.4,1.928,1.928,0,0,1,.427.71,3.163,3.163,0,0,1,.146,1.036,2.821,2.821,0,0,1-.137.932,1.925,1.925,0,0,1-.479.774,1.6,1.6,0,0,1-.635.35,2.812,2.812,0,0,1-.8.093Zm.9-.738h.674a2.5,2.5,0,0,0,.546-.042.863.863,0,0,0,.365-.182.924.924,0,0,0,.236-.423,2.8,2.8,0,0,0,.092-.8,2.561,2.561,0,0,0-.092-.78.988.988,0,0,0-.256-.425.871.871,0,0,0-.418-.206,4.2,4.2,0,0,0-.743-.041h-.405ZM22,13l-1.8-2.858V13h-.839V8.614h.878l1.831,2.926V8.614h.839V13Zm-6.84,0V8.614h3.317v.742H16.068v.971h2.246v.739H16.068v1.193h2.5V13Zm-4.531,0V8.614h1.789a5.278,5.278,0,0,1,.791.043,1.166,1.166,0,0,1,.468.182,1.125,1.125,0,0,1,.343.365.975.975,0,0,1,.137.513,1,1,0,0,1-.169.564,1.036,1.036,0,0,1-.459.386,1.169,1.169,0,0,1,.628.4,1.031,1.031,0,0,1,.22.66,1.278,1.278,0,0,1-.142.582,1.175,1.175,0,0,1-.387.451,1.3,1.3,0,0,1-.606.208q-.227.023-1.091.03Zm.9-.738h.836a4.089,4.089,0,0,0,.619-.028.558.558,0,0,0,.328-.174.533.533,0,0,0,.127-.373.564.564,0,0,0-.1-.335.556.556,0,0,0-.283-.2,3.147,3.147,0,0,0-.8-.063h-.73Zm0-1.9h.592c.352,0,.571,0,.656-.015a.593.593,0,0,0,.365-.157.454.454,0,0,0,.133-.342.473.473,0,0,0-.114-.33.524.524,0,0,0-.34-.154q-.135-.015-.772-.014h-.519ZM5.172,13V8.614H8.24v.742H6.076v1.037H7.943v.742H6.076V13ZM30.847,6.621c-2.523-.071-3.122-.957-3.122-2.229a2.2,2.2,0,0,1,1.068-1.769,1.733,1.733,0,0,1-.365-.371l-.055-.045a.1.1,0,0,1,.005-.028,1.342,1.342,0,0,1-.2-.715c0-.918,1-1.486,2.5-1.463,1.339.023,2.278.433,2.3,1.463a1.964,1.964,0,0,1-1.4,1.549l1.547,1.259a1.71,1.71,0,0,0,.168-.842c-.012-.167,0-.5,0-.5s-.006-.136.025-.166a.2.2,0,0,1,.1-.049h1.047a.424.424,0,0,1,.123.035c.085.073.03.494.03.732a4.508,4.508,0,0,1-.146,1.153c-.065.142-.149.338-.254.528l.768.533a.63.63,0,0,0,.245.1c.149.023.221,0,.27.072a.855.855,0,0,1,.02.281l0,.08c0,.105-.057.139-.165.139l-1.44,0a.568.568,0,0,1-.4-.193l-.254-.11a4.655,4.655,0,0,1-2.272.562ZM29.38,4.277c0,.765.219,1.242,1.615,1.265A2.77,2.77,0,0,0,32.3,5.306L29.836,3.36A1.247,1.247,0,0,0,29.38,4.277ZM29.7,1.464c0,.2.256.4.5.519a1.069,1.069,0,0,1,.271.107.54.54,0,0,0,.126.022c.2,0,.978-.313.978-.648,0-.287-.319-.551-.905-.576h-.062C30.061.887,29.7,1.187,29.7,1.464ZM72.311,6.488c-.076,0-.149,0-.223-.006a2.165,2.165,0,0,1-.544-.046,3.224,3.224,0,0,1-1.952-.8c-.428-.4-.784-.973-.784-2.543a2.926,2.926,0,0,1,1.238-2.6A4.838,4.838,0,0,1,72.323.013a7.345,7.345,0,0,1,1.959.205c.135.108.105.216.105.216l-.015,1.487a.2.2,0,0,1-.2.193H73.67a.2.2,0,0,1-.2-.193V1.855a.623.623,0,0,0-.22-.4A1.322,1.322,0,0,0,72.066,1a1.384,1.384,0,0,0-1.31.66,3.449,3.449,0,0,0-.185,1.535,3.606,3.606,0,0,0,.185,1.428,1.631,1.631,0,0,0,.654.724,2.107,2.107,0,0,0,.9.143h.022a2.1,2.1,0,0,0,.9-.143.994.994,0,0,0,.539-.67V4.608a.2.2,0,0,1,.2-.194h.507a.2.2,0,0,1,.2.194l.016,1.486a.2.2,0,0,1-.2.193,5.551,5.551,0,0,1-1.588.18,3.848,3.848,0,0,1-.443.024Zm-31,0c-.076,0-.149,0-.221-.006a2.233,2.233,0,0,1-.545-.045,3.223,3.223,0,0,1-1.951-.8c-.428-.394-.783-.973-.783-2.542a2.924,2.924,0,0,1,1.237-2.6A4.84,4.84,0,0,1,41.324.013a7.338,7.338,0,0,1,1.959.205c.135.108.105.216.105.216l-.015,1.487a.2.2,0,0,1-.2.193H42.67a.2.2,0,0,1-.2-.193V1.855a.623.623,0,0,0-.22-.4A1.316,1.316,0,0,0,41.066,1a1.388,1.388,0,0,0-1.311.661,3.483,3.483,0,0,0-.183,1.534,3.659,3.659,0,0,0,.183,1.428,1.635,1.635,0,0,0,.657.724,2.106,2.106,0,0,0,.9.144h.023a2.12,2.12,0,0,0,.9-.144.756.756,0,0,0,.121-.07V3.911H41.47a.2.2,0,0,1-.2-.192V3.072a.2.2,0,0,1,.2-.192h2.287a.194.194,0,0,1,.2.192l.016,1.488-.018.031,0,.018.016,1.486a.194.194,0,0,1-.2.193,11.417,11.417,0,0,1-1.874.18,3.815,3.815,0,0,1-.442.024ZM9.862,6.481a2.228,2.228,0,0,1-.545-.045,3.229,3.229,0,0,1-1.952-.8c-.428-.394-.782-.973-.782-2.542A2.926,2.926,0,0,1,7.817.493,4.7,4.7,0,0,1,9.974.016v0h.171v0A4.683,4.683,0,0,1,12.3.493a2.921,2.921,0,0,1,1.238,2.6c0,1.569-.356,2.147-.784,2.542a3.22,3.22,0,0,1-1.95.8,5.7,5.7,0,0,1-.659.049S9.9,6.484,9.862,6.481ZM8.529,1.657a3.444,3.444,0,0,0-.184,1.535A3.6,3.6,0,0,0,8.529,4.62a1.627,1.627,0,0,0,.655.724,2.056,2.056,0,0,0,.875.141,2.06,2.06,0,0,0,.876-.141,1.637,1.637,0,0,0,.655-.724,3.634,3.634,0,0,0,.184-1.427,3.458,3.458,0,0,0-.184-1.535A1.249,1.249,0,0,0,10.28,1H9.839A1.385,1.385,0,0,0,8.529,1.657ZM83.35,6.437c-1.634,0-2.179-.312-2.538-.866a3.012,3.012,0,0,1-.135-1.012V4.016l.005,0V1.384c0-.146-.348-.3-.614-.338a.078.078,0,0,1-.059-.024A.086.086,0,0,1,80,.961L80,.208A.059.059,0,0,1,80.06.15h2.875a.058.058,0,0,1,.058.058L83,.961a.1.1,0,0,1-.012.06.085.085,0,0,1-.062.024c-.265.042-.612.193-.612.338V4.154a2.944,2.944,0,0,0,.055.839.765.765,0,0,0,.529.318c.111.019.473.028.649.031s.535-.012.647-.031a.767.767,0,0,0,.528-.318,2.881,2.881,0,0,0,.055-.839V1.384c0-.146-.347-.3-.611-.338,0,0-.045,0-.061-.024a.09.09,0,0,1-.014-.06L84.1.208A.058.058,0,0,1,84.155.15h2.875a.059.059,0,0,1,.059.058L87.1.961a.107.107,0,0,1-.011.06.087.087,0,0,1-.062.024c-.266.042-.611.193-.611.338V4.013l0,0v.544a3.035,3.035,0,0,1-.131,1.012c-.361.554-.985.866-2.617.866ZM63.428,6.383H61.56c-.7,0-.956-.04-.956-.2V5.651l0-1.2c0-.1.035-.1.141-.1h.56c.109,0,.175.053.175.1l.129.305a2.286,2.286,0,0,0,.562.571,4.139,4.139,0,0,0,1.1.079c.32-.006.934-.112,1.032-.63s-.173-.816-.785-.912a17.916,17.916,0,0,1-2.008-.5,1.338,1.338,0,0,1-1.005-1.44A2,2,0,0,1,61.118.506,1.92,1.92,0,0,1,62.261.1h2.067c.318,0,.953,0,.953.106l0,1.6c0,.172-.041.211-.2.193h-.507a.193.193,0,0,1-.194-.193,2.68,2.68,0,0,0-.233-.456.842.842,0,0,0-.437-.311,2.01,2.01,0,0,0-.735-.081c-.321.007-1.031.1-1.031.632s.513.623,1.125.719a6.759,6.759,0,0,1,2.009.5c.516.312.574.789.612,1.679a2,2,0,0,1-.88,1.582,2.957,2.957,0,0,1-1.347.314Zm-40.7,0H20.864c-.7,0-.955-.04-.955-.2V5.651l0-1.2c0-.1.034-.1.144-.1h.558c.108,0,.176.053.176.1l.129.305a2.33,2.33,0,0,0,.561.571,4.149,4.149,0,0,0,1.1.079c.321-.006.934-.112,1.031-.63s-.171-.816-.783-.912a17.884,17.884,0,0,1-2.009-.5,1.337,1.337,0,0,1-1-1.44A1.988,1.988,0,0,1,20.423.506,1.919,1.919,0,0,1,21.566.1h2.066c.319,0,.956,0,.956.106l0,1.6c0,.172-.04.211-.2.193h-.5a.193.193,0,0,1-.2-.193,2.658,2.658,0,0,0-.232-.456.843.843,0,0,0-.439-.311,2,2,0,0,0-.733-.081c-.321.007-1.031.1-1.031.632s.515.623,1.126.719a6.766,6.766,0,0,1,2.009.5c.514.312.573.789.613,1.679a2,2,0,0,1-.882,1.582,2.952,2.952,0,0,1-1.346.314Zm-7.668-.012a.056.056,0,0,1-.059-.049h0V5.488a.057.057,0,0,1,.059-.047l.159-.032c.142-.024.344-.077.337-.16V3.609L13.827,1.183a.865.865,0,0,0-.448-.22c-.133-.005-.1-.04-.109-.22V.253c0-.105.086-.116.194-.116h2.464a.13.13,0,0,1,.133.149V.661c0,.142-.046.15-.128.15a.331.331,0,0,0-.23.107.475.475,0,0,0,.013.415l.732,1.039a.223.223,0,0,0,.185.134h.019a.239.239,0,0,0,.221-.142c.173-.263.577-.919.669-1.081A.59.59,0,0,0,17.62,1,.479.479,0,0,0,17.589.93a.216.216,0,0,0-.159-.1s-.173.04-.178-.056V.328c.005-.183.026-.193.2-.191h1.945c.149,0,.2.018.2.191v.5c0,.106,0,.17-.16.159l-.215.032a.574.574,0,0,0-.265.176c-.078.087-.328.416-.328.416L17.2,3.759V5.18c.013.1.294.229.508.262h.069a.058.058,0,0,1,.058.047v.834h0a.057.057,0,0,1-.058.049Zm73.063,0-.054,0h-.62a.059.059,0,0,1-.059-.058s0-.726,0-.726a.1.1,0,0,1,.017-.082.179.179,0,0,1,.067-.042c.267-.042.589-.193.595-.356V1.382c0-.148-.355-.327-.582-.352a.234.234,0,0,1-.073-.016.077.077,0,0,1-.024-.067s0-.75,0-.75a.059.059,0,0,1,.059-.059l4.864.006a1.2,1.2,0,0,1,1.21,1.185v.433a1.191,1.191,0,0,1-1.073,1.175h-.181a.074.074,0,0,0-.075.074.072.072,0,0,0,.075.071h.008v.01h.035c1.078,0,1.458.532,1.458,1.187V4.9A1.537,1.537,0,0,1,92.318,6.37Zm1.611-5.189c-.025.018-.025.083-.025.083V5.279a.094.094,0,0,0,.031.06l.057.012h1.415c.526,0,.912-.18.905-.8v-.27c-.005-.162-.173-.535-.841-.574h-.713a.2.2,0,0,1-.2-.192V2.84a.2.2,0,0,1,.2-.193l.637,0c.355.022.623-.422.617-.589V1.7a.6.6,0,0,0-.6-.534h-1.4A.166.166,0,0,0,89.739,1.182ZM.737,6.37l-.057,0H.062A.059.059,0,0,1,0,6.31V5.584A.1.1,0,0,1,.022,5.5a.172.172,0,0,1,.068-.042c.265-.042.587-.193.592-.356V1.382c0-.148-.354-.327-.581-.352a.242.242,0,0,1-.075-.016A.078.078,0,0,1,0,.948V.2A.059.059,0,0,1,.062.139L4.926.145A1.2,1.2,0,0,1,6.138,1.33v.433A1.191,1.191,0,0,1,5.062,2.939H4.883a.074.074,0,0,0-.074.074.072.072,0,0,0,.074.071h.008v.01h.035c1.079,0,1.459.532,1.459,1.187V4.9A1.537,1.537,0,0,1,4.926,6.37ZM2.348,1.182c-.025.018-.025.083-.025.083V5.279a.094.094,0,0,0,.031.06l.055.012H3.825c.525,0,.91-.18.9-.8v-.27c-.006-.162-.174-.535-.842-.574H3.176a.194.194,0,0,1-.2-.192V2.84a.2.2,0,0,1,.2-.193l.637,0c.355.022.623-.422.616-.589V1.7a.594.594,0,0,0-.6-.534h-1.4A.162.162,0,0,0,2.348,1.182ZM77.321,6.335h-2.1a.059.059,0,0,1-.059-.057l-.005-.754s-.006-.034.013-.058a.075.075,0,0,1,.06-.023c.266-.043.613-.194.613-.339V1.384c0-.146-.347-.3-.613-.338a.081.081,0,0,1-.06-.024.107.107,0,0,1-.013-.06l.005-.753A.059.059,0,0,1,75.217.15h2.624A.059.059,0,0,1,77.9.208L77.9.961a.084.084,0,0,1-.012.06.083.083,0,0,1-.061.024c-.265.042-.611.193-.611.338V5.1c0,.056.049.111.127.161h.671a1.98,1.98,0,0,0,.733-.081,1.343,1.343,0,0,0,.587-.527.853.853,0,0,0,.082-.328V4.082a.2.2,0,0,1,.2-.194h.506a.2.2,0,0,1,.2.194V5.373a.215.215,0,0,1,.019.084v.688a.193.193,0,0,1-.2.191Zm-20.136,0h-2.1a.058.058,0,0,1-.059-.057l-.008-.754s0-.034.013-.059a.081.081,0,0,1,.062-.023c.265-.043.612-.194.612-.339V1.4c0-.147-.347-.3-.612-.339a.086.086,0,0,1-.062-.024c-.017-.026-.009-.059-.013-.059l.008-.755a.057.057,0,0,1,.059-.056H57.7a.057.057,0,0,1,.058.056l.006.755a.094.094,0,0,1-.012.059.083.083,0,0,1-.061.024c-.266.043-.613.193-.613.339V5.1c0,.056.051.111.129.161h.67a1.989,1.989,0,0,0,.735-.081,1.344,1.344,0,0,0,.588-.527.886.886,0,0,0,.08-.328V4.082a.2.2,0,0,1,.2-.194h.506a.2.2,0,0,1,.2.194V5.373a.188.188,0,0,1,.02.084v.688a.192.192,0,0,1-.194.191Zm-4.523,0s-.237-.016-.277-.143a.871.871,0,0,1-.025-.2l.015-1.737c-.006-.163.023-.535-.646-.574H50.723a.194.194,0,0,1-.2-.193V2.814a.193.193,0,0,1,.2-.19h.907l.023-.006c.355.021.623-.47.617-.638V1.711a.594.594,0,0,0-.6-.534H50.154c-.135.063-.236.142-.236.221V5.1c0,.148.346.3.613.339a.084.084,0,0,1,.061.024.1.1,0,0,1,.012.059l-.005.754a.057.057,0,0,1-.058.057H47.916a.057.057,0,0,1-.058-.057l-.006-.754a.09.09,0,0,1,.011-.059.082.082,0,0,1,.06-.024c.268-.043.614-.191.614-.339V1.4c0-.147-.346-.3-.614-.338a.079.079,0,0,1-.06-.023.1.1,0,0,1-.012-.06l.007-.752a.059.059,0,0,1,.058-.059H50.14V.159h2.626a1.2,1.2,0,0,1,1.211,1.184V1.69A1.243,1.243,0,0,1,52.9,2.916h-.181a.072.072,0,1,0,0,.144h.008v.01h.035c1.078,0,1.263.53,1.263,1.185l0,.844c0,.148.346.3.612.339a.082.082,0,0,1,.061.024.114.114,0,0,1,.013.059l-.007.754a.057.057,0,0,1-.059.057Zm-7.954,0a.058.058,0,0,1-.058-.057l-.006-.754s-.005-.034.013-.059a.085.085,0,0,1,.062-.024c.266-.043.612-.191.612-.339V1.4c0-.147-.346-.3-.612-.338a.083.083,0,0,1-.062-.023c-.018-.026-.009-.06-.013-.06l.006-.753a.06.06,0,0,1,.058-.059h2.624a.059.059,0,0,1,.058.059L47.4.977a.118.118,0,0,1-.013.06c-.017.025-.06.023-.06.023-.266.042-.613.192-.613.338V5.1c0,.148.347.3.613.339a.08.08,0,0,1,.06.024.114.114,0,0,1,.013.059l-.006.754a.057.057,0,0,1-.058.057Z" transform="translate(254 65.429)"/><path class="a" d="M-758.746,249.482l-.015-.014a3.208,3.208,0,0,1,.874-.524,4.276,4.276,0,0,1,1.294-.227,4.268,4.268,0,0,1,1.293.227,3.235,3.235,0,0,1,.874.524l-.016.014,17.659,17.359-.72.706.014.015a3.519,3.519,0,0,1-2.158,1.08,3.012,3.012,0,0,1-2.176-1.08l.016-.015-9.233-9.1a4.718,4.718,0,0,0-3.7-1.822,5.936,5.936,0,0,0-3.833,1.822l-11.637,11.327,9.629,9.851a4.468,4.468,0,0,0,3.337,1.285,6.9,6.9,0,0,0,3.522-.739,5.2,5.2,0,0,0,2.7.739,6.892,6.892,0,0,0,3.52-.739,5.2,5.2,0,0,0,2.705.739,6.709,6.709,0,0,0,3.662-.826,5.057,5.057,0,0,0,2.832.826c.14,0,.283.006.431,0s.293,0,.432,0a4.461,4.461,0,0,0,3.335-1.285l15.931-15.757-1.6-1.568-15.945,15.77.015.014a3.333,3.333,0,0,1-.873.524,4.317,4.317,0,0,1-1.293.225,4.322,4.322,0,0,1-1.293-.225,3.4,3.4,0,0,1-.874-.524l.016-.014-17.66-17.36.722-.706-.016-.015a3.517,3.517,0,0,1,2.16-1.079,2.27,2.27,0,0,1,1.238.316l-.01.009,10.542,10.376.052-.052a4.494,4.494,0,0,0,3.274,1.369,5.919,5.919,0,0,0,3.833-1.823l11.635-11.325-9.63-9.853a4.455,4.455,0,0,0-3.335-1.282,6.887,6.887,0,0,0-3.522.738,5.179,5.179,0,0,0-2.7-.738,6.879,6.879,0,0,0-3.522.738,5.178,5.178,0,0,0-2.7-.738,6.665,6.665,0,0,0-3.662.826,5.042,5.042,0,0,0-2.832-.826c-.138,0-.283-.008-.43,0s-.292,0-.431,0a4.457,4.457,0,0,0-3.337,1.282l-15.93,15.759,1.6,1.569Zm1.6,29.343a3.188,3.188,0,0,1-1.836-.741l.015-.014-1.845-1.809-.264-.258-6.09-5.971,1.511-1.484,10.227,10.024A4.142,4.142,0,0,1-757.147,278.825Zm6.226,0a3.183,3.183,0,0,1-1.834-.741l.013-.014-1.842-1.809-.264-.258-9.21-9.028,1.512-1.485,13.344,13.081A4.144,4.144,0,0,1-750.921,278.825Zm8.135-.328a4.21,4.21,0,0,1-1.911.328,3.183,3.183,0,0,1-1.833-.741l.013-.014-1.843-1.809-.262-.258-12.327-12.083,1.666-1.64Zm5.471-29.772a3.191,3.191,0,0,1,1.833.744l-.015.014,1.846,1.807.263.26,6.089,5.968-1.51,1.486-10.225-10.026A4.182,4.182,0,0,1-737.315,248.725Zm-6.228,0a3.2,3.2,0,0,1,1.834.744l-.013.014,1.844,1.807.262.26,9.208,9.026-1.511,1.484-13.343-13.082A4.176,4.176,0,0,1-743.543,248.725Zm-6.225,0a3.193,3.193,0,0,1,1.831.744l-.014.014,1.842,1.807.265.26,12.327,12.082-1.666,1.64-16.495-16.218A4.224,4.224,0,0,1-749.767,248.725Z" transform="translate(964.12 -191.638)"/></g></svg>