<svg xmlns="http://www.w3.org/2000/svg" xmlns:xlink="http://www.w3.org/1999/xlink" width="265" height="265" viewBox="0 0 265 265"><defs><style>.a{fill:#0081c6;}.b{clip-path:url(#a);}.c{fill:#fff;}</style><clipPath id="a"><circle class="a" cx="125" cy="125" r="125" transform="translate(0.476 0.477)"/></clipPath></defs><g transform="translate(-3067 -1840)"><g class="b" transform="translate(3081.523 1854.523)"><g transform="translate(7.505 7.505)"><path class="a" d="M248,249a1,1,0,1,1,1,1A1,1,0,0,1,248,249Zm-8,0a1,1,0,1,1,1,1A1,1,0,0,1,240,249Zm-8,0a1,1,0,1,1,1,1A1,1,0,0,1,232,249Zm-8,0a1,1,0,1,1,1,1A1,1,0,0,1,224,249Zm-8,0a1,1,0,1,1,1,1A1,1,0,0,1,216,249Zm-8,0a1,1,0,1,1,1,1A1,1,0,0,1,208,249Zm-8,0a1,1,0,1,1,1,1A1,1,0,0,1,200,249Zm-8,0a1,1,0,1,1,1,1A1,1,0,0,1,192,249Zm-8,0a1,1,0,1,1,1,1A1,1,0,0,1,184,249Zm-8,0a1,1,0,1,1,1,1A1,1,0,0,1,176,249Zm-8,0a1,1,0,1,1,1,1A1,1,0,0,1,168,249Zm-8,0a1,1,0,1,1,1,1A1,1,0,0,1,160,249Zm-8,0a1,1,0,1,1,1,1A1,1,0,0,1,152,249Zm-8,0a1,1,0,1,1,1,1A1,1,0,0,1,144,249Zm-8,0a1,1,0,1,1,1,1A1,1,0,0,1,136,249Zm-8,0a1,1,0,1,1,1,1A1,1,0,0,1,128,249Zm-8,0a1,1,0,1,1,1,1A1,1,0,0,1,120,249Zm-8,0a1,1,0,1,1,1,1A1,1,0,0,1,112,249Zm-8,0a1,1,0,1,1,1,1A1,1,0,0,1,104,249Zm-8,0a1,1,0,1,1,1,1A1,1,0,0,1,96,249Zm-8,0a1,1,0,1,1,1,1A1,1,0,0,1,88,249Zm-8,0a1,1,0,1,1,1,1A1,1,0,0,1,80,249Zm-8,0a1,1,0,1,1,1,1A1,1,0,0,1,72,249Zm-8,0a1,1,0,1,1,1,1A1,1,0,0,1,64,249Zm-8,0a1,1,0,1,1,1,1A1,1,0,0,1,56,249Zm-8,0a1,1,0,1,1,1,1A1,1,0,0,1,48,249Zm-8,0a1,1,0,1,1,1,1A1,1,0,0,1,40,249Zm-8,0a1,1,0,1,1,1,1A1,1,0,0,1,32,249Zm-8,0a1,1,0,1,1,1,1A1,1,0,0,1,24,249Zm-8,0a1,1,0,1,1,1,1A1,1,0,0,1,16,249Zm-8,0a1,1,0,1,1,1,1A1,1,0,0,1,8,249Zm-8,0a1,1,0,1,1,1,1A1,1,0,0,1,0,249Zm248-8a1,1,0,1,1,1,1A1,1,0,0,1,248,241Zm-8,0a1,1,0,1,1,1,1A1,1,0,0,1,240,241Zm-8,0a1,1,0,1,1,1,1A1,1,0,0,1,232,241Zm-8,0a1,1,0,1,1,1,1A1,1,0,0,1,224,241Zm-8,0a1,1,0,1,1,1,1A1,1,0,0,1,216,241Zm-8,0a1,1,0,1,1,1,1A1,1,0,0,1,208,241Zm-8,0a1,1,0,1,1,1,1A1,1,0,0,1,200,241Zm-8,0a1,1,0,1,1,1,1A1,1,0,0,1,192,241Zm-8,0a1,1,0,1,1,1,1A1,1,0,0,1,184,241Zm-8,0a1,1,0,1,1,1,1A1,1,0,0,1,176,241Zm-8,0a1,1,0,1,1,1,1A1,1,0,0,1,168,241Zm-8,0a1,1,0,1,1,1,1A1,1,0,0,1,160,241Zm-8,0a1,1,0,1,1,1,1A1,1,0,0,1,152,241Zm-8,0a1,1,0,1,1,1,1A1,1,0,0,1,144,241Zm-8,0a1,1,0,1,1,1,1A1,1,0,0,1,136,241Zm-8,0a1,1,0,1,1,1,1A1,1,0,0,1,128,241Zm-8,0a1,1,0,1,1,1,1A1,1,0,0,1,120,241Zm-8,0a1,1,0,1,1,1,1A1,1,0,0,1,112,241Zm-8,0a1,1,0,1,1,1,1A1,1,0,0,1,104,241Zm-8,0a1,1,0,1,1,1,1A1,1,0,0,1,96,241Zm-8,0a1,1,0,1,1,1,1A1,1,0,0,1,88,241Zm-8,0a1,1,0,1,1,1,1A1,1,0,0,1,80,241Zm-8,0a1,1,0,1,1,1,1A1,1,0,0,1,72,241Zm-8,0a1,1,0,1,1,1,1A1,1,0,0,1,64,241Zm-8,0a1,1,0,1,1,1,1A1,1,0,0,1,56,241Zm-8,0a1,1,0,1,1,1,1A1,1,0,0,1,48,241Zm-8,0a1,1,0,1,1,1,1A1,1,0,0,1,40,241Zm-8,0a1,1,0,1,1,1,1A1,1,0,0,1,32,241Zm-8,0a1,1,0,1,1,1,1A1,1,0,0,1,24,241Zm-8,0a1,1,0,1,1,1,1A1,1,0,0,1,16,241Zm-8,0a1,1,0,1,1,1,1A1,1,0,0,1,8,241Zm-8,0a1,1,0,1,1,1,1A1,1,0,0,1,0,241Zm248-8a1,1,0,1,1,1,1A1,1,0,0,1,248,233Zm-8,0a1,1,0,1,1,1,1A1,1,0,0,1,240,233Zm-8,0a1,1,0,1,1,1,1A1,1,0,0,1,232,233Zm-8,0a1,1,0,1,1,1,1A1,1,0,0,1,224,233Zm-8,0a1,1,0,1,1,1,1A1,1,0,0,1,216,233Zm-8,0a1,1,0,1,1,1,1A1,1,0,0,1,208,233Zm-8,0a1,1,0,1,1,1,1A1,1,0,0,1,200,233Zm-8,0a1,1,0,1,1,1,1A1,1,0,0,1,192,233Zm-8,0a1,1,0,1,1,1,1A1,1,0,0,1,184,233Zm-8,0a1,1,0,1,1,1,1A1,1,0,0,1,176,233Zm-8,0a1,1,0,1,1,1,1A1,1,0,0,1,168,233Zm-8,0a1,1,0,1,1,1,1A1,1,0,0,1,160,233Zm-8,0a1,1,0,1,1,1,1A1,1,0,0,1,152,233Zm-8,0a1,1,0,1,1,1,1A1,1,0,0,1,144,233Zm-8,0a1,1,0,1,1,1,1A1,1,0,0,1,136,233Zm-8,0a1,1,0,1,1,1,1A1,1,0,0,1,128,233Zm-8,0a1,1,0,1,1,1,1A1,1,0,0,1,120,233Zm-8,0a1,1,0,1,1,1,1A1,1,0,0,1,112,233Zm-8,0a1,1,0,1,1,1,1A1,1,0,0,1,104,233Zm-8,0a1,1,0,1,1,1,1A1,1,0,0,1,96,233Zm-8,0a1,1,0,1,1,1,1A1,1,0,0,1,88,233Zm-8,0a1,1,0,1,1,1,1A1,1,0,0,1,80,233Zm-8,0a1,1,0,1,1,1,1A1,1,0,0,1,72,233Zm-8,0a1,1,0,1,1,1,1A1,1,0,0,1,64,233Zm-8,0a1,1,0,1,1,1,1A1,1,0,0,1,56,233Zm-8,0a1,1,0,1,1,1,1A1,1,0,0,1,48,233Zm-8,0a1,1,0,1,1,1,1A1,1,0,0,1,40,233Zm-8,0a1,1,0,1,1,1,1A1,1,0,0,1,32,233Zm-8,0a1,1,0,1,1,1,1A1,1,0,0,1,24,233Zm-8,0a1,1,0,1,1,1,1A1,1,0,0,1,16,233Zm-8,0a1,1,0,1,1,1,1A1,1,0,0,1,8,233Zm-8,0a1,1,0,1,1,1,1A1,1,0,0,1,0,233Zm248-8a1,1,0,1,1,1,1A1,1,0,0,1,248,225Zm-8,0a1,1,0,1,1,1,1A1,1,0,0,1,240,225Zm-8,0a1,1,0,1,1,1,1A1,1,0,0,1,232,225Zm-8,0a1,1,0,1,1,1,1A1,1,0,0,1,224,225Zm-8,0a1,1,0,1,1,1,1A1,1,0,0,1,216,225Zm-8,0a1,1,0,1,1,1,1A1,1,0,0,1,208,225Zm-8,0a1,1,0,1,1,1,1A1,1,0,0,1,200,225Zm-8,0a1,1,0,1,1,1,1A1,1,0,0,1,192,225Zm-8,0a1,1,0,1,1,1,1A1,1,0,0,1,184,225Zm-8,0a1,1,0,1,1,1,1A1,1,0,0,1,176,225Zm-8,0a1,1,0,1,1,1,1A1,1,0,0,1,168,225Zm-8,0a1,1,0,1,1,1,1A1,1,0,0,1,160,225Zm-8,0a1,1,0,1,1,1,1A1,1,0,0,1,152,225Zm-8,0a1,1,0,1,1,1,1A1,1,0,0,1,144,225Zm-8,0a1,1,0,1,1,1,1A1,1,0,0,1,136,225Zm-8,0a1,1,0,1,1,1,1A1,1,0,0,1,128,225Zm-8,0a1,1,0,1,1,1,1A1,1,0,0,1,120,225Zm-8,0a1,1,0,1,1,1,1A1,1,0,0,1,112,225Zm-8,0a1,1,0,1,1,1,1A1,1,0,0,1,104,225Zm-8,0a1,1,0,1,1,1,1A1,1,0,0,1,96,225Zm-8,0a1,1,0,1,1,1,1A1,1,0,0,1,88,225Zm-8,0a1,1,0,1,1,1,1A1,1,0,0,1,80,225Zm-8,0a1,1,0,1,1,1,1A1,1,0,0,1,72,225Zm-8,0a1,1,0,1,1,1,1A1,1,0,0,1,64,225Zm-8,0a1,1,0,1,1,1,1A1,1,0,0,1,56,225Zm-8,0a1,1,0,1,1,1,1A1,1,0,0,1,48,225Zm-8,0a1,1,0,1,1,1,1A1,1,0,0,1,40,225Zm-8,0a1,1,0,1,1,1,1A1,1,0,0,1,32,225Zm-8,0a1,1,0,1,1,1,1A1,1,0,0,1,24,225Zm-8,0a1,1,0,1,1,1,1A1,1,0,0,1,16,225Zm-8,0a1,1,0,1,1,1,1A1,1,0,0,1,8,225Zm-8,0a1,1,0,1,1,1,1A1,1,0,0,1,0,225Zm248-8a1,1,0,1,1,1,1A1,1,0,0,1,248,217Zm-8,0a1,1,0,1,1,1,1A1,1,0,0,1,240,217Zm-8,0a1,1,0,1,1,1,1A1,1,0,0,1,232,217Zm-8,0a1,1,0,1,1,1,1A1,1,0,0,1,224,217Zm-8,0a1,1,0,1,1,1,1A1,1,0,0,1,216,217Zm-8,0a1,1,0,1,1,1,1A1,1,0,0,1,208,217Zm-8,0a1,1,0,1,1,1,1A1,1,0,0,1,200,217Zm-8,0a1,1,0,1,1,1,1A1,1,0,0,1,192,217Zm-8,0a1,1,0,1,1,1,1A1,1,0,0,1,184,217Zm-8,0a1,1,0,1,1,1,1A1,1,0,0,1,176,217Zm-8,0a1,1,0,1,1,1,1A1,1,0,0,1,168,217Zm-8,0a1,1,0,1,1,1,1A1,1,0,0,1,160,217Zm-8,0a1,1,0,1,1,1,1A1,1,0,0,1,152,217Zm-8,0a1,1,0,1,1,1,1A1,1,0,0,1,144,217Zm-8,0a1,1,0,1,1,1,1A1,1,0,0,1,136,217Zm-8,0a1,1,0,1,1,1,1A1,1,0,0,1,128,217Zm-8,0a1,1,0,1,1,1,1A1,1,0,0,1,120,217Zm-8,0a1,1,0,1,1,1,1A1,1,0,0,1,112,217Zm-8,0a1,1,0,1,1,1,1A1,1,0,0,1,104,217Zm-8,0a1,1,0,1,1,1,1A1,1,0,0,1,96,217Zm-8,0a1,1,0,1,1,1,1A1,1,0,0,1,88,217Zm-8,0a1,1,0,1,1,1,1A1,1,0,0,1,80,217Zm-8,0a1,1,0,1,1,1,1A1,1,0,0,1,72,217Zm-8,0a1,1,0,1,1,1,1A1,1,0,0,1,64,217Zm-8,0a1,1,0,1,1,1,1A1,1,0,0,1,56,217Zm-8,0a1,1,0,1,1,1,1A1,1,0,0,1,48,217Zm-8,0a1,1,0,1,1,1,1A1,1,0,0,1,40,217Zm-8,0a1,1,0,1,1,1,1A1,1,0,0,1,32,217Zm-8,0a1,1,0,1,1,1,1A1,1,0,0,1,24,217Zm-8,0a1,1,0,1,1,1,1A1,1,0,0,1,16,217Zm-8,0a1,1,0,1,1,1,1A1,1,0,0,1,8,217Zm-8,0a1,1,0,1,1,1,1A1,1,0,0,1,0,217Zm248-8a1,1,0,1,1,1,1A1,1,0,0,1,248,209Zm-8,0a1,1,0,1,1,1,1A1,1,0,0,1,240,209Zm-8,0a1,1,0,1,1,1,1A1,1,0,0,1,232,209Zm-8,0a1,1,0,1,1,1,1A1,1,0,0,1,224,209Zm-8,0a1,1,0,1,1,1,1A1,1,0,0,1,216,209Zm-8,0a1,1,0,1,1,1,1A1,1,0,0,1,208,209Zm-8,0a1,1,0,1,1,1,1A1,1,0,0,1,200,209Zm-8,0a1,1,0,1,1,1,1A1,1,0,0,1,192,209Zm-8,0a1,1,0,1,1,1,1A1,1,0,0,1,184,209Zm-8,0a1,1,0,1,1,1,1A1,1,0,0,1,176,209Zm-8,0a1,1,0,1,1,1,1A1,1,0,0,1,168,209Zm-8,0a1,1,0,1,1,1,1A1,1,0,0,1,160,209Zm-8,0a1,1,0,1,1,1,1A1,1,0,0,1,152,209Zm-8,0a1,1,0,1,1,1,1A1,1,0,0,1,144,209Zm-8,0a1,1,0,1,1,1,1A1,1,0,0,1,136,209Zm-8,0a1,1,0,1,1,1,1A1,1,0,0,1,128,209Zm-8,0a1,1,0,1,1,1,1A1,1,0,0,1,120,209Zm-8,0a1,1,0,1,1,1,1A1,1,0,0,1,112,209Zm-8,0a1,1,0,1,1,1,1A1,1,0,0,1,104,209Zm-8,0a1,1,0,1,1,1,1A1,1,0,0,1,96,209Zm-8,0a1,1,0,1,1,1,1A1,1,0,0,1,88,209Zm-8,0a1,1,0,1,1,1,1A1,1,0,0,1,80,209Zm-8,0a1,1,0,1,1,1,1A1,1,0,0,1,72,209Zm-8,0a1,1,0,1,1,1,1A1,1,0,0,1,64,209Zm-8,0a1,1,0,1,1,1,1A1,1,0,0,1,56,209Zm-8,0a1,1,0,1,1,1,1A1,1,0,0,1,48,209Zm-8,0a1,1,0,1,1,1,1A1,1,0,0,1,40,209Zm-8,0a1,1,0,1,1,1,1A1,1,0,0,1,32,209Zm-8,0a1,1,0,1,1,1,1A1,1,0,0,1,24,209Zm-8,0a1,1,0,1,1,1,1A1,1,0,0,1,16,209Zm-8,0a1,1,0,1,1,1,1A1,1,0,0,1,8,209Zm-8,0a1,1,0,1,1,1,1A1,1,0,0,1,0,209Zm248-8a1,1,0,1,1,1,1A1,1,0,0,1,248,201Zm-8,0a1,1,0,1,1,1,1A1,1,0,0,1,240,201Zm-8,0a1,1,0,1,1,1,1A1,1,0,0,1,232,201Zm-8,0a1,1,0,1,1,1,1A1,1,0,0,1,224,201Zm-8,0a1,1,0,1,1,1,1A1,1,0,0,1,216,201Zm-8,0a1,1,0,1,1,1,1A1,1,0,0,1,208,201Zm-8,0a1,1,0,1,1,1,1A1,1,0,0,1,200,201Zm-8,0a1,1,0,1,1,1,1A1,1,0,0,1,192,201Zm-8,0a1,1,0,1,1,1,1A1,1,0,0,1,184,201Zm-8,0a1,1,0,1,1,1,1A1,1,0,0,1,176,201Zm-8,0a1,1,0,1,1,1,1A1,1,0,0,1,168,201Zm-8,0a1,1,0,1,1,1,1A1,1,0,0,1,160,201Zm-8,0a1,1,0,1,1,1,1A1,1,0,0,1,152,201Zm-8,0a1,1,0,1,1,1,1A1,1,0,0,1,144,201Zm-8,0a1,1,0,1,1,1,1A1,1,0,0,1,136,201Zm-8,0a1,1,0,1,1,1,1A1,1,0,0,1,128,201Zm-8,0a1,1,0,1,1,1,1A1,1,0,0,1,120,201Zm-8,0a1,1,0,1,1,1,1A1,1,0,0,1,112,201Zm-8,0a1,1,0,1,1,1,1A1,1,0,0,1,104,201Zm-8,0a1,1,0,1,1,1,1A1,1,0,0,1,96,201Zm-8,0a1,1,0,1,1,1,1A1,1,0,0,1,88,201Zm-8,0a1,1,0,1,1,1,1A1,1,0,0,1,80,201Zm-8,0a1,1,0,1,1,1,1A1,1,0,0,1,72,201Zm-8,0a1,1,0,1,1,1,1A1,1,0,0,1,64,201Zm-8,0a1,1,0,1,1,1,1A1,1,0,0,1,56,201Zm-8,0a1,1,0,1,1,1,1A1,1,0,0,1,48,201Zm-8,0a1,1,0,1,1,1,1A1,1,0,0,1,40,201Zm-8,0a1,1,0,1,1,1,1A1,1,0,0,1,32,201Zm-8,0a1,1,0,1,1,1,1A1,1,0,0,1,24,201Zm-8,0a1,1,0,1,1,1,1A1,1,0,0,1,16,201Zm-8,0a1,1,0,1,1,1,1A1,1,0,0,1,8,201Zm-8,0a1,1,0,1,1,1,1A1,1,0,0,1,0,201Zm248-8a1,1,0,1,1,1,1A1,1,0,0,1,248,193Zm-8,0a1,1,0,1,1,1,1A1,1,0,0,1,240,193Zm-8,0a1,1,0,1,1,1,1A1,1,0,0,1,232,193Zm-8,0a1,1,0,1,1,1,1A1,1,0,0,1,224,193Zm-8,0a1,1,0,1,1,1,1A1,1,0,0,1,216,193Zm-8,0a1,1,0,1,1,1,1A1,1,0,0,1,208,193Zm-8,0a1,1,0,1,1,1,1A1,1,0,0,1,200,193Zm-8,0a1,1,0,1,1,1,1A1,1,0,0,1,192,193Zm-8,0a1,1,0,1,1,1,1A1,1,0,0,1,184,193Zm-8,0a1,1,0,1,1,1,1A1,1,0,0,1,176,193Zm-8,0a1,1,0,1,1,1,1A1,1,0,0,1,168,193Zm-8,0a1,1,0,1,1,1,1A1,1,0,0,1,160,193Zm-8,0a1,1,0,1,1,1,1A1,1,0,0,1,152,193Zm-8,0a1,1,0,1,1,1,1A1,1,0,0,1,144,193Zm-8,0a1,1,0,1,1,1,1A1,1,0,0,1,136,193Zm-8,0a1,1,0,1,1,1,1A1,1,0,0,1,128,193Zm-8,0a1,1,0,1,1,1,1A1,1,0,0,1,120,193Zm-8,0a1,1,0,1,1,1,1A1,1,0,0,1,112,193Zm-8,0a1,1,0,1,1,1,1A1,1,0,0,1,104,193Zm-8,0a1,1,0,1,1,1,1A1,1,0,0,1,96,193Zm-8,0a1,1,0,1,1,1,1A1,1,0,0,1,88,193Zm-8,0a1,1,0,1,1,1,1A1,1,0,0,1,80,193Zm-8,0a1,1,0,1,1,1,1A1,1,0,0,1,72,193Zm-8,0a1,1,0,1,1,1,1A1,1,0,0,1,64,193Zm-8,0a1,1,0,1,1,1,1A1,1,0,0,1,56,193Zm-8,0a1,1,0,1,1,1,1A1,1,0,0,1,48,193Zm-8,0a1,1,0,1,1,1,1A1,1,0,0,1,40,193Zm-8,0a1,1,0,1,1,1,1A1,1,0,0,1,32,193Zm-8,0a1,1,0,1,1,1,1A1,1,0,0,1,24,193Zm-8,0a1,1,0,1,1,1,1A1,1,0,0,1,16,193Zm-8,0a1,1,0,1,1,1,1A1,1,0,0,1,8,193Zm-8,0a1,1,0,1,1,1,1A1,1,0,0,1,0,193Zm248-8a1,1,0,1,1,1,1A1,1,0,0,1,248,185Zm-8,0a1,1,0,1,1,1,1A1,1,0,0,1,240,185Zm-8,0a1,1,0,1,1,1,1A1,1,0,0,1,232,185Zm-8,0a1,1,0,1,1,1,1A1,1,0,0,1,224,185Zm-8,0a1,1,0,1,1,1,1A1,1,0,0,1,216,185Zm-8,0a1,1,0,1,1,1,1A1,1,0,0,1,208,185Zm-8,0a1,1,0,1,1,1,1A1,1,0,0,1,200,185Zm-8,0a1,1,0,1,1,1,1A1,1,0,0,1,192,185Zm-8,0a1,1,0,1,1,1,1A1,1,0,0,1,184,185Zm-8,0a1,1,0,1,1,1,1A1,1,0,0,1,176,185Zm-8,0a1,1,0,1,1,1,1A1,1,0,0,1,168,185Zm-8,0a1,1,0,1,1,1,1A1,1,0,0,1,160,185Zm-8,0a1,1,0,1,1,1,1A1,1,0,0,1,152,185Zm-8,0a1,1,0,1,1,1,1A1,1,0,0,1,144,185Zm-8,0a1,1,0,1,1,1,1A1,1,0,0,1,136,185Zm-8,0a1,1,0,1,1,1,1A1,1,0,0,1,128,185Zm-8,0a1,1,0,1,1,1,1A1,1,0,0,1,120,185Zm-8,0a1,1,0,1,1,1,1A1,1,0,0,1,112,185Zm-8,0a1,1,0,1,1,1,1A1,1,0,0,1,104,185Zm-8,0a1,1,0,1,1,1,1A1,1,0,0,1,96,185Zm-8,0a1,1,0,1,1,1,1A1,1,0,0,1,88,185Zm-8,0a1,1,0,1,1,1,1A1,1,0,0,1,80,185Zm-8,0a1,1,0,1,1,1,1A1,1,0,0,1,72,185Zm-8,0a1,1,0,1,1,1,1A1,1,0,0,1,64,185Zm-8,0a1,1,0,1,1,1,1A1,1,0,0,1,56,185Zm-8,0a1,1,0,1,1,1,1A1,1,0,0,1,48,185Zm-8,0a1,1,0,1,1,1,1A1,1,0,0,1,40,185Zm-8,0a1,1,0,1,1,1,1A1,1,0,0,1,32,185Zm-8,0a1,1,0,1,1,1,1A1,1,0,0,1,24,185Zm-8,0a1,1,0,1,1,1,1A1,1,0,0,1,16,185Zm-8,0a1,1,0,1,1,1,1A1,1,0,0,1,8,185Zm-8,0a1,1,0,1,1,1,1A1,1,0,0,1,0,185Zm248-8a1,1,0,1,1,1,1A1,1,0,0,1,248,177Zm-8,0a1,1,0,1,1,1,1A1,1,0,0,1,240,177Zm-8,0a1,1,0,1,1,1,1A1,1,0,0,1,232,177Zm-8,0a1,1,0,1,1,1,1A1,1,0,0,1,224,177Zm-8,0a1,1,0,1,1,1,1A1,1,0,0,1,216,177Zm-8,0a1,1,0,1,1,1,1A1,1,0,0,1,208,177Zm-8,0a1,1,0,1,1,1,1A1,1,0,0,1,200,177Zm-8,0a1,1,0,1,1,1,1A1,1,0,0,1,192,177Zm-8,0a1,1,0,1,1,1,1A1,1,0,0,1,184,177Zm-8,0a1,1,0,1,1,1,1A1,1,0,0,1,176,177Zm-8,0a1,1,0,1,1,1,1A1,1,0,0,1,168,177Zm-8,0a1,1,0,1,1,1,1A1,1,0,0,1,160,177Zm-8,0a1,1,0,1,1,1,1A1,1,0,0,1,152,177Zm-8,0a1,1,0,1,1,1,1A1,1,0,0,1,144,177Zm-8,0a1,1,0,1,1,1,1A1,1,0,0,1,136,177Zm-8,0a1,1,0,1,1,1,1A1,1,0,0,1,128,177Zm-8,0a1,1,0,1,1,1,1A1,1,0,0,1,120,177Zm-8,0a1,1,0,1,1,1,1A1,1,0,0,1,112,177Zm-8,0a1,1,0,1,1,1,1A1,1,0,0,1,104,177Zm-8,0a1,1,0,1,1,1,1A1,1,0,0,1,96,177Zm-8,0a1,1,0,1,1,1,1A1,1,0,0,1,88,177Zm-8,0a1,1,0,1,1,1,1A1,1,0,0,1,80,177Zm-8,0a1,1,0,1,1,1,1A1,1,0,0,1,72,177Zm-8,0a1,1,0,1,1,1,1A1,1,0,0,1,64,177Zm-8,0a1,1,0,1,1,1,1A1,1,0,0,1,56,177Zm-8,0a1,1,0,1,1,1,1A1,1,0,0,1,48,177Zm-8,0a1,1,0,1,1,1,1A1,1,0,0,1,40,177Zm-8,0a1,1,0,1,1,1,1A1,1,0,0,1,32,177Zm-8,0a1,1,0,1,1,1,1A1,1,0,0,1,24,177Zm-8,0a1,1,0,1,1,1,1A1,1,0,0,1,16,177Zm-8,0a1,1,0,1,1,1,1A1,1,0,0,1,8,177Zm-8,0a1,1,0,1,1,1,1A1,1,0,0,1,0,177Zm248-8a1,1,0,1,1,1,1A1,1,0,0,1,248,169Zm-8,0a1,1,0,1,1,1,1A1,1,0,0,1,240,169Zm-8,0a1,1,0,1,1,1,1A1,1,0,0,1,232,169Zm-8,0a1,1,0,1,1,1,1A1,1,0,0,1,224,169Zm-8,0a1,1,0,1,1,1,1A1,1,0,0,1,216,169Zm-8,0a1,1,0,1,1,1,1A1,1,0,0,1,208,169Zm-8,0a1,1,0,1,1,1,1A1,1,0,0,1,200,169Zm-8,0a1,1,0,1,1,1,1A1,1,0,0,1,192,169Zm-8,0a1,1,0,1,1,1,1A1,1,0,0,1,184,169Zm-8,0a1,1,0,1,1,1,1A1,1,0,0,1,176,169Zm-8,0a1,1,0,1,1,1,1A1,1,0,0,1,168,169Zm-8,0a1,1,0,1,1,1,1A1,1,0,0,1,160,169Zm-8,0a1,1,0,1,1,1,1A1,1,0,0,1,152,169Zm-8,0a1,1,0,1,1,1,1A1,1,0,0,1,144,169Zm-8,0a1,1,0,1,1,1,1A1,1,0,0,1,136,169Zm-8,0a1,1,0,1,1,1,1A1,1,0,0,1,128,169Zm-8,0a1,1,0,1,1,1,1A1,1,0,0,1,120,169Zm-8,0a1,1,0,1,1,1,1A1,1,0,0,1,112,169Zm-8,0a1,1,0,1,1,1,1A1,1,0,0,1,104,169Zm-8,0a1,1,0,1,1,1,1A1,1,0,0,1,96,169Zm-8,0a1,1,0,1,1,1,1A1,1,0,0,1,88,169Zm-8,0a1,1,0,1,1,1,1A1,1,0,0,1,80,169Zm-8,0a1,1,0,1,1,1,1A1,1,0,0,1,72,169Zm-8,0a1,1,0,1,1,1,1A1,1,0,0,1,64,169Zm-8,0a1,1,0,1,1,1,1A1,1,0,0,1,56,169Zm-8,0a1,1,0,1,1,1,1A1,1,0,0,1,48,169Zm-8,0a1,1,0,1,1,1,1A1,1,0,0,1,40,169Zm-8,0a1,1,0,1,1,1,1A1,1,0,0,1,32,169Zm-8,0a1,1,0,1,1,1,1A1,1,0,0,1,24,169Zm-8,0a1,1,0,1,1,1,1A1,1,0,0,1,16,169Zm-8,0a1,1,0,1,1,1,1A1,1,0,0,1,8,169Zm-8,0a1,1,0,1,1,1,1A1,1,0,0,1,0,169Zm248-8a1,1,0,1,1,1,1A1,1,0,0,1,248,161Zm-8,0a1,1,0,1,1,1,1A1,1,0,0,1,240,161Zm-8,0a1,1,0,1,1,1,1A1,1,0,0,1,232,161Zm-8,0a1,1,0,1,1,1,1A1,1,0,0,1,224,161Zm-8,0a1,1,0,1,1,1,1A1,1,0,0,1,216,161Zm-8,0a1,1,0,1,1,1,1A1,1,0,0,1,208,161Zm-8,0a1,1,0,1,1,1,1A1,1,0,0,1,200,161Zm-8,0a1,1,0,1,1,1,1A1,1,0,0,1,192,161Zm-8,0a1,1,0,1,1,1,1A1,1,0,0,1,184,161Zm-8,0a1,1,0,1,1,1,1A1,1,0,0,1,176,161Zm-8,0a1,1,0,1,1,1,1A1,1,0,0,1,168,161Zm-8,0a1,1,0,1,1,1,1A1,1,0,0,1,160,161Zm-8,0a1,1,0,1,1,1,1A1,1,0,0,1,152,161Zm-8,0a1,1,0,1,1,1,1A1,1,0,0,1,144,161Zm-8,0a1,1,0,1,1,1,1A1,1,0,0,1,136,161Zm-8,0a1,1,0,1,1,1,1A1,1,0,0,1,128,161Zm-8,0a1,1,0,1,1,1,1A1,1,0,0,1,120,161Zm-8,0a1,1,0,1,1,1,1A1,1,0,0,1,112,161Zm-8,0a1,1,0,1,1,1,1A1,1,0,0,1,104,161Zm-8,0a1,1,0,1,1,1,1A1,1,0,0,1,96,161Zm-8,0a1,1,0,1,1,1,1A1,1,0,0,1,88,161Zm-8,0a1,1,0,1,1,1,1A1,1,0,0,1,80,161Zm-8,0a1,1,0,1,1,1,1A1,1,0,0,1,72,161Zm-8,0a1,1,0,1,1,1,1A1,1,0,0,1,64,161Zm-8,0a1,1,0,1,1,1,1A1,1,0,0,1,56,161Zm-8,0a1,1,0,1,1,1,1A1,1,0,0,1,48,161Zm-8,0a1,1,0,1,1,1,1A1,1,0,0,1,40,161Zm-8,0a1,1,0,1,1,1,1A1,1,0,0,1,32,161Zm-8,0a1,1,0,1,1,1,1A1,1,0,0,1,24,161Zm-8,0a1,1,0,1,1,1,1A1,1,0,0,1,16,161Zm-8,0a1,1,0,1,1,1,1A1,1,0,0,1,8,161Zm-8,0a1,1,0,1,1,1,1A1,1,0,0,1,0,161Zm248-8a1,1,0,1,1,1,1A1,1,0,0,1,248,153Zm-8,0a1,1,0,1,1,1,1A1,1,0,0,1,240,153Zm-8,0a1,1,0,1,1,1,1A1,1,0,0,1,232,153Zm-8,0a1,1,0,1,1,1,1A1,1,0,0,1,224,153Zm-8,0a1,1,0,1,1,1,1A1,1,0,0,1,216,153Zm-8,0a1,1,0,1,1,1,1A1,1,0,0,1,208,153Zm-8,0a1,1,0,1,1,1,1A1,1,0,0,1,200,153Zm-8,0a1,1,0,1,1,1,1A1,1,0,0,1,192,153Zm-8,0a1,1,0,1,1,1,1A1,1,0,0,1,184,153Zm-8,0a1,1,0,1,1,1,1A1,1,0,0,1,176,153Zm-8,0a1,1,0,1,1,1,1A1,1,0,0,1,168,153Zm-8,0a1,1,0,1,1,1,1A1,1,0,0,1,160,153Zm-8,0a1,1,0,1,1,1,1A1,1,0,0,1,152,153Zm-8,0a1,1,0,1,1,1,1A1,1,0,0,1,144,153Zm-8,0a1,1,0,1,1,1,1A1,1,0,0,1,136,153Zm-8,0a1,1,0,1,1,1,1A1,1,0,0,1,128,153Zm-8,0a1,1,0,1,1,1,1A1,1,0,0,1,120,153Zm-8,0a1,1,0,1,1,1,1A1,1,0,0,1,112,153Zm-8,0a1,1,0,1,1,1,1A1,1,0,0,1,104,153Zm-8,0a1,1,0,1,1,1,1A1,1,0,0,1,96,153Zm-8,0a1,1,0,1,1,1,1A1,1,0,0,1,88,153Zm-8,0a1,1,0,1,1,1,1A1,1,0,0,1,80,153Zm-8,0a1,1,0,1,1,1,1A1,1,0,0,1,72,153Zm-8,0a1,1,0,1,1,1,1A1,1,0,0,1,64,153Zm-8,0a1,1,0,1,1,1,1A1,1,0,0,1,56,153Zm-8,0a1,1,0,1,1,1,1A1,1,0,0,1,48,153Zm-8,0a1,1,0,1,1,1,1A1,1,0,0,1,40,153Zm-8,0a1,1,0,1,1,1,1A1,1,0,0,1,32,153Zm-8,0a1,1,0,1,1,1,1A1,1,0,0,1,24,153Zm-8,0a1,1,0,1,1,1,1A1,1,0,0,1,16,153Zm-8,0a1,1,0,1,1,1,1A1,1,0,0,1,8,153Zm-8,0a1,1,0,1,1,1,1A1,1,0,0,1,0,153Zm248-8a1,1,0,1,1,1,1A1,1,0,0,1,248,145Zm-8,0a1,1,0,1,1,1,1A1,1,0,0,1,240,145Zm-8,0a1,1,0,1,1,1,1A1,1,0,0,1,232,145Zm-8,0a1,1,0,1,1,1,1A1,1,0,0,1,224,145Zm-8,0a1,1,0,1,1,1,1A1,1,0,0,1,216,145Zm-8,0a1,1,0,1,1,1,1A1,1,0,0,1,208,145Zm-8,0a1,1,0,1,1,1,1A1,1,0,0,1,200,145Zm-8,0a1,1,0,1,1,1,1A1,1,0,0,1,192,145Zm-8,0a1,1,0,1,1,1,1A1,1,0,0,1,184,145Zm-8,0a1,1,0,1,1,1,1A1,1,0,0,1,176,145Zm-8,0a1,1,0,1,1,1,1A1,1,0,0,1,168,145Zm-8,0a1,1,0,1,1,1,1A1,1,0,0,1,160,145Zm-8,0a1,1,0,1,1,1,1A1,1,0,0,1,152,145Zm-8,0a1,1,0,1,1,1,1A1,1,0,0,1,144,145Zm-8,0a1,1,0,1,1,1,1A1,1,0,0,1,136,145Zm-8,0a1,1,0,1,1,1,1A1,1,0,0,1,128,145Zm-8,0a1,1,0,1,1,1,1A1,1,0,0,1,120,145Zm-8,0a1,1,0,1,1,1,1A1,1,0,0,1,112,145Zm-8,0a1,1,0,1,1,1,1A1,1,0,0,1,104,145Zm-8,0a1,1,0,1,1,1,1A1,1,0,0,1,96,145Zm-8,0a1,1,0,1,1,1,1A1,1,0,0,1,88,145Zm-8,0a1,1,0,1,1,1,1A1,1,0,0,1,80,145Zm-8,0a1,1,0,1,1,1,1A1,1,0,0,1,72,145Zm-8,0a1,1,0,1,1,1,1A1,1,0,0,1,64,145Zm-8,0a1,1,0,1,1,1,1A1,1,0,0,1,56,145Zm-8,0a1,1,0,1,1,1,1A1,1,0,0,1,48,145Zm-8,0a1,1,0,1,1,1,1A1,1,0,0,1,40,145Zm-8,0a1,1,0,1,1,1,1A1,1,0,0,1,32,145Zm-8,0a1,1,0,1,1,1,1A1,1,0,0,1,24,145Zm-8,0a1,1,0,1,1,1,1A1,1,0,0,1,16,145Zm-8,0a1,1,0,1,1,1,1A1,1,0,0,1,8,145Zm-8,0a1,1,0,1,1,1,1A1,1,0,0,1,0,145Zm248-8a1,1,0,1,1,1,1A1,1,0,0,1,248,137Zm-8,0a1,1,0,1,1,1,1A1,1,0,0,1,240,137Zm-8,0a1,1,0,1,1,1,1A1,1,0,0,1,232,137Zm-8,0a1,1,0,1,1,1,1A1,1,0,0,1,224,137Zm-8,0a1,1,0,1,1,1,1A1,1,0,0,1,216,137Zm-8,0a1,1,0,1,1,1,1A1,1,0,0,1,208,137Zm-8,0a1,1,0,1,1,1,1A1,1,0,0,1,200,137Zm-8,0a1,1,0,1,1,1,1A1,1,0,0,1,192,137Zm-8,0a1,1,0,1,1,1,1A1,1,0,0,1,184,137Zm-8,0a1,1,0,1,1,1,1A1,1,0,0,1,176,137Zm-8,0a1,1,0,1,1,1,1A1,1,0,0,1,168,137Zm-8,0a1,1,0,1,1,1,1A1,1,0,0,1,160,137Zm-8,0a1,1,0,1,1,1,1A1,1,0,0,1,152,137Zm-8,0a1,1,0,1,1,1,1A1,1,0,0,1,144,137Zm-8,0a1,1,0,1,1,1,1A1,1,0,0,1,136,137Zm-8,0a1,1,0,1,1,1,1A1,1,0,0,1,128,137Zm-8,0a1,1,0,1,1,1,1A1,1,0,0,1,120,137Zm-8,0a1,1,0,1,1,1,1A1,1,0,0,1,112,137Zm-8,0a1,1,0,1,1,1,1A1,1,0,0,1,104,137Zm-8,0a1,1,0,1,1,1,1A1,1,0,0,1,96,137Zm-8,0a1,1,0,1,1,1,1A1,1,0,0,1,88,137Zm-8,0a1,1,0,1,1,1,1A1,1,0,0,1,80,137Zm-8,0a1,1,0,1,1,1,1A1,1,0,0,1,72,137Zm-8,0a1,1,0,1,1,1,1A1,1,0,0,1,64,137Zm-8,0a1,1,0,1,1,1,1A1,1,0,0,1,56,137Zm-8,0a1,1,0,1,1,1,1A1,1,0,0,1,48,137Zm-8,0a1,1,0,1,1,1,1A1,1,0,0,1,40,137Zm-8,0a1,1,0,1,1,1,1A1,1,0,0,1,32,137Zm-8,0a1,1,0,1,1,1,1A1,1,0,0,1,24,137Zm-8,0a1,1,0,1,1,1,1A1,1,0,0,1,16,137Zm-8,0a1,1,0,1,1,1,1A1,1,0,0,1,8,137Zm-8,0a1,1,0,1,1,1,1A1,1,0,0,1,0,137Zm248-8a1,1,0,1,1,1,1A1,1,0,0,1,248,129Zm-8,0a1,1,0,1,1,1,1A1,1,0,0,1,240,129Zm-8,0a1,1,0,1,1,1,1A1,1,0,0,1,232,129Zm-8,0a1,1,0,1,1,1,1A1,1,0,0,1,224,129Zm-8,0a1,1,0,1,1,1,1A1,1,0,0,1,216,129Zm-8,0a1,1,0,1,1,1,1A1,1,0,0,1,208,129Zm-8,0a1,1,0,1,1,1,1A1,1,0,0,1,200,129Zm-8,0a1,1,0,1,1,1,1A1,1,0,0,1,192,129Zm-8,0a1,1,0,1,1,1,1A1,1,0,0,1,184,129Zm-8,0a1,1,0,1,1,1,1A1,1,0,0,1,176,129Zm-8,0a1,1,0,1,1,1,1A1,1,0,0,1,168,129Zm-8,0a1,1,0,1,1,1,1A1,1,0,0,1,160,129Zm-8,0a1,1,0,1,1,1,1A1,1,0,0,1,152,129Zm-8,0a1,1,0,1,1,1,1A1,1,0,0,1,144,129Zm-8,0a1,1,0,1,1,1,1A1,1,0,0,1,136,129Zm-8,0a1,1,0,1,1,1,1A1,1,0,0,1,128,129Zm-8,0a1,1,0,1,1,1,1A1,1,0,0,1,120,129Zm-8,0a1,1,0,1,1,1,1A1,1,0,0,1,112,129Zm-8,0a1,1,0,1,1,1,1A1,1,0,0,1,104,129Zm-8,0a1,1,0,1,1,1,1A1,1,0,0,1,96,129Zm-8,0a1,1,0,1,1,1,1A1,1,0,0,1,88,129Zm-8,0a1,1,0,1,1,1,1A1,1,0,0,1,80,129Zm-8,0a1,1,0,1,1,1,1A1,1,0,0,1,72,129Zm-8,0a1,1,0,1,1,1,1A1,1,0,0,1,64,129Zm-8,0a1,1,0,1,1,1,1A1,1,0,0,1,56,129Zm-8,0a1,1,0,1,1,1,1A1,1,0,0,1,48,129Zm-8,0a1,1,0,1,1,1,1A1,1,0,0,1,40,129Zm-8,0a1,1,0,1,1,1,1A1,1,0,0,1,32,129Zm-8,0a1,1,0,1,1,1,1A1,1,0,0,1,24,129Zm-8,0a1,1,0,1,1,1,1A1,1,0,0,1,16,129Zm-8,0a1,1,0,1,1,1,1A1,1,0,0,1,8,129Zm-8,0a1,1,0,1,1,1,1A1,1,0,0,1,0,129Zm248-8a1,1,0,1,1,1,1A1,1,0,0,1,248,121Zm-8,0a1,1,0,1,1,1,1A1,1,0,0,1,240,121Zm-8,0a1,1,0,1,1,1,1A1,1,0,0,1,232,121Zm-8,0a1,1,0,1,1,1,1A1,1,0,0,1,224,121Zm-8,0a1,1,0,1,1,1,1A1,1,0,0,1,216,121Zm-8,0a1,1,0,1,1,1,1A1,1,0,0,1,208,121Zm-8,0a1,1,0,1,1,1,1A1,1,0,0,1,200,121Zm-8,0a1,1,0,1,1,1,1A1,1,0,0,1,192,121Zm-8,0a1,1,0,1,1,1,1A1,1,0,0,1,184,121Zm-8,0a1,1,0,1,1,1,1A1,1,0,0,1,176,121Zm-8,0a1,1,0,1,1,1,1A1,1,0,0,1,168,121Zm-8,0a1,1,0,1,1,1,1A1,1,0,0,1,160,121Zm-8,0a1,1,0,1,1,1,1A1,1,0,0,1,152,121Zm-8,0a1,1,0,1,1,1,1A1,1,0,0,1,144,121Zm-8,0a1,1,0,1,1,1,1A1,1,0,0,1,136,121Zm-8,0a1,1,0,1,1,1,1A1,1,0,0,1,128,121Zm-8,0a1,1,0,1,1,1,1A1,1,0,0,1,120,121Zm-8,0a1,1,0,1,1,1,1A1,1,0,0,1,112,121Zm-8,0a1,1,0,1,1,1,1A1,1,0,0,1,104,121Zm-8,0a1,1,0,1,1,1,1A1,1,0,0,1,96,121Zm-8,0a1,1,0,1,1,1,1A1,1,0,0,1,88,121Zm-8,0a1,1,0,1,1,1,1A1,1,0,0,1,80,121Zm-8,0a1,1,0,1,1,1,1A1,1,0,0,1,72,121Zm-8,0a1,1,0,1,1,1,1A1,1,0,0,1,64,121Zm-8,0a1,1,0,1,1,1,1A1,1,0,0,1,56,121Zm-8,0a1,1,0,1,1,1,1A1,1,0,0,1,48,121Zm-8,0a1,1,0,1,1,1,1A1,1,0,0,1,40,121Zm-8,0a1,1,0,1,1,1,1A1,1,0,0,1,32,121Zm-8,0a1,1,0,1,1,1,1A1,1,0,0,1,24,121Zm-8,0a1,1,0,1,1,1,1A1,1,0,0,1,16,121Zm-8,0a1,1,0,1,1,1,1A1,1,0,0,1,8,121Zm-8,0a1,1,0,1,1,1,1A1,1,0,0,1,0,121Zm248-8a1,1,0,1,1,1,1A1,1,0,0,1,248,113Zm-8,0a1,1,0,1,1,1,1A1,1,0,0,1,240,113Zm-8,0a1,1,0,1,1,1,1A1,1,0,0,1,232,113Zm-8,0a1,1,0,1,1,1,1A1,1,0,0,1,224,113Zm-8,0a1,1,0,1,1,1,1A1,1,0,0,1,216,113Zm-8,0a1,1,0,1,1,1,1A1,1,0,0,1,208,113Zm-8,0a1,1,0,1,1,1,1A1,1,0,0,1,200,113Zm-8,0a1,1,0,1,1,1,1A1,1,0,0,1,192,113Zm-8,0a1,1,0,1,1,1,1A1,1,0,0,1,184,113Zm-8,0a1,1,0,1,1,1,1A1,1,0,0,1,176,113Zm-8,0a1,1,0,1,1,1,1A1,1,0,0,1,168,113Zm-8,0a1,1,0,1,1,1,1A1,1,0,0,1,160,113Zm-8,0a1,1,0,1,1,1,1A1,1,0,0,1,152,113Zm-8,0a1,1,0,1,1,1,1A1,1,0,0,1,144,113Zm-8,0a1,1,0,1,1,1,1A1,1,0,0,1,136,113Zm-8,0a1,1,0,1,1,1,1A1,1,0,0,1,128,113Zm-8,0a1,1,0,1,1,1,1A1,1,0,0,1,120,113Zm-8,0a1,1,0,1,1,1,1A1,1,0,0,1,112,113Zm-8,0a1,1,0,1,1,1,1A1,1,0,0,1,104,113Zm-8,0a1,1,0,1,1,1,1A1,1,0,0,1,96,113Zm-8,0a1,1,0,1,1,1,1A1,1,0,0,1,88,113Zm-8,0a1,1,0,1,1,1,1A1,1,0,0,1,80,113Zm-8,0a1,1,0,1,1,1,1A1,1,0,0,1,72,113Zm-8,0a1,1,0,1,1,1,1A1,1,0,0,1,64,113Zm-8,0a1,1,0,1,1,1,1A1,1,0,0,1,56,113Zm-8,0a1,1,0,1,1,1,1A1,1,0,0,1,48,113Zm-8,0a1,1,0,1,1,1,1A1,1,0,0,1,40,113Zm-8,0a1,1,0,1,1,1,1A1,1,0,0,1,32,113Zm-8,0a1,1,0,1,1,1,1A1,1,0,0,1,24,113Zm-8,0a1,1,0,1,1,1,1A1,1,0,0,1,16,113Zm-8,0a1,1,0,1,1,1,1A1,1,0,0,1,8,113Zm-8,0a1,1,0,1,1,1,1A1,1,0,0,1,0,113Zm248-8a1,1,0,1,1,1,1A1,1,0,0,1,248,105Zm-8,0a1,1,0,1,1,1,1A1,1,0,0,1,240,105Zm-8,0a1,1,0,1,1,1,1A1,1,0,0,1,232,105Zm-8,0a1,1,0,1,1,1,1A1,1,0,0,1,224,105Zm-8,0a1,1,0,1,1,1,1A1,1,0,0,1,216,105Zm-8,0a1,1,0,1,1,1,1A1,1,0,0,1,208,105Zm-8,0a1,1,0,1,1,1,1A1,1,0,0,1,200,105Zm-8,0a1,1,0,1,1,1,1A1,1,0,0,1,192,105Zm-8,0a1,1,0,1,1,1,1A1,1,0,0,1,184,105Zm-8,0a1,1,0,1,1,1,1A1,1,0,0,1,176,105Zm-8,0a1,1,0,1,1,1,1A1,1,0,0,1,168,105Zm-8,0a1,1,0,1,1,1,1A1,1,0,0,1,160,105Zm-8,0a1,1,0,1,1,1,1A1,1,0,0,1,152,105Zm-8,0a1,1,0,1,1,1,1A1,1,0,0,1,144,105Zm-8,0a1,1,0,1,1,1,1A1,1,0,0,1,136,105Zm-8,0a1,1,0,1,1,1,1A1,1,0,0,1,128,105Zm-8,0a1,1,0,1,1,1,1A1,1,0,0,1,120,105Zm-8,0a1,1,0,1,1,1,1A1,1,0,0,1,112,105Zm-8,0a1,1,0,1,1,1,1A1,1,0,0,1,104,105Zm-8,0a1,1,0,1,1,1,1A1,1,0,0,1,96,105Zm-8,0a1,1,0,1,1,1,1A1,1,0,0,1,88,105Zm-8,0a1,1,0,1,1,1,1A1,1,0,0,1,80,105Zm-8,0a1,1,0,1,1,1,1A1,1,0,0,1,72,105Zm-8,0a1,1,0,1,1,1,1A1,1,0,0,1,64,105Zm-8,0a1,1,0,1,1,1,1A1,1,0,0,1,56,105Zm-8,0a1,1,0,1,1,1,1A1,1,0,0,1,48,105Zm-8,0a1,1,0,1,1,1,1A1,1,0,0,1,40,105Zm-8,0a1,1,0,1,1,1,1A1,1,0,0,1,32,105Zm-8,0a1,1,0,1,1,1,1A1,1,0,0,1,24,105Zm-8,0a1,1,0,1,1,1,1A1,1,0,0,1,16,105Zm-8,0a1,1,0,1,1,1,1A1,1,0,0,1,8,105Zm-8,0a1,1,0,1,1,1,1A1,1,0,0,1,0,105Zm248-8a1,1,0,1,1,1,1A1,1,0,0,1,248,97Zm-8,0a1,1,0,1,1,1,1A1,1,0,0,1,240,97Zm-8,0a1,1,0,1,1,1,1A1,1,0,0,1,232,97Zm-8,0a1,1,0,1,1,1,1A1,1,0,0,1,224,97Zm-8,0a1,1,0,1,1,1,1A1,1,0,0,1,216,97Zm-8,0a1,1,0,1,1,1,1A1,1,0,0,1,208,97Zm-8,0a1,1,0,1,1,1,1A1,1,0,0,1,200,97Zm-8,0a1,1,0,1,1,1,1A1,1,0,0,1,192,97Zm-8,0a1,1,0,1,1,1,1A1,1,0,0,1,184,97Zm-8,0a1,1,0,1,1,1,1A1,1,0,0,1,176,97Zm-8,0a1,1,0,1,1,1,1A1,1,0,0,1,168,97Zm-8,0a1,1,0,1,1,1,1A1,1,0,0,1,160,97Zm-8,0a1,1,0,1,1,1,1A1,1,0,0,1,152,97Zm-8,0a1,1,0,1,1,1,1A1,1,0,0,1,144,97Zm-8,0a1,1,0,1,1,1,1A1,1,0,0,1,136,97Zm-8,0a1,1,0,1,1,1,1A1,1,0,0,1,128,97Zm-8,0a1,1,0,1,1,1,1A1,1,0,0,1,120,97Zm-8,0a1,1,0,1,1,1,1A1,1,0,0,1,112,97Zm-8,0a1,1,0,1,1,1,1A1,1,0,0,1,104,97Zm-8,0a1,1,0,1,1,1,1A1,1,0,0,1,96,97Zm-8,0a1,1,0,1,1,1,1A1,1,0,0,1,88,97Zm-8,0a1,1,0,1,1,1,1A1,1,0,0,1,80,97Zm-8,0a1,1,0,1,1,1,1A1,1,0,0,1,72,97Zm-8,0a1,1,0,1,1,1,1A1,1,0,0,1,64,97Zm-8,0a1,1,0,1,1,1,1A1,1,0,0,1,56,97Zm-8,0a1,1,0,1,1,1,1A1,1,0,0,1,48,97Zm-8,0a1,1,0,1,1,1,1A1,1,0,0,1,40,97Zm-8,0a1,1,0,1,1,1,1A1,1,0,0,1,32,97Zm-8,0a1,1,0,1,1,1,1A1,1,0,0,1,24,97Zm-8,0a1,1,0,1,1,1,1A1,1,0,0,1,16,97ZM8,97a1,1,0,1,1,1,1A1,1,0,0,1,8,97ZM0,97a1,1,0,1,1,1,1A1,1,0,0,1,0,97Zm248-8a1,1,0,1,1,1,1A1,1,0,0,1,248,89Zm-8,0a1,1,0,1,1,1,1A1,1,0,0,1,240,89Zm-8,0a1,1,0,1,1,1,1A1,1,0,0,1,232,89Zm-8,0a1,1,0,1,1,1,1A1,1,0,0,1,224,89Zm-8,0a1,1,0,1,1,1,1A1,1,0,0,1,216,89Zm-8,0a1,1,0,1,1,1,1A1,1,0,0,1,208,89Zm-8,0a1,1,0,1,1,1,1A1,1,0,0,1,200,89Zm-8,0a1,1,0,1,1,1,1A1,1,0,0,1,192,89Zm-8,0a1,1,0,1,1,1,1A1,1,0,0,1,184,89Zm-8,0a1,1,0,1,1,1,1A1,1,0,0,1,176,89Zm-8,0a1,1,0,1,1,1,1A1,1,0,0,1,168,89Zm-8,0a1,1,0,1,1,1,1A1,1,0,0,1,160,89Zm-8,0a1,1,0,1,1,1,1A1,1,0,0,1,152,89Zm-8,0a1,1,0,1,1,1,1A1,1,0,0,1,144,89Zm-8,0a1,1,0,1,1,1,1A1,1,0,0,1,136,89Zm-8,0a1,1,0,1,1,1,1A1,1,0,0,1,128,89Zm-8,0a1,1,0,1,1,1,1A1,1,0,0,1,120,89Zm-8,0a1,1,0,1,1,1,1A1,1,0,0,1,112,89Zm-8,0a1,1,0,1,1,1,1A1,1,0,0,1,104,89Zm-8,0a1,1,0,1,1,1,1A1,1,0,0,1,96,89Zm-8,0a1,1,0,1,1,1,1A1,1,0,0,1,88,89Zm-8,0a1,1,0,1,1,1,1A1,1,0,0,1,80,89Zm-8,0a1,1,0,1,1,1,1A1,1,0,0,1,72,89Zm-8,0a1,1,0,1,1,1,1A1,1,0,0,1,64,89Zm-8,0a1,1,0,1,1,1,1A1,1,0,0,1,56,89Zm-8,0a1,1,0,1,1,1,1A1,1,0,0,1,48,89Zm-8,0a1,1,0,1,1,1,1A1,1,0,0,1,40,89Zm-8,0a1,1,0,1,1,1,1A1,1,0,0,1,32,89Zm-8,0a1,1,0,1,1,1,1A1,1,0,0,1,24,89Zm-8,0a1,1,0,1,1,1,1A1,1,0,0,1,16,89ZM8,89a1,1,0,1,1,1,1A1,1,0,0,1,8,89ZM0,89a1,1,0,1,1,1,1A1,1,0,0,1,0,89Zm248-8a1,1,0,1,1,1,1A1,1,0,0,1,248,81Zm-8,0a1,1,0,1,1,1,1A1,1,0,0,1,240,81Zm-8,0a1,1,0,1,1,1,1A1,1,0,0,1,232,81Zm-8,0a1,1,0,1,1,1,1A1,1,0,0,1,224,81Zm-8,0a1,1,0,1,1,1,1A1,1,0,0,1,216,81Zm-8,0a1,1,0,1,1,1,1A1,1,0,0,1,208,81Zm-8,0a1,1,0,1,1,1,1A1,1,0,0,1,200,81Zm-8,0a1,1,0,1,1,1,1A1,1,0,0,1,192,81Zm-8,0a1,1,0,1,1,1,1A1,1,0,0,1,184,81Zm-8,0a1,1,0,1,1,1,1A1,1,0,0,1,176,81Zm-8,0a1,1,0,1,1,1,1A1,1,0,0,1,168,81Zm-8,0a1,1,0,1,1,1,1A1,1,0,0,1,160,81Zm-8,0a1,1,0,1,1,1,1A1,1,0,0,1,152,81Zm-8,0a1,1,0,1,1,1,1A1,1,0,0,1,144,81Zm-8,0a1,1,0,1,1,1,1A1,1,0,0,1,136,81Zm-8,0a1,1,0,1,1,1,1A1,1,0,0,1,128,81Zm-8,0a1,1,0,1,1,1,1A1,1,0,0,1,120,81Zm-8,0a1,1,0,1,1,1,1A1,1,0,0,1,112,81Zm-8,0a1,1,0,1,1,1,1A1,1,0,0,1,104,81Zm-8,0a1,1,0,1,1,1,1A1,1,0,0,1,96,81Zm-8,0a1,1,0,1,1,1,1A1,1,0,0,1,88,81Zm-8,0a1,1,0,1,1,1,1A1,1,0,0,1,80,81Zm-8,0a1,1,0,1,1,1,1A1,1,0,0,1,72,81Zm-8,0a1,1,0,1,1,1,1A1,1,0,0,1,64,81Zm-8,0a1,1,0,1,1,1,1A1,1,0,0,1,56,81Zm-8,0a1,1,0,1,1,1,1A1,1,0,0,1,48,81Zm-8,0a1,1,0,1,1,1,1A1,1,0,0,1,40,81Zm-8,0a1,1,0,1,1,1,1A1,1,0,0,1,32,81Zm-8,0a1,1,0,1,1,1,1A1,1,0,0,1,24,81Zm-8,0a1,1,0,1,1,1,1A1,1,0,0,1,16,81ZM8,81a1,1,0,1,1,1,1A1,1,0,0,1,8,81ZM0,81a1,1,0,1,1,1,1A1,1,0,0,1,0,81Zm248-8a1,1,0,1,1,1,1A1,1,0,0,1,248,73Zm-8,0a1,1,0,1,1,1,1A1,1,0,0,1,240,73Zm-8,0a1,1,0,1,1,1,1A1,1,0,0,1,232,73Zm-8,0a1,1,0,1,1,1,1A1,1,0,0,1,224,73Zm-8,0a1,1,0,1,1,1,1A1,1,0,0,1,216,73Zm-8,0a1,1,0,1,1,1,1A1,1,0,0,1,208,73Zm-8,0a1,1,0,1,1,1,1A1,1,0,0,1,200,73Zm-8,0a1,1,0,1,1,1,1A1,1,0,0,1,192,73Zm-8,0a1,1,0,1,1,1,1A1,1,0,0,1,184,73Zm-8,0a1,1,0,1,1,1,1A1,1,0,0,1,176,73Zm-8,0a1,1,0,1,1,1,1A1,1,0,0,1,168,73Zm-8,0a1,1,0,1,1,1,1A1,1,0,0,1,160,73Zm-8,0a1,1,0,1,1,1,1A1,1,0,0,1,152,73Zm-8,0a1,1,0,1,1,1,1A1,1,0,0,1,144,73Zm-8,0a1,1,0,1,1,1,1A1,1,0,0,1,136,73Zm-8,0a1,1,0,1,1,1,1A1,1,0,0,1,128,73Zm-8,0a1,1,0,1,1,1,1A1,1,0,0,1,120,73Zm-8,0a1,1,0,1,1,1,1A1,1,0,0,1,112,73Zm-8,0a1,1,0,1,1,1,1A1,1,0,0,1,104,73Zm-8,0a1,1,0,1,1,1,1A1,1,0,0,1,96,73Zm-8,0a1,1,0,1,1,1,1A1,1,0,0,1,88,73Zm-8,0a1,1,0,1,1,1,1A1,1,0,0,1,80,73Zm-8,0a1,1,0,1,1,1,1A1,1,0,0,1,72,73Zm-8,0a1,1,0,1,1,1,1A1,1,0,0,1,64,73Zm-8,0a1,1,0,1,1,1,1A1,1,0,0,1,56,73Zm-8,0a1,1,0,1,1,1,1A1,1,0,0,1,48,73Zm-8,0a1,1,0,1,1,1,1A1,1,0,0,1,40,73Zm-8,0a1,1,0,1,1,1,1A1,1,0,0,1,32,73Zm-8,0a1,1,0,1,1,1,1A1,1,0,0,1,24,73Zm-8,0a1,1,0,1,1,1,1A1,1,0,0,1,16,73ZM8,73a1,1,0,1,1,1,1A1,1,0,0,1,8,73ZM0,73a1,1,0,1,1,1,1A1,1,0,0,1,0,73Zm248-8a1,1,0,1,1,1,1A1,1,0,0,1,248,65Zm-8,0a1,1,0,1,1,1,1A1,1,0,0,1,240,65Zm-8,0a1,1,0,1,1,1,1A1,1,0,0,1,232,65Zm-8,0a1,1,0,1,1,1,1A1,1,0,0,1,224,65Zm-8,0a1,1,0,1,1,1,1A1,1,0,0,1,216,65Zm-8,0a1,1,0,1,1,1,1A1,1,0,0,1,208,65Zm-8,0a1,1,0,1,1,1,1A1,1,0,0,1,200,65Zm-8,0a1,1,0,1,1,1,1A1,1,0,0,1,192,65Zm-8,0a1,1,0,1,1,1,1A1,1,0,0,1,184,65Zm-8,0a1,1,0,1,1,1,1A1,1,0,0,1,176,65Zm-8,0a1,1,0,1,1,1,1A1,1,0,0,1,168,65Zm-8,0a1,1,0,1,1,1,1A1,1,0,0,1,160,65Zm-8,0a1,1,0,1,1,1,1A1,1,0,0,1,152,65Zm-8,0a1,1,0,1,1,1,1A1,1,0,0,1,144,65Zm-8,0a1,1,0,1,1,1,1A1,1,0,0,1,136,65Zm-8,0a1,1,0,1,1,1,1A1,1,0,0,1,128,65Zm-8,0a1,1,0,1,1,1,1A1,1,0,0,1,120,65Zm-8,0a1,1,0,1,1,1,1A1,1,0,0,1,112,65Zm-8,0a1,1,0,1,1,1,1A1,1,0,0,1,104,65Zm-8,0a1,1,0,1,1,1,1A1,1,0,0,1,96,65Zm-8,0a1,1,0,1,1,1,1A1,1,0,0,1,88,65Zm-8,0a1,1,0,1,1,1,1A1,1,0,0,1,80,65Zm-8,0a1,1,0,1,1,1,1A1,1,0,0,1,72,65Zm-8,0a1,1,0,1,1,1,1A1,1,0,0,1,64,65Zm-8,0a1,1,0,1,1,1,1A1,1,0,0,1,56,65Zm-8,0a1,1,0,1,1,1,1A1,1,0,0,1,48,65Zm-8,0a1,1,0,1,1,1,1A1,1,0,0,1,40,65Zm-8,0a1,1,0,1,1,1,1A1,1,0,0,1,32,65Zm-8,0a1,1,0,1,1,1,1A1,1,0,0,1,24,65Zm-8,0a1,1,0,1,1,1,1A1,1,0,0,1,16,65ZM8,65a1,1,0,1,1,1,1A1,1,0,0,1,8,65ZM0,65a1,1,0,1,1,1,1A1,1,0,0,1,0,65Zm248-8a1,1,0,1,1,1,1A1,1,0,0,1,248,57Zm-8,0a1,1,0,1,1,1,1A1,1,0,0,1,240,57Zm-8,0a1,1,0,1,1,1,1A1,1,0,0,1,232,57Zm-8,0a1,1,0,1,1,1,1A1,1,0,0,1,224,57Zm-8,0a1,1,0,1,1,1,1A1,1,0,0,1,216,57Zm-8,0a1,1,0,1,1,1,1A1,1,0,0,1,208,57Zm-8,0a1,1,0,1,1,1,1A1,1,0,0,1,200,57Zm-8,0a1,1,0,1,1,1,1A1,1,0,0,1,192,57Zm-8,0a1,1,0,1,1,1,1A1,1,0,0,1,184,57Zm-8,0a1,1,0,1,1,1,1A1,1,0,0,1,176,57Zm-8,0a1,1,0,1,1,1,1A1,1,0,0,1,168,57Zm-8,0a1,1,0,1,1,1,1A1,1,0,0,1,160,57Zm-8,0a1,1,0,1,1,1,1A1,1,0,0,1,152,57Zm-8,0a1,1,0,1,1,1,1A1,1,0,0,1,144,57Zm-8,0a1,1,0,1,1,1,1A1,1,0,0,1,136,57Zm-8,0a1,1,0,1,1,1,1A1,1,0,0,1,128,57Zm-8,0a1,1,0,1,1,1,1A1,1,0,0,1,120,57Zm-8,0a1,1,0,1,1,1,1A1,1,0,0,1,112,57Zm-8,0a1,1,0,1,1,1,1A1,1,0,0,1,104,57Zm-8,0a1,1,0,1,1,1,1A1,1,0,0,1,96,57Zm-8,0a1,1,0,1,1,1,1A1,1,0,0,1,88,57Zm-8,0a1,1,0,1,1,1,1A1,1,0,0,1,80,57Zm-8,0a1,1,0,1,1,1,1A1,1,0,0,1,72,57Zm-8,0a1,1,0,1,1,1,1A1,1,0,0,1,64,57Zm-8,0a1,1,0,1,1,1,1A1,1,0,0,1,56,57Zm-8,0a1,1,0,1,1,1,1A1,1,0,0,1,48,57Zm-8,0a1,1,0,1,1,1,1A1,1,0,0,1,40,57Zm-8,0a1,1,0,1,1,1,1A1,1,0,0,1,32,57Zm-8,0a1,1,0,1,1,1,1A1,1,0,0,1,24,57Zm-8,0a1,1,0,1,1,1,1A1,1,0,0,1,16,57ZM8,57a1,1,0,1,1,1,1A1,1,0,0,1,8,57ZM0,57a1,1,0,1,1,1,1A1,1,0,0,1,0,57Zm248-8a1,1,0,1,1,1,1A1,1,0,0,1,248,49Zm-8,0a1,1,0,1,1,1,1A1,1,0,0,1,240,49Zm-8,0a1,1,0,1,1,1,1A1,1,0,0,1,232,49Zm-8,0a1,1,0,1,1,1,1A1,1,0,0,1,224,49Zm-8,0a1,1,0,1,1,1,1A1,1,0,0,1,216,49Zm-8,0a1,1,0,1,1,1,1A1,1,0,0,1,208,49Zm-8,0a1,1,0,1,1,1,1A1,1,0,0,1,200,49Zm-8,0a1,1,0,1,1,1,1A1,1,0,0,1,192,49Zm-8,0a1,1,0,1,1,1,1A1,1,0,0,1,184,49Zm-8,0a1,1,0,1,1,1,1A1,1,0,0,1,176,49Zm-8,0a1,1,0,1,1,1,1A1,1,0,0,1,168,49Zm-8,0a1,1,0,1,1,1,1A1,1,0,0,1,160,49Zm-8,0a1,1,0,1,1,1,1A1,1,0,0,1,152,49Zm-8,0a1,1,0,1,1,1,1A1,1,0,0,1,144,49Zm-8,0a1,1,0,1,1,1,1A1,1,0,0,1,136,49Zm-8,0a1,1,0,1,1,1,1A1,1,0,0,1,128,49Zm-8,0a1,1,0,1,1,1,1A1,1,0,0,1,120,49Zm-8,0a1,1,0,1,1,1,1A1,1,0,0,1,112,49Zm-8,0a1,1,0,1,1,1,1A1,1,0,0,1,104,49Zm-8,0a1,1,0,1,1,1,1A1,1,0,0,1,96,49Zm-8,0a1,1,0,1,1,1,1A1,1,0,0,1,88,49Zm-8,0a1,1,0,1,1,1,1A1,1,0,0,1,80,49Zm-8,0a1,1,0,1,1,1,1A1,1,0,0,1,72,49Zm-8,0a1,1,0,1,1,1,1A1,1,0,0,1,64,49Zm-8,0a1,1,0,1,1,1,1A1,1,0,0,1,56,49Zm-8,0a1,1,0,1,1,1,1A1,1,0,0,1,48,49Zm-8,0a1,1,0,1,1,1,1A1,1,0,0,1,40,49Zm-8,0a1,1,0,1,1,1,1A1,1,0,0,1,32,49Zm-8,0a1,1,0,1,1,1,1A1,1,0,0,1,24,49Zm-8,0a1,1,0,1,1,1,1A1,1,0,0,1,16,49ZM8,49a1,1,0,1,1,1,1A1,1,0,0,1,8,49ZM0,49a1,1,0,1,1,1,1A1,1,0,0,1,0,49Zm248-8a1,1,0,1,1,1,1A1,1,0,0,1,248,41Zm-8,0a1,1,0,1,1,1,1A1,1,0,0,1,240,41Zm-8,0a1,1,0,1,1,1,1A1,1,0,0,1,232,41Zm-8,0a1,1,0,1,1,1,1A1,1,0,0,1,224,41Zm-8,0a1,1,0,1,1,1,1A1,1,0,0,1,216,41Zm-8,0a1,1,0,1,1,1,1A1,1,0,0,1,208,41Zm-8,0a1,1,0,1,1,1,1A1,1,0,0,1,200,41Zm-8,0a1,1,0,1,1,1,1A1,1,0,0,1,192,41Zm-8,0a1,1,0,1,1,1,1A1,1,0,0,1,184,41Zm-8,0a1,1,0,1,1,1,1A1,1,0,0,1,176,41Zm-8,0a1,1,0,1,1,1,1A1,1,0,0,1,168,41Zm-8,0a1,1,0,1,1,1,1A1,1,0,0,1,160,41Zm-8,0a1,1,0,1,1,1,1A1,1,0,0,1,152,41Zm-8,0a1,1,0,1,1,1,1A1,1,0,0,1,144,41Zm-8,0a1,1,0,1,1,1,1A1,1,0,0,1,136,41Zm-8,0a1,1,0,1,1,1,1A1,1,0,0,1,128,41Zm-8,0a1,1,0,1,1,1,1A1,1,0,0,1,120,41Zm-8,0a1,1,0,1,1,1,1A1,1,0,0,1,112,41Zm-8,0a1,1,0,1,1,1,1A1,1,0,0,1,104,41Zm-8,0a1,1,0,1,1,1,1A1,1,0,0,1,96,41Zm-8,0a1,1,0,1,1,1,1A1,1,0,0,1,88,41Zm-8,0a1,1,0,1,1,1,1A1,1,0,0,1,80,41Zm-8,0a1,1,0,1,1,1,1A1,1,0,0,1,72,41Zm-8,0a1,1,0,1,1,1,1A1,1,0,0,1,64,41Zm-8,0a1,1,0,1,1,1,1A1,1,0,0,1,56,41Zm-8,0a1,1,0,1,1,1,1A1,1,0,0,1,48,41Zm-8,0a1,1,0,1,1,1,1A1,1,0,0,1,40,41Zm-8,0a1,1,0,1,1,1,1A1,1,0,0,1,32,41Zm-8,0a1,1,0,1,1,1,1A1,1,0,0,1,24,41Zm-8,0a1,1,0,1,1,1,1A1,1,0,0,1,16,41ZM8,41a1,1,0,1,1,1,1A1,1,0,0,1,8,41ZM0,41a1,1,0,1,1,1,1A1,1,0,0,1,0,41Zm248-8a1,1,0,1,1,1,1A1,1,0,0,1,248,33Zm-8,0a1,1,0,1,1,1,1A1,1,0,0,1,240,33Zm-8,0a1,1,0,1,1,1,1A1,1,0,0,1,232,33Zm-8,0a1,1,0,1,1,1,1A1,1,0,0,1,224,33Zm-8,0a1,1,0,1,1,1,1A1,1,0,0,1,216,33Zm-8,0a1,1,0,1,1,1,1A1,1,0,0,1,208,33Zm-8,0a1,1,0,1,1,1,1A1,1,0,0,1,200,33Zm-8,0a1,1,0,1,1,1,1A1,1,0,0,1,192,33Zm-8,0a1,1,0,1,1,1,1A1,1,0,0,1,184,33Zm-8,0a1,1,0,1,1,1,1A1,1,0,0,1,176,33Zm-8,0a1,1,0,1,1,1,1A1,1,0,0,1,168,33Zm-8,0a1,1,0,1,1,1,1A1,1,0,0,1,160,33Zm-8,0a1,1,0,1,1,1,1A1,1,0,0,1,152,33Zm-8,0a1,1,0,1,1,1,1A1,1,0,0,1,144,33Zm-8,0a1,1,0,1,1,1,1A1,1,0,0,1,136,33Zm-8,0a1,1,0,1,1,1,1A1,1,0,0,1,128,33Zm-8,0a1,1,0,1,1,1,1A1,1,0,0,1,120,33Zm-8,0a1,1,0,1,1,1,1A1,1,0,0,1,112,33Zm-8,0a1,1,0,1,1,1,1A1,1,0,0,1,104,33Zm-8,0a1,1,0,1,1,1,1A1,1,0,0,1,96,33Zm-8,0a1,1,0,1,1,1,1A1,1,0,0,1,88,33Zm-8,0a1,1,0,1,1,1,1A1,1,0,0,1,80,33Zm-8,0a1,1,0,1,1,1,1A1,1,0,0,1,72,33Zm-8,0a1,1,0,1,1,1,1A1,1,0,0,1,64,33Zm-8,0a1,1,0,1,1,1,1A1,1,0,0,1,56,33Zm-8,0a1,1,0,1,1,1,1A1,1,0,0,1,48,33Zm-8,0a1,1,0,1,1,1,1A1,1,0,0,1,40,33Zm-8,0a1,1,0,1,1,1,1A1,1,0,0,1,32,33Zm-8,0a1,1,0,1,1,1,1A1,1,0,0,1,24,33Zm-8,0a1,1,0,1,1,1,1A1,1,0,0,1,16,33ZM8,33a1,1,0,1,1,1,1A1,1,0,0,1,8,33ZM0,33a1,1,0,1,1,1,1A1,1,0,0,1,0,33Zm248-8a1,1,0,1,1,1,1A1,1,0,0,1,248,25Zm-8,0a1,1,0,1,1,1,1A1,1,0,0,1,240,25Zm-8,0a1,1,0,1,1,1,1A1,1,0,0,1,232,25Zm-8,0a1,1,0,1,1,1,1A1,1,0,0,1,224,25Zm-8,0a1,1,0,1,1,1,1A1,1,0,0,1,216,25Zm-8,0a1,1,0,1,1,1,1A1,1,0,0,1,208,25Zm-8,0a1,1,0,1,1,1,1A1,1,0,0,1,200,25Zm-8,0a1,1,0,1,1,1,1A1,1,0,0,1,192,25Zm-8,0a1,1,0,1,1,1,1A1,1,0,0,1,184,25Zm-8,0a1,1,0,1,1,1,1A1,1,0,0,1,176,25Zm-8,0a1,1,0,1,1,1,1A1,1,0,0,1,168,25Zm-8,0a1,1,0,1,1,1,1A1,1,0,0,1,160,25Zm-8,0a1,1,0,1,1,1,1A1,1,0,0,1,152,25Zm-8,0a1,1,0,1,1,1,1A1,1,0,0,1,144,25Zm-8,0a1,1,0,1,1,1,1A1,1,0,0,1,136,25Zm-8,0a1,1,0,1,1,1,1A1,1,0,0,1,128,25Zm-8,0a1,1,0,1,1,1,1A1,1,0,0,1,120,25Zm-8,0a1,1,0,1,1,1,1A1,1,0,0,1,112,25Zm-8,0a1,1,0,1,1,1,1A1,1,0,0,1,104,25Zm-8,0a1,1,0,1,1,1,1A1,1,0,0,1,96,25Zm-8,0a1,1,0,1,1,1,1A1,1,0,0,1,88,25Zm-8,0a1,1,0,1,1,1,1A1,1,0,0,1,80,25Zm-8,0a1,1,0,1,1,1,1A1,1,0,0,1,72,25Zm-8,0a1,1,0,1,1,1,1A1,1,0,0,1,64,25Zm-8,0a1,1,0,1,1,1,1A1,1,0,0,1,56,25Zm-8,0a1,1,0,1,1,1,1A1,1,0,0,1,48,25Zm-8,0a1,1,0,1,1,1,1A1,1,0,0,1,40,25Zm-8,0a1,1,0,1,1,1,1A1,1,0,0,1,32,25Zm-8,0a1,1,0,1,1,1,1A1,1,0,0,1,24,25Zm-8,0a1,1,0,1,1,1,1A1,1,0,0,1,16,25ZM8,25a1,1,0,1,1,1,1A1,1,0,0,1,8,25ZM0,25a1,1,0,1,1,1,1A1,1,0,0,1,0,25Zm248-8a1,1,0,1,1,1,1A1,1,0,0,1,248,17Zm-8,0a1,1,0,1,1,1,1A1,1,0,0,1,240,17Zm-8,0a1,1,0,1,1,1,1A1,1,0,0,1,232,17Zm-8,0a1,1,0,1,1,1,1A1,1,0,0,1,224,17Zm-8,0a1,1,0,1,1,1,1A1,1,0,0,1,216,17Zm-8,0a1,1,0,1,1,1,1A1,1,0,0,1,208,17Zm-8,0a1,1,0,1,1,1,1A1,1,0,0,1,200,17Zm-8,0a1,1,0,1,1,1,1A1,1,0,0,1,192,17Zm-8,0a1,1,0,1,1,1,1A1,1,0,0,1,184,17Zm-8,0a1,1,0,1,1,1,1A1,1,0,0,1,176,17Zm-8,0a1,1,0,1,1,1,1A1,1,0,0,1,168,17Zm-8,0a1,1,0,1,1,1,1A1,1,0,0,1,160,17Zm-8,0a1,1,0,1,1,1,1A1,1,0,0,1,152,17Zm-8,0a1,1,0,1,1,1,1A1,1,0,0,1,144,17Zm-8,0a1,1,0,1,1,1,1A1,1,0,0,1,136,17Zm-8,0a1,1,0,1,1,1,1A1,1,0,0,1,128,17Zm-8,0a1,1,0,1,1,1,1A1,1,0,0,1,120,17Zm-8,0a1,1,0,1,1,1,1A1,1,0,0,1,112,17Zm-8,0a1,1,0,1,1,1,1A1,1,0,0,1,104,17Zm-8,0a1,1,0,1,1,1,1A1,1,0,0,1,96,17Zm-8,0a1,1,0,1,1,1,1A1,1,0,0,1,88,17Zm-8,0a1,1,0,1,1,1,1A1,1,0,0,1,80,17Zm-8,0a1,1,0,1,1,1,1A1,1,0,0,1,72,17Zm-8,0a1,1,0,1,1,1,1A1,1,0,0,1,64,17Zm-8,0a1,1,0,1,1,1,1A1,1,0,0,1,56,17Zm-8,0a1,1,0,1,1,1,1A1,1,0,0,1,48,17Zm-8,0a1,1,0,1,1,1,1A1,1,0,0,1,40,17Zm-8,0a1,1,0,1,1,1,1A1,1,0,0,1,32,17Zm-8,0a1,1,0,1,1,1,1A1,1,0,0,1,24,17Zm-8,0a1,1,0,1,1,1,1A1,1,0,0,1,16,17ZM8,17a1,1,0,1,1,1,1A1,1,0,0,1,8,17ZM0,17a1,1,0,1,1,1,1A1,1,0,0,1,0,17ZM248,9a1,1,0,1,1,1,1A1,1,0,0,1,248,9Zm-8,0a1,1,0,1,1,1,1A1,1,0,0,1,240,9Zm-8,0a1,1,0,1,1,1,1A1,1,0,0,1,232,9Zm-8,0a1,1,0,1,1,1,1A1,1,0,0,1,224,9Zm-8,0a1,1,0,1,1,1,1A1,1,0,0,1,216,9Zm-8,0a1,1,0,1,1,1,1A1,1,0,0,1,208,9Zm-8,0a1,1,0,1,1,1,1A1,1,0,0,1,200,9Zm-8,0a1,1,0,1,1,1,1A1,1,0,0,1,192,9Zm-8,0a1,1,0,1,1,1,1A1,1,0,0,1,184,9Zm-8,0a1,1,0,1,1,1,1A1,1,0,0,1,176,9Zm-8,0a1,1,0,1,1,1,1A1,1,0,0,1,168,9Zm-8,0a1,1,0,1,1,1,1A1,1,0,0,1,160,9Zm-8,0a1,1,0,1,1,1,1A1,1,0,0,1,152,9Zm-8,0a1,1,0,1,1,1,1A1,1,0,0,1,144,9Zm-8,0a1,1,0,1,1,1,1A1,1,0,0,1,136,9Zm-8,0a1,1,0,1,1,1,1A1,1,0,0,1,128,9Zm-8,0a1,1,0,1,1,1,1A1,1,0,0,1,120,9Zm-8,0a1,1,0,1,1,1,1A1,1,0,0,1,112,9Zm-8,0a1,1,0,1,1,1,1A1,1,0,0,1,104,9ZM96,9a1,1,0,1,1,1,1A1,1,0,0,1,96,9ZM88,9a1,1,0,1,1,1,1A1,1,0,0,1,88,9ZM80,9a1,1,0,1,1,1,1A1,1,0,0,1,80,9ZM72,9a1,1,0,1,1,1,1A1,1,0,0,1,72,9ZM64,9a1,1,0,1,1,1,1A1,1,0,0,1,64,9ZM56,9a1,1,0,1,1,1,1A1,1,0,0,1,56,9ZM48,9a1,1,0,1,1,1,1A1,1,0,0,1,48,9ZM40,9a1,1,0,1,1,1,1A1,1,0,0,1,40,9ZM32,9a1,1,0,1,1,1,1A1,1,0,0,1,32,9ZM24,9a1,1,0,1,1,1,1A1,1,0,0,1,24,9ZM16,9a1,1,0,1,1,1,1A1,1,0,0,1,16,9ZM8,9a1,1,0,1,1,1,1A1,1,0,0,1,8,9ZM0,9a1,1,0,1,1,1,1A1,1,0,0,1,0,9ZM248,1a1,1,0,1,1,1,1A1,1,0,0,1,248,1Zm-8,0a1,1,0,1,1,1,1A1,1,0,0,1,240,1Zm-8,0a1,1,0,1,1,1,1A1,1,0,0,1,232,1Zm-8,0a1,1,0,1,1,1,1A1,1,0,0,1,224,1Zm-8,0a1,1,0,1,1,1,1A1,1,0,0,1,216,1Zm-8,0a1,1,0,1,1,1,1A1,1,0,0,1,208,1Zm-8,0a1,1,0,1,1,1,1A1,1,0,0,1,200,1Zm-8,0a1,1,0,1,1,1,1A1,1,0,0,1,192,1Zm-8,0a1,1,0,1,1,1,1A1,1,0,0,1,184,1Zm-8,0a1,1,0,1,1,1,1A1,1,0,0,1,176,1Zm-8,0a1,1,0,1,1,1,1A1,1,0,0,1,168,1Zm-8,0a1,1,0,1,1,1,1A1,1,0,0,1,160,1Zm-8,0a1,1,0,1,1,1,1A1,1,0,0,1,152,1Zm-8,0a1,1,0,1,1,1,1A1,1,0,0,1,144,1Zm-8,0a1,1,0,1,1,1,1A1,1,0,0,1,136,1Zm-8,0a1,1,0,1,1,1,1A1,1,0,0,1,128,1Zm-8,0a1,1,0,1,1,1,1A1,1,0,0,1,120,1Zm-8,0a1,1,0,1,1,1,1A1,1,0,0,1,112,1Zm-8,0a1,1,0,1,1,1,1A1,1,0,0,1,104,1ZM96,1a1,1,0,1,1,1,1A1,1,0,0,1,96,1ZM88,1a1,1,0,1,1,1,1A1,1,0,0,1,88,1ZM80,1a1,1,0,1,1,1,1A1,1,0,0,1,80,1ZM72,1a1,1,0,1,1,1,1A1,1,0,0,1,72,1ZM64,1a1,1,0,1,1,1,1A1,1,0,0,1,64,1ZM56,1a1,1,0,1,1,1,1A1,1,0,0,1,56,1ZM48,1a1,1,0,1,1,1,1A1,1,0,0,1,48,1ZM40,1a1,1,0,1,1,1,1A1,1,0,0,1,40,1ZM32,1a1,1,0,1,1,1,1A1,1,0,0,1,32,1ZM24,1a1,1,0,1,1,1,1A1,1,0,0,1,24,1ZM16,1a1,1,0,1,1,1,1A1,1,0,0,1,16,1ZM8,1A1,1,0,1,1,9,2,1,1,0,0,1,8,1ZM0,1A1,1,0,1,1,1,2,1,1,0,0,1,0,1Z" transform="translate(250 250) rotate(180)"/></g></g><path class="a" d="M125,0A125,125,0,1,1,0,125,125,125,0,0,1,125,0Z" transform="translate(3067 1840)"/><g transform="translate(2530.076 111.285)"><path class="c" d="M642.6,1847.429a17.237,17.237,0,0,0-1.987-.122,11.705,11.705,0,0,0-11.6,11.782,11.947,11.947,0,0,0,11.372,11.776c.32.025.637.034.949.034a11.039,11.039,0,0,0,8.147-3.5,12.712,12.712,0,0,0,3.3-9.372,10.878,10.878,0,0,0-4.3-8.468,10.065,10.065,0,0,0-2.9-1.447A8.507,8.507,0,0,0,642.6,1847.429Zm4.138,11a6.649,6.649,0,0,1-1.674,4.836,4.911,4.911,0,0,1-3.726,1.585h0c-.16,0-.324-.006-.491-.018-2.871-.217-5.771-2.257-5.771-5.739a5.642,5.642,0,0,1,5.542-5.725C645.745,1853.367,646.581,1856.072,646.734,1858.429Z" transform="translate(13.354 21.183)"/><path class="c" d="M665.96,1831.963a14.578,14.578,0,1,0-14.577-14.577A14.594,14.594,0,0,0,665.96,1831.963Zm0-23.1a8.521,8.521,0,1,1-8.521,8.52A8.53,8.53,0,0,1,665.959,1808.865Z" transform="translate(22.666 2.663)"/><path class="c" d="M661.755,1926.256a2.928,2.928,0,0,0,2.767-2.927c.143-4.792.221-8.745.246-12.441,0-.381-.018-.844-.044-1.351-.021-.4-.05-1.022-.041-1.6l4.9-3.555a44.107,44.107,0,0,0,8.23-6.456,9.2,9.2,0,0,0,2.7-5.466l.045-.319c.133-.923.5-3.634-1.831-5.187,3.991-8.865,7.111-22.993,6.134-27.413a3.971,3.971,0,0,0-1.746-2.657c-1.381-.859-3.254-.964-7.024-1.106-3.725-.139-9.354-.351-11.9-2.057a3.489,3.489,0,0,1-.542-2.077.455.455,0,0,0,0-.077,1.643,1.643,0,0,1,.109-.595c.184-.323.9-.432,2.423-.548l.208-.015a85.377,85.377,0,0,0,9.323-1.3c8.551-1.6,18.436-4.079,26.886-10.369,6.881-5.118,10.453-12.127,13.288-18.937l.848-2.051a83.4,83.4,0,0,1,4.216-9.209.635.635,0,0,1,.136-.187,1.048,1.048,0,0,1,.453-.014c.031-.007.168.115.341.582a7.8,7.8,0,0,1,.252,3.159,59.512,59.512,0,0,1-1.238,9.051,61.818,61.818,0,0,1-5.353,14.893c-.678,1.328-1.491,2.622-2.355,3.99a34.853,34.853,0,0,0-4.062,7.884c-6.564,20.294-5.49,43.341-4.168,55.812,0,0,.244,3.219,3.188,3.1a2.907,2.907,0,0,0,2.929-2.92c-2.256-20.311-.9-39.536,3.821-54.13a29.865,29.865,0,0,1,3.42-6.514c.9-1.425,1.828-2.9,2.628-4.474a67.725,67.725,0,0,0,5.876-16.354,65.062,65.062,0,0,0,1.362-9.973,13.307,13.307,0,0,0-.62-5.644,6.286,6.286,0,0,0-5.321-4.478,6.353,6.353,0,0,0-6.575,3.264,89.39,89.39,0,0,0-4.53,9.864l-.836,2.022c-2.505,6.013-5.608,12.164-11.314,16.406a43.427,43.427,0,0,1-11.4,5.936c-4.622-3.464-11.25-5.731-16.261-6.729-3.5-.7-7.07-1.289-10.521-1.86-8.565-1.419-17.425-2.887-25.524-6.061a49.233,49.233,0,0,1-15.615-9.877c-1.235-1.15-2.393-2.377-3.623-3.678-.678-.718-1.355-1.436-2.048-2.14l-.4-.408a19.412,19.412,0,0,0-2.259-2.075c-4.805-3.57-8.365-2.743-10.507-1.421-2.711,1.666-4.122,5.753-3.882,8.579.283,3.264,2.134,6.017,3.621,8.231a67.287,67.287,0,0,0,11.2,12.856q3.206,2.866,6.439,5.7l1.071.933a15.564,15.564,0,0,1,4.121,4.688,24.424,24.424,0,0,1,1.16,5.8c.037,1.01,0,3.589-.044,6.574-.137,9.5-.2,17.891.3,22.877a4.983,4.983,0,0,0-2.648,4.271c-.368,4.754,3.559,8.383,6.427,11.031l.862.8a43.518,43.518,0,0,0,6.278,4.689c.368.238.694.431.986.6l.133.075c0,.1,0,.241,0,.406-.07,3.366.03,7.565.125,11.627.058,2.471.112,4.862.125,6.906.008,1.449,1.024,2.957,2.474,2.957,4.32,0,3.55-5.626,3.55-5.626-.024-1.389-.06-2.866-.093-4.373-.094-4-.19-8.13-.122-11.365.065-3.334-1.055-4.624-3.142-5.838-.215-.126-.456-.265-.725-.44a37.4,37.4,0,0,1-5.418-4.008c-.292-.275-.6-.561-.922-.858-1.515-1.4-3.662-3.383-4.309-5.063,1.3.486,3.808,1.755,8.211,5.081l.226.17a28,28,0,0,0,8.019,4.2,27.454,27.454,0,0,0,8.351,1.262c7.475,0,14.74-2.719,20.967-5.52a3.546,3.546,0,0,1-.64.848,36.66,36.66,0,0,1-11.481,7.824c-3.739,1.586-3.507,6.016-3.38,8.4.018.368.038.707.035.986-.02,2.885-.072,5.931-.161,9.42C658.547,1920.262,658.105,1926.256,661.755,1926.256Zm8.006-64.894a32.608,32.608,0,0,0,6.1.463c1,.036,2.239.083,3.155.16-.112,4.588-3.188,18.457-7.211,25.215-5.662,2.553-12.2,5.045-18.6,5.045a21.431,21.431,0,0,1-6.514-.974,21.73,21.73,0,0,1-6.223-3.276l-.208-.157a43.71,43.71,0,0,0-9.331-5.747c-.615-4.634-.439-16.843-.351-23.078.047-3.32.082-5.719.04-6.888a27.045,27.045,0,0,0-1.845-8.379,21.344,21.344,0,0,0-5.534-6.466l-1.017-.885q-3.214-2.832-6.412-5.679a61.2,61.2,0,0,1-10.159-11.635c-1.207-1.8-2.516-3.749-2.667-5.452a4.747,4.747,0,0,1,1.034-2.917c.317-.193,1.19-.731,3.695,1.133a13.91,13.91,0,0,1,1.539,1.443l.424.432c.654.667,1.307,1.358,1.959,2.049,1.239,1.313,2.522,2.671,3.9,3.953a55.281,55.281,0,0,0,17.531,11.082c8.694,3.409,17.87,4.928,26.743,6.4,3.4.564,6.925,1.147,10.33,1.826a43.563,43.563,0,0,1,9.453,3.092c-1.7.392-3.373.732-5,1.034a79.571,79.571,0,0,1-8.678,1.219l-.2.016c-2.157.165-5.42.413-7.237,3.612a7.592,7.592,0,0,0-.874,3.465c-.143,4.883,2.116,6.717,6.7,8.37S669.761,1861.362,669.761,1861.362Z" transform="translate(0 2.437)"/><path class="c" d="M638.923,1828.156c7.983,0,14.495-6.377,15.487-15.168a15.048,15.048,0,0,0-3.7-11.712,14.515,14.515,0,0,0-10.8-4.866c-8.63,0-16.493,7.74-16.493,16.238A15.525,15.525,0,0,0,638.923,1828.156Zm.984-25.686a8.334,8.334,0,0,1,6.282,2.844,8.975,8.975,0,0,1,2.2,7c-.533,4.717-3.72,9.791-9.469,9.791a9.46,9.46,0,0,1-9.449-9.45C629.473,1807.514,634.641,1802.47,639.908,1802.47Z" transform="translate(11.026 0)"/></g></g></svg>