<svg xmlns="http://www.w3.org/2000/svg" xmlns:xlink="http://www.w3.org/1999/xlink" width="265" height="265" viewBox="0 0 265 265"><defs><style>.a,.c,.f{fill:#ff8200;}.b{clip-path:url(#a);}.d{fill:#fff;}.e,.f{stroke:none;}</style><clipPath id="a"><circle class="a" cx="125" cy="125" r="125" transform="translate(0.476 0.477)"/></clipPath></defs><g transform="translate(-3067 -1840)"><g class="b" transform="translate(3081.523 1854.523)"><g transform="translate(7.505 7.505)"><path class="a" d="M248,249a1,1,0,1,1,1,1A1,1,0,0,1,248,249Zm-8,0a1,1,0,1,1,1,1A1,1,0,0,1,240,249Zm-8,0a1,1,0,1,1,1,1A1,1,0,0,1,232,249Zm-8,0a1,1,0,1,1,1,1A1,1,0,0,1,224,249Zm-8,0a1,1,0,1,1,1,1A1,1,0,0,1,216,249Zm-8,0a1,1,0,1,1,1,1A1,1,0,0,1,208,249Zm-8,0a1,1,0,1,1,1,1A1,1,0,0,1,200,249Zm-8,0a1,1,0,1,1,1,1A1,1,0,0,1,192,249Zm-8,0a1,1,0,1,1,1,1A1,1,0,0,1,184,249Zm-8,0a1,1,0,1,1,1,1A1,1,0,0,1,176,249Zm-8,0a1,1,0,1,1,1,1A1,1,0,0,1,168,249Zm-8,0a1,1,0,1,1,1,1A1,1,0,0,1,160,249Zm-8,0a1,1,0,1,1,1,1A1,1,0,0,1,152,249Zm-8,0a1,1,0,1,1,1,1A1,1,0,0,1,144,249Zm-8,0a1,1,0,1,1,1,1A1,1,0,0,1,136,249Zm-8,0a1,1,0,1,1,1,1A1,1,0,0,1,128,249Zm-8,0a1,1,0,1,1,1,1A1,1,0,0,1,120,249Zm-8,0a1,1,0,1,1,1,1A1,1,0,0,1,112,249Zm-8,0a1,1,0,1,1,1,1A1,1,0,0,1,104,249Zm-8,0a1,1,0,1,1,1,1A1,1,0,0,1,96,249Zm-8,0a1,1,0,1,1,1,1A1,1,0,0,1,88,249Zm-8,0a1,1,0,1,1,1,1A1,1,0,0,1,80,249Zm-8,0a1,1,0,1,1,1,1A1,1,0,0,1,72,249Zm-8,0a1,1,0,1,1,1,1A1,1,0,0,1,64,249Zm-8,0a1,1,0,1,1,1,1A1,1,0,0,1,56,249Zm-8,0a1,1,0,1,1,1,1A1,1,0,0,1,48,249Zm-8,0a1,1,0,1,1,1,1A1,1,0,0,1,40,249Zm-8,0a1,1,0,1,1,1,1A1,1,0,0,1,32,249Zm-8,0a1,1,0,1,1,1,1A1,1,0,0,1,24,249Zm-8,0a1,1,0,1,1,1,1A1,1,0,0,1,16,249Zm-8,0a1,1,0,1,1,1,1A1,1,0,0,1,8,249Zm-8,0a1,1,0,1,1,1,1A1,1,0,0,1,0,249Zm248-8a1,1,0,1,1,1,1A1,1,0,0,1,248,241Zm-8,0a1,1,0,1,1,1,1A1,1,0,0,1,240,241Zm-8,0a1,1,0,1,1,1,1A1,1,0,0,1,232,241Zm-8,0a1,1,0,1,1,1,1A1,1,0,0,1,224,241Zm-8,0a1,1,0,1,1,1,1A1,1,0,0,1,216,241Zm-8,0a1,1,0,1,1,1,1A1,1,0,0,1,208,241Zm-8,0a1,1,0,1,1,1,1A1,1,0,0,1,200,241Zm-8,0a1,1,0,1,1,1,1A1,1,0,0,1,192,241Zm-8,0a1,1,0,1,1,1,1A1,1,0,0,1,184,241Zm-8,0a1,1,0,1,1,1,1A1,1,0,0,1,176,241Zm-8,0a1,1,0,1,1,1,1A1,1,0,0,1,168,241Zm-8,0a1,1,0,1,1,1,1A1,1,0,0,1,160,241Zm-8,0a1,1,0,1,1,1,1A1,1,0,0,1,152,241Zm-8,0a1,1,0,1,1,1,1A1,1,0,0,1,144,241Zm-8,0a1,1,0,1,1,1,1A1,1,0,0,1,136,241Zm-8,0a1,1,0,1,1,1,1A1,1,0,0,1,128,241Zm-8,0a1,1,0,1,1,1,1A1,1,0,0,1,120,241Zm-8,0a1,1,0,1,1,1,1A1,1,0,0,1,112,241Zm-8,0a1,1,0,1,1,1,1A1,1,0,0,1,104,241Zm-8,0a1,1,0,1,1,1,1A1,1,0,0,1,96,241Zm-8,0a1,1,0,1,1,1,1A1,1,0,0,1,88,241Zm-8,0a1,1,0,1,1,1,1A1,1,0,0,1,80,241Zm-8,0a1,1,0,1,1,1,1A1,1,0,0,1,72,241Zm-8,0a1,1,0,1,1,1,1A1,1,0,0,1,64,241Zm-8,0a1,1,0,1,1,1,1A1,1,0,0,1,56,241Zm-8,0a1,1,0,1,1,1,1A1,1,0,0,1,48,241Zm-8,0a1,1,0,1,1,1,1A1,1,0,0,1,40,241Zm-8,0a1,1,0,1,1,1,1A1,1,0,0,1,32,241Zm-8,0a1,1,0,1,1,1,1A1,1,0,0,1,24,241Zm-8,0a1,1,0,1,1,1,1A1,1,0,0,1,16,241Zm-8,0a1,1,0,1,1,1,1A1,1,0,0,1,8,241Zm-8,0a1,1,0,1,1,1,1A1,1,0,0,1,0,241Zm248-8a1,1,0,1,1,1,1A1,1,0,0,1,248,233Zm-8,0a1,1,0,1,1,1,1A1,1,0,0,1,240,233Zm-8,0a1,1,0,1,1,1,1A1,1,0,0,1,232,233Zm-8,0a1,1,0,1,1,1,1A1,1,0,0,1,224,233Zm-8,0a1,1,0,1,1,1,1A1,1,0,0,1,216,233Zm-8,0a1,1,0,1,1,1,1A1,1,0,0,1,208,233Zm-8,0a1,1,0,1,1,1,1A1,1,0,0,1,200,233Zm-8,0a1,1,0,1,1,1,1A1,1,0,0,1,192,233Zm-8,0a1,1,0,1,1,1,1A1,1,0,0,1,184,233Zm-8,0a1,1,0,1,1,1,1A1,1,0,0,1,176,233Zm-8,0a1,1,0,1,1,1,1A1,1,0,0,1,168,233Zm-8,0a1,1,0,1,1,1,1A1,1,0,0,1,160,233Zm-8,0a1,1,0,1,1,1,1A1,1,0,0,1,152,233Zm-8,0a1,1,0,1,1,1,1A1,1,0,0,1,144,233Zm-8,0a1,1,0,1,1,1,1A1,1,0,0,1,136,233Zm-8,0a1,1,0,1,1,1,1A1,1,0,0,1,128,233Zm-8,0a1,1,0,1,1,1,1A1,1,0,0,1,120,233Zm-8,0a1,1,0,1,1,1,1A1,1,0,0,1,112,233Zm-8,0a1,1,0,1,1,1,1A1,1,0,0,1,104,233Zm-8,0a1,1,0,1,1,1,1A1,1,0,0,1,96,233Zm-8,0a1,1,0,1,1,1,1A1,1,0,0,1,88,233Zm-8,0a1,1,0,1,1,1,1A1,1,0,0,1,80,233Zm-8,0a1,1,0,1,1,1,1A1,1,0,0,1,72,233Zm-8,0a1,1,0,1,1,1,1A1,1,0,0,1,64,233Zm-8,0a1,1,0,1,1,1,1A1,1,0,0,1,56,233Zm-8,0a1,1,0,1,1,1,1A1,1,0,0,1,48,233Zm-8,0a1,1,0,1,1,1,1A1,1,0,0,1,40,233Zm-8,0a1,1,0,1,1,1,1A1,1,0,0,1,32,233Zm-8,0a1,1,0,1,1,1,1A1,1,0,0,1,24,233Zm-8,0a1,1,0,1,1,1,1A1,1,0,0,1,16,233Zm-8,0a1,1,0,1,1,1,1A1,1,0,0,1,8,233Zm-8,0a1,1,0,1,1,1,1A1,1,0,0,1,0,233Zm248-8a1,1,0,1,1,1,1A1,1,0,0,1,248,225Zm-8,0a1,1,0,1,1,1,1A1,1,0,0,1,240,225Zm-8,0a1,1,0,1,1,1,1A1,1,0,0,1,232,225Zm-8,0a1,1,0,1,1,1,1A1,1,0,0,1,224,225Zm-8,0a1,1,0,1,1,1,1A1,1,0,0,1,216,225Zm-8,0a1,1,0,1,1,1,1A1,1,0,0,1,208,225Zm-8,0a1,1,0,1,1,1,1A1,1,0,0,1,200,225Zm-8,0a1,1,0,1,1,1,1A1,1,0,0,1,192,225Zm-8,0a1,1,0,1,1,1,1A1,1,0,0,1,184,225Zm-8,0a1,1,0,1,1,1,1A1,1,0,0,1,176,225Zm-8,0a1,1,0,1,1,1,1A1,1,0,0,1,168,225Zm-8,0a1,1,0,1,1,1,1A1,1,0,0,1,160,225Zm-8,0a1,1,0,1,1,1,1A1,1,0,0,1,152,225Zm-8,0a1,1,0,1,1,1,1A1,1,0,0,1,144,225Zm-8,0a1,1,0,1,1,1,1A1,1,0,0,1,136,225Zm-8,0a1,1,0,1,1,1,1A1,1,0,0,1,128,225Zm-8,0a1,1,0,1,1,1,1A1,1,0,0,1,120,225Zm-8,0a1,1,0,1,1,1,1A1,1,0,0,1,112,225Zm-8,0a1,1,0,1,1,1,1A1,1,0,0,1,104,225Zm-8,0a1,1,0,1,1,1,1A1,1,0,0,1,96,225Zm-8,0a1,1,0,1,1,1,1A1,1,0,0,1,88,225Zm-8,0a1,1,0,1,1,1,1A1,1,0,0,1,80,225Zm-8,0a1,1,0,1,1,1,1A1,1,0,0,1,72,225Zm-8,0a1,1,0,1,1,1,1A1,1,0,0,1,64,225Zm-8,0a1,1,0,1,1,1,1A1,1,0,0,1,56,225Zm-8,0a1,1,0,1,1,1,1A1,1,0,0,1,48,225Zm-8,0a1,1,0,1,1,1,1A1,1,0,0,1,40,225Zm-8,0a1,1,0,1,1,1,1A1,1,0,0,1,32,225Zm-8,0a1,1,0,1,1,1,1A1,1,0,0,1,24,225Zm-8,0a1,1,0,1,1,1,1A1,1,0,0,1,16,225Zm-8,0a1,1,0,1,1,1,1A1,1,0,0,1,8,225Zm-8,0a1,1,0,1,1,1,1A1,1,0,0,1,0,225Zm248-8a1,1,0,1,1,1,1A1,1,0,0,1,248,217Zm-8,0a1,1,0,1,1,1,1A1,1,0,0,1,240,217Zm-8,0a1,1,0,1,1,1,1A1,1,0,0,1,232,217Zm-8,0a1,1,0,1,1,1,1A1,1,0,0,1,224,217Zm-8,0a1,1,0,1,1,1,1A1,1,0,0,1,216,217Zm-8,0a1,1,0,1,1,1,1A1,1,0,0,1,208,217Zm-8,0a1,1,0,1,1,1,1A1,1,0,0,1,200,217Zm-8,0a1,1,0,1,1,1,1A1,1,0,0,1,192,217Zm-8,0a1,1,0,1,1,1,1A1,1,0,0,1,184,217Zm-8,0a1,1,0,1,1,1,1A1,1,0,0,1,176,217Zm-8,0a1,1,0,1,1,1,1A1,1,0,0,1,168,217Zm-8,0a1,1,0,1,1,1,1A1,1,0,0,1,160,217Zm-8,0a1,1,0,1,1,1,1A1,1,0,0,1,152,217Zm-8,0a1,1,0,1,1,1,1A1,1,0,0,1,144,217Zm-8,0a1,1,0,1,1,1,1A1,1,0,0,1,136,217Zm-8,0a1,1,0,1,1,1,1A1,1,0,0,1,128,217Zm-8,0a1,1,0,1,1,1,1A1,1,0,0,1,120,217Zm-8,0a1,1,0,1,1,1,1A1,1,0,0,1,112,217Zm-8,0a1,1,0,1,1,1,1A1,1,0,0,1,104,217Zm-8,0a1,1,0,1,1,1,1A1,1,0,0,1,96,217Zm-8,0a1,1,0,1,1,1,1A1,1,0,0,1,88,217Zm-8,0a1,1,0,1,1,1,1A1,1,0,0,1,80,217Zm-8,0a1,1,0,1,1,1,1A1,1,0,0,1,72,217Zm-8,0a1,1,0,1,1,1,1A1,1,0,0,1,64,217Zm-8,0a1,1,0,1,1,1,1A1,1,0,0,1,56,217Zm-8,0a1,1,0,1,1,1,1A1,1,0,0,1,48,217Zm-8,0a1,1,0,1,1,1,1A1,1,0,0,1,40,217Zm-8,0a1,1,0,1,1,1,1A1,1,0,0,1,32,217Zm-8,0a1,1,0,1,1,1,1A1,1,0,0,1,24,217Zm-8,0a1,1,0,1,1,1,1A1,1,0,0,1,16,217Zm-8,0a1,1,0,1,1,1,1A1,1,0,0,1,8,217Zm-8,0a1,1,0,1,1,1,1A1,1,0,0,1,0,217Zm248-8a1,1,0,1,1,1,1A1,1,0,0,1,248,209Zm-8,0a1,1,0,1,1,1,1A1,1,0,0,1,240,209Zm-8,0a1,1,0,1,1,1,1A1,1,0,0,1,232,209Zm-8,0a1,1,0,1,1,1,1A1,1,0,0,1,224,209Zm-8,0a1,1,0,1,1,1,1A1,1,0,0,1,216,209Zm-8,0a1,1,0,1,1,1,1A1,1,0,0,1,208,209Zm-8,0a1,1,0,1,1,1,1A1,1,0,0,1,200,209Zm-8,0a1,1,0,1,1,1,1A1,1,0,0,1,192,209Zm-8,0a1,1,0,1,1,1,1A1,1,0,0,1,184,209Zm-8,0a1,1,0,1,1,1,1A1,1,0,0,1,176,209Zm-8,0a1,1,0,1,1,1,1A1,1,0,0,1,168,209Zm-8,0a1,1,0,1,1,1,1A1,1,0,0,1,160,209Zm-8,0a1,1,0,1,1,1,1A1,1,0,0,1,152,209Zm-8,0a1,1,0,1,1,1,1A1,1,0,0,1,144,209Zm-8,0a1,1,0,1,1,1,1A1,1,0,0,1,136,209Zm-8,0a1,1,0,1,1,1,1A1,1,0,0,1,128,209Zm-8,0a1,1,0,1,1,1,1A1,1,0,0,1,120,209Zm-8,0a1,1,0,1,1,1,1A1,1,0,0,1,112,209Zm-8,0a1,1,0,1,1,1,1A1,1,0,0,1,104,209Zm-8,0a1,1,0,1,1,1,1A1,1,0,0,1,96,209Zm-8,0a1,1,0,1,1,1,1A1,1,0,0,1,88,209Zm-8,0a1,1,0,1,1,1,1A1,1,0,0,1,80,209Zm-8,0a1,1,0,1,1,1,1A1,1,0,0,1,72,209Zm-8,0a1,1,0,1,1,1,1A1,1,0,0,1,64,209Zm-8,0a1,1,0,1,1,1,1A1,1,0,0,1,56,209Zm-8,0a1,1,0,1,1,1,1A1,1,0,0,1,48,209Zm-8,0a1,1,0,1,1,1,1A1,1,0,0,1,40,209Zm-8,0a1,1,0,1,1,1,1A1,1,0,0,1,32,209Zm-8,0a1,1,0,1,1,1,1A1,1,0,0,1,24,209Zm-8,0a1,1,0,1,1,1,1A1,1,0,0,1,16,209Zm-8,0a1,1,0,1,1,1,1A1,1,0,0,1,8,209Zm-8,0a1,1,0,1,1,1,1A1,1,0,0,1,0,209Zm248-8a1,1,0,1,1,1,1A1,1,0,0,1,248,201Zm-8,0a1,1,0,1,1,1,1A1,1,0,0,1,240,201Zm-8,0a1,1,0,1,1,1,1A1,1,0,0,1,232,201Zm-8,0a1,1,0,1,1,1,1A1,1,0,0,1,224,201Zm-8,0a1,1,0,1,1,1,1A1,1,0,0,1,216,201Zm-8,0a1,1,0,1,1,1,1A1,1,0,0,1,208,201Zm-8,0a1,1,0,1,1,1,1A1,1,0,0,1,200,201Zm-8,0a1,1,0,1,1,1,1A1,1,0,0,1,192,201Zm-8,0a1,1,0,1,1,1,1A1,1,0,0,1,184,201Zm-8,0a1,1,0,1,1,1,1A1,1,0,0,1,176,201Zm-8,0a1,1,0,1,1,1,1A1,1,0,0,1,168,201Zm-8,0a1,1,0,1,1,1,1A1,1,0,0,1,160,201Zm-8,0a1,1,0,1,1,1,1A1,1,0,0,1,152,201Zm-8,0a1,1,0,1,1,1,1A1,1,0,0,1,144,201Zm-8,0a1,1,0,1,1,1,1A1,1,0,0,1,136,201Zm-8,0a1,1,0,1,1,1,1A1,1,0,0,1,128,201Zm-8,0a1,1,0,1,1,1,1A1,1,0,0,1,120,201Zm-8,0a1,1,0,1,1,1,1A1,1,0,0,1,112,201Zm-8,0a1,1,0,1,1,1,1A1,1,0,0,1,104,201Zm-8,0a1,1,0,1,1,1,1A1,1,0,0,1,96,201Zm-8,0a1,1,0,1,1,1,1A1,1,0,0,1,88,201Zm-8,0a1,1,0,1,1,1,1A1,1,0,0,1,80,201Zm-8,0a1,1,0,1,1,1,1A1,1,0,0,1,72,201Zm-8,0a1,1,0,1,1,1,1A1,1,0,0,1,64,201Zm-8,0a1,1,0,1,1,1,1A1,1,0,0,1,56,201Zm-8,0a1,1,0,1,1,1,1A1,1,0,0,1,48,201Zm-8,0a1,1,0,1,1,1,1A1,1,0,0,1,40,201Zm-8,0a1,1,0,1,1,1,1A1,1,0,0,1,32,201Zm-8,0a1,1,0,1,1,1,1A1,1,0,0,1,24,201Zm-8,0a1,1,0,1,1,1,1A1,1,0,0,1,16,201Zm-8,0a1,1,0,1,1,1,1A1,1,0,0,1,8,201Zm-8,0a1,1,0,1,1,1,1A1,1,0,0,1,0,201Zm248-8a1,1,0,1,1,1,1A1,1,0,0,1,248,193Zm-8,0a1,1,0,1,1,1,1A1,1,0,0,1,240,193Zm-8,0a1,1,0,1,1,1,1A1,1,0,0,1,232,193Zm-8,0a1,1,0,1,1,1,1A1,1,0,0,1,224,193Zm-8,0a1,1,0,1,1,1,1A1,1,0,0,1,216,193Zm-8,0a1,1,0,1,1,1,1A1,1,0,0,1,208,193Zm-8,0a1,1,0,1,1,1,1A1,1,0,0,1,200,193Zm-8,0a1,1,0,1,1,1,1A1,1,0,0,1,192,193Zm-8,0a1,1,0,1,1,1,1A1,1,0,0,1,184,193Zm-8,0a1,1,0,1,1,1,1A1,1,0,0,1,176,193Zm-8,0a1,1,0,1,1,1,1A1,1,0,0,1,168,193Zm-8,0a1,1,0,1,1,1,1A1,1,0,0,1,160,193Zm-8,0a1,1,0,1,1,1,1A1,1,0,0,1,152,193Zm-8,0a1,1,0,1,1,1,1A1,1,0,0,1,144,193Zm-8,0a1,1,0,1,1,1,1A1,1,0,0,1,136,193Zm-8,0a1,1,0,1,1,1,1A1,1,0,0,1,128,193Zm-8,0a1,1,0,1,1,1,1A1,1,0,0,1,120,193Zm-8,0a1,1,0,1,1,1,1A1,1,0,0,1,112,193Zm-8,0a1,1,0,1,1,1,1A1,1,0,0,1,104,193Zm-8,0a1,1,0,1,1,1,1A1,1,0,0,1,96,193Zm-8,0a1,1,0,1,1,1,1A1,1,0,0,1,88,193Zm-8,0a1,1,0,1,1,1,1A1,1,0,0,1,80,193Zm-8,0a1,1,0,1,1,1,1A1,1,0,0,1,72,193Zm-8,0a1,1,0,1,1,1,1A1,1,0,0,1,64,193Zm-8,0a1,1,0,1,1,1,1A1,1,0,0,1,56,193Zm-8,0a1,1,0,1,1,1,1A1,1,0,0,1,48,193Zm-8,0a1,1,0,1,1,1,1A1,1,0,0,1,40,193Zm-8,0a1,1,0,1,1,1,1A1,1,0,0,1,32,193Zm-8,0a1,1,0,1,1,1,1A1,1,0,0,1,24,193Zm-8,0a1,1,0,1,1,1,1A1,1,0,0,1,16,193Zm-8,0a1,1,0,1,1,1,1A1,1,0,0,1,8,193Zm-8,0a1,1,0,1,1,1,1A1,1,0,0,1,0,193Zm248-8a1,1,0,1,1,1,1A1,1,0,0,1,248,185Zm-8,0a1,1,0,1,1,1,1A1,1,0,0,1,240,185Zm-8,0a1,1,0,1,1,1,1A1,1,0,0,1,232,185Zm-8,0a1,1,0,1,1,1,1A1,1,0,0,1,224,185Zm-8,0a1,1,0,1,1,1,1A1,1,0,0,1,216,185Zm-8,0a1,1,0,1,1,1,1A1,1,0,0,1,208,185Zm-8,0a1,1,0,1,1,1,1A1,1,0,0,1,200,185Zm-8,0a1,1,0,1,1,1,1A1,1,0,0,1,192,185Zm-8,0a1,1,0,1,1,1,1A1,1,0,0,1,184,185Zm-8,0a1,1,0,1,1,1,1A1,1,0,0,1,176,185Zm-8,0a1,1,0,1,1,1,1A1,1,0,0,1,168,185Zm-8,0a1,1,0,1,1,1,1A1,1,0,0,1,160,185Zm-8,0a1,1,0,1,1,1,1A1,1,0,0,1,152,185Zm-8,0a1,1,0,1,1,1,1A1,1,0,0,1,144,185Zm-8,0a1,1,0,1,1,1,1A1,1,0,0,1,136,185Zm-8,0a1,1,0,1,1,1,1A1,1,0,0,1,128,185Zm-8,0a1,1,0,1,1,1,1A1,1,0,0,1,120,185Zm-8,0a1,1,0,1,1,1,1A1,1,0,0,1,112,185Zm-8,0a1,1,0,1,1,1,1A1,1,0,0,1,104,185Zm-8,0a1,1,0,1,1,1,1A1,1,0,0,1,96,185Zm-8,0a1,1,0,1,1,1,1A1,1,0,0,1,88,185Zm-8,0a1,1,0,1,1,1,1A1,1,0,0,1,80,185Zm-8,0a1,1,0,1,1,1,1A1,1,0,0,1,72,185Zm-8,0a1,1,0,1,1,1,1A1,1,0,0,1,64,185Zm-8,0a1,1,0,1,1,1,1A1,1,0,0,1,56,185Zm-8,0a1,1,0,1,1,1,1A1,1,0,0,1,48,185Zm-8,0a1,1,0,1,1,1,1A1,1,0,0,1,40,185Zm-8,0a1,1,0,1,1,1,1A1,1,0,0,1,32,185Zm-8,0a1,1,0,1,1,1,1A1,1,0,0,1,24,185Zm-8,0a1,1,0,1,1,1,1A1,1,0,0,1,16,185Zm-8,0a1,1,0,1,1,1,1A1,1,0,0,1,8,185Zm-8,0a1,1,0,1,1,1,1A1,1,0,0,1,0,185Zm248-8a1,1,0,1,1,1,1A1,1,0,0,1,248,177Zm-8,0a1,1,0,1,1,1,1A1,1,0,0,1,240,177Zm-8,0a1,1,0,1,1,1,1A1,1,0,0,1,232,177Zm-8,0a1,1,0,1,1,1,1A1,1,0,0,1,224,177Zm-8,0a1,1,0,1,1,1,1A1,1,0,0,1,216,177Zm-8,0a1,1,0,1,1,1,1A1,1,0,0,1,208,177Zm-8,0a1,1,0,1,1,1,1A1,1,0,0,1,200,177Zm-8,0a1,1,0,1,1,1,1A1,1,0,0,1,192,177Zm-8,0a1,1,0,1,1,1,1A1,1,0,0,1,184,177Zm-8,0a1,1,0,1,1,1,1A1,1,0,0,1,176,177Zm-8,0a1,1,0,1,1,1,1A1,1,0,0,1,168,177Zm-8,0a1,1,0,1,1,1,1A1,1,0,0,1,160,177Zm-8,0a1,1,0,1,1,1,1A1,1,0,0,1,152,177Zm-8,0a1,1,0,1,1,1,1A1,1,0,0,1,144,177Zm-8,0a1,1,0,1,1,1,1A1,1,0,0,1,136,177Zm-8,0a1,1,0,1,1,1,1A1,1,0,0,1,128,177Zm-8,0a1,1,0,1,1,1,1A1,1,0,0,1,120,177Zm-8,0a1,1,0,1,1,1,1A1,1,0,0,1,112,177Zm-8,0a1,1,0,1,1,1,1A1,1,0,0,1,104,177Zm-8,0a1,1,0,1,1,1,1A1,1,0,0,1,96,177Zm-8,0a1,1,0,1,1,1,1A1,1,0,0,1,88,177Zm-8,0a1,1,0,1,1,1,1A1,1,0,0,1,80,177Zm-8,0a1,1,0,1,1,1,1A1,1,0,0,1,72,177Zm-8,0a1,1,0,1,1,1,1A1,1,0,0,1,64,177Zm-8,0a1,1,0,1,1,1,1A1,1,0,0,1,56,177Zm-8,0a1,1,0,1,1,1,1A1,1,0,0,1,48,177Zm-8,0a1,1,0,1,1,1,1A1,1,0,0,1,40,177Zm-8,0a1,1,0,1,1,1,1A1,1,0,0,1,32,177Zm-8,0a1,1,0,1,1,1,1A1,1,0,0,1,24,177Zm-8,0a1,1,0,1,1,1,1A1,1,0,0,1,16,177Zm-8,0a1,1,0,1,1,1,1A1,1,0,0,1,8,177Zm-8,0a1,1,0,1,1,1,1A1,1,0,0,1,0,177Zm248-8a1,1,0,1,1,1,1A1,1,0,0,1,248,169Zm-8,0a1,1,0,1,1,1,1A1,1,0,0,1,240,169Zm-8,0a1,1,0,1,1,1,1A1,1,0,0,1,232,169Zm-8,0a1,1,0,1,1,1,1A1,1,0,0,1,224,169Zm-8,0a1,1,0,1,1,1,1A1,1,0,0,1,216,169Zm-8,0a1,1,0,1,1,1,1A1,1,0,0,1,208,169Zm-8,0a1,1,0,1,1,1,1A1,1,0,0,1,200,169Zm-8,0a1,1,0,1,1,1,1A1,1,0,0,1,192,169Zm-8,0a1,1,0,1,1,1,1A1,1,0,0,1,184,169Zm-8,0a1,1,0,1,1,1,1A1,1,0,0,1,176,169Zm-8,0a1,1,0,1,1,1,1A1,1,0,0,1,168,169Zm-8,0a1,1,0,1,1,1,1A1,1,0,0,1,160,169Zm-8,0a1,1,0,1,1,1,1A1,1,0,0,1,152,169Zm-8,0a1,1,0,1,1,1,1A1,1,0,0,1,144,169Zm-8,0a1,1,0,1,1,1,1A1,1,0,0,1,136,169Zm-8,0a1,1,0,1,1,1,1A1,1,0,0,1,128,169Zm-8,0a1,1,0,1,1,1,1A1,1,0,0,1,120,169Zm-8,0a1,1,0,1,1,1,1A1,1,0,0,1,112,169Zm-8,0a1,1,0,1,1,1,1A1,1,0,0,1,104,169Zm-8,0a1,1,0,1,1,1,1A1,1,0,0,1,96,169Zm-8,0a1,1,0,1,1,1,1A1,1,0,0,1,88,169Zm-8,0a1,1,0,1,1,1,1A1,1,0,0,1,80,169Zm-8,0a1,1,0,1,1,1,1A1,1,0,0,1,72,169Zm-8,0a1,1,0,1,1,1,1A1,1,0,0,1,64,169Zm-8,0a1,1,0,1,1,1,1A1,1,0,0,1,56,169Zm-8,0a1,1,0,1,1,1,1A1,1,0,0,1,48,169Zm-8,0a1,1,0,1,1,1,1A1,1,0,0,1,40,169Zm-8,0a1,1,0,1,1,1,1A1,1,0,0,1,32,169Zm-8,0a1,1,0,1,1,1,1A1,1,0,0,1,24,169Zm-8,0a1,1,0,1,1,1,1A1,1,0,0,1,16,169Zm-8,0a1,1,0,1,1,1,1A1,1,0,0,1,8,169Zm-8,0a1,1,0,1,1,1,1A1,1,0,0,1,0,169Zm248-8a1,1,0,1,1,1,1A1,1,0,0,1,248,161Zm-8,0a1,1,0,1,1,1,1A1,1,0,0,1,240,161Zm-8,0a1,1,0,1,1,1,1A1,1,0,0,1,232,161Zm-8,0a1,1,0,1,1,1,1A1,1,0,0,1,224,161Zm-8,0a1,1,0,1,1,1,1A1,1,0,0,1,216,161Zm-8,0a1,1,0,1,1,1,1A1,1,0,0,1,208,161Zm-8,0a1,1,0,1,1,1,1A1,1,0,0,1,200,161Zm-8,0a1,1,0,1,1,1,1A1,1,0,0,1,192,161Zm-8,0a1,1,0,1,1,1,1A1,1,0,0,1,184,161Zm-8,0a1,1,0,1,1,1,1A1,1,0,0,1,176,161Zm-8,0a1,1,0,1,1,1,1A1,1,0,0,1,168,161Zm-8,0a1,1,0,1,1,1,1A1,1,0,0,1,160,161Zm-8,0a1,1,0,1,1,1,1A1,1,0,0,1,152,161Zm-8,0a1,1,0,1,1,1,1A1,1,0,0,1,144,161Zm-8,0a1,1,0,1,1,1,1A1,1,0,0,1,136,161Zm-8,0a1,1,0,1,1,1,1A1,1,0,0,1,128,161Zm-8,0a1,1,0,1,1,1,1A1,1,0,0,1,120,161Zm-8,0a1,1,0,1,1,1,1A1,1,0,0,1,112,161Zm-8,0a1,1,0,1,1,1,1A1,1,0,0,1,104,161Zm-8,0a1,1,0,1,1,1,1A1,1,0,0,1,96,161Zm-8,0a1,1,0,1,1,1,1A1,1,0,0,1,88,161Zm-8,0a1,1,0,1,1,1,1A1,1,0,0,1,80,161Zm-8,0a1,1,0,1,1,1,1A1,1,0,0,1,72,161Zm-8,0a1,1,0,1,1,1,1A1,1,0,0,1,64,161Zm-8,0a1,1,0,1,1,1,1A1,1,0,0,1,56,161Zm-8,0a1,1,0,1,1,1,1A1,1,0,0,1,48,161Zm-8,0a1,1,0,1,1,1,1A1,1,0,0,1,40,161Zm-8,0a1,1,0,1,1,1,1A1,1,0,0,1,32,161Zm-8,0a1,1,0,1,1,1,1A1,1,0,0,1,24,161Zm-8,0a1,1,0,1,1,1,1A1,1,0,0,1,16,161Zm-8,0a1,1,0,1,1,1,1A1,1,0,0,1,8,161Zm-8,0a1,1,0,1,1,1,1A1,1,0,0,1,0,161Zm248-8a1,1,0,1,1,1,1A1,1,0,0,1,248,153Zm-8,0a1,1,0,1,1,1,1A1,1,0,0,1,240,153Zm-8,0a1,1,0,1,1,1,1A1,1,0,0,1,232,153Zm-8,0a1,1,0,1,1,1,1A1,1,0,0,1,224,153Zm-8,0a1,1,0,1,1,1,1A1,1,0,0,1,216,153Zm-8,0a1,1,0,1,1,1,1A1,1,0,0,1,208,153Zm-8,0a1,1,0,1,1,1,1A1,1,0,0,1,200,153Zm-8,0a1,1,0,1,1,1,1A1,1,0,0,1,192,153Zm-8,0a1,1,0,1,1,1,1A1,1,0,0,1,184,153Zm-8,0a1,1,0,1,1,1,1A1,1,0,0,1,176,153Zm-8,0a1,1,0,1,1,1,1A1,1,0,0,1,168,153Zm-8,0a1,1,0,1,1,1,1A1,1,0,0,1,160,153Zm-8,0a1,1,0,1,1,1,1A1,1,0,0,1,152,153Zm-8,0a1,1,0,1,1,1,1A1,1,0,0,1,144,153Zm-8,0a1,1,0,1,1,1,1A1,1,0,0,1,136,153Zm-8,0a1,1,0,1,1,1,1A1,1,0,0,1,128,153Zm-8,0a1,1,0,1,1,1,1A1,1,0,0,1,120,153Zm-8,0a1,1,0,1,1,1,1A1,1,0,0,1,112,153Zm-8,0a1,1,0,1,1,1,1A1,1,0,0,1,104,153Zm-8,0a1,1,0,1,1,1,1A1,1,0,0,1,96,153Zm-8,0a1,1,0,1,1,1,1A1,1,0,0,1,88,153Zm-8,0a1,1,0,1,1,1,1A1,1,0,0,1,80,153Zm-8,0a1,1,0,1,1,1,1A1,1,0,0,1,72,153Zm-8,0a1,1,0,1,1,1,1A1,1,0,0,1,64,153Zm-8,0a1,1,0,1,1,1,1A1,1,0,0,1,56,153Zm-8,0a1,1,0,1,1,1,1A1,1,0,0,1,48,153Zm-8,0a1,1,0,1,1,1,1A1,1,0,0,1,40,153Zm-8,0a1,1,0,1,1,1,1A1,1,0,0,1,32,153Zm-8,0a1,1,0,1,1,1,1A1,1,0,0,1,24,153Zm-8,0a1,1,0,1,1,1,1A1,1,0,0,1,16,153Zm-8,0a1,1,0,1,1,1,1A1,1,0,0,1,8,153Zm-8,0a1,1,0,1,1,1,1A1,1,0,0,1,0,153Zm248-8a1,1,0,1,1,1,1A1,1,0,0,1,248,145Zm-8,0a1,1,0,1,1,1,1A1,1,0,0,1,240,145Zm-8,0a1,1,0,1,1,1,1A1,1,0,0,1,232,145Zm-8,0a1,1,0,1,1,1,1A1,1,0,0,1,224,145Zm-8,0a1,1,0,1,1,1,1A1,1,0,0,1,216,145Zm-8,0a1,1,0,1,1,1,1A1,1,0,0,1,208,145Zm-8,0a1,1,0,1,1,1,1A1,1,0,0,1,200,145Zm-8,0a1,1,0,1,1,1,1A1,1,0,0,1,192,145Zm-8,0a1,1,0,1,1,1,1A1,1,0,0,1,184,145Zm-8,0a1,1,0,1,1,1,1A1,1,0,0,1,176,145Zm-8,0a1,1,0,1,1,1,1A1,1,0,0,1,168,145Zm-8,0a1,1,0,1,1,1,1A1,1,0,0,1,160,145Zm-8,0a1,1,0,1,1,1,1A1,1,0,0,1,152,145Zm-8,0a1,1,0,1,1,1,1A1,1,0,0,1,144,145Zm-8,0a1,1,0,1,1,1,1A1,1,0,0,1,136,145Zm-8,0a1,1,0,1,1,1,1A1,1,0,0,1,128,145Zm-8,0a1,1,0,1,1,1,1A1,1,0,0,1,120,145Zm-8,0a1,1,0,1,1,1,1A1,1,0,0,1,112,145Zm-8,0a1,1,0,1,1,1,1A1,1,0,0,1,104,145Zm-8,0a1,1,0,1,1,1,1A1,1,0,0,1,96,145Zm-8,0a1,1,0,1,1,1,1A1,1,0,0,1,88,145Zm-8,0a1,1,0,1,1,1,1A1,1,0,0,1,80,145Zm-8,0a1,1,0,1,1,1,1A1,1,0,0,1,72,145Zm-8,0a1,1,0,1,1,1,1A1,1,0,0,1,64,145Zm-8,0a1,1,0,1,1,1,1A1,1,0,0,1,56,145Zm-8,0a1,1,0,1,1,1,1A1,1,0,0,1,48,145Zm-8,0a1,1,0,1,1,1,1A1,1,0,0,1,40,145Zm-8,0a1,1,0,1,1,1,1A1,1,0,0,1,32,145Zm-8,0a1,1,0,1,1,1,1A1,1,0,0,1,24,145Zm-8,0a1,1,0,1,1,1,1A1,1,0,0,1,16,145Zm-8,0a1,1,0,1,1,1,1A1,1,0,0,1,8,145Zm-8,0a1,1,0,1,1,1,1A1,1,0,0,1,0,145Zm248-8a1,1,0,1,1,1,1A1,1,0,0,1,248,137Zm-8,0a1,1,0,1,1,1,1A1,1,0,0,1,240,137Zm-8,0a1,1,0,1,1,1,1A1,1,0,0,1,232,137Zm-8,0a1,1,0,1,1,1,1A1,1,0,0,1,224,137Zm-8,0a1,1,0,1,1,1,1A1,1,0,0,1,216,137Zm-8,0a1,1,0,1,1,1,1A1,1,0,0,1,208,137Zm-8,0a1,1,0,1,1,1,1A1,1,0,0,1,200,137Zm-8,0a1,1,0,1,1,1,1A1,1,0,0,1,192,137Zm-8,0a1,1,0,1,1,1,1A1,1,0,0,1,184,137Zm-8,0a1,1,0,1,1,1,1A1,1,0,0,1,176,137Zm-8,0a1,1,0,1,1,1,1A1,1,0,0,1,168,137Zm-8,0a1,1,0,1,1,1,1A1,1,0,0,1,160,137Zm-8,0a1,1,0,1,1,1,1A1,1,0,0,1,152,137Zm-8,0a1,1,0,1,1,1,1A1,1,0,0,1,144,137Zm-8,0a1,1,0,1,1,1,1A1,1,0,0,1,136,137Zm-8,0a1,1,0,1,1,1,1A1,1,0,0,1,128,137Zm-8,0a1,1,0,1,1,1,1A1,1,0,0,1,120,137Zm-8,0a1,1,0,1,1,1,1A1,1,0,0,1,112,137Zm-8,0a1,1,0,1,1,1,1A1,1,0,0,1,104,137Zm-8,0a1,1,0,1,1,1,1A1,1,0,0,1,96,137Zm-8,0a1,1,0,1,1,1,1A1,1,0,0,1,88,137Zm-8,0a1,1,0,1,1,1,1A1,1,0,0,1,80,137Zm-8,0a1,1,0,1,1,1,1A1,1,0,0,1,72,137Zm-8,0a1,1,0,1,1,1,1A1,1,0,0,1,64,137Zm-8,0a1,1,0,1,1,1,1A1,1,0,0,1,56,137Zm-8,0a1,1,0,1,1,1,1A1,1,0,0,1,48,137Zm-8,0a1,1,0,1,1,1,1A1,1,0,0,1,40,137Zm-8,0a1,1,0,1,1,1,1A1,1,0,0,1,32,137Zm-8,0a1,1,0,1,1,1,1A1,1,0,0,1,24,137Zm-8,0a1,1,0,1,1,1,1A1,1,0,0,1,16,137Zm-8,0a1,1,0,1,1,1,1A1,1,0,0,1,8,137Zm-8,0a1,1,0,1,1,1,1A1,1,0,0,1,0,137Zm248-8a1,1,0,1,1,1,1A1,1,0,0,1,248,129Zm-8,0a1,1,0,1,1,1,1A1,1,0,0,1,240,129Zm-8,0a1,1,0,1,1,1,1A1,1,0,0,1,232,129Zm-8,0a1,1,0,1,1,1,1A1,1,0,0,1,224,129Zm-8,0a1,1,0,1,1,1,1A1,1,0,0,1,216,129Zm-8,0a1,1,0,1,1,1,1A1,1,0,0,1,208,129Zm-8,0a1,1,0,1,1,1,1A1,1,0,0,1,200,129Zm-8,0a1,1,0,1,1,1,1A1,1,0,0,1,192,129Zm-8,0a1,1,0,1,1,1,1A1,1,0,0,1,184,129Zm-8,0a1,1,0,1,1,1,1A1,1,0,0,1,176,129Zm-8,0a1,1,0,1,1,1,1A1,1,0,0,1,168,129Zm-8,0a1,1,0,1,1,1,1A1,1,0,0,1,160,129Zm-8,0a1,1,0,1,1,1,1A1,1,0,0,1,152,129Zm-8,0a1,1,0,1,1,1,1A1,1,0,0,1,144,129Zm-8,0a1,1,0,1,1,1,1A1,1,0,0,1,136,129Zm-8,0a1,1,0,1,1,1,1A1,1,0,0,1,128,129Zm-8,0a1,1,0,1,1,1,1A1,1,0,0,1,120,129Zm-8,0a1,1,0,1,1,1,1A1,1,0,0,1,112,129Zm-8,0a1,1,0,1,1,1,1A1,1,0,0,1,104,129Zm-8,0a1,1,0,1,1,1,1A1,1,0,0,1,96,129Zm-8,0a1,1,0,1,1,1,1A1,1,0,0,1,88,129Zm-8,0a1,1,0,1,1,1,1A1,1,0,0,1,80,129Zm-8,0a1,1,0,1,1,1,1A1,1,0,0,1,72,129Zm-8,0a1,1,0,1,1,1,1A1,1,0,0,1,64,129Zm-8,0a1,1,0,1,1,1,1A1,1,0,0,1,56,129Zm-8,0a1,1,0,1,1,1,1A1,1,0,0,1,48,129Zm-8,0a1,1,0,1,1,1,1A1,1,0,0,1,40,129Zm-8,0a1,1,0,1,1,1,1A1,1,0,0,1,32,129Zm-8,0a1,1,0,1,1,1,1A1,1,0,0,1,24,129Zm-8,0a1,1,0,1,1,1,1A1,1,0,0,1,16,129Zm-8,0a1,1,0,1,1,1,1A1,1,0,0,1,8,129Zm-8,0a1,1,0,1,1,1,1A1,1,0,0,1,0,129Zm248-8a1,1,0,1,1,1,1A1,1,0,0,1,248,121Zm-8,0a1,1,0,1,1,1,1A1,1,0,0,1,240,121Zm-8,0a1,1,0,1,1,1,1A1,1,0,0,1,232,121Zm-8,0a1,1,0,1,1,1,1A1,1,0,0,1,224,121Zm-8,0a1,1,0,1,1,1,1A1,1,0,0,1,216,121Zm-8,0a1,1,0,1,1,1,1A1,1,0,0,1,208,121Zm-8,0a1,1,0,1,1,1,1A1,1,0,0,1,200,121Zm-8,0a1,1,0,1,1,1,1A1,1,0,0,1,192,121Zm-8,0a1,1,0,1,1,1,1A1,1,0,0,1,184,121Zm-8,0a1,1,0,1,1,1,1A1,1,0,0,1,176,121Zm-8,0a1,1,0,1,1,1,1A1,1,0,0,1,168,121Zm-8,0a1,1,0,1,1,1,1A1,1,0,0,1,160,121Zm-8,0a1,1,0,1,1,1,1A1,1,0,0,1,152,121Zm-8,0a1,1,0,1,1,1,1A1,1,0,0,1,144,121Zm-8,0a1,1,0,1,1,1,1A1,1,0,0,1,136,121Zm-8,0a1,1,0,1,1,1,1A1,1,0,0,1,128,121Zm-8,0a1,1,0,1,1,1,1A1,1,0,0,1,120,121Zm-8,0a1,1,0,1,1,1,1A1,1,0,0,1,112,121Zm-8,0a1,1,0,1,1,1,1A1,1,0,0,1,104,121Zm-8,0a1,1,0,1,1,1,1A1,1,0,0,1,96,121Zm-8,0a1,1,0,1,1,1,1A1,1,0,0,1,88,121Zm-8,0a1,1,0,1,1,1,1A1,1,0,0,1,80,121Zm-8,0a1,1,0,1,1,1,1A1,1,0,0,1,72,121Zm-8,0a1,1,0,1,1,1,1A1,1,0,0,1,64,121Zm-8,0a1,1,0,1,1,1,1A1,1,0,0,1,56,121Zm-8,0a1,1,0,1,1,1,1A1,1,0,0,1,48,121Zm-8,0a1,1,0,1,1,1,1A1,1,0,0,1,40,121Zm-8,0a1,1,0,1,1,1,1A1,1,0,0,1,32,121Zm-8,0a1,1,0,1,1,1,1A1,1,0,0,1,24,121Zm-8,0a1,1,0,1,1,1,1A1,1,0,0,1,16,121Zm-8,0a1,1,0,1,1,1,1A1,1,0,0,1,8,121Zm-8,0a1,1,0,1,1,1,1A1,1,0,0,1,0,121Zm248-8a1,1,0,1,1,1,1A1,1,0,0,1,248,113Zm-8,0a1,1,0,1,1,1,1A1,1,0,0,1,240,113Zm-8,0a1,1,0,1,1,1,1A1,1,0,0,1,232,113Zm-8,0a1,1,0,1,1,1,1A1,1,0,0,1,224,113Zm-8,0a1,1,0,1,1,1,1A1,1,0,0,1,216,113Zm-8,0a1,1,0,1,1,1,1A1,1,0,0,1,208,113Zm-8,0a1,1,0,1,1,1,1A1,1,0,0,1,200,113Zm-8,0a1,1,0,1,1,1,1A1,1,0,0,1,192,113Zm-8,0a1,1,0,1,1,1,1A1,1,0,0,1,184,113Zm-8,0a1,1,0,1,1,1,1A1,1,0,0,1,176,113Zm-8,0a1,1,0,1,1,1,1A1,1,0,0,1,168,113Zm-8,0a1,1,0,1,1,1,1A1,1,0,0,1,160,113Zm-8,0a1,1,0,1,1,1,1A1,1,0,0,1,152,113Zm-8,0a1,1,0,1,1,1,1A1,1,0,0,1,144,113Zm-8,0a1,1,0,1,1,1,1A1,1,0,0,1,136,113Zm-8,0a1,1,0,1,1,1,1A1,1,0,0,1,128,113Zm-8,0a1,1,0,1,1,1,1A1,1,0,0,1,120,113Zm-8,0a1,1,0,1,1,1,1A1,1,0,0,1,112,113Zm-8,0a1,1,0,1,1,1,1A1,1,0,0,1,104,113Zm-8,0a1,1,0,1,1,1,1A1,1,0,0,1,96,113Zm-8,0a1,1,0,1,1,1,1A1,1,0,0,1,88,113Zm-8,0a1,1,0,1,1,1,1A1,1,0,0,1,80,113Zm-8,0a1,1,0,1,1,1,1A1,1,0,0,1,72,113Zm-8,0a1,1,0,1,1,1,1A1,1,0,0,1,64,113Zm-8,0a1,1,0,1,1,1,1A1,1,0,0,1,56,113Zm-8,0a1,1,0,1,1,1,1A1,1,0,0,1,48,113Zm-8,0a1,1,0,1,1,1,1A1,1,0,0,1,40,113Zm-8,0a1,1,0,1,1,1,1A1,1,0,0,1,32,113Zm-8,0a1,1,0,1,1,1,1A1,1,0,0,1,24,113Zm-8,0a1,1,0,1,1,1,1A1,1,0,0,1,16,113Zm-8,0a1,1,0,1,1,1,1A1,1,0,0,1,8,113Zm-8,0a1,1,0,1,1,1,1A1,1,0,0,1,0,113Zm248-8a1,1,0,1,1,1,1A1,1,0,0,1,248,105Zm-8,0a1,1,0,1,1,1,1A1,1,0,0,1,240,105Zm-8,0a1,1,0,1,1,1,1A1,1,0,0,1,232,105Zm-8,0a1,1,0,1,1,1,1A1,1,0,0,1,224,105Zm-8,0a1,1,0,1,1,1,1A1,1,0,0,1,216,105Zm-8,0a1,1,0,1,1,1,1A1,1,0,0,1,208,105Zm-8,0a1,1,0,1,1,1,1A1,1,0,0,1,200,105Zm-8,0a1,1,0,1,1,1,1A1,1,0,0,1,192,105Zm-8,0a1,1,0,1,1,1,1A1,1,0,0,1,184,105Zm-8,0a1,1,0,1,1,1,1A1,1,0,0,1,176,105Zm-8,0a1,1,0,1,1,1,1A1,1,0,0,1,168,105Zm-8,0a1,1,0,1,1,1,1A1,1,0,0,1,160,105Zm-8,0a1,1,0,1,1,1,1A1,1,0,0,1,152,105Zm-8,0a1,1,0,1,1,1,1A1,1,0,0,1,144,105Zm-8,0a1,1,0,1,1,1,1A1,1,0,0,1,136,105Zm-8,0a1,1,0,1,1,1,1A1,1,0,0,1,128,105Zm-8,0a1,1,0,1,1,1,1A1,1,0,0,1,120,105Zm-8,0a1,1,0,1,1,1,1A1,1,0,0,1,112,105Zm-8,0a1,1,0,1,1,1,1A1,1,0,0,1,104,105Zm-8,0a1,1,0,1,1,1,1A1,1,0,0,1,96,105Zm-8,0a1,1,0,1,1,1,1A1,1,0,0,1,88,105Zm-8,0a1,1,0,1,1,1,1A1,1,0,0,1,80,105Zm-8,0a1,1,0,1,1,1,1A1,1,0,0,1,72,105Zm-8,0a1,1,0,1,1,1,1A1,1,0,0,1,64,105Zm-8,0a1,1,0,1,1,1,1A1,1,0,0,1,56,105Zm-8,0a1,1,0,1,1,1,1A1,1,0,0,1,48,105Zm-8,0a1,1,0,1,1,1,1A1,1,0,0,1,40,105Zm-8,0a1,1,0,1,1,1,1A1,1,0,0,1,32,105Zm-8,0a1,1,0,1,1,1,1A1,1,0,0,1,24,105Zm-8,0a1,1,0,1,1,1,1A1,1,0,0,1,16,105Zm-8,0a1,1,0,1,1,1,1A1,1,0,0,1,8,105Zm-8,0a1,1,0,1,1,1,1A1,1,0,0,1,0,105Zm248-8a1,1,0,1,1,1,1A1,1,0,0,1,248,97Zm-8,0a1,1,0,1,1,1,1A1,1,0,0,1,240,97Zm-8,0a1,1,0,1,1,1,1A1,1,0,0,1,232,97Zm-8,0a1,1,0,1,1,1,1A1,1,0,0,1,224,97Zm-8,0a1,1,0,1,1,1,1A1,1,0,0,1,216,97Zm-8,0a1,1,0,1,1,1,1A1,1,0,0,1,208,97Zm-8,0a1,1,0,1,1,1,1A1,1,0,0,1,200,97Zm-8,0a1,1,0,1,1,1,1A1,1,0,0,1,192,97Zm-8,0a1,1,0,1,1,1,1A1,1,0,0,1,184,97Zm-8,0a1,1,0,1,1,1,1A1,1,0,0,1,176,97Zm-8,0a1,1,0,1,1,1,1A1,1,0,0,1,168,97Zm-8,0a1,1,0,1,1,1,1A1,1,0,0,1,160,97Zm-8,0a1,1,0,1,1,1,1A1,1,0,0,1,152,97Zm-8,0a1,1,0,1,1,1,1A1,1,0,0,1,144,97Zm-8,0a1,1,0,1,1,1,1A1,1,0,0,1,136,97Zm-8,0a1,1,0,1,1,1,1A1,1,0,0,1,128,97Zm-8,0a1,1,0,1,1,1,1A1,1,0,0,1,120,97Zm-8,0a1,1,0,1,1,1,1A1,1,0,0,1,112,97Zm-8,0a1,1,0,1,1,1,1A1,1,0,0,1,104,97Zm-8,0a1,1,0,1,1,1,1A1,1,0,0,1,96,97Zm-8,0a1,1,0,1,1,1,1A1,1,0,0,1,88,97Zm-8,0a1,1,0,1,1,1,1A1,1,0,0,1,80,97Zm-8,0a1,1,0,1,1,1,1A1,1,0,0,1,72,97Zm-8,0a1,1,0,1,1,1,1A1,1,0,0,1,64,97Zm-8,0a1,1,0,1,1,1,1A1,1,0,0,1,56,97Zm-8,0a1,1,0,1,1,1,1A1,1,0,0,1,48,97Zm-8,0a1,1,0,1,1,1,1A1,1,0,0,1,40,97Zm-8,0a1,1,0,1,1,1,1A1,1,0,0,1,32,97Zm-8,0a1,1,0,1,1,1,1A1,1,0,0,1,24,97Zm-8,0a1,1,0,1,1,1,1A1,1,0,0,1,16,97ZM8,97a1,1,0,1,1,1,1A1,1,0,0,1,8,97ZM0,97a1,1,0,1,1,1,1A1,1,0,0,1,0,97Zm248-8a1,1,0,1,1,1,1A1,1,0,0,1,248,89Zm-8,0a1,1,0,1,1,1,1A1,1,0,0,1,240,89Zm-8,0a1,1,0,1,1,1,1A1,1,0,0,1,232,89Zm-8,0a1,1,0,1,1,1,1A1,1,0,0,1,224,89Zm-8,0a1,1,0,1,1,1,1A1,1,0,0,1,216,89Zm-8,0a1,1,0,1,1,1,1A1,1,0,0,1,208,89Zm-8,0a1,1,0,1,1,1,1A1,1,0,0,1,200,89Zm-8,0a1,1,0,1,1,1,1A1,1,0,0,1,192,89Zm-8,0a1,1,0,1,1,1,1A1,1,0,0,1,184,89Zm-8,0a1,1,0,1,1,1,1A1,1,0,0,1,176,89Zm-8,0a1,1,0,1,1,1,1A1,1,0,0,1,168,89Zm-8,0a1,1,0,1,1,1,1A1,1,0,0,1,160,89Zm-8,0a1,1,0,1,1,1,1A1,1,0,0,1,152,89Zm-8,0a1,1,0,1,1,1,1A1,1,0,0,1,144,89Zm-8,0a1,1,0,1,1,1,1A1,1,0,0,1,136,89Zm-8,0a1,1,0,1,1,1,1A1,1,0,0,1,128,89Zm-8,0a1,1,0,1,1,1,1A1,1,0,0,1,120,89Zm-8,0a1,1,0,1,1,1,1A1,1,0,0,1,112,89Zm-8,0a1,1,0,1,1,1,1A1,1,0,0,1,104,89Zm-8,0a1,1,0,1,1,1,1A1,1,0,0,1,96,89Zm-8,0a1,1,0,1,1,1,1A1,1,0,0,1,88,89Zm-8,0a1,1,0,1,1,1,1A1,1,0,0,1,80,89Zm-8,0a1,1,0,1,1,1,1A1,1,0,0,1,72,89Zm-8,0a1,1,0,1,1,1,1A1,1,0,0,1,64,89Zm-8,0a1,1,0,1,1,1,1A1,1,0,0,1,56,89Zm-8,0a1,1,0,1,1,1,1A1,1,0,0,1,48,89Zm-8,0a1,1,0,1,1,1,1A1,1,0,0,1,40,89Zm-8,0a1,1,0,1,1,1,1A1,1,0,0,1,32,89Zm-8,0a1,1,0,1,1,1,1A1,1,0,0,1,24,89Zm-8,0a1,1,0,1,1,1,1A1,1,0,0,1,16,89ZM8,89a1,1,0,1,1,1,1A1,1,0,0,1,8,89ZM0,89a1,1,0,1,1,1,1A1,1,0,0,1,0,89Zm248-8a1,1,0,1,1,1,1A1,1,0,0,1,248,81Zm-8,0a1,1,0,1,1,1,1A1,1,0,0,1,240,81Zm-8,0a1,1,0,1,1,1,1A1,1,0,0,1,232,81Zm-8,0a1,1,0,1,1,1,1A1,1,0,0,1,224,81Zm-8,0a1,1,0,1,1,1,1A1,1,0,0,1,216,81Zm-8,0a1,1,0,1,1,1,1A1,1,0,0,1,208,81Zm-8,0a1,1,0,1,1,1,1A1,1,0,0,1,200,81Zm-8,0a1,1,0,1,1,1,1A1,1,0,0,1,192,81Zm-8,0a1,1,0,1,1,1,1A1,1,0,0,1,184,81Zm-8,0a1,1,0,1,1,1,1A1,1,0,0,1,176,81Zm-8,0a1,1,0,1,1,1,1A1,1,0,0,1,168,81Zm-8,0a1,1,0,1,1,1,1A1,1,0,0,1,160,81Zm-8,0a1,1,0,1,1,1,1A1,1,0,0,1,152,81Zm-8,0a1,1,0,1,1,1,1A1,1,0,0,1,144,81Zm-8,0a1,1,0,1,1,1,1A1,1,0,0,1,136,81Zm-8,0a1,1,0,1,1,1,1A1,1,0,0,1,128,81Zm-8,0a1,1,0,1,1,1,1A1,1,0,0,1,120,81Zm-8,0a1,1,0,1,1,1,1A1,1,0,0,1,112,81Zm-8,0a1,1,0,1,1,1,1A1,1,0,0,1,104,81Zm-8,0a1,1,0,1,1,1,1A1,1,0,0,1,96,81Zm-8,0a1,1,0,1,1,1,1A1,1,0,0,1,88,81Zm-8,0a1,1,0,1,1,1,1A1,1,0,0,1,80,81Zm-8,0a1,1,0,1,1,1,1A1,1,0,0,1,72,81Zm-8,0a1,1,0,1,1,1,1A1,1,0,0,1,64,81Zm-8,0a1,1,0,1,1,1,1A1,1,0,0,1,56,81Zm-8,0a1,1,0,1,1,1,1A1,1,0,0,1,48,81Zm-8,0a1,1,0,1,1,1,1A1,1,0,0,1,40,81Zm-8,0a1,1,0,1,1,1,1A1,1,0,0,1,32,81Zm-8,0a1,1,0,1,1,1,1A1,1,0,0,1,24,81Zm-8,0a1,1,0,1,1,1,1A1,1,0,0,1,16,81ZM8,81a1,1,0,1,1,1,1A1,1,0,0,1,8,81ZM0,81a1,1,0,1,1,1,1A1,1,0,0,1,0,81Zm248-8a1,1,0,1,1,1,1A1,1,0,0,1,248,73Zm-8,0a1,1,0,1,1,1,1A1,1,0,0,1,240,73Zm-8,0a1,1,0,1,1,1,1A1,1,0,0,1,232,73Zm-8,0a1,1,0,1,1,1,1A1,1,0,0,1,224,73Zm-8,0a1,1,0,1,1,1,1A1,1,0,0,1,216,73Zm-8,0a1,1,0,1,1,1,1A1,1,0,0,1,208,73Zm-8,0a1,1,0,1,1,1,1A1,1,0,0,1,200,73Zm-8,0a1,1,0,1,1,1,1A1,1,0,0,1,192,73Zm-8,0a1,1,0,1,1,1,1A1,1,0,0,1,184,73Zm-8,0a1,1,0,1,1,1,1A1,1,0,0,1,176,73Zm-8,0a1,1,0,1,1,1,1A1,1,0,0,1,168,73Zm-8,0a1,1,0,1,1,1,1A1,1,0,0,1,160,73Zm-8,0a1,1,0,1,1,1,1A1,1,0,0,1,152,73Zm-8,0a1,1,0,1,1,1,1A1,1,0,0,1,144,73Zm-8,0a1,1,0,1,1,1,1A1,1,0,0,1,136,73Zm-8,0a1,1,0,1,1,1,1A1,1,0,0,1,128,73Zm-8,0a1,1,0,1,1,1,1A1,1,0,0,1,120,73Zm-8,0a1,1,0,1,1,1,1A1,1,0,0,1,112,73Zm-8,0a1,1,0,1,1,1,1A1,1,0,0,1,104,73Zm-8,0a1,1,0,1,1,1,1A1,1,0,0,1,96,73Zm-8,0a1,1,0,1,1,1,1A1,1,0,0,1,88,73Zm-8,0a1,1,0,1,1,1,1A1,1,0,0,1,80,73Zm-8,0a1,1,0,1,1,1,1A1,1,0,0,1,72,73Zm-8,0a1,1,0,1,1,1,1A1,1,0,0,1,64,73Zm-8,0a1,1,0,1,1,1,1A1,1,0,0,1,56,73Zm-8,0a1,1,0,1,1,1,1A1,1,0,0,1,48,73Zm-8,0a1,1,0,1,1,1,1A1,1,0,0,1,40,73Zm-8,0a1,1,0,1,1,1,1A1,1,0,0,1,32,73Zm-8,0a1,1,0,1,1,1,1A1,1,0,0,1,24,73Zm-8,0a1,1,0,1,1,1,1A1,1,0,0,1,16,73ZM8,73a1,1,0,1,1,1,1A1,1,0,0,1,8,73ZM0,73a1,1,0,1,1,1,1A1,1,0,0,1,0,73Zm248-8a1,1,0,1,1,1,1A1,1,0,0,1,248,65Zm-8,0a1,1,0,1,1,1,1A1,1,0,0,1,240,65Zm-8,0a1,1,0,1,1,1,1A1,1,0,0,1,232,65Zm-8,0a1,1,0,1,1,1,1A1,1,0,0,1,224,65Zm-8,0a1,1,0,1,1,1,1A1,1,0,0,1,216,65Zm-8,0a1,1,0,1,1,1,1A1,1,0,0,1,208,65Zm-8,0a1,1,0,1,1,1,1A1,1,0,0,1,200,65Zm-8,0a1,1,0,1,1,1,1A1,1,0,0,1,192,65Zm-8,0a1,1,0,1,1,1,1A1,1,0,0,1,184,65Zm-8,0a1,1,0,1,1,1,1A1,1,0,0,1,176,65Zm-8,0a1,1,0,1,1,1,1A1,1,0,0,1,168,65Zm-8,0a1,1,0,1,1,1,1A1,1,0,0,1,160,65Zm-8,0a1,1,0,1,1,1,1A1,1,0,0,1,152,65Zm-8,0a1,1,0,1,1,1,1A1,1,0,0,1,144,65Zm-8,0a1,1,0,1,1,1,1A1,1,0,0,1,136,65Zm-8,0a1,1,0,1,1,1,1A1,1,0,0,1,128,65Zm-8,0a1,1,0,1,1,1,1A1,1,0,0,1,120,65Zm-8,0a1,1,0,1,1,1,1A1,1,0,0,1,112,65Zm-8,0a1,1,0,1,1,1,1A1,1,0,0,1,104,65Zm-8,0a1,1,0,1,1,1,1A1,1,0,0,1,96,65Zm-8,0a1,1,0,1,1,1,1A1,1,0,0,1,88,65Zm-8,0a1,1,0,1,1,1,1A1,1,0,0,1,80,65Zm-8,0a1,1,0,1,1,1,1A1,1,0,0,1,72,65Zm-8,0a1,1,0,1,1,1,1A1,1,0,0,1,64,65Zm-8,0a1,1,0,1,1,1,1A1,1,0,0,1,56,65Zm-8,0a1,1,0,1,1,1,1A1,1,0,0,1,48,65Zm-8,0a1,1,0,1,1,1,1A1,1,0,0,1,40,65Zm-8,0a1,1,0,1,1,1,1A1,1,0,0,1,32,65Zm-8,0a1,1,0,1,1,1,1A1,1,0,0,1,24,65Zm-8,0a1,1,0,1,1,1,1A1,1,0,0,1,16,65ZM8,65a1,1,0,1,1,1,1A1,1,0,0,1,8,65ZM0,65a1,1,0,1,1,1,1A1,1,0,0,1,0,65Zm248-8a1,1,0,1,1,1,1A1,1,0,0,1,248,57Zm-8,0a1,1,0,1,1,1,1A1,1,0,0,1,240,57Zm-8,0a1,1,0,1,1,1,1A1,1,0,0,1,232,57Zm-8,0a1,1,0,1,1,1,1A1,1,0,0,1,224,57Zm-8,0a1,1,0,1,1,1,1A1,1,0,0,1,216,57Zm-8,0a1,1,0,1,1,1,1A1,1,0,0,1,208,57Zm-8,0a1,1,0,1,1,1,1A1,1,0,0,1,200,57Zm-8,0a1,1,0,1,1,1,1A1,1,0,0,1,192,57Zm-8,0a1,1,0,1,1,1,1A1,1,0,0,1,184,57Zm-8,0a1,1,0,1,1,1,1A1,1,0,0,1,176,57Zm-8,0a1,1,0,1,1,1,1A1,1,0,0,1,168,57Zm-8,0a1,1,0,1,1,1,1A1,1,0,0,1,160,57Zm-8,0a1,1,0,1,1,1,1A1,1,0,0,1,152,57Zm-8,0a1,1,0,1,1,1,1A1,1,0,0,1,144,57Zm-8,0a1,1,0,1,1,1,1A1,1,0,0,1,136,57Zm-8,0a1,1,0,1,1,1,1A1,1,0,0,1,128,57Zm-8,0a1,1,0,1,1,1,1A1,1,0,0,1,120,57Zm-8,0a1,1,0,1,1,1,1A1,1,0,0,1,112,57Zm-8,0a1,1,0,1,1,1,1A1,1,0,0,1,104,57Zm-8,0a1,1,0,1,1,1,1A1,1,0,0,1,96,57Zm-8,0a1,1,0,1,1,1,1A1,1,0,0,1,88,57Zm-8,0a1,1,0,1,1,1,1A1,1,0,0,1,80,57Zm-8,0a1,1,0,1,1,1,1A1,1,0,0,1,72,57Zm-8,0a1,1,0,1,1,1,1A1,1,0,0,1,64,57Zm-8,0a1,1,0,1,1,1,1A1,1,0,0,1,56,57Zm-8,0a1,1,0,1,1,1,1A1,1,0,0,1,48,57Zm-8,0a1,1,0,1,1,1,1A1,1,0,0,1,40,57Zm-8,0a1,1,0,1,1,1,1A1,1,0,0,1,32,57Zm-8,0a1,1,0,1,1,1,1A1,1,0,0,1,24,57Zm-8,0a1,1,0,1,1,1,1A1,1,0,0,1,16,57ZM8,57a1,1,0,1,1,1,1A1,1,0,0,1,8,57ZM0,57a1,1,0,1,1,1,1A1,1,0,0,1,0,57Zm248-8a1,1,0,1,1,1,1A1,1,0,0,1,248,49Zm-8,0a1,1,0,1,1,1,1A1,1,0,0,1,240,49Zm-8,0a1,1,0,1,1,1,1A1,1,0,0,1,232,49Zm-8,0a1,1,0,1,1,1,1A1,1,0,0,1,224,49Zm-8,0a1,1,0,1,1,1,1A1,1,0,0,1,216,49Zm-8,0a1,1,0,1,1,1,1A1,1,0,0,1,208,49Zm-8,0a1,1,0,1,1,1,1A1,1,0,0,1,200,49Zm-8,0a1,1,0,1,1,1,1A1,1,0,0,1,192,49Zm-8,0a1,1,0,1,1,1,1A1,1,0,0,1,184,49Zm-8,0a1,1,0,1,1,1,1A1,1,0,0,1,176,49Zm-8,0a1,1,0,1,1,1,1A1,1,0,0,1,168,49Zm-8,0a1,1,0,1,1,1,1A1,1,0,0,1,160,49Zm-8,0a1,1,0,1,1,1,1A1,1,0,0,1,152,49Zm-8,0a1,1,0,1,1,1,1A1,1,0,0,1,144,49Zm-8,0a1,1,0,1,1,1,1A1,1,0,0,1,136,49Zm-8,0a1,1,0,1,1,1,1A1,1,0,0,1,128,49Zm-8,0a1,1,0,1,1,1,1A1,1,0,0,1,120,49Zm-8,0a1,1,0,1,1,1,1A1,1,0,0,1,112,49Zm-8,0a1,1,0,1,1,1,1A1,1,0,0,1,104,49Zm-8,0a1,1,0,1,1,1,1A1,1,0,0,1,96,49Zm-8,0a1,1,0,1,1,1,1A1,1,0,0,1,88,49Zm-8,0a1,1,0,1,1,1,1A1,1,0,0,1,80,49Zm-8,0a1,1,0,1,1,1,1A1,1,0,0,1,72,49Zm-8,0a1,1,0,1,1,1,1A1,1,0,0,1,64,49Zm-8,0a1,1,0,1,1,1,1A1,1,0,0,1,56,49Zm-8,0a1,1,0,1,1,1,1A1,1,0,0,1,48,49Zm-8,0a1,1,0,1,1,1,1A1,1,0,0,1,40,49Zm-8,0a1,1,0,1,1,1,1A1,1,0,0,1,32,49Zm-8,0a1,1,0,1,1,1,1A1,1,0,0,1,24,49Zm-8,0a1,1,0,1,1,1,1A1,1,0,0,1,16,49ZM8,49a1,1,0,1,1,1,1A1,1,0,0,1,8,49ZM0,49a1,1,0,1,1,1,1A1,1,0,0,1,0,49Zm248-8a1,1,0,1,1,1,1A1,1,0,0,1,248,41Zm-8,0a1,1,0,1,1,1,1A1,1,0,0,1,240,41Zm-8,0a1,1,0,1,1,1,1A1,1,0,0,1,232,41Zm-8,0a1,1,0,1,1,1,1A1,1,0,0,1,224,41Zm-8,0a1,1,0,1,1,1,1A1,1,0,0,1,216,41Zm-8,0a1,1,0,1,1,1,1A1,1,0,0,1,208,41Zm-8,0a1,1,0,1,1,1,1A1,1,0,0,1,200,41Zm-8,0a1,1,0,1,1,1,1A1,1,0,0,1,192,41Zm-8,0a1,1,0,1,1,1,1A1,1,0,0,1,184,41Zm-8,0a1,1,0,1,1,1,1A1,1,0,0,1,176,41Zm-8,0a1,1,0,1,1,1,1A1,1,0,0,1,168,41Zm-8,0a1,1,0,1,1,1,1A1,1,0,0,1,160,41Zm-8,0a1,1,0,1,1,1,1A1,1,0,0,1,152,41Zm-8,0a1,1,0,1,1,1,1A1,1,0,0,1,144,41Zm-8,0a1,1,0,1,1,1,1A1,1,0,0,1,136,41Zm-8,0a1,1,0,1,1,1,1A1,1,0,0,1,128,41Zm-8,0a1,1,0,1,1,1,1A1,1,0,0,1,120,41Zm-8,0a1,1,0,1,1,1,1A1,1,0,0,1,112,41Zm-8,0a1,1,0,1,1,1,1A1,1,0,0,1,104,41Zm-8,0a1,1,0,1,1,1,1A1,1,0,0,1,96,41Zm-8,0a1,1,0,1,1,1,1A1,1,0,0,1,88,41Zm-8,0a1,1,0,1,1,1,1A1,1,0,0,1,80,41Zm-8,0a1,1,0,1,1,1,1A1,1,0,0,1,72,41Zm-8,0a1,1,0,1,1,1,1A1,1,0,0,1,64,41Zm-8,0a1,1,0,1,1,1,1A1,1,0,0,1,56,41Zm-8,0a1,1,0,1,1,1,1A1,1,0,0,1,48,41Zm-8,0a1,1,0,1,1,1,1A1,1,0,0,1,40,41Zm-8,0a1,1,0,1,1,1,1A1,1,0,0,1,32,41Zm-8,0a1,1,0,1,1,1,1A1,1,0,0,1,24,41Zm-8,0a1,1,0,1,1,1,1A1,1,0,0,1,16,41ZM8,41a1,1,0,1,1,1,1A1,1,0,0,1,8,41ZM0,41a1,1,0,1,1,1,1A1,1,0,0,1,0,41Zm248-8a1,1,0,1,1,1,1A1,1,0,0,1,248,33Zm-8,0a1,1,0,1,1,1,1A1,1,0,0,1,240,33Zm-8,0a1,1,0,1,1,1,1A1,1,0,0,1,232,33Zm-8,0a1,1,0,1,1,1,1A1,1,0,0,1,224,33Zm-8,0a1,1,0,1,1,1,1A1,1,0,0,1,216,33Zm-8,0a1,1,0,1,1,1,1A1,1,0,0,1,208,33Zm-8,0a1,1,0,1,1,1,1A1,1,0,0,1,200,33Zm-8,0a1,1,0,1,1,1,1A1,1,0,0,1,192,33Zm-8,0a1,1,0,1,1,1,1A1,1,0,0,1,184,33Zm-8,0a1,1,0,1,1,1,1A1,1,0,0,1,176,33Zm-8,0a1,1,0,1,1,1,1A1,1,0,0,1,168,33Zm-8,0a1,1,0,1,1,1,1A1,1,0,0,1,160,33Zm-8,0a1,1,0,1,1,1,1A1,1,0,0,1,152,33Zm-8,0a1,1,0,1,1,1,1A1,1,0,0,1,144,33Zm-8,0a1,1,0,1,1,1,1A1,1,0,0,1,136,33Zm-8,0a1,1,0,1,1,1,1A1,1,0,0,1,128,33Zm-8,0a1,1,0,1,1,1,1A1,1,0,0,1,120,33Zm-8,0a1,1,0,1,1,1,1A1,1,0,0,1,112,33Zm-8,0a1,1,0,1,1,1,1A1,1,0,0,1,104,33Zm-8,0a1,1,0,1,1,1,1A1,1,0,0,1,96,33Zm-8,0a1,1,0,1,1,1,1A1,1,0,0,1,88,33Zm-8,0a1,1,0,1,1,1,1A1,1,0,0,1,80,33Zm-8,0a1,1,0,1,1,1,1A1,1,0,0,1,72,33Zm-8,0a1,1,0,1,1,1,1A1,1,0,0,1,64,33Zm-8,0a1,1,0,1,1,1,1A1,1,0,0,1,56,33Zm-8,0a1,1,0,1,1,1,1A1,1,0,0,1,48,33Zm-8,0a1,1,0,1,1,1,1A1,1,0,0,1,40,33Zm-8,0a1,1,0,1,1,1,1A1,1,0,0,1,32,33Zm-8,0a1,1,0,1,1,1,1A1,1,0,0,1,24,33Zm-8,0a1,1,0,1,1,1,1A1,1,0,0,1,16,33ZM8,33a1,1,0,1,1,1,1A1,1,0,0,1,8,33ZM0,33a1,1,0,1,1,1,1A1,1,0,0,1,0,33Zm248-8a1,1,0,1,1,1,1A1,1,0,0,1,248,25Zm-8,0a1,1,0,1,1,1,1A1,1,0,0,1,240,25Zm-8,0a1,1,0,1,1,1,1A1,1,0,0,1,232,25Zm-8,0a1,1,0,1,1,1,1A1,1,0,0,1,224,25Zm-8,0a1,1,0,1,1,1,1A1,1,0,0,1,216,25Zm-8,0a1,1,0,1,1,1,1A1,1,0,0,1,208,25Zm-8,0a1,1,0,1,1,1,1A1,1,0,0,1,200,25Zm-8,0a1,1,0,1,1,1,1A1,1,0,0,1,192,25Zm-8,0a1,1,0,1,1,1,1A1,1,0,0,1,184,25Zm-8,0a1,1,0,1,1,1,1A1,1,0,0,1,176,25Zm-8,0a1,1,0,1,1,1,1A1,1,0,0,1,168,25Zm-8,0a1,1,0,1,1,1,1A1,1,0,0,1,160,25Zm-8,0a1,1,0,1,1,1,1A1,1,0,0,1,152,25Zm-8,0a1,1,0,1,1,1,1A1,1,0,0,1,144,25Zm-8,0a1,1,0,1,1,1,1A1,1,0,0,1,136,25Zm-8,0a1,1,0,1,1,1,1A1,1,0,0,1,128,25Zm-8,0a1,1,0,1,1,1,1A1,1,0,0,1,120,25Zm-8,0a1,1,0,1,1,1,1A1,1,0,0,1,112,25Zm-8,0a1,1,0,1,1,1,1A1,1,0,0,1,104,25Zm-8,0a1,1,0,1,1,1,1A1,1,0,0,1,96,25Zm-8,0a1,1,0,1,1,1,1A1,1,0,0,1,88,25Zm-8,0a1,1,0,1,1,1,1A1,1,0,0,1,80,25Zm-8,0a1,1,0,1,1,1,1A1,1,0,0,1,72,25Zm-8,0a1,1,0,1,1,1,1A1,1,0,0,1,64,25Zm-8,0a1,1,0,1,1,1,1A1,1,0,0,1,56,25Zm-8,0a1,1,0,1,1,1,1A1,1,0,0,1,48,25Zm-8,0a1,1,0,1,1,1,1A1,1,0,0,1,40,25Zm-8,0a1,1,0,1,1,1,1A1,1,0,0,1,32,25Zm-8,0a1,1,0,1,1,1,1A1,1,0,0,1,24,25Zm-8,0a1,1,0,1,1,1,1A1,1,0,0,1,16,25ZM8,25a1,1,0,1,1,1,1A1,1,0,0,1,8,25ZM0,25a1,1,0,1,1,1,1A1,1,0,0,1,0,25Zm248-8a1,1,0,1,1,1,1A1,1,0,0,1,248,17Zm-8,0a1,1,0,1,1,1,1A1,1,0,0,1,240,17Zm-8,0a1,1,0,1,1,1,1A1,1,0,0,1,232,17Zm-8,0a1,1,0,1,1,1,1A1,1,0,0,1,224,17Zm-8,0a1,1,0,1,1,1,1A1,1,0,0,1,216,17Zm-8,0a1,1,0,1,1,1,1A1,1,0,0,1,208,17Zm-8,0a1,1,0,1,1,1,1A1,1,0,0,1,200,17Zm-8,0a1,1,0,1,1,1,1A1,1,0,0,1,192,17Zm-8,0a1,1,0,1,1,1,1A1,1,0,0,1,184,17Zm-8,0a1,1,0,1,1,1,1A1,1,0,0,1,176,17Zm-8,0a1,1,0,1,1,1,1A1,1,0,0,1,168,17Zm-8,0a1,1,0,1,1,1,1A1,1,0,0,1,160,17Zm-8,0a1,1,0,1,1,1,1A1,1,0,0,1,152,17Zm-8,0a1,1,0,1,1,1,1A1,1,0,0,1,144,17Zm-8,0a1,1,0,1,1,1,1A1,1,0,0,1,136,17Zm-8,0a1,1,0,1,1,1,1A1,1,0,0,1,128,17Zm-8,0a1,1,0,1,1,1,1A1,1,0,0,1,120,17Zm-8,0a1,1,0,1,1,1,1A1,1,0,0,1,112,17Zm-8,0a1,1,0,1,1,1,1A1,1,0,0,1,104,17Zm-8,0a1,1,0,1,1,1,1A1,1,0,0,1,96,17Zm-8,0a1,1,0,1,1,1,1A1,1,0,0,1,88,17Zm-8,0a1,1,0,1,1,1,1A1,1,0,0,1,80,17Zm-8,0a1,1,0,1,1,1,1A1,1,0,0,1,72,17Zm-8,0a1,1,0,1,1,1,1A1,1,0,0,1,64,17Zm-8,0a1,1,0,1,1,1,1A1,1,0,0,1,56,17Zm-8,0a1,1,0,1,1,1,1A1,1,0,0,1,48,17Zm-8,0a1,1,0,1,1,1,1A1,1,0,0,1,40,17Zm-8,0a1,1,0,1,1,1,1A1,1,0,0,1,32,17Zm-8,0a1,1,0,1,1,1,1A1,1,0,0,1,24,17Zm-8,0a1,1,0,1,1,1,1A1,1,0,0,1,16,17ZM8,17a1,1,0,1,1,1,1A1,1,0,0,1,8,17ZM0,17a1,1,0,1,1,1,1A1,1,0,0,1,0,17ZM248,9a1,1,0,1,1,1,1A1,1,0,0,1,248,9Zm-8,0a1,1,0,1,1,1,1A1,1,0,0,1,240,9Zm-8,0a1,1,0,1,1,1,1A1,1,0,0,1,232,9Zm-8,0a1,1,0,1,1,1,1A1,1,0,0,1,224,9Zm-8,0a1,1,0,1,1,1,1A1,1,0,0,1,216,9Zm-8,0a1,1,0,1,1,1,1A1,1,0,0,1,208,9Zm-8,0a1,1,0,1,1,1,1A1,1,0,0,1,200,9Zm-8,0a1,1,0,1,1,1,1A1,1,0,0,1,192,9Zm-8,0a1,1,0,1,1,1,1A1,1,0,0,1,184,9Zm-8,0a1,1,0,1,1,1,1A1,1,0,0,1,176,9Zm-8,0a1,1,0,1,1,1,1A1,1,0,0,1,168,9Zm-8,0a1,1,0,1,1,1,1A1,1,0,0,1,160,9Zm-8,0a1,1,0,1,1,1,1A1,1,0,0,1,152,9Zm-8,0a1,1,0,1,1,1,1A1,1,0,0,1,144,9Zm-8,0a1,1,0,1,1,1,1A1,1,0,0,1,136,9Zm-8,0a1,1,0,1,1,1,1A1,1,0,0,1,128,9Zm-8,0a1,1,0,1,1,1,1A1,1,0,0,1,120,9Zm-8,0a1,1,0,1,1,1,1A1,1,0,0,1,112,9Zm-8,0a1,1,0,1,1,1,1A1,1,0,0,1,104,9ZM96,9a1,1,0,1,1,1,1A1,1,0,0,1,96,9ZM88,9a1,1,0,1,1,1,1A1,1,0,0,1,88,9ZM80,9a1,1,0,1,1,1,1A1,1,0,0,1,80,9ZM72,9a1,1,0,1,1,1,1A1,1,0,0,1,72,9ZM64,9a1,1,0,1,1,1,1A1,1,0,0,1,64,9ZM56,9a1,1,0,1,1,1,1A1,1,0,0,1,56,9ZM48,9a1,1,0,1,1,1,1A1,1,0,0,1,48,9ZM40,9a1,1,0,1,1,1,1A1,1,0,0,1,40,9ZM32,9a1,1,0,1,1,1,1A1,1,0,0,1,32,9ZM24,9a1,1,0,1,1,1,1A1,1,0,0,1,24,9ZM16,9a1,1,0,1,1,1,1A1,1,0,0,1,16,9ZM8,9a1,1,0,1,1,1,1A1,1,0,0,1,8,9ZM0,9a1,1,0,1,1,1,1A1,1,0,0,1,0,9ZM248,1a1,1,0,1,1,1,1A1,1,0,0,1,248,1Zm-8,0a1,1,0,1,1,1,1A1,1,0,0,1,240,1Zm-8,0a1,1,0,1,1,1,1A1,1,0,0,1,232,1Zm-8,0a1,1,0,1,1,1,1A1,1,0,0,1,224,1Zm-8,0a1,1,0,1,1,1,1A1,1,0,0,1,216,1Zm-8,0a1,1,0,1,1,1,1A1,1,0,0,1,208,1Zm-8,0a1,1,0,1,1,1,1A1,1,0,0,1,200,1Zm-8,0a1,1,0,1,1,1,1A1,1,0,0,1,192,1Zm-8,0a1,1,0,1,1,1,1A1,1,0,0,1,184,1Zm-8,0a1,1,0,1,1,1,1A1,1,0,0,1,176,1Zm-8,0a1,1,0,1,1,1,1A1,1,0,0,1,168,1Zm-8,0a1,1,0,1,1,1,1A1,1,0,0,1,160,1Zm-8,0a1,1,0,1,1,1,1A1,1,0,0,1,152,1Zm-8,0a1,1,0,1,1,1,1A1,1,0,0,1,144,1Zm-8,0a1,1,0,1,1,1,1A1,1,0,0,1,136,1Zm-8,0a1,1,0,1,1,1,1A1,1,0,0,1,128,1Zm-8,0a1,1,0,1,1,1,1A1,1,0,0,1,120,1Zm-8,0a1,1,0,1,1,1,1A1,1,0,0,1,112,1Zm-8,0a1,1,0,1,1,1,1A1,1,0,0,1,104,1ZM96,1a1,1,0,1,1,1,1A1,1,0,0,1,96,1ZM88,1a1,1,0,1,1,1,1A1,1,0,0,1,88,1ZM80,1a1,1,0,1,1,1,1A1,1,0,0,1,80,1ZM72,1a1,1,0,1,1,1,1A1,1,0,0,1,72,1ZM64,1a1,1,0,1,1,1,1A1,1,0,0,1,64,1ZM56,1a1,1,0,1,1,1,1A1,1,0,0,1,56,1ZM48,1a1,1,0,1,1,1,1A1,1,0,0,1,48,1ZM40,1a1,1,0,1,1,1,1A1,1,0,0,1,40,1ZM32,1a1,1,0,1,1,1,1A1,1,0,0,1,32,1ZM24,1a1,1,0,1,1,1,1A1,1,0,0,1,24,1ZM16,1a1,1,0,1,1,1,1A1,1,0,0,1,16,1ZM8,1A1,1,0,1,1,9,2,1,1,0,0,1,8,1ZM0,1A1,1,0,1,1,1,2,1,1,0,0,1,0,1Z" transform="translate(250 250) rotate(180)"/></g></g><g class="c" transform="translate(3067 1840)"><path class="e" d="M 125 249.5 C 116.5524978637695 249.5 108.110466003418 248.6490020751953 99.90837860107422 246.9705963134766 C 91.91500091552734 245.3348999023438 84.05243682861328 242.8942565917969 76.53912353515625 239.7163696289062 C 69.16209411621094 236.5961608886719 62.04690551757812 232.7341613769531 55.39122009277344 228.2376556396484 C 48.79862594604492 223.7837829589844 42.59922027587891 218.6688079833984 36.96521759033203 213.0347747802734 C 31.3311882019043 207.4007873535156 26.21621894836426 201.2013702392578 21.76234436035156 194.6087799072266 C 17.26584434509277 187.9530944824219 13.40384387969971 180.8379058837891 10.28362464904785 173.4608764648438 C 7.10575008392334 165.9475555419922 4.665093898773193 158.0850067138672 3.029406309127808 150.0916290283203 C 1.35099995136261 141.8895263671875 0.5 133.4474945068359 0.5 125 C 0.5 116.5524978637695 1.35099995136261 108.110466003418 3.029406309127808 99.90837860107422 C 4.665093898773193 91.91500091552734 7.10575008392334 84.05243682861328 10.28362464904785 76.53912353515625 C 13.40384387969971 69.16209411621094 17.26584434509277 62.04690551757812 21.76234436035156 55.39122009277344 C 26.21621894836426 48.79862594604492 31.3311882019043 42.59922027587891 36.96521759033203 36.96521759033203 C 42.59922027587891 31.3311882019043 48.79862594604492 26.21621894836426 55.39122009277344 21.76234436035156 C 62.04690551757812 17.26584434509277 69.16209411621094 13.40384387969971 76.53912353515625 10.28362464904785 C 84.05243682861328 7.10575008392334 91.91500091552734 4.665093898773193 99.90837860107422 3.029406309127808 C 108.110466003418 1.35099995136261 116.5524978637695 0.5 125 0.5 C 133.4474945068359 0.5 141.8895263671875 1.35099995136261 150.0916290283203 3.029406309127808 C 158.0850067138672 4.665093898773193 165.9475555419922 7.10575008392334 173.4608764648438 10.28362464904785 C 180.8379058837891 13.40384387969971 187.9530944824219 17.26584434509277 194.6087799072266 21.76234436035156 C 201.2013702392578 26.21621894836426 207.4007873535156 31.3311882019043 213.0347747802734 36.96521759033203 C 218.6688079833984 42.59922027587891 223.7837829589844 48.79862594604492 228.2376556396484 55.39122009277344 C 232.7341613769531 62.04690551757812 236.5961608886719 69.16209411621094 239.7163696289062 76.53912353515625 C 242.8942565917969 84.05243682861328 245.3348999023438 91.91500091552734 246.9705963134766 99.90837860107422 C 248.6490020751953 108.110466003418 249.5 116.5524978637695 249.5 125 C 249.5 133.4474945068359 248.6490020751953 141.8895263671875 246.9705963134766 150.0916290283203 C 245.3348999023438 158.0850067138672 242.8942565917969 165.9475555419922 239.7163696289062 173.4608764648438 C 236.5961608886719 180.8379058837891 232.7341613769531 187.9530944824219 228.2376556396484 194.6087799072266 C 223.7837829589844 201.2013702392578 218.6688079833984 207.4007873535156 213.0347747802734 213.0347747802734 C 207.4007873535156 218.6688079833984 201.2013702392578 223.7837829589844 194.6087799072266 228.2376556396484 C 187.9530944824219 232.7341613769531 180.8379058837891 236.5961608886719 173.4608764648438 239.7163696289062 C 165.9475555419922 242.8942565917969 158.0850067138672 245.3348999023438 150.0916290283203 246.9705963134766 C 141.8895263671875 248.6490020751953 133.4474945068359 249.5 125 249.5 Z"/><path class="f" d="M 125 1 C 116.5860900878906 1 108.1777801513672 1.84759521484375 100.0086212158203 3.519256591796875 C 92.04756164550781 5.1483154296875 84.21681213378906 7.579132080078125 76.73390197753906 10.74412536621094 C 69.38662719726562 13.85177612304688 62.30006408691406 17.69821166992188 55.67112731933594 22.17665100097656 C 49.10487365722656 26.61271667480469 42.93025207519531 31.70724487304688 37.31875610351562 37.31875610351562 C 31.70724487304688 42.93025207519531 26.61271667480469 49.10487365722656 22.17665100097656 55.67112731933594 C 17.69821166992188 62.30006408691406 13.85177612304688 69.38662719726562 10.74412536621094 76.73390197753906 C 7.579132080078125 84.21681213378906 5.1483154296875 92.04756164550781 3.519256591796875 100.0086212158203 C 1.84759521484375 108.1777801513672 1 116.5860900878906 1 125 C 1 133.4139099121094 1.84759521484375 141.8222198486328 3.519256591796875 149.9913787841797 C 5.1483154296875 157.9524383544922 7.579132080078125 165.7831878662109 10.74412536621094 173.2660827636719 C 13.85177612304688 180.6133728027344 17.69821166992188 187.6999359130859 22.17665100097656 194.3288726806641 C 26.61271667480469 200.8951263427734 31.70724487304688 207.0697479248047 37.31875610351562 212.6812438964844 C 42.93025207519531 218.2927551269531 49.10487365722656 223.3872833251953 55.67112731933594 227.8233489990234 C 62.30006408691406 232.3017883300781 69.38662719726562 236.1482238769531 76.73390197753906 239.2558746337891 C 84.21681213378906 242.4208679199219 92.04756164550781 244.8516845703125 100.0086212158203 246.4807434082031 C 108.1777801513672 248.1524047851562 116.5860900878906 249 125 249 C 133.4139099121094 249 141.8222198486328 248.1524047851562 149.9913787841797 246.4807434082031 C 157.9524383544922 244.8516845703125 165.7831878662109 242.4208679199219 173.2660827636719 239.2558746337891 C 180.6133728027344 236.1482238769531 187.6999359130859 232.3017883300781 194.3288726806641 227.8233489990234 C 200.8951263427734 223.3872833251953 207.0697479248047 218.2927551269531 212.6812438964844 212.6812438964844 C 218.2927551269531 207.0697479248047 223.3872833251953 200.8951263427734 227.8233489990234 194.3288726806641 C 232.3017883300781 187.6999359130859 236.1482238769531 180.6133728027344 239.2558746337891 173.2660827636719 C 242.4208679199219 165.7831878662109 244.8516845703125 157.9524383544922 246.4807434082031 149.9913787841797 C 248.1524047851562 141.8222198486328 249 133.4139099121094 249 125 C 249 116.5860900878906 248.1524047851562 108.1777801513672 246.4807434082031 100.0086212158203 C 244.8516845703125 92.04756164550781 242.4208679199219 84.21681213378906 239.2558746337891 76.73390197753906 C 236.1482238769531 69.38662719726562 232.3017883300781 62.30006408691406 227.8233489990234 55.67112731933594 C 223.3872833251953 49.10487365722656 218.2927551269531 42.93025207519531 212.6812438964844 37.31875610351562 C 207.0697479248047 31.70724487304688 200.8951263427734 26.61271667480469 194.3288726806641 22.17665100097656 C 187.6999359130859 17.69821166992188 180.6133728027344 13.85177612304688 173.2660827636719 10.74412536621094 C 165.7831878662109 7.579132080078125 157.9524383544922 5.1483154296875 149.9913787841797 3.519256591796875 C 141.8222198486328 1.84759521484375 133.4139099121094 1 125 1 M 125 0 C 194.0355987548828 0 250 55.96440124511719 250 125 C 250 194.0355987548828 194.0355987548828 250 125 250 C 55.96440124511719 250 0 194.0355987548828 0 125 C 0 55.96440124511719 55.96440124511719 0 125 0 Z"/></g><g transform="translate(3578.344 443.499)"><path class="d" d="M-363.722,1482.378a30.64,30.64,0,0,0-22.673,9.79,30.892,30.892,0,0,0-22.556-9.776,30.774,30.774,0,0,0-30.752,30.769,30.465,30.465,0,0,0,9.038,21.761l40.64,40.673a4.982,4.982,0,0,0,3.539,1.467,4.99,4.99,0,0,0,3.526-1.454l40.943-40.684a30.569,30.569,0,0,0,9.037-21.8A30.808,30.808,0,0,0-363.722,1482.378Zm14.641,45.461L-386.474,1565l-37.127-37.157a20.549,20.549,0,0,1-6.1-14.678,20.78,20.78,0,0,1,20.747-20.763,20.859,20.859,0,0,1,18.25,10.73,4.891,4.891,0,0,0,4.436,2.58,5.006,5.006,0,0,0,4.372-2.684,20.546,20.546,0,0,1,18.17-10.64,20.807,20.807,0,0,1,20.736,20.755A20.627,20.627,0,0,1-349.081,1527.839Z"/></g></g></svg>