<svg xmlns="http://www.w3.org/2000/svg" xmlns:xlink="http://www.w3.org/1999/xlink" width="265" height="265" viewBox="0 0 265 265"><defs><style>.a{fill:#84bd00;}.b{clip-path:url(#a);}.c{fill:#fff;}</style><clipPath id="a"><circle class="a" cx="125" cy="125" r="125" transform="translate(0.476 0.477)"/></clipPath></defs><g transform="translate(-3067 -1840)"><g class="b" transform="translate(3081.523 1854.523)"><g transform="translate(7.505 7.505)"><path class="a" d="M248,249a1,1,0,1,1,1,1A1,1,0,0,1,248,249Zm-8,0a1,1,0,1,1,1,1A1,1,0,0,1,240,249Zm-8,0a1,1,0,1,1,1,1A1,1,0,0,1,232,249Zm-8,0a1,1,0,1,1,1,1A1,1,0,0,1,224,249Zm-8,0a1,1,0,1,1,1,1A1,1,0,0,1,216,249Zm-8,0a1,1,0,1,1,1,1A1,1,0,0,1,208,249Zm-8,0a1,1,0,1,1,1,1A1,1,0,0,1,200,249Zm-8,0a1,1,0,1,1,1,1A1,1,0,0,1,192,249Zm-8,0a1,1,0,1,1,1,1A1,1,0,0,1,184,249Zm-8,0a1,1,0,1,1,1,1A1,1,0,0,1,176,249Zm-8,0a1,1,0,1,1,1,1A1,1,0,0,1,168,249Zm-8,0a1,1,0,1,1,1,1A1,1,0,0,1,160,249Zm-8,0a1,1,0,1,1,1,1A1,1,0,0,1,152,249Zm-8,0a1,1,0,1,1,1,1A1,1,0,0,1,144,249Zm-8,0a1,1,0,1,1,1,1A1,1,0,0,1,136,249Zm-8,0a1,1,0,1,1,1,1A1,1,0,0,1,128,249Zm-8,0a1,1,0,1,1,1,1A1,1,0,0,1,120,249Zm-8,0a1,1,0,1,1,1,1A1,1,0,0,1,112,249Zm-8,0a1,1,0,1,1,1,1A1,1,0,0,1,104,249Zm-8,0a1,1,0,1,1,1,1A1,1,0,0,1,96,249Zm-8,0a1,1,0,1,1,1,1A1,1,0,0,1,88,249Zm-8,0a1,1,0,1,1,1,1A1,1,0,0,1,80,249Zm-8,0a1,1,0,1,1,1,1A1,1,0,0,1,72,249Zm-8,0a1,1,0,1,1,1,1A1,1,0,0,1,64,249Zm-8,0a1,1,0,1,1,1,1A1,1,0,0,1,56,249Zm-8,0a1,1,0,1,1,1,1A1,1,0,0,1,48,249Zm-8,0a1,1,0,1,1,1,1A1,1,0,0,1,40,249Zm-8,0a1,1,0,1,1,1,1A1,1,0,0,1,32,249Zm-8,0a1,1,0,1,1,1,1A1,1,0,0,1,24,249Zm-8,0a1,1,0,1,1,1,1A1,1,0,0,1,16,249Zm-8,0a1,1,0,1,1,1,1A1,1,0,0,1,8,249Zm-8,0a1,1,0,1,1,1,1A1,1,0,0,1,0,249Zm248-8a1,1,0,1,1,1,1A1,1,0,0,1,248,241Zm-8,0a1,1,0,1,1,1,1A1,1,0,0,1,240,241Zm-8,0a1,1,0,1,1,1,1A1,1,0,0,1,232,241Zm-8,0a1,1,0,1,1,1,1A1,1,0,0,1,224,241Zm-8,0a1,1,0,1,1,1,1A1,1,0,0,1,216,241Zm-8,0a1,1,0,1,1,1,1A1,1,0,0,1,208,241Zm-8,0a1,1,0,1,1,1,1A1,1,0,0,1,200,241Zm-8,0a1,1,0,1,1,1,1A1,1,0,0,1,192,241Zm-8,0a1,1,0,1,1,1,1A1,1,0,0,1,184,241Zm-8,0a1,1,0,1,1,1,1A1,1,0,0,1,176,241Zm-8,0a1,1,0,1,1,1,1A1,1,0,0,1,168,241Zm-8,0a1,1,0,1,1,1,1A1,1,0,0,1,160,241Zm-8,0a1,1,0,1,1,1,1A1,1,0,0,1,152,241Zm-8,0a1,1,0,1,1,1,1A1,1,0,0,1,144,241Zm-8,0a1,1,0,1,1,1,1A1,1,0,0,1,136,241Zm-8,0a1,1,0,1,1,1,1A1,1,0,0,1,128,241Zm-8,0a1,1,0,1,1,1,1A1,1,0,0,1,120,241Zm-8,0a1,1,0,1,1,1,1A1,1,0,0,1,112,241Zm-8,0a1,1,0,1,1,1,1A1,1,0,0,1,104,241Zm-8,0a1,1,0,1,1,1,1A1,1,0,0,1,96,241Zm-8,0a1,1,0,1,1,1,1A1,1,0,0,1,88,241Zm-8,0a1,1,0,1,1,1,1A1,1,0,0,1,80,241Zm-8,0a1,1,0,1,1,1,1A1,1,0,0,1,72,241Zm-8,0a1,1,0,1,1,1,1A1,1,0,0,1,64,241Zm-8,0a1,1,0,1,1,1,1A1,1,0,0,1,56,241Zm-8,0a1,1,0,1,1,1,1A1,1,0,0,1,48,241Zm-8,0a1,1,0,1,1,1,1A1,1,0,0,1,40,241Zm-8,0a1,1,0,1,1,1,1A1,1,0,0,1,32,241Zm-8,0a1,1,0,1,1,1,1A1,1,0,0,1,24,241Zm-8,0a1,1,0,1,1,1,1A1,1,0,0,1,16,241Zm-8,0a1,1,0,1,1,1,1A1,1,0,0,1,8,241Zm-8,0a1,1,0,1,1,1,1A1,1,0,0,1,0,241Zm248-8a1,1,0,1,1,1,1A1,1,0,0,1,248,233Zm-8,0a1,1,0,1,1,1,1A1,1,0,0,1,240,233Zm-8,0a1,1,0,1,1,1,1A1,1,0,0,1,232,233Zm-8,0a1,1,0,1,1,1,1A1,1,0,0,1,224,233Zm-8,0a1,1,0,1,1,1,1A1,1,0,0,1,216,233Zm-8,0a1,1,0,1,1,1,1A1,1,0,0,1,208,233Zm-8,0a1,1,0,1,1,1,1A1,1,0,0,1,200,233Zm-8,0a1,1,0,1,1,1,1A1,1,0,0,1,192,233Zm-8,0a1,1,0,1,1,1,1A1,1,0,0,1,184,233Zm-8,0a1,1,0,1,1,1,1A1,1,0,0,1,176,233Zm-8,0a1,1,0,1,1,1,1A1,1,0,0,1,168,233Zm-8,0a1,1,0,1,1,1,1A1,1,0,0,1,160,233Zm-8,0a1,1,0,1,1,1,1A1,1,0,0,1,152,233Zm-8,0a1,1,0,1,1,1,1A1,1,0,0,1,144,233Zm-8,0a1,1,0,1,1,1,1A1,1,0,0,1,136,233Zm-8,0a1,1,0,1,1,1,1A1,1,0,0,1,128,233Zm-8,0a1,1,0,1,1,1,1A1,1,0,0,1,120,233Zm-8,0a1,1,0,1,1,1,1A1,1,0,0,1,112,233Zm-8,0a1,1,0,1,1,1,1A1,1,0,0,1,104,233Zm-8,0a1,1,0,1,1,1,1A1,1,0,0,1,96,233Zm-8,0a1,1,0,1,1,1,1A1,1,0,0,1,88,233Zm-8,0a1,1,0,1,1,1,1A1,1,0,0,1,80,233Zm-8,0a1,1,0,1,1,1,1A1,1,0,0,1,72,233Zm-8,0a1,1,0,1,1,1,1A1,1,0,0,1,64,233Zm-8,0a1,1,0,1,1,1,1A1,1,0,0,1,56,233Zm-8,0a1,1,0,1,1,1,1A1,1,0,0,1,48,233Zm-8,0a1,1,0,1,1,1,1A1,1,0,0,1,40,233Zm-8,0a1,1,0,1,1,1,1A1,1,0,0,1,32,233Zm-8,0a1,1,0,1,1,1,1A1,1,0,0,1,24,233Zm-8,0a1,1,0,1,1,1,1A1,1,0,0,1,16,233Zm-8,0a1,1,0,1,1,1,1A1,1,0,0,1,8,233Zm-8,0a1,1,0,1,1,1,1A1,1,0,0,1,0,233Zm248-8a1,1,0,1,1,1,1A1,1,0,0,1,248,225Zm-8,0a1,1,0,1,1,1,1A1,1,0,0,1,240,225Zm-8,0a1,1,0,1,1,1,1A1,1,0,0,1,232,225Zm-8,0a1,1,0,1,1,1,1A1,1,0,0,1,224,225Zm-8,0a1,1,0,1,1,1,1A1,1,0,0,1,216,225Zm-8,0a1,1,0,1,1,1,1A1,1,0,0,1,208,225Zm-8,0a1,1,0,1,1,1,1A1,1,0,0,1,200,225Zm-8,0a1,1,0,1,1,1,1A1,1,0,0,1,192,225Zm-8,0a1,1,0,1,1,1,1A1,1,0,0,1,184,225Zm-8,0a1,1,0,1,1,1,1A1,1,0,0,1,176,225Zm-8,0a1,1,0,1,1,1,1A1,1,0,0,1,168,225Zm-8,0a1,1,0,1,1,1,1A1,1,0,0,1,160,225Zm-8,0a1,1,0,1,1,1,1A1,1,0,0,1,152,225Zm-8,0a1,1,0,1,1,1,1A1,1,0,0,1,144,225Zm-8,0a1,1,0,1,1,1,1A1,1,0,0,1,136,225Zm-8,0a1,1,0,1,1,1,1A1,1,0,0,1,128,225Zm-8,0a1,1,0,1,1,1,1A1,1,0,0,1,120,225Zm-8,0a1,1,0,1,1,1,1A1,1,0,0,1,112,225Zm-8,0a1,1,0,1,1,1,1A1,1,0,0,1,104,225Zm-8,0a1,1,0,1,1,1,1A1,1,0,0,1,96,225Zm-8,0a1,1,0,1,1,1,1A1,1,0,0,1,88,225Zm-8,0a1,1,0,1,1,1,1A1,1,0,0,1,80,225Zm-8,0a1,1,0,1,1,1,1A1,1,0,0,1,72,225Zm-8,0a1,1,0,1,1,1,1A1,1,0,0,1,64,225Zm-8,0a1,1,0,1,1,1,1A1,1,0,0,1,56,225Zm-8,0a1,1,0,1,1,1,1A1,1,0,0,1,48,225Zm-8,0a1,1,0,1,1,1,1A1,1,0,0,1,40,225Zm-8,0a1,1,0,1,1,1,1A1,1,0,0,1,32,225Zm-8,0a1,1,0,1,1,1,1A1,1,0,0,1,24,225Zm-8,0a1,1,0,1,1,1,1A1,1,0,0,1,16,225Zm-8,0a1,1,0,1,1,1,1A1,1,0,0,1,8,225Zm-8,0a1,1,0,1,1,1,1A1,1,0,0,1,0,225Zm248-8a1,1,0,1,1,1,1A1,1,0,0,1,248,217Zm-8,0a1,1,0,1,1,1,1A1,1,0,0,1,240,217Zm-8,0a1,1,0,1,1,1,1A1,1,0,0,1,232,217Zm-8,0a1,1,0,1,1,1,1A1,1,0,0,1,224,217Zm-8,0a1,1,0,1,1,1,1A1,1,0,0,1,216,217Zm-8,0a1,1,0,1,1,1,1A1,1,0,0,1,208,217Zm-8,0a1,1,0,1,1,1,1A1,1,0,0,1,200,217Zm-8,0a1,1,0,1,1,1,1A1,1,0,0,1,192,217Zm-8,0a1,1,0,1,1,1,1A1,1,0,0,1,184,217Zm-8,0a1,1,0,1,1,1,1A1,1,0,0,1,176,217Zm-8,0a1,1,0,1,1,1,1A1,1,0,0,1,168,217Zm-8,0a1,1,0,1,1,1,1A1,1,0,0,1,160,217Zm-8,0a1,1,0,1,1,1,1A1,1,0,0,1,152,217Zm-8,0a1,1,0,1,1,1,1A1,1,0,0,1,144,217Zm-8,0a1,1,0,1,1,1,1A1,1,0,0,1,136,217Zm-8,0a1,1,0,1,1,1,1A1,1,0,0,1,128,217Zm-8,0a1,1,0,1,1,1,1A1,1,0,0,1,120,217Zm-8,0a1,1,0,1,1,1,1A1,1,0,0,1,112,217Zm-8,0a1,1,0,1,1,1,1A1,1,0,0,1,104,217Zm-8,0a1,1,0,1,1,1,1A1,1,0,0,1,96,217Zm-8,0a1,1,0,1,1,1,1A1,1,0,0,1,88,217Zm-8,0a1,1,0,1,1,1,1A1,1,0,0,1,80,217Zm-8,0a1,1,0,1,1,1,1A1,1,0,0,1,72,217Zm-8,0a1,1,0,1,1,1,1A1,1,0,0,1,64,217Zm-8,0a1,1,0,1,1,1,1A1,1,0,0,1,56,217Zm-8,0a1,1,0,1,1,1,1A1,1,0,0,1,48,217Zm-8,0a1,1,0,1,1,1,1A1,1,0,0,1,40,217Zm-8,0a1,1,0,1,1,1,1A1,1,0,0,1,32,217Zm-8,0a1,1,0,1,1,1,1A1,1,0,0,1,24,217Zm-8,0a1,1,0,1,1,1,1A1,1,0,0,1,16,217Zm-8,0a1,1,0,1,1,1,1A1,1,0,0,1,8,217Zm-8,0a1,1,0,1,1,1,1A1,1,0,0,1,0,217Zm248-8a1,1,0,1,1,1,1A1,1,0,0,1,248,209Zm-8,0a1,1,0,1,1,1,1A1,1,0,0,1,240,209Zm-8,0a1,1,0,1,1,1,1A1,1,0,0,1,232,209Zm-8,0a1,1,0,1,1,1,1A1,1,0,0,1,224,209Zm-8,0a1,1,0,1,1,1,1A1,1,0,0,1,216,209Zm-8,0a1,1,0,1,1,1,1A1,1,0,0,1,208,209Zm-8,0a1,1,0,1,1,1,1A1,1,0,0,1,200,209Zm-8,0a1,1,0,1,1,1,1A1,1,0,0,1,192,209Zm-8,0a1,1,0,1,1,1,1A1,1,0,0,1,184,209Zm-8,0a1,1,0,1,1,1,1A1,1,0,0,1,176,209Zm-8,0a1,1,0,1,1,1,1A1,1,0,0,1,168,209Zm-8,0a1,1,0,1,1,1,1A1,1,0,0,1,160,209Zm-8,0a1,1,0,1,1,1,1A1,1,0,0,1,152,209Zm-8,0a1,1,0,1,1,1,1A1,1,0,0,1,144,209Zm-8,0a1,1,0,1,1,1,1A1,1,0,0,1,136,209Zm-8,0a1,1,0,1,1,1,1A1,1,0,0,1,128,209Zm-8,0a1,1,0,1,1,1,1A1,1,0,0,1,120,209Zm-8,0a1,1,0,1,1,1,1A1,1,0,0,1,112,209Zm-8,0a1,1,0,1,1,1,1A1,1,0,0,1,104,209Zm-8,0a1,1,0,1,1,1,1A1,1,0,0,1,96,209Zm-8,0a1,1,0,1,1,1,1A1,1,0,0,1,88,209Zm-8,0a1,1,0,1,1,1,1A1,1,0,0,1,80,209Zm-8,0a1,1,0,1,1,1,1A1,1,0,0,1,72,209Zm-8,0a1,1,0,1,1,1,1A1,1,0,0,1,64,209Zm-8,0a1,1,0,1,1,1,1A1,1,0,0,1,56,209Zm-8,0a1,1,0,1,1,1,1A1,1,0,0,1,48,209Zm-8,0a1,1,0,1,1,1,1A1,1,0,0,1,40,209Zm-8,0a1,1,0,1,1,1,1A1,1,0,0,1,32,209Zm-8,0a1,1,0,1,1,1,1A1,1,0,0,1,24,209Zm-8,0a1,1,0,1,1,1,1A1,1,0,0,1,16,209Zm-8,0a1,1,0,1,1,1,1A1,1,0,0,1,8,209Zm-8,0a1,1,0,1,1,1,1A1,1,0,0,1,0,209Zm248-8a1,1,0,1,1,1,1A1,1,0,0,1,248,201Zm-8,0a1,1,0,1,1,1,1A1,1,0,0,1,240,201Zm-8,0a1,1,0,1,1,1,1A1,1,0,0,1,232,201Zm-8,0a1,1,0,1,1,1,1A1,1,0,0,1,224,201Zm-8,0a1,1,0,1,1,1,1A1,1,0,0,1,216,201Zm-8,0a1,1,0,1,1,1,1A1,1,0,0,1,208,201Zm-8,0a1,1,0,1,1,1,1A1,1,0,0,1,200,201Zm-8,0a1,1,0,1,1,1,1A1,1,0,0,1,192,201Zm-8,0a1,1,0,1,1,1,1A1,1,0,0,1,184,201Zm-8,0a1,1,0,1,1,1,1A1,1,0,0,1,176,201Zm-8,0a1,1,0,1,1,1,1A1,1,0,0,1,168,201Zm-8,0a1,1,0,1,1,1,1A1,1,0,0,1,160,201Zm-8,0a1,1,0,1,1,1,1A1,1,0,0,1,152,201Zm-8,0a1,1,0,1,1,1,1A1,1,0,0,1,144,201Zm-8,0a1,1,0,1,1,1,1A1,1,0,0,1,136,201Zm-8,0a1,1,0,1,1,1,1A1,1,0,0,1,128,201Zm-8,0a1,1,0,1,1,1,1A1,1,0,0,1,120,201Zm-8,0a1,1,0,1,1,1,1A1,1,0,0,1,112,201Zm-8,0a1,1,0,1,1,1,1A1,1,0,0,1,104,201Zm-8,0a1,1,0,1,1,1,1A1,1,0,0,1,96,201Zm-8,0a1,1,0,1,1,1,1A1,1,0,0,1,88,201Zm-8,0a1,1,0,1,1,1,1A1,1,0,0,1,80,201Zm-8,0a1,1,0,1,1,1,1A1,1,0,0,1,72,201Zm-8,0a1,1,0,1,1,1,1A1,1,0,0,1,64,201Zm-8,0a1,1,0,1,1,1,1A1,1,0,0,1,56,201Zm-8,0a1,1,0,1,1,1,1A1,1,0,0,1,48,201Zm-8,0a1,1,0,1,1,1,1A1,1,0,0,1,40,201Zm-8,0a1,1,0,1,1,1,1A1,1,0,0,1,32,201Zm-8,0a1,1,0,1,1,1,1A1,1,0,0,1,24,201Zm-8,0a1,1,0,1,1,1,1A1,1,0,0,1,16,201Zm-8,0a1,1,0,1,1,1,1A1,1,0,0,1,8,201Zm-8,0a1,1,0,1,1,1,1A1,1,0,0,1,0,201Zm248-8a1,1,0,1,1,1,1A1,1,0,0,1,248,193Zm-8,0a1,1,0,1,1,1,1A1,1,0,0,1,240,193Zm-8,0a1,1,0,1,1,1,1A1,1,0,0,1,232,193Zm-8,0a1,1,0,1,1,1,1A1,1,0,0,1,224,193Zm-8,0a1,1,0,1,1,1,1A1,1,0,0,1,216,193Zm-8,0a1,1,0,1,1,1,1A1,1,0,0,1,208,193Zm-8,0a1,1,0,1,1,1,1A1,1,0,0,1,200,193Zm-8,0a1,1,0,1,1,1,1A1,1,0,0,1,192,193Zm-8,0a1,1,0,1,1,1,1A1,1,0,0,1,184,193Zm-8,0a1,1,0,1,1,1,1A1,1,0,0,1,176,193Zm-8,0a1,1,0,1,1,1,1A1,1,0,0,1,168,193Zm-8,0a1,1,0,1,1,1,1A1,1,0,0,1,160,193Zm-8,0a1,1,0,1,1,1,1A1,1,0,0,1,152,193Zm-8,0a1,1,0,1,1,1,1A1,1,0,0,1,144,193Zm-8,0a1,1,0,1,1,1,1A1,1,0,0,1,136,193Zm-8,0a1,1,0,1,1,1,1A1,1,0,0,1,128,193Zm-8,0a1,1,0,1,1,1,1A1,1,0,0,1,120,193Zm-8,0a1,1,0,1,1,1,1A1,1,0,0,1,112,193Zm-8,0a1,1,0,1,1,1,1A1,1,0,0,1,104,193Zm-8,0a1,1,0,1,1,1,1A1,1,0,0,1,96,193Zm-8,0a1,1,0,1,1,1,1A1,1,0,0,1,88,193Zm-8,0a1,1,0,1,1,1,1A1,1,0,0,1,80,193Zm-8,0a1,1,0,1,1,1,1A1,1,0,0,1,72,193Zm-8,0a1,1,0,1,1,1,1A1,1,0,0,1,64,193Zm-8,0a1,1,0,1,1,1,1A1,1,0,0,1,56,193Zm-8,0a1,1,0,1,1,1,1A1,1,0,0,1,48,193Zm-8,0a1,1,0,1,1,1,1A1,1,0,0,1,40,193Zm-8,0a1,1,0,1,1,1,1A1,1,0,0,1,32,193Zm-8,0a1,1,0,1,1,1,1A1,1,0,0,1,24,193Zm-8,0a1,1,0,1,1,1,1A1,1,0,0,1,16,193Zm-8,0a1,1,0,1,1,1,1A1,1,0,0,1,8,193Zm-8,0a1,1,0,1,1,1,1A1,1,0,0,1,0,193Zm248-8a1,1,0,1,1,1,1A1,1,0,0,1,248,185Zm-8,0a1,1,0,1,1,1,1A1,1,0,0,1,240,185Zm-8,0a1,1,0,1,1,1,1A1,1,0,0,1,232,185Zm-8,0a1,1,0,1,1,1,1A1,1,0,0,1,224,185Zm-8,0a1,1,0,1,1,1,1A1,1,0,0,1,216,185Zm-8,0a1,1,0,1,1,1,1A1,1,0,0,1,208,185Zm-8,0a1,1,0,1,1,1,1A1,1,0,0,1,200,185Zm-8,0a1,1,0,1,1,1,1A1,1,0,0,1,192,185Zm-8,0a1,1,0,1,1,1,1A1,1,0,0,1,184,185Zm-8,0a1,1,0,1,1,1,1A1,1,0,0,1,176,185Zm-8,0a1,1,0,1,1,1,1A1,1,0,0,1,168,185Zm-8,0a1,1,0,1,1,1,1A1,1,0,0,1,160,185Zm-8,0a1,1,0,1,1,1,1A1,1,0,0,1,152,185Zm-8,0a1,1,0,1,1,1,1A1,1,0,0,1,144,185Zm-8,0a1,1,0,1,1,1,1A1,1,0,0,1,136,185Zm-8,0a1,1,0,1,1,1,1A1,1,0,0,1,128,185Zm-8,0a1,1,0,1,1,1,1A1,1,0,0,1,120,185Zm-8,0a1,1,0,1,1,1,1A1,1,0,0,1,112,185Zm-8,0a1,1,0,1,1,1,1A1,1,0,0,1,104,185Zm-8,0a1,1,0,1,1,1,1A1,1,0,0,1,96,185Zm-8,0a1,1,0,1,1,1,1A1,1,0,0,1,88,185Zm-8,0a1,1,0,1,1,1,1A1,1,0,0,1,80,185Zm-8,0a1,1,0,1,1,1,1A1,1,0,0,1,72,185Zm-8,0a1,1,0,1,1,1,1A1,1,0,0,1,64,185Zm-8,0a1,1,0,1,1,1,1A1,1,0,0,1,56,185Zm-8,0a1,1,0,1,1,1,1A1,1,0,0,1,48,185Zm-8,0a1,1,0,1,1,1,1A1,1,0,0,1,40,185Zm-8,0a1,1,0,1,1,1,1A1,1,0,0,1,32,185Zm-8,0a1,1,0,1,1,1,1A1,1,0,0,1,24,185Zm-8,0a1,1,0,1,1,1,1A1,1,0,0,1,16,185Zm-8,0a1,1,0,1,1,1,1A1,1,0,0,1,8,185Zm-8,0a1,1,0,1,1,1,1A1,1,0,0,1,0,185Zm248-8a1,1,0,1,1,1,1A1,1,0,0,1,248,177Zm-8,0a1,1,0,1,1,1,1A1,1,0,0,1,240,177Zm-8,0a1,1,0,1,1,1,1A1,1,0,0,1,232,177Zm-8,0a1,1,0,1,1,1,1A1,1,0,0,1,224,177Zm-8,0a1,1,0,1,1,1,1A1,1,0,0,1,216,177Zm-8,0a1,1,0,1,1,1,1A1,1,0,0,1,208,177Zm-8,0a1,1,0,1,1,1,1A1,1,0,0,1,200,177Zm-8,0a1,1,0,1,1,1,1A1,1,0,0,1,192,177Zm-8,0a1,1,0,1,1,1,1A1,1,0,0,1,184,177Zm-8,0a1,1,0,1,1,1,1A1,1,0,0,1,176,177Zm-8,0a1,1,0,1,1,1,1A1,1,0,0,1,168,177Zm-8,0a1,1,0,1,1,1,1A1,1,0,0,1,160,177Zm-8,0a1,1,0,1,1,1,1A1,1,0,0,1,152,177Zm-8,0a1,1,0,1,1,1,1A1,1,0,0,1,144,177Zm-8,0a1,1,0,1,1,1,1A1,1,0,0,1,136,177Zm-8,0a1,1,0,1,1,1,1A1,1,0,0,1,128,177Zm-8,0a1,1,0,1,1,1,1A1,1,0,0,1,120,177Zm-8,0a1,1,0,1,1,1,1A1,1,0,0,1,112,177Zm-8,0a1,1,0,1,1,1,1A1,1,0,0,1,104,177Zm-8,0a1,1,0,1,1,1,1A1,1,0,0,1,96,177Zm-8,0a1,1,0,1,1,1,1A1,1,0,0,1,88,177Zm-8,0a1,1,0,1,1,1,1A1,1,0,0,1,80,177Zm-8,0a1,1,0,1,1,1,1A1,1,0,0,1,72,177Zm-8,0a1,1,0,1,1,1,1A1,1,0,0,1,64,177Zm-8,0a1,1,0,1,1,1,1A1,1,0,0,1,56,177Zm-8,0a1,1,0,1,1,1,1A1,1,0,0,1,48,177Zm-8,0a1,1,0,1,1,1,1A1,1,0,0,1,40,177Zm-8,0a1,1,0,1,1,1,1A1,1,0,0,1,32,177Zm-8,0a1,1,0,1,1,1,1A1,1,0,0,1,24,177Zm-8,0a1,1,0,1,1,1,1A1,1,0,0,1,16,177Zm-8,0a1,1,0,1,1,1,1A1,1,0,0,1,8,177Zm-8,0a1,1,0,1,1,1,1A1,1,0,0,1,0,177Zm248-8a1,1,0,1,1,1,1A1,1,0,0,1,248,169Zm-8,0a1,1,0,1,1,1,1A1,1,0,0,1,240,169Zm-8,0a1,1,0,1,1,1,1A1,1,0,0,1,232,169Zm-8,0a1,1,0,1,1,1,1A1,1,0,0,1,224,169Zm-8,0a1,1,0,1,1,1,1A1,1,0,0,1,216,169Zm-8,0a1,1,0,1,1,1,1A1,1,0,0,1,208,169Zm-8,0a1,1,0,1,1,1,1A1,1,0,0,1,200,169Zm-8,0a1,1,0,1,1,1,1A1,1,0,0,1,192,169Zm-8,0a1,1,0,1,1,1,1A1,1,0,0,1,184,169Zm-8,0a1,1,0,1,1,1,1A1,1,0,0,1,176,169Zm-8,0a1,1,0,1,1,1,1A1,1,0,0,1,168,169Zm-8,0a1,1,0,1,1,1,1A1,1,0,0,1,160,169Zm-8,0a1,1,0,1,1,1,1A1,1,0,0,1,152,169Zm-8,0a1,1,0,1,1,1,1A1,1,0,0,1,144,169Zm-8,0a1,1,0,1,1,1,1A1,1,0,0,1,136,169Zm-8,0a1,1,0,1,1,1,1A1,1,0,0,1,128,169Zm-8,0a1,1,0,1,1,1,1A1,1,0,0,1,120,169Zm-8,0a1,1,0,1,1,1,1A1,1,0,0,1,112,169Zm-8,0a1,1,0,1,1,1,1A1,1,0,0,1,104,169Zm-8,0a1,1,0,1,1,1,1A1,1,0,0,1,96,169Zm-8,0a1,1,0,1,1,1,1A1,1,0,0,1,88,169Zm-8,0a1,1,0,1,1,1,1A1,1,0,0,1,80,169Zm-8,0a1,1,0,1,1,1,1A1,1,0,0,1,72,169Zm-8,0a1,1,0,1,1,1,1A1,1,0,0,1,64,169Zm-8,0a1,1,0,1,1,1,1A1,1,0,0,1,56,169Zm-8,0a1,1,0,1,1,1,1A1,1,0,0,1,48,169Zm-8,0a1,1,0,1,1,1,1A1,1,0,0,1,40,169Zm-8,0a1,1,0,1,1,1,1A1,1,0,0,1,32,169Zm-8,0a1,1,0,1,1,1,1A1,1,0,0,1,24,169Zm-8,0a1,1,0,1,1,1,1A1,1,0,0,1,16,169Zm-8,0a1,1,0,1,1,1,1A1,1,0,0,1,8,169Zm-8,0a1,1,0,1,1,1,1A1,1,0,0,1,0,169Zm248-8a1,1,0,1,1,1,1A1,1,0,0,1,248,161Zm-8,0a1,1,0,1,1,1,1A1,1,0,0,1,240,161Zm-8,0a1,1,0,1,1,1,1A1,1,0,0,1,232,161Zm-8,0a1,1,0,1,1,1,1A1,1,0,0,1,224,161Zm-8,0a1,1,0,1,1,1,1A1,1,0,0,1,216,161Zm-8,0a1,1,0,1,1,1,1A1,1,0,0,1,208,161Zm-8,0a1,1,0,1,1,1,1A1,1,0,0,1,200,161Zm-8,0a1,1,0,1,1,1,1A1,1,0,0,1,192,161Zm-8,0a1,1,0,1,1,1,1A1,1,0,0,1,184,161Zm-8,0a1,1,0,1,1,1,1A1,1,0,0,1,176,161Zm-8,0a1,1,0,1,1,1,1A1,1,0,0,1,168,161Zm-8,0a1,1,0,1,1,1,1A1,1,0,0,1,160,161Zm-8,0a1,1,0,1,1,1,1A1,1,0,0,1,152,161Zm-8,0a1,1,0,1,1,1,1A1,1,0,0,1,144,161Zm-8,0a1,1,0,1,1,1,1A1,1,0,0,1,136,161Zm-8,0a1,1,0,1,1,1,1A1,1,0,0,1,128,161Zm-8,0a1,1,0,1,1,1,1A1,1,0,0,1,120,161Zm-8,0a1,1,0,1,1,1,1A1,1,0,0,1,112,161Zm-8,0a1,1,0,1,1,1,1A1,1,0,0,1,104,161Zm-8,0a1,1,0,1,1,1,1A1,1,0,0,1,96,161Zm-8,0a1,1,0,1,1,1,1A1,1,0,0,1,88,161Zm-8,0a1,1,0,1,1,1,1A1,1,0,0,1,80,161Zm-8,0a1,1,0,1,1,1,1A1,1,0,0,1,72,161Zm-8,0a1,1,0,1,1,1,1A1,1,0,0,1,64,161Zm-8,0a1,1,0,1,1,1,1A1,1,0,0,1,56,161Zm-8,0a1,1,0,1,1,1,1A1,1,0,0,1,48,161Zm-8,0a1,1,0,1,1,1,1A1,1,0,0,1,40,161Zm-8,0a1,1,0,1,1,1,1A1,1,0,0,1,32,161Zm-8,0a1,1,0,1,1,1,1A1,1,0,0,1,24,161Zm-8,0a1,1,0,1,1,1,1A1,1,0,0,1,16,161Zm-8,0a1,1,0,1,1,1,1A1,1,0,0,1,8,161Zm-8,0a1,1,0,1,1,1,1A1,1,0,0,1,0,161Zm248-8a1,1,0,1,1,1,1A1,1,0,0,1,248,153Zm-8,0a1,1,0,1,1,1,1A1,1,0,0,1,240,153Zm-8,0a1,1,0,1,1,1,1A1,1,0,0,1,232,153Zm-8,0a1,1,0,1,1,1,1A1,1,0,0,1,224,153Zm-8,0a1,1,0,1,1,1,1A1,1,0,0,1,216,153Zm-8,0a1,1,0,1,1,1,1A1,1,0,0,1,208,153Zm-8,0a1,1,0,1,1,1,1A1,1,0,0,1,200,153Zm-8,0a1,1,0,1,1,1,1A1,1,0,0,1,192,153Zm-8,0a1,1,0,1,1,1,1A1,1,0,0,1,184,153Zm-8,0a1,1,0,1,1,1,1A1,1,0,0,1,176,153Zm-8,0a1,1,0,1,1,1,1A1,1,0,0,1,168,153Zm-8,0a1,1,0,1,1,1,1A1,1,0,0,1,160,153Zm-8,0a1,1,0,1,1,1,1A1,1,0,0,1,152,153Zm-8,0a1,1,0,1,1,1,1A1,1,0,0,1,144,153Zm-8,0a1,1,0,1,1,1,1A1,1,0,0,1,136,153Zm-8,0a1,1,0,1,1,1,1A1,1,0,0,1,128,153Zm-8,0a1,1,0,1,1,1,1A1,1,0,0,1,120,153Zm-8,0a1,1,0,1,1,1,1A1,1,0,0,1,112,153Zm-8,0a1,1,0,1,1,1,1A1,1,0,0,1,104,153Zm-8,0a1,1,0,1,1,1,1A1,1,0,0,1,96,153Zm-8,0a1,1,0,1,1,1,1A1,1,0,0,1,88,153Zm-8,0a1,1,0,1,1,1,1A1,1,0,0,1,80,153Zm-8,0a1,1,0,1,1,1,1A1,1,0,0,1,72,153Zm-8,0a1,1,0,1,1,1,1A1,1,0,0,1,64,153Zm-8,0a1,1,0,1,1,1,1A1,1,0,0,1,56,153Zm-8,0a1,1,0,1,1,1,1A1,1,0,0,1,48,153Zm-8,0a1,1,0,1,1,1,1A1,1,0,0,1,40,153Zm-8,0a1,1,0,1,1,1,1A1,1,0,0,1,32,153Zm-8,0a1,1,0,1,1,1,1A1,1,0,0,1,24,153Zm-8,0a1,1,0,1,1,1,1A1,1,0,0,1,16,153Zm-8,0a1,1,0,1,1,1,1A1,1,0,0,1,8,153Zm-8,0a1,1,0,1,1,1,1A1,1,0,0,1,0,153Zm248-8a1,1,0,1,1,1,1A1,1,0,0,1,248,145Zm-8,0a1,1,0,1,1,1,1A1,1,0,0,1,240,145Zm-8,0a1,1,0,1,1,1,1A1,1,0,0,1,232,145Zm-8,0a1,1,0,1,1,1,1A1,1,0,0,1,224,145Zm-8,0a1,1,0,1,1,1,1A1,1,0,0,1,216,145Zm-8,0a1,1,0,1,1,1,1A1,1,0,0,1,208,145Zm-8,0a1,1,0,1,1,1,1A1,1,0,0,1,200,145Zm-8,0a1,1,0,1,1,1,1A1,1,0,0,1,192,145Zm-8,0a1,1,0,1,1,1,1A1,1,0,0,1,184,145Zm-8,0a1,1,0,1,1,1,1A1,1,0,0,1,176,145Zm-8,0a1,1,0,1,1,1,1A1,1,0,0,1,168,145Zm-8,0a1,1,0,1,1,1,1A1,1,0,0,1,160,145Zm-8,0a1,1,0,1,1,1,1A1,1,0,0,1,152,145Zm-8,0a1,1,0,1,1,1,1A1,1,0,0,1,144,145Zm-8,0a1,1,0,1,1,1,1A1,1,0,0,1,136,145Zm-8,0a1,1,0,1,1,1,1A1,1,0,0,1,128,145Zm-8,0a1,1,0,1,1,1,1A1,1,0,0,1,120,145Zm-8,0a1,1,0,1,1,1,1A1,1,0,0,1,112,145Zm-8,0a1,1,0,1,1,1,1A1,1,0,0,1,104,145Zm-8,0a1,1,0,1,1,1,1A1,1,0,0,1,96,145Zm-8,0a1,1,0,1,1,1,1A1,1,0,0,1,88,145Zm-8,0a1,1,0,1,1,1,1A1,1,0,0,1,80,145Zm-8,0a1,1,0,1,1,1,1A1,1,0,0,1,72,145Zm-8,0a1,1,0,1,1,1,1A1,1,0,0,1,64,145Zm-8,0a1,1,0,1,1,1,1A1,1,0,0,1,56,145Zm-8,0a1,1,0,1,1,1,1A1,1,0,0,1,48,145Zm-8,0a1,1,0,1,1,1,1A1,1,0,0,1,40,145Zm-8,0a1,1,0,1,1,1,1A1,1,0,0,1,32,145Zm-8,0a1,1,0,1,1,1,1A1,1,0,0,1,24,145Zm-8,0a1,1,0,1,1,1,1A1,1,0,0,1,16,145Zm-8,0a1,1,0,1,1,1,1A1,1,0,0,1,8,145Zm-8,0a1,1,0,1,1,1,1A1,1,0,0,1,0,145Zm248-8a1,1,0,1,1,1,1A1,1,0,0,1,248,137Zm-8,0a1,1,0,1,1,1,1A1,1,0,0,1,240,137Zm-8,0a1,1,0,1,1,1,1A1,1,0,0,1,232,137Zm-8,0a1,1,0,1,1,1,1A1,1,0,0,1,224,137Zm-8,0a1,1,0,1,1,1,1A1,1,0,0,1,216,137Zm-8,0a1,1,0,1,1,1,1A1,1,0,0,1,208,137Zm-8,0a1,1,0,1,1,1,1A1,1,0,0,1,200,137Zm-8,0a1,1,0,1,1,1,1A1,1,0,0,1,192,137Zm-8,0a1,1,0,1,1,1,1A1,1,0,0,1,184,137Zm-8,0a1,1,0,1,1,1,1A1,1,0,0,1,176,137Zm-8,0a1,1,0,1,1,1,1A1,1,0,0,1,168,137Zm-8,0a1,1,0,1,1,1,1A1,1,0,0,1,160,137Zm-8,0a1,1,0,1,1,1,1A1,1,0,0,1,152,137Zm-8,0a1,1,0,1,1,1,1A1,1,0,0,1,144,137Zm-8,0a1,1,0,1,1,1,1A1,1,0,0,1,136,137Zm-8,0a1,1,0,1,1,1,1A1,1,0,0,1,128,137Zm-8,0a1,1,0,1,1,1,1A1,1,0,0,1,120,137Zm-8,0a1,1,0,1,1,1,1A1,1,0,0,1,112,137Zm-8,0a1,1,0,1,1,1,1A1,1,0,0,1,104,137Zm-8,0a1,1,0,1,1,1,1A1,1,0,0,1,96,137Zm-8,0a1,1,0,1,1,1,1A1,1,0,0,1,88,137Zm-8,0a1,1,0,1,1,1,1A1,1,0,0,1,80,137Zm-8,0a1,1,0,1,1,1,1A1,1,0,0,1,72,137Zm-8,0a1,1,0,1,1,1,1A1,1,0,0,1,64,137Zm-8,0a1,1,0,1,1,1,1A1,1,0,0,1,56,137Zm-8,0a1,1,0,1,1,1,1A1,1,0,0,1,48,137Zm-8,0a1,1,0,1,1,1,1A1,1,0,0,1,40,137Zm-8,0a1,1,0,1,1,1,1A1,1,0,0,1,32,137Zm-8,0a1,1,0,1,1,1,1A1,1,0,0,1,24,137Zm-8,0a1,1,0,1,1,1,1A1,1,0,0,1,16,137Zm-8,0a1,1,0,1,1,1,1A1,1,0,0,1,8,137Zm-8,0a1,1,0,1,1,1,1A1,1,0,0,1,0,137Zm248-8a1,1,0,1,1,1,1A1,1,0,0,1,248,129Zm-8,0a1,1,0,1,1,1,1A1,1,0,0,1,240,129Zm-8,0a1,1,0,1,1,1,1A1,1,0,0,1,232,129Zm-8,0a1,1,0,1,1,1,1A1,1,0,0,1,224,129Zm-8,0a1,1,0,1,1,1,1A1,1,0,0,1,216,129Zm-8,0a1,1,0,1,1,1,1A1,1,0,0,1,208,129Zm-8,0a1,1,0,1,1,1,1A1,1,0,0,1,200,129Zm-8,0a1,1,0,1,1,1,1A1,1,0,0,1,192,129Zm-8,0a1,1,0,1,1,1,1A1,1,0,0,1,184,129Zm-8,0a1,1,0,1,1,1,1A1,1,0,0,1,176,129Zm-8,0a1,1,0,1,1,1,1A1,1,0,0,1,168,129Zm-8,0a1,1,0,1,1,1,1A1,1,0,0,1,160,129Zm-8,0a1,1,0,1,1,1,1A1,1,0,0,1,152,129Zm-8,0a1,1,0,1,1,1,1A1,1,0,0,1,144,129Zm-8,0a1,1,0,1,1,1,1A1,1,0,0,1,136,129Zm-8,0a1,1,0,1,1,1,1A1,1,0,0,1,128,129Zm-8,0a1,1,0,1,1,1,1A1,1,0,0,1,120,129Zm-8,0a1,1,0,1,1,1,1A1,1,0,0,1,112,129Zm-8,0a1,1,0,1,1,1,1A1,1,0,0,1,104,129Zm-8,0a1,1,0,1,1,1,1A1,1,0,0,1,96,129Zm-8,0a1,1,0,1,1,1,1A1,1,0,0,1,88,129Zm-8,0a1,1,0,1,1,1,1A1,1,0,0,1,80,129Zm-8,0a1,1,0,1,1,1,1A1,1,0,0,1,72,129Zm-8,0a1,1,0,1,1,1,1A1,1,0,0,1,64,129Zm-8,0a1,1,0,1,1,1,1A1,1,0,0,1,56,129Zm-8,0a1,1,0,1,1,1,1A1,1,0,0,1,48,129Zm-8,0a1,1,0,1,1,1,1A1,1,0,0,1,40,129Zm-8,0a1,1,0,1,1,1,1A1,1,0,0,1,32,129Zm-8,0a1,1,0,1,1,1,1A1,1,0,0,1,24,129Zm-8,0a1,1,0,1,1,1,1A1,1,0,0,1,16,129Zm-8,0a1,1,0,1,1,1,1A1,1,0,0,1,8,129Zm-8,0a1,1,0,1,1,1,1A1,1,0,0,1,0,129Zm248-8a1,1,0,1,1,1,1A1,1,0,0,1,248,121Zm-8,0a1,1,0,1,1,1,1A1,1,0,0,1,240,121Zm-8,0a1,1,0,1,1,1,1A1,1,0,0,1,232,121Zm-8,0a1,1,0,1,1,1,1A1,1,0,0,1,224,121Zm-8,0a1,1,0,1,1,1,1A1,1,0,0,1,216,121Zm-8,0a1,1,0,1,1,1,1A1,1,0,0,1,208,121Zm-8,0a1,1,0,1,1,1,1A1,1,0,0,1,200,121Zm-8,0a1,1,0,1,1,1,1A1,1,0,0,1,192,121Zm-8,0a1,1,0,1,1,1,1A1,1,0,0,1,184,121Zm-8,0a1,1,0,1,1,1,1A1,1,0,0,1,176,121Zm-8,0a1,1,0,1,1,1,1A1,1,0,0,1,168,121Zm-8,0a1,1,0,1,1,1,1A1,1,0,0,1,160,121Zm-8,0a1,1,0,1,1,1,1A1,1,0,0,1,152,121Zm-8,0a1,1,0,1,1,1,1A1,1,0,0,1,144,121Zm-8,0a1,1,0,1,1,1,1A1,1,0,0,1,136,121Zm-8,0a1,1,0,1,1,1,1A1,1,0,0,1,128,121Zm-8,0a1,1,0,1,1,1,1A1,1,0,0,1,120,121Zm-8,0a1,1,0,1,1,1,1A1,1,0,0,1,112,121Zm-8,0a1,1,0,1,1,1,1A1,1,0,0,1,104,121Zm-8,0a1,1,0,1,1,1,1A1,1,0,0,1,96,121Zm-8,0a1,1,0,1,1,1,1A1,1,0,0,1,88,121Zm-8,0a1,1,0,1,1,1,1A1,1,0,0,1,80,121Zm-8,0a1,1,0,1,1,1,1A1,1,0,0,1,72,121Zm-8,0a1,1,0,1,1,1,1A1,1,0,0,1,64,121Zm-8,0a1,1,0,1,1,1,1A1,1,0,0,1,56,121Zm-8,0a1,1,0,1,1,1,1A1,1,0,0,1,48,121Zm-8,0a1,1,0,1,1,1,1A1,1,0,0,1,40,121Zm-8,0a1,1,0,1,1,1,1A1,1,0,0,1,32,121Zm-8,0a1,1,0,1,1,1,1A1,1,0,0,1,24,121Zm-8,0a1,1,0,1,1,1,1A1,1,0,0,1,16,121Zm-8,0a1,1,0,1,1,1,1A1,1,0,0,1,8,121Zm-8,0a1,1,0,1,1,1,1A1,1,0,0,1,0,121Zm248-8a1,1,0,1,1,1,1A1,1,0,0,1,248,113Zm-8,0a1,1,0,1,1,1,1A1,1,0,0,1,240,113Zm-8,0a1,1,0,1,1,1,1A1,1,0,0,1,232,113Zm-8,0a1,1,0,1,1,1,1A1,1,0,0,1,224,113Zm-8,0a1,1,0,1,1,1,1A1,1,0,0,1,216,113Zm-8,0a1,1,0,1,1,1,1A1,1,0,0,1,208,113Zm-8,0a1,1,0,1,1,1,1A1,1,0,0,1,200,113Zm-8,0a1,1,0,1,1,1,1A1,1,0,0,1,192,113Zm-8,0a1,1,0,1,1,1,1A1,1,0,0,1,184,113Zm-8,0a1,1,0,1,1,1,1A1,1,0,0,1,176,113Zm-8,0a1,1,0,1,1,1,1A1,1,0,0,1,168,113Zm-8,0a1,1,0,1,1,1,1A1,1,0,0,1,160,113Zm-8,0a1,1,0,1,1,1,1A1,1,0,0,1,152,113Zm-8,0a1,1,0,1,1,1,1A1,1,0,0,1,144,113Zm-8,0a1,1,0,1,1,1,1A1,1,0,0,1,136,113Zm-8,0a1,1,0,1,1,1,1A1,1,0,0,1,128,113Zm-8,0a1,1,0,1,1,1,1A1,1,0,0,1,120,113Zm-8,0a1,1,0,1,1,1,1A1,1,0,0,1,112,113Zm-8,0a1,1,0,1,1,1,1A1,1,0,0,1,104,113Zm-8,0a1,1,0,1,1,1,1A1,1,0,0,1,96,113Zm-8,0a1,1,0,1,1,1,1A1,1,0,0,1,88,113Zm-8,0a1,1,0,1,1,1,1A1,1,0,0,1,80,113Zm-8,0a1,1,0,1,1,1,1A1,1,0,0,1,72,113Zm-8,0a1,1,0,1,1,1,1A1,1,0,0,1,64,113Zm-8,0a1,1,0,1,1,1,1A1,1,0,0,1,56,113Zm-8,0a1,1,0,1,1,1,1A1,1,0,0,1,48,113Zm-8,0a1,1,0,1,1,1,1A1,1,0,0,1,40,113Zm-8,0a1,1,0,1,1,1,1A1,1,0,0,1,32,113Zm-8,0a1,1,0,1,1,1,1A1,1,0,0,1,24,113Zm-8,0a1,1,0,1,1,1,1A1,1,0,0,1,16,113Zm-8,0a1,1,0,1,1,1,1A1,1,0,0,1,8,113Zm-8,0a1,1,0,1,1,1,1A1,1,0,0,1,0,113Zm248-8a1,1,0,1,1,1,1A1,1,0,0,1,248,105Zm-8,0a1,1,0,1,1,1,1A1,1,0,0,1,240,105Zm-8,0a1,1,0,1,1,1,1A1,1,0,0,1,232,105Zm-8,0a1,1,0,1,1,1,1A1,1,0,0,1,224,105Zm-8,0a1,1,0,1,1,1,1A1,1,0,0,1,216,105Zm-8,0a1,1,0,1,1,1,1A1,1,0,0,1,208,105Zm-8,0a1,1,0,1,1,1,1A1,1,0,0,1,200,105Zm-8,0a1,1,0,1,1,1,1A1,1,0,0,1,192,105Zm-8,0a1,1,0,1,1,1,1A1,1,0,0,1,184,105Zm-8,0a1,1,0,1,1,1,1A1,1,0,0,1,176,105Zm-8,0a1,1,0,1,1,1,1A1,1,0,0,1,168,105Zm-8,0a1,1,0,1,1,1,1A1,1,0,0,1,160,105Zm-8,0a1,1,0,1,1,1,1A1,1,0,0,1,152,105Zm-8,0a1,1,0,1,1,1,1A1,1,0,0,1,144,105Zm-8,0a1,1,0,1,1,1,1A1,1,0,0,1,136,105Zm-8,0a1,1,0,1,1,1,1A1,1,0,0,1,128,105Zm-8,0a1,1,0,1,1,1,1A1,1,0,0,1,120,105Zm-8,0a1,1,0,1,1,1,1A1,1,0,0,1,112,105Zm-8,0a1,1,0,1,1,1,1A1,1,0,0,1,104,105Zm-8,0a1,1,0,1,1,1,1A1,1,0,0,1,96,105Zm-8,0a1,1,0,1,1,1,1A1,1,0,0,1,88,105Zm-8,0a1,1,0,1,1,1,1A1,1,0,0,1,80,105Zm-8,0a1,1,0,1,1,1,1A1,1,0,0,1,72,105Zm-8,0a1,1,0,1,1,1,1A1,1,0,0,1,64,105Zm-8,0a1,1,0,1,1,1,1A1,1,0,0,1,56,105Zm-8,0a1,1,0,1,1,1,1A1,1,0,0,1,48,105Zm-8,0a1,1,0,1,1,1,1A1,1,0,0,1,40,105Zm-8,0a1,1,0,1,1,1,1A1,1,0,0,1,32,105Zm-8,0a1,1,0,1,1,1,1A1,1,0,0,1,24,105Zm-8,0a1,1,0,1,1,1,1A1,1,0,0,1,16,105Zm-8,0a1,1,0,1,1,1,1A1,1,0,0,1,8,105Zm-8,0a1,1,0,1,1,1,1A1,1,0,0,1,0,105Zm248-8a1,1,0,1,1,1,1A1,1,0,0,1,248,97Zm-8,0a1,1,0,1,1,1,1A1,1,0,0,1,240,97Zm-8,0a1,1,0,1,1,1,1A1,1,0,0,1,232,97Zm-8,0a1,1,0,1,1,1,1A1,1,0,0,1,224,97Zm-8,0a1,1,0,1,1,1,1A1,1,0,0,1,216,97Zm-8,0a1,1,0,1,1,1,1A1,1,0,0,1,208,97Zm-8,0a1,1,0,1,1,1,1A1,1,0,0,1,200,97Zm-8,0a1,1,0,1,1,1,1A1,1,0,0,1,192,97Zm-8,0a1,1,0,1,1,1,1A1,1,0,0,1,184,97Zm-8,0a1,1,0,1,1,1,1A1,1,0,0,1,176,97Zm-8,0a1,1,0,1,1,1,1A1,1,0,0,1,168,97Zm-8,0a1,1,0,1,1,1,1A1,1,0,0,1,160,97Zm-8,0a1,1,0,1,1,1,1A1,1,0,0,1,152,97Zm-8,0a1,1,0,1,1,1,1A1,1,0,0,1,144,97Zm-8,0a1,1,0,1,1,1,1A1,1,0,0,1,136,97Zm-8,0a1,1,0,1,1,1,1A1,1,0,0,1,128,97Zm-8,0a1,1,0,1,1,1,1A1,1,0,0,1,120,97Zm-8,0a1,1,0,1,1,1,1A1,1,0,0,1,112,97Zm-8,0a1,1,0,1,1,1,1A1,1,0,0,1,104,97Zm-8,0a1,1,0,1,1,1,1A1,1,0,0,1,96,97Zm-8,0a1,1,0,1,1,1,1A1,1,0,0,1,88,97Zm-8,0a1,1,0,1,1,1,1A1,1,0,0,1,80,97Zm-8,0a1,1,0,1,1,1,1A1,1,0,0,1,72,97Zm-8,0a1,1,0,1,1,1,1A1,1,0,0,1,64,97Zm-8,0a1,1,0,1,1,1,1A1,1,0,0,1,56,97Zm-8,0a1,1,0,1,1,1,1A1,1,0,0,1,48,97Zm-8,0a1,1,0,1,1,1,1A1,1,0,0,1,40,97Zm-8,0a1,1,0,1,1,1,1A1,1,0,0,1,32,97Zm-8,0a1,1,0,1,1,1,1A1,1,0,0,1,24,97Zm-8,0a1,1,0,1,1,1,1A1,1,0,0,1,16,97ZM8,97a1,1,0,1,1,1,1A1,1,0,0,1,8,97ZM0,97a1,1,0,1,1,1,1A1,1,0,0,1,0,97Zm248-8a1,1,0,1,1,1,1A1,1,0,0,1,248,89Zm-8,0a1,1,0,1,1,1,1A1,1,0,0,1,240,89Zm-8,0a1,1,0,1,1,1,1A1,1,0,0,1,232,89Zm-8,0a1,1,0,1,1,1,1A1,1,0,0,1,224,89Zm-8,0a1,1,0,1,1,1,1A1,1,0,0,1,216,89Zm-8,0a1,1,0,1,1,1,1A1,1,0,0,1,208,89Zm-8,0a1,1,0,1,1,1,1A1,1,0,0,1,200,89Zm-8,0a1,1,0,1,1,1,1A1,1,0,0,1,192,89Zm-8,0a1,1,0,1,1,1,1A1,1,0,0,1,184,89Zm-8,0a1,1,0,1,1,1,1A1,1,0,0,1,176,89Zm-8,0a1,1,0,1,1,1,1A1,1,0,0,1,168,89Zm-8,0a1,1,0,1,1,1,1A1,1,0,0,1,160,89Zm-8,0a1,1,0,1,1,1,1A1,1,0,0,1,152,89Zm-8,0a1,1,0,1,1,1,1A1,1,0,0,1,144,89Zm-8,0a1,1,0,1,1,1,1A1,1,0,0,1,136,89Zm-8,0a1,1,0,1,1,1,1A1,1,0,0,1,128,89Zm-8,0a1,1,0,1,1,1,1A1,1,0,0,1,120,89Zm-8,0a1,1,0,1,1,1,1A1,1,0,0,1,112,89Zm-8,0a1,1,0,1,1,1,1A1,1,0,0,1,104,89Zm-8,0a1,1,0,1,1,1,1A1,1,0,0,1,96,89Zm-8,0a1,1,0,1,1,1,1A1,1,0,0,1,88,89Zm-8,0a1,1,0,1,1,1,1A1,1,0,0,1,80,89Zm-8,0a1,1,0,1,1,1,1A1,1,0,0,1,72,89Zm-8,0a1,1,0,1,1,1,1A1,1,0,0,1,64,89Zm-8,0a1,1,0,1,1,1,1A1,1,0,0,1,56,89Zm-8,0a1,1,0,1,1,1,1A1,1,0,0,1,48,89Zm-8,0a1,1,0,1,1,1,1A1,1,0,0,1,40,89Zm-8,0a1,1,0,1,1,1,1A1,1,0,0,1,32,89Zm-8,0a1,1,0,1,1,1,1A1,1,0,0,1,24,89Zm-8,0a1,1,0,1,1,1,1A1,1,0,0,1,16,89ZM8,89a1,1,0,1,1,1,1A1,1,0,0,1,8,89ZM0,89a1,1,0,1,1,1,1A1,1,0,0,1,0,89Zm248-8a1,1,0,1,1,1,1A1,1,0,0,1,248,81Zm-8,0a1,1,0,1,1,1,1A1,1,0,0,1,240,81Zm-8,0a1,1,0,1,1,1,1A1,1,0,0,1,232,81Zm-8,0a1,1,0,1,1,1,1A1,1,0,0,1,224,81Zm-8,0a1,1,0,1,1,1,1A1,1,0,0,1,216,81Zm-8,0a1,1,0,1,1,1,1A1,1,0,0,1,208,81Zm-8,0a1,1,0,1,1,1,1A1,1,0,0,1,200,81Zm-8,0a1,1,0,1,1,1,1A1,1,0,0,1,192,81Zm-8,0a1,1,0,1,1,1,1A1,1,0,0,1,184,81Zm-8,0a1,1,0,1,1,1,1A1,1,0,0,1,176,81Zm-8,0a1,1,0,1,1,1,1A1,1,0,0,1,168,81Zm-8,0a1,1,0,1,1,1,1A1,1,0,0,1,160,81Zm-8,0a1,1,0,1,1,1,1A1,1,0,0,1,152,81Zm-8,0a1,1,0,1,1,1,1A1,1,0,0,1,144,81Zm-8,0a1,1,0,1,1,1,1A1,1,0,0,1,136,81Zm-8,0a1,1,0,1,1,1,1A1,1,0,0,1,128,81Zm-8,0a1,1,0,1,1,1,1A1,1,0,0,1,120,81Zm-8,0a1,1,0,1,1,1,1A1,1,0,0,1,112,81Zm-8,0a1,1,0,1,1,1,1A1,1,0,0,1,104,81Zm-8,0a1,1,0,1,1,1,1A1,1,0,0,1,96,81Zm-8,0a1,1,0,1,1,1,1A1,1,0,0,1,88,81Zm-8,0a1,1,0,1,1,1,1A1,1,0,0,1,80,81Zm-8,0a1,1,0,1,1,1,1A1,1,0,0,1,72,81Zm-8,0a1,1,0,1,1,1,1A1,1,0,0,1,64,81Zm-8,0a1,1,0,1,1,1,1A1,1,0,0,1,56,81Zm-8,0a1,1,0,1,1,1,1A1,1,0,0,1,48,81Zm-8,0a1,1,0,1,1,1,1A1,1,0,0,1,40,81Zm-8,0a1,1,0,1,1,1,1A1,1,0,0,1,32,81Zm-8,0a1,1,0,1,1,1,1A1,1,0,0,1,24,81Zm-8,0a1,1,0,1,1,1,1A1,1,0,0,1,16,81ZM8,81a1,1,0,1,1,1,1A1,1,0,0,1,8,81ZM0,81a1,1,0,1,1,1,1A1,1,0,0,1,0,81Zm248-8a1,1,0,1,1,1,1A1,1,0,0,1,248,73Zm-8,0a1,1,0,1,1,1,1A1,1,0,0,1,240,73Zm-8,0a1,1,0,1,1,1,1A1,1,0,0,1,232,73Zm-8,0a1,1,0,1,1,1,1A1,1,0,0,1,224,73Zm-8,0a1,1,0,1,1,1,1A1,1,0,0,1,216,73Zm-8,0a1,1,0,1,1,1,1A1,1,0,0,1,208,73Zm-8,0a1,1,0,1,1,1,1A1,1,0,0,1,200,73Zm-8,0a1,1,0,1,1,1,1A1,1,0,0,1,192,73Zm-8,0a1,1,0,1,1,1,1A1,1,0,0,1,184,73Zm-8,0a1,1,0,1,1,1,1A1,1,0,0,1,176,73Zm-8,0a1,1,0,1,1,1,1A1,1,0,0,1,168,73Zm-8,0a1,1,0,1,1,1,1A1,1,0,0,1,160,73Zm-8,0a1,1,0,1,1,1,1A1,1,0,0,1,152,73Zm-8,0a1,1,0,1,1,1,1A1,1,0,0,1,144,73Zm-8,0a1,1,0,1,1,1,1A1,1,0,0,1,136,73Zm-8,0a1,1,0,1,1,1,1A1,1,0,0,1,128,73Zm-8,0a1,1,0,1,1,1,1A1,1,0,0,1,120,73Zm-8,0a1,1,0,1,1,1,1A1,1,0,0,1,112,73Zm-8,0a1,1,0,1,1,1,1A1,1,0,0,1,104,73Zm-8,0a1,1,0,1,1,1,1A1,1,0,0,1,96,73Zm-8,0a1,1,0,1,1,1,1A1,1,0,0,1,88,73Zm-8,0a1,1,0,1,1,1,1A1,1,0,0,1,80,73Zm-8,0a1,1,0,1,1,1,1A1,1,0,0,1,72,73Zm-8,0a1,1,0,1,1,1,1A1,1,0,0,1,64,73Zm-8,0a1,1,0,1,1,1,1A1,1,0,0,1,56,73Zm-8,0a1,1,0,1,1,1,1A1,1,0,0,1,48,73Zm-8,0a1,1,0,1,1,1,1A1,1,0,0,1,40,73Zm-8,0a1,1,0,1,1,1,1A1,1,0,0,1,32,73Zm-8,0a1,1,0,1,1,1,1A1,1,0,0,1,24,73Zm-8,0a1,1,0,1,1,1,1A1,1,0,0,1,16,73ZM8,73a1,1,0,1,1,1,1A1,1,0,0,1,8,73ZM0,73a1,1,0,1,1,1,1A1,1,0,0,1,0,73Zm248-8a1,1,0,1,1,1,1A1,1,0,0,1,248,65Zm-8,0a1,1,0,1,1,1,1A1,1,0,0,1,240,65Zm-8,0a1,1,0,1,1,1,1A1,1,0,0,1,232,65Zm-8,0a1,1,0,1,1,1,1A1,1,0,0,1,224,65Zm-8,0a1,1,0,1,1,1,1A1,1,0,0,1,216,65Zm-8,0a1,1,0,1,1,1,1A1,1,0,0,1,208,65Zm-8,0a1,1,0,1,1,1,1A1,1,0,0,1,200,65Zm-8,0a1,1,0,1,1,1,1A1,1,0,0,1,192,65Zm-8,0a1,1,0,1,1,1,1A1,1,0,0,1,184,65Zm-8,0a1,1,0,1,1,1,1A1,1,0,0,1,176,65Zm-8,0a1,1,0,1,1,1,1A1,1,0,0,1,168,65Zm-8,0a1,1,0,1,1,1,1A1,1,0,0,1,160,65Zm-8,0a1,1,0,1,1,1,1A1,1,0,0,1,152,65Zm-8,0a1,1,0,1,1,1,1A1,1,0,0,1,144,65Zm-8,0a1,1,0,1,1,1,1A1,1,0,0,1,136,65Zm-8,0a1,1,0,1,1,1,1A1,1,0,0,1,128,65Zm-8,0a1,1,0,1,1,1,1A1,1,0,0,1,120,65Zm-8,0a1,1,0,1,1,1,1A1,1,0,0,1,112,65Zm-8,0a1,1,0,1,1,1,1A1,1,0,0,1,104,65Zm-8,0a1,1,0,1,1,1,1A1,1,0,0,1,96,65Zm-8,0a1,1,0,1,1,1,1A1,1,0,0,1,88,65Zm-8,0a1,1,0,1,1,1,1A1,1,0,0,1,80,65Zm-8,0a1,1,0,1,1,1,1A1,1,0,0,1,72,65Zm-8,0a1,1,0,1,1,1,1A1,1,0,0,1,64,65Zm-8,0a1,1,0,1,1,1,1A1,1,0,0,1,56,65Zm-8,0a1,1,0,1,1,1,1A1,1,0,0,1,48,65Zm-8,0a1,1,0,1,1,1,1A1,1,0,0,1,40,65Zm-8,0a1,1,0,1,1,1,1A1,1,0,0,1,32,65Zm-8,0a1,1,0,1,1,1,1A1,1,0,0,1,24,65Zm-8,0a1,1,0,1,1,1,1A1,1,0,0,1,16,65ZM8,65a1,1,0,1,1,1,1A1,1,0,0,1,8,65ZM0,65a1,1,0,1,1,1,1A1,1,0,0,1,0,65Zm248-8a1,1,0,1,1,1,1A1,1,0,0,1,248,57Zm-8,0a1,1,0,1,1,1,1A1,1,0,0,1,240,57Zm-8,0a1,1,0,1,1,1,1A1,1,0,0,1,232,57Zm-8,0a1,1,0,1,1,1,1A1,1,0,0,1,224,57Zm-8,0a1,1,0,1,1,1,1A1,1,0,0,1,216,57Zm-8,0a1,1,0,1,1,1,1A1,1,0,0,1,208,57Zm-8,0a1,1,0,1,1,1,1A1,1,0,0,1,200,57Zm-8,0a1,1,0,1,1,1,1A1,1,0,0,1,192,57Zm-8,0a1,1,0,1,1,1,1A1,1,0,0,1,184,57Zm-8,0a1,1,0,1,1,1,1A1,1,0,0,1,176,57Zm-8,0a1,1,0,1,1,1,1A1,1,0,0,1,168,57Zm-8,0a1,1,0,1,1,1,1A1,1,0,0,1,160,57Zm-8,0a1,1,0,1,1,1,1A1,1,0,0,1,152,57Zm-8,0a1,1,0,1,1,1,1A1,1,0,0,1,144,57Zm-8,0a1,1,0,1,1,1,1A1,1,0,0,1,136,57Zm-8,0a1,1,0,1,1,1,1A1,1,0,0,1,128,57Zm-8,0a1,1,0,1,1,1,1A1,1,0,0,1,120,57Zm-8,0a1,1,0,1,1,1,1A1,1,0,0,1,112,57Zm-8,0a1,1,0,1,1,1,1A1,1,0,0,1,104,57Zm-8,0a1,1,0,1,1,1,1A1,1,0,0,1,96,57Zm-8,0a1,1,0,1,1,1,1A1,1,0,0,1,88,57Zm-8,0a1,1,0,1,1,1,1A1,1,0,0,1,80,57Zm-8,0a1,1,0,1,1,1,1A1,1,0,0,1,72,57Zm-8,0a1,1,0,1,1,1,1A1,1,0,0,1,64,57Zm-8,0a1,1,0,1,1,1,1A1,1,0,0,1,56,57Zm-8,0a1,1,0,1,1,1,1A1,1,0,0,1,48,57Zm-8,0a1,1,0,1,1,1,1A1,1,0,0,1,40,57Zm-8,0a1,1,0,1,1,1,1A1,1,0,0,1,32,57Zm-8,0a1,1,0,1,1,1,1A1,1,0,0,1,24,57Zm-8,0a1,1,0,1,1,1,1A1,1,0,0,1,16,57ZM8,57a1,1,0,1,1,1,1A1,1,0,0,1,8,57ZM0,57a1,1,0,1,1,1,1A1,1,0,0,1,0,57Zm248-8a1,1,0,1,1,1,1A1,1,0,0,1,248,49Zm-8,0a1,1,0,1,1,1,1A1,1,0,0,1,240,49Zm-8,0a1,1,0,1,1,1,1A1,1,0,0,1,232,49Zm-8,0a1,1,0,1,1,1,1A1,1,0,0,1,224,49Zm-8,0a1,1,0,1,1,1,1A1,1,0,0,1,216,49Zm-8,0a1,1,0,1,1,1,1A1,1,0,0,1,208,49Zm-8,0a1,1,0,1,1,1,1A1,1,0,0,1,200,49Zm-8,0a1,1,0,1,1,1,1A1,1,0,0,1,192,49Zm-8,0a1,1,0,1,1,1,1A1,1,0,0,1,184,49Zm-8,0a1,1,0,1,1,1,1A1,1,0,0,1,176,49Zm-8,0a1,1,0,1,1,1,1A1,1,0,0,1,168,49Zm-8,0a1,1,0,1,1,1,1A1,1,0,0,1,160,49Zm-8,0a1,1,0,1,1,1,1A1,1,0,0,1,152,49Zm-8,0a1,1,0,1,1,1,1A1,1,0,0,1,144,49Zm-8,0a1,1,0,1,1,1,1A1,1,0,0,1,136,49Zm-8,0a1,1,0,1,1,1,1A1,1,0,0,1,128,49Zm-8,0a1,1,0,1,1,1,1A1,1,0,0,1,120,49Zm-8,0a1,1,0,1,1,1,1A1,1,0,0,1,112,49Zm-8,0a1,1,0,1,1,1,1A1,1,0,0,1,104,49Zm-8,0a1,1,0,1,1,1,1A1,1,0,0,1,96,49Zm-8,0a1,1,0,1,1,1,1A1,1,0,0,1,88,49Zm-8,0a1,1,0,1,1,1,1A1,1,0,0,1,80,49Zm-8,0a1,1,0,1,1,1,1A1,1,0,0,1,72,49Zm-8,0a1,1,0,1,1,1,1A1,1,0,0,1,64,49Zm-8,0a1,1,0,1,1,1,1A1,1,0,0,1,56,49Zm-8,0a1,1,0,1,1,1,1A1,1,0,0,1,48,49Zm-8,0a1,1,0,1,1,1,1A1,1,0,0,1,40,49Zm-8,0a1,1,0,1,1,1,1A1,1,0,0,1,32,49Zm-8,0a1,1,0,1,1,1,1A1,1,0,0,1,24,49Zm-8,0a1,1,0,1,1,1,1A1,1,0,0,1,16,49ZM8,49a1,1,0,1,1,1,1A1,1,0,0,1,8,49ZM0,49a1,1,0,1,1,1,1A1,1,0,0,1,0,49Zm248-8a1,1,0,1,1,1,1A1,1,0,0,1,248,41Zm-8,0a1,1,0,1,1,1,1A1,1,0,0,1,240,41Zm-8,0a1,1,0,1,1,1,1A1,1,0,0,1,232,41Zm-8,0a1,1,0,1,1,1,1A1,1,0,0,1,224,41Zm-8,0a1,1,0,1,1,1,1A1,1,0,0,1,216,41Zm-8,0a1,1,0,1,1,1,1A1,1,0,0,1,208,41Zm-8,0a1,1,0,1,1,1,1A1,1,0,0,1,200,41Zm-8,0a1,1,0,1,1,1,1A1,1,0,0,1,192,41Zm-8,0a1,1,0,1,1,1,1A1,1,0,0,1,184,41Zm-8,0a1,1,0,1,1,1,1A1,1,0,0,1,176,41Zm-8,0a1,1,0,1,1,1,1A1,1,0,0,1,168,41Zm-8,0a1,1,0,1,1,1,1A1,1,0,0,1,160,41Zm-8,0a1,1,0,1,1,1,1A1,1,0,0,1,152,41Zm-8,0a1,1,0,1,1,1,1A1,1,0,0,1,144,41Zm-8,0a1,1,0,1,1,1,1A1,1,0,0,1,136,41Zm-8,0a1,1,0,1,1,1,1A1,1,0,0,1,128,41Zm-8,0a1,1,0,1,1,1,1A1,1,0,0,1,120,41Zm-8,0a1,1,0,1,1,1,1A1,1,0,0,1,112,41Zm-8,0a1,1,0,1,1,1,1A1,1,0,0,1,104,41Zm-8,0a1,1,0,1,1,1,1A1,1,0,0,1,96,41Zm-8,0a1,1,0,1,1,1,1A1,1,0,0,1,88,41Zm-8,0a1,1,0,1,1,1,1A1,1,0,0,1,80,41Zm-8,0a1,1,0,1,1,1,1A1,1,0,0,1,72,41Zm-8,0a1,1,0,1,1,1,1A1,1,0,0,1,64,41Zm-8,0a1,1,0,1,1,1,1A1,1,0,0,1,56,41Zm-8,0a1,1,0,1,1,1,1A1,1,0,0,1,48,41Zm-8,0a1,1,0,1,1,1,1A1,1,0,0,1,40,41Zm-8,0a1,1,0,1,1,1,1A1,1,0,0,1,32,41Zm-8,0a1,1,0,1,1,1,1A1,1,0,0,1,24,41Zm-8,0a1,1,0,1,1,1,1A1,1,0,0,1,16,41ZM8,41a1,1,0,1,1,1,1A1,1,0,0,1,8,41ZM0,41a1,1,0,1,1,1,1A1,1,0,0,1,0,41Zm248-8a1,1,0,1,1,1,1A1,1,0,0,1,248,33Zm-8,0a1,1,0,1,1,1,1A1,1,0,0,1,240,33Zm-8,0a1,1,0,1,1,1,1A1,1,0,0,1,232,33Zm-8,0a1,1,0,1,1,1,1A1,1,0,0,1,224,33Zm-8,0a1,1,0,1,1,1,1A1,1,0,0,1,216,33Zm-8,0a1,1,0,1,1,1,1A1,1,0,0,1,208,33Zm-8,0a1,1,0,1,1,1,1A1,1,0,0,1,200,33Zm-8,0a1,1,0,1,1,1,1A1,1,0,0,1,192,33Zm-8,0a1,1,0,1,1,1,1A1,1,0,0,1,184,33Zm-8,0a1,1,0,1,1,1,1A1,1,0,0,1,176,33Zm-8,0a1,1,0,1,1,1,1A1,1,0,0,1,168,33Zm-8,0a1,1,0,1,1,1,1A1,1,0,0,1,160,33Zm-8,0a1,1,0,1,1,1,1A1,1,0,0,1,152,33Zm-8,0a1,1,0,1,1,1,1A1,1,0,0,1,144,33Zm-8,0a1,1,0,1,1,1,1A1,1,0,0,1,136,33Zm-8,0a1,1,0,1,1,1,1A1,1,0,0,1,128,33Zm-8,0a1,1,0,1,1,1,1A1,1,0,0,1,120,33Zm-8,0a1,1,0,1,1,1,1A1,1,0,0,1,112,33Zm-8,0a1,1,0,1,1,1,1A1,1,0,0,1,104,33Zm-8,0a1,1,0,1,1,1,1A1,1,0,0,1,96,33Zm-8,0a1,1,0,1,1,1,1A1,1,0,0,1,88,33Zm-8,0a1,1,0,1,1,1,1A1,1,0,0,1,80,33Zm-8,0a1,1,0,1,1,1,1A1,1,0,0,1,72,33Zm-8,0a1,1,0,1,1,1,1A1,1,0,0,1,64,33Zm-8,0a1,1,0,1,1,1,1A1,1,0,0,1,56,33Zm-8,0a1,1,0,1,1,1,1A1,1,0,0,1,48,33Zm-8,0a1,1,0,1,1,1,1A1,1,0,0,1,40,33Zm-8,0a1,1,0,1,1,1,1A1,1,0,0,1,32,33Zm-8,0a1,1,0,1,1,1,1A1,1,0,0,1,24,33Zm-8,0a1,1,0,1,1,1,1A1,1,0,0,1,16,33ZM8,33a1,1,0,1,1,1,1A1,1,0,0,1,8,33ZM0,33a1,1,0,1,1,1,1A1,1,0,0,1,0,33Zm248-8a1,1,0,1,1,1,1A1,1,0,0,1,248,25Zm-8,0a1,1,0,1,1,1,1A1,1,0,0,1,240,25Zm-8,0a1,1,0,1,1,1,1A1,1,0,0,1,232,25Zm-8,0a1,1,0,1,1,1,1A1,1,0,0,1,224,25Zm-8,0a1,1,0,1,1,1,1A1,1,0,0,1,216,25Zm-8,0a1,1,0,1,1,1,1A1,1,0,0,1,208,25Zm-8,0a1,1,0,1,1,1,1A1,1,0,0,1,200,25Zm-8,0a1,1,0,1,1,1,1A1,1,0,0,1,192,25Zm-8,0a1,1,0,1,1,1,1A1,1,0,0,1,184,25Zm-8,0a1,1,0,1,1,1,1A1,1,0,0,1,176,25Zm-8,0a1,1,0,1,1,1,1A1,1,0,0,1,168,25Zm-8,0a1,1,0,1,1,1,1A1,1,0,0,1,160,25Zm-8,0a1,1,0,1,1,1,1A1,1,0,0,1,152,25Zm-8,0a1,1,0,1,1,1,1A1,1,0,0,1,144,25Zm-8,0a1,1,0,1,1,1,1A1,1,0,0,1,136,25Zm-8,0a1,1,0,1,1,1,1A1,1,0,0,1,128,25Zm-8,0a1,1,0,1,1,1,1A1,1,0,0,1,120,25Zm-8,0a1,1,0,1,1,1,1A1,1,0,0,1,112,25Zm-8,0a1,1,0,1,1,1,1A1,1,0,0,1,104,25Zm-8,0a1,1,0,1,1,1,1A1,1,0,0,1,96,25Zm-8,0a1,1,0,1,1,1,1A1,1,0,0,1,88,25Zm-8,0a1,1,0,1,1,1,1A1,1,0,0,1,80,25Zm-8,0a1,1,0,1,1,1,1A1,1,0,0,1,72,25Zm-8,0a1,1,0,1,1,1,1A1,1,0,0,1,64,25Zm-8,0a1,1,0,1,1,1,1A1,1,0,0,1,56,25Zm-8,0a1,1,0,1,1,1,1A1,1,0,0,1,48,25Zm-8,0a1,1,0,1,1,1,1A1,1,0,0,1,40,25Zm-8,0a1,1,0,1,1,1,1A1,1,0,0,1,32,25Zm-8,0a1,1,0,1,1,1,1A1,1,0,0,1,24,25Zm-8,0a1,1,0,1,1,1,1A1,1,0,0,1,16,25ZM8,25a1,1,0,1,1,1,1A1,1,0,0,1,8,25ZM0,25a1,1,0,1,1,1,1A1,1,0,0,1,0,25Zm248-8a1,1,0,1,1,1,1A1,1,0,0,1,248,17Zm-8,0a1,1,0,1,1,1,1A1,1,0,0,1,240,17Zm-8,0a1,1,0,1,1,1,1A1,1,0,0,1,232,17Zm-8,0a1,1,0,1,1,1,1A1,1,0,0,1,224,17Zm-8,0a1,1,0,1,1,1,1A1,1,0,0,1,216,17Zm-8,0a1,1,0,1,1,1,1A1,1,0,0,1,208,17Zm-8,0a1,1,0,1,1,1,1A1,1,0,0,1,200,17Zm-8,0a1,1,0,1,1,1,1A1,1,0,0,1,192,17Zm-8,0a1,1,0,1,1,1,1A1,1,0,0,1,184,17Zm-8,0a1,1,0,1,1,1,1A1,1,0,0,1,176,17Zm-8,0a1,1,0,1,1,1,1A1,1,0,0,1,168,17Zm-8,0a1,1,0,1,1,1,1A1,1,0,0,1,160,17Zm-8,0a1,1,0,1,1,1,1A1,1,0,0,1,152,17Zm-8,0a1,1,0,1,1,1,1A1,1,0,0,1,144,17Zm-8,0a1,1,0,1,1,1,1A1,1,0,0,1,136,17Zm-8,0a1,1,0,1,1,1,1A1,1,0,0,1,128,17Zm-8,0a1,1,0,1,1,1,1A1,1,0,0,1,120,17Zm-8,0a1,1,0,1,1,1,1A1,1,0,0,1,112,17Zm-8,0a1,1,0,1,1,1,1A1,1,0,0,1,104,17Zm-8,0a1,1,0,1,1,1,1A1,1,0,0,1,96,17Zm-8,0a1,1,0,1,1,1,1A1,1,0,0,1,88,17Zm-8,0a1,1,0,1,1,1,1A1,1,0,0,1,80,17Zm-8,0a1,1,0,1,1,1,1A1,1,0,0,1,72,17Zm-8,0a1,1,0,1,1,1,1A1,1,0,0,1,64,17Zm-8,0a1,1,0,1,1,1,1A1,1,0,0,1,56,17Zm-8,0a1,1,0,1,1,1,1A1,1,0,0,1,48,17Zm-8,0a1,1,0,1,1,1,1A1,1,0,0,1,40,17Zm-8,0a1,1,0,1,1,1,1A1,1,0,0,1,32,17Zm-8,0a1,1,0,1,1,1,1A1,1,0,0,1,24,17Zm-8,0a1,1,0,1,1,1,1A1,1,0,0,1,16,17ZM8,17a1,1,0,1,1,1,1A1,1,0,0,1,8,17ZM0,17a1,1,0,1,1,1,1A1,1,0,0,1,0,17ZM248,9a1,1,0,1,1,1,1A1,1,0,0,1,248,9Zm-8,0a1,1,0,1,1,1,1A1,1,0,0,1,240,9Zm-8,0a1,1,0,1,1,1,1A1,1,0,0,1,232,9Zm-8,0a1,1,0,1,1,1,1A1,1,0,0,1,224,9Zm-8,0a1,1,0,1,1,1,1A1,1,0,0,1,216,9Zm-8,0a1,1,0,1,1,1,1A1,1,0,0,1,208,9Zm-8,0a1,1,0,1,1,1,1A1,1,0,0,1,200,9Zm-8,0a1,1,0,1,1,1,1A1,1,0,0,1,192,9Zm-8,0a1,1,0,1,1,1,1A1,1,0,0,1,184,9Zm-8,0a1,1,0,1,1,1,1A1,1,0,0,1,176,9Zm-8,0a1,1,0,1,1,1,1A1,1,0,0,1,168,9Zm-8,0a1,1,0,1,1,1,1A1,1,0,0,1,160,9Zm-8,0a1,1,0,1,1,1,1A1,1,0,0,1,152,9Zm-8,0a1,1,0,1,1,1,1A1,1,0,0,1,144,9Zm-8,0a1,1,0,1,1,1,1A1,1,0,0,1,136,9Zm-8,0a1,1,0,1,1,1,1A1,1,0,0,1,128,9Zm-8,0a1,1,0,1,1,1,1A1,1,0,0,1,120,9Zm-8,0a1,1,0,1,1,1,1A1,1,0,0,1,112,9Zm-8,0a1,1,0,1,1,1,1A1,1,0,0,1,104,9ZM96,9a1,1,0,1,1,1,1A1,1,0,0,1,96,9ZM88,9a1,1,0,1,1,1,1A1,1,0,0,1,88,9ZM80,9a1,1,0,1,1,1,1A1,1,0,0,1,80,9ZM72,9a1,1,0,1,1,1,1A1,1,0,0,1,72,9ZM64,9a1,1,0,1,1,1,1A1,1,0,0,1,64,9ZM56,9a1,1,0,1,1,1,1A1,1,0,0,1,56,9ZM48,9a1,1,0,1,1,1,1A1,1,0,0,1,48,9ZM40,9a1,1,0,1,1,1,1A1,1,0,0,1,40,9ZM32,9a1,1,0,1,1,1,1A1,1,0,0,1,32,9ZM24,9a1,1,0,1,1,1,1A1,1,0,0,1,24,9ZM16,9a1,1,0,1,1,1,1A1,1,0,0,1,16,9ZM8,9a1,1,0,1,1,1,1A1,1,0,0,1,8,9ZM0,9a1,1,0,1,1,1,1A1,1,0,0,1,0,9ZM248,1a1,1,0,1,1,1,1A1,1,0,0,1,248,1Zm-8,0a1,1,0,1,1,1,1A1,1,0,0,1,240,1Zm-8,0a1,1,0,1,1,1,1A1,1,0,0,1,232,1Zm-8,0a1,1,0,1,1,1,1A1,1,0,0,1,224,1Zm-8,0a1,1,0,1,1,1,1A1,1,0,0,1,216,1Zm-8,0a1,1,0,1,1,1,1A1,1,0,0,1,208,1Zm-8,0a1,1,0,1,1,1,1A1,1,0,0,1,200,1Zm-8,0a1,1,0,1,1,1,1A1,1,0,0,1,192,1Zm-8,0a1,1,0,1,1,1,1A1,1,0,0,1,184,1Zm-8,0a1,1,0,1,1,1,1A1,1,0,0,1,176,1Zm-8,0a1,1,0,1,1,1,1A1,1,0,0,1,168,1Zm-8,0a1,1,0,1,1,1,1A1,1,0,0,1,160,1Zm-8,0a1,1,0,1,1,1,1A1,1,0,0,1,152,1Zm-8,0a1,1,0,1,1,1,1A1,1,0,0,1,144,1Zm-8,0a1,1,0,1,1,1,1A1,1,0,0,1,136,1Zm-8,0a1,1,0,1,1,1,1A1,1,0,0,1,128,1Zm-8,0a1,1,0,1,1,1,1A1,1,0,0,1,120,1Zm-8,0a1,1,0,1,1,1,1A1,1,0,0,1,112,1Zm-8,0a1,1,0,1,1,1,1A1,1,0,0,1,104,1ZM96,1a1,1,0,1,1,1,1A1,1,0,0,1,96,1ZM88,1a1,1,0,1,1,1,1A1,1,0,0,1,88,1ZM80,1a1,1,0,1,1,1,1A1,1,0,0,1,80,1ZM72,1a1,1,0,1,1,1,1A1,1,0,0,1,72,1ZM64,1a1,1,0,1,1,1,1A1,1,0,0,1,64,1ZM56,1a1,1,0,1,1,1,1A1,1,0,0,1,56,1ZM48,1a1,1,0,1,1,1,1A1,1,0,0,1,48,1ZM40,1a1,1,0,1,1,1,1A1,1,0,0,1,40,1ZM32,1a1,1,0,1,1,1,1A1,1,0,0,1,32,1ZM24,1a1,1,0,1,1,1,1A1,1,0,0,1,24,1ZM16,1a1,1,0,1,1,1,1A1,1,0,0,1,16,1ZM8,1A1,1,0,1,1,9,2,1,1,0,0,1,8,1ZM0,1A1,1,0,1,1,1,2,1,1,0,0,1,0,1Z" transform="translate(250 250) rotate(180)"/></g></g><path class="a" d="M125,0A125,125,0,1,1,0,125,125,125,0,0,1,125,0Z" transform="translate(3067 1840)"/><path class="c" d="M-112.749,1988.253a1.363,1.363,0,0,1-1.362-1.362v-2.724a2.711,2.711,0,0,1,2.113-2.655l34.447-7.95,15.748-21a2.733,2.733,0,0,1,2.18-1.091H-56.9v-11.134l-3.614-.328-10.466,15.7a2.769,2.769,0,0,1-.341.416l-16.346,16.346a2.706,2.706,0,0,1-1.926.8,2.69,2.69,0,0,1-1.93-.8l-8.168-8.168a2.7,2.7,0,0,1-.8-1.926,2.709,2.709,0,0,1,.8-1.927l13.385-13.383,7.409-12.35a13.423,13.423,0,0,1-1.466-1.933,13.517,13.517,0,0,1-1.148-12.087l7.766-20.186a16.323,16.323,0,0,1-4.95-11.69,16.365,16.365,0,0,1,16.346-16.346A16.365,16.365,0,0,1-46,1888.813a16.37,16.37,0,0,1-2.2,8.173h11.965l15.549-15.548a1.5,1.5,0,0,1,.2-.161,1.527,1.527,0,0,1,.211-.176l15.519-10.346,4.51-15.784a16.482,16.482,0,0,1-10.339-15.2,16.346,16.346,0,1,1,32.691,0,16.249,16.249,0,0,1-1.911,7.633,62.274,62.274,0,0,1,19.581,34.136,13.656,13.656,0,0,1-1.437,9.219c.012.038.023.075.033.113l2.724,10.9,7.493,22.457h.761a1.362,1.362,0,0,1,1.362,1.362v2.724a1.363,1.363,0,0,1-1.362,1.362h-56l-23.708,26.342a2.725,2.725,0,0,1-2.024.9H-58.261l-15.528,20.7a2.727,2.727,0,0,1-1.561,1.02l-33.312,7.688v.556a1.363,1.363,0,0,1-1.362,1.362Zm23.157-21.561,14.229-14.229,8.674-13.012-3.341-.3a13.568,13.568,0,0,1-4.46-1.192l-7.319,12.2a2.751,2.751,0,0,1-.409.524l-11.7,11.7Zm56-15.218,23.709-26.342a2.721,2.721,0,0,1,2.024-.9h3.215l5.013-25.056a2.728,2.728,0,0,1,.542-1.163l10.054-12.572-.687-2.748a2.809,2.809,0,0,1-.347.258l-21.442,13.4-16.075,18.754a2.72,2.72,0,0,1-1.819.941l-22.578,2.053-1.321,3.968,8.647,1.44a8.149,8.149,0,0,1,6.83,8.062v19.9Zm-9.684,0v-19.9a2.716,2.716,0,0,0-2.276-2.688l-11.794-1.966a2.712,2.712,0,0,1-1.885-1.283,2.72,2.72,0,0,1-.252-2.263l1.579-4.735-1.47.135c-.042,0-.083.005-.124.005a1.356,1.356,0,0,1-.872-.316,1.364,1.364,0,0,1-.485-.922l-.247-2.715a1.364,1.364,0,0,1,.311-1,1.361,1.361,0,0,1,.922-.483L-31,1910.72l14.45-16.857-2.951-5.9-13.674,13.672a2.734,2.734,0,0,1-1.926.8H-53.338a16.22,16.22,0,0,1-9.01,2.724,16.246,16.246,0,0,1-6.778-1.489l-7.3,18.977a8.1,8.1,0,0,0,.687,7.25,8.107,8.107,0,0,0,6.2,3.822l15.607,1.42a2.711,2.711,0,0,1,2.479,2.713v13.622Zm86.124-27.244L35.869,1903.3,33.94,1895.6l-6.218,4.663,2.456,12.284,4.672,11.678Zm-13.866,0-3.954-9.887a2.652,2.652,0,0,1-.142-.481l-2-9.971-3.671,2.753-2.2,17.586Zm-17.452,0,2.427-19.408a2.743,2.743,0,0,1,1.067-1.84l16.3-12.224a8.22,8.22,0,0,0,3.11-8.143,56.823,56.823,0,0,0-17.572-30.875,16.361,16.361,0,0,1-11.1,4.382c-.215,0-.437-.005-.665-.016l-4.89,17.113A2.724,2.724,0,0,1-.9,1874.734l-14.345,9.564,3.035,6.067,18.6-11.629,5.105-10.213a1.363,1.363,0,0,1,1.829-.609l2.437,1.219a1.364,1.364,0,0,1,.609,1.828l-2.275,4.547,2.479,9.919a2.706,2.706,0,0,1-.515,2.364L5.579,1900.9.911,1924.23Zm-73.877-46.315a10.91,10.91,0,0,0-10.9,10.9,10.91,10.91,0,0,0,10.9,10.9,10.91,10.91,0,0,0,10.9-10.9A10.91,10.91,0,0,0-62.348,1877.916Zm68.11-49.039a10.9,10.9,0,1,0,10.9,10.9A10.91,10.91,0,0,0,5.762,1828.877Z" transform="translate(3231.478 59.38)"/></g></svg>