<svg xmlns="http://www.w3.org/2000/svg" xmlns:xlink="http://www.w3.org/1999/xlink" width="66" height="67" viewBox="0 0 66 67"><defs><style>.a{fill:#fff;fill-rule:evenodd;}.b{filter:url(#a);}</style><filter id="a" x="0" y="0" width="66" height="67" filterUnits="userSpaceOnUse"><feOffset dy="1" input="SourceAlpha"/><feGaussianBlur result="b"/><feFlood flood-opacity="0.302"/><feComposite operator="in" in2="b"/><feComposite in="SourceGraphic"/></filter></defs><g class="b" transform="matrix(1, 0, 0, 1, 0, 0)"><path class="a" d="M216.309,33a33,33,0,1,0-33,33A33,33,0,0,0,216.309,33Zm-3.96,0a29.04,29.04,0,1,0-29.04,29.04A29.04,29.04,0,0,0,212.349,33Zm-13.506,7.61a4.068,4.068,0,0,1-3.48,3.164,108.183,108.183,0,0,1-12.056.446,108.174,108.174,0,0,1-12.056-.446,4.067,4.067,0,0,1-3.48-3.164,34.527,34.527,0,0,1-.56-7.61,34.474,34.474,0,0,1,.567-7.61,4.066,4.066,0,0,1,3.479-3.164,108.174,108.174,0,0,1,12.056-.446,108.175,108.175,0,0,1,12.056.446,4.066,4.066,0,0,1,3.48,3.164,34.469,34.469,0,0,1,.557,7.61A34.528,34.528,0,0,1,198.843,40.61ZM180.411,27.06l8.91,5.144-8.91,5.144Z" transform="translate(-150.31)"/></g></svg>